<svg xmlns="http://www.w3.org/2000/svg" xmlns:xlink="http://www.w3.org/1999/xlink" width="593.898" height="360.225" viewBox="0 0 593.898 360.225"><defs><linearGradient id="a" x1="-0.268" y1="1.082" x2="-0.234" y2="-0.102" gradientUnits="objectBoundingBox"><stop offset="0" stop-color="#dae3fe"/><stop offset="1" stop-color="#e9effd"/></linearGradient><linearGradient id="b" x1="-4.855" y1="-0.445" x2="-2.736" y2="2.147" gradientUnits="objectBoundingBox"><stop offset="0" stop-color="#fe7062"/><stop offset="1" stop-color="#ff928e"/></linearGradient><linearGradient id="c" x1="-369.395" y1="-0.166" x2="-390.165" y2="3.362" gradientUnits="objectBoundingBox"><stop offset="0" stop-color="#09005d"/><stop offset="1" stop-color="#1a0f91"/></linearGradient><linearGradient id="d" x1="-464.958" y1="-0.084" x2="-491.133" y2="3.369" xlink:href="#c"/><linearGradient id="e" x1="-410.654" y1="-0.016" x2="-433.921" y2="3.45" xlink:href="#c"/><linearGradient id="f" x1="-273.769" y1="0.122" x2="-289.347" y2="3.383" xlink:href="#c"/><linearGradient id="g" x1="-638.016" y1="0.176" x2="-674.531" y2="3.685" xlink:href="#c"/><linearGradient id="h" x1="-404.386" y1="0.228" x2="-427.72" y2="3.739" xlink:href="#c"/><linearGradient id="i" x1="-247.193" y1="-0.187" x2="-260.955" y2="2.941" xlink:href="#c"/><linearGradient id="j" x1="0.743" y1="-0.607" x2="0.412" y2="0.507" xlink:href="#c"/><linearGradient id="k" x1="-6.867" y1="-0.445" x2="-4.748" y2="2.147" xlink:href="#b"/><linearGradient id="l" x1="-515.302" y1="-0.166" x2="-536.125" y2="3.362" xlink:href="#c"/><linearGradient id="m" x1="-647.525" y1="-0.084" x2="-673.696" y2="3.369" xlink:href="#c"/><linearGradient id="n" x1="-573.557" y1="-0.016" x2="-596.86" y2="3.448" xlink:href="#c"/><linearGradient id="o" x1="-382.924" y1="0.122" x2="-398.502" y2="3.383" xlink:href="#c"/><linearGradient id="p" x1="-893.442" y1="0.176" x2="-929.957" y2="3.685" xlink:href="#c"/><linearGradient id="q" x1="-567.276" y1="0.228" x2="-590.624" y2="3.739" xlink:href="#c"/><linearGradient id="r" x1="-342.827" y1="-0.187" x2="-356.566" y2="2.941" xlink:href="#c"/><linearGradient id="s" x1="10.65" y1="10.902" x2="15.603" y2="1.274" xlink:href="#c"/><linearGradient id="t" x1="10.378" y1="11.553" x2="15.331" y2="1.944" xlink:href="#c"/><linearGradient id="u" x1="10.294" y1="12.381" x2="15.376" y2="2.762" xlink:href="#c"/><linearGradient id="v" x1="9.917" y1="13.292" x2="14.998" y2="3.673" xlink:href="#c"/><linearGradient id="w" x1="9.637" y1="13.966" x2="14.718" y2="4.347" xlink:href="#c"/><linearGradient id="x" x1="2.037" y1="9.12" x2="2.997" y2="3.866" xlink:href="#c"/><linearGradient id="y" x1="0.411" y1="0.932" x2="0.634" y2="-0.163" xlink:href="#c"/><linearGradient id="z" x1="1.13" y1="-0.309" x2="0.326" y2="0.752" gradientUnits="objectBoundingBox"><stop offset="0" stop-color="#4042e2"/><stop offset="1" stop-color="#4f52ff"/></linearGradient><linearGradient id="aa" x1="0" y1="0.5" x2="1" y2="0.5" xlink:href="#a"/><linearGradient id="ab" x1="0.593" y1="-9.409" x2="0.552" y2="-5.021" xlink:href="#c"/><linearGradient id="ac" x1="0" y1="0.5" x2="1" y2="0.5" xlink:href="#a"/><linearGradient id="ad" x1="0" y1="0.501" x2="1" y2="0.501" xlink:href="#a"/><linearGradient id="af" x1="0" y1="0.5" x2="1" y2="0.5" xlink:href="#a"/><linearGradient id="ag" x1="0.948" y1="-26.452" x2="0.594" y2="-5.174" xlink:href="#b"/><linearGradient id="ah" x1="0.571" y1="-10.168" x2="0.513" y2="-1.461" xlink:href="#b"/><linearGradient id="ai" x1="0.918" y1="-24.693" x2="0.565" y2="-3.415" xlink:href="#b"/><linearGradient id="aj" x1="0" y1="0.498" x2="1" y2="0.498" xlink:href="#a"/><linearGradient id="ak" x1="-0.002" y1="0.499" x2="0.999" y2="0.499" xlink:href="#a"/><linearGradient id="al" x1="-0.004" y1="0.499" x2="0.997" y2="0.499" xlink:href="#a"/><linearGradient id="am" x1="-0.003" y1="0.5" x2="0.997" y2="0.5" xlink:href="#a"/><linearGradient id="an" x1="0" y1="0.5" x2="1.001" y2="0.5" xlink:href="#a"/><linearGradient id="ao" x1="0.006" y1="0.5" x2="1.006" y2="0.5" xlink:href="#a"/><linearGradient id="ap" x1="0.006" y1="0.501" x2="1.006" y2="0.501" xlink:href="#a"/><linearGradient id="aq" x1="0.002" y1="0.5" x2="1.014" y2="0.5" xlink:href="#a"/><linearGradient id="ar" x1="0" y1="0.485" x2="1" y2="0.485" xlink:href="#a"/><linearGradient id="as" x1="-0.012" y1="0.499" x2="0.999" y2="0.499" xlink:href="#a"/><linearGradient id="at" x1="0" y1="0.5" x2="1.001" y2="0.5" xlink:href="#a"/><linearGradient id="au" x1="0" y1="0.5" x2="1" y2="0.5" xlink:href="#a"/><linearGradient id="av" x1="0" y1="0.5" x2="1" y2="0.5" xlink:href="#a"/><linearGradient id="aw" x1="0" y1="0.5" x2="1" y2="0.5" xlink:href="#a"/><linearGradient id="ay" x1="8.63" y1="-36.691" x2="-6.498" y2="32.514" xlink:href="#b"/><linearGradient id="az" x1="2.545" y1="-33.339" x2="-1.637" y2="35.866" xlink:href="#b"/><linearGradient id="ba" x1="5.225" y1="-13.613" x2="-5.428" y2="18.207" xlink:href="#b"/><linearGradient id="bb" x1="1.36" y1="-0.914" x2="-0.31" y2="1.832" xlink:href="#b"/><linearGradient id="bc" x1="11.567" y1="-18.265" x2="-7.137" y2="13.462" xlink:href="#b"/><linearGradient id="bk" x1="0" y1="0.5" x2="1" y2="0.5" xlink:href="#a"/><linearGradient id="bl" x1="21.657" y1="12.995" x2="26.001" y2="-2.13" xlink:href="#b"/><linearGradient id="bm" x1="0.201" y1="0.058" x2="0.648" y2="0.989" gradientUnits="objectBoundingBox"><stop offset="0" stop-color="#ff928e"/><stop offset="1" stop-color="#feb3b1"/></linearGradient><linearGradient id="bn" x1="-89.133" y1="-8.457" x2="-88.731" y2="-10.479" xlink:href="#c"/><linearGradient id="bo" x1="0.212" y1="-0.345" x2="0.342" y2="0.098" xlink:href="#bm"/><linearGradient id="bp" x1="-91.603" y1="-4.696" x2="-91.137" y2="-6.384" xlink:href="#c"/><linearGradient id="bq" x1="10.358" y1="-0.845" x2="9.728" y2="0.879" xlink:href="#c"/><linearGradient id="br" x1="3.282" y1="-1.744" x2="2.593" y2="-0.965" xlink:href="#c"/><linearGradient id="bs" x1="70.822" y1="0.088" x2="68.285" y2="2.712" xlink:href="#b"/><linearGradient id="bt" x1="-40.011" y1="0.5" x2="-39.011" y2="0.5" xlink:href="#bm"/><linearGradient id="bu" x1="0.274" y1="0.253" x2="1.295" y2="1.917" xlink:href="#bm"/><linearGradient id="bv" x1="-199.537" y1="-24.544" x2="-199.598" y2="-23.464" xlink:href="#bm"/><linearGradient id="bw" x1="-22.602" y1="-174.675" x2="-25.384" y2="-171.101" xlink:href="#c"/><linearGradient id="bx" x1="-816.377" y1="-80.33" x2="-816.629" y2="-76.806" xlink:href="#bm"/><linearGradient id="by" x1="-56.555" y1="-16.019" x2="-57.293" y2="-13.583" xlink:href="#z"/><linearGradient id="bz" x1="-0.016" y1="1.47" x2="0.511" y2="0.503" xlink:href="#c"/><linearGradient id="ca" x1="0.528" y1="-3.762" x2="0.509" y2="-0.863" gradientUnits="objectBoundingBox"><stop offset="0" stop-color="#e1473d"/><stop offset="1" stop-color="#e9605a"/></linearGradient><linearGradient id="cb" x1="15.858" y1="-2.337" x2="6.963" y2="-0.694" xlink:href="#ca"/><linearGradient id="cc" x1="-0.577" y1="1.579" x2="0.953" y2="0.045" xlink:href="#bm"/><linearGradient id="cd" x1="6.203" y1="0.153" x2="6.456" y2="1.981" xlink:href="#ca"/><linearGradient id="ce" x1="0.553" y1="0.447" x2="-0.948" y2="1.964" gradientUnits="objectBoundingBox"><stop offset="0" stop-color="#fe7062"/><stop offset="1" stop-color="#ff8f8b"/><stop offset="1" stop-color="#ff928e"/></linearGradient><linearGradient id="cf" x1="20.587" y1="0.448" x2="21.938" y2="0.559" xlink:href="#ca"/><linearGradient id="cg" x1="5.024" y1="-4.09" x2="2.651" y2="-1.681" xlink:href="#c"/><linearGradient id="ch" x1="-12.424" y1="4.447" x2="-2.015" y2="1.276" xlink:href="#c"/><linearGradient id="ci" x1="85.109" y1="-1.748" x2="82.335" y2="1.783" xlink:href="#ca"/><linearGradient id="cj" x1="39.142" y1="-0.433" x2="36.362" y2="1.195" xlink:href="#bm"/><linearGradient id="ck" x1="2.914" y1="-2.353" x2="2.021" y2="-1.298" xlink:href="#c"/><linearGradient id="cl" x1="1.614" y1="-0.889" x2="-0.055" y2="1.192" xlink:href="#ca"/><linearGradient id="cm" x1="1.688" y1="-0.922" x2="-0.434" y2="1.64" xlink:href="#bm"/><linearGradient id="cn" x1="7.218" y1="-6.766" x2="4.548" y2="-3.878" xlink:href="#c"/><linearGradient id="co" x1="3.583" y1="-1.43" x2="2.135" y2="-0.524" xlink:href="#c"/><linearGradient id="cp" x1="1.66" y1="-0.501" x2="-0.343" y2="1.227" xlink:href="#ca"/><linearGradient id="cq" x1="0" y1="0.5" x2="0.999" y2="0.5" xlink:href="#bm"/><linearGradient id="cr" x1="61.223" y1="13.834" x2="62.258" y2="9.529" xlink:href="#c"/><linearGradient id="cs" x1="4.195" y1="-1.553" x2="2.977" y2="-0.876" xlink:href="#c"/><linearGradient id="ct" x1="1.944" y1="-0.486" x2="-0.471" y2="1.163" xlink:href="#ca"/><linearGradient id="cu" x1="-0.001" y1="0.5" x2="1" y2="0.5" xlink:href="#bm"/><linearGradient id="cv" x1="61.391" y1="13.135" x2="62.427" y2="8.831" xlink:href="#c"/><linearGradient id="cw" x1="105.87" y1="1.101" x2="106.578" y2="-0.302" xlink:href="#bm"/><linearGradient id="cx" x1="94.185" y1="-0.179" x2="-14.717" y2="0.61" xlink:href="#bm"/><linearGradient id="cy" x1="0.111" y1="1.022" x2="0.94" y2="-0.035" xlink:href="#b"/><linearGradient id="cz" x1="-792.666" y1="-0.166" x2="-810.702" y2="3.358" xlink:href="#c"/><linearGradient id="da" x1="-992.087" y1="-0.086" x2="-1014.705" y2="3.376" xlink:href="#c"/><linearGradient id="db" x1="-884.481" y1="-0.015" x2="-904.696" y2="3.447" xlink:href="#c"/><linearGradient id="dc" x1="-596.193" y1="0.122" x2="-609.88" y2="3.394" xlink:href="#c"/><linearGradient id="dd" x1="-1390.282" y1="0.175" x2="-1422.274" y2="3.699" xlink:href="#c"/><linearGradient id="de" x1="-876.325" y1="0.227" x2="-896.53" y2="3.745" xlink:href="#c"/><linearGradient id="df" x1="-528.73" y1="-0.19" x2="-540.728" y2="2.95" xlink:href="#c"/><linearGradient id="dg" x1="0.141" y1="0.809" x2="1.366" y2="-0.168" xlink:href="#b"/><linearGradient id="dh" x1="-935.984" y1="-0.166" x2="-954.023" y2="3.359" xlink:href="#c"/><linearGradient id="di" x1="-1178.926" y1="-0.086" x2="-1201.684" y2="3.376" xlink:href="#c"/><linearGradient id="dj" x1="-1044.716" y1="-0.015" x2="-1064.927" y2="3.447" xlink:href="#c"/><linearGradient id="dk" x1="-704.849" y1="0.122" x2="-718.536" y2="3.394" xlink:href="#c"/><linearGradient id="dl" x1="-1643.994" y1="0.175" x2="-1675.981" y2="3.699" xlink:href="#c"/><linearGradient id="dm" x1="-1035.895" y1="0.228" x2="-1056.084" y2="3.744" xlink:href="#c"/><linearGradient id="dn" x1="-623.274" y1="-0.187" x2="-635.258" y2="2.945" xlink:href="#c"/><linearGradient id="do" x1="0.259" y1="0.828" x2="1.217" y2="-0.369" xlink:href="#b"/><linearGradient id="dp" x1="-1086.717" y1="-0.166" x2="-1104.737" y2="3.358" xlink:href="#c"/><linearGradient id="dq" x1="-1375.422" y1="-0.087" x2="-1398.262" y2="3.376" xlink:href="#c"/><linearGradient id="dr" x1="-1190.842" y1="-0.019" x2="-1210.657" y2="3.455" xlink:href="#c"/><linearGradient id="ds" x1="-821.064" y1="0.121" x2="-834.768" y2="3.397" xlink:href="#c"/><linearGradient id="dt" x1="-1912.278" y1="0.174" x2="-1944.255" y2="3.698" xlink:href="#c"/><linearGradient id="du" x1="-1214.741" y1="0.227" x2="-1235.078" y2="3.744" xlink:href="#c"/><linearGradient id="dv" x1="-724.858" y1="-0.19" x2="-736.854" y2="2.95" xlink:href="#c"/><linearGradient id="dw" x1="-0.316" y1="1.442" x2="1.257" y2="-0.325" gradientUnits="objectBoundingBox"><stop offset="0" stop-color="#fe7062"/><stop offset="0.53" stop-color="#fe7164"/><stop offset="0.72" stop-color="#fe776b"/><stop offset="0.86" stop-color="#fe8076"/><stop offset="0.97" stop-color="#ff8d87"/><stop offset="1" stop-color="#ff928e"/></linearGradient><linearGradient id="dx" x1="-1406.126" y1="-0.167" x2="-1426.999" y2="3.363" xlink:href="#c"/><linearGradient id="dy" x1="-1769.28" y1="-0.085" x2="-1795.501" y2="3.372" xlink:href="#c"/><linearGradient id="dz" x1="-1566.299" y1="-0.016" x2="-1589.574" y2="3.451" xlink:href="#c"/><linearGradient id="ea" x1="-1070.349" y1="0.122" x2="-1086.211" y2="3.384" xlink:href="#c"/><linearGradient id="eb" x1="-2461.508" y1="0.176" x2="-2498.067" y2="3.686" xlink:href="#c"/><linearGradient id="ec" x1="-1556.385" y1="0.227" x2="-1579.624" y2="3.744" xlink:href="#c"/><linearGradient id="ed" x1="-934.66" y1="-0.189" x2="-948.455" y2="2.945" xlink:href="#c"/><linearGradient id="ee" x1="-0.022" y1="0.935" x2="1.492" y2="-0.262" xlink:href="#b"/><linearGradient id="ef" x1="-1546.192" y1="-0.167" x2="-1566.991" y2="3.363" xlink:href="#c"/><linearGradient id="eg" x1="-1951.928" y1="-0.086" x2="-1978.134" y2="3.374" xlink:href="#c"/><linearGradient id="eh" x1="-1738.993" y1="-0.016" x2="-1762.4" y2="3.449" xlink:href="#c"/><linearGradient id="ei" x1="-1182.629" y1="0.123" x2="-1198.503" y2="3.384" xlink:href="#c"/><linearGradient id="ej" x1="-2717.444" y1="0.175" x2="-2753.997" y2="3.69" xlink:href="#c"/><linearGradient id="ek" x1="-1723.559" y1="0.228" x2="-1746.86" y2="3.743" xlink:href="#c"/><linearGradient id="el" x1="-1031.249" y1="-0.189" x2="-1045.041" y2="2.945" xlink:href="#c"/></defs><g transform="translate(-113.003 -155.21)"><g transform="translate(113.003 155.21)"><path d="M450.528,178.906c37.638,32.391,25.082,87.035,51.249,93.587,29.609,7.411,50.723-61.294,92.1-60.164,45.849,1.253,94.751,87.634,73.533,128.5-13.807,26.6-52.346,24.264-57.191,47.537-4.569,21.932,39.813,33.605,38.623,55.707-1.422,26.387-63.162,43.069-77.99,46.795-73.408,18.433-94.441-5.182-181.231-1.488-88.2,3.757-108.2,29.919-166.38,11.884-17.467-5.413-58.458-18.118-79.475-56.449-27.96-51-8.821-125.962,29.711-144.841,27.069-13.26,46.06-1.425,71.282-15.677,34.851-19.689,12.791-60.513,46.818-97.221C327.621,148.187,410.22,144.214,450.528,178.906Z" transform="translate(-125.925 -155.21)" fill="url(#a)"/><path d="M1666.708,497.826c11.889-39.375,62-194.986,135.012-279.411,5.21-6.028,16.305-4.168,17.194,3.717,5.158,45.7,26.035,188.835-146.185,280.747A4.274,4.274,0,0,1,1666.708,497.826Z" transform="translate(-1261.82 -199.313)" fill="#91b3fa"/><path d="M1687.279,651.971a1.042,1.042,0,0,1-.8-1.732c55.131-65.257,85.2-123.381,100.719-160.649,16.8-40.334,20.614-65.528,20.65-65.778a1.053,1.053,0,0,1,2.084.3c-.039.26-3.895,25.707-20.789,66.281-15.578,37.406-45.753,95.736-101.058,161.2a1.055,1.055,0,0,1-.805.373Z" transform="translate(-1276.384 -353.174)" fill="#7d97f4"/><path d="M1904.336,868.467a4.428,4.428,0,0,1-6.234-3.874c-.641-17.311,1.98-66.429,46.99-105.87,38.011-33.308,55.457-54.967,62.693-65.364a2.774,2.774,0,0,1,5.049,1.508C2013.637,724.371,2007.955,821.3,1904.336,868.467Z" transform="translate(-1433.019 -552.291)" fill="#bdd0fb"/><path d="M1908.888,1011.875a.989.989,0,0,1-.4-.083,1.011,1.011,0,0,1-.521-1.331,411.258,411.258,0,0,1,21.484-41.421c12.723-21.705,33.457-52.916,59.974-78.355a1.016,1.016,0,0,1,1.4,1.467c-26.337,25.269-46.954,56.3-59.609,77.891a410.844,410.844,0,0,0-21.385,41.233A1.018,1.018,0,0,1,1908.888,1011.875Z" transform="translate(-1440.307 -698.901)" fill="#91b3fa"/><path d="M579.886,1055.323v-24.136c0-3.5-2.431-6.349-5.452-6.385-9.076-.115-27.793-.12-43.108,1.373a4.555,4.555,0,0,0-3.79,4.611l-1.235,23.357Z" transform="translate(-418.634 -798.235)" fill="url(#b)"/><path d="M680.335,1054.8c.039,2.266-.018,5.861-.065,8.185a1.881,1.881,0,0,1-1.98,1.988l-7.469-1.013a2.019,2.019,0,0,1-1.547-2.345l.917-7.075a1.876,1.876,0,0,1,1.753-1.748h6.622A1.919,1.919,0,0,1,680.335,1054.8Z" transform="translate(-524.347 -818.965)" fill="#fff" opacity="0.84"/><path d="M614.774,1047.812l-6.218.781a1.531,1.531,0,0,1-1.563-1.735l1.362-21.445c2.605-.094,5.187-.164,7.672-.214v21A1.556,1.556,0,0,1,614.774,1047.812Z" transform="translate(-478.304 -798.562)" fill="#fff" opacity="0.37"/><path d="M623.508,1044.245a.674.674,0,0,1-.625.682h-.036a.7.7,0,0,1-.589-.766l.938-18.717,1.258-.034Z" transform="translate(-489.59 -798.718)" fill="#fff"/><path d="M697.886,1068.312h0a.227.227,0,0,0,.208-.227l.323-5.9a.232.232,0,0,0-.2-.26.214.214,0,0,0-.221.224l-.326,5.9a.237.237,0,0,0,.211.263Z" transform="translate(-545.364 -825.724)" fill="url(#c)"/><path d="M695.4,1067.972a.226.226,0,0,0,.208-.234l.169-6.007a.229.229,0,0,0-.2-.261.219.219,0,0,0-.216.234l-.169,6.007a.231.231,0,0,0,.2.26Z" transform="translate(-543.529 -825.384)" fill="url(#d)"/><path d="M691.952,1068.017a.232.232,0,0,1-.2-.261c.083-2.019.24-5.869.242-5.992a.211.211,0,1,1,.419,0c0,.1-.2,5.031-.245,6.018a.227.227,0,0,1-.208.232Zm.042-6.252Z" transform="translate(-540.984 -825.428)" fill="url(#e)"/><path d="M685.976,1067.883h.013a.451.451,0,0,0,.417-.466c.177-5.822.146-5.953.125-6.041a.414.414,0,0,0-.521-.339.487.487,0,0,0-.3.521c.013.349-.081,3.735-.143,5.814a.461.461,0,0,0,.414.511Z" transform="translate(-536.405 -825.052)" fill="url(#f)"/><path d="M683.141,1068.315a.229.229,0,0,0,.208-.242v-5.9a.211.211,0,1,0-.417,0v5.9a.226.226,0,0,0,.208.242Z" transform="translate(-534.461 -825.727)" fill="url(#g)"/><path d="M680.354,1068.255a.224.224,0,0,0,.208-.237c.042-2.047.135-5.392.219-5.8a.274.274,0,0,0,0-.26.193.193,0,0,0-.289-.07c-.115.089-.224.169-.339,6.106a.229.229,0,0,0,.2.261Z" transform="translate(-532.406 -825.667)" fill="url(#h)"/><path d="M701.634,1068.139h.021a.448.448,0,0,0,.417-.458l.279-6.189a.459.459,0,0,0-.4-.521.448.448,0,0,0-.438.458l-.279,6.19A.464.464,0,0,0,701.634,1068.139Z" transform="translate(-547.996 -825.014)" fill="url(#i)"/><path d="M802.16,994.87h86.748V931.2a1.977,1.977,0,0,0-1.975-1.975H805.062a2.9,2.9,0,0,0-2.9,2.9Z" transform="translate(-622.63 -727.593)" fill="#7d97f4"/><path d="M827.12,990.217h80.254V924.57H830.022a2.9,2.9,0,0,0-2.9,2.9Z" transform="translate(-641.088 -724.147)" fill="#91b3fa"/><rect width="3.569" height="32.944" transform="translate(82.363 136.75)" fill="#7d97f4"/><path d="M418.6,682.442h9.727v-1.563a.719.719,0,0,0-.716-.719h-8.294a.719.719,0,0,0-.716.719Z" transform="translate(-338.99 -543.408)" fill="#7d97f4"/><rect width="6.341" height="16.842" transform="translate(92.674 160.943)" fill="#7d97f4"/><rect width="6.341" height="16.842" transform="translate(46.158 160.943)" fill="#7d97f4"/><rect width="82.45" height="46.987" transform="translate(35.462 214.568)" fill="#91b3fa"/><path d="M275.28,846.807h62.685V800.323a.5.5,0,0,0-.5-.5H275.28Z" transform="translate(-233.006 -631.895)" fill="#91b3fa"/><rect width="87.012" height="6.851" rx="3.426" transform="translate(32.701 211.486)" fill="#7d97f4"/><rect width="7.135" height="13.94" transform="translate(49.329 174.932)" fill="#7d97f4"/><rect width="7.135" height="13.94" transform="translate(61.63 174.932)" fill="#7d97f4"/><rect width="7.135" height="13.94" transform="translate(76.205 174.932)" fill="#7d97f4"/><rect width="7.135" height="13.94" transform="translate(88.509 174.932)" fill="#7d97f4"/><rect width="7.135" height="13.94" transform="translate(53.528 226.08)" fill="#7d97f4"/><rect width="7.135" height="13.94" transform="translate(65.832 226.08)" fill="#7d97f4"/><rect width="7.135" height="13.94" transform="translate(80.404 226.08)" fill="#7d97f4"/><rect width="7.135" height="13.94" transform="translate(92.708 226.08)" fill="#7d97f4"/><path d="M392.785,1112c-15.709,7.555-30.19,15.68-34.621,26.887L172.856,1139.9l-6.815-26.606c-1.587-6.195-6.635-11.444-13.669-14.239-22.7-9.016-40.394-15.8-39.323-29.789l120.843-1.091a1.92,1.92,0,0,1,1.842,1.321l1.758,5.346c2.126,6.463,9.292,11.019,17.582,11.173l106.774,2,4.079-7.242a1.873,1.873,0,0,1,1.636-.951l42.413.172a1.133,1.133,0,0,1,.969,1.717Z" transform="translate(-113.003 -830.346)" fill="#bdd0fb"/><path d="M392.916,1126.692c-15.708,7.554-30.19,21.583-34.621,32.79L172.987,1160.5l-6.815-32.509c-1.586-6.195-6.635-11.444-13.669-14.237-22.7-9.019-38.068-18.907-39.323-29.789l118.327-1.654a1.863,1.863,0,0,1,1.727,1.11l3.092,7.034c3.045,6.745,10.59,10.105,18.879,10.261l106.773,2,3.908-6.961A2.467,2.467,0,0,1,368,1094.5l42.121-.44Z" transform="translate(-113.134 -840.795)" fill="url(#j)"/><path d="M1033.494,1203.688a6.054,6.054,0,1,1,6.054-6.054A6.054,6.054,0,0,1,1033.494,1203.688Zm0-10.7a4.642,4.642,0,1,0,4.642,4.642A4.642,4.642,0,0,0,1033.494,1192.992Z" transform="translate(-789.224 -921.6)" fill="#fff"/><path d="M959.534,1203.688a6.054,6.054,0,1,1,6.054-6.054A6.054,6.054,0,0,1,959.534,1203.688Zm0-10.7a4.642,4.642,0,1,0,4.64,4.641A4.642,4.642,0,0,0,959.534,1192.992Z" transform="translate(-734.531 -921.6)" fill="#fff"/><path d="M893.154,1201.908a6.054,6.054,0,1,1,6.054-6.052A6.054,6.054,0,0,1,893.154,1201.908Zm0-10.681a4.649,4.649,0,1,0,0-.013Z" transform="translate(-685.443 -920.283)" fill="#fff"/><path d="M479.084,1116.058a6.054,6.054,0,1,1,6.054-6.054A6.054,6.054,0,0,1,479.084,1116.058Zm0-10.681a1.923,1.923,0,1,0,0-.013Z" transform="translate(-379.241 -856.798)" fill="#91b3fa"/><path d="M404.464,1116.058a6.054,6.054,0,1,1,6.054-6.054A6.054,6.054,0,0,1,404.464,1116.058Zm0-10.681a1.923,1.923,0,1,0,0-.013Z" transform="translate(-324.06 -856.798)" fill="#91b3fa"/><path d="M346.094,1116.058a6.054,6.054,0,1,1,6.054-6.054A6.054,6.054,0,0,1,346.094,1116.058Zm0-10.681a1.923,1.923,0,1,0,0-.013Z" transform="translate(-280.896 -856.798)" fill="#91b3fa"/><path d="M777.895,1175.155h0l-104.109-1.824a.706.706,0,1,1,0-1.412h0l104.111,1.823a.706.706,0,0,1,0,1.412Z" transform="translate(-527.177 -907.061)" fill="#7d97f4"/><path d="M170.877,1092.939a.706.706,0,1,1-.013-1.412l90.119-1.857a.706.706,0,1,1,.029,1.412l-90.109,1.857Z" transform="translate(-155.274 -846.237)" fill="#7d97f4"/><path d="M786.776,1055.323v-24.136c0-3.5-2.431-6.349-5.455-6.385-9.076-.115-27.793-.12-43.109,1.373a4.555,4.555,0,0,0-3.79,4.611l-1.232,23.357Z" transform="translate(-571.628 -798.235)" fill="url(#k)"/><path d="M887.247,1054.8c.039,2.266-.021,5.861-.068,8.185a1.879,1.879,0,0,1-1.98,1.988l-7.469-1.013a2.019,2.019,0,0,1-1.547-2.345l.917-7.075a1.876,1.876,0,0,1,1.753-1.748h6.619A1.922,1.922,0,0,1,887.247,1054.8Z" transform="translate(-677.356 -818.965)" fill="#fff"/><path d="M821.654,1047.812l-6.229.781a1.529,1.529,0,0,1-1.563-1.735l1.362-21.445c2.605-.094,5.189-.164,7.675-.214v21A1.541,1.541,0,0,1,821.654,1047.812Z" transform="translate(-631.283 -798.562)" fill="#fff" opacity="0.37"/><path d="M830.438,1044.245a.672.672,0,0,1-.625.682h-.037a.7.7,0,0,1-.589-.766l.94-18.717,1.256-.034Z" transform="translate(-642.614 -798.718)" fill="#fff"/><path d="M904.839,1068.312h.013a.227.227,0,0,0,.208-.227l.323-5.9a.232.232,0,0,0-.2-.26.217.217,0,0,0-.222.224l-.323,5.9A.235.235,0,0,0,904.839,1068.312Z" transform="translate(-698.415 -825.724)" fill="url(#l)"/><path d="M902.3,1067.972a.226.226,0,0,0,.208-.234l.169-6.007a.232.232,0,0,0-.2-.261.215.215,0,0,0-.214.234l-.169,6.007a.229.229,0,0,0,.2.26Z" transform="translate(-696.529 -825.384)" fill="url(#m)"/><path d="M898.865,1068a.232.232,0,0,1-.2-.26c.083-2.019.242-5.869.245-5.992a.227.227,0,0,1,.208-.24.229.229,0,0,1,.208.242c0,.1-.2,5.031-.245,6.018a.224.224,0,0,1-.208.232Zm.039-6.252Z" transform="translate(-693.993 -825.414)" fill="url(#n)"/><path d="M892.894,1067.883h.016a.451.451,0,0,0,.417-.466c.177-5.822.146-5.953.125-6.041a.414.414,0,0,0-.521-.339.492.492,0,0,0-.3.521c0,.349-.078,3.735-.143,5.814A.464.464,0,0,0,892.894,1067.883Z" transform="translate(-689.421 -825.052)" fill="url(#o)"/><path d="M890.051,1068.314a.227.227,0,0,0,.208-.242v-5.9a.211.211,0,1,0-.417,0v5.9A.229.229,0,0,0,890.051,1068.314Z" transform="translate(-687.469 -825.726)" fill="url(#p)"/><path d="M887.268,1068.255a.227.227,0,0,0,.208-.237c.039-2.047.133-5.392.216-5.8a.273.273,0,0,0,0-.26.193.193,0,0,0-.289-.07c-.115.089-.221.169-.339,6.106a.232.232,0,0,0,.206.26Z" transform="translate(-685.416 -825.667)" fill="url(#q)"/><path d="M908.545,1068.139h.021a.453.453,0,0,0,.419-.459l.279-6.19a.464.464,0,0,0-.4-.521.451.451,0,0,0-.44.458l-.279,6.19a.467.467,0,0,0,.4.521Z" transform="translate(-701.006 -825.014)" fill="url(#r)"/><path d="M759.421,323l-15.516-7.852a1.4,1.4,0,0,0-1.042-.094l-18.8,5.588a1.4,1.4,0,0,0-.443,2.462l12.371,9.324Z" transform="translate(-564.136 -273.367)" fill="#7d97f4"/><path d="M576.554,295.2c-1.855,6.9-79.788,30.508-128.734,41.066l-1.318.281c-17.54,3.741-31.146,5.731-35.835,4.556-6.252-1.563-15.862-3.5-25.668-5.353q-1.9-.36-3.8-.711c-16.732-3.1-32.881-5.781-32.881-5.781s-4.556-5.906,7.255-6.145c0,0,175.74-47.456,182.9-45.831s20.252,7.935,23.925,7.63S579.1,285.751,576.554,295.2Z" transform="translate(-286.377 -245.453)" fill="#91b3fa"/><path d="M394.013,303.31l-26.918-12.064a9.873,9.873,0,0,1-4.168-3.5L350.92,269.874a3.884,3.884,0,0,0-4.35-1.563c-5.226,1.584-16.055,5.02-16,6.278.073,1.659,9.047,42.658,9.047,42.658Z" transform="translate(-273.892 -238.725)" fill="#7d97f4"/><path d="M382.906,452.855l-1.383,8.928a4.853,4.853,0,0,0,1.271,4.093,4.916,4.916,0,0,0,4.046,1.508l9.076-.75a4.931,4.931,0,0,0,3.6-1.946l14.609-19.838Z" transform="translate(-311.528 -369.397)" fill="#7d97f4"/><path d="M740.353,486.414s6.065,6.291,15.016,5.549,19.759-4.132,21.562-7.469S781.2,457.4,763.306,462.27,725.087,479.5,740.353,486.414Z" transform="translate(-572.953 -381.795)" fill="#91b3fa"/><path d="M863.4,492.936a.936.936,0,0,0,.321,0c.56-.122,1.081-.758,1.542-1.891,1.49-3.647,1.993-11.2-1.55-16.628h0a5.538,5.538,0,0,0-4.739-2.519,3.706,3.706,0,0,0-3.928,3.54c-.617,4.517,4.5,14.375,7.13,16.805A2.449,2.449,0,0,0,863.4,492.936Zm-3.764-20.231a4.825,4.825,0,0,1,3.436,2.123h0c3.355,5.132,2.865,12.528,1.485,15.909-.4.982-.781,1.383-.992,1.428-.026,0-.261.036-.852-.505-2.735-2.53-7.432-12.14-6.885-16.131a2.93,2.93,0,0,1,3.17-2.866A4.483,4.483,0,0,1,859.635,472.705Z" transform="translate(-661.701 -389.398)" fill="#bdd0fb"/><path d="M337.71,329.315l4.405-.365,6.461,27.786-4.541,1.467Z" transform="translate(-279.172 -283.69)" fill="#91b3fa"/><path d="M854.914,371.26a2.634,2.634,0,0,1,2.407-2.842l.167-.013a2.636,2.636,0,0,1,2.842,2.407l.141,1.714a2.631,2.631,0,0,1-2.415,2.842h-.167a2.633,2.633,0,0,1-2.834-2.386Z" transform="translate(-661.635 -312.86)" fill="url(#s)"/><path d="M890.3,365.339a2.636,2.636,0,0,1,2.407-2.842l.167-.013a2.631,2.631,0,0,1,2.842,2.407l.141,1.714a2.631,2.631,0,0,1-2.407,2.842l-.167.013a2.631,2.631,0,0,1-2.84-2.407Z" transform="translate(-687.806 -308.481)" fill="url(#t)"/><rect width="5.434" height="6.987" rx="2.717" transform="matrix(0.997, -0.082, 0.082, 0.997, 212.21, 51.857)" fill="url(#u)"/><rect width="5.434" height="6.987" rx="2.717" transform="translate(222.081 48.687) rotate(-4.74)" fill="url(#v)"/><rect width="5.434" height="6.987" rx="2.717" transform="translate(231.3 47.143) rotate(-4.75)" fill="url(#w)"/><path d="M1076.076,294.62l-17.243,6.351a2.866,2.866,0,0,0-1.823,3.176c.281,1.615.68,3.436,1.042,3.251.62-.328,27.7-9.639,27.7-9.639Z" transform="translate(-811.059 -258.303)" fill="url(#x)"/><path d="M543.705,479.12a.73.73,0,0,1-.094.237.782.782,0,0,1-.849.38l-.469-.1-35.038-7.268-26.465,6.471q-1.9-.36-3.8-.711l30.237-7.391,35.859,7.44A.8.8,0,0,1,543.705,479.12Z" transform="translate(-382.169 -388.543)" fill="#7d97f4"/><path d="M650.354,436.022,692.142,425,660.36,473.754a2.923,2.923,0,0,1-1.962,1.284l-25.23,4.257a2.92,2.92,0,0,1-3.077-4.223Z" transform="translate(-495.145 -354.718)" fill="#7d97f4"/><path d="M1125.915,790.788a6.364,6.364,0,0,1-6.349,6.343H776.2a6.364,6.364,0,0,1-6.351-6.343L767,593.465c0-3.491,4.111-10.3,11.642-9.79l335.568-8.69a16,16,0,0,1,16.412,16.365Z" transform="translate(-596.63 -465.627)" fill="url(#y)"/><path d="M1144.553,806.075a6.025,6.025,0,0,1-6.007,6.007H809.381a6.025,6.025,0,0,1-6.012-6.007L800.68,626.954c.315-10.782,9.766-14.656,15.495-14.427L1137.8,603.9a11.246,11.246,0,0,1,11.538,11.507Z" transform="translate(-621.536 -487.01)" fill="url(#z)"/><path d="M822.589,1007.447a.521.521,0,0,1-.508-.5l-.214-14.526a.521.521,0,1,1,1.016-.016l.214,14.528a.506.506,0,0,1-.5.521Z" transform="translate(-637.193 -773.846)" fill="#7d97f4"/><path d="M818.913,712.405a.521.521,0,0,1-.508-.5l-.815-55.641a11.834,11.834,0,0,1,3.41-8.857c4.03-3.863,10.308-3.723,10.728-3.707l102.72-2.746a.521.521,0,1,1,.029,1.016l-102.754,2.756H831.7c-.26,0-6.226-.2-10,3.423a10.836,10.836,0,0,0-3.095,8.11l.815,55.631a.521.521,0,0,1-.5.521Z" transform="translate(-634.041 -514.403)" fill="#7d97f4"/><path d="M1869.555,716.581h-.031l-11.246.125a3.084,3.084,0,0,1-3.16-2.67l-1.162-9.933a2.274,2.274,0,0,1,.461-1.659,2.476,2.476,0,0,1,1.725-.943h0c.948-.089,2.251-.234,3.686-.393,3.126-.349,6.669-.745,8.753-.815h.044a3.165,3.165,0,0,1,3.176,2.266c.625,2.277.648,6.606.615,11.22A2.884,2.884,0,0,1,1869.555,716.581Zm-13.33-14.117a1.547,1.547,0,0,0-1.089.589,1.3,1.3,0,0,0-.26.93l1.159,9.936a2.157,2.157,0,0,0,2.24,1.824l11.246-.128h.023a1.938,1.938,0,0,0,1.959-1.824c.031-4.538.013-8.792-.581-10.941a2.264,2.264,0,0,0-2.305-1.581c-2.05.07-5.731.482-8.683.81-1.443.161-2.751.307-3.7.4Z" transform="translate(-1400.416 -558.292)" fill="url(#aa)"/><path d="M1863.4,709.627c2.344-.221,7.484-.881,9.917-.966a2.181,2.181,0,0,1,2.207,1.542c.5,1.823.5,5.471.477,8.857a1.923,1.923,0,0,1-1.946,1.85l-8.988.1a2.1,2.1,0,0,1-2.157-1.8l-.922-7.94a1.519,1.519,0,0,1,1.412-1.646Z" transform="translate(-1406.36 -564.481)" fill="#91b3fa"/><rect width="404.818" height="17.337" rx="7.51" transform="translate(152.322 324.239)" fill="url(#ab)"/><rect width="292.772" height="10.829" rx="5.415" transform="translate(214.526 300.926)" fill="#7d97f4"/><g transform="translate(189.214 153.61)" opacity="0.68"><g transform="translate(62.465 0.003)"><path d="M1092.414,744.885c-.56,1-1.076,2.027-1.563,3.063-.834,1.8-1.563,3.647-2.233,5.5a111.431,111.431,0,0,0-3.335,11.358c-.925,3.835-1.7,7.7-2.36,11.587-1.321,7.771-2.22,15.607-2.832,23.464q-.458,5.89-.7,11.8-.12,2.954-.193,5.908l-.06,2.954-.021,1.477V823.1c0,.125.029.247.029.37q.091,11.824,1.071,23.617c.67,7.852,1.654,15.682,3.09,23.446q1.078,5.818,2.543,11.559.237.907.484,1.824h1.5c-.19-.722-.378-1.446-.555-2.17-.933-3.8-1.709-7.63-2.373-11.483-1.323-7.711-2.2-15.5-2.769-23.307s-.8-15.63-.761-23.469a304.55,304.55,0,0,1,2.973-46.847c.589-3.868,1.284-7.721,2.131-11.54a111.017,111.017,0,0,1,3.09-11.327c.628-1.847,1.3-3.676,2.1-5.458.521-1.167,1.073-2.316,1.686-3.431Z" transform="translate(-1079.12 -744.88)" fill="#fff"/><path d="M1218.769,764.6a109.623,109.623,0,0,0-3.78-11.217c-.742-1.823-1.547-3.647-2.451-5.4-.521-1.042-1.1-2.084-1.714-3.079h-.943c.677,1.125,1.3,2.285,1.884,3.467.859,1.748,1.623,3.545,2.326,5.366a106.37,106.37,0,0,1,3.53,11.176q1.477,5.674,2.516,11.462a226.279,226.279,0,0,1,2.988,23.281c.318,3.908.537,7.815.688,11.723s.221,7.815.214,11.741-.07,7.831-.216,11.744-.352,7.815-.646,11.723c-.573,7.815-1.443,15.594-2.761,23.308-.654,3.855-1.42,7.693-2.345,11.491q-.307,1.266-.641,2.527h1.5q.3-1.081.581-2.167,1.477-5.736,2.527-11.564a264.221,264.221,0,0,0,3.939-47.066,241.157,241.157,0,0,0-4.429-47.013C1220.73,772.235,1219.823,768.4,1218.769,764.6Z" transform="translate(-1175.816 -744.895)" fill="#fff"/></g><g transform="translate(17.66)"><path d="M944.456,744.878a68.13,68.13,0,0,0-10.681,8.688,79.705,79.705,0,0,0-9.717,11.723A96.062,96.062,0,0,0,911.294,792.9a109.182,109.182,0,0,0-3.126,14.945,113.021,113.021,0,0,0-.016,30.479,109.57,109.57,0,0,0,3.11,14.948A96.067,96.067,0,0,0,924,880.914q1.021,1.508,2.11,2.97h2.167q-1.438-1.949-2.764-3.975a90.277,90.277,0,0,1-7.054-13.166,102.1,102.1,0,0,1-4.95-14.1,115.621,115.621,0,0,1-.034-59.135A102.417,102.417,0,0,1,918.4,779.4a90.4,90.4,0,0,1,7.034-13.184,77.695,77.695,0,0,1,9.277-11.723,65.14,65.14,0,0,1,11.525-9.519l.169-.107Z" transform="translate(-907.128 -744.87)" fill="#fff"/><path d="M1312.268,807.9a109.552,109.552,0,0,0-3.11-14.927,96.777,96.777,0,0,0-12.715-27.593,79.546,79.546,0,0,0-9.686-11.738,67.942,67.942,0,0,0-10.72-8.74h-1.787l.11.068a65.429,65.429,0,0,1,11.548,9.506,77.566,77.566,0,0,1,9.305,11.723,95.475,95.475,0,0,1,12.014,27.311,115.309,115.309,0,0,1-.034,59.205,95.382,95.382,0,0,1-12.041,27.278q-1.3,2-2.735,3.908h1.941q1.1-1.488,2.144-3.024a96.706,96.706,0,0,0,12.684-27.614,109.3,109.3,0,0,0,3.095-14.935,113.293,113.293,0,0,0-.016-30.43Z" transform="translate(-1178.612 -744.892)" fill="#fff"/></g><g transform="translate(6.957 43.033)"><path d="M866.186,910.61l5.017-.083,5.017-.065,10.035-.122,20.059-.154c13.38-.1,26.757-.115,40.136-.125l20.059.031,10.032.044,5.017.021,5.017.042,20.059.167,10.032.136,5.017.068,5.017.089a.1.1,0,1,1,0,.2l-5.017.089-5.017.068-10.032.135-20.059.167-5.017.039-5.017.023-10.032.044-20.059.031q-20.069,0-40.136-.125l-20.059-.154-10.035-.125-5.017-.062-5.017-.083a.146.146,0,1,1,0-.292Z" transform="translate(-866.04 -910.06)" fill="#fff"/></g><g transform="translate(44.631 9.42)"><path d="M1010.66,781.309q7.125-.1,14.25-.159c9.5-.089,19-.112,28.494-.12l14.247.031c4.749.036,9.5.047,14.25.1l7.122.076,7.125.1,7.125.135,3.561.068,3.561.089a.1.1,0,0,1,0,.2l-3.561.089-3.561.068-7.125.135-7.125.1-7.122.073c-4.749.055-9.5.068-14.25.1l-14.247.031q-14.247,0-28.494-.117-7.128-.055-14.25-.161Z" transform="translate(-1010.66 -781.03)" fill="#fff"/></g><g transform="translate(0 76.646)"><path d="M839.464,1039.637l5.452-.083,5.452-.063,10.907-.122,21.812-.154c14.539-.1,29.08-.115,43.622-.125l21.812.031,10.9.044,5.452.021,5.455.042,21.809.167,10.907.133,5.452.068,5.453.091a.1.1,0,0,1,0,.2l-5.453.091-5.452.068-10.907.133-21.809.167-5.455.042-5.452.023-10.9.044-21.812.028q-21.812,0-43.622-.125l-21.812-.154-10.907-.123-5.452-.062-5.452-.083a.148.148,0,0,1,0-.294Z" transform="translate(-839.335 -1039.09)" fill="#fff"/></g><g transform="translate(6.959 110.259)"><path d="M866.193,1168.667l5.017-.083,5.017-.062,10.035-.125,20.059-.151c13.38-.1,26.757-.115,40.136-.125l20.059.028,10.032.044,5.017.023,5.017.039,20.059.169,10.032.133,5.017.068,5.017.091a.1.1,0,0,1,.1.1.1.1,0,0,1-.1.1l-5.017.089-5.017.068-10.032.135-20.059.167-5.017.042-5.017.021-10.032.044-20.059.031q-20.069,0-40.136-.125l-20.059-.154-10.035-.122-5.017-.062-5.017-.086a.143.143,0,0,1-.143-.149A.146.146,0,0,1,866.193,1168.667Z" transform="translate(-866.05 -1168.12)" fill="#fff"/></g></g><path d="M1297.788,698.453a4.3,4.3,0,0,1-3.7-2.084c-4.364-7.208-9.566-16.706-9.566-21.015,0-6.755,5.953-12.244,13.268-12.244s13.265,5.494,13.265,12.244c0,4.309-5.21,13.807-9.563,21.015A4.3,4.3,0,0,1,1297.788,698.453Zm0-33.47c-6.278,0-11.387,4.65-11.387,10.368,0,2.98,3.387,10.285,9.292,20.041a2.446,2.446,0,0,0,4.186,0c5.906-9.756,9.292-17.061,9.292-20.041,0-5.718-5.109-10.368-11.384-10.368Z" transform="translate(-979.333 -530.799)" fill="url(#ac)"/><path d="M1308.073,696.085a8.274,8.274,0,0,1-8.263-8.263.943.943,0,0,1,1.884,0,6.375,6.375,0,1,0,1.261-3.811.941.941,0,0,1-1.509-1.123,8.263,8.263,0,1,1,6.627,13.2Z" transform="translate(-990.64 -542.962)" fill="url(#ad)"/><path d="M1110.888,1137.9a4.3,4.3,0,0,1-3.7-2.084c-4.361-7.208-9.563-16.706-9.563-21.017,0-6.752,5.953-12.244,13.265-12.244s13.268,5.494,13.268,12.244c0,4.311-5.21,13.807-9.566,21.017A4.291,4.291,0,0,1,1110.888,1137.9Zm0-33.467c-6.276,0-11.384,4.65-11.384,10.365,0,2.98,3.387,10.285,9.292,20.041a2.449,2.449,0,0,0,4.186,0c5.906-9.759,9.292-17.063,9.292-20.043,0-5.713-5.111-10.363-11.389-10.363Z" transform="translate(-841.122 -855.762)" fill="url(#ac)"/><path d="M1121.173,1135.575a8.271,8.271,0,0,1-8.263-8.261.94.94,0,0,1,1.881,0,6.382,6.382,0,1,0,1.264-3.811.941.941,0,0,1-1.508-1.125,8.263,8.263,0,1,1,6.627,13.2Z" transform="translate(-852.428 -867.962)" fill="url(#af)"/><path d="M1309.5,1087.486h-.083l-2.035-.26a.641.641,0,1,1,.167-1.271l2.032.26a.641.641,0,0,1-.081,1.276Z" transform="translate(-995.83 -843.486)" fill="url(#ag)"/><path d="M1238.518,1078.244h-.083l-3.824-.5a.641.641,0,0,1,.167-1.271l3.824.495a.644.644,0,0,1-.083,1.279Zm-7.646-.995h-.083l-3.824-.5a.641.641,0,1,1,.164-1.271l3.824.5a.641.641,0,0,1-.081,1.276Zm-7.649-1h-.083l-3.824-.5a.641.641,0,0,1,.167-1.271l3.822.5a.641.641,0,0,1-.081,1.276Z" transform="translate(-930.703 -835.004)" fill="url(#ah)"/><path d="M1198.945,1073.106h-.083l-2.034-.26a.641.641,0,1,1,.167-1.271l2.035.26a.641.641,0,0,1-.083,1.276Z" transform="translate(-914.072 -832.852)" fill="url(#ai)"/><path d="M1261.438,930.371a.644.644,0,0,1-.44-.174l-1.493-1.4a.641.641,0,0,1,.878-.935l1.5,1.407a.641.641,0,0,1-.44,1.107Z" transform="translate(-960.685 -726.449)" fill="url(#aj)"/><path d="M1288.592,955.848a.644.644,0,0,1-.438-.174l-2.582-2.428a.641.641,0,1,1,.878-.935l2.582,2.428a.641.641,0,0,1-.44,1.11Zm-5.161-4.856a.633.633,0,0,1-.44-.175l-2.582-2.428a.641.641,0,1,1,.878-.935l2.581,2.428a.641.641,0,0,1-.438,1.11Zm-5.163-4.856a.639.639,0,0,1-.44-.174l-2.582-2.428a.641.641,0,0,1,.878-.933l2.582,2.428a.641.641,0,0,1-.438,1.107Z" transform="translate(-972.339 -737.364)" fill="url(#ak)"/><path d="M1335.974,1002.967a.646.646,0,0,1-.6-.821l.479-1.581-1.2-1.133a.641.641,0,1,1,.878-.935l1.493,1.407a.636.636,0,0,1,.175.651l-.591,1.964A.646.646,0,0,1,1335.974,1002.967Z" transform="translate(-1016.251 -778.687)" fill="url(#al)"/><path d="M1322.18,1036.626a.646.646,0,0,1-.615-.828l1.068-3.525a.641.641,0,1,1,1.227.37l-1.066,3.527a.647.647,0,0,1-.615.456Zm2.134-7.054a.671.671,0,0,1-.187-.026.643.643,0,0,1-.427-.8l1.065-3.527a.641.641,0,0,1,1.227.372l-1.065,3.525a.639.639,0,0,1-.625.456Z" transform="translate(-1006.708 -798.24)" fill="url(#am)"/><path d="M1315.758,1082.156a.56.56,0,0,1-.185-.029.641.641,0,0,1-.43-.8l.594-1.964a.641.641,0,0,1,1.227.37l-.594,1.964A.641.641,0,0,1,1315.758,1082.156Z" transform="translate(-1001.959 -838.28)" fill="url(#an)"/><path d="M1135.181,890.612a.641.641,0,0,1-.641-.641v-2.05a.641.641,0,1,1,1.282,0v2.05A.641.641,0,0,1,1135.181,890.612Z" transform="translate(-868.424 -696.572)" fill="url(#ao)"/><path d="M1135.181,842.9a.643.643,0,0,1-.641-.643v-3.683a.641.641,0,1,1,1.282,0v3.691A.644.644,0,0,1,1135.181,842.9Zm0-7.385a.641.641,0,0,1-.641-.641v-3.7a.641.641,0,0,1,1.282,0v3.694a.641.641,0,0,1-.641.651Z" transform="translate(-868.424 -654.613)" fill="url(#ap)"/><path d="M1135.181,811.872a.641.641,0,0,1-.641-.641v-2.05a.641.641,0,0,1,.641-.641h2.053a.643.643,0,0,1,0,1.284h-1.412v1.412A.641.641,0,0,1,1135.181,811.872Z" transform="translate(-868.424 -638.344)" fill="url(#aq)"/><path d="M1158.941,809.784a.641.641,0,0,1,0-1.282h4.132a.641.641,0,0,1,0,1.282h-4.129Zm8.263,0a.643.643,0,0,1,0-1.284h4.132a.641.641,0,1,1,0,1.282H1167.2Zm8.261,0a.641.641,0,1,1,0-1.282h4.131a.641.641,0,1,1,0,1.282Zm8.26,0a.641.641,0,0,1,0-1.282h4.131a.641.641,0,1,1,0,1.282Zm8.26,0a.641.641,0,0,1,0-1.282h4.132a.641.641,0,0,1,0,1.282h-4.129Z" transform="translate(-885.994 -638.314)" fill="url(#ar)"/><path d="M1317.619,809.624a.643.643,0,0,1,0-1.284h2.053a.641.641,0,0,1,0,1.282Z" transform="translate(-1003.364 -638.196)" fill="url(#as)"/><path d="M1222.9,1184.842h-2.05a.641.641,0,1,1,0-1.282h2.05a.641.641,0,1,1,0,1.282Z" transform="translate(-931.776 -915.669)" fill="url(#at)"/><path d="M1256.433,1184.842h-4.051a.641.641,0,1,1,0-1.282h4.051a.641.641,0,1,1,0,1.282Zm-8.1,0h-4.051a.641.641,0,1,1,0-1.282h4.051a.641.641,0,1,1,0,1.282Z" transform="translate(-949.102 -915.669)" fill="url(#au)"/><path d="M1308.541,1179.022h-2.05a.641.641,0,1,1,0-1.282h1.409v-1.409a.641.641,0,0,1,1.282,0v2.045a.641.641,0,0,1-.641.646Z" transform="translate(-995.106 -909.849)" fill="url(#av)"/><path d="M1314.361,1124.382a.641.641,0,0,1-.641-.641v-4.257a.641.641,0,0,1,1.282,0v4.257A.641.641,0,0,1,1314.361,1124.382Zm0-8.513a.641.641,0,0,1-.641-.641v-4.257a.641.641,0,0,1,1.282,0v4.257A.641.641,0,0,1,1314.361,1115.868Z" transform="translate(-1000.926 -861.516)" fill="url(#aw)"/><path d="M1314.361,1089.444a.641.641,0,0,1-.641-.641v-2.053a.641.641,0,0,1,1.282,0v2.053A.641.641,0,0,1,1314.361,1089.444Z" transform="translate(-1000.926 -843.605)" fill="url(#aw)"/><path d="M972.881,921.042h-2.05a.641.641,0,0,1,0-1.282h2.05a.641.641,0,1,1,0,1.282Z" transform="translate(-746.888 -720.59)" fill="url(#ay)"/><path d="M1003.253,921.042h-3.59a.641.641,0,0,1,0-1.282h3.59a.641.641,0,1,1,0,1.282Zm-7.18,0h-3.592a.641.641,0,0,1,0-1.282h3.592a.641.641,0,1,1,0,1.282Z" transform="translate(-762.898 -720.59)" fill="url(#az)"/><path d="M1051.06,922.527a.641.641,0,0,1-.469-.2l-1.209-1.3h-1.771a.641.641,0,0,1,0-1.282h2.05a.638.638,0,0,1,.469.2l1.4,1.5a.641.641,0,0,1-.469,1.078Z" transform="translate(-803.666 -720.576)" fill="url(#ba)"/><path d="M1099.882,968.651a.643.643,0,0,1-.469-.2l-2.628-2.821a.641.641,0,1,1,.938-.875l2.628,2.821a.641.641,0,0,1-.469,1.078Zm-5.257-5.64a.643.643,0,0,1-.469-.206l-2.629-2.819a.641.641,0,1,1,.938-.875l2.628,2.821a.641.641,0,0,1-.469,1.078Zm-5.257-5.64a.644.644,0,0,1-.469-.206l-2.628-2.819a.641.641,0,0,1,.938-.875l2.628,2.821a.641.641,0,0,1-.469,1.079Zm-5.257-5.64a.644.644,0,0,1-.469-.206l-2.628-2.819a.641.641,0,0,1,.938-.875l2.626,2.821a.641.641,0,0,1-.469,1.078Zm-5.265-5.64a.644.644,0,0,1-.469-.206l-2.628-2.819a.641.641,0,0,1,.938-.875l2.628,2.821a.642.642,0,0,1-.469,1.079Zm-5.257-5.643a.64.64,0,0,1-.469-.2l-2.611-2.819a.641.641,0,0,1,.938-.875l2.618,2.832a.638.638,0,0,1-.031.9.631.631,0,0,1-.438.161Z" transform="translate(-820.946 -732.857)" fill="url(#bb)"/><path d="M1193.381,1068.994a.64.64,0,0,1-.469-.2l-1.4-1.5a.641.641,0,1,1,.938-.873l1.4,1.5a.638.638,0,0,1-.031.9A.63.63,0,0,1,1193.381,1068.994Z" transform="translate(-910.417 -828.88)" fill="url(#bc)"/><circle cx="2.629" cy="2.629" r="2.629" transform="translate(222.341 196.64)" fill="url(#aw)"/><circle cx="2.629" cy="2.629" r="2.629" transform="translate(264.394 191.513)" fill="url(#aw)"/><circle cx="2.629" cy="2.629" r="2.629" transform="translate(264.394 168.946)" fill="url(#aw)"/><circle cx="2.629" cy="2.629" r="2.629" transform="translate(296.702 199.206)" fill="url(#aw)"/><circle cx="2.629" cy="2.629" r="2.629" transform="translate(279.205 239.27) rotate(-45)" fill="url(#aw)"/><circle cx="2.629" cy="2.629" r="2.629" transform="translate(286.959 265.875)" fill="url(#aw)"/><circle cx="2.629" cy="2.629" r="2.629" transform="translate(311.064 240.746)" fill="url(#aw)"/><path d="M1168.107,906.886a.731.731,0,0,1-.151-.018l-.425-.1a.642.642,0,1,1,.3-1.248l.424.1a.641.641,0,0,1-.148,1.266Zm-4.429-1.063a.758.758,0,0,1-.151-.016l-3.989-.959a.642.642,0,0,1,.3-1.248l3.988.959a.641.641,0,0,1-.148,1.263Zm-7.979-1.917a.715.715,0,0,1-.149-.016l-3.991-.959a.642.642,0,0,1,.3-1.248l3.991.959a.641.641,0,0,1-.151,1.263Zm-7.977-1.917a.726.726,0,0,1-.151-.016l-3.989-.958a.642.642,0,0,1,.3-1.248l3.989.959a.641.641,0,0,1-.149,1.263Zm-7.979-1.917a.765.765,0,0,1-.151-.016l-3.988-.959a.642.642,0,1,1,.3-1.248l3.988.959a.641.641,0,0,1-.148,1.263Z" transform="translate(-868.846 -704.374)" fill="url(#bk)"/><path d="M1513.185,755.452a.842.842,0,0,1-.286-.052.781.781,0,0,1-.492-.724v-5.52a.783.783,0,0,1,.211-.521l3.955-4.207h-12.809a.781.781,0,0,1-.674-.391l-5.294-9.209a.783.783,0,0,1-.1-.385v-3.681a.781.781,0,0,1,1.328-.547l7.13,7.13h10.681l-4.191-4.192a.782.782,0,0,1-.229-.55v-5.52a.782.782,0,0,1,1.326-.55l10.811,10.811h11.634a3.538,3.538,0,0,1,0,7.073h-12.395l-10.03,10.788A.781.781,0,0,1,1513.185,755.452Zm.782-5.992V752.7l8.912-9.589a.781.781,0,0,1,.57-.247h12.734a1.982,1.982,0,1,0,0-3.965h-11.957a.781.781,0,0,1-.55-.227l-9.709-9.712v3.321l5.291,5.291a.782.782,0,0,1-.55,1.326h-12.876a.782.782,0,0,1-.55-.227l-6.031-6.031v1.594l4.95,8.628h14.164a.782.782,0,0,1,.565,1.3Z" transform="translate(-1136.971 -577.536)" fill="#91b3fa"/><path d="M1709.584,773.284h-17.266l-.141-.6a1.973,1.973,0,0,0-.151-.414v-.034a3.215,3.215,0,0,0-2.92-1.881,3.254,3.254,0,0,0-2.675,1.422,2.808,2.808,0,0,0-.26.458v.034a1.827,1.827,0,0,0-.151.414l-.141.6h-1.446a1.362,1.362,0,0,1-1.362-1.362V757.133a1.362,1.362,0,0,1,1.362-1.363h25.175a1.362,1.362,0,0,1,1.362,1.362v14.776a1.362,1.362,0,0,1-1.386,1.376Zm-16.094-1.563h15.891v-14.4h-24.792v14.4h.083c.021-.047.042-.094.065-.141a4.361,4.361,0,0,1,.391-.7,4.77,4.77,0,0,1,7.9,0,4.282,4.282,0,0,1,.388.69A.641.641,0,0,1,1693.49,771.721Z" transform="translate(-1274.058 -599.321)" fill="#91b3fa"/><path d="M1801.774,782.409h-.714a.781.781,0,0,1-.755-.6,1.959,1.959,0,0,0-.151-.414.26.26,0,0,1,0-.034,2.8,2.8,0,0,0-.26-.461,3.225,3.225,0,0,0-5.346,0,2.655,2.655,0,0,0-.26.458l-.016.034a1.827,1.827,0,0,0-.148.414.782.782,0,0,1-.758.6h-.232a1.362,1.362,0,0,1-1.362-1.362V769.477a1.362,1.362,0,0,1,1.362-1.362h2.522a7.19,7.19,0,0,1,7.482,8v4.921a1.362,1.362,0,0,1-1.362,1.37Zm-.221-1.693.031.063v-4.689a.474.474,0,0,1,0-.091,5.638,5.638,0,0,0-5.877-6.309h-2.389v10.22a4.783,4.783,0,0,1,7.839.1,4.387,4.387,0,0,1,.4.7Z" transform="translate(-1354.441 -608.446)" fill="#91b3fa"/><path d="M1699.261,819.617a2.444,2.444,0,0,1-2.441-2.441,2.435,2.435,0,0,1,4.869,0A2.436,2.436,0,0,1,1699.261,819.617Zm0-3.327a.812.812,0,0,0-.649.3l-.021.026a.841.841,0,0,0-.216.563.881.881,0,1,0,1.758,0,.842.842,0,0,0-.216-.563l-.021-.026A.8.8,0,0,0,1699.261,816.29Z" transform="translate(-1284.226 -642.927)" fill="#91b3fa"/><path d="M1805.718,819.62a2.441,2.441,0,0,1-2.438-2.441,2.44,2.44,0,0,1,4.879,0A2.443,2.443,0,0,1,1805.718,819.62Zm0-3.327a.828.828,0,0,0-.649.3l-.021.026a.84.84,0,0,0-.216.563.886.886,0,1,0,1.771,0,.842.842,0,0,0-.216-.563l-.021-.026A.826.826,0,0,0,1805.718,816.293Z" transform="translate(-1362.953 -642.929)" fill="#91b3fa"/><path d="M1898.474,787.052h-26.548a4.448,4.448,0,0,1-3.647-1.922l-4.632-6.742a1.85,1.85,0,0,1,1.511-2.9l13.468-.107,11.775-.086a.781.781,0,0,1,0,1.563h-1.563l-10.214.073-13.468.1a.281.281,0,0,0-.26.156.3.3,0,0,0,.018.313l4.629,6.734a2.886,2.886,0,0,0,2.376,1.253h26.548a2.139,2.139,0,0,0,1.824-1.008l6.859-11.233a.393.393,0,0,0-.328-.609h-6.216a.781.781,0,1,1,0-1.563h6.205a1.949,1.949,0,0,1,1.662,2.98l-6.862,11.236A3.689,3.689,0,0,1,1898.474,787.052Z" transform="translate(-1407.354 -610.642)" fill="#91b3fa"/><path d="M1931.008,769.836h-8.336a1.175,1.175,0,0,1-1.172-1.172v-5.992a1.175,1.175,0,0,1,1.172-1.172h8.336a1.175,1.175,0,0,1,1.172,1.172v5.992a1.175,1.175,0,0,1-1.173,1.172Zm-8.336-7.555a.391.391,0,0,0-.391.391v5.992a.391.391,0,0,0,.391.391h8.336a.391.391,0,0,0,.39-.391v-5.992a.391.391,0,0,0-.39-.391Z" transform="translate(-1450.376 -603.558)" fill="#91b3fa"/><path d="M1974.378,770.336H1966.3a1.3,1.3,0,0,1-1.3-1.3V763.3a1.3,1.3,0,0,1,1.3-1.3h8.075a1.3,1.3,0,0,1,1.3,1.3v5.731A1.3,1.3,0,0,1,1974.378,770.336Zm-8.075-7.555a.521.521,0,0,0-.521.521v5.731a.521.521,0,0,0,.521.521h8.075a.521.521,0,0,0,.521-.521V763.3a.521.521,0,0,0-.521-.521Z" transform="translate(-1482.544 -603.928)" fill="#91b3fa"/><path d="M1956.248,735.336h-8.141a1.109,1.109,0,0,1-1.107-1.107v-5.6a1.628,1.628,0,0,1,1.628-1.628h8.01a1.042,1.042,0,0,1,1.042,1.042V733.9a1.435,1.435,0,0,1-1.433,1.433Zm-7.62-7.555a.85.85,0,0,0-.847.847v5.6a.326.326,0,0,0,.326.326h8.141a.651.651,0,0,0,.651-.651v-5.861a.261.261,0,0,0-.26-.261Z" transform="translate(-1469.233 -578.045)" fill="#91b3fa"/><path d="M910.636,694.39A16.513,16.513,0,1,0,927.147,710.9a16.514,16.514,0,0,0-16.511-16.513Zm.352,7.555a4.086,4.086,0,0,1,4.285,4.046c0,2.368-1.917,4.921-4.285,4.921s-4.285-2.556-4.285-4.921a4.1,4.1,0,0,1,4.285-4.053Zm8.109,14.549-.555,1.761a2.532,2.532,0,0,1-2.412,1.758H905.671a2.532,2.532,0,0,1-2.443-1.868l-.435-1.6a2.525,2.525,0,0,1,1.618-3.056,19.5,19.5,0,0,1,13.166-.143,2.53,2.53,0,0,1,1.521,3.147Z" transform="translate(-690.634 -553.931)" fill="#bdd0fb"/><path d="M1866.893,693.576h0a1.675,1.675,0,0,1,2.392.633l2.29,4.147a.539.539,0,0,0,.987-.065l5.283-13.044a.609.609,0,0,1,1.177.26,26.468,26.468,0,0,1-6.734,17.91s-3.321-1.282-6.083-7.38A1.975,1.975,0,0,1,1866.893,693.576Z" transform="translate(-1409.352 -546.88)" fill="url(#bl)"/><path d="M1551.2,555.824c.047-.018,24.524-42.882,27.83-46.917a2.566,2.566,0,0,1,2.29-.92l6.83.813,8.026,17.365-13.369-7.789c1.323,9.152-15.854,22.75-21.744,27.713a1.352,1.352,0,0,0-.109,1.969l2.344,2.462a27.071,27.071,0,0,1-13.346,7.591Z" transform="translate(-1175.617 -416.074)" fill="url(#bm)"/><path d="M1557.727,666.21a3.46,3.46,0,0,1,2.009,1.824,1.527,1.527,0,0,1-.573,1.761c-2.472,1.771-10.626,7.487-14.388,8.6a.425.425,0,0,1-.521-.5,13.494,13.494,0,0,1,2.829-5.174l-.18.365a.521.521,0,0,0,.722.688C1550.128,672.36,1555.254,669.253,1557.727,666.21Z" transform="translate(-1171.397 -533.091)" fill="url(#bn)"/><path d="M1589.21,580.106c.042-.026,3.712-8.873,3.754-8.9a155.863,155.863,0,0,1,14-42.676,2.573,2.573,0,0,1,2.055-1.365l6.856-.583,11.374,15.37-14.672-4.921c3.15,8.693-10.92,25.488-15.685,31.537a1.355,1.355,0,0,0,.294,1.954l2.8,1.933a26.985,26.985,0,0,1-11.533,10.134Z" transform="translate(-1204.095 -429.836)" fill="url(#bo)"/><path d="M1595.832,698.78a3.493,3.493,0,0,1,2.344,1.375,1.532,1.532,0,0,1-.206,1.844c-2.063,2.232-8.888,9.482-12.348,11.34a.427.427,0,0,1-.623-.383,13.191,13.191,0,0,1,1.725-5.64l-.1.393a.521.521,0,0,0,.849.521C1589.64,706.34,1594.029,702.258,1595.832,698.78Z" transform="translate(-1201.536 -557.177)" fill="url(#bp)"/><path d="M1693.079,513.379s6.2,9.222,6.708,13.429-1.714,5.663-8.2,6.2c-19.316,1.6-28.838-4.192-28.838-4.192-1.321-8.425-2.261-10.569-13.286-15.148,0,0,13.958,1.107,16.769.018S1693.079,513.379,1693.079,513.379Z" transform="translate(-1249.204 -419.873)" fill="url(#bq)"/><path d="M1687.117,283.31c-3.519-.029-7.179.894-8.68-1.2-2.207-3.087,1.151-11.462,6.773-13.651,5.875-2.277,9.959,3.853,16.237,1.6,4.905-1.756,4.528-6.252,9.1-9.639,7.583-5.632,22.716-3.715,28.374,3.788,9.251,12.267-6.63,39.712-18.66,40.042C1709.6,304.531,1703.646,283.445,1687.117,283.31Z" transform="translate(-1270.126 -230.602)" fill="url(#br)"/><path d="M1716.14,414.523a141.428,141.428,0,0,1-10.777-11.431,9.666,9.666,0,0,1-1.636-8.7c1.623-5.471,4.507-11.131,4.77-12.012.4-1.352,8.5-1.3,8.5-1.3s15.935,10.342,22.195,27.858l-7.033,2.188a82.843,82.843,0,0,0-8.271-11.415s7.112,9.4,7.362,13.242Z" transform="translate(-1289.036 -322.239)" fill="url(#bs)"/><path d="M1699.7,496.339l5.426-5.9,6.252,1.688s7.307,1.131,11.488,0l4.168-1.133,9.474-2.941,1.482,4.194a2.522,2.522,0,0,1-.922,2.9,16.745,16.745,0,0,1-2.384,1.488c-1.245.542-28.656.172-28.656.172Z" transform="translate(-1286.356 -401.343)" fill="url(#bt)"/><path d="M1720.925,341.5l5.442,10.121c-.36,2.206-5.924,2.269-6.773.951a1.281,1.281,0,0,1-.169-.445l-3.256-6.773c-.141-.659,1.667-2.881,2.261-3.2l2.165-1.151C1721.417,340.568,1717.942,340.524,1720.925,341.5Z" transform="translate(-1298.528 -292.385)" fill="url(#bu)"/><path d="M1692,327.627s-.615,3.418,2.071,7.766,5.364,4.153,6.724,2.605a9.557,9.557,0,0,0,2.248-8.469C1702.3,325.194,1692.925,323.267,1692,327.627Z" transform="translate(-1280.616 -280.89)" fill="url(#bv)"/><path d="M1694.474,318.6s-4.35-5.715-7.693-.735l.057,1.722s-2.5,1.375-2.027-2.629,2.17-8.318,7.088-6.95,7.789,2.925,8.336,6.341-2.233,2.866-2.233,2.866-1.063-2.345-2.345-2.516-.821,1.7-.821,1.7Z" transform="translate(-1275.303 -269.49)" fill="url(#bw)"/><path d="M1722.881,332.9s-2.254-2.925-.2-3.533,1.975,2.866,1.842,4.168Z" transform="translate(-1302.711 -283.948)" fill="url(#bx)"/><path d="M1694.311,522.417h-.057l-24.959-.029a1.118,1.118,0,1,1,0-2.232l24.959.026a1.118,1.118,0,0,1,.055,2.233Z" transform="translate(-1263.005 -425.085)" fill="url(#by)"/><path d="M1581.775,441.86h20.786a3.954,3.954,0,0,1,3.582,2.272l9.61,20.374h-25.832a2.407,2.407,0,0,1-2.238-1.521l-7.453-18.856a1.66,1.66,0,0,1,1.545-2.269Z" transform="translate(-1197.924 -367.186)" fill="url(#bz)"/><path d="M1633.287,476.091c.451,1.4.12,2.759-.742,3.035s-1.925-.633-2.373-2.032-.12-2.759.743-3.035S1632.844,474.681,1633.287,476.091Z" transform="translate(-1234.792 -390.96)" fill="#91b3fa"/><path d="M1742.925,299.3h-.2c-2.605-.078-5.26-1.336-8.144-3.853-4.491-3.908-6.2-4.556-9.751-4.556h-.312v-.138h.3c3.551,0,5.367.672,9.863,4.6,2.866,2.49,5.494,3.738,8.055,3.816,2.761.081,5.64-1.615,7.888-4.658a39.8,39.8,0,0,0,2.605-4.218,42.641,42.641,0,0,1,2.41-3.97,8.957,8.957,0,0,1,3.126-2.923,4.111,4.111,0,0,1,4.168.169l-.086.117a3.952,3.952,0,0,0-4.007-.156,8.97,8.97,0,0,0-3.082,2.866,42.4,42.4,0,0,0-2.4,3.954,39.268,39.268,0,0,1-2.605,4.231C1748.515,297.588,1745.678,299.3,1742.925,299.3Z" transform="translate(-1304.71 -249.644)" fill="#91b3fa"/><path d="M1784.024,318.442a6.86,6.86,0,0,1-.805-.047,5,5,0,0,1-4.249-3.09l.138-.044a4.842,4.842,0,0,0,4.126,2.991,9.734,9.734,0,0,0,6.75-2.17,32.988,32.988,0,0,0,4.009-3.73c.411-.43.841-.875,1.269-1.3a49.146,49.146,0,0,1,6.1-5.192,8.335,8.335,0,0,1,4.707-1.977h.172a3.753,3.753,0,0,1,2.73,1.428,2.467,2.467,0,0,1,.505,2.068l-.141-.034a2.326,2.326,0,0,0-.479-1.949,3.611,3.611,0,0,0-2.62-1.37,8.056,8.056,0,0,0-4.791,1.949,48.826,48.826,0,0,0-6.085,5.176c-.427.43-.855.875-1.266,1.3a32.7,32.7,0,0,1-4.03,3.743A10.362,10.362,0,0,1,1784.024,318.442Z" transform="translate(-1344.976 -265.151)" fill="#91b3fa"/><path d="M1799.322,343.708a4.3,4.3,0,0,1-1.972-.456l.065-.128c2.3,1.162,5.051-.326,6.13-1.019a35.594,35.594,0,0,0,3.436-2.642,21.055,21.055,0,0,1,5.931-3.908,6.273,6.273,0,0,1,3.126-.412,3.529,3.529,0,0,1,2.6,1.725l-.128.068a3.386,3.386,0,0,0-2.488-1.649,6.106,6.106,0,0,0-3.061.4,20.624,20.624,0,0,0-5.888,3.879,35.63,35.63,0,0,1-3.452,2.649A8.451,8.451,0,0,1,1799.322,343.708Z" transform="translate(-1358.568 -288.236)" fill="#91b3fa"/><path d="M854.73,884.332l-1.407-.617a.521.521,0,1,1,.4-.946h0l1.383.612h0a.508.508,0,1,1-.409.93Z" transform="translate(-660.172 -693.176)" fill="#fff"/><path d="M837.559,875.761l-1.349-.732a.521.521,0,0,1,.495-.914h0l1.326.724h0a.521.521,0,1,1-.495.907Z" transform="translate(-647.63 -686.801)" fill="#fff"/><path d="M820.751,865.553l-1.284-.839a.53.53,0,1,1,.578-.888h0l1.261.831h0a.527.527,0,1,1-.578.88Z" transform="translate(-635.25 -679.164)" fill="#fff"/><path d="M804.837,854.033l-1.214-.94a.539.539,0,1,1,.659-.852h0l1.193.93h0a.537.537,0,0,1-.659.847Z" transform="translate(-623.541 -670.564)" fill="#fff"/><path d="M790.054,841.428l-1.138-1.029a.55.55,0,0,1,.737-.813h0l1.115,1.021h0a.545.545,0,0,1-.735.8Z" transform="translate(-612.721 -661.213)" fill="#fff"/><path d="M776.016,827.557l-1.058-1.115a.557.557,0,1,1,.807-.766h0l1.042,1.1h0a.555.555,0,1,1-.8.763Z" transform="translate(-602.385 -650.869)" fill="#fff"/><path d="M763.229,812.87l-.974-1.188a.566.566,0,0,1,.875-.719h0l.953,1.17h0a.564.564,0,0,1-.873.714Z" transform="translate(-593.025 -639.982)" fill="#fff"/><path d="M751.464,797.23l-.886-1.253a.576.576,0,0,1,.94-.667h0l.868,1.237h0a.574.574,0,0,1-.938.662Z" transform="translate(-584.408 -628.381)" fill="#fff"/><path d="M740.781,780.741l-.8-1.3a.586.586,0,1,1,1-.607h0l.781,1.3h0a.581.581,0,1,1-1,.6Z" transform="translate(-576.574 -616.143)" fill="#fff"/><path d="M731.366,763.663l-.7-1.365a.595.595,0,0,1,1.058-.544h0v.013l.688,1.344h0a.591.591,0,0,1-1.042.542Z" transform="translate(-569.709 -603.507)" fill="#fff"/><path d="M723.155,745.991l-.61-1.412a.6.6,0,0,1,1.11-.477h0l.594,1.391h0a.6.6,0,0,1-1.1.474Z" transform="translate(-563.726 -590.438)" fill="#fff"/><path d="M716.052,727.664l-.521-1.451a.613.613,0,1,1,1.157-.406h0l.495,1.428h0a.61.61,0,0,1-1.151.4Z" transform="translate(-558.543 -576.859)" fill="#fff"/><path d="M710.346,708.949l-.409-1.482a.623.623,0,0,1,1.2-.328h0l.393,1.456h0a.62.62,0,1,1-1.2.326Z" transform="translate(-554.416 -563.018)" fill="#fff"/><path d="M705.943,689.772l-.3-1.508a.633.633,0,1,1,1.24-.245h0l.289,1.482h0a.63.63,0,0,1-1.235.242Z" transform="translate(-551.242 -548.815)" fill="#fff"/><path d="M702.966,670.487l-.188-1.524a.641.641,0,1,1,1.271-.159h0v.016l.18,1.5v.013a.638.638,0,1,1-1.266.154Z" transform="translate(-549.133 -534.581)" fill="#fff"/><path d="M701.411,651.027l-.073-1.537a.652.652,0,0,1,1.3-.062h0v.016l.068,1.506v.016a.652.652,0,0,1-1.3.06Z" transform="translate(-548.073 -520.222)" fill="#fff"/><path d="M701.21,631.7l.047-1.537a.656.656,0,0,1,1.3.039h0v.029l-.049,1.508v.016a.654.654,0,1,1-1.3-.044Z" transform="translate(-547.973 -506.021)" fill="#fff"/><path d="M702.38,611.987l.172-1.529a.662.662,0,1,1,1.315.146h0v.016l-.169,1.5v.016a.662.662,0,0,1-1.3-.148Z" transform="translate(-548.844 -491.428)" fill="#fff"/><path d="M705.093,592.49l.294-1.511a.667.667,0,1,1,1.3.26h0v.016l-.294,1.48v.016a.664.664,0,1,1-1.3-.261Z" transform="translate(-550.84 -477.018)" fill="#fff"/><path d="M709.4,573.683q.2-.742.422-1.48a.673.673,0,0,1,1.289.383h0q-.219.724-.417,1.448h0a.675.675,0,1,1-1.3-.357Z" transform="translate(-554.011 -463.219)" fill="#fff"/><path d="M715.329,555.141l.547-1.441a.677.677,0,1,1,1.266.482h0v.016l-.539,1.409v.016a.677.677,0,1,1-1.263-.482Z" transform="translate(-558.383 -449.569)" fill="#fff"/><path d="M722.854,537.1l.662-1.389a.685.685,0,1,1,1.235.589h0v.016l-.654,1.36h0a.68.68,0,0,1-1.227-.589Z" transform="translate(-563.946 -436.272)" fill="#fff"/><path d="M731.854,519.967l.781-1.331a.688.688,0,1,1,1.19.69h0v.013l-.758,1.3h0a.688.688,0,0,1-1.188-.69Z" transform="translate(-570.601 -423.708)" fill="#fff"/><path d="M742.152,503.443l.875-1.266a.693.693,0,1,1,1.141.782h0v.013l-.857,1.24v.013a.693.693,0,0,1-1.138-.781Z" transform="translate(-578.204 -411.54)" fill="#fff"/><path d="M753.62,487.912l.966-1.2a.7.7,0,1,1,1.086.878h0v.013l-.948,1.172h0a.7.7,0,0,1-1.084-.875Z" transform="translate(-586.637 -400.163)" fill="#fff"/><path d="M766.25,473.165l1.042-1.123a.709.709,0,1,1,1.042.961h0l-1.042,1.1h0a.7.7,0,0,1-1.026-.961Z" transform="translate(-595.956 -389.337)" fill="#fff"/><path d="M779.908,459.506l1.128-1.042a.71.71,0,1,1,.964,1.042h0l-1.12,1.042h0a.708.708,0,1,1-.959-1.042Z" transform="translate(-606.016 -379.325)" fill="#fff"/><path d="M794.6,446.858l1.2-.964a.714.714,0,0,1,.894,1.112h-.013l-1.177.943h0a.714.714,0,0,1-.894-1.112Z" transform="translate(-616.867 -370.064)" fill="#fff"/><path d="M810.168,435.143l1.263-.878a.72.72,0,1,1,.821,1.183h0l-1.24.86H811a.719.719,0,0,1-.818-1.18Z" transform="translate(-628.357 -361.475)" fill="#fff"/><path d="M826.5,424.681l1.321-.781a.725.725,0,1,1,.742,1.245h0l-1.3.782h0a.724.724,0,0,1-.74-1.243Z" transform="translate(-640.41 -353.829)" fill="#fff"/><path d="M843.388,415.3l1.373-.7a.73.73,0,1,1,.659,1.3h0l-1.347.68h-.016a.729.729,0,0,1-.656-1.3Z" transform="translate(-652.831 -346.974)" fill="#fff"/><path d="M860.946,407.142l1.417-.6a.735.735,0,0,1,.57,1.355h-.016l-1.388.584h-.016a.735.735,0,1,1-.568-1.355Z" transform="translate(-665.758 -341.029)" fill="#fff"/><path d="M879.18,400.311l1.456-.495a.741.741,0,0,1,.479,1.4H881.1l-1.428.482h-.016a.74.74,0,1,1-.474-1.4Z" transform="translate(-679.216 -336.065)" fill="#fff"/><path d="M897.932,394.845l1.49-.391a.748.748,0,0,1,.375,1.446h-.018l-1.459.378H898.3a.745.745,0,0,1-.373-1.441Z" transform="translate(-693.069 -332.118)" fill="#fff"/><path d="M916.894,390.694l1.516-.276a.753.753,0,0,1,.26,1.48h-.018l-1.482.26h-.018a.75.75,0,0,1-.26-1.477Z" transform="translate(-707.031 -329.141)" fill="#fff"/><path d="M936.167,388.019l1.532-.156a.755.755,0,1,1,.154,1.5h-.018l-1.5.154h-.018a.753.753,0,1,1-.151-1.5Z" transform="translate(-721.227 -327.248)" fill="#fff"/><path d="M955.653,386.9l1.542-.034a.756.756,0,0,1,.034,1.511h-.018l-1.506.034h-.018a.756.756,0,1,1-.034-1.511Z" transform="translate(-735.591 -326.521)" fill="#fff"/><path d="M975.228,387.14l1.542.094a.758.758,0,0,1-.091,1.511h-.013l-1.5-.091h-.018a.757.757,0,0,1,.089-1.511Z" transform="translate(-750.027 -326.721)" fill="#fff"/><path d="M994.79,388.9l1.529.221a.761.761,0,0,1-.219,1.5h-.021l-1.487-.216h-.021a.761.761,0,0,1,.219-1.5Z" transform="translate(-764.467 -328.022)" fill="#fff"/><path d="M1013.949,392.238l1.5.331a.762.762,0,1,1-.328,1.487h-.016l-1.472-.326h-.016a.759.759,0,1,1,.328-1.482Z" transform="translate(-778.564 -330.485)" fill="#fff"/><path d="M1033.027,396.972l1.474.435a.763.763,0,0,1-.43,1.464h-.016l-1.446-.427h-.016a.763.763,0,0,1,.432-1.461Z" transform="translate(-792.662 -333.984)" fill="#fff"/><path d="M1051.606,402.869l1.441.521a.764.764,0,1,1-.521,1.435h0l-1.415-.521h0a.764.764,0,1,1,.521-1.435Z" transform="translate(-806.357 -338.319)" fill="#fff"/><path d="M1069.843,410.02l1.409.615a.766.766,0,0,1-.612,1.4h0l-1.386-.6h0a.766.766,0,0,1,.61-1.4Z" transform="translate(-819.823 -343.609)" fill="#fff"/><path d="M1087.532,418.13l1.373.685a.767.767,0,1,1-.685,1.373h0l-1.352-.677h0a.766.766,0,0,1,.685-1.37Z" transform="translate(-832.857 -349.585)" fill="#fff"/><path d="M1105.112,427.311l1.339.75a.782.782,0,1,1-.753,1.342h0l-1.321-.74h0a.782.782,0,0,1,.75-1.342Z" transform="translate(-845.909 -356.404)" fill="#fff"/><path d="M1122.006,437.186l1.3.8a.782.782,0,0,1-.808,1.315h0l-1.3-.781h0a.781.781,0,0,1,.807-1.3Z" transform="translate(-858.375 -363.718)" fill="#fff"/><path d="M1138.456,447.506l1.276.847a.782.782,0,1,1-.852,1.29h0l-1.263-.839h0a.781.781,0,0,1,.852-1.289Z" transform="translate(-870.508 -371.314)" fill="#fff"/><path d="M1154.57,458.43l1.25.881a.781.781,0,0,1-.891,1.266h0l-1.243-.875h0a.782.782,0,0,1,.893-1.266Z" transform="translate(-882.397 -379.377)" fill="#fff"/><path d="M1169.959,469.465l1.232.907a.782.782,0,0,1-.922,1.25h0l-1.222-.9h0a.782.782,0,1,1,.92-1.248Z" transform="translate(-893.644 -387.445)" fill="#fff"/><path d="M1185.639,481.168l1.212.927a.782.782,0,0,1-.943,1.235h0l-1.209-.925h0a.782.782,0,1,1,.946-1.235Z" transform="translate(-905.242 -396.099)" fill="#fff"/><path d="M1201.349,493.288l1.2.94a.782.782,0,0,1-.961,1.23h0l-1.2-.938h0a.782.782,0,0,1,.961-1.23Z" transform="translate(-916.922 -405.115)" fill="#fff"/><path d="M1216.572,505.269l1.193.948a.782.782,0,1,1-.972,1.224h0l-1.193-.948a.782.782,0,1,1,.972-1.224Z" transform="translate(-928.149 -413.951)" fill="#fff"/><path d="M1231.83,517.412l1.19.948a.783.783,0,1,1-.974,1.227h0l-1.193-.948a.783.783,0,1,1,.977-1.224Z" transform="translate(-939.429 -422.932)" fill="#fff"/><path d="M1247.092,529.509l1.193.943h0a.785.785,0,0,1-.972,1.232h0l-1.2-.948a.785.785,0,0,1,.977-1.23Z" transform="translate(-950.715 -431.874)" fill="#fff"/><path d="M1262.379,541.542l1.2.933h0a.787.787,0,1,1-.966,1.243h0l-1.2-.938a.791.791,0,1,1,.969-1.25Z" transform="translate(-962.017 -440.768)" fill="#fff"/><path d="M1277.814,553.467l1.211.917h0a.789.789,0,0,1-.951,1.258h0l-1.219-.922a.788.788,0,0,1,.953-1.256Z" transform="translate(-973.435 -449.598)" fill="#fff"/><path d="M1293.416,565.115l1.227.893h0a.791.791,0,1,1-.93,1.279h0l-1.235-.9a.79.79,0,0,1,.93-1.276Z" transform="translate(-984.978 -458.217)" fill="#fff"/><path d="M1309.233,576.448l1.248.865h0a.792.792,0,1,1-.9,1.3h0l-1.258-.873a.792.792,0,0,1,.9-1.3Z" transform="translate(-996.681 -466.603)" fill="#fff"/><path d="M1325.342,587.384l1.271.826h0a.794.794,0,1,1-.865,1.331h0l-1.284-.834a.794.794,0,0,1,.865-1.331Z" transform="translate(-1008.604 -474.699)" fill="#fff"/><path d="M1341.825,597.826l1.3.782h0a.795.795,0,1,1-.818,1.362h0l-1.3-.782a.8.8,0,1,1,.821-1.362Z" transform="translate(-1020.82 -482.438)" fill="#fff"/><path d="M1358.619,607.586l1.329.729h0a.8.8,0,1,1-.766,1.4h0l-1.344-.737a.8.8,0,1,1,.781-1.4Z" transform="translate(-1033.248 -489.66)" fill="#fff"/><path d="M1375.774,616.747l1.355.677h0a.8.8,0,0,1-.714,1.428l-1.37-.682a.8.8,0,0,1,.711-1.428h0Z" transform="translate(-1045.949 -496.448)" fill="#fff"/><path d="M1393.324,625.167l1.378.623h0a.795.795,0,1,1-.654,1.449l-1.4-.63a.795.795,0,0,1,.654-1.448h0Z" transform="translate(-1058.95 -502.683)" fill="#fff"/><path d="M1411.167,632.952l1.4.571h0a.793.793,0,0,1-.6,1.469l-1.42-.576a.794.794,0,0,1,.6-1.472h0Z" transform="translate(-1072.166 -508.449)" fill="#fff"/><path d="M1429.3,640.065l1.425.521h0a.791.791,0,0,1-.539,1.487l-1.441-.521a.791.791,0,0,1,.539-1.488h0Z" transform="translate(-1085.604 -513.722)" fill="#fff"/><path d="M1447.691,646.468l1.443.464h0a.789.789,0,1,1-.482,1.5l-1.459-.469a.789.789,0,1,1,.482-1.5h0Z" transform="translate(-1099.223 -518.46)" fill="#fff"/><path d="M1466.3,652.2l1.456.409h0a.788.788,0,0,1-.427,1.516l-1.475-.414a.788.788,0,0,1,.427-1.516h0Z" transform="translate(-1113.001 -522.706)" fill="#fff"/><path d="M1485.111,657.242l1.472.357h0a.785.785,0,0,1-.37,1.527l-1.487-.362a.785.785,0,1,1,.37-1.527h0Z" transform="translate(-1126.939 -526.439)" fill="#fff"/><path d="M1504.081,661.6l1.485.3h0a.783.783,0,1,1-.315,1.534l-1.5-.307a.784.784,0,1,1,.315-1.537h0Z" transform="translate(-1140.989 -529.666)" fill="#fff"/><path d="M1523.11,665.277l1.5.261h0a.782.782,0,0,1-.26,1.542l-1.511-.26a.782.782,0,1,1,.261-1.54h0Z" transform="translate(-1155.057 -532.391)" fill="#fff"/><path d="M1542.274,668.258l1.5.2h0a.782.782,0,0,1-.2,1.547l-1.521-.2a.782.782,0,1,1,.2-1.545h0Z" transform="translate(-1169.231 -534.596)" fill="#fff"/><path d="M1561.594,670.548l1.511.143h0a.782.782,0,1,1-.149,1.545l-1.527-.143a.782.782,0,1,1,.149-1.55h0Z" transform="translate(-1183.533 -536.286)" fill="#fff"/><path d="M1581.477,672.21l1.513.091h0a.781.781,0,1,1-.094,1.547l-1.529-.091a.781.781,0,0,1,.094-1.547h0Z" transform="translate(-1198.38 -537.529)" fill="#fff"/><path d="M1600.979,673.14l1.514.039h0a.781.781,0,1,1-.039,1.545l-1.532-.036a.781.781,0,0,1,.036-1.547h0Z" transform="translate(-1212.826 -538.216)" fill="#fff"/><path d="M1620.466,673.346l1.516-.016h0a.782.782,0,0,1,.016,1.542l-1.532.016a.782.782,0,0,1-.018-1.542h0Z" transform="translate(-1227.272 -538.357)" fill="#fff"/><path d="M1639.96,672.808l1.514-.068h0a.781.781,0,0,1,.07,1.537l-1.532.07a.782.782,0,0,1-.07-1.537h0Z" transform="translate(-1241.715 -537.92)" fill="#fff"/><path d="M1659.04,671.476l1.508-.122h0a.767.767,0,1,1,.123,1.529l-1.527.125a.767.767,0,0,1-.125-1.529h0Z" transform="translate(-1255.752 -536.893)" fill="#fff"/><path d="M1678.436,669.482l1.508-.177h0a.765.765,0,0,1,.177,1.519l-1.522.18a.766.766,0,0,1-.179-1.521h0Z" transform="translate(-1270.12 -535.377)" fill="#fff"/><path d="M1697.754,666.845l1.5-.229h0a.763.763,0,1,1,.232,1.508l-1.514.232a.763.763,0,1,1-.234-1.508h0Z" transform="translate(-1284.426 -533.382)" fill="#fff"/><path d="M1716.968,663.506l1.49-.284h0a.761.761,0,1,1,.284,1.5l-1.506.287a.761.761,0,1,1-.284-1.5h0Z" transform="translate(-1298.656 -530.872)" fill="#fff"/><path d="M1736.052,659.471l1.477-.336h0a.759.759,0,1,1,.339,1.48l-1.493.341a.759.759,0,1,1-.339-1.48h0Z" transform="translate(-1312.79 -527.845)" fill="#fff"/><path d="M1754.971,654.736l1.464-.391h0a.757.757,0,0,1,.393,1.461l-1.48.4a.758.758,0,1,1-.393-1.464h0Z" transform="translate(-1326.802 -524.299)" fill="#fff"/><path d="M1773.771,649.292l1.446-.445h0a.755.755,0,1,1,.445,1.443l-1.464.451a.755.755,0,0,1-.445-1.443h0Z" transform="translate(-1340.738 -520.222)" fill="#fff"/><path d="M1792.248,643.2l1.43-.5h0a.753.753,0,1,1,.495,1.422l-1.443.505a.754.754,0,0,1-.5-1.422h0Z" transform="translate(-1354.409 -515.675)" fill="#fff"/><path d="M1810.547,636.394l1.412-.552h0a.746.746,0,1,1,.547,1.388l-1.428.563a.749.749,0,0,1-.547-1.394h0Z" transform="translate(-1367.963 -510.596)" fill="#fff"/><path d="M1828.512,628.9l1.388-.607h0a.741.741,0,0,1,.594,1.357l-1.4.615a.743.743,0,1,1-.6-1.357h0Z" transform="translate(-1381.25 -505.006)" fill="#fff"/><path d="M1846.359,620.755l1.365-.659h0a.735.735,0,0,1,.641,1.321l-1.368.667a.736.736,0,1,1-.644-1.323h0Z" transform="translate(-1394.5 -498.945)" fill="#fff"/><path d="M1863.735,611.9l1.336-.714h0a.729.729,0,0,1,.688,1.284l-1.352.724a.73.73,0,1,1-.69-1.287h0Z" transform="translate(-1407.361 -492.348)" fill="#fff"/><path d="M1880.714,602.192l1.3-.782h0a.722.722,0,1,1,.74,1.237l-1.318.781a.724.724,0,1,1-.743-1.243h0Z" transform="translate(-1419.924 -485.084)" fill="#fff"/><path d="M1897.273,591.793l1.245-.852h0a.716.716,0,0,1,.81,1.18l-1.269.873a.718.718,0,1,1-.813-1.183h0Z" transform="translate(-1432.211 -477.35)" fill="#fff"/><path d="M1913.059,580.039l1.17-.946.015-.013a.709.709,0,0,1,.894,1.1l-1.2.974a.711.711,0,0,1-.9-1.1h0Z" transform="translate(-1443.927 -468.543)" fill="#fff"/><path d="M1927.782,566.923l1.063-1.058.018-.018a.7.7,0,1,1,.992,1l-1.094,1.1a.706.706,0,0,1-1-1h0Z" transform="translate(-1454.868 -458.706)" fill="#fff"/><path d="M1940.887,552.436l.914-1.18.021-.023a.7.7,0,0,1,1.1.854l-.951,1.23a.7.7,0,0,1-1.107-.855h0Z" transform="translate(-1464.589 -447.887)" fill="#fff"/><path d="M1951.963,536.085l.722-1.3.016-.029a.691.691,0,0,1,1.211.667l-.753,1.365a.693.693,0,0,1-1.214-.669h0Z" transform="translate(-1472.826 -435.615)" fill="#fff"/><path d="M1960.393,518.3c.18-.464.32-.935.479-1.4l.016-.042a.688.688,0,1,1,1.3.443c-.167.495-.315,1-.5,1.482h0a.688.688,0,0,1-1.284-.49Z" transform="translate(-1479.12 -422.3)" fill="#fff"/><path d="M1965.255,499.54l.188-1.472v-.039a.68.68,0,0,1,1.347.172l-.2,1.563a.68.68,0,0,1-1.35-.169h0Z" transform="translate(-1482.721 -408.311)" fill="#fff"/><path d="M1966.177,480.131l-.091-1.485v-.036a.673.673,0,0,1,1.344-.083l.1,1.563a.675.675,0,0,1-1.347.086h0Z" transform="translate(-1483.346 -393.834)" fill="#fff"/><path d="M1963.063,461.054l-.346-1.448v-.031a.67.67,0,1,1,1.3-.313l.365,1.514a.67.67,0,1,1-1.3.313h0Z" transform="translate(-1480.842 -379.675)" fill="#fff"/><path d="M1956.794,442.735l-.573-1.378-.013-.029a.663.663,0,0,1,1.219-.521l.6,1.433a.664.664,0,1,1-1.221.521h0Z" transform="translate(-1476.003 -366.11)" fill="#fff"/><path d="M1947.772,425.64l-.781-1.274-.016-.026a.654.654,0,1,1,1.115-.685l.815,1.323a.657.657,0,0,1-1.12.688h0Z" transform="translate(-1469.143 -353.493)" fill="#fff"/><path d="M1936.33,410.144l-.961-1.151-.021-.023a.646.646,0,0,1,.985-.834l1.008,1.185a.649.649,0,1,1-.99.839h0Z" transform="translate(-1460.519 -342.097)" fill="#fff"/><path d="M1922.526,396.506l-1.128-.977-.023-.021a.636.636,0,0,1-.062-.894.628.628,0,0,1,.891-.065l1.18,1.011a.638.638,0,1,1-.831.969h0Z" transform="translate(-1450.123 -332.085)" fill="#fff"/><path d="M1906.768,385.306l-1.274-.782-.026-.016a.623.623,0,1,1,.646-1.065l1.331.8a.628.628,0,1,1-.649,1.073h0Z" transform="translate(-1438.298 -323.921)" fill="#fff"/><path d="M1889.325,377l-1.389-.539-.031-.013a.613.613,0,1,1,.44-1.144l1.454.56a.615.615,0,0,1-.44,1.149h0Z" transform="translate(-1425.242 -317.937)" fill="#fff"/><path d="M1870.76,371.974l-1.464-.292h-.029a.6.6,0,0,1,.229-1.18l1.527.294a.6.6,0,1,1-.229,1.188h0Z" transform="translate(-1411.411 -314.413)" fill="#fff"/><path d="M1851.434,370.041l-1.493-.049h-.029a.592.592,0,1,1,.036-1.183l1.563.047a.594.594,0,0,1-.034,1.188h-.031Z" transform="translate(-1397.013 -313.165)" fill="#fff"/><path d="M1832.207,370.622l-1.487.177h-.026a.581.581,0,0,1-.141-1.151l1.54-.19a.584.584,0,0,1,.143,1.159h-.029Z" transform="translate(-1382.767 -313.641)" fill="#fff"/><path d="M1813.249,373.94l-1.448.388h-.024a.57.57,0,0,1-.3-1.1l1.493-.406a.574.574,0,0,1,.3,1.107h0Z" transform="translate(-1368.731 -316.118)" fill="#fff"/><path d="M1794.9,379.887l-1.383.581h-.021a.559.559,0,1,1-.435-1.029l1.425-.6a.565.565,0,0,1,.438,1.042h0Z" transform="translate(-1355.144 -320.546)" fill="#fff"/><path d="M1777.65,388.329l-1.3.758h-.018a.547.547,0,0,1-.555-.943l1.334-.781a.552.552,0,0,1,.557.951h0Z" transform="translate(-1342.413 -326.842)" fill="#fff"/><path d="M1761.765,398.877l-1.188.92-.016.013a.537.537,0,0,1-.659-.847l1.216-.951a.539.539,0,1,1,.665.849h0Z" transform="translate(-1330.731 -334.67)" fill="#fff"/><path d="M1747.478,411.545l-1.042,1.071v.016a.527.527,0,1,1-.753-.737l1.078-1.107a.53.53,0,1,1,.758.74h0Z" transform="translate(-1320.249 -344.089)" fill="#fff"/><path d="M1735.151,425.949l-.891,1.206v.018a.521.521,0,0,1-.831-.61l.914-1.248a.521.521,0,1,1,.836.612h0Z" transform="translate(-1311.255 -354.76)" fill="#fff"/><rect width="163.056" height="14.958" transform="translate(375.795 324.687)" fill="url(#ca)"/><rect width="4.788" height="18.551" transform="translate(372.205 324.687)" fill="url(#cb)"/><path d="M1694.74,1054.409c0-3.566-3.767-6.549-7.852-6.549H1533.023c-4.085,0-7.323,2.983-7.323,6.549v81.09c0,3.564,3.238,6.6,7.323,6.6h153.865c4.085,0,7.852-3.04,7.852-6.6Z" transform="translate(-1157.684 -815.319)" fill="url(#cc)"/><path d="M1701.246,1068.706c0-3.262-2.811-5.926-6.664-5.926H1549.428c-3.85,0-7.648,2.665-7.648,5.926v74.124c0,3.261,3.8,6.414,7.648,6.414h145.154a6.613,6.613,0,0,0,6.664-6.414Z" transform="translate(-1169.575 -826.353)" fill="url(#cd)"/><path d="M2230.554,1207.749l-10.108-31.175a1.836,1.836,0,0,0-1.805-1.248H2178v73.9h54.938Z" transform="translate(-1640.056 -909.579)" fill="url(#ce)"/><path d="M2263.787,1414a3.419,3.419,0,0,0-1.964-.537l-42.348.815-.185,12.033,42.3,1.042c1.563,0,2.892-.748,2.892-1.795v-10.191A1.517,1.517,0,0,0,2263.787,1414Z" transform="translate(-1670.59 -1085.68)" fill="url(#cf)"/><path d="M2253.67,1218.344l-6.109-24.227a2,2,0,0,0-1.839-1.537h-23.894a2.084,2.084,0,0,0-1.9,2.11l.573,19.4a1.912,1.912,0,0,0,1.595,1.824l29.437,4.759a1.894,1.894,0,0,0,2.141-2.344Z" transform="translate(-1671.062 -922.339)" fill="url(#cg)"/><path d="M2339.37,1191.83l-.312.052a1.9,1.9,0,0,0-1.524,2.365l6.661,24.764a1.9,1.9,0,0,0,2.183,1.376l2.1-.4Z" transform="translate(-1757.982 -921.784)" fill="url(#ch)"/><rect width="11.069" height="4.489" rx="2.244" transform="translate(549.323 299.853)" fill="url(#ci)"/><path d="M2180.871,1091.535a2.715,2.715,0,0,0-1.915.586,2.452,2.452,0,0,0-.917,1.66v19.577h24.777S2201.475,1093.038,2180.871,1091.535Z" transform="translate(-1640.086 -847.61)" fill="url(#cj)"/><circle cx="19.254" cy="19.254" r="19.254" transform="translate(544.102 321.717)" fill="url(#ck)"/><circle cx="15.636" cy="15.636" r="15.636" transform="translate(546.086 327.182) rotate(-6.26)" fill="url(#cl)"/><path d="M2269.814,1429.643a.259.259,0,0,1-.117-.026.3.3,0,0,1-.159-.391,13.546,13.546,0,0,0-19.093-17.1.3.3,0,0,1-.292-.521,14.151,14.151,0,0,1,19.936,17.85A.3.3,0,0,1,2269.814,1429.643Z" transform="translate(-1693.316 -1082.982)" fill="url(#cm)"/><circle cx="7.172" cy="7.172" r="7.172" transform="matrix(0.29, -0.957, 0.957, 0.29, 554.374, 345.711)" fill="url(#cn)"/><circle cx="19.254" cy="19.254" r="19.254" transform="translate(425.397 321.717)" fill="url(#co)"/><circle cx="15.636" cy="15.636" r="15.636" transform="translate(427.233 327.344) rotate(-7.02)" fill="url(#cp)"/><path d="M1814.048,1429.633a.263.263,0,0,1-.117-.026.3.3,0,0,1-.159-.391,13.546,13.546,0,0,0-19.077-17.1.3.3,0,1,1-.294-.521,14.148,14.148,0,0,1,19.937,17.85A.3.3,0,0,1,1814.048,1429.633Z" transform="translate(-1356.264 -1082.973)" fill="url(#cq)"/><circle cx="7.172" cy="7.172" r="7.172" transform="translate(434.511 340.97) rotate(-45)" fill="url(#cr)"/><circle cx="19.254" cy="19.254" r="19.254" transform="translate(381.351 321.717)" fill="url(#cs)"/><circle cx="15.636" cy="15.636" r="15.636" transform="translate(383.333 327.17) rotate(-6.26)" fill="url(#ct)"/><path d="M1645.035,1429.643a.26.26,0,0,1-.117-.026.3.3,0,0,1-.159-.391,13.546,13.546,0,0,0-19.093-17.1.3.3,0,0,1-.292-.521,14.151,14.151,0,0,1,19.936,17.85A.3.3,0,0,1,1645.035,1429.643Z" transform="translate(-1231.295 -1082.982)" fill="url(#cu)"/><circle cx="7.172" cy="7.172" r="7.172" transform="matrix(0.29, -0.957, 0.957, 0.29, 391.639, 345.714)" fill="url(#cv)"/><rect width="8.677" height="10.472" rx="4.339" transform="translate(584.327 316.908)" fill="url(#cw)"/><path d="M2359.959,1371.72v9.873H2358.4a2.618,2.618,0,0,1-2.326-2.23v-6.252c0-1.042,1.279-1.391,2.326-1.391Z" transform="translate(-1771.738 -1054.812)" fill="#fff" opacity="0.8"/><path d="M2189.82,1235.98a.3.3,0,0,1-.3-.3V1191.7a.3.3,0,1,1,.6,0v43.981A.3.3,0,0,1,2189.82,1235.98Z" transform="translate(-1648.575 -921.467)" fill="url(#cx)"/><path d="M2203.927,1121.426a.294.294,0,0,1-.281-.2c-1.654-4.791-4.908-11.105-11.019-13.979a13.487,13.487,0,0,0-6.617-1.381.3.3,0,0,1-.07-.594,13.814,13.814,0,0,1,6.94,1.433c6.3,2.962,9.639,9.425,11.332,14.328a.3.3,0,0,1-.185.38.327.327,0,0,1-.1.013Z" transform="translate(-1645.745 -857.75)" fill="#fff"/><path d="M1621.862,1244.948a7.481,7.481,0,0,0,7.625-7.479v-33.28a7.977,7.977,0,0,0-7.888-7.979c-13.124-.143-40.193-.151-62.342,1.717a5.991,5.991,0,0,0-5.47,5.762l-2.071,32.18a7.62,7.62,0,0,0,7.469,7.893Z" transform="translate(-1176.919 -924.982)" fill="url(#cy)"/><path d="M1775.543,1233.649c.055,2.834-.029,7.328-.1,10.23a2.561,2.561,0,0,1-2.865,2.485l-10.8-1.266a2.564,2.564,0,0,1-2.238-2.925l1.326-8.857a2.566,2.566,0,0,1,2.537-2.186h9.571A2.563,2.563,0,0,1,1775.543,1233.649Z" transform="translate(-1330.587 -950.847)" fill="#fff" opacity="0.84"/><path d="M1680.729,1224.927l-9.008.974a2.035,2.035,0,0,1-2.246-2.17l1.972-26.8c3.775-.12,7.5-.208,11.095-.26v26.246A2.029,2.029,0,0,1,1680.729,1224.927Z" transform="translate(-1264.001 -925.364)" fill="#fff" opacity="0.37"/><path d="M1693.376,1220.5a.907.907,0,0,1-.9.855h-.055a.9.9,0,0,1-.852-.956l1.36-23.391,1.824-.044Z" transform="translate(-1280.34 -925.578)" fill="#fff"/><path d="M1801.011,1250.578a.3.3,0,0,0,.3-.281l.466-7.37a.3.3,0,0,0-.281-.32.294.294,0,0,0-.32.284l-.469,7.367a.3.3,0,0,0,.284.32Z" transform="translate(-1361.051 -959.333)" fill="url(#cz)"/><path d="M1797.307,1250.178a.3.3,0,0,0,.3-.292l.245-7.508a.3.3,0,0,0-.292-.312.284.284,0,0,0-.313.292l-.25,7.505a.3.3,0,0,0,.292.31Z" transform="translate(-1358.308 -958.933)" fill="url(#da)"/><path d="M1792.355,1250.175a.3.3,0,0,1-.286-.315c.12-2.522.349-7.333.352-7.5a.3.3,0,0,1,.6,0c0,.125-.294,6.289-.352,7.523a.3.3,0,0,1-.3.287Zm.06-7.815Z" transform="translate(-1354.662 -958.929)" fill="url(#db)"/><path d="M1783.783,1250a.6.6,0,0,0,.6-.581c.261-7.276.211-7.44.183-7.555a.6.6,0,0,0-1.183.24c.021.438-.115,4.671-.206,7.266a.6.6,0,0,0,.581.625Z" transform="translate(-1348.088 -958.449)" fill="url(#dc)"/><path d="M1779.612,1250.581a.3.3,0,0,0,.3-.3v-7.367a.3.3,0,1,0-.6,0v7.367A.3.3,0,0,0,1779.612,1250.581Z" transform="translate(-1345.227 -959.336)" fill="url(#dd)"/><path d="M1775.552,1250.539a.3.3,0,0,0,.3-.294c.057-2.561.193-6.742.315-7.245a.3.3,0,0,0-.43-.4c-.164.107-.32.208-.49,7.63a.3.3,0,0,0,.3.307Z" transform="translate(-1342.225 -959.293)" fill="url(#de)"/><path d="M1806.392,1250.394a.607.607,0,0,0,.6-.573l.4-7.737a.6.6,0,0,0-.57-.636.612.612,0,0,0-.636.573l-.4,7.737a.607.607,0,0,0,.573.635Z" transform="translate(-1364.807 -958.477)" fill="url(#df)"/><path d="M1916.43,1255.653a7.479,7.479,0,0,0,7.622-7.479v-33.285a7.974,7.974,0,0,0-7.885-7.979c-13.127-.143-40.193-.151-62.342,1.717a5.992,5.992,0,0,0-5.471,5.762l-2.068,32.18a7.617,7.617,0,0,0,7.469,7.893Z" transform="translate(-1394.752 -932.894)" fill="url(#dg)"/><path d="M2070.139,1244.369c.057,2.834-.029,7.328-.1,10.23a2.564,2.564,0,0,1-2.866,2.485l-10.8-1.266a2.561,2.561,0,0,1-2.238-2.925l1.326-8.857a2.566,2.566,0,0,1,2.537-2.186h9.571A2.561,2.561,0,0,1,2070.139,1244.369Z" transform="translate(-1548.44 -958.774)" fill="#fff" opacity="0.84"/><path d="M1975.328,1235.647l-9.011.974a2.032,2.032,0,0,1-2.243-2.17l1.969-26.8c3.777-.12,7.5-.209,11.1-.261v26.246A2.029,2.029,0,0,1,1975.328,1235.647Z" transform="translate(-1481.855 -933.291)" fill="#fff" opacity="0.37"/><path d="M1987.973,1231.186a.907.907,0,0,1-.9.854h-.052a.9.9,0,0,1-.852-.956l1.36-23.391,1.823-.044Z" transform="translate(-1498.194 -933.483)" fill="#fff"/><path d="M2095.61,1261.3a.3.3,0,0,0,.3-.281l.466-7.37a.3.3,0,0,0-.284-.321.3.3,0,0,0-.321.284l-.466,7.367a.3.3,0,0,0,.284.321Z" transform="translate(-1578.906 -967.26)" fill="url(#dh)"/><path d="M2091.922,1260.9a.3.3,0,0,0,.3-.292l.245-7.508a.305.305,0,0,0-.292-.312.285.285,0,0,0-.313.292l-.245,7.507a.3.3,0,0,0,.292.313Z" transform="translate(-1576.178 -966.86)" fill="url(#di)"/><path d="M2086.955,1260.895a.3.3,0,0,1-.286-.315c.12-2.522.346-7.333.352-7.5a.3.3,0,1,1,.6,0c0,.125-.294,6.289-.354,7.523a.3.3,0,0,1-.3.287Zm.057-7.815Z" transform="translate(-1572.517 -966.857)" fill="url(#dj)"/><path d="M2078.38,1260.717a.6.6,0,0,0,.6-.581c.26-7.276.211-7.44.182-7.555a.6.6,0,0,0-1.183.24c.018.438-.117,4.671-.206,7.265a.6.6,0,0,0,.581.625Z" transform="translate(-1565.943 -966.376)" fill="url(#dk)"/><path d="M2074.212,1261.3a.3.3,0,0,0,.3-.3v-7.367a.3.3,0,1,0-.6,0V1261A.3.3,0,0,0,2074.212,1261.3Z" transform="translate(-1563.082 -967.263)" fill="url(#dl)"/><path d="M2070.142,1261.251a.3.3,0,0,0,.3-.294c.057-2.561.193-6.742.312-7.245a.3.3,0,0,0-.427-.4c-.167.107-.323.209-.49,7.63a.3.3,0,0,0,.294.307Z" transform="translate(-1560.072 -967.213)" fill="url(#dm)"/><path d="M2100.992,1261.046a.6.6,0,0,0,.6-.573l.4-7.737a.6.6,0,1,0-1.206-.063l-.4,7.737a.6.6,0,0,0,.573.635Z" transform="translate(-1582.662 -966.336)" fill="url(#dn)"/><path d="M1619.253,1096.876V1073.5a5.6,5.6,0,0,0-5.538-5.6c-9.217-.1-28.229-.1-43.781,1.206a4.207,4.207,0,0,0-3.85,4.046l-1.453,22.6a5.348,5.348,0,0,0,5.246,5.544l44.026.839a5.255,5.255,0,0,0,5.351-5.255Z" transform="translate(-1186.47 -830.108)" fill="url(#do)"/><path d="M1721.9,1094.231c.039,1.988-.021,5.145-.068,7.184a1.8,1.8,0,0,1-2.011,1.746l-7.586-.891a1.8,1.8,0,0,1-1.563-2.055l.93-6.21a1.8,1.8,0,0,1,1.782-1.534h6.724A1.8,1.8,0,0,1,1721.9,1094.231Z" transform="translate(-1294.456 -848.308)" fill="#fff" opacity="0.84"/><path d="M1655.33,1088.061l-6.327.682a1.425,1.425,0,0,1-1.563-1.521l1.383-18.821c2.652-.086,5.267-.146,7.792-.19v18.441A1.422,1.422,0,0,1,1655.33,1088.061Z" transform="translate(-1247.707 -830.368)" fill="#fff" opacity="0.37"/><path d="M1664.168,1084.962a.636.636,0,0,1-.636.6h-.036a.636.636,0,0,1-.6-.672l.956-16.427,1.277-.031Z" transform="translate(-1259.139 -830.531)" fill="#fff"/><path d="M1739.76,1106.106a.214.214,0,0,0,.214-.2l.328-5.176a.216.216,0,0,0-.2-.224.205.205,0,0,0-.224.2l-.328,5.174a.214.214,0,0,0,.2.227Z" transform="translate(-1315.823 -854.252)" fill="url(#dp)"/><path d="M1737.17,1105.824a.211.211,0,0,0,.211-.206l.172-5.272a.209.209,0,0,0-.2-.219.2.2,0,0,0-.219.206l-.172,5.273a.208.208,0,0,0,.2.219Z" transform="translate(-1313.909 -853.97)" fill="url(#dq)"/><path d="M1733.68,1105.88a.211.211,0,0,1-.2-.222c.083-1.771.245-5.15.261-5.267a.214.214,0,0,1,.425,0c0,.089-.208,4.429-.26,5.283a.213.213,0,0,1-.214.2Zm.042-5.486Z" transform="translate(-1311.335 -854.025)" fill="url(#dr)"/><path d="M1727.661,1105.7a.422.422,0,0,0,.425-.409c.18-5.108.148-5.21.128-5.3a.425.425,0,0,0-.831.167c0,.307-.081,3.28-.143,5.1a.422.422,0,0,0,.409.438Z" transform="translate(-1306.721 -853.641)" fill="url(#ds)"/><path d="M1724.731,1106.108a.214.214,0,0,0,.214-.214v-5.174a.214.214,0,0,0-.214-.211.211.211,0,0,0-.211.211v5.174a.211.211,0,0,0,.211.214Z" transform="translate(-1304.71 -854.254)" fill="url(#dt)"/><path d="M1721.9,1106.074a.211.211,0,0,0,.214-.208c.039-1.8.135-4.733.219-5.088a.2.2,0,0,0,0-.219.209.209,0,0,0-.292-.06c-.117.076-.227.146-.344,5.359a.214.214,0,0,0,.209.216Z" transform="translate(-1302.625 -854.219)" fill="url(#du)"/><path d="M1743.54,1105.966a.425.425,0,0,0,.425-.4l.284-5.432a.425.425,0,0,0-.849-.044l-.281,5.431a.424.424,0,0,0,.4.448Z" transform="translate(-1318.463 -853.642)" fill="url(#dv)"/><path d="M1822.72,1099.555V1076.18c0-3.071-2.134-5.572-4.788-5.6-7.966-.1-24.394-.107-37.836,1.2a4,4,0,0,0-3.327,4.048l-1.258,22.6c-.094,2.991,1.948,5.486,4.535,5.544l38.034.836C1820.633,1104.864,1822.72,1102.5,1822.72,1099.555Z" transform="translate(-1342.416 -832.088)" fill="url(#dw)"/><path d="M1911.382,1096.908c.034,1.99-.018,5.145-.06,7.185a1.649,1.649,0,0,1-1.737,1.745l-6.554-.889a1.764,1.764,0,0,1-1.36-2.055l.8-6.211a1.657,1.657,0,0,1,1.54-1.534h5.809A1.668,1.668,0,0,1,1911.382,1096.908Z" transform="translate(-1435.699 -850.29)" fill="#fff" opacity="0.84"/><path d="M1853.861,1090.74l-5.471.683a1.331,1.331,0,0,1-1.36-1.524l1.193-18.822c2.292-.083,4.553-.146,6.737-.187v18.433A1.362,1.362,0,0,1,1853.861,1090.74Z" transform="translate(-1395.304 -832.35)" fill="#fff" opacity="0.37"/><path d="M1861.52,1087.649a.589.589,0,0,1-.55.6h-.031a.607.607,0,0,1-.521-.672l.823-16.427,1.1-.029Z" transform="translate(-1405.203 -832.52)" fill="#fff"/><path d="M1926.868,1108.778a.2.2,0,0,0,.182-.2l.284-5.174a.2.2,0,0,0-.172-.224.191.191,0,0,0-.2.2l-.281,5.174a.2.2,0,0,0,.169.224Z" transform="translate(-1454.209 -856.228)" fill="url(#dx)"/><path d="M1924.623,1108.49a.2.2,0,0,0,.182-.206l.149-5.272a.206.206,0,0,0-.177-.221.192.192,0,0,0-.19.206l-.148,5.272a.206.206,0,0,0,.177.222Z" transform="translate(-1452.548 -855.94)" fill="url(#dy)"/><path d="M1921.611,1108.5a.2.2,0,0,1-.175-.222c.073-1.771.211-5.15.214-5.265a.185.185,0,1,1,.367,0c0,.086-.18,4.428-.214,5.283a.2.2,0,0,1-.185.2Zm.037-5.484Z" transform="translate(-1450.328 -855.952)" fill="url(#dz)"/><path d="M1916.425,1108.4a.4.4,0,0,0,.367-.409c.154-5.108.128-5.226.109-5.3a.365.365,0,0,0-.451-.3.43.43,0,0,0-.26.466c0,.3-.068,3.277-.125,5.1a.407.407,0,0,0,.354.44Z" transform="translate(-1446.356 -855.634)" fill="url(#ea)"/><path d="M1913.875,1108.772a.2.2,0,0,0,.182-.214v-5.171a.185.185,0,1,0-.365,0v5.174a.2.2,0,0,0,.183.211Z" transform="translate(-1444.6 -856.222)" fill="url(#eb)"/><path d="M1911.413,1108.736a.2.2,0,0,0,.182-.208c.036-1.8.117-4.733.19-5.088a.239.239,0,0,0,0-.219.172.172,0,0,0-.26-.062c-.1.076-.2.148-.3,5.359a.206.206,0,0,0,.18.219Z" transform="translate(-1442.78 -856.186)" fill="url(#ec)"/><path d="M1930.13,1108.641a.393.393,0,0,0,.365-.4l.245-5.434a.406.406,0,0,0-.346-.445.4.4,0,0,0-.386.4l-.245,5.434a.4.4,0,0,0,.346.445Z" transform="translate(-1456.484 -855.622)" fill="url(#ed)"/><path d="M2004.788,1105.089v-23.375c0-3.071-2.131-5.569-4.786-5.6-7.966-.1-24.394-.1-37.836,1.206a4.006,4.006,0,0,0-3.329,4.046l-1.256,22.6c-.094,2.988,1.948,5.486,4.533,5.544l38.034.836C2002.7,1110.4,2004.788,1108.03,2004.788,1105.089Z" transform="translate(-1477.056 -836.182)" fill="url(#ee)"/><path d="M2093.48,1102.441c.034,1.99-.016,5.145-.057,7.185a1.653,1.653,0,0,1-1.738,1.745l-6.557-.888a1.768,1.768,0,0,1-1.357-2.058l.805-6.21a1.659,1.659,0,0,1,1.54-1.534h5.809A1.687,1.687,0,0,1,2093.48,1102.441Z" transform="translate(-1570.361 -854.379)" fill="#fff" opacity="0.84"/><path d="M2035.924,1096.273l-5.47.682a1.334,1.334,0,0,1-1.363-1.524l1.2-18.822c2.292-.083,4.554-.146,6.737-.19v18.433A1.362,1.362,0,0,1,2035.924,1096.273Z" transform="translate(-1529.936 -836.44)" fill="#fff" opacity="0.37"/><path d="M2043.591,1093.187a.6.6,0,0,1-.55.6h-.031a.609.609,0,0,1-.521-.672l.826-16.428,1.1-.028Z" transform="translate(-1539.844 -836.617)" fill="#fff"/><path d="M2108.918,1114.308h.013a.2.2,0,0,0,.182-.2l.284-5.173a.206.206,0,0,0-.172-.227.193.193,0,0,0-.2.2l-.284,5.176A.2.2,0,0,0,2108.918,1114.308Z" transform="translate(-1588.842 -860.318)" fill="url(#ef)"/><path d="M2106.692,1114.027a.2.2,0,0,0,.183-.206l.148-5.273a.2.2,0,0,0-.177-.219.192.192,0,0,0-.19.206l-.148,5.272a.2.2,0,0,0,.177.219Z" transform="translate(-1587.187 -860.037)" fill="url(#eg)"/><path d="M2103.681,1114.027a.2.2,0,0,1-.175-.221c.073-1.771.211-5.15.214-5.265a.2.2,0,0,1,.182-.211.2.2,0,0,1,.182.214c0,.086-.177,4.415-.214,5.283a.2.2,0,0,1-.182.2Zm.034-5.471Z" transform="translate(-1584.968 -860.037)" fill="url(#eh)"/><path d="M2098.48,1113.91h.013a.4.4,0,0,0,.365-.411c.156-5.109.128-5.21.112-5.3a.367.367,0,0,0-.451-.3.431.431,0,0,0-.26.466c0,.307-.07,3.28-.125,5.1A.4.4,0,0,0,2098.48,1113.91Z" transform="translate(-1580.994 -859.711)" fill="url(#ei)"/><path d="M2095.941,1114.327a.2.2,0,0,0,.182-.211v-5.174a.185.185,0,1,0-.367,0v5.174a.2.2,0,0,0,.185.211Z" transform="translate(-1579.236 -860.336)" fill="url(#ej)"/><path d="M2093.481,1114.262a.2.2,0,0,0,.185-.206c.034-1.8.117-4.736.19-5.088a.262.262,0,0,0,0-.221.167.167,0,0,0-.261-.06c-.1.076-.195.146-.3,5.359a.2.2,0,0,0,.18.216Z" transform="translate(-1577.419 -860.272)" fill="url(#ek)"/><path d="M2112.179,1114.171h.018a.392.392,0,0,0,.367-.4l.245-5.434a.406.406,0,0,0-.349-.445.4.4,0,0,0-.386.4l-.243,5.434A.4.4,0,0,0,2112.179,1114.171Z" transform="translate(-1591.124 -859.711)" fill="url(#el)"/></g></g></svg>