<svg xmlns="http://www.w3.org/2000/svg" width="149" height="149" viewBox="0 0 149 149"><circle cx="74.5" cy="74.5" r="74.5" fill="#57dbd8"/><path d="M170.588,147.658H154L156.91,88h10.768Z" transform="translate(-109.184 -62.391)" fill="#546e7a"/><g transform="translate(45.544 24.445)"><rect width="15.133" height="7.566" fill="#455a64"/><path d="M276.588,147.658H260L262.91,88h10.768Z" transform="translate(-229.88 -86.836)" fill="#455a64"/></g><rect width="15.133" height="7.566" transform="translate(76.392 24.445)" fill="#37474f"/><path d="M379.588,147.658H363L365.91,88h10.768Z" transform="translate(-257.361 -62.391)" fill="#455a64"/><rect width="15.133" height="7.566" transform="translate(106.366 24.445)" fill="#37474f"/><path d="M182.532,228.8H80.227V185.255H94.842V164l29.23,21.255V164l29.23,21.255V164l29.23,21.255Z" transform="translate(-56.88 -116.273)" fill="#fff"/><path d="M306.849,185.255,277.618,164v21.255l-22.047-16.032V228.8h51.278Z" transform="translate(-181.196 -116.273)" fill="#e6e6e6"/><path d="M124.072,164v21.255L94.842,164v21.255H80.227V228.8h51.028V169.223Z" transform="translate(-56.88 -116.273)" fill="#fff"/><g transform="translate(43.943 73.627)"><rect width="10" height="32" transform="translate(0.057 0.373)" fill="#afbdc4"/><rect width="11" height="32" transform="translate(16.057 0.373)" fill="#afbdc4"/></g><g transform="translate(76.537 73.627)"><rect width="10" height="32" transform="translate(0.463 0.373)" fill="#8fa3ad"/><rect width="10" height="32" transform="translate(16.463 0.373)" fill="#8fa3ad"/><rect width="11" height="32" transform="translate(32.463 0.373)" fill="#8fa3ad"/></g></svg>