<svg xmlns="http://www.w3.org/2000/svg" xmlns:xlink="http://www.w3.org/1999/xlink" width="149" height="149" viewBox="0 0 149 149"><defs><linearGradient id="a" x1="0.5" x2="0.5" y2="1" gradientUnits="objectBoundingBox"><stop offset="0" stop-color="#bdd0fb"/><stop offset="1" stop-color="#e9effd"/></linearGradient></defs><circle cx="74.5" cy="74.5" r="74.5" fill="#1a0f91"/><g transform="translate(19.799 23.496)"><g transform="translate(0 0)"><path d="M110.907,208.573H109.27a20.894,20.894,0,0,1-31.308,0H76.326a8.108,8.108,0,0,0-8.108,8.108v16.676c0,6.519,11.371,11.8,25.4,11.8s25.4-5.284,25.4-11.8V216.681A8.108,8.108,0,0,0,110.907,208.573Z" transform="translate(-68.218 -171.534)" fill="#bdd0fb"/><path d="M119.415,117.074a14.848,14.848,0,0,0,14.848-14.848V95.8a14.848,14.848,0,0,0-29.7,0v6.421a14.848,14.848,0,0,0,14.848,14.848Z" transform="translate(-94.017 -80.956)" fill="#bdd0fb"/></g><g transform="translate(25.398)"><path d="M173.017,208.573h-1.636a20.881,20.881,0,0,1-15.654,7.055v29.533c14.027,0,25.4-5.285,25.4-11.8V216.681A8.108,8.108,0,0,0,173.017,208.573Z" transform="translate(-155.727 -171.533)" fill="url(#a)"/><path d="M170.575,102.225V95.8a14.848,14.848,0,0,0-14.848-14.848v36.118a14.848,14.848,0,0,0,14.848-14.848Z" transform="translate(-155.727 -80.955)" fill="url(#a)"/></g><g transform="translate(42.906 5.805)"><path d="M249.1,276.193a27.17,27.17,0,0,1-20.369-9.18H226.6a10.55,10.55,0,0,0-10.55,10.55v21.7c0,8.482,14.8,15.359,33.049,15.359L252,295.2Z" transform="translate(-216.048 -218.817)" fill="#fe7062"/><path d="M282.667,147.953c10.671,0,10.671-47,0-47a19.321,19.321,0,0,0-19.321,19.321v8.356A19.321,19.321,0,0,0,282.667,147.953Z" transform="translate(-249.618 -100.956)" fill="#fe7062"/></g><g transform="translate(75.954 5.805)"><path d="M352.414,267.013h-2.129a27.17,27.17,0,0,1-20.369,9.18v38.428c18.252,0,33.049-6.876,33.049-15.359v-21.7a10.551,10.551,0,0,0-10.55-10.55Z" transform="translate(-329.916 -218.817)" fill="#f6a39b"/><path d="M349.236,128.631v-8.356a19.321,19.321,0,0,0-19.321-19.321v47a19.32,19.32,0,0,0,19.321-19.321Z" transform="translate(-329.915 -100.955)" fill="#f6a39b"/></g></g></svg>