<svg xmlns="http://www.w3.org/2000/svg" xmlns:xlink="http://www.w3.org/1999/xlink" width="374.068" height="267.096" viewBox="0 0 374.068 267.096"><defs><linearGradient id="a" x1="0.478" y1="0.454" x2="0.258" y2="-0.012" gradientUnits="objectBoundingBox"><stop offset="0" stop-color="#4042e2"/><stop offset="1" stop-color="#4f52ff"/></linearGradient><linearGradient id="b" x1="-3.185" y1="2.273" x2="5.935" y2="-2.115" gradientUnits="objectBoundingBox"><stop offset="0" stop-color="#ff928e"/><stop offset="1" stop-color="#feb3b1"/></linearGradient><linearGradient id="c" x1="-3.929" y1="33.207" x2="4.897" y2="-31.945" xlink:href="#b"/><linearGradient id="d" x1="-2.932" y1="1.992" x2="6.185" y2="-1.97" xlink:href="#b"/><linearGradient id="e" x1="-3.768" y1="32.028" x2="5.059" y2="-33.149" xlink:href="#b"/><linearGradient id="f" x1="-3.366" y1="3.032" x2="5.751" y2="-3.015" xlink:href="#b"/><linearGradient id="g" x1="-3.863" y1="32.563" x2="4.967" y2="-32.3" xlink:href="#b"/><linearGradient id="h" x1="-2.196" y1="1.798" x2="6.924" y2="-2.591" xlink:href="#b"/><linearGradient id="i" x1="-2.973" y1="26.144" x2="5.855" y2="-39.008" xlink:href="#b"/><linearGradient id="j" x1="-2.375" y1="2.377" x2="6.73" y2="-3.67" xlink:href="#b"/><linearGradient id="k" x1="-2.904" y1="25.532" x2="5.922" y2="-39.333" xlink:href="#b"/><linearGradient id="l" x1="3.798" y1="-0.331" x2="-9.08" y2="2.915" gradientUnits="objectBoundingBox"><stop offset="0" stop-color="#fe7062"/><stop offset="1" stop-color="#ff928e"/></linearGradient><linearGradient id="m" x1="4.112" y1="-0.887" x2="-8.765" y2="4.058" xlink:href="#l"/><linearGradient id="n" x1="2.43" y1="0.177" x2="-10.448" y2="2.333" xlink:href="#l"/><linearGradient id="o" x1="4.085" y1="-1.998" x2="-8.793" y2="6.975" xlink:href="#l"/><linearGradient id="p" x1="2.246" y1="0.163" x2="-10.632" y2="2.651" xlink:href="#l"/><linearGradient id="q" x1="2.363" y1="0.064" x2="-10.514" y2="3.074" xlink:href="#l"/><linearGradient id="r" x1="2.514" y1="-0.109" x2="-10.363" y2="3.787" xlink:href="#l"/><clipPath id="s"><path d="M1224.948,537.32a8.1,8.1,0,1,0,8.257,8.1A8.179,8.179,0,0,0,1224.948,537.32Zm0,12.71a4.615,4.615,0,1,1,4.7-4.612,4.567,4.567,0,0,1-1.375,3.268,4.75,4.75,0,0,1-3.33,1.353Z" transform="translate(-1216.69 -537.32)" fill="#fff" opacity="0.57"/></clipPath><linearGradient id="t" x1="0.514" y1="-0.479" x2="0.468" y2="2.728" xlink:href="#b"/><clipPath id="u"><path d="M1334.637,537.32a8.1,8.1,0,1,0,8.257,8.1A8.179,8.179,0,0,0,1334.637,537.32Zm0,12.71a4.615,4.615,0,1,1,4.7-4.612,4.567,4.567,0,0,1-1.374,3.267,4.75,4.75,0,0,1-3.328,1.355Z" transform="translate(-1326.38 -537.32)" fill="#fff" opacity="0.57"/></clipPath><linearGradient id="v" x1="0.51" y1="-0.02" x2="0.464" y2="2.294" xlink:href="#b"/><clipPath id="w"><path d="M1444.327,537.32a8.1,8.1,0,1,0,8.257,8.1A8.179,8.179,0,0,0,1444.327,537.32Zm0,12.71a4.615,4.615,0,1,1,4.7-4.612,4.567,4.567,0,0,1-1.375,3.268,4.75,4.75,0,0,1-3.33,1.353Z" transform="translate(-1436.07 -537.32)" fill="#fff" opacity="0.57"/></clipPath><linearGradient id="x" x1="0.516" y1="-1.695" x2="0.47" y2="4.721" xlink:href="#b"/><linearGradient id="y" x1="0.721" y1="-0.679" x2="-1.282" y2="9.983" xlink:href="#b"/><linearGradient id="z" x1="0.366" y1="1.233" x2="-2.257" y2="11.885" xlink:href="#b"/><linearGradient id="aa" x1="1.162" y1="-2.598" x2="-1.032" y2="8.052" xlink:href="#b"/><linearGradient id="ab" x1="0.736" y1="-1.368" x2="0.67" y2="-0.847" xlink:href="#b"/><linearGradient id="ac" x1="0.499" y1="0.502" x2="-0.017" y2="2.545" xlink:href="#l"/><linearGradient id="ad" x1="0.925" y1="-1.328" x2="0.762" y2="-0.63" xlink:href="#b"/><linearGradient id="ae" x1="0.152" y1="0.08" x2="1.094" y2="1.216" xlink:href="#l"/><linearGradient id="af" x1="0.856" y1="-2.907" x2="0.774" y2="-2.148" xlink:href="#b"/><linearGradient id="ag" x1="0.724" y1="-0.9" x2="-0.314" y2="5.669" xlink:href="#l"/><linearGradient id="ah" x1="-4.998" y1="0.5" x2="-3.998" y2="0.5" gradientUnits="objectBoundingBox"><stop offset="0" stop-color="#09005d"/><stop offset="1" stop-color="#1a0f91"/></linearGradient><linearGradient id="ai" x1="-5.401" y1="0.837" x2="-4.227" y2="-0.214" xlink:href="#l"/><linearGradient id="aj" x1="0.397" y1="1.812" x2="0.934" y2="-5.148" xlink:href="#ah"/><linearGradient id="ak" x1="1.127" y1="-0.287" x2="0.494" y2="0.659" xlink:href="#ah"/><linearGradient id="al" x1="0.824" y1="-0.509" x2="0.276" y2="1.498" xlink:href="#b"/><linearGradient id="am" x1="-66.058" y1="72.498" x2="-67.365" y2="71.311" xlink:href="#b"/><linearGradient id="an" x1="1.88" y1="-1.775" x2="-1.183" y2="2.73" xlink:href="#ah"/><linearGradient id="ao" x1="-181.865" y1="265.312" x2="-185.491" y2="260.931" xlink:href="#b"/><linearGradient id="ap" x1="-14.04" y1="0.026" x2="-14.221" y2="0.975" xlink:href="#b"/><linearGradient id="aq" x1="3.339" y1="-2.251" x2="-1.663" y2="2.595" xlink:href="#a"/><linearGradient id="ar" x1="-0.002" y1="0.499" x2="1.002" y2="0.499" gradientUnits="objectBoundingBox"><stop offset="0" stop-color="#dae3fe"/><stop offset="1" stop-color="#e9effd"/></linearGradient><linearGradient id="as" x1="0.003" y1="0.5" x2="1.003" y2="0.5" xlink:href="#ar"/><linearGradient id="at" x1="0" y1="0.5" x2="1" y2="0.5" xlink:href="#ar"/><linearGradient id="au" x1="0" y1="0.501" x2="1" y2="0.501" xlink:href="#ar"/><linearGradient id="av" x1="0" y1="0.5" x2="1" y2="0.5" xlink:href="#ar"/><linearGradient id="ax" x1="44.066" y1="2.978" x2="42.972" y2="4.18" xlink:href="#b"/><linearGradient id="ay" x1="-6.196" y1="0.5" x2="-5.196" y2="0.5" xlink:href="#ah"/><linearGradient id="az" x1="0.693" y1="0.076" x2="-0.241" y2="2.067" xlink:href="#l"/><linearGradient id="ba" x1="-5.547" y1="-2.182" x2="-5.539" y2="3.785" xlink:href="#ah"/><linearGradient id="bb" x1="0.002" y1="0.5" x2="1" y2="0.5" xlink:href="#b"/><linearGradient id="bc" x1="-51.685" y1="8.471" x2="-52.297" y2="9.091" xlink:href="#ah"/><linearGradient id="bd" x1="0.338" y1="-0.286" x2="0.748" y2="1.99" xlink:href="#b"/><linearGradient id="be" x1="-114.71" y1="-33.097" x2="-115.337" y2="-31.5" xlink:href="#b"/><linearGradient id="bf" x1="-160.073" y1="25.205" x2="-161.954" y2="27.11" xlink:href="#ah"/><linearGradient id="bg" x1="-321.37" y1="-124.041" x2="-323.12" y2="-118.114" xlink:href="#b"/><linearGradient id="bh" x1="1.415" y1="-0.183" x2="-0.4" y2="1.124" xlink:href="#b"/><linearGradient id="bi" x1="1.833" y1="-0.791" x2="-3.169" y2="4.055" xlink:href="#a"/><linearGradient id="bj" x1="0" y1="0.5" x2="1" y2="0.5" xlink:href="#ar"/><linearGradient id="bk" x1="0.001" y1="0.5" x2="1.001" y2="0.5" xlink:href="#ar"/><linearGradient id="bl" x1="0" y1="0.5" x2="1" y2="0.5" xlink:href="#ar"/><linearGradient id="bn" x1="0.806" y1="-0.187" x2="0.367" y2="0.799" xlink:href="#ah"/><linearGradient id="bo" x1="0.981" y1="-5.205" x2="0.373" y2="1.979" xlink:href="#ah"/><linearGradient id="bp" x1="0.532" y1="0.121" x2="-0.05" y2="1.893" xlink:href="#l"/><linearGradient id="bq" x1="-0.281" y1="1.272" x2="0.902" y2="0.057" gradientUnits="objectBoundingBox"><stop offset="0" stop-color="#a22b25"/><stop offset="1" stop-color="#c0423c"/></linearGradient><linearGradient id="br" x1="92.092" y1="27.96" x2="95.62" y2="25.46" xlink:href="#bq"/><linearGradient id="bs" x1="0.1" y1="-2.381" x2="1.074" y2="4.341" xlink:href="#bq"/><linearGradient id="bt" x1="0.818" y1="-0.25" x2="-0.644" y2="4.215" xlink:href="#l"/><linearGradient id="bu" x1="0" y1="0.5" x2="1" y2="0.5" xlink:href="#bq"/><linearGradient id="bv" x1="2.152" y1="-1.333" x2="1.303" y2="-0.461" xlink:href="#bq"/><linearGradient id="bw" x1="0.854" y1="-0.5" x2="0.109" y2="1.93" xlink:href="#bq"/><linearGradient id="bx" x1="-50.855" y1="3.091" x2="-51.619" y2="1.779" xlink:href="#bq"/><linearGradient id="by" x1="-51.184" y1="-20.19" x2="-50.979" y2="-19.01" xlink:href="#ah"/><linearGradient id="bz" x1="-166.586" y1="13.167" x2="-169.074" y2="6.809" xlink:href="#bq"/><linearGradient id="ca" x1="4.29" y1="-3.171" x2="-0.712" y2="1.675" xlink:href="#a"/><linearGradient id="cb" x1="0" y1="0.5" x2="1" y2="0.5" xlink:href="#ar"/><linearGradient id="cc" x1="0" y1="0.5" x2="1" y2="0.5" xlink:href="#ar"/><linearGradient id="cd" x1="0" y1="0.5" x2="1" y2="0.5" xlink:href="#ah"/><linearGradient id="ce" x1="0.497" y1="-2.553" x2="0.504" y2="3.419" xlink:href="#ah"/><linearGradient id="cf" x1="0" y1="0.5" x2="1" y2="0.5" xlink:href="#ar"/><linearGradient id="ch" x1="-7.396" y1="-4.128" x2="-9.845" y2="1.102" xlink:href="#a"/><linearGradient id="ci" x1="-34.64" y1="-2.104" x2="-39.606" y2="5.438" xlink:href="#b"/><linearGradient id="cj" x1="-56.139" y1="-8.412" x2="-60.646" y2="0.997" xlink:href="#a"/><linearGradient id="ck" x1="-2.85" y1="-0.049" x2="-3.779" y2="2.047" xlink:href="#l"/><linearGradient id="cl" x1="-19.264" y1="-0.138" x2="-21.017" y2="1.017" xlink:href="#b"/><linearGradient id="cm" x1="-22.443" y1="0.257" x2="-24.427" y2="2.087" xlink:href="#b"/><linearGradient id="cn" x1="-24.958" y1="-0.223" x2="-25.776" y2="2.967" xlink:href="#b"/><linearGradient id="co" x1="6.552" y1="-0.46" x2="-2.276" y2="0.939" xlink:href="#b"/><linearGradient id="cp" x1="-25.161" y1="-12.046" x2="-24.254" y2="-12.046" xlink:href="#ah"/><linearGradient id="cq" x1="-106.129" y1="-61.274" x2="-103.671" y2="-63.923" xlink:href="#b"/><linearGradient id="cr" x1="44.281" y1="-7.535" x2="15.995" y2="-2.347" gradientUnits="objectBoundingBox"><stop offset="0" stop-color="#e1473d"/><stop offset="1" stop-color="#e9605a"/></linearGradient><linearGradient id="cs" x1="-17.776" y1="0.5" x2="-16.776" y2="0.5" xlink:href="#b"/><linearGradient id="ct" x1="0.583" y1="0.419" x2="-4.419" y2="5.265" xlink:href="#a"/><linearGradient id="cv" x1="0" y1="0.5" x2="1" y2="0.5" xlink:href="#ar"/><linearGradient id="cw" x1="0.001" y1="0.5" x2="1.001" y2="0.5" xlink:href="#ar"/><linearGradient id="cy" x1="0" y1="0.5" x2="1" y2="0.5" xlink:href="#ar"/><linearGradient id="cz" x1="0" y1="0.531" x2="1" y2="0.531" xlink:href="#ar"/><linearGradient id="db" x1="0.001" y1="0.418" x2="1.001" y2="0.418" xlink:href="#ar"/><linearGradient id="dc" x1="0" y1="0.474" x2="1" y2="0.474" xlink:href="#ar"/><linearGradient id="dd" x1="0" y1="0.576" x2="1.001" y2="0.576" xlink:href="#ar"/><linearGradient id="df" x1="0" y1="0.515" x2="1" y2="0.515" xlink:href="#ar"/><linearGradient id="dh" x1="0" y1="0.51" x2="1" y2="0.51" xlink:href="#ar"/><linearGradient id="di" x1="0" y1="0.5" x2="1" y2="0.5" xlink:href="#ar"/></defs><g transform="translate(-205.181 -121.917)"><g transform="translate(204.766 121.917)"><g transform="translate(0 0)"><g transform="translate(302.845 128.48)"><g transform="translate(0 12.942)"><path d="M2078.085,943.732a.184.184,0,0,1-.154-.1.177.177,0,0,1,.009-.18c.134-.18.266-.382.389-.578a.186.186,0,0,1,.246-.058.178.178,0,0,1,.059.243c-.127.2-.262.4-.4.594A.184.184,0,0,1,2078.085,943.732Z" transform="translate(-2056.731 -938.221)" fill="#7d97f4"/><path d="M1978.039,940.491a.18.18,0,1,1,0-.36,11.939,11.939,0,0,0,1.341-.121.186.186,0,0,1,.2.045.177.177,0,0,1,.032.2.184.184,0,0,1-.177.1,12.267,12.267,0,0,1-1.384.124Zm-2.217-.131h-.029a12.419,12.419,0,0,1-1.356-.288.183.183,0,0,1-.165-.122.178.178,0,0,1,.055-.2.187.187,0,0,1,.205-.021,12.074,12.074,0,0,0,1.318.281.18.18,0,0,1,.149.2.182.182,0,0,1-.182.146Zm5.733-.522a.182.182,0,0,1-.162-.149.179.179,0,0,1,.1-.193,11.834,11.834,0,0,0,1.24-.515.185.185,0,0,1,.207.1.178.178,0,0,1-.049.219,11.661,11.661,0,0,1-1.285.54.186.186,0,0,1-.061,0Zm-9.144-.54a.187.187,0,0,1-.081-.02,12.065,12.065,0,0,1-1.2-.677.178.178,0,0,1-.024-.226.185.185,0,0,1,.221-.069,11.206,11.206,0,0,0,1.167.657.178.178,0,0,1,.081.236.184.184,0,0,1-.165.1Zm12.294-1.128a.183.183,0,0,1-.161-.122.178.178,0,0,1,.053-.193l.128-.1c.312-.239.613-.5.9-.763a.186.186,0,0,1,.228.029.177.177,0,0,1,.02.224,11.962,11.962,0,0,1-.917.786l-.132.1a.187.187,0,0,1-.123.027Zm-15.212-.9a.185.185,0,0,1-.125-.05,11.666,11.666,0,0,1-.938-1,.178.178,0,0,1-.062-.192.185.185,0,0,1,.339-.031,11.566,11.566,0,0,0,.917.975.177.177,0,0,1,.036.19.183.183,0,0,1-.161.112Zm-2.16-2.8a.184.184,0,0,1-.158-.094,11.391,11.391,0,0,1-.587-1.234.18.18,0,0,1,.113-.2.186.186,0,0,1,.221.068,10.865,10.865,0,0,0,.569,1.2.178.178,0,0,1-.073.238.173.173,0,0,1-.092.016Z" transform="translate(-1965.834 -930.133)" fill="#7d97f4"/><path d="M1962.785,918.391a.183.183,0,0,1-.183-.142c-.044-.232-.083-.47-.112-.705a.182.182,0,0,1,.16-.162.184.184,0,0,1,.2.119c.029.229.064.459.108.684a.18.18,0,0,1-.143.205Z" transform="translate(-1962.49 -917.38)" fill="#7d97f4"/></g><path d="M1994.5,870.732l-1.389-1.152a7.643,7.643,0,0,0-.059-2.519l1.334-1.213a.141.141,0,0,0,.035-.166l-.881-1.958a.149.149,0,0,0-.149-.088l-1.811.149a7.865,7.865,0,0,0-1.859-1.74l.07-1.783a.148.148,0,0,0-.1-.142l-2.035-.774a.151.151,0,0,0-.167.043l-1.176,1.362a8.046,8.046,0,0,0-2.569.056l-1.235-1.308a.154.154,0,0,0-.171-.034l-2,.864a.147.147,0,0,0-.09.146l.152,1.778a7.834,7.834,0,0,0-1.775,1.821l-1.816-.068a.154.154,0,0,0-.147.094l-.789,2a.147.147,0,0,0,.044.166l1.389,1.152a7.59,7.59,0,0,0,.057,2.519l-1.334,1.213a.144.144,0,0,0-.035.166l.881,1.96a.151.151,0,0,0,.149.086l1.813-.149a7.883,7.883,0,0,0,1.857,1.74l-.07,1.783a.151.151,0,0,0,.1.142l2.035.774a.156.156,0,0,0,.169-.041l1.174-1.364a8.04,8.04,0,0,0,2.569-.056l1.237,1.308a.154.154,0,0,0,.171.034l2-.864a.145.145,0,0,0,.088-.146l-.15-1.778a7.826,7.826,0,0,0,1.772-1.821l1.818.068a.152.152,0,0,0,.145-.094l.789-2A.146.146,0,0,0,1994.5,870.732Z" transform="translate(-1973.421 -856.84)" fill="#7d97f4"/><path d="M2017.383,902.858a2.1,2.1,0,0,1-2.085-1.735,2.071,2.071,0,0,1,1.4-2.3,2.134,2.134,0,0,1,2.547.976,2.048,2.048,0,0,1-.562,2.624A2.138,2.138,0,0,1,2017.383,902.858Zm0-3.8a1.778,1.778,0,1,0,.22.014,1.827,1.827,0,0,0-.226-.014Z" transform="translate(-2005.584 -889.126)" fill="#91b3fa"/><g transform="translate(2.218)"><path d="M1974.756,869.224a.174.174,0,0,1-.106-.034.178.178,0,0,1-.039-.247c.145-.191.3-.378.453-.56a.187.187,0,0,1,.229.006.178.178,0,0,1,.044.221c-.15.18-.3.36-.439.54A.184.184,0,0,1,1974.756,869.224Z" transform="translate(-1974.578 -864.229)" fill="#7d97f4"/><path d="M2004.155,853.6a.183.183,0,0,1-.169-.121,11.5,11.5,0,0,0-.5-1.2.177.177,0,0,1-.015-.2.185.185,0,0,1,.187-.087.182.182,0,0,1,.151.138,11.3,11.3,0,0,1,.516,1.243.179.179,0,0,1-.114.221A.161.161,0,0,1,2004.155,853.6Zm-1.624-3.059a.185.185,0,0,1-.145-.072c-.075-.1-.152-.2-.229-.3-.194-.243-.4-.48-.611-.705a.177.177,0,0,1,.035-.223.186.186,0,0,1,.229-.015c.216.232.429.477.628.72.083.1.161.205.239.308a.178.178,0,0,1-.04.247.173.173,0,0,1-.1.036Zm-16.852-2.136a.185.185,0,0,1-.14-.065.178.178,0,0,1,.026-.247c.066-.054.132-.106.2-.157.292-.223.6-.435.906-.63a.186.186,0,0,1,.208-.044.179.179,0,0,1-.024.339,9.454,9.454,0,0,0-.879.612l-.194.151a.187.187,0,0,1-.1.034Zm14.375-.32a.187.187,0,0,1-.106-.034,11.406,11.406,0,0,0-1.1-.72.179.179,0,0,1-.018-.332.187.187,0,0,1,.2.028,12.157,12.157,0,0,1,1.143.736.178.178,0,0,1,.055.194.183.183,0,0,1-.163.122Zm-11.342-1.451a.182.182,0,0,1-.162-.144.179.179,0,0,1,.095-.194,11.832,11.832,0,0,1,1.3-.428.183.183,0,0,1,.189.132.179.179,0,0,1-.094.208,11.384,11.384,0,0,0-1.257.414A.171.171,0,0,1,1988.712,846.637Zm8.235-.18a.229.229,0,0,1-.061,0,11.524,11.524,0,0,0-1.273-.36.179.179,0,0,1-.1-.2.183.183,0,0,1,.182-.14,12.566,12.566,0,0,1,1.314.36.179.179,0,0,1,.11.225.183.183,0,0,1-.171.119Zm-4.808-.61a.179.179,0,0,1-.015-.351c.312-.023.628-.036.939-.036h.424a.175.175,0,1,1-.011.349h-.415c-.3,0-.609.013-.917.036Z" transform="translate(-1983.497 -845.46)" fill="#7d97f4"/><path d="M2089.174,901.424a.182.182,0,0,1-.184-.162c-.018-.23-.044-.461-.077-.687a.181.181,0,0,1,.152-.2.183.183,0,0,1,.2.151c.035.234.061.471.079.709a.181.181,0,0,1-.163.189Z" transform="translate(-2067.932 -890.492)" fill="#7d97f4"/></g><path d="M2002.325,891.175a5.411,5.411,0,0,1-5.4-4.6,5.339,5.339,0,0,1,3.9-5.876,5.477,5.477,0,0,1,6.472,2.979c.053.119.1.238.147.36a5.363,5.363,0,0,1,.184.637.369.369,0,0,0,.02.088.221.221,0,0,1,0,.036.184.184,0,0,1-.356.034,4.882,4.882,0,0,0-.33-1.011h0a5.127,5.127,0,0,0-6.606-2.593l-.051.022-.048.02a4.957,4.957,0,0,0,.688,9.365,5.14,5.14,0,0,0,5.517-1.915.186.186,0,0,1,.2-.057.181.181,0,0,1,.128.158.178.178,0,0,1-.033.1,5.474,5.474,0,0,1-4.437,2.253Z" transform="translate(-1990.564 -874.191)" fill="#91b3fa"/></g><g transform="translate(50.041 24.04)"><path d="M108.406.093C168.277.145,216.857,53.6,216.913,119.5S168.479,238.768,108.608,238.716.157,185.205.1,119.311,48.535.042,108.406.093Z" transform="translate(0 216.596) rotate(-87.49)" fill="url(#a)"/><g transform="translate(23.974 18.876)" opacity="0.22"><ellipse cx="93.626" cy="86.736" rx="93.626" ry="86.736" fill="#91b3fa"/></g><g transform="translate(15.549 7.834)" opacity="0.68"><path d="M1155.272,417.486a321.108,321.108,0,0,1-4.8,57.125c-.87,4.709-1.879,9.4-3.079,14.036a133.031,133.031,0,0,1-4.3,13.734,64.107,64.107,0,0,1-6.422,12.946,25.935,25.935,0,0,1-4.815,5.506,13.681,13.681,0,0,1-3.151,1.992,9.607,9.607,0,0,1-3.67.851,9.469,9.469,0,0,1-3.721-.671,12.957,12.957,0,0,1-3.224-1.882,24.715,24.715,0,0,1-4.919-5.422,62.426,62.426,0,0,1-6.507-12.9,130.56,130.56,0,0,1-4.347-13.719c-1.213-4.639-2.231-9.321-3.108-14.036-1.751-9.415-2.936-18.922-3.749-28.454s-1.2-19.1-1.25-28.662c-.024-4.783.108-9.564.283-14.342s.45-9.554.809-14.322c.721-9.537,1.8-19.051,3.4-28.488.8-4.718,1.74-9.415,2.866-14.07a133.623,133.623,0,0,1,4.072-13.79c.82-2.257,1.714-4.488,2.736-6.669a48.451,48.451,0,0,1,3.5-6.327,23.719,23.719,0,0,1,4.811-5.454,12.329,12.329,0,0,1,3.173-1.862,9.136,9.136,0,0,1,3.67-.63,9.852,9.852,0,0,1,3.613.83,14.192,14.192,0,0,1,3.141,1.924,26.437,26.437,0,0,1,4.916,5.361,64.236,64.236,0,0,1,6.74,12.749,128.611,128.611,0,0,1,4.62,13.622c1.3,4.612,2.4,9.276,3.356,13.968A294.648,294.648,0,0,1,1155.272,417.486Zm-1.442,0c.018-9.527-.35-19.055-1.158-28.549a272.943,272.943,0,0,0-3.8-28.319c-.9-4.679-1.941-9.334-3.185-13.935a127.921,127.921,0,0,0-4.441-13.586,63.386,63.386,0,0,0-6.531-12.692,25.913,25.913,0,0,0-4.754-5.307,13.665,13.665,0,0,0-3.013-1.889,9.155,9.155,0,0,0-3.441-.824,8.613,8.613,0,0,0-3.47.641,11.877,11.877,0,0,0-3.041,1.828,23.244,23.244,0,0,0-4.641,5.384,48.055,48.055,0,0,0-3.386,6.284c-.985,2.159-1.85,4.393-2.637,6.64a132.3,132.3,0,0,0-3.894,13.75c-1.07,4.645-1.951,9.33-2.7,14.036-1.49,9.415-2.457,18.906-3.07,28.414s-.833,19.042-.815,28.571q-.038,14.29,1.02,28.554c.734,9.5,1.835,18.974,3.51,28.355.837,4.691,1.813,9.357,2.982,13.975a129.608,129.608,0,0,0,4.206,13.647,61.735,61.735,0,0,0,6.309,12.76,23.924,23.924,0,0,0,4.707,5.274,12.119,12.119,0,0,0,3.011,1.8,8.415,8.415,0,0,0,3.4.635,8.773,8.773,0,0,0,3.371-.808,12.953,12.953,0,0,0,2.949-1.9,25.018,25.018,0,0,0,4.611-5.366,63.694,63.694,0,0,0,6.215-12.809,132.221,132.221,0,0,0,4.156-13.662c1.156-4.621,2.121-9.289,2.949-13.98,1.652-9.384,2.753-18.861,3.487-28.358s1.086-19.037,1.083-28.565Z" transform="translate(-1016.279 -311.364)" fill="#fff"/><path d="M957.576,414.732a136.84,136.84,0,0,1-5.043,36.5,116.37,116.37,0,0,1-15.572,33.471,97.084,97.084,0,0,1-11.894,14.284,83.239,83.239,0,0,1-14.643,11.558,71.131,71.131,0,0,1-17.084,7.66,65.107,65.107,0,0,1-37.147.016,71.246,71.246,0,0,1-17.1-7.648,83.255,83.255,0,0,1-14.663-11.551,96.809,96.809,0,0,1-11.916-14.281A116.613,116.613,0,0,1,796.9,451.26a130.045,130.045,0,0,1-3.78-18.1,133.446,133.446,0,0,1,.011-36.863,130.207,130.207,0,0,1,3.793-18.092,116.882,116.882,0,0,1,15.636-33.471A96.8,96.8,0,0,1,824.49,330.47a82.946,82.946,0,0,1,14.658-11.531,71.656,71.656,0,0,1,17.084-7.619,64.637,64.637,0,0,1,37.089.014,71.5,71.5,0,0,1,17.065,7.633,82.859,82.859,0,0,1,14.638,11.538,96.778,96.778,0,0,1,11.9,14.268,116.551,116.551,0,0,1,15.6,33.451A137.071,137.071,0,0,1,957.576,414.732Zm-1.651,0a135.308,135.308,0,0,0-4.841-36.107,115.363,115.363,0,0,0-15.078-33.244,95.783,95.783,0,0,0-11.625-14.243A80.919,80.919,0,0,0,910,319.576a70.078,70.078,0,0,0-16.867-7.646,63.026,63.026,0,0,0-36.72.014,70.091,70.091,0,0,0-16.852,7.659,80.853,80.853,0,0,0-14.36,11.573,95.652,95.652,0,0,0-11.6,14.245,116.042,116.042,0,0,0-15.047,33.231,131.254,131.254,0,0,0-3.615,17.885,136.457,136.457,0,0,0,.011,36.389,131.237,131.237,0,0,0,3.63,17.88,115.671,115.671,0,0,0,15.058,33.208,95.437,95.437,0,0,0,11.6,14.229,80.858,80.858,0,0,0,14.355,11.551,70.362,70.362,0,0,0,16.84,7.632,62.579,62.579,0,0,0,36.663.016,70.4,70.4,0,0,0,16.852-7.619,80.758,80.758,0,0,0,14.375-11.542,95.475,95.475,0,0,0,11.626-14.227,115.816,115.816,0,0,0,15.1-33.221A134.5,134.5,0,0,0,955.924,414.732Z" transform="translate(-769.406 -308.61)" fill="#fff"/><path d="M716.668,663.01l24.868-.2L766.4,662.7l49.728-.09,49.728.1,24.868.122,24.884.209a.073.073,0,0,1,.051.021.074.074,0,0,1,0,.1.073.073,0,0,1-.051.021l-24.868.216-24.868.122-49.728.1-49.728-.09-24.868-.112-24.884-.2a.106.106,0,1,1,0-.212Z" transform="translate(-707.931 -598.908)" fill="#fff"/><path d="M873.9,436.028c5.885-.092,11.771-.13,17.656-.2l17.654-.112c5.887-.049,11.771-.043,17.656-.058l17.656-.032,35.31.1,17.654.121c5.887.074,11.771.115,17.656.214a.072.072,0,0,1,0,.142c-5.885.1-11.769.14-17.656.212l-17.654.122-35.31.1-17.656-.032c-5.885-.014-11.77-.009-17.656-.058l-17.654-.112c-5.885-.067-11.771-.106-17.656-.2a.109.109,0,0,1-.106-.11A.107.107,0,0,1,873.9,436.028Z" transform="translate(-836.31 -412.773)" fill="#fff"/><path d="M669.633,890l27.027-.2,27.029-.112,54.057-.09,54.057.1,27.027.122,27.029.212a.072.072,0,0,1,0,.142l-27.029.216-27.027.121-54.057.1-54.057-.09-27.029-.112-27.027-.2a.108.108,0,0,1,0-.214Z" transform="translate(-669.537 -785.051)" fill="#fff"/><path d="M716.668,1116.98l24.868-.2,24.868-.112,49.728-.09,49.728.1,24.868.121,24.868.212a.073.073,0,0,1,.072.074.071.071,0,0,1-.072.07l-24.851.218-24.868.122-49.728.1-49.728-.09-24.868-.112-24.884-.2a.111.111,0,0,1-.108-.108.109.109,0,0,1,.108-.108Z" transform="translate(-707.931 -971.186)" fill="#fff"/><path d="M1033.314,1345.048H892.072a.374.374,0,1,1,0-.749h141.242a.374.374,0,1,1,0,.749Z" transform="translate(-850.926 -1157.927)" fill="#fff"/></g><g transform="translate(64.659 109.324)"><g transform="translate(22.831 2.164)"><path d="M1067.184,916.073h-2.848c-.5,0-.917-.237-.917-.54l-.87-19.014c-.013-.306.406-.56.917-.56h3.718c.512,0,.918.245.918.54v19.012C1068.111,915.828,1067.7,916.073,1067.184,916.073Z" transform="translate(-1062.372 -893.92)" fill="url(#b)"/><path d="M1061.59,885.17l.033.25c.031.238.354.423.756.435l4.107.124c.457.014.84-.2.84-.471v-.378c0-.254-.338-.463-.765-.473-1.024-.025-2.866-.056-4.231,0C1061.887,884.682,1061.557,884.909,1061.59,885.17Z" transform="translate(-1061.588 -884.626)" fill="url(#c)"/></g><g transform="translate(15.059)"><path d="M1024.826,906.208h-2.85c-.5,0-.917-.238-.917-.54l-.87-21.178c-.013-.306.406-.56.917-.56h3.72c.51,0,.917.245.917.54v21.176C1025.751,905.963,1025.336,906.208,1024.826,906.208Z" transform="translate(-1020.014 -881.891)" fill="url(#d)"/><path d="M1019.239,873.142l.031.25c.031.237.356.423.756.435l4.107.124c.457.014.84-.2.84-.471V873.1c0-.254-.338-.461-.765-.471-1.024-.027-2.866-.058-4.232,0C1019.536,872.654,1019.2,872.881,1019.239,873.142Z" transform="translate(-1019.236 -872.598)" fill="url(#e)"/></g><g transform="translate(31.188 7.666)"><path d="M1112.18,941.216h-2.848c-.5,0-.917-.238-.917-.54l-.336-13.5c-.013-.308.406-.56.917-.56h3.72c.51,0,.917.245.917.54l-.536,13.505C1113.1,940.971,1112.692,941.216,1112.18,941.216Z" transform="translate(-1107.905 -924.565)" fill="url(#f)"/><path d="M1107.134,915.75l.031.252c.031.236.356.423.756.434l4.107.126c.457.013.84-.2.84-.472V915.7c0-.252-.338-.461-.765-.471-1.024-.025-2.866-.058-4.231,0C1107.431,915.264,1107.108,915.489,1107.134,915.75Z" transform="translate(-1107.132 -915.201)" fill="url(#g)"/></g><g transform="translate(0 2.164)"><path d="M942.764,916.073h-2.848c-.5,0-.918-.237-.918-.54l-.87-19.014c-.013-.306.406-.56.917-.56h3.718c.512,0,.918.245.918.54v19.012C943.689,915.828,943.276,916.073,942.764,916.073Z" transform="translate(-937.952 -893.92)" fill="url(#h)"/><path d="M937.17,885.17l.033.25c.031.238.354.423.756.435l4.107.124c.457.014.839-.2.839-.471v-.378c0-.254-.336-.463-.765-.473-1.022-.025-2.864-.056-4.22,0C937.467,884.682,937.137,884.909,937.17,885.17Z" transform="translate(-937.168 -884.626)" fill="url(#i)"/></g><g transform="translate(8.355 7.666)"><path d="M987.758,941.216H984.91c-.5,0-.917-.238-.917-.54l-.334-13.5c-.013-.308.406-.56.917-.56h3.718c.512,0,.927.245.927.54l-.536,13.505C988.685,940.971,988.27,941.216,987.758,941.216Z" transform="translate(-983.482 -924.565)" fill="url(#j)"/><path d="M982.7,915.75l.033.252c.031.236.354.423.756.434l4.107.126c.457.013.84-.2.84-.472V915.7c0-.252-.338-.461-.765-.471-1.024-.025-2.866-.058-4.231,0C983,915.264,982.667,915.489,982.7,915.75Z" transform="translate(-982.698 -915.201)" fill="url(#k)"/></g></g><g transform="translate(115.132 76.217)"><g opacity="0.53"><rect width="3.398" height="58.79" fill="#fff"/><rect width="3.398" height="58.79" transform="translate(5.679)" fill="#fff"/><rect width="3.398" height="58.79" transform="translate(11.359)" fill="#fff"/><rect width="3.398" height="58.79" transform="translate(17.038)" fill="#fff"/><rect width="3.398" height="58.79" transform="translate(22.717)" fill="#fff"/><rect width="3.398" height="58.79" transform="translate(28.396)" fill="#fff"/><rect width="3.398" height="58.79" transform="translate(34.076)" fill="#fff"/></g><rect width="3.398" height="30.766" transform="translate(0 28.024)" fill="url(#l)"/><rect width="3.398" height="20.192" transform="translate(5.679 38.597)" fill="url(#m)"/><rect width="3.398" height="46.326" transform="translate(11.359 12.463)" fill="url(#n)"/><rect width="3.398" height="11.13" transform="translate(17.038 47.662)" fill="url(#o)"/><rect width="3.398" height="40.132" transform="translate(22.717 18.657)" fill="url(#p)"/><rect width="3.398" height="33.185" transform="translate(28.396 25.607)" fill="url(#q)"/><rect width="3.398" height="25.63" transform="translate(34.076 33.159)" fill="url(#r)"/></g><g transform="translate(115.951 48.99)"><path d="M1224.948,537.32a8.1,8.1,0,1,0,8.257,8.1A8.179,8.179,0,0,0,1224.948,537.32Zm0,12.71a4.615,4.615,0,1,1,4.7-4.612,4.567,4.567,0,0,1-1.375,3.268,4.75,4.75,0,0,1-3.33,1.353Z" transform="translate(-1216.69 -537.32)" fill="#fff" opacity="0.57"/><g clip-path="url(#s)"><rect width="24.526" height="10.18" transform="translate(-3.274 6.316)" fill="url(#t)"/></g><g transform="translate(20.128)"><path d="M1334.637,537.32a8.1,8.1,0,1,0,8.257,8.1A8.179,8.179,0,0,0,1334.637,537.32Zm0,12.71a4.615,4.615,0,1,1,4.7-4.612,4.567,4.567,0,0,1-1.374,3.267,4.75,4.75,0,0,1-3.328,1.355Z" transform="translate(-1326.38 -537.32)" fill="#fff" opacity="0.57"/><g clip-path="url(#u)"><rect width="24.526" height="14.113" transform="translate(-3.274 2.383)" fill="url(#v)"/></g></g><g transform="translate(40.256)"><path d="M1444.327,537.32a8.1,8.1,0,1,0,8.257,8.1A8.179,8.179,0,0,0,1444.327,537.32Zm0,12.71a4.615,4.615,0,1,1,4.7-4.612,4.567,4.567,0,0,1-1.375,3.268,4.75,4.75,0,0,1-3.33,1.353Z" transform="translate(-1436.07 -537.32)" fill="#fff" opacity="0.57"/><g clip-path="url(#w)"><rect width="24.526" height="5.089" transform="translate(-3.274 11.405)" fill="url(#x)"/></g></g></g><g transform="translate(157.032 82.686)"><g transform="translate(0.028 21.175)"><ellipse cx="6.718" cy="6.588" rx="6.718" ry="6.588" fill="#bdd0fb"/><path d="M1457.3,854.243a4.18,4.18,0,0,1-1.261,4.886,4.384,4.384,0,0,1-5.134.239,4.191,4.191,0,0,1-1.727-4.747,4.306,4.306,0,0,1,4.128-3h.218v-1.08h-.218a5.392,5.392,0,0,0-5.167,3.766,5.248,5.248,0,0,0,2.174,5.943,5.489,5.489,0,0,0,6.43-.315,5.233,5.233,0,0,0,1.56-6.125Z" transform="translate(-1446.589 -849.046)" fill="url(#y)"/><path d="M1453.378,931h-10.949a1.221,1.221,0,0,0,0,2.442h10.949a1.221,1.221,0,0,0,0-2.442Z" transform="translate(-1441.137 -915.028)" fill="#fff" opacity="0.5"/></g><ellipse cx="6.718" cy="6.588" rx="6.718" ry="6.588" fill="#bdd0fb"/><path d="M1455.314,741.753a4.385,4.385,0,0,1-4.989-.27,4.182,4.182,0,0,1-1.385-4.708,4.311,4.311,0,0,1,4.075-2.835h.219v-1.08h-.219a5.4,5.4,0,0,0-5.1,3.54,5.241,5.241,0,0,0,1.707,5.9,5.5,5.5,0,0,0,6.238.383Z" transform="translate(-1446.313 -731.368)" fill="url(#z)"/><path d="M1453.331,813.3h-10.947a1.22,1.22,0,1,0,0,2.44h10.947a1.22,1.22,0,1,0,0-2.44Z" transform="translate(-1441.035 -797.333)" fill="#fff" opacity="0.5"/><g transform="translate(0.051 42.459)"><ellipse cx="6.718" cy="6.588" rx="6.718" ry="6.588" fill="#bdd0fb"/><path d="M1457.473,975.3a4.365,4.365,0,0,1-5.245,1.521,4.215,4.215,0,0,1-2.554-4.743,4.3,4.3,0,0,1,4.239-3.39h.217v-1.08h-.217a5.385,5.385,0,0,0-5.3,4.244,5.282,5.282,0,0,0,3.184,5.943,5.471,5.471,0,0,0,6.573-1.875Z" transform="translate(-1447.097 -966.334)" fill="url(#aa)"/><path d="M1442.094,1050.49h10.949a1.22,1.22,0,1,0,0-2.44h-10.949a1.22,1.22,0,1,0,0,2.44Z" transform="translate(-1440.85 -1032.299)" fill="#fff" opacity="0.5"/></g></g><g transform="translate(101.552 147.632)"><path d="M1212.813,1085.66l32.279-.18a1.7,1.7,0,0,1,1.489.837,1.633,1.633,0,0,1-.021,1.683l-.161.265a1.7,1.7,0,0,1-1.453.806h-32.112a1.679,1.679,0,0,1-1.694-1.663v-.088A1.677,1.677,0,0,1,1212.813,1085.66Z" transform="translate(-1197.76 -1085.479)" fill="#7d97f4"/><path d="M1148.77,1088.351v.05a1.679,1.679,0,0,1-1.694,1.663h-7.156a1.687,1.687,0,0,1-1.637-1.233h0a1.636,1.636,0,0,1,.289-1.437,1.706,1.706,0,0,1,1.335-.655l7.166-.05a1.711,1.711,0,0,1,1.2.485A1.645,1.645,0,0,1,1148.77,1088.351Z" transform="translate(-1138.225 -1086.472)" fill="#7d97f4"/><g transform="translate(7.762 5.965)"><path d="M1255.084,1118.81l24.513-.18a1.7,1.7,0,0,1,1.489.837,1.634,1.634,0,0,1-.021,1.682l-.161.265a1.7,1.7,0,0,1-1.453.806h-24.357a1.678,1.678,0,0,1-1.694-1.661v-.088a1.675,1.675,0,0,1,1.685-1.661Z" transform="translate(-1240.028 -1118.63)" fill="#7d97f4"/><path d="M1191.074,1121.491v.052a1.679,1.679,0,0,1-1.7,1.661h-7.156a1.688,1.688,0,0,1-1.637-1.233h0a1.636,1.636,0,0,1,.289-1.435,1.706,1.706,0,0,1,1.335-.654l7.156-.052a1.713,1.713,0,0,1,1.207.482A1.647,1.647,0,0,1,1191.074,1121.491Z" transform="translate(-1180.528 -1119.614)" fill="#7d97f4"/></g></g><g transform="translate(105.038 170.663)"><g transform="translate(21.915)"><path d="M1286.775,1233.323a9.931,9.931,0,1,1,0-19.859h15.981a9.931,9.931,0,1,1,0,19.858Zm0-14.936a5.009,5.009,0,1,0,0,10.016h15.981a5.009,5.009,0,1,0,0-10.016Z" transform="translate(-1276.65 -1213.465)" fill="url(#ab)"/><path d="M1305.949,1235.826h-15.981a9.227,9.227,0,1,1,0-18.451h15.981a9.227,9.227,0,1,1,0,18.451Zm-15.981-14.936a5.712,5.712,0,1,0,0,11.422h15.981a5.712,5.712,0,1,0,0-11.422Z" transform="translate(-1279.842 -1216.672)" fill="url(#ac)"/></g><path d="M1167.345,1233.323a9.931,9.931,0,1,1,0-19.859h15.981a9.931,9.931,0,1,1,0,19.858Zm0-14.936a5.009,5.009,0,1,0,0,10.016h15.981a5.009,5.009,0,1,0,0-10.016Z" transform="translate(-1157.22 -1213.465)" fill="url(#ad)"/><path d="M1186.519,1235.826h-15.981a9.227,9.227,0,1,1,0-18.451h15.981a9.227,9.227,0,1,1,0,18.451Zm-15.981-14.936a5.712,5.712,0,1,0,0,11.422h15.981a5.712,5.712,0,1,0,0-11.422Z" transform="translate(-1160.412 -1216.672)" fill="url(#ae)"/><g transform="translate(23.095 12.986)"><path d="M1292.026,1292.5a10.21,10.21,0,0,1-8.946-5.229l1.042.333,3.965-.871-.053-1.1a5.116,5.116,0,0,0,3.991,1.952h8.9l-.917,4.92Z" transform="translate(-1283.08 -1285.63)" fill="url(#af)"/><path d="M1294.826,1290.228a5.872,5.872,0,0,1-4.556-2.228l-3.76.88a9.477,9.477,0,0,0,8.314,4.859h8.67l.33-3.514Z" transform="translate(-1285.881 -1287.573)" fill="url(#ag)"/></g></g></g><g transform="translate(4.882 30.195)"><path d="M536.009,504.248l20.957,51.687a6.257,6.257,0,0,0,6.69,3.8l54.958-3.77-19.8-55.173a3.5,3.5,0,0,0-3.353-2.213c-9.635.218-44.729,1.067-57.284,2.159a2.608,2.608,0,0,0-1.991,1.218A2.508,2.508,0,0,0,536.009,504.248Z" transform="translate(-499.642 -462.712)" fill="url(#ah)"/><path d="M583.764,568.821l-20.939-52.153a1.593,1.593,0,0,1,.159-1.5,1.66,1.66,0,0,1,1.348-.722l51.746-1.927a3.144,3.144,0,0,1,3.041,1.952l18.955,50.838Z" transform="translate(-521.601 -474.146)" fill="url(#ai)"/><path d="M742.268,816.182a1.761,1.761,0,0,1-1.778,1.744h-72.28a2.728,2.728,0,0,1-1.912-.776,2.623,2.623,0,0,1-.791-1.875l-1.138-1.3,75.051-.63a2.86,2.86,0,0,1,2.85,2.832Z" transform="translate(-604.61 -720.843)" fill="url(#aj)"/><g transform="translate(36.812)"><path d="M611.138,344.148c-1.5-2.438-4.114-4.04-5.688-6.428a11.48,11.48,0,0,1-.754-10.349c1.081-2.78,3-5.183,4.1-7.957,1.483-3.732,1.51-5.337.835-9.086-.595-3.3-1.9-6.816-5.116-8.711a19.51,19.51,0,0,0-13.408-1.938,25.08,25.08,0,0,0-12.775,6.151,17.56,17.56,0,0,0-5.657,12.654c.039,3.207,1.086,6.512.044,9.548a7.582,7.582,0,0,1-5.393,4.814c-2.74.63-5.589-.293-8.4-.257a12.365,12.365,0,0,0-7.685,2.829,9.95,9.95,0,0,0-3.6,6.19,7.4,7.4,0,0,0,2.42,6.583c1.284,1.08,3.1,1.8,3.576,3.4.532,1.787-1.029,3.581-2.771,4.306s-3.7.786-5.472,1.44c-3.965,1.452-6.367,5.852-6.055,10.005s2.98,7.918,6.481,10.257a25.042,25.042,0,0,0,11.968,3.72,101.793,101.793,0,0,0,12.68-.18c4.833-.225,9.762-.286,14.346-1.812,4.635-1.544,8.639-4.5,12.373-7.61,1.767-1.474,3.562-3.086,4.354-5.229.576-1.555.578-3.284,1.24-4.806,1.422-3.266,5.364-4.655,7.645-7.41A8.939,8.939,0,0,0,611.138,344.148Z" transform="translate(-539.312 -299.281)" fill="url(#ak)"/><path d="M813.411,523.875a19.94,19.94,0,0,0-19.317,4.5,4.788,4.788,0,0,0-1.5,4.8c2.018,7.768,6.1,32.641.985,42.447,0,0,1.6-.013,19.416.18,0,0,4.575-18.2,10.305-26.132,3.956-5.476-5.822-20.889-8.3-24.614A2.969,2.969,0,0,0,813.411,523.875Z" transform="translate(-745.992 -482.765)" fill="#bdd0fb"/><path d="M843.149,441.65S838.7,453.4,838.29,458.6a9.254,9.254,0,0,0,9.175-1.3s.659-11.79,1.365-13.892Z" transform="translate(-783.428 -416.031)" fill="url(#al)"/><path d="M848.034,352.1s10.887,15.461,4.156,19.795-14.482-6.658-14.482-6.658-2.446-8.407.3-11.2S848.034,352.1,848.034,352.1Z" transform="translate(-782.135 -342.489)" fill="url(#am)"/><path d="M829.4,330.831s5.1,1.27,5.778,3.55-7.329,4.261-9.571,4.33l-1.951,9.134s-5.18-8.7-2.991-13.647S829.4,330.831,829.4,330.831Z" transform="translate(-768.601 -324.957)" fill="url(#an)"/><path d="M825.629,406.568s-4.253-4.992-6.032-1.81,3.809,5.681,5.784,4.139Z" transform="translate(-767.884 -384.908)" fill="url(#ao)"/><path d="M715.905,557.086s-13.779,10.873-17.41,25.969,19.6,17.074,19.6,17.074,3.215-3.406,6.942-2.114.389-6.028-4-6.079-2.395,3.381-8.56.529c-6-2.78-9.6-11.143,6.026-23.483a6.866,6.866,0,0,0,2.083-2.687C723.7,558.947,721.4,554.063,715.905,557.086Z" transform="translate(-668.971 -509.949)" fill="url(#ap)"/></g><g transform="translate(0 42.923)"><path d="M30.224.3A30.947,30.947,0,0,1,60.744,30.814,29.522,29.522,0,0,1,30.814,60.744,30.947,30.947,0,0,1,.3,30.224,29.522,29.522,0,0,1,30.224.3Z" transform="translate(0 42.327) rotate(-45)" fill="url(#aq)"/><path d="M419.039,747.743h-.018a.344.344,0,0,1-.24-.113.33.33,0,0,1-.085-.247,27.494,27.494,0,0,1,.422-3.509.339.339,0,0,1,.219-.279.35.35,0,0,1,.353.063.334.334,0,0,1,.1.337,26.788,26.788,0,0,0-.4,3.428A.342.342,0,0,1,419.039,747.743Z" transform="translate(-404.015 -706.545)" fill="#bdd0fb"/><path d="M435.212,633.433a.343.343,0,0,1-.156-.036.339.339,0,0,1-.172-.2.331.331,0,0,1,.02-.258,28.733,28.733,0,0,1,30.618-14.936.339.339,0,0,1,.278.393.345.345,0,0,1-.4.273,28.693,28.693,0,0,0-5.021-.443,27.894,27.894,0,0,0-24.86,15.01A.342.342,0,0,1,435.212,633.433Z" transform="translate(-417.22 -603.203)" fill="#bdd0fb"/><path d="M25.581.25A26.193,26.193,0,0,1,51.412,26.081,24.987,24.987,0,0,1,26.081,51.412,26.193,26.193,0,0,1,.25,25.581,24.987,24.987,0,0,1,25.581.25Z" transform="translate(7.293 42.978) rotate(-45)" fill="#7d97f4"/><g transform="translate(28.741 28.82)"><g transform="translate(8.269 5.726)"><path d="M563.312,761.019H544.971a.865.865,0,0,1,0-1.729h18.341a.865.865,0,0,1,0,1.729Z" transform="translate(-543.443 -753.98)" fill="url(#ar)"/><g transform="translate(6.386 0.432)"><path d="M576.073,750.395c-.488,0-.883-.637-.883-1.423V733.6c0-.786.395-1.423.883-1.423s.881.637.881,1.423v15.368C576.959,749.758,576.564,750.395,576.073,750.395Z" transform="translate(-575.19 -732.18)" fill="url(#as)"/><path d="M612.623,750.395c-.488,0-.883-.637-.883-1.423V733.6c0-.786.395-1.423.883-1.423s.881.637.881,1.423v15.368C613.5,749.758,613.109,750.395,612.623,750.395Z" transform="translate(-605.033 -732.18)" fill="url(#at)"/></g><path d="M562.6,794.629H544.925a.892.892,0,0,1-.842-.4.855.855,0,0,1,0-.92.892.892,0,0,1,.842-.4H562.6a.892.892,0,0,1,.842.4.855.855,0,0,1,0,.92A.892.892,0,0,1,562.6,794.629Z" transform="translate(-543.296 -781.537)" fill="url(#au)"/><path d="M560.687,748.779H541.348a.951.951,0,0,1-.958-.941V730.719a.949.949,0,0,1,.958-.939h19.339a.951.951,0,0,1,.96.939v17.117a.932.932,0,0,1-.28.667A.969.969,0,0,1,560.687,748.779Zm-18.379-1.88h17.414V731.661H542.308Z" transform="translate(-540.39 -729.78)" fill="url(#av)"/></g><path d="M504.555,722.685h-8.268a.972.972,0,0,1-.708-.31.933.933,0,0,1-.246-.721l2.237-22.843a.953.953,0,0,1,.954-.851h3.995a.953.953,0,0,1,.956.858l2.037,22.845a.932.932,0,0,1-.25.717A.971.971,0,0,1,504.555,722.685Zm-7.213-1.88h6.167l-1.87-20.964h-2.244Z" transform="translate(-495.328 -697.96)" fill="url(#at)"/></g></g></g><g transform="translate(220.742 142.028)"><path d="M1516.22,1047.715a.737.737,0,0,1,.737-.4.729.729,0,0,1,.635.543c.666,2.35,2.277,6.451,5.659,7.918.171.072.332.147.488.221a1.657,1.657,0,0,0-.213-1.524c-1.052-1.576.848-3.729.848-3.729a4.757,4.757,0,0,0,1.595,3.09,4.551,4.551,0,0,1,1.007,5.192c-1.835,6.971-4.571,16.2,6.1,22.927s25.71-12.712,25.71-12.712l-7.461,23.181s-11.511,8.341-24.906-3.379-4.516-28.774-4.516-28.774S1511.68,1056.226,1516.22,1047.715Z" transform="translate(-1515.058 -1024.535)" fill="url(#ax)"/><path d="M1550.809,1180.522a17.179,17.179,0,0,1-6.327-6.467,18.674,18.674,0,0,1-7.6.873,20.99,20.99,0,0,0,7.193,12.776c13.537,11.859,25.174,3.419,25.174,3.419l7.542-23.473S1561.6,1187.339,1550.809,1180.522Z" transform="translate(-1532.876 -1123.22)" fill="#91b3fa"/><g transform="translate(2.245 40.866)"><path d="M1717.806,1153.705l-21.653,53.393a6.469,6.469,0,0,1-6.912,3.923l-56.771-4.11,20.449-56.78a3.617,3.617,0,0,1,3.464-2.285c9.953.225,46.2,1.1,59.174,2.235a2.693,2.693,0,0,1,2.058,1.255A2.591,2.591,0,0,1,1717.806,1153.705Z" transform="translate(-1613.17 -1147.845)" fill="url(#ay)"/><path d="M1702.63,1220.408l21.631-53.872a1.655,1.655,0,0,0-.168-1.545,1.724,1.724,0,0,0-1.388-.751l-53.462-1.99a3.245,3.245,0,0,0-3.141,2.017l-19.581,52.517Z" transform="translate(-1624.642 -1159.656)" fill="url(#az)"/><path d="M1527.29,1475.928a1.817,1.817,0,0,0,1.835,1.8h74.665a2.764,2.764,0,0,0,2.793-2.737l1.174-1.339-77.524-.651a2.952,2.952,0,0,0-2.936,2.926Z" transform="translate(-1527.29 -1414.488)" fill="url(#ba)"/><path d="M1983.386,1205.514a.341.341,0,0,0,.321-.216l.328-.833c2.138-5.447,4.56-11.621,5.7-14.479a2.214,2.214,0,0,0-.243-2.089,2.308,2.308,0,0,0-1.9-.981h-9.4a.347.347,0,0,0-.32.161.332.332,0,0,0,0,.352.347.347,0,0,0,.32.161h9.4a1.615,1.615,0,0,1,1.328.686,1.548,1.548,0,0,1,.17,1.463c-1.141,2.859-3.565,9.033-5.7,14.482l-.327.833a.337.337,0,0,0,.2.438A.363.363,0,0,0,1983.386,1205.514Z" transform="translate(-1895.151 -1179.885)" fill="url(#bb)"/></g><path d="M1741.179,931.361s-3.094-13.606,12.8-10.005c0,0,7.707-1.236,8.105,5.9,0,0,4.973,3.214,1.332,9.393,0,0,14.777-5.6,21.216,7.1s.521,19.692-5.688,21.511a6.021,6.021,0,0,1,2.646,8.065c-2.38,5.589-14.428,9.537-21.546,2.732,0,0-20.255,2.624-19.849-11.405,0,0-9.419-5.965.475-17.56S1741.179,931.361,1741.179,931.361Z" transform="translate(-1695.576 -920.749)" fill="url(#bc)"/><path d="M1703.629,1151.19c3.193-.938,12.493-2.672,21.335,5.332a5.3,5.3,0,0,1,1.578,5.352c-2.375,8.576-7.931,36.091-2.435,47.053,0,0-7.169.2-20.961-.144,0,0-4.742-20.261-10.949-29.152-4.286-6.14,6.835-23.059,9.648-27.145A3.3,3.3,0,0,1,1703.629,1151.19Z" transform="translate(-1658.9 -1109.036)" fill="#bdd0fb"/><path d="M1778.742,1060.28s4.723,13.1,5.079,18.879a10.266,10.266,0,0,1-10.138-1.6s-.517-13.086-1.262-15.429Z" transform="translate(-1725.195 -1035.171)" fill="url(#bd)"/><path d="M1738.539,960.583s-12.353,16.953-4.969,21.878,16.179-7.124,16.179-7.124,2.866-9.278-.132-12.417S1738.539,960.583,1738.539,960.583Z" transform="translate(-1691.552 -953.34)" fill="url(#be)"/><path d="M1773.265,937.473s-5.674,1.319-6.47,3.837,8.048,4.859,10.525,4.967l2,10.162s5.9-9.559,3.563-15.078S1773.265,937.473,1773.265,937.473Z" transform="translate(-1720.561 -934.278)" fill="url(#bf)"/><path d="M1819.16,1021.915s4.808-5.461,6.72-1.9-4.327,6.232-6.489,4.484Z" transform="translate(-1763.358 -1001.163)" fill="url(#bg)"/><path d="M1825.74,1189.268s15.087,12.3,18.833,29.1-22.047,18.589-22.047,18.589-3.5-3.835-7.657-2.467-.323-6.692,4.542-6.671,2.609,3.793,9.489.736c6.7-2.976,10.845-12.184-6.253-26.141a7.568,7.568,0,0,1-2.259-3.016C1817.061,1191.195,1819.7,1185.82,1825.74,1189.268Z" transform="translate(-1758.407 -1140.078)" fill="url(#bh)"/><path d="M1870.009,1218.052c-3.762-16.8-18.919-29.1-18.919-29.1-6.07-3.45-8.716,1.927-5.38,10.128a7.62,7.62,0,0,0,2.27,3.016c13.249,10.765,13.8,18.7,10.276,23.138a21.178,21.178,0,0,1,5.019,2.413c1.2.781,2.3,1.371,3.3,2.123A11.587,11.587,0,0,0,1870.009,1218.052Z" transform="translate(-1783.847 -1139.821)" fill="#bdd0fb"/><g transform="translate(67.835 37.832)"><path d="M30.224.3A30.947,30.947,0,0,1,60.744,30.814,29.522,29.522,0,0,1,30.814,60.744,30.947,30.947,0,0,1,.3,30.224,29.522,29.522,0,0,1,30.224.3Z" transform="translate(0 42.327) rotate(-45)" fill="url(#bi)"/><path d="M1965.08,1341.015h-.018a.349.349,0,0,1-.239-.114.335.335,0,0,1-.086-.246,27.758,27.758,0,0,1,.413-3.513.345.345,0,0,1,.4-.273.339.339,0,0,1,.278.393,26.726,26.726,0,0,0-.4,3.428A.344.344,0,0,1,1965.08,1341.015Z" transform="translate(-1950.056 -1299.817)" fill="#bdd0fb"/><path d="M1981.251,1226.617a.344.344,0,0,1-.154-.038.339.339,0,0,1-.173-.2.331.331,0,0,1,.02-.258,28.718,28.718,0,0,1,30.618-14.936.344.344,0,0,1,.285.215.333.333,0,0,1-.064.346.349.349,0,0,1-.344.1,28.7,28.7,0,0,0-5.022-.443,27.892,27.892,0,0,0-24.858,15.024A.345.345,0,0,1,1981.251,1226.617Z" transform="translate(-1963.259 -1196.383)" fill="#bdd0fb"/><path d="M25.581.25A26.193,26.193,0,0,1,51.412,26.081,24.987,24.987,0,0,1,26.081,51.412,26.193,26.193,0,0,1,.25,25.581,24.987,24.987,0,0,1,25.581.25Z" transform="translate(7.296 42.977) rotate(-45)" fill="#7d97f4"/><g transform="translate(26.388 32.296)"><path d="M2052.931,1326.474h-15.188a.888.888,0,0,1-.868-.673,1.5,1.5,0,0,0-.121-.333l-.018-.036a2.266,2.266,0,0,0-.218-.383,2.767,2.767,0,0,0-2.277-1.193,2.8,2.8,0,0,0-2.29,1.193,2.408,2.408,0,0,0-.218.383l-.018.036a1.506,1.506,0,0,0-.121.333.887.887,0,0,1-.868.673h-.758a1.414,1.414,0,0,1-1.426-1.4v-13.221a1.414,1.414,0,0,1,1.426-1.4h22.965a1.412,1.412,0,0,1,1.426,1.4v13.221A1.412,1.412,0,0,1,2052.931,1326.474Zm-14.564-1.747h14.208v-12.519h-22.253V1324.3c.051-.083.1-.164.16-.245a4.585,4.585,0,0,1,7.507,0,4.1,4.1,0,0,1,.367.641Z" transform="translate(-2028.54 -1310.46)" fill="url(#bj)"/><path d="M2181.028,1339.576h-.652a.888.888,0,0,1-.868-.673,1.489,1.489,0,0,0-.121-.333l-.018-.036a2.217,2.217,0,0,0-.219-.383,2.792,2.792,0,0,0-4.587,0,2.312,2.312,0,0,0-.219.383l-.018.036a1.489,1.489,0,0,0-.121.333.887.887,0,0,1-.868.673h-.2a1.414,1.414,0,0,1-1.426-1.4v-10.34a1.414,1.414,0,0,1,1.426-1.4h2.3a7.075,7.075,0,0,1,5.235,2.089,6.785,6.785,0,0,1,1.774,5.254v4.395A1.412,1.412,0,0,1,2181.028,1339.576Zm-4.166-4.366a4.6,4.6,0,0,1,3.756,1.949c.018.025.035.05.052.077v-3.6a4.967,4.967,0,0,0-1.3-3.907,5.215,5.215,0,0,0-3.868-1.537h-2.005v8.479A4.6,4.6,0,0,1,2176.863,1335.211Z" transform="translate(-2145.439 -1323.563)" fill="url(#bk)"/><path d="M2048.879,1397.371a2.388,2.388,0,0,1-2.409-2.361,2.314,2.314,0,0,1,.583-1.528,2.4,2.4,0,0,1,3.639,0,2.316,2.316,0,0,1,.366,2.515A2.4,2.4,0,0,1,2048.879,1397.371Zm0-2.975a.554.554,0,0,0-.449.2l-.026.029a.574.574,0,0,0-.152.387.607.607,0,0,0,.3.556.632.632,0,0,0,.641,0,.606.606,0,0,0,.3-.556.572.572,0,0,0-.152-.387.156.156,0,0,1-.024-.029A.556.556,0,0,0,2048.879,1394.4Z" transform="translate(-2043.18 -1377.859)" fill="url(#bl)"/><path d="M2189.07,1397.374a2.388,2.388,0,0,1-2.409-2.361,2.313,2.313,0,0,1,.583-1.528,2.416,2.416,0,0,1,3.65,0,2.312,2.312,0,0,1,.583,1.528,2.388,2.388,0,0,1-2.407,2.361Zm0-2.975a.573.573,0,0,0-.45.2l-.026.029a.582.582,0,0,0-.15.387.626.626,0,0,0,1.251,0,.572.572,0,0,0-.152-.387l-.026-.029A.569.569,0,0,0,2189.07,1394.4Z" transform="translate(-2157.646 -1377.862)" fill="url(#bj)"/></g></g></g><g transform="translate(0 147.277)"><g transform="translate(45.443 31.172)"><path d="M559.959,1129.388l23.051,56.853a6.887,6.887,0,0,0,7.36,4.178l60.448-4.376-21.772-60.463a3.854,3.854,0,0,0-3.69-2.435c-10.6.239-49.2,1.175-63.008,2.381a2.866,2.866,0,0,0-2.19,1.338A2.756,2.756,0,0,0,559.959,1129.388Z" transform="translate(-559.743 -1123.144)" fill="url(#bn)"/><path d="M612.5,1200.443l-23.038-57.363a1.77,1.77,0,0,1,.183-1.639,1.843,1.843,0,0,1,1.468-.8l56.925-2.118a3.452,3.452,0,0,1,3.345,2.145l20.849,55.92Z" transform="translate(-583.905 -1135.75)" fill="#91b3fa"/><path d="M786.865,1472.515a1.939,1.939,0,0,1-1.958,1.92h-79.5a2.946,2.946,0,0,1-2.967-2.917l-1.25-1.425,82.539-.693a3.145,3.145,0,0,1,3.134,3.115Z" transform="translate(-675.235 -1407.091)" fill="url(#bo)"/><path d="M625.255,1184.583a.367.367,0,0,1-.343-.23l-.349-.889c-2.275-5.8-4.855-12.373-6.07-15.415a2.358,2.358,0,0,1,.258-2.225,2.458,2.458,0,0,1,2.019-1.045h10.013a.36.36,0,1,1,0,.72H620.771a1.718,1.718,0,0,0-1.414.73,1.648,1.648,0,0,0-.18,1.557c1.215,3.045,3.8,9.618,6.074,15.42l.347.887a.358.358,0,0,1-.209.464A.373.373,0,0,1,625.255,1184.583Z" transform="translate(-607.576 -1157.288)" fill="#bdd0fb"/></g><g transform="translate(71.492)"><g transform="translate(14.181 13.92)"><path d="M812.18,1140.974c-14.75-.239-31.024,3.8-31.024,3.8-4.4,25.159-.769,54.176-.769,54.176,21.324.351,23.855-.812,23.855-.812,1.9-10.515,11.193-41.092,11.193-41.092a49.3,49.3,0,0,0,18.032-5.613,30.735,30.735,0,0,1-6.252-12.821A50.337,50.337,0,0,1,812.18,1140.974Z" transform="translate(-778.977 -1118.575)" fill="url(#bp)"/><path d="M1070.417,1028.367a2.857,2.857,0,0,0-3.283-.9c-2.171,9-13.551,16.282-25.244,19.845a30.738,30.738,0,0,0,6.252,12.821C1067.545,1049.431,1070.417,1028.367,1070.417,1028.367Z" transform="translate(-993.646 -1027.274)" fill="url(#bq)"/></g><g transform="translate(87.669)"><path d="M1182.391,965.371c.152.473-1.6,1.193-2.637-.741-.037-.925-.611-4.895-.046-5.65a74.656,74.656,0,0,1,8.835-9.059,1.343,1.343,0,0,1,.172,1.891l-2.828,2.888a13.242,13.242,0,0,1,1.651,3.2,3.82,3.82,0,0,1-.395,2.859c-.5.876-1.174,2.017-1.815,2.91A3.937,3.937,0,0,1,1182.391,965.371Z" transform="translate(-1179.461 -949.92)" fill="url(#br)"/><path d="M1192.718,986.9l-2.569,2.141-.809,2.132,2.3,2.5s.773-4.231,1.347-5.148S1193.254,987.166,1192.718,986.9Z" transform="translate(-1187.527 -980.245)" fill="url(#bs)"/></g><path d="M725.129,1186.857l-5.657-14.007s-13.777,9.177-16.041,20.82a32.938,32.938,0,0,1,11.975,3.147C716.425,1191.322,725.129,1186.857,725.129,1186.857Z" transform="translate(-703.112 -1132.734)" fill="url(#bt)"/><path d="M735.753,1294.948s-15.467,8.573-20.686,1.26a5.666,5.666,0,0,1-1.077-4.47,33.086,33.086,0,0,0-11.975-3.147,15.783,15.783,0,0,0,1.78,11.011c9.142,16.4,34.006-.9,34.006-.9Z" transform="translate(-701.697 -1227.646)" fill="url(#bu)"/><g transform="translate(32.166 44.026)"><path d="M877.023,1241.494l8.441-28.911a.856.856,0,0,1,.734-.606c1.53-.18,5.962-.666,11.08-1.09,6.164-.511,13.322-.927,17.6-.574a.866.866,0,0,1,.681.427.833.833,0,0,1,.024.792c-2.433,4.824-12.437,24.455-17.449,30.887a.872.872,0,0,1-.7.335l-19.587-.18a.868.868,0,0,1-.687-.337A.832.832,0,0,1,877.023,1241.494Z" transform="translate(-876.989 -1207.373)" fill="#bdd0fb"/><path d="M989.021,1195.583l6.12-1a.443.443,0,0,1,.407.144.424.424,0,0,1,.083.416l-.606,1.8a.439.439,0,0,1-.367.292l-5.872.774a.446.446,0,0,1-.383-.138.426.426,0,0,1-.1-.388l.367-1.573A.437.437,0,0,1,989.021,1195.583Z" transform="translate(-967.865 -1194.576)" fill="#7d97f4"/><path d="M967.253,1208.863l.5-2.577a.6.6,0,0,1,.536-.479l12.362-1.231a.613.613,0,0,1,.518.2.587.587,0,0,1,.134.53l-.787,3.21a.6.6,0,0,1-.55.455l-12.08.6a.614.614,0,0,1-.495-.2A.588.588,0,0,1,967.253,1208.863Z" transform="translate(-950.681 -1202.775)" fill="#7d97f4"/><path d="M884.658,1300.459s-1.176-4.744-.7-6.424,1.393-3.846,4.457-3.365a45.476,45.476,0,0,1,6.676,1.745,1.747,1.747,0,0,1-2.51,1.485l1.444,1.1s-.207,1.754-2.173.817l1.341,1.452a1.579,1.579,0,0,1-2.29.518C889.456,1296.862,888.761,1301.03,884.658,1300.459Z" transform="translate(-882.586 -1273.322)" fill="url(#bv)"/></g><path d="M857.5,1086.49l-4.692,13.316a.478.478,0,0,0,.222.578,11.218,11.218,0,0,0,11.443-.756,2.259,2.259,0,0,0,1.061-1.62l1.519-11.517Z" transform="translate(-825.058 -1061.914)" fill="url(#bw)"/><g transform="translate(23.546 5.334)"><path d="M880.628,1018s5.154,9.514,4.494,13.356-7.048,3.568-12.625.446l-3.9-10.272Z" transform="translate(-861.519 -1011.083)" fill="url(#bx)"/><path d="M841.236,995.238a.4.4,0,0,0,.228-.245.386.386,0,0,0-.045-.329,10.131,10.131,0,0,1-1.433-2.985s-.927-.581,2.358-1.353,8.182-1.967,9.212-4.709c1-2.672-1.633-9.4-5.841-4.038a.4.4,0,0,1-.633,0c-.69-.88-2.5-2.7-5.022-1.6-2.356,1.036-2.62,2.73-2.589,3.583a.385.385,0,0,1-.136.311.4.4,0,0,1-.333.088,4.646,4.646,0,0,0-5.384,2.462c-1.1,2.368-.385,3.709.266,4.366a.385.385,0,0,1,.1.371.394.394,0,0,1-.272.277,2.357,2.357,0,0,0-1.694,2.685c.139,2.487,2.974,2.267,3.782,2.159a.41.41,0,0,1,.356.124c.692.75,3.809,3.939,7.184,4.319a.407.407,0,0,0,.358-.147.39.39,0,0,0,.066-.375l-1.468-4.164a.39.39,0,0,1,.216-.488Z" transform="translate(-830.012 -979.563)" fill="url(#by)"/><path d="M876.794,1064.43s-3.67-2.469-3.938-.389,3.3,3.01,5.074,2.235Z" transform="translate(-864.983 -1048.156)" fill="url(#bz)"/></g></g><g transform="translate(0 34.746)"><path d="M30.224.3A30.947,30.947,0,0,1,60.744,30.814,29.522,29.522,0,0,1,30.814,60.744,30.947,30.947,0,0,1,.3,30.224,29.522,29.522,0,0,1,30.224.3Z" transform="translate(0 42.327) rotate(-45)" fill="url(#ca)"/><path d="M392.461,1353.085h-.018a.347.347,0,0,1-.241-.112.333.333,0,0,1-.086-.248,27.429,27.429,0,0,1,.415-3.513.345.345,0,0,1,.4-.273.339.339,0,0,1,.278.393,27.055,27.055,0,0,0-.406,3.419A.342.342,0,0,1,392.461,1353.085Z" transform="translate(-377.431 -1311.878)" fill="#bdd0fb"/><path d="M408.611,1238.634a.345.345,0,0,1-.295-.16.331.331,0,0,1-.014-.33,28.737,28.737,0,0,1,30.62-14.936.339.339,0,0,1,.277.394.345.345,0,0,1-.4.272,28.657,28.657,0,0,0-5.02-.443,27.893,27.893,0,0,0-24.858,15.022A.346.346,0,0,1,408.611,1238.634Z" transform="translate(-390.618 -1208.404)" fill="#bdd0fb"/><path d="M25.581.25A26.193,26.193,0,0,1,51.412,26.081,24.987,24.987,0,0,1,26.081,51.412,26.193,26.193,0,0,1,.25,25.581,24.987,24.987,0,0,1,25.581.25Z" transform="translate(7.297 42.98) rotate(-45)" fill="#7d97f4"/><g transform="translate(19.963 25.875)"><path d="M528.781,1295.314h9.667a1.311,1.311,0,0,0,1.321-1.3V1288.1a1.311,1.311,0,0,0-1.321-1.3h-9.667a1.311,1.311,0,0,0-1.321,1.3v5.928A1.311,1.311,0,0,0,528.781,1295.314Zm.655-1.938v-4.643h8.356v4.643Z" transform="translate(-507.903 -1286.8)" fill="url(#cb)"/><path d="M467,1341.8a2.172,2.172,0,0,0-1.886-1.089H459.8V1339.4a1.31,1.31,0,0,0-1.323-1.3h-9.665a1.31,1.31,0,0,0-1.321,1.3v5.492h-.787V1339.4a1.31,1.31,0,0,0-1.323-1.3h-9.665a1.31,1.31,0,0,0-1.321,1.3v5.578l-11.461.088a2.08,2.08,0,0,0-1.822,1.094,2,2,0,0,0,.128,2.091l4.687,6.689a4.725,4.725,0,0,0,3.866,2h26.859a3.95,3.95,0,0,0,3.351-1.825l6.942-11.146A2.1,2.1,0,0,0,467,1341.8Zm-17.526,3.075v-4.835h8.357v.671h-2.611a3.68,3.68,0,0,0-3.013,1.557l-1.835,2.6Zm-13.1-4.835h8.357v4.87l-8.169.057h-.184Zm28.89,2.914-6.94,11.146a1.973,1.973,0,0,1-1.67.9H429.8a2.739,2.739,0,0,1-2.239-1.155l-4.681-6.682a.092.092,0,0,1,0-.106.086.086,0,0,1,.083-.05l13.625-.1,10.335-.072,1.58-.013h0l2.418-.02a.988.988,0,0,0,.806-.419l2.121-3.014a1.692,1.692,0,0,1,1.385-.72h9.881a.2.2,0,0,1,.174.1.191.191,0,0,1-.012.2Z" transform="translate(-420.882 -1328.869)" fill="url(#cc)"/></g></g></g><g transform="translate(156.769)"><g transform="translate(60.707 58.721)"><path d="M1672.917,463.206l-19.954,49.209a5.961,5.961,0,0,1-6.369,3.617l-52.324-3.6,18.851-52.52a3.336,3.336,0,0,1,3.193-2.107c9.175.207,42.586,1.017,54.539,2.06a2.481,2.481,0,0,1,1.892,1.159A2.387,2.387,0,0,1,1672.917,463.206Z" transform="translate(-1576.469 -457.805)" fill="url(#cd)"/><path d="M1658.918,524.656l19.941-49.666a1.522,1.522,0,0,0-.155-1.425,1.586,1.586,0,0,0-1.28-.69l-49.273-1.835a2.991,2.991,0,0,0-2.9,1.859l-18.045,48.406Z" transform="translate(-1587.034 -468.657)" fill="#91b3fa"/><path d="M1497.269,760.212a1.677,1.677,0,0,0,1.694,1.661h68.812a2.544,2.544,0,0,0,2.569-2.519l1.083-1.233-71.452-.6a2.725,2.725,0,0,0-2.714,2.7Z" transform="translate(-1497.26 -703.586)" fill="url(#ce)"/><path d="M1937.862,490.9a.216.216,0,0,1-.174-.093.208.208,0,0,1-.022-.193l7.34-18.02a1.987,1.987,0,0,0-.18-1.843,2.069,2.069,0,0,0-1.635-.926l-13.326-.614a.207.207,0,1,1,.02-.414l13.324.614a2.493,2.493,0,0,1,1.973,1.114,2.394,2.394,0,0,1,.218,2.222l-7.34,18.022a.213.213,0,0,1-.2.131Z" transform="translate(-1850.319 -466.82)" fill="#fff"/></g><g transform="translate(0 29.513)"><path d="M1173.526,339.04l48.24-4.2a3.764,3.764,0,0,0,3.47-3.7l.184-31.9a3.7,3.7,0,0,0-1.2-2.743,3.851,3.851,0,0,0-2.868-1l-51.379,3.507a3.83,3.83,0,0,0-2.631,1.3,3.683,3.683,0,0,0-.9,2.753l2.949,32.593a3.71,3.71,0,0,0,1.35,2.535,3.856,3.856,0,0,0,2.784.853Z" transform="translate(-1166.428 -295.49)" fill="#91b3fa"/><path d="M1235.263,323.114l.319,27.543a2.324,2.324,0,0,1-2.119,2.323l-46.263,4.5a2.386,2.386,0,0,1-1.729-.522,2.3,2.3,0,0,1-.841-1.57l-2.672-29.445a2.278,2.278,0,0,1,.565-1.715,2.37,2.37,0,0,1,1.65-.793l48.614-2.6a2.38,2.38,0,0,1,1.733.622A2.287,2.287,0,0,1,1235.263,323.114Z" transform="translate(-1179.101 -316.272)" fill="url(#cf)"/><path d="M1234.509,467.236l-26.182,1.506a.479.479,0,0,0-.333.161.461.461,0,0,0-.113.346l.037.412a.471.471,0,0,0,.51.425l26.145-1.918a.48.48,0,0,0,.327-.164.462.462,0,0,0,.111-.343h0A.472.472,0,0,0,1234.509,467.236Z" transform="translate(-1200.273 -436.329)" fill="#91b3fa"/><path d="M1236.354,479.589l.015.18a.459.459,0,0,1-.108.341.477.477,0,0,1-.323.165l-26.112,2.278a.475.475,0,0,1-.517-.425l-.016-.18a.471.471,0,0,1,.433-.507l26.119-2.276A.476.476,0,0,1,1236.354,479.589Z" transform="translate(-1201.425 -446.112)" fill="#91b3fa"/><path d="M1229.412,496.184v.077a.472.472,0,0,1-.433.507l-18.186,1.582a.475.475,0,0,1-.517-.425l-.033-.36a.462.462,0,0,1,.112-.344.48.48,0,0,1,.328-.163l18.212-1.3A.474.474,0,0,1,1229.412,496.184Z" transform="translate(-1202.201 -459.721)" fill="#91b3fa"/></g><g transform="translate(5.772 14.348)"><path d="M1203.257,258.538l56.936-1.137a4.433,4.433,0,0,0,4.371-4.063l2.815-37.406a4.338,4.338,0,0,0-1.187-3.312,4.517,4.517,0,0,0-3.283-1.4l-60.554.077a4.52,4.52,0,0,0-3.192,1.319,4.344,4.344,0,0,0-1.276,3.158l.8,38.466a4.35,4.35,0,0,0,1.378,3.078A4.525,4.525,0,0,0,1203.257,258.538Z" transform="translate(-1197.885 -211.22)" fill="#91b3fa"/><path d="M1277.869,239.732l-1.875,32.339a2.743,2.743,0,0,1-2.677,2.559l-54.635,1.652a2.8,2.8,0,0,1-1.991-.745,2.689,2.689,0,0,1-.86-1.912l-.723-34.756a2.688,2.688,0,0,1,.8-1.968,2.8,2.8,0,0,1,2-.8l57.231.77a2.79,2.79,0,0,1,1.985.861,2.681,2.681,0,0,1,.74,2Z" transform="translate(-1211.947 -231.622)" fill="url(#bj)"/><path d="M1266.534,402.278l-30.828-.288a.565.565,0,0,0-.4.162.543.543,0,0,0-.162.4l.011.488a.534.534,0,0,0,.166.386.556.556,0,0,0,.4.154l30.828-.2a.556.556,0,0,0,.551-.561h0A.556.556,0,0,0,1266.534,402.278Z" transform="translate(-1228.303 -367.661)" fill="#91b3fa"/><path d="M1267.428,418.2v.207a.556.556,0,0,1-.55.561l-30.817.615a.566.566,0,0,1-.4-.154.544.544,0,0,1-.171-.386v-.209a.556.556,0,0,1,.55-.56l30.817-.615a.566.566,0,0,1,.4.154A.544.544,0,0,1,1267.428,418.2Z" transform="translate(-1228.589 -380.511)" fill="#91b3fa"/><path d="M1258.36,434.29v.092a.556.556,0,0,1-.55.561l-21.469.428a.557.557,0,0,1-.571-.54V434.4a.556.556,0,0,1,.55-.561l21.469-.092A.557.557,0,0,1,1258.36,434.29Z" transform="translate(-1228.818 -393.705)" fill="#91b3fa"/></g><g transform="translate(14.592)"><path d="M1250.913,183.9h63.164a4.918,4.918,0,0,0,4.942-4.411L1323,138.069a4.809,4.809,0,0,0-1.24-3.7,5.008,5.008,0,0,0-3.608-1.625l-67.146-1.26a5.016,5.016,0,0,0-3.567,1.39,4.823,4.823,0,0,0-1.49,3.469v42.686a4.811,4.811,0,0,0,1.451,3.445A5,5,0,0,0,1250.913,183.9Z" transform="translate(-1245.95 -131.485)" fill="#7d97f4"/><path d="M1334.2,164.145l-2.822,35.81a3.044,3.044,0,0,1-3.028,2.777l-60.626.623a3.1,3.1,0,0,1-2.19-.87,2.982,2.982,0,0,1-.911-2.139V161.791a2.983,2.983,0,0,1,.936-2.165,3.1,3.1,0,0,1,2.238-.844l63.448,2.122a3.093,3.093,0,0,1,2.183,1A2.972,2.972,0,0,1,1334.2,164.145Z" transform="translate(-1261.194 -153.869)" fill="#fff" opacity="0.87"/><path d="M1312.446,182.193l-34.186-1a.631.631,0,0,0-.451.173.606.606,0,0,0-.189.437v.54a.618.618,0,0,0,.62.615l34.188.462a.627.627,0,0,0,.445-.176.6.6,0,0,0,.184-.434h0A.614.614,0,0,0,1312.446,182.193Z" transform="translate(-1271.809 -172.245)" fill="#7d97f4"/><rect width="35.43" height="1.449" rx="0.724" transform="translate(5.811 12.758)" fill="#7d97f4"/><path d="M1302.665,217.992v.1a.614.614,0,0,1-.62.608h-23.812a.627.627,0,0,1-.44-.178.6.6,0,0,1-.182-.431v-.468a.6.6,0,0,1,.186-.435.628.628,0,0,1,.446-.175l23.811.374A.614.614,0,0,1,1302.665,217.992Z" transform="translate(-1271.8 -201.62)" fill="#7d97f4"/><path d="M1300.64,241.775a.264.264,0,0,0,.169-.059l10.265-8.173,10.118,7.263a.272.272,0,0,0,.367-.043l14.072-16.555c1.6,1.377,11.968,10.291,13.349,11.474a.272.272,0,0,0,.378-.025.259.259,0,0,0-.026-.371c-1.5-1.283-13.553-11.652-13.553-11.652a.275.275,0,0,0-.385.029l-14.087,16.573L1311.224,233a.274.274,0,0,0-.328.009l-10.247,8.164-5.488-4.7a.272.272,0,0,0-.379.026.26.26,0,0,0,.027.372l5.657,4.848A.262.262,0,0,0,1300.64,241.775Z" transform="translate(-1285.768 -206.997)" fill="#7d97f4"/><path d="M1515.36,265.738v-.527a.179.179,0,0,1,.076-.189.187.187,0,0,1,.207,0,.178.178,0,0,1,.076.189v.527a.178.178,0,0,1-.076.189.186.186,0,0,1-.207,0A.179.179,0,0,1,1515.36,265.738Zm0-1.758v-.527a.184.184,0,0,1,.358,0v.527a.178.178,0,0,1-.076.189.186.186,0,0,1-.207,0A.179.179,0,0,1,1515.36,263.98Zm0-1.756V261.7a.179.179,0,0,1,.076-.189.186.186,0,0,1,.207,0,.178.178,0,0,1,.076.189v.527a.178.178,0,0,1-.076.189.186.186,0,0,1-.207,0A.179.179,0,0,1,1515.36,262.223Zm0-1.758v-.529a.179.179,0,0,1,.076-.189.186.186,0,0,1,.207,0,.178.178,0,0,1,.076.189v.525a.178.178,0,0,1-.076.189.186.186,0,0,1-.207,0,.179.179,0,0,1-.076-.189Zm0-1.756v-.527a.179.179,0,0,1,.076-.189.186.186,0,0,1,.207,0,.178.178,0,0,1,.076.189v.527a.178.178,0,0,1-.076.189.187.187,0,0,1-.207,0A.179.179,0,0,1,1515.36,258.709Zm0-1.758v-.525a.179.179,0,0,1,.076-.189.186.186,0,0,1,.207,0,.178.178,0,0,1,.076.189v.525a.178.178,0,0,1-.076.189.186.186,0,0,1-.207,0A.179.179,0,0,1,1515.36,256.951Zm0-1.756v-.527a.179.179,0,0,1,.076-.189.186.186,0,0,1,.207,0,.178.178,0,0,1,.076.189v.527a.178.178,0,0,1-.076.189.186.186,0,0,1-.207,0A.179.179,0,0,1,1515.36,255.194Zm0-1.756v-.52a.179.179,0,0,1,.076-.189.186.186,0,0,1,.207,0,.178.178,0,0,1,.076.189v.527a.184.184,0,0,1-.358,0Zm0-1.758v-.527a.179.179,0,0,1,.076-.189.186.186,0,0,1,.207,0,.178.178,0,0,1,.076.189v.527a.178.178,0,0,1-.076.189.186.186,0,0,1-.207,0A.179.179,0,0,1,1515.36,251.68Zm0-1.756V249.4a.179.179,0,0,1,.076-.189.186.186,0,0,1,.207,0,.178.178,0,0,1,.076.189v.527a.184.184,0,0,1-.358,0Zm0-1.758v-.527a.184.184,0,0,1,.358,0v.527a.178.178,0,0,1-.076.189.186.186,0,0,1-.207,0A.179.179,0,0,1,1515.36,248.166Zm0-1.756v-.527a.179.179,0,0,1,.076-.189.186.186,0,0,1,.207,0,.178.178,0,0,1,.076.189v.527a.184.184,0,0,1-.358,0Zm0-1.758v-.527a.184.184,0,0,1,.358,0v.527a.178.178,0,0,1-.076.189.186.186,0,0,1-.207,0A.179.179,0,0,1,1515.36,244.651Zm0-1.756v-.527a.179.179,0,0,1,.076-.189.186.186,0,0,1,.207,0,.178.178,0,0,1,.076.189v.527a.184.184,0,0,1-.358,0Z" transform="translate(-1465.92 -222.234)" fill="#7d97f4"/><path d="M1438.88,331.742v-.525a.184.184,0,0,1,.367,0v.525a.184.184,0,0,1-.367,0Zm0-1.756v-.527a.184.184,0,0,1,.367,0v.527a.184.184,0,0,1-.367,0Zm0-1.756V327.7a.184.184,0,0,1,.367,0v.527a.184.184,0,0,1-.367,0Zm0-1.758v-.527a.184.184,0,0,1,.367,0v.527a.184.184,0,0,1-.367,0Zm0-1.756v-.527a.184.184,0,0,1,.367,0v.536a.184.184,0,0,1-.367,0Zm0-1.758v-.527a.184.184,0,0,1,.367,0v.527a.184.184,0,0,1-.367,0Z" transform="translate(-1403.478 -287.922)" fill="#7d97f4"/><path d="M1380.883,301.845a.182.182,0,0,1-.183-.18l.016-.527a.167.167,0,0,1,.054-.124.175.175,0,0,1,.129-.046.182.182,0,0,1,.172.18l-.016.527a.182.182,0,0,1-.184.171Zm.055-1.756a.182.182,0,0,1-.183-.18l.016-.527a.184.184,0,0,1,.367.011l-.016.527a.182.182,0,0,1-.183.171Zm.055-1.756a.182.182,0,0,1-.172-.18l.016-.527a.184.184,0,0,1,.367.011l-.017.527a.182.182,0,0,1-.183.171Zm.057-1.756a.182.182,0,0,1-.174-.18l.017-.527a.178.178,0,0,1,.356.011l-.016.527a.182.182,0,0,1-.183.171Zm.055-1.756a.182.182,0,0,1-.183-.18l.016-.527a.184.184,0,0,1,.367.011l-.018.527a.182.182,0,0,1-.184.18Zm.055-1.756a.181.181,0,0,1-.172-.18l.017-.527a.184.184,0,0,1,.367.011l-.016.527a.182.182,0,0,1-.184.171Zm.055-1.758a.181.181,0,0,1-.172-.18l.016-.527a.179.179,0,0,1,.082-.186.187.187,0,0,1,.206.006.178.178,0,0,1,.07.191l-.016.527a.182.182,0,0,1-.184.171Zm.057-1.756a.182.182,0,0,1-.183-.18l.016-.527a.184.184,0,0,1,.367.011l-.016.527a.182.182,0,0,1-.183.171Zm.055-1.756a.182.182,0,0,1-.174-.18l.018-.527a.168.168,0,0,1,.054-.125.175.175,0,0,1,.13-.046.182.182,0,0,1,.183.18l-.016.527a.182.182,0,0,1-.183.171Zm.055-1.756a.181.181,0,0,1-.172-.18l.016-.527a.167.167,0,0,1,.054-.125.174.174,0,0,1,.13-.046.182.182,0,0,1,.183.18l-.016.527a.182.182,0,0,1-.184.171Z" transform="translate(-1355.974 -257.505)" fill="#7d97f4"/><path d="M1325.31,333.636v-.52a.184.184,0,0,1,.367,0v.527a.184.184,0,0,1-.367,0Zm0-1.756v-.527a.184.184,0,0,1,.367,0v.527a.184.184,0,0,1-.367,0Zm0-1.758v-.527a.184.184,0,0,1,.367,0v.527a.184.184,0,0,1-.367,0Zm0-1.756v-.527a.184.184,0,0,1,.367,0v.527a.184.184,0,0,1-.367,0Zm0-1.758v-.527a.184.184,0,0,1,.367,0v.527a.184.184,0,0,1-.367,0Z" transform="translate(-1310.748 -290.915)" fill="#7d97f4"/><g transform="translate(64.317 12.236)"><path d="M1596.724,235.227a.266.266,0,0,0,.268-.241l2.888-33.449a.263.263,0,0,0-.106-.256.274.274,0,0,0-.281-.024.264.264,0,0,0-.149.235l-2.888,33.449a.259.259,0,0,0,.063.192.27.27,0,0,0,.183.092Z" transform="translate(-1596.455 -200.914)" fill="#7d97f4"/><path d="M1610.037,201.2l-.831-.966-.985.815.066-.756.984-.815.831.966Z" transform="translate(-1606.061 -199.48)" fill="#7d97f4"/></g><g transform="translate(6.964 43.829)"><path d="M1286.139,379.077h59.18a.264.264,0,0,0,0-.527h-59.18a.264.264,0,0,0,0,.527Z" transform="translate(-1285.526 -377.92)" fill="#7d97f4"/><path d="M1285.584,376.839l-.912-.894.912-.894h-.774l-.91.894.91.894Z" transform="translate(-1283.9 -375.05)" fill="#7d97f4"/></g></g><g transform="translate(61.648 17.841)"><path d="M1550.461,242.548l-17.2-6.118-1.325,2.721,16.526,6.106A2.243,2.243,0,0,0,1550.461,242.548Z" transform="translate(-1526.518 -235.386)" fill="url(#ch)"/><path d="M1519.384,233.542c.506,1.5-1.325,2.721-1.325,2.721l-3.119-2.159a5.986,5.986,0,0,0,.328-1.193Z" transform="translate(-1512.637 -232.5)" fill="url(#ci)"/><path d="M1505.023,231.037a5.987,5.987,0,0,1-.328,1.193l-2.3-1.6Z" transform="translate(-1502.39 -230.63)" fill="url(#cj)"/><path d="M1574.915,379.9c3.573,6.523,9.5,13.178,19.155,14.963,8.911,1.647,24.91,3.682,31.34,4.475a7.9,7.9,0,0,1,4.954,2.606c5.048,5.724,16.168,21.441,3.1,37.277a24.148,24.148,0,0,1-5.655-4.054c1.444-3.993,1.562-9.095-1.468-15.352a13.977,13.977,0,0,1-.387,1.47,89.442,89.442,0,0,0-4.384,26.231.728.728,0,0,1-.525.767c-7.228.965-20.8.169-20.8.169,2.5-12.219-6.925-33.7-9.358-38.959a3.434,3.434,0,0,0-1.732-1.69c-13.483-5.987-19.348-15.2-21.726-23.5A13.036,13.036,0,0,1,1574.915,379.9Z" transform="translate(-1555.495 -353.039)" fill="url(#ck)"/><path d="M1560.951,318.781a39.435,39.435,0,0,1-.642-18.781h3.075a48.135,48.135,0,0,0,5.037,14.382A12.945,12.945,0,0,0,1560.951,318.781Z" transform="translate(-1549.003 -287.517)" fill="url(#cl)"/><path d="M1555.133,254.911s4.681-5.938,3.16-9.042-6.734-2.8-6.734-2.8l-.734,2.428a2.994,2.994,0,0,0,.075,1.943l2.879,7.468Z" transform="translate(-1541.833 -240.826)" fill="url(#cm)"/><path d="M1789.647,420.452l1.059,10.6s-6.081,1.8-10.505-1.26l3.12-9.635Z" transform="translate(-1729.223 -386.054)" fill="url(#cn)"/><g transform="translate(45.3 17.076)"><path d="M1765.738,352.607c-.147.135-6.178,11.749-6.178,11.749l6.835,3.239,7.384-10.174S1768.188,350.345,1765.738,352.607Z" transform="translate(-1757.67 -347.367)" fill="url(#co)"/><path d="M1762.344,335.853a1.048,1.048,0,0,1-.083.939l-3.407,5.578a1.076,1.076,0,0,1-.184.229c-.406.371-1.794,1.449-2.868-.018a9.453,9.453,0,0,0-2.694-2.858,1.111,1.111,0,0,0-1.468.475,39.248,39.248,0,0,0-2.332,5.429,1.058,1.058,0,0,0,.631,1.3,30.677,30.677,0,0,0,6.547,1.873,1.11,1.11,0,0,0,1.031-.43c1.044-1.4,3.988-5.325,4.993-6.3.932-.912,2.655-.569,3.431-.349a1.12,1.12,0,0,0,.872-.113,2.335,2.335,0,0,0,.9-3.585,1.067,1.067,0,0,1,.338-1.454,2.336,2.336,0,0,0,.917-3.356,3.452,3.452,0,0,0-3.683-1.767,1.14,1.14,0,0,1-1.189-.648.721.721,0,0,0-.562-.436,1.059,1.059,0,0,1-.689-.433,1.02,1.02,0,0,1-.168-.786,2.724,2.724,0,0,0-1.56-3.138c-2.949-1.589-5.532,1-6.189,3.189s2.641,3.734,4.714,3.991C1761.174,333.37,1762.009,335,1762.344,335.853Z" transform="translate(-1749.259 -325.523)" fill="url(#cp)"/><path d="M1814.46,412.287s1.312-3.763,2.991-3.624,3,1.778.917,3.621C1815.781,414.578,1814.46,412.287,1814.46,412.287Z" transform="translate(-1802.496 -393.699)" fill="url(#cq)"/></g><path d="M1889.008,536.261c2.213-5.938,1.409-13.111,1.4-13.181l-.609.068c0,.07.795,7.1-1.369,12.906Z" transform="translate(-1817.593 -470.454)" fill="url(#cr)"/><path d="M1847.468,687a24.258,24.258,0,0,0,5.655,4.054,37.454,37.454,0,0,1-9.221,8.258l-.477.928-6.986.234S1844.762,694.484,1847.468,687Z" transform="translate(-1775.143 -604.876)" fill="url(#cs)"/></g><g transform="translate(130.425 28.773)"><path d="M30.224.3A30.947,30.947,0,0,1,60.744,30.814,29.522,29.522,0,0,1,30.814,60.744,30.947,30.947,0,0,1,.3,30.224,29.522,29.522,0,0,1,30.224.3Z" transform="translate(0 42.327) rotate(-45)" fill="url(#ct)"/><path d="M1957.541,501.307h-.018a.346.346,0,0,1-.241-.112.333.333,0,0,1-.086-.247,27.514,27.514,0,0,1,.415-3.513.34.34,0,0,1,.219-.279.35.35,0,0,1,.353.063.334.334,0,0,1,.1.337,26.805,26.805,0,0,0-.4,3.419.342.342,0,0,1-.343.333Z" transform="translate(-1942.516 -460.108)" fill="#91b3fa"/><path d="M1973.715,387.013a.342.342,0,0,1-.156-.036.335.335,0,0,1-.152-.453,28.733,28.733,0,0,1,30.618-14.936.345.345,0,0,1,.222.141.337.337,0,0,1-.087.471.347.347,0,0,1-.258.054,28.684,28.684,0,0,0-5.021-.443,27.9,27.9,0,0,0-24.861,15.015A.346.346,0,0,1,1973.715,387.013Z" transform="translate(-1955.723 -356.782)" fill="#91b3fa"/><path d="M25.581.25A26.193,26.193,0,0,1,51.412,26.081,24.987,24.987,0,0,1,26.081,51.412,26.193,26.193,0,0,1,.25,25.581,24.987,24.987,0,0,1,25.581.25Z" transform="translate(7.295 42.978) rotate(-45)" fill="#7d97f4"/><g transform="translate(28.574 28.163)"><path d="M2048.681,476.582q-.378,0-.754-.016c-8.624-.372-15.348-7.1-15-15.006a13.7,13.7,0,0,1,5.059-9.96,16.338,16.338,0,0,1,11.215-3.694c8.625.372,15.348,7.1,15,15h0a13.7,13.7,0,0,1-5.059,9.958,16.261,16.261,0,0,1-10.461,3.714Zm-.229-26.67a14.173,14.173,0,0,0-9.123,3.228,11.7,11.7,0,0,0-4.336,8.508c-.3,6.788,5.54,12.573,13.028,12.9a14.261,14.261,0,0,0,9.788-3.214,11.71,11.71,0,0,0,4.336-8.51c.3-6.788-5.54-12.573-13.028-12.9C2048.9,449.915,2048.671,449.911,2048.451,449.911Z" transform="translate(-2032.918 -447.884)" fill="url(#at)"/><g transform="translate(2.004 1.033)"><g transform="translate(9.542 0.061)"><path d="M2105.253,468.814a39.738,39.738,0,0,1-.589,7.018c-.106.579-.229,1.155-.378,1.726a16.2,16.2,0,0,1-.527,1.69,8.009,8.009,0,0,1-.785,1.593,3.164,3.164,0,0,1-.591.677,1.64,1.64,0,0,1-.385.245,1.149,1.149,0,0,1-.451.1,1.121,1.121,0,0,1-.455-.083,1.54,1.54,0,0,1-.395-.23,3.043,3.043,0,0,1-.6-.668,7.543,7.543,0,0,1-.8-1.587,16.029,16.029,0,0,1-.534-1.686c-.148-.57-.273-1.146-.38-1.726a33.553,33.553,0,0,1-.458-3.5c-.092-1.173-.149-2.339-.154-3.525,0-.588.013-1.177.035-1.763s.055-1.175.1-1.762c.088-1.173.22-2.339.417-3.505.1-.579.213-1.157.35-1.729a17.132,17.132,0,0,1,.5-1.7c.1-.277.211-.552.336-.821a5.877,5.877,0,0,1,.429-.777,2.868,2.868,0,0,1,.589-.671,1.54,1.54,0,0,1,.389-.23,1.121,1.121,0,0,1,.45-.077,1.175,1.175,0,0,1,.442.1,1.676,1.676,0,0,1,.385.236,3.232,3.232,0,0,1,.6.659,7.94,7.94,0,0,1,.826,1.569,16.389,16.389,0,0,1,.567,1.675c.158.567.294,1.141.411,1.718A36.347,36.347,0,0,1,2105.253,468.814Zm-.184,0c0-1.171-.042-2.339-.141-3.511a33.154,33.154,0,0,0-.466-3.484c-.11-.576-.237-1.148-.389-1.713a16.07,16.07,0,0,0-.551-1.672,7.821,7.821,0,0,0-.8-1.562,3.2,3.2,0,0,0-.582-.651,1.675,1.675,0,0,0-.367-.232,1.133,1.133,0,0,0-.42-.1,1.072,1.072,0,0,0-.426.079,1.453,1.453,0,0,0-.367.225,2.874,2.874,0,0,0-.569.662,6.2,6.2,0,0,0-.415.774c-.121.266-.226.54-.323.817a16.8,16.8,0,0,0-.477,1.69c-.13.572-.239,1.148-.33,1.728a34.87,34.87,0,0,0-.367,3.495c-.066,1.17-.1,2.339-.1,3.514s.037,2.339.125,3.511.226,2.339.429,3.489c.1.576.222,1.15.367,1.719a16.189,16.189,0,0,0,.516,1.677,7.652,7.652,0,0,0,.773,1.571,2.926,2.926,0,0,0,.578.648,1.473,1.473,0,0,0,.367.221,1.032,1.032,0,0,0,.417.077,1.092,1.092,0,0,0,.413-.1,1.562,1.562,0,0,0,.367-.234,3.126,3.126,0,0,0,.565-.66,7.867,7.867,0,0,0,.761-1.575,16.25,16.25,0,0,0,.508-1.681c.141-.569.26-1.143.367-1.72.2-1.153.338-2.32.427-3.487s.114-2.343.114-3.513Z" transform="translate(-2097.416 -455.491)" fill="url(#cv)"/><path d="M2099.937,480.69a1.53,1.53,0,0,1-.55-.108,1.953,1.953,0,0,1-.481-.281,3.324,3.324,0,0,1-.673-.741,8.045,8.045,0,0,1-.837-1.659,16.57,16.57,0,0,1-.55-1.724c-.143-.551-.27-1.123-.387-1.749-.206-1.11-.356-2.266-.464-3.532-.1-1.152-.147-2.339-.154-3.552,0-.63.017-1.26.035-1.778.024-.6.057-1.195.1-1.774.1-1.274.233-2.431.42-3.536.106-.63.224-1.2.356-1.753a16.725,16.725,0,0,1,.51-1.731c.112-.315.226-.592.347-.849a6.162,6.162,0,0,1,.453-.822,3.24,3.24,0,0,1,.66-.75,1.886,1.886,0,0,1,.483-.283,1.474,1.474,0,0,1,.589-.1,1.544,1.544,0,0,1,.569.13,2.066,2.066,0,0,1,.464.284,3.534,3.534,0,0,1,.668.729,8.132,8.132,0,0,1,.865,1.636,16.208,16.208,0,0,1,.578,1.713c.156.552.292,1.121.418,1.744a36.344,36.344,0,0,1,.663,7.085h0a39.792,39.792,0,0,1-.593,7.086c-.115.626-.24,1.2-.383,1.751a16.8,16.8,0,0,1-.538,1.724,8.257,8.257,0,0,1-.82,1.661,3.551,3.551,0,0,1-.657.752,2.071,2.071,0,0,1-.468.3,1.514,1.514,0,0,1-.587.135Zm-.183-25.988a.72.72,0,0,0-.264.052,1.151,1.151,0,0,0-.283.18,2.491,2.491,0,0,0-.5.583,5.49,5.49,0,0,0-.389.72c-.108.238-.211.495-.312.79a16.019,16.019,0,0,0-.468,1.654c-.123.54-.229,1.092-.325,1.7a34.794,34.794,0,0,0-.367,3.464c-.068,1.065-.1,2.208-.1,3.491,0,1.186.039,2.357.125,3.487.1,1.24.233,2.37.426,3.455.108.606.226,1.161.367,1.7a15.866,15.866,0,0,0,.5,1.643,7.341,7.341,0,0,0,.734,1.5,2.57,2.57,0,0,0,.507.57,1.1,1.1,0,0,0,.281.169.772.772,0,0,0,.275.054.713.713,0,0,0,.279-.068,1.268,1.268,0,0,0,.281-.18,2.738,2.738,0,0,0,.5-.587,7.487,7.487,0,0,0,.734-1.506,16.012,16.012,0,0,0,.5-1.645c.132-.54.25-1.08.356-1.7.183-1.08.328-2.2.424-3.455.088-1.128.132-2.3.132-3.487h0c0-1.182-.046-2.354-.142-3.482a32.964,32.964,0,0,0-.46-3.45c-.116-.6-.24-1.153-.385-1.69a15.044,15.044,0,0,0-.532-1.634,7.362,7.362,0,0,0-.763-1.494,2.8,2.8,0,0,0-.518-.581,1.336,1.336,0,0,0-.29-.18.745.745,0,0,0-.286-.07Z" transform="translate(-2095.84 -453.965)" fill="url(#cw)"/></g><g transform="translate(2.75)"><path d="M2081.036,468.542a16.942,16.942,0,0,1-.618,4.5,14.335,14.335,0,0,1-1.908,4.117,11.906,11.906,0,0,1-1.457,1.756,10.12,10.12,0,0,1-1.794,1.422,8.654,8.654,0,0,1-2.092.943,7.929,7.929,0,0,1-4.553,0,8.638,8.638,0,0,1-2.094-.941,10.149,10.149,0,0,1-1.8-1.42,11.813,11.813,0,0,1-1.468-1.756,14.434,14.434,0,0,1-1.906-4.121,15.928,15.928,0,0,1-.462-2.226,17.7,17.7,0,0,1-.156-2.267,17.31,17.31,0,0,1,.158-2.267,16.165,16.165,0,0,1,.464-2.224,14.333,14.333,0,0,1,1.916-4.115,11.816,11.816,0,0,1,1.468-1.756,10.276,10.276,0,0,1,1.795-1.418,8.815,8.815,0,0,1,2.094-.936,7.863,7.863,0,0,1,4.545,0,8.7,8.7,0,0,1,2.09.938,10.207,10.207,0,0,1,1.794,1.42,12.008,12.008,0,0,1,1.457,1.755,14.323,14.323,0,0,1,1.9,4.11A16.948,16.948,0,0,1,2081.036,468.542Zm-.2,0a16.653,16.653,0,0,0-.593-4.441,14.273,14.273,0,0,0-1.844-4.09,11.752,11.752,0,0,0-1.424-1.753,10.008,10.008,0,0,0-1.761-1.422,8.69,8.69,0,0,0-2.066-.941,8.013,8.013,0,0,0-2.252-.335,7.915,7.915,0,0,0-2.248.338,8.549,8.549,0,0,0-2.066.941,9.91,9.91,0,0,0-1.758,1.423,11.621,11.621,0,0,0-1.422,1.753,14.248,14.248,0,0,0-1.835,4.087,16.339,16.339,0,0,0-.444,2.2,16.831,16.831,0,0,0,0,4.475,16.045,16.045,0,0,0,.446,2.2,14.248,14.248,0,0,0,1.844,4.085,11.588,11.588,0,0,0,1.422,1.749,9.891,9.891,0,0,0,1.758,1.422,8.6,8.6,0,0,0,2.064.938,7.645,7.645,0,0,0,4.492,0,8.614,8.614,0,0,0,2.064-.936,9.906,9.906,0,0,0,1.762-1.42,11.752,11.752,0,0,0,1.424-1.751,14.254,14.254,0,0,0,1.849-4.085A16.654,16.654,0,0,0,2080.832,468.542Z" transform="translate(-2060.38 -455.159)" fill="url(#cb)"/><path d="M2069.335,480.411a8.407,8.407,0,0,1-2.376-.345,9.151,9.151,0,0,1-2.18-.979,10.519,10.519,0,0,1-1.859-1.47,12.322,12.322,0,0,1-1.5-1.8,14.68,14.68,0,0,1-1.958-4.216,16.482,16.482,0,0,1-.474-2.275,16.748,16.748,0,0,1,0-4.625,16.455,16.455,0,0,1,.474-2.273,14.677,14.677,0,0,1,1.963-4.214,12.286,12.286,0,0,1,1.5-1.8,10.557,10.557,0,0,1,1.859-1.467,9.04,9.04,0,0,1,2.178-.975,8.258,8.258,0,0,1,4.745,0,9.153,9.153,0,0,1,2.174.977,10.539,10.539,0,0,1,1.855,1.467,12.383,12.383,0,0,1,1.5,1.8,14.61,14.61,0,0,1,1.958,4.213,17.176,17.176,0,0,1,.633,4.58h0a17.164,17.164,0,0,1-.629,4.58,14.686,14.686,0,0,1-1.954,4.216,12.425,12.425,0,0,1-1.5,1.8,10.58,10.58,0,0,1-1.855,1.47,9.005,9.005,0,0,1-2.178.979A8.4,8.4,0,0,1,2069.335,480.411Zm0-26.041a7.486,7.486,0,0,0-2.147.322,8.2,8.2,0,0,0-1.98.9,9.567,9.567,0,0,0-1.7,1.373,11.644,11.644,0,0,0-1.38,1.7,13.911,13.911,0,0,0-1.8,3.99,15.957,15.957,0,0,0-.433,2.159,16.477,16.477,0,0,0,0,4.387,15.958,15.958,0,0,0,.435,2.159,13.9,13.9,0,0,0,1.8,3.986,11.293,11.293,0,0,0,1.38,1.7,9.492,9.492,0,0,0,1.7,1.371,8.287,8.287,0,0,0,1.978.9,7.279,7.279,0,0,0,4.289,0,8.339,8.339,0,0,0,1.982-.9,9.523,9.523,0,0,0,1.7-1.371,11.481,11.481,0,0,0,1.384-1.7,13.947,13.947,0,0,0,1.8-3.99,16.562,16.562,0,0,0,0-8.7,13.924,13.924,0,0,0-1.8-3.991,11.6,11.6,0,0,0-1.384-1.7,9.568,9.568,0,0,0-1.7-1.371,8.167,8.167,0,0,0-1.981-.9,7.531,7.531,0,0,0-2.147-.326Z" transform="translate(-2058.825 -453.625)" fill="url(#cy)"/></g><g transform="translate(1.059 7.822)"><path d="M2051.521,499.049l3.046-.023,3.046-.014,6.1-.011,6.094.011,3.048.016,3.046.025a.01.01,0,0,1,.01,0,.009.009,0,0,1-.01.009l-3.046.027-3.048.014-6.094.013-6.094-.011-3.046-.014-3.046-.023a.026.026,0,0,1-.015,0C2051.507,499.054,2051.514,499.049,2051.521,499.049Z" transform="translate(-2051.16 -498.656)" fill="url(#cz)"/><path d="M2062.16,497.9l-9.144-.025-3.193-.025-.213-.209v-.153l.007-.335.351-.013,6.094-.04,6.1-.011,9.144.029,3.393.029.009.691-.358.009-6.092.04Z" transform="translate(-2049.61 -497.09)" fill="url(#at)"/></g><g transform="translate(4.593 2.826)"><path d="M2070.736,471.178c.721-.011,1.442-.016,2.163-.023l2.164-.014h4.325l4.327.013,2.163.014c.721,0,1.442.014,2.163.027h0v.013c-.721.013-1.442.018-2.163.027l-2.163.014-4.327.013h-4.325l-2.164-.014c-.721,0-1.442-.013-2.163-.023a.015.015,0,0,1-.013-.014.016.016,0,0,1-.009-.022A.017.017,0,0,1,2070.736,471.178Z" transform="translate(-2070.375 -470.814)" fill="url(#db)"/><path d="M2077.885,470.111h-4.33l-2.885-.022c-.481,0-.963-.009-1.444-.016h-.343l-.013-.693.356-.013,1.4-.016,2.936-.022h4.329l7.279.036,1.38.018h.354l-.015.689-.345.009-1.439.018-2.886.023Z" transform="translate(-2068.87 -469.33)" fill="url(#dc)"/></g><g transform="translate(0 12.846)"><path d="M2045.743,526.969l3.3-.025,3.312-.013,6.622-.011,6.625.011,3.3.016,3.3.025h0l-3.3.027-3.3.014-6.625.013-6.622-.011-3.312-.014-3.3-.025a.013.013,0,1,1,0-.025Z" transform="translate(-2045.383 -526.576)" fill="url(#dd)"/><path d="M2057.448,525.82l-9.938-.025-3.657-.025-.013-.7.358-.014,6.624-.038,6.624-.011,9.937.027,3.459.027.211.211-.015.484-.345.009-6.622.04Z" transform="translate(-2043.84 -525.01)" fill="url(#at)"/></g><g transform="translate(1.059 17.87)"><path d="M2051.523,554.88l3.046-.025,3.046-.013,6.094-.013,6.094.013,3.048.016,3.046.025h.009c0,.011,0,.014-.009.014l-3.046.025-3.048.016-6.094.013-6.094-.013-3.046-.013-3.046-.025a.013.013,0,1,1,0-.025Z" transform="translate(-2051.161 -554.488)" fill="url(#df)"/><path d="M2062.16,553.74l-9.144-.025-3.193-.025-.213-.209v-.153l.007-.337.351-.013,6.1-.038,6.094-.011,9.144.027,3.393.029.009.693-.358.007-6.092.041Z" transform="translate(-2049.61 -552.93)" fill="url(#at)"/></g><g transform="translate(4.995 22.91)"><path d="M2090.312,582.932h-17.306a.045.045,0,0,1-.046-.045.047.047,0,0,1,.046-.047h17.306a.046.046,0,1,1,0,.092Z" transform="translate(-2072.611 -582.498)" fill="url(#dh)"/><path d="M2088.76,581.717h-17.3a.389.389,0,1,1,0-.777h17.3a.389.389,0,1,1,0,.777Z" transform="translate(-2071.06 -580.94)" fill="url(#di)"/></g></g></g></g></g><g transform="translate(117.585 25.295)"><g transform="translate(0 14.472)"><path d="M1821.54,715.295l-.053-.432h0a.114.114,0,0,1,.1-.126.117.117,0,0,1,.128.1h0l.05.443a.11.11,0,0,1-.1.121.112.112,0,0,1-.123-.1Z" transform="translate(-1662.1 -649.547)" fill="#fff"/><path d="M1818.584,700.873l-.114-.423h0a.129.129,0,0,1,.094-.158.134.134,0,0,1,.161.092h0l.108.428a.122.122,0,0,1-.014.1.127.127,0,0,1-.08.057.129.129,0,0,1-.156-.09Z" transform="translate(-1659.635 -637.699)" fill="#fff"/><path d="M1814,686.872l-.161-.409h0a.145.145,0,0,1,.084-.189.15.15,0,0,1,.193.083h0l.156.416a.142.142,0,0,1-.084.18.148.148,0,0,1-.184-.083Z" transform="translate(-1655.845 -626.199)" fill="#fff"/><path d="M1807.812,673.507l-.209-.385h0a.161.161,0,0,1,.068-.22.167.167,0,0,1,.224.067h0l.209.394a.158.158,0,0,1-.076.2.165.165,0,0,1-.212-.054Z" transform="translate(-1650.749 -615.226)" fill="#fff"/><path d="M1799.875,660.972l-.262-.36h0a.177.177,0,0,1-.039-.19.185.185,0,0,1,.332-.021h0l.261.36a.178.178,0,0,1-.062.216.186.186,0,0,1-.228-.01Z" transform="translate(-1644.199 -604.913)" fill="#fff"/><path d="M1790.348,649.9l-.314-.306h0a.194.194,0,0,1,0-.275.2.2,0,0,1,.281,0h0l.317.317a.19.19,0,0,1,0,.272.2.2,0,0,1-.275,0Z" transform="translate(-1636.373 -595.852)" fill="#fff"/><path d="M1779.05,640.44l-.367-.25h0a.209.209,0,0,1-.052-.294.218.218,0,0,1,.3-.051h0l.367.263a.206.206,0,0,1,.037.282.215.215,0,0,1-.285.056Z" transform="translate(-1627.077 -588.101)" fill="#fff"/><path d="M1766.383,633.049l-.4-.18h0a.226.226,0,0,1-.109-.3.234.234,0,0,1,.309-.107h0l.407.2a.223.223,0,0,1,.106.3.231.231,0,0,1-.306.1Z" transform="translate(-1616.675 -582.057)" fill="#fff"/><path d="M1752.648,627.784l-.424-.121h0a.243.243,0,0,1-.169-.3.249.249,0,0,1,.308-.166h0l.435.131a.24.24,0,0,1,.148.295.246.246,0,0,1-.289.166Z" transform="translate(-1605.402 -577.751)" fill="#fff"/><path d="M1738.314,624.683l-.438-.063h0a.254.254,0,0,1-.218-.288.258.258,0,0,1,.294-.214h0l.448.067a.253.253,0,0,1,.217.286.256.256,0,0,1-.292.212Z" transform="translate(-1593.652 -575.233)" fill="#fff"/><path d="M1723.8,623.495l-.444-.011h0a.262.262,0,0,1,.013-.524h0l.453.013a.261.261,0,1,1-.015.522Z" transform="translate(-1581.777 -574.286)" fill="#fff"/><path d="M1708.931,623.773l-.444.034h0a.28.28,0,0,1-.269-.108.268.268,0,0,1-.022-.284.278.278,0,0,1,.249-.147h0l.451-.031a.271.271,0,1,1,.041.54Z" transform="translate(-1569.574 -574.512)" fill="#fff"/><path d="M1694.472,625.349l-.44.072h0a.286.286,0,0,1-.328-.232.282.282,0,0,1,.237-.322h0l.448-.068a.284.284,0,0,1,.319.232.279.279,0,0,1-.229.318Z" transform="translate(-1557.763 -575.792)" fill="#fff"/><path d="M1680.083,628.048l-.433.1h0a.3.3,0,0,1-.356-.216.284.284,0,0,1,.036-.219.3.3,0,0,1,.184-.13h0l.44-.1a.294.294,0,0,1,.353.215.288.288,0,0,1-.219.346Z" transform="translate(-1545.994 -577.991)" fill="#fff"/><path d="M1665.878,631.712l-.427.126h0a.307.307,0,0,1-.384-.2.3.3,0,0,1,.2-.376h0l.433-.122a.3.3,0,0,1,.377.2.3.3,0,0,1-.2.37Z" transform="translate(-1534.373 -580.987)" fill="#fff"/><path d="M1651.941,636.148l-.42.148h0a.316.316,0,0,1-.4-.187.307.307,0,0,1,.191-.394h0l.426-.146a.315.315,0,0,1,.38.195.306.306,0,0,1-.173.385Z" transform="translate(-1522.98 -584.616)" fill="#fff"/><path d="M1638.176,641.226l-.415.164h0a.326.326,0,0,1-.421-.176.315.315,0,0,1,.179-.413h0l.42-.162a.325.325,0,0,1,.247,0,.316.316,0,0,1-.014.586Z" transform="translate(-1511.726 -588.766)" fill="#fff"/><path d="M1624.687,646.843l-.407.18h0a.336.336,0,0,1-.44-.164.324.324,0,0,1,.167-.432h0l.413-.18a.335.335,0,0,1,.419.173.323.323,0,0,1-.149.421Z" transform="translate(-1500.697 -593.366)" fill="#fff"/><path d="M1611.289,652.825l-.413.18a.344.344,0,0,1-.45-.172.333.333,0,0,1,.175-.442h0l.409-.18h0a.342.342,0,0,1,.448.171.331.331,0,0,1-.174.439Z" transform="translate(-1489.746 -598.25)" fill="#fff"/><path d="M1597.683,658.438l-.42.158a.347.347,0,0,1-.446-.194.336.336,0,0,1,.2-.437h0l.417-.156h0a.346.346,0,0,1,.444.194.335.335,0,0,1-.2.436Z" transform="translate(-1478.639 -602.845)" fill="#fff"/><path d="M1583.865,663.459l-.427.142a.349.349,0,0,1-.44-.212.339.339,0,0,1,.216-.432h0l.424-.14h0a.349.349,0,0,1,.44.212.339.339,0,0,1-.217.432Z" transform="translate(-1467.359 -606.955)" fill="#fff"/><path d="M1569.889,667.965l-.431.131a.351.351,0,0,1-.437-.227.342.342,0,0,1,.231-.428h0l.426-.13h0a.35.35,0,0,1,.428.228.34.34,0,0,1-.222.425Z" transform="translate(-1455.949 -610.646)" fill="#fff"/><path d="M1555.727,672.119l-.433.119a.356.356,0,0,1-.354-.077.34.34,0,0,1-.095-.343.348.348,0,0,1,.265-.242h0l.431-.117h0a.356.356,0,0,1,.354.077.339.339,0,0,1,.095.343.348.348,0,0,1-.265.242Z" transform="translate(-1444.377 -614.043)" fill="#fff"/><path d="M1541.586,675.887l-.435.11a.356.356,0,0,1-.435-.247.348.348,0,0,1,.251-.426h0l.435-.108h0a.355.355,0,0,1,.434.246A.347.347,0,0,1,1541.586,675.887Z" transform="translate(-1432.841 -617.128)" fill="#fff"/><path d="M1527.241,679.416l-.437.1a.361.361,0,0,1-.358-.09.344.344,0,0,1-.084-.353.354.354,0,0,1,.281-.236h0l.435-.1h0a.356.356,0,0,1,.418.264.349.349,0,0,1-.259.417Z" transform="translate(-1421.116 -620.02)" fill="#fff"/><path d="M1512.629,682.582l-.439.092a.372.372,0,0,1-.406-.068.355.355,0,0,1-.086-.4.367.367,0,0,1,.343-.224h0l.439-.09a.362.362,0,0,1,.354.1.346.346,0,0,1,.077.353A.356.356,0,0,1,1512.629,682.582Z" transform="translate(-1409.136 -622.607)" fill="#fff"/><path d="M1498.307,685.44l-.44.085a.372.372,0,0,1-.4-.082.355.355,0,0,1-.077-.39.367.367,0,0,1,.336-.222h0l.44-.083a.373.373,0,0,1,.4.079.355.355,0,0,1,.078.393A.367.367,0,0,1,1498.307,685.44Z" transform="translate(-1397.455 -624.932)" fill="#fff"/><path d="M1483.862,688.174l-.442.077a.372.372,0,0,1-.4-.087.355.355,0,0,1-.068-.4.368.368,0,0,1,.349-.211h0l.44-.076a.372.372,0,0,1,.392.091.354.354,0,0,1,.071.389.367.367,0,0,1-.336.218Z" transform="translate(-1385.66 -627.179)" fill="#fff"/><path d="M1469.564,690.7l-.442.07a.372.372,0,0,1-.37-.112.355.355,0,0,1-.062-.375.367.367,0,0,1,.315-.221h0l.44-.068a.365.365,0,0,1,.378.3.36.36,0,0,1-.261.4Z" transform="translate(-1374.019 -629.261)" fill="#fff"/><path d="M1455.039,692.91l-.446.065a.37.37,0,0,1-.42-.308.365.365,0,0,1,.314-.412h0l.442-.063a.37.37,0,0,1,.421.307.365.365,0,0,1-.313.413Z" transform="translate(-1362.185 -631.057)" fill="#fff"/><path d="M1440.246,695l-.446.058a.369.369,0,0,1-.415-.313.364.364,0,0,1,.319-.407h0l.444-.056a.369.369,0,0,1,.416.312.364.364,0,0,1-.318.408Z" transform="translate(-1350.112 -632.774)" fill="#fff"/><path d="M1425.33,696.9l-.446.052a.368.368,0,0,1-.41-.318.364.364,0,0,1,.324-.4h0l.446-.05a.368.368,0,0,1,.41.318.364.364,0,0,1-.324.4Z" transform="translate(-1337.937 -634.327)" fill="#fff"/><path d="M1410.732,698.49l-.446.045a.366.366,0,1,1-.077-.729h0l.446-.045a.367.367,0,1,1,.077.729Z" transform="translate(-1326.018 -635.625)" fill="#fff"/><path d="M1396.124,699.907l-.448.04a.369.369,0,1,1-.068-.734h0l.446-.04a.369.369,0,1,1,.068.734Z" transform="translate(-1314.091 -636.783)" fill="#fff"/><path d="M1381.494,701.122l-.448.034a.371.371,0,1,1-.059-.74h0l.446-.032a.381.381,0,0,1,.359.151.365.365,0,0,1,.031.382.379.379,0,0,1-.331.2Z" transform="translate(-1302.148 -637.775)" fill="#fff"/><path d="M1366.854,702.161l-.448.027a.373.373,0,1,1-.05-.745h0l.446-.027a.373.373,0,1,1,.05.745Z" transform="translate(-1290.196 -638.624)" fill="#fff"/><path d="M1352.213,703l-.45.022a.375.375,0,1,1-.039-.749h0l.446-.022a.375.375,0,1,1,.04.749Z" transform="translate(-1278.244 -639.305)" fill="#fff"/><path d="M1337.635,703.635l-.45.016a.378.378,0,0,1-.028-.754h0l.448-.014a.388.388,0,0,1,.359.169.372.372,0,0,1,.014.39.387.387,0,0,1-.346.194Z" transform="translate(-1266.361 -639.825)" fill="#fff"/><path d="M1322.886,704.082h-.449a.376.376,0,1,1-.017-.752h.448a.376.376,0,1,1,.02.752Z" transform="translate(-1254.306 -640.193)" fill="#fff"/><path d="M1308.241,704.329h-.449a.374.374,0,1,1,0-.749h.448a.374.374,0,1,1,0,.749Z" transform="translate(-1242.356 -640.398)" fill="#fff"/><path d="M1293.442,704.369h-.45a.382.382,0,0,1-.351-.178.367.367,0,0,1,0-.387.382.382,0,0,1,.351-.178h.448a.382.382,0,0,1,.351.178.366.366,0,0,1,0,.387.382.382,0,0,1-.351.178Z" transform="translate(-1230.253 -640.435)" fill="#fff"/><path d="M1279.026,704.159l-.449-.009a.37.37,0,0,1,.016-.74l.448.009a.379.379,0,0,1,.345.183.364.364,0,0,1-.007.385.381.381,0,0,1-.352.172Z" transform="translate(-1218.532 -640.259)" fill="#fff"/><path d="M1264.272,703.739l-.448-.016a.367.367,0,1,1,.027-.734l.448.014a.368.368,0,1,1-.026.736Z" transform="translate(-1206.474 -639.913)" fill="#fff"/><path d="M1249.628,703.081l-.448-.023a.366.366,0,1,1,.04-.731l.446.023a.366.366,0,1,1-.037.731Z" transform="translate(-1194.523 -639.371)" fill="#fff"/><path d="M1235.011,702.206l-.45-.031a.361.361,0,1,1,.053-.72l.446.029a.361.361,0,1,1-.05.72Z" transform="translate(-1182.596 -638.656)" fill="#fff"/><path d="M1220.385,701.041l-.448-.038a.362.362,0,1,1,.066-.72l.444.038a.361.361,0,1,1-.061.72Z" transform="translate(-1170.661 -637.694)" fill="#fff"/><path d="M1205.781,699.607l-.448-.047a.364.364,0,0,1-.328-.4.368.368,0,0,1,.407-.321h0l.444.047h0a.362.362,0,1,1-.077.72Z" transform="translate(-1158.741 -636.51)" fill="#fff"/><path d="M1191,697.9l-.446-.056a.368.368,0,0,1-.337-.2.354.354,0,0,1,.049-.386.371.371,0,0,1,.378-.117h0l.442.054h0a.36.36,0,0,1,.268.392.364.364,0,0,1-.358.315Z" transform="translate(-1146.635 -635.101)" fill="#fff"/><path d="M1176.4,695.885l-.446-.065a.368.368,0,0,1-.345-.208.354.354,0,0,1,.06-.393.372.372,0,0,1,.392-.1h0l.442.063h0a.368.368,0,0,1,.342.208.355.355,0,0,1-.058.391.372.372,0,0,1-.389.1Z" transform="translate(-1134.708 -633.445)" fill="#fff"/><path d="M1161.872,693.565l-.444-.074a.368.368,0,0,1-.348-.212.355.355,0,0,1,.069-.4.372.372,0,0,1,.4-.087h0l.44.072h0a.359.359,0,0,1,.228.4.365.365,0,0,1-.349.3Z" transform="translate(-1122.852 -631.535)" fill="#fff"/><path d="M1147.91,691.028l-.442-.085a.351.351,0,0,1-.261-.407.357.357,0,0,1,.4-.28h0l.438.083h0a.357.357,0,0,1,.292.226.346.346,0,0,1-.071.358.362.362,0,0,1-.357.1Z" transform="translate(-1111.545 -629.469)" fill="#fff"/><path d="M1133.474,688.007l-.439-.1a.348.348,0,0,1-.269-.415.355.355,0,0,1,.423-.264h0l.435.1h0a.348.348,0,0,1,.248.411.356.356,0,0,1-.4.269Z" transform="translate(-1099.753 -626.985)" fill="#fff"/><path d="M1119.21,684.6l-.437-.108a.346.346,0,0,1-.256-.42.353.353,0,0,1,.428-.251h0l.433.106h0a.346.346,0,0,1,.256.42.354.354,0,0,1-.428.251Z" transform="translate(-1088.116 -624.187)" fill="#fff"/><path d="M1104.9,680.733l-.433-.122a.348.348,0,0,1-.275-.241.339.339,0,0,1,.1-.349.356.356,0,0,1,.362-.071h0l.429.119h0a.342.342,0,0,1,.228.421.351.351,0,0,1-.42.239Z" transform="translate(-1076.419 -621.003)" fill="#fff"/><path d="M1091.068,676.494l-.429-.137a.34.34,0,0,1-.212-.428.35.35,0,0,1,.429-.222h0l.424.135h0a.345.345,0,0,1,.25.253.338.338,0,0,1-.111.335.354.354,0,0,1-.354.062Z" transform="translate(-1065.174 -617.531)" fill="#fff"/><path d="M1077.091,671.635l-.422-.153a.343.343,0,0,1-.243-.261.336.336,0,0,1,.124-.332.352.352,0,0,1,.358-.045h0l.418.149h0a.338.338,0,0,1,.206.436.349.349,0,0,1-.445.2Z" transform="translate(-1053.752 -613.53)" fill="#fff"/><path d="M1063.507,666.256l-.417-.171a.338.338,0,0,1-.217-.268.334.334,0,0,1,.134-.316.349.349,0,0,1,.347-.037h0l.413.167h0a.335.335,0,0,1,.185.441.346.346,0,0,1-.45.182Z" transform="translate(-1042.689 -609.117)" fill="#fff"/><path d="M1050.176,660.334l-.407-.191a.33.33,0,0,1-.161-.444.342.342,0,0,1,.452-.158h0l.4.18h0a.331.331,0,0,1,.162.443.343.343,0,0,1-.453.159Z" transform="translate(-1031.833 -604.258)" fill="#fff"/><path d="M1037.131,653.686l-.4-.212a.323.323,0,0,1-.134-.443.336.336,0,0,1,.451-.131h0l.393.207h0a.325.325,0,0,1,.03.58.34.34,0,0,1-.346,0Z" transform="translate(-1021.207 -598.806)" fill="#fff"/><path d="M1024.61,646.355l-.382-.236a.316.316,0,0,1-.078-.425.33.33,0,0,1,.425-.114h0l.378.23h0a.318.318,0,0,1,0,.576.332.332,0,0,1-.344-.036Z" transform="translate(-1011.033 -592.807)" fill="#fff"/><path d="M1012.517,638.182l-.367-.261a.309.309,0,0,1-.042-.41.323.323,0,0,1,.409-.1h0l.367.255h0a.311.311,0,0,1,.042.411.325.325,0,0,1-.409.1Z" transform="translate(-1001.193 -586.11)" fill="#fff"/><path d="M1000.93,628.966l-.343-.29a.3.3,0,0,1-.033-.432.317.317,0,0,1,.44-.032h0l.338.281h0a.3.3,0,0,1,.112.293.309.309,0,0,1-.207.238.318.318,0,0,1-.312-.062Z" transform="translate(-991.746 -578.532)" fill="#fff"/><path d="M990.348,618.982l-.316-.32a.3.3,0,0,1,.022-.408.311.311,0,0,1,.417-.009h0l.31.311h0a.3.3,0,0,1,0,.426.311.311,0,0,1-.434,0Z" transform="translate(-983.159 -570.357)" fill="#fff"/><path d="M980.544,607.8l-.283-.347a.289.289,0,0,1-.067-.3.3.3,0,0,1,.25-.192.3.3,0,0,1,.285.137h0l.277.338h0a.292.292,0,0,1-.046.416.306.306,0,0,1-.424-.045Z" transform="translate(-975.169 -561.158)" fill="#fff"/><path d="M972.145,595.832l-.242-.376a.283.283,0,0,1-.027-.3.3.3,0,0,1,.523-.007h0l.237.36h0a.282.282,0,0,1,.04.217.287.287,0,0,1-.13.18.3.3,0,0,1-.406-.088Z" transform="translate(-968.367 -551.355)" fill="#fff"/><path d="M965.161,583.077l-.2-.4a.278.278,0,0,1,.134-.374.289.289,0,0,1,.219-.012.282.282,0,0,1,.163.144h0l.195.391h0a.279.279,0,0,1-.132.376.289.289,0,0,1-.383-.13Z" transform="translate(-962.726 -540.921)" fill="#fff"/><path d="M959.678,569.491l-.147-.421a.273.273,0,0,1,.172-.349.281.281,0,0,1,.356.169h0l.145.41h0a.273.273,0,0,1-.172.349.281.281,0,0,1-.356-.169Z" transform="translate(-958.3 -529.794)" fill="#fff"/><path d="M955.829,555.359l-.1-.434a.268.268,0,0,1,.208-.319.273.273,0,0,1,.326.2h0l.1.425h0a.268.268,0,0,1-.207.32.274.274,0,0,1-.327-.2Z" transform="translate(-955.205 -518.227)" fill="#fff"/><path d="M953.591,540.887l-.048-.441a.267.267,0,0,1,.53-.054h0l.048.434h0a.26.26,0,0,1-.1.249.272.272,0,0,1-.272.03.263.263,0,0,1-.156-.221Z" transform="translate(-953.422 -506.384)" fill="#fff"/><path d="M952.892,526.177v-.439a.254.254,0,0,1,.123-.239.265.265,0,0,1,.273,0,.254.254,0,0,1,.123.239h0v.435h0a.261.261,0,0,1-.521,0Z" transform="translate(-952.89 -494.332)" fill="#fff"/><path d="M953.416,511.619l.039-.443a.253.253,0,0,1,.5.043h0l-.037.434h0a.254.254,0,0,1-.506-.041Z" transform="translate(-953.319 -482.432)" fill="#fff"/><path d="M955.2,497.151l.075-.437a.244.244,0,0,1,.279-.185.24.24,0,0,1,.2.264h0l-.072.43h0a.246.246,0,0,1-.283.2.242.242,0,0,1-.2-.277Z" transform="translate(-954.77 -470.603)" fill="#fff"/><path d="M958.128,482.8l.106-.428a.233.233,0,0,1,.281-.169.228.228,0,0,1,.173.275h0l-.1.425h0a.234.234,0,0,1-.282.17.229.229,0,0,1-.173-.276Z" transform="translate(-957.164 -458.851)" fill="#fff"/><path d="M961.964,468.717l.134-.423a.222.222,0,0,1,.276-.143.216.216,0,0,1,.146.271h0l-.128.419h0a.225.225,0,0,1-.277.146.22.22,0,0,1-.132-.105.212.212,0,0,1-.016-.166Z" transform="translate(-960.292 -447.327)" fill="#fff"/><path d="M966.68,454.882l.156-.414a.21.21,0,0,1,.269-.121.2.2,0,0,1,.124.264h0l-.15.41h0a.211.211,0,0,1-.269.123.2.2,0,0,1-.126-.264Z" transform="translate(-964.142 -436.004)" fill="#fff"/><path d="M972.111,441.307l.183-.4a.2.2,0,0,1,.26-.105.193.193,0,0,1,.107.255h0l-.172.4h0a.2.2,0,0,1-.26.105.194.194,0,0,1-.107-.255Z" transform="translate(-968.581 -424.891)" fill="#fff"/><path d="M978.094,427.995l.195-.4a.186.186,0,0,1,.246-.086.18.18,0,0,1,.088.241h0l-.183.4h0a.188.188,0,0,1-.248.088.181.181,0,0,1-.09-.243Z" transform="translate(-973.461 -413.994)" fill="#fff"/><path d="M984.67,414.935l.209-.39a.174.174,0,0,1,.233-.072.168.168,0,0,1,.073.229l-.2.391a.186.186,0,0,1-.215.037.179.179,0,0,1-.1-.192Z" transform="translate(-978.835 -403.3)" fill="#fff"/><path d="M991.624,402.149l.222-.382a.163.163,0,0,1,.214-.05.157.157,0,0,1,.067.205l-.218.383a.165.165,0,0,1-.216.055.159.159,0,0,1-.07-.208Z" transform="translate(-984.502 -392.839)" fill="#fff"/><path d="M999.018,389.5l.233-.376a.151.151,0,0,1,.2-.049.144.144,0,0,1,.05.2l-.229.378a.153.153,0,0,1-.207.052.147.147,0,0,1-.053-.2Z" transform="translate(-990.535 -382.475)" fill="#fff"/><path d="M1006.805,377.127l.244-.369a.136.136,0,0,1,.183-.04.132.132,0,0,1,.042.18l-.24.371a.141.141,0,0,1-.183.043.137.137,0,0,1-.044-.189Z" transform="translate(-996.896 -372.339)" fill="#fff"/><path d="M1014.86,364.95l.253-.36a.123.123,0,0,1,.08-.053.125.125,0,0,1,.094.02.123.123,0,0,1,.033.171l-.248.36a.13.13,0,0,1-.084.056.132.132,0,0,1-.1-.02.122.122,0,0,1-.059-.082.12.12,0,0,1,.024-.1Z" transform="translate(-1003.463 -362.365)" fill="#fff"/><path d="M1023.252,352.891l.261-.36a.115.115,0,0,1,.2.013.11.11,0,0,1-.021.117l-.257.36a.119.119,0,0,1-.161.027.111.111,0,0,1-.048-.072.11.11,0,0,1,.019-.084Z" transform="translate(-1010.321 -352.474)" fill="#fff"/></g><g transform="translate(8.917)"><path d="M1026.26,324.5l1.763,2.894,1.24-2.415Z" transform="translate(-1021.713 -315.062)" fill="#7d97f4"/><path d="M1018.291,272.05l-3.795,11.528a.86.86,0,0,1-.446.5.888.888,0,0,1-.68.035l-11.658-4.173a.339.339,0,0,1-.022-.633Z" transform="translate(-1001.483 -272.05)" fill="#91b3fa"/><path d="M1026.27,281.488l12.26-9.438-10.38,10.117.453.824Z" transform="translate(-1021.722 -272.05)" fill="#7d97f4"/><path d="M1037.1,328.664l-1.235,1.821.117-2.215Z" transform="translate(-1029.56 -318.153)" fill="#7d97f4"/></g></g></g></g></g></svg>