<?xml version="1.0" encoding="utf-8"?>
<!-- Generator: Adobe Illustrator 25.2.3, SVG Export Plug-In . SVG Version: 6.00 Build 0)  -->
<svg version="1.1" id="Capa_1" xmlns="http://www.w3.org/2000/svg" xmlns:xlink="http://www.w3.org/1999/xlink" x="0px" y="0px"
	 viewBox="0 0 902.5 177.4" style="enable-background:new 0 0 902.5 177.4;" xml:space="preserve">
<style type="text/css">
	.st0{fill:#8CD9D6;}
	.st1{enable-background:new    ;}
	.st2{fill:#1E168C;}
	.st3{fill:#7D97F4;}
	.st4{fill:#99B0F6;}
	.st5{fill:#FFFFFF;}
</style>
<g transform="translate(-22.81 -12.093)">
	<g transform="translate(22.81 12.093)">
		<path class="st0" d="M191.5,30.5L222,0v10.1l398.7-0.5c11.2,0,20.3,9.1,20.3,20.3v0.2c0,11.2-9.1,20.3-20.3,20.3L222,50.9v10.1
			L191.5,30.5z"/>
		<path class="st0" d="M735,80.4l-30.5,30.5v-10.1l-398.7,0.5c-11.2,0-20.3-9.1-20.3-20.3v-0.2c0-11.2,9.1-20.3,20.3-20.3l0,0
			L704.4,60V49.9L735,80.4z"/>
		<g class="st1">
			<path class="st2" d="M374.8,29.7h-5.7v6h-1.8V22.1h8.4v1.5h-6.6v4.6h5.7V29.7z"/>
			<path class="st2" d="M379.4,35.6h-1.7V21.4h1.7V35.6z"/>
			<path class="st2" d="M388.4,34.7c-0.7,0.8-1.6,1.2-2.9,1.2c-1.1,0-1.9-0.3-2.4-0.9c-0.6-0.6-0.8-1.5-0.8-2.8v-6.5h1.7v6.5
				c0,1.5,0.6,2.3,1.9,2.3c1.3,0,2.2-0.5,2.6-1.5v-7.3h1.7v10h-1.6L388.4,34.7z"/>
			<path class="st2" d="M394.4,25.6v11.2c0,1.9-0.9,2.9-2.6,2.9c-0.4,0-0.7-0.1-1-0.2v-1.4c0.2,0,0.5,0.1,0.8,0.1
				c0.4,0,0.7-0.1,0.9-0.3c0.2-0.2,0.3-0.6,0.3-1.1V25.6H394.4z M392.5,22.9c0-0.3,0.1-0.5,0.3-0.7c0.2-0.2,0.4-0.3,0.7-0.3
				c0.3,0,0.6,0.1,0.8,0.3c0.2,0.2,0.3,0.4,0.3,0.7c0,0.3-0.1,0.5-0.3,0.7c-0.2,0.2-0.4,0.3-0.8,0.3s-0.6-0.1-0.8-0.3
				S392.5,23.2,392.5,22.9z"/>
			<path class="st2" d="M396.7,30.5c0-1,0.2-1.9,0.6-2.7c0.4-0.8,0.9-1.4,1.6-1.8c0.7-0.4,1.5-0.6,2.4-0.6c1.4,0,2.5,0.5,3.3,1.4
				c0.8,0.9,1.3,2.2,1.3,3.8v0.1c0,1-0.2,1.9-0.6,2.6s-0.9,1.4-1.6,1.8c-0.7,0.4-1.5,0.6-2.4,0.6c-1.4,0-2.5-0.5-3.3-1.4
				c-0.8-0.9-1.3-2.2-1.3-3.8V30.5z M398.5,30.7c0,1.1,0.3,2,0.8,2.7c0.5,0.7,1.2,1,2.1,1c0.9,0,1.6-0.3,2.1-1
				c0.5-0.7,0.8-1.6,0.8-2.9c0-1.1-0.3-2-0.8-2.7c-0.5-0.7-1.2-1-2.1-1c-0.8,0-1.5,0.3-2.1,1C398.7,28.5,398.5,29.5,398.5,30.7z"/>
			<path class="st2" d="M412.3,30.5c0-1.5,0.4-2.8,1.1-3.7c0.7-0.9,1.7-1.4,2.9-1.4c1.2,0,2.1,0.4,2.8,1.2v-5.2h1.7v14.2h-1.6
				l-0.1-1.1c-0.7,0.8-1.6,1.3-2.9,1.3c-1.2,0-2.1-0.5-2.8-1.4c-0.7-1-1.1-2.2-1.1-3.7V30.5z M414,30.7c0,1.1,0.2,2,0.7,2.7
				c0.5,0.6,1.1,1,1.9,1c1.1,0,1.9-0.5,2.4-1.5v-4.6c-0.5-0.9-1.3-1.4-2.4-1.4c-0.8,0-1.5,0.3-2,1S414,29.5,414,30.7z"/>
			<path class="st2" d="M427.6,35.8c-1.4,0-2.5-0.4-3.3-1.3c-0.9-0.9-1.3-2.1-1.3-3.6v-0.3c0-1,0.2-1.9,0.6-2.7
				c0.4-0.8,0.9-1.4,1.6-1.8c0.7-0.4,1.4-0.7,2.2-0.7c1.3,0,2.3,0.4,3,1.3c0.7,0.9,1.1,2.1,1.1,3.7v0.7h-6.8c0,1,0.3,1.8,0.9,2.4
				s1.3,0.9,2.1,0.9c0.6,0,1.1-0.1,1.5-0.4c0.4-0.2,0.8-0.6,1.1-1l1,0.8C430.5,35.2,429.3,35.8,427.6,35.8z M427.4,26.8
				c-0.7,0-1.3,0.3-1.7,0.8c-0.5,0.5-0.8,1.2-0.9,2.1h5v-0.1c0-0.9-0.3-1.5-0.7-2C428.7,27.1,428.1,26.8,427.4,26.8z"/>
			<path class="st2" d="M438.2,22.9c0-0.3,0.1-0.5,0.3-0.7c0.2-0.2,0.4-0.3,0.8-0.3s0.6,0.1,0.8,0.3c0.2,0.2,0.3,0.4,0.3,0.7
				c0,0.3-0.1,0.5-0.3,0.7c-0.2,0.2-0.4,0.3-0.8,0.3s-0.6-0.1-0.8-0.3C438.3,23.5,438.2,23.2,438.2,22.9z M440.1,35.6h-1.7v-10h1.7
				V35.6z"/>
			<path class="st2" d="M444.4,25.6l0.1,1.3c0.8-1,1.8-1.4,3-1.4c2.1,0,3.2,1.2,3.2,3.6v6.6H449V29c0-0.7-0.2-1.3-0.5-1.6
				c-0.3-0.3-0.8-0.5-1.5-0.5c-0.6,0-1,0.1-1.5,0.4c-0.4,0.3-0.7,0.7-1,1.2v7.2h-1.7v-10H444.4z"/>
			<path class="st2" d="M454.1,35.6v-8.7h-1.6v-1.3h1.6v-1c0-1.1,0.3-1.9,0.9-2.5s1.4-0.9,2.4-0.9c0.4,0,0.8,0.1,1.2,0.2l-0.1,1.4
				c-0.3-0.1-0.6-0.1-0.9-0.1c-0.6,0-1,0.2-1.3,0.5c-0.3,0.3-0.5,0.8-0.5,1.4v1.1h2.1v1.3h-2.1v8.7H454.1z"/>
			<path class="st2" d="M459.4,30.5c0-1,0.2-1.9,0.6-2.7c0.4-0.8,0.9-1.4,1.6-1.8c0.7-0.4,1.5-0.6,2.4-0.6c1.4,0,2.5,0.5,3.3,1.4
				c0.8,0.9,1.3,2.2,1.3,3.8v0.1c0,1-0.2,1.9-0.6,2.6s-0.9,1.4-1.6,1.8c-0.7,0.4-1.5,0.6-2.4,0.6c-1.4,0-2.5-0.5-3.3-1.4
				c-0.8-0.9-1.3-2.2-1.3-3.8V30.5z M461.2,30.7c0,1.1,0.3,2,0.8,2.7c0.5,0.7,1.2,1,2.1,1c0.9,0,1.6-0.3,2.1-1
				c0.5-0.7,0.8-1.6,0.8-2.9c0-1.1-0.3-2-0.8-2.7c-0.5-0.7-1.2-1-2.1-1c-0.8,0-1.5,0.3-2.1,1C461.4,28.5,461.2,29.5,461.2,30.7z"/>
			<path class="st2" d="M475.6,27.1c-0.3,0-0.5-0.1-0.8-0.1c-1.1,0-1.9,0.5-2.3,1.4v7.1h-1.7v-10h1.7l0,1.2c0.6-0.9,1.4-1.3,2.4-1.3
				c0.3,0,0.6,0,0.8,0.1V27.1z"/>
			<path class="st2" d="M478.8,25.6l0,1.1c0.7-0.9,1.7-1.3,3-1.3c1.4,0,2.4,0.5,2.9,1.6c0.3-0.5,0.8-0.9,1.3-1.2
				c0.5-0.3,1.2-0.4,1.9-0.4c2.2,0,3.3,1.2,3.4,3.5v6.7h-1.7V29c0-0.7-0.2-1.3-0.5-1.6s-0.9-0.5-1.7-0.5c-0.6,0-1.2,0.2-1.6,0.6
				c-0.4,0.4-0.7,0.9-0.7,1.5v6.7h-1.7v-6.6c0-1.5-0.7-2.2-2.1-2.2c-1.1,0-1.9,0.5-2.3,1.4v7.3h-1.7v-10H478.8z"/>
			<path class="st2" d="M500,35.6c-0.1-0.2-0.2-0.6-0.2-1.1c-0.8,0.8-1.8,1.2-2.9,1.2c-1,0-1.8-0.3-2.4-0.8c-0.6-0.6-1-1.3-1-2.1
				c0-1,0.4-1.9,1.2-2.4c0.8-0.6,1.9-0.9,3.4-0.9h1.7v-0.8c0-0.6-0.2-1.1-0.5-1.4s-0.9-0.5-1.6-0.5c-0.6,0-1.1,0.2-1.5,0.5
				c-0.4,0.3-0.6,0.7-0.6,1.1h-1.7c0-0.5,0.2-1,0.5-1.5c0.4-0.5,0.8-0.8,1.4-1.1c0.6-0.3,1.3-0.4,2-0.4c1.2,0,2.1,0.3,2.7,0.9
				c0.7,0.6,1,1.4,1,2.4v4.6c0,0.9,0.1,1.7,0.4,2.2v0.1H500z M497.2,34.3c0.5,0,1-0.1,1.5-0.4s0.8-0.6,1-1.1v-2.1h-1.3
				c-2.1,0-3.2,0.6-3.2,1.8c0,0.5,0.2,1,0.5,1.3C496.1,34.2,496.6,34.3,497.2,34.3z"/>
			<path class="st2" d="M508.2,34.4c0.6,0,1.1-0.2,1.6-0.6s0.7-0.8,0.8-1.4h1.6c0,0.6-0.2,1.1-0.6,1.6c-0.4,0.5-0.9,0.9-1.5,1.2
				c-0.6,0.3-1.3,0.5-1.9,0.5c-1.4,0-2.5-0.5-3.3-1.4c-0.8-0.9-1.2-2.2-1.2-3.7v-0.3c0-1,0.2-1.8,0.5-2.6c0.4-0.8,0.9-1.4,1.5-1.8
				c0.7-0.4,1.5-0.6,2.4-0.6c1.1,0,2.1,0.3,2.8,1c0.7,0.7,1.1,1.5,1.2,2.6h-1.6c0-0.6-0.3-1.2-0.7-1.6c-0.4-0.4-1-0.6-1.6-0.6
				c-0.9,0-1.5,0.3-2,0.9c-0.5,0.6-0.7,1.5-0.7,2.7v0.3c0,1.2,0.2,2,0.7,2.7C506.6,34.1,507.3,34.4,508.2,34.4z"/>
			<path class="st2" d="M514.1,22.9c0-0.3,0.1-0.5,0.3-0.7c0.2-0.2,0.4-0.3,0.8-0.3s0.6,0.1,0.8,0.3c0.2,0.2,0.3,0.4,0.3,0.7
				c0,0.3-0.1,0.5-0.3,0.7c-0.2,0.2-0.4,0.3-0.8,0.3s-0.6-0.1-0.8-0.3C514.2,23.5,514.1,23.2,514.1,22.9z M516,35.6h-1.7v-10h1.7
				V35.6z"/>
			<path class="st2" d="M518.3,30.5c0-1,0.2-1.9,0.6-2.7c0.4-0.8,0.9-1.4,1.6-1.8c0.7-0.4,1.5-0.6,2.4-0.6c1.4,0,2.5,0.5,3.3,1.4
				c0.8,0.9,1.3,2.2,1.3,3.8v0.1c0,1-0.2,1.9-0.6,2.6c-0.4,0.8-0.9,1.4-1.6,1.8c-0.7,0.4-1.5,0.6-2.4,0.6c-1.4,0-2.5-0.5-3.3-1.4
				c-0.8-0.9-1.3-2.2-1.3-3.8V30.5z M520,30.7c0,1.1,0.3,2,0.8,2.7s1.2,1,2.1,1c0.9,0,1.6-0.3,2.1-1s0.8-1.6,0.8-2.9
				c0-1.1-0.3-2-0.8-2.7s-1.2-1-2.1-1c-0.8,0-1.5,0.3-2,1C520.2,28.5,520,29.5,520,30.7z M523.6,21.4h2.1l-2.5,2.7l-1.4,0
				L523.6,21.4z"/>
			<path class="st2" d="M531.2,25.6l0.1,1.3c0.8-1,1.8-1.4,3-1.4c2.1,0,3.2,1.2,3.2,3.6v6.6h-1.7V29c0-0.7-0.2-1.3-0.5-1.6
				c-0.3-0.3-0.8-0.5-1.5-0.5c-0.6,0-1,0.1-1.5,0.4c-0.4,0.3-0.7,0.7-1,1.2v7.2h-1.7v-10H531.2z"/>
		</g>
		<g class="st1">
			<path class="st2" d="M325.8,80.5h-5.7v6h-1.8V73h8.4v1.5h-6.6v4.6h5.7V80.5z"/>
			<path class="st2" d="M330.5,86.5h-1.7V72.3h1.7V86.5z"/>
			<path class="st2" d="M339.4,85.5c-0.7,0.8-1.6,1.2-2.9,1.2c-1.1,0-1.9-0.3-2.4-0.9c-0.6-0.6-0.8-1.5-0.8-2.8v-6.5h1.7V83
				c0,1.5,0.6,2.3,1.9,2.3c1.3,0,2.2-0.5,2.6-1.5v-7.3h1.7v10h-1.6L339.4,85.5z"/>
			<path class="st2" d="M345.5,76.5v11.2c0,1.9-0.9,2.9-2.6,2.9c-0.4,0-0.7-0.1-1-0.2V89c0.2,0,0.5,0.1,0.8,0.1
				c0.4,0,0.7-0.1,0.9-0.3c0.2-0.2,0.3-0.6,0.3-1.1V76.5H345.5z M343.6,73.8c0-0.3,0.1-0.5,0.3-0.7c0.2-0.2,0.4-0.3,0.7-0.3
				c0.3,0,0.6,0.1,0.8,0.3c0.2,0.2,0.3,0.4,0.3,0.7c0,0.3-0.1,0.5-0.3,0.7c-0.2,0.2-0.4,0.3-0.8,0.3s-0.6-0.1-0.8-0.3
				S343.6,74.1,343.6,73.8z"/>
			<path class="st2" d="M347.8,81.4c0-1,0.2-1.9,0.6-2.7c0.4-0.8,0.9-1.4,1.6-1.8c0.7-0.4,1.5-0.6,2.4-0.6c1.4,0,2.5,0.5,3.3,1.4
				c0.8,0.9,1.3,2.2,1.3,3.8v0.1c0,1-0.2,1.9-0.6,2.6c-0.4,0.8-0.9,1.4-1.6,1.8c-0.7,0.4-1.5,0.6-2.4,0.6c-1.4,0-2.5-0.5-3.3-1.4
				c-0.8-0.9-1.3-2.2-1.3-3.8V81.4z M349.5,81.6c0,1.1,0.3,2,0.8,2.7c0.5,0.7,1.2,1,2.1,1c0.9,0,1.6-0.3,2.1-1
				c0.5-0.7,0.8-1.6,0.8-2.9c0-1.1-0.3-2-0.8-2.7c-0.5-0.7-1.2-1-2.1-1c-0.8,0-1.5,0.3-2.1,1C349.8,79.4,349.5,80.3,349.5,81.6z"/>
			<path class="st2" d="M363.4,81.4c0-1.5,0.4-2.8,1.1-3.7c0.7-0.9,1.7-1.4,2.9-1.4c1.2,0,2.1,0.4,2.8,1.2v-5.2h1.7v14.2h-1.6
				l-0.1-1.1c-0.7,0.8-1.6,1.3-2.9,1.3c-1.2,0-2.1-0.5-2.8-1.4c-0.7-1-1.1-2.2-1.1-3.7V81.4z M365.1,81.6c0,1.1,0.2,2,0.7,2.7
				c0.5,0.6,1.1,1,1.9,1c1.1,0,1.9-0.5,2.4-1.5v-4.6c-0.5-0.9-1.3-1.4-2.4-1.4c-0.8,0-1.5,0.3-2,1C365.3,79.4,365.1,80.3,365.1,81.6
				z"/>
			<path class="st2" d="M378.7,86.7c-1.4,0-2.5-0.4-3.3-1.3c-0.9-0.9-1.3-2.1-1.3-3.6v-0.3c0-1,0.2-1.9,0.6-2.7
				c0.4-0.8,0.9-1.4,1.6-1.8c0.7-0.4,1.4-0.7,2.2-0.7c1.3,0,2.3,0.4,3,1.3c0.7,0.9,1.1,2.1,1.1,3.7V82h-6.8c0,1,0.3,1.8,0.9,2.4
				c0.6,0.6,1.3,0.9,2.1,0.9c0.6,0,1.1-0.1,1.5-0.4c0.4-0.2,0.8-0.6,1.1-1l1,0.8C381.6,86,380.4,86.7,378.7,86.7z M378.5,77.7
				c-0.7,0-1.3,0.3-1.7,0.8c-0.5,0.5-0.8,1.2-0.9,2.1h5v-0.1c0-0.9-0.3-1.5-0.7-2C379.7,77.9,379.2,77.7,378.5,77.7z"/>
			<path class="st2" d="M390.9,76.5l0,1.1c0.7-0.9,1.7-1.3,3-1.3c1.4,0,2.4,0.5,2.9,1.6c0.3-0.5,0.8-0.9,1.3-1.2
				c0.5-0.3,1.2-0.4,1.9-0.4c2.2,0,3.3,1.2,3.4,3.5v6.7h-1.7v-6.6c0-0.7-0.2-1.3-0.5-1.6c-0.3-0.4-0.9-0.5-1.7-0.5
				c-0.6,0-1.2,0.2-1.6,0.6c-0.4,0.4-0.7,0.9-0.7,1.5v6.7h-1.7v-6.6c0-1.5-0.7-2.2-2.1-2.2c-1.1,0-1.9,0.5-2.3,1.4v7.3h-1.7v-10
				H390.9z"/>
			<path class="st2" d="M412.1,86.5c-0.1-0.2-0.2-0.6-0.2-1.1c-0.8,0.8-1.8,1.2-2.9,1.2c-1,0-1.8-0.3-2.4-0.8c-0.6-0.6-1-1.3-1-2.1
				c0-1,0.4-1.9,1.2-2.4c0.8-0.6,1.9-0.9,3.4-0.9h1.7v-0.8c0-0.6-0.2-1.1-0.5-1.4c-0.4-0.4-0.9-0.5-1.6-0.5c-0.6,0-1.1,0.2-1.5,0.5
				c-0.4,0.3-0.6,0.7-0.6,1.1h-1.7c0-0.5,0.2-1,0.5-1.5c0.4-0.5,0.8-0.8,1.4-1.1c0.6-0.3,1.3-0.4,2-0.4c1.2,0,2.1,0.3,2.7,0.9
				c0.7,0.6,1,1.4,1,2.4v4.6c0,0.9,0.1,1.7,0.4,2.2v0.1H412.1z M409.3,85.2c0.5,0,1-0.1,1.5-0.4s0.8-0.6,1-1.1v-2.1h-1.3
				c-2.1,0-3.2,0.6-3.2,1.8c0,0.5,0.2,1,0.5,1.3C408.3,85,408.7,85.2,409.3,85.2z"/>
			<path class="st2" d="M418.6,74v2.4h1.9v1.3h-1.9V84c0,0.4,0.1,0.7,0.3,0.9s0.5,0.3,0.9,0.3c0.2,0,0.5,0,0.8-0.1v1.4
				c-0.5,0.1-0.9,0.2-1.3,0.2c-0.8,0-1.3-0.2-1.7-0.7c-0.4-0.5-0.6-1.1-0.6-2v-6.2h-1.8v-1.3h1.8V74H418.6z"/>
			<path class="st2" d="M426.6,86.7c-1.4,0-2.5-0.4-3.3-1.3c-0.9-0.9-1.3-2.1-1.3-3.6v-0.3c0-1,0.2-1.9,0.6-2.7
				c0.4-0.8,0.9-1.4,1.6-1.8c0.7-0.4,1.4-0.7,2.2-0.7c1.3,0,2.3,0.4,3,1.3c0.7,0.9,1.1,2.1,1.1,3.7V82h-6.8c0,1,0.3,1.8,0.9,2.4
				c0.6,0.6,1.3,0.9,2.1,0.9c0.6,0,1.1-0.1,1.5-0.4c0.4-0.2,0.8-0.6,1.1-1l1,0.8C429.6,86,428.3,86.7,426.6,86.7z M426.4,77.7
				c-0.7,0-1.3,0.3-1.7,0.8c-0.5,0.5-0.8,1.2-0.9,2.1h5v-0.1c0-0.9-0.3-1.5-0.7-2C427.7,77.9,427.1,77.7,426.4,77.7z"/>
			<path class="st2" d="M437.4,78c-0.3,0-0.5-0.1-0.8-0.1c-1.1,0-1.9,0.5-2.3,1.4v7.1h-1.7v-10h1.7l0,1.2c0.6-0.9,1.4-1.3,2.4-1.3
				c0.3,0,0.6,0,0.8,0.1V78z"/>
			<path class="st2" d="M439,73.8c0-0.3,0.1-0.5,0.3-0.7c0.2-0.2,0.4-0.3,0.8-0.3s0.6,0.1,0.8,0.3c0.2,0.2,0.3,0.4,0.3,0.7
				c0,0.3-0.1,0.5-0.3,0.7c-0.2,0.2-0.4,0.3-0.8,0.3s-0.6-0.1-0.8-0.3C439.1,74.3,439,74.1,439,73.8z M440.8,86.5h-1.7v-10h1.7V86.5
				z"/>
			<path class="st2" d="M449.8,86.5c-0.1-0.2-0.2-0.6-0.2-1.1c-0.8,0.8-1.8,1.2-2.9,1.2c-1,0-1.8-0.3-2.4-0.8c-0.6-0.6-1-1.3-1-2.1
				c0-1,0.4-1.9,1.2-2.4c0.8-0.6,1.9-0.9,3.4-0.9h1.7v-0.8c0-0.6-0.2-1.1-0.5-1.4c-0.4-0.4-0.9-0.5-1.6-0.5c-0.6,0-1.1,0.2-1.5,0.5
				c-0.4,0.3-0.6,0.7-0.6,1.1h-1.7c0-0.5,0.2-1,0.5-1.5c0.4-0.5,0.8-0.8,1.4-1.1c0.6-0.3,1.3-0.4,2-0.4c1.2,0,2.1,0.3,2.7,0.9
				c0.7,0.6,1,1.4,1,2.4v4.6c0,0.9,0.1,1.7,0.4,2.2v0.1H449.8z M446.9,85.2c0.5,0,1-0.1,1.5-0.4s0.8-0.6,1-1.1v-2.1h-1.3
				c-2.1,0-3.2,0.6-3.2,1.8c0,0.5,0.2,1,0.5,1.3C445.9,85,446.4,85.2,446.9,85.2z"/>
			<path class="st2" d="M455.8,86.5h-1.7V72.3h1.7V86.5z"/>
			<path class="st2" d="M462.7,86.7c-1.4,0-2.5-0.4-3.3-1.3c-0.9-0.9-1.3-2.1-1.3-3.6v-0.3c0-1,0.2-1.9,0.6-2.7
				c0.4-0.8,0.9-1.4,1.6-1.8c0.7-0.4,1.4-0.7,2.2-0.7c1.3,0,2.3,0.4,3,1.3c0.7,0.9,1.1,2.1,1.1,3.7V82h-6.8c0,1,0.3,1.8,0.9,2.4
				c0.6,0.6,1.3,0.9,2.1,0.9c0.6,0,1.1-0.1,1.5-0.4c0.4-0.2,0.8-0.6,1.1-1l1,0.8C465.6,86,464.4,86.7,462.7,86.7z M462.5,77.7
				c-0.7,0-1.3,0.3-1.7,0.8c-0.5,0.5-0.8,1.2-0.9,2.1h5v-0.1c0-0.9-0.3-1.5-0.7-2C463.8,77.9,463.2,77.7,462.5,77.7z"/>
			<path class="st2" d="M474.4,83.8c0-0.5-0.2-0.8-0.5-1.1s-1-0.5-1.8-0.7c-0.9-0.2-1.6-0.4-2.1-0.7c-0.5-0.3-0.9-0.6-1.1-0.9
				c-0.2-0.4-0.4-0.8-0.4-1.3c0-0.8,0.3-1.5,1-2.1c0.7-0.6,1.6-0.9,2.7-0.9c1.1,0,2.1,0.3,2.8,0.9c0.7,0.6,1.1,1.3,1.1,2.3h-1.7
				c0-0.5-0.2-0.9-0.6-1.2c-0.4-0.3-0.9-0.5-1.5-0.5c-0.6,0-1.1,0.1-1.5,0.4s-0.5,0.6-0.5,1.1c0,0.4,0.2,0.7,0.5,0.9
				c0.3,0.2,0.9,0.4,1.8,0.6c0.9,0.2,1.6,0.4,2.1,0.7c0.5,0.3,0.9,0.6,1.2,1s0.4,0.8,0.4,1.4c0,0.9-0.4,1.6-1.1,2.2
				s-1.6,0.8-2.8,0.8c-0.8,0-1.5-0.1-2.1-0.4c-0.6-0.3-1.1-0.7-1.5-1.2c-0.3-0.5-0.5-1.1-0.5-1.7h1.7c0,0.6,0.3,1,0.7,1.4
				c0.4,0.3,1,0.5,1.7,0.5c0.6,0,1.2-0.1,1.6-0.4C474.2,84.6,474.4,84.3,474.4,83.8z"/>
			<path class="st2" d="M486.4,84l2.3-7.5h1.8l-4,11.6c-0.6,1.7-1.6,2.5-3,2.5l-0.3,0l-0.6-0.1V89l0.5,0c0.6,0,1-0.1,1.4-0.4
				c0.3-0.2,0.6-0.7,0.8-1.3l0.4-1l-3.6-9.9h1.9L486.4,84z"/>
			<path class="st2" d="M505.3,81.6c0,1.5-0.3,2.8-1,3.7c-0.7,0.9-1.6,1.4-2.8,1.4c-1.2,0-2.2-0.4-2.9-1.2v4.8h-1.7V76.5h1.6
				l0.1,1.1c0.7-0.9,1.7-1.3,2.9-1.3c1.2,0,2.2,0.5,2.9,1.4c0.7,0.9,1.1,2.2,1.1,3.8V81.6z M503.5,81.4c0-1.1-0.2-2-0.7-2.7
				c-0.5-0.7-1.1-1-2-1c-1,0-1.8,0.5-2.3,1.4v4.8c0.5,0.9,1.3,1.4,2.4,1.4c0.8,0,1.5-0.3,2-1C503.3,83.7,503.5,82.7,503.5,81.4z"/>
		</g>
		<g class="st1">
			<path class="st2" d="M512.3,78c-0.3,0-0.5-0.1-0.8-0.1c-1.1,0-1.9,0.5-2.3,1.4v7.1h-1.7v-10h1.7l0,1.2c0.6-0.9,1.4-1.3,2.4-1.3
				c0.3,0,0.6,0,0.8,0.1V78z"/>
		</g>
		<g class="st1">
			<path class="st2" d="M513.2,81.4c0-1,0.2-1.9,0.6-2.7c0.4-0.8,0.9-1.4,1.6-1.8c0.7-0.4,1.5-0.6,2.4-0.6c1.4,0,2.5,0.5,3.3,1.4
				c0.8,0.9,1.3,2.2,1.3,3.8v0.1c0,1-0.2,1.9-0.6,2.6s-0.9,1.4-1.6,1.8c-0.7,0.4-1.5,0.6-2.4,0.6c-1.4,0-2.5-0.5-3.3-1.4
				c-0.8-0.9-1.3-2.2-1.3-3.8V81.4z M515,81.6c0,1.1,0.3,2,0.8,2.7c0.5,0.7,1.2,1,2.1,1c0.9,0,1.6-0.3,2.1-1
				c0.5-0.7,0.8-1.6,0.8-2.9c0-1.1-0.3-2-0.8-2.7c-0.5-0.7-1.2-1-2.1-1c-0.8,0-1.5,0.3-2.1,1C515.2,79.4,515,80.3,515,81.6z"/>
			<path class="st2" d="M524.1,81.4c0-1.5,0.4-2.8,1.1-3.7c0.7-0.9,1.7-1.4,2.9-1.4c1.2,0,2.1,0.4,2.8,1.2v-5.2h1.7v14.2H531
				l-0.1-1.1c-0.7,0.8-1.6,1.3-2.9,1.3c-1.2,0-2.1-0.5-2.8-1.4c-0.7-1-1.1-2.2-1.1-3.7V81.4z M525.8,81.6c0,1.1,0.2,2,0.7,2.7
				c0.5,0.6,1.1,1,1.9,1c1.1,0,1.9-0.5,2.4-1.5v-4.6c-0.5-0.9-1.3-1.4-2.4-1.4c-0.8,0-1.5,0.3-2,1C526.1,79.4,525.8,80.3,525.8,81.6
				z"/>
			<path class="st2" d="M541.4,85.5c-0.7,0.8-1.6,1.2-2.9,1.2c-1.1,0-1.9-0.3-2.4-0.9c-0.6-0.6-0.8-1.5-0.8-2.8v-6.5h1.7V83
				c0,1.5,0.6,2.3,1.9,2.3c1.3,0,2.2-0.5,2.6-1.5v-7.3h1.7v10h-1.6L541.4,85.5z"/>
			<path class="st2" d="M549.7,85.3c0.6,0,1.1-0.2,1.6-0.6s0.7-0.8,0.8-1.4h1.6c0,0.6-0.2,1.1-0.6,1.6c-0.4,0.5-0.9,0.9-1.5,1.2
				c-0.6,0.3-1.3,0.5-1.9,0.5c-1.4,0-2.5-0.5-3.3-1.4c-0.8-0.9-1.2-2.2-1.2-3.7v-0.3c0-1,0.2-1.8,0.5-2.6c0.4-0.8,0.9-1.4,1.5-1.8
				c0.7-0.4,1.5-0.6,2.4-0.6c1.1,0,2.1,0.3,2.8,1c0.7,0.7,1.1,1.5,1.2,2.6h-1.6c0-0.6-0.3-1.2-0.7-1.6c-0.4-0.4-1-0.6-1.6-0.6
				c-0.9,0-1.5,0.3-2,0.9c-0.5,0.6-0.7,1.5-0.7,2.7v0.3c0,1.2,0.2,2,0.7,2.7C548.2,85,548.8,85.3,549.7,85.3z"/>
			<path class="st2" d="M558,74v2.4h1.9v1.3H558V84c0,0.4,0.1,0.7,0.3,0.9s0.5,0.3,0.9,0.3c0.2,0,0.5,0,0.8-0.1v1.4
				c-0.5,0.1-0.9,0.2-1.3,0.2c-0.8,0-1.3-0.2-1.7-0.7c-0.4-0.5-0.6-1.1-0.6-2v-6.2h-1.8v-1.3h1.8V74H558z"/>
			<path class="st2" d="M561.2,81.4c0-1,0.2-1.9,0.6-2.7c0.4-0.8,0.9-1.4,1.6-1.8c0.7-0.4,1.5-0.6,2.4-0.6c1.4,0,2.5,0.5,3.3,1.4
				c0.8,0.9,1.3,2.2,1.3,3.8v0.1c0,1-0.2,1.9-0.6,2.6c-0.4,0.8-0.9,1.4-1.6,1.8c-0.7,0.4-1.5,0.6-2.4,0.6c-1.4,0-2.5-0.5-3.3-1.4
				c-0.8-0.9-1.3-2.2-1.3-3.8V81.4z M562.9,81.6c0,1.1,0.3,2,0.8,2.7s1.2,1,2.1,1c0.9,0,1.6-0.3,2.1-1s0.8-1.6,0.8-2.9
				c0-1.1-0.3-2-0.8-2.7s-1.2-1-2.1-1c-0.8,0-1.5,0.3-2,1C563.2,79.4,562.9,80.3,562.9,81.6z"/>
			<path class="st2" d="M578.4,83.8c0-0.5-0.2-0.8-0.5-1.1c-0.3-0.3-1-0.5-1.8-0.7s-1.6-0.4-2.1-0.7c-0.5-0.3-0.9-0.6-1.1-0.9
				c-0.2-0.4-0.4-0.8-0.4-1.3c0-0.8,0.3-1.5,1-2.1c0.7-0.6,1.6-0.9,2.7-0.9c1.1,0,2.1,0.3,2.8,0.9c0.7,0.6,1.1,1.3,1.1,2.3h-1.7
				c0-0.5-0.2-0.9-0.6-1.2c-0.4-0.3-0.9-0.5-1.5-0.5c-0.6,0-1.1,0.1-1.5,0.4s-0.5,0.6-0.5,1.1c0,0.4,0.2,0.7,0.5,0.9
				s0.9,0.4,1.8,0.6c0.9,0.2,1.6,0.4,2.1,0.7c0.5,0.3,0.9,0.6,1.2,1c0.3,0.4,0.4,0.8,0.4,1.4c0,0.9-0.4,1.6-1.1,2.2
				c-0.7,0.5-1.6,0.8-2.8,0.8c-0.8,0-1.5-0.1-2.1-0.4s-1.1-0.7-1.5-1.2c-0.3-0.5-0.5-1.1-0.5-1.7h1.7c0,0.6,0.3,1,0.7,1.4
				s1,0.5,1.7,0.5c0.6,0,1.2-0.1,1.6-0.4S578.4,84.3,578.4,83.8z"/>
		</g>
		<g transform="translate(0 123.121)">
			<path class="st3" d="M257,0H88.9l28.9,26.6L88.9,54.3H257l28.9-27.6L257,0z"/>
			<path class="st2" d="M80.3,0H0v54.3h80.3l28.9-27.7L80.3,0z"/>
			<path class="st4" d="M392.6,0H266.4l28.9,26.6l-28.9,27.6h126.2l28.9-27.6L392.6,0z"/>
			<g class="st1">
				<path class="st5" d="M14.9,25.2v4.5h-1.5V18.3h4.2c1.2,0,2.2,0.3,2.9,1c0.7,0.6,1.1,1.5,1.1,2.5c0,1.1-0.3,2-1,2.6
					c-0.7,0.6-1.7,0.9-3,0.9H14.9z M14.9,24h2.7c0.8,0,1.4-0.2,1.8-0.6c0.4-0.4,0.6-0.9,0.6-1.6c0-0.7-0.2-1.2-0.6-1.6
					c-0.4-0.4-1-0.6-1.8-0.6h-2.8V24z"/>
			</g>
			<g class="st1">
				<path class="st5" d="M27.4,22.5c-0.2,0-0.5-0.1-0.7-0.1c-0.9,0-1.6,0.4-1.9,1.2v6h-1.4v-8.5h1.4l0,1c0.5-0.8,1.1-1.1,2-1.1
					c0.3,0,0.5,0,0.6,0.1V22.5z"/>
				<path class="st5" d="M28,25.3c0-0.8,0.2-1.6,0.5-2.2c0.3-0.7,0.8-1.2,1.4-1.5c0.6-0.4,1.2-0.5,2-0.5c1.2,0,2.1,0.4,2.8,1.2
					s1.1,1.9,1.1,3.2v0.1c0,0.8-0.2,1.6-0.5,2.2c-0.3,0.7-0.8,1.2-1.4,1.5s-1.3,0.5-2,0.5c-1.1,0-2.1-0.4-2.8-1.2S28,26.7,28,25.4
					V25.3z M29.5,25.5c0,0.9,0.2,1.7,0.7,2.3c0.4,0.6,1,0.9,1.7,0.9c0.7,0,1.3-0.3,1.8-0.9c0.4-0.6,0.6-1.4,0.6-2.4
					c0-0.9-0.2-1.7-0.7-2.3c-0.4-0.6-1-0.9-1.8-0.9c-0.7,0-1.3,0.3-1.7,0.9S29.5,24.4,29.5,25.5z"/>
				<path class="st5" d="M40,27.7l2.1-6.5h1.5l-3,8.5h-1.1l-3.1-8.5h1.5L40,27.7z"/>
			</g>
			<g class="st1">
				<path class="st5" d="M48.3,29.8c-1.1,0-2.1-0.4-2.8-1.1s-1.1-1.8-1.1-3v-0.3c0-0.8,0.2-1.6,0.5-2.2s0.8-1.2,1.3-1.5
					c0.6-0.4,1.2-0.6,1.9-0.6c1.1,0,2,0.4,2.6,1.1s0.9,1.8,0.9,3.1v0.6h-5.7c0,0.8,0.3,1.5,0.7,2c0.5,0.5,1.1,0.8,1.8,0.8
					c0.5,0,0.9-0.1,1.3-0.3c0.4-0.2,0.7-0.5,0.9-0.8l0.9,0.7C50.8,29.2,49.8,29.8,48.3,29.8z M48.2,22.2c-0.6,0-1.1,0.2-1.5,0.6
					c-0.4,0.4-0.6,1-0.7,1.8h4.2v-0.1c0-0.7-0.2-1.3-0.6-1.7C49.2,22.4,48.8,22.2,48.2,22.2z"/>
				<path class="st5" d="M56.8,29.8c-1.1,0-2.1-0.4-2.8-1.1s-1.1-1.8-1.1-3v-0.3c0-0.8,0.2-1.6,0.5-2.2s0.8-1.2,1.3-1.5
					c0.6-0.4,1.2-0.6,1.9-0.6c1.1,0,2,0.4,2.6,1.1s0.9,1.8,0.9,3.1v0.6h-5.7c0,0.8,0.3,1.5,0.7,2c0.5,0.5,1.1,0.8,1.8,0.8
					c0.5,0,0.9-0.1,1.3-0.3c0.4-0.2,0.7-0.5,0.9-0.8l0.9,0.7C59.3,29.2,58.2,29.8,56.8,29.8z M56.6,22.2c-0.6,0-1.1,0.2-1.5,0.6
					c-0.4,0.4-0.6,1-0.7,1.8h4.2v-0.1c0-0.7-0.2-1.3-0.6-1.7C57.7,22.4,57.2,22.2,56.6,22.2z"/>
				<path class="st5" d="M61.4,25.3c0-1.3,0.3-2.3,0.9-3.1c0.6-0.8,1.4-1.2,2.4-1.2c1,0,1.8,0.3,2.4,1v-4.4h1.4v12h-1.3l-0.1-0.9
					c-0.6,0.7-1.4,1.1-2.4,1.1c-1,0-1.8-0.4-2.4-1.2s-0.9-1.8-0.9-3.1V25.3z M62.9,25.5c0,1,0.2,1.7,0.6,2.2
					c0.4,0.5,0.9,0.8,1.6,0.8c0.9,0,1.6-0.4,2-1.2v-3.9c-0.4-0.8-1.1-1.2-2-1.2c-0.7,0-1.3,0.3-1.7,0.8
					C63.1,23.6,62.9,24.4,62.9,25.5z"/>
				<path class="st5" d="M70.4,25.3c0-0.8,0.2-1.6,0.5-2.2c0.3-0.7,0.8-1.2,1.4-1.5c0.6-0.4,1.2-0.5,2-0.5c1.2,0,2.1,0.4,2.8,1.2
					s1.1,1.9,1.1,3.2v0.1c0,0.8-0.2,1.6-0.5,2.2c-0.3,0.7-0.8,1.2-1.4,1.5s-1.3,0.5-2,0.5c-1.1,0-2.1-0.4-2.8-1.2s-1.1-1.9-1.1-3.2
					V25.3z M71.9,25.5c0,0.9,0.2,1.7,0.7,2.3c0.4,0.6,1,0.9,1.7,0.9c0.7,0,1.3-0.3,1.8-0.9c0.4-0.6,0.6-1.4,0.6-2.4
					c0-0.9-0.2-1.7-0.7-2.3c-0.4-0.6-1-0.9-1.8-0.9c-0.7,0-1.3,0.3-1.7,0.9S71.9,24.4,71.9,25.5z"/>
				<path class="st5" d="M84,22.5c-0.2,0-0.5-0.1-0.7-0.1c-0.9,0-1.6,0.4-1.9,1.2v6h-1.4v-8.5h1.4l0,1c0.5-0.8,1.1-1.1,2-1.1
					c0.3,0,0.5,0,0.6,0.1V22.5z"/>
			</g>
			<g class="st1">
				<path class="st5" d="M314,24.6h-4.8v5h-1.5V18.3h7v1.2h-5.5v3.9h4.8V24.6z"/>
			</g>
			<g class="st1">
				<path class="st5" d="M321.3,29.6c-0.1-0.2-0.2-0.5-0.2-0.9c-0.7,0.7-1.5,1-2.4,1c-0.8,0-1.5-0.2-2.1-0.7
					c-0.5-0.5-0.8-1.1-0.8-1.8c0-0.9,0.3-1.6,1-2.1c0.7-0.5,1.6-0.7,2.8-0.7h1.4v-0.7c0-0.5-0.2-0.9-0.5-1.2
					c-0.3-0.3-0.7-0.4-1.3-0.4c-0.5,0-0.9,0.1-1.3,0.4c-0.3,0.3-0.5,0.6-0.5,0.9H316c0-0.4,0.1-0.8,0.4-1.2c0.3-0.4,0.7-0.7,1.2-0.9
					c0.5-0.2,1.1-0.3,1.7-0.3c1,0,1.7,0.2,2.3,0.7c0.6,0.5,0.8,1.2,0.9,2v3.9c0,0.8,0.1,1.4,0.3,1.9v0.1H321.3z M318.9,28.5
					c0.5,0,0.9-0.1,1.3-0.4s0.7-0.5,0.9-0.9v-1.7h-1.1c-1.8,0-2.7,0.5-2.7,1.6c0,0.5,0.2,0.8,0.5,1.1
					C318,28.4,318.4,28.5,318.9,28.5z"/>
				<path class="st5" d="M331.9,25.5c0,1.3-0.3,2.3-0.9,3.1s-1.4,1.2-2.4,1.2c-1.1,0-1.9-0.4-2.5-1.1l-0.1,1h-1.3v-12h1.4v4.5
					c0.6-0.7,1.4-1.1,2.4-1.1c1,0,1.8,0.4,2.4,1.2s0.9,1.8,0.9,3.2V25.5z M330.5,25.3c0-1-0.2-1.7-0.6-2.3c-0.4-0.5-0.9-0.8-1.6-0.8
					c-1,0-1.6,0.4-2.1,1.3v3.7c0.4,0.9,1.1,1.3,2.1,1.3c0.7,0,1.2-0.3,1.6-0.8C330.3,27.2,330.5,26.4,330.5,25.3z"/>
				<path class="st5" d="M337.8,22.5c-0.2,0-0.5-0.1-0.7-0.1c-0.9,0-1.6,0.4-1.9,1.2v6h-1.4v-8.5h1.4l0,1c0.5-0.8,1.1-1.1,2-1.1
					c0.3,0,0.5,0,0.6,0.1V22.5z"/>
				<path class="st5" d="M339.2,18.9c0-0.2,0.1-0.4,0.2-0.6c0.1-0.2,0.4-0.2,0.6-0.2s0.5,0.1,0.6,0.2c0.1,0.2,0.2,0.4,0.2,0.6
					s-0.1,0.4-0.2,0.6c-0.1,0.2-0.4,0.2-0.6,0.2s-0.5-0.1-0.6-0.2C339.2,19.4,339.2,19.2,339.2,18.9z M340.7,29.6h-1.4v-8.5h1.4
					V29.6z"/>
				<path class="st5" d="M346.4,28.6c0.5,0,1-0.2,1.4-0.5c0.4-0.3,0.6-0.7,0.6-1.2h1.4c0,0.5-0.2,0.9-0.5,1.4
					c-0.3,0.4-0.7,0.8-1.2,1c-0.5,0.3-1.1,0.4-1.6,0.4c-1.2,0-2.1-0.4-2.7-1.2s-1-1.8-1-3.2v-0.2c0-0.8,0.2-1.6,0.5-2.2
					c0.3-0.6,0.7-1.1,1.3-1.5c0.6-0.4,1.2-0.5,2-0.5c0.9,0,1.7,0.3,2.4,0.9c0.6,0.6,1,1.3,1,2.2h-1.4c0-0.5-0.2-1-0.6-1.3
					c-0.4-0.4-0.8-0.5-1.4-0.5c-0.7,0-1.3,0.3-1.7,0.8c-0.4,0.5-0.6,1.3-0.6,2.3v0.3c0,1,0.2,1.7,0.6,2.2
					C345.1,28.4,345.7,28.6,346.4,28.6z"/>
				<path class="st5" d="M356.6,29.6c-0.1-0.2-0.2-0.5-0.2-0.9c-0.7,0.7-1.5,1-2.4,1c-0.8,0-1.5-0.2-2.1-0.7
					c-0.5-0.5-0.8-1.1-0.8-1.8c0-0.9,0.3-1.6,1-2.1c0.7-0.5,1.6-0.7,2.8-0.7h1.4v-0.7c0-0.5-0.2-0.9-0.5-1.2
					c-0.3-0.3-0.7-0.4-1.3-0.4c-0.5,0-0.9,0.1-1.3,0.4c-0.3,0.3-0.5,0.6-0.5,0.9h-1.5c0-0.4,0.1-0.8,0.4-1.2
					c0.3-0.4,0.7-0.7,1.2-0.9c0.5-0.2,1.1-0.3,1.7-0.3c1,0,1.7,0.2,2.3,0.7c0.6,0.5,0.8,1.2,0.9,2v3.9c0,0.8,0.1,1.4,0.3,1.9v0.1
					H356.6z M354.2,28.5c0.5,0,0.9-0.1,1.3-0.4s0.7-0.5,0.9-0.9v-1.7h-1.1c-1.8,0-2.7,0.5-2.7,1.6c0,0.5,0.2,0.8,0.5,1.1
					C353.4,28.4,353.8,28.5,354.2,28.5z"/>
				<path class="st5" d="M363.5,28.6c0.5,0,1-0.2,1.4-0.5c0.4-0.3,0.6-0.7,0.6-1.2h1.4c0,0.5-0.2,0.9-0.5,1.4
					c-0.3,0.4-0.7,0.8-1.2,1c-0.5,0.3-1.1,0.4-1.6,0.4c-1.2,0-2.1-0.4-2.7-1.2s-1-1.8-1-3.2v-0.2c0-0.8,0.2-1.6,0.5-2.2
					c0.3-0.6,0.7-1.1,1.3-1.5c0.6-0.4,1.2-0.5,2-0.5c0.9,0,1.7,0.3,2.4,0.9c0.6,0.6,1,1.3,1,2.2h-1.4c0-0.5-0.2-1-0.6-1.3
					c-0.4-0.4-0.8-0.5-1.4-0.5c-0.7,0-1.3,0.3-1.7,0.8c-0.4,0.5-0.6,1.3-0.6,2.3v0.3c0,1,0.2,1.7,0.6,2.2
					C362.2,28.4,362.8,28.6,363.5,28.6z"/>
				<path class="st5" d="M368.5,18.9c0-0.2,0.1-0.4,0.2-0.6c0.1-0.2,0.4-0.2,0.6-0.2s0.5,0.1,0.6,0.2c0.1,0.2,0.2,0.4,0.2,0.6
					s-0.1,0.4-0.2,0.6c-0.1,0.2-0.4,0.2-0.6,0.2s-0.5-0.1-0.6-0.2C368.6,19.4,368.5,19.2,368.5,18.9z M370.1,29.6h-1.4v-8.5h1.4
					V29.6z"/>
				<path class="st5" d="M372,25.3c0-0.8,0.2-1.6,0.5-2.2c0.3-0.7,0.8-1.2,1.4-1.5c0.6-0.4,1.2-0.5,2-0.5c1.2,0,2.1,0.4,2.8,1.2
					s1.1,1.9,1.1,3.2v0.1c0,0.8-0.2,1.6-0.5,2.2c-0.3,0.7-0.8,1.2-1.4,1.5s-1.3,0.5-2,0.5c-1.1,0-2.1-0.4-2.8-1.2s-1.1-1.9-1.1-3.2
					V25.3z M373.4,25.5c0,0.9,0.2,1.7,0.7,2.3c0.4,0.6,1,0.9,1.7,0.9c0.7,0,1.3-0.3,1.8-0.9c0.4-0.6,0.6-1.4,0.6-2.4
					c0-0.9-0.2-1.7-0.7-2.3c-0.4-0.6-1-0.9-1.8-0.9c-0.7,0-1.3,0.3-1.7,0.9S373.4,24.4,373.4,25.5z M376.5,17.6h1.8l-2.1,2.3l-1.2,0
					L376.5,17.6z"/>
				<path class="st5" d="M382.9,21.2l0,1.1c0.6-0.8,1.5-1.2,2.5-1.2c1.8,0,2.7,1,2.7,3v5.6h-1.4V24c0-0.6-0.1-1.1-0.4-1.4
					s-0.7-0.4-1.3-0.4c-0.5,0-0.9,0.1-1.2,0.4c-0.4,0.2-0.6,0.6-0.8,1v6h-1.4v-8.5H382.9z"/>
			</g>
			<path class="st3" d="M529.3,0H403.2L432,26.6l-28.9,27.6h126.2l28.9-27.6L529.3,0z"/>
			<g class="st1">
				<path class="st5" d="M450.8,26.7H446l-1.1,3h-1.5l4.3-11.4h1.3l4.4,11.4h-1.5L450.8,26.7z M446.5,25.4h3.9l-1.9-5.3L446.5,25.4z
					"/>
				<path class="st5" d="M456.3,29.6h-1.4v-12h1.4V29.6z"/>
				<path class="st5" d="M459.9,21.2l0,0.9c0.6-0.7,1.5-1.1,2.5-1.1c1.2,0,2,0.5,2.4,1.4c0.3-0.4,0.6-0.7,1.1-1s1-0.4,1.6-0.4
					c1.9,0,2.8,1,2.8,2.9v5.7H469v-5.6c0-0.6-0.1-1.1-0.4-1.4s-0.7-0.4-1.4-0.4c-0.5,0-1,0.2-1.3,0.5s-0.6,0.8-0.6,1.3v5.6h-1.5
					v-5.5c0-1.2-0.6-1.8-1.8-1.8c-0.9,0-1.6,0.4-1.9,1.2v6.2h-1.4v-8.5H459.9z"/>
				<path class="st5" d="M477.8,29.6c-0.1-0.2-0.2-0.5-0.2-0.9c-0.7,0.7-1.5,1-2.4,1c-0.8,0-1.5-0.2-2.1-0.7s-0.8-1.1-0.8-1.8
					c0-0.9,0.3-1.6,1-2.1s1.6-0.7,2.8-0.7h1.4v-0.7c0-0.5-0.2-0.9-0.5-1.2s-0.7-0.4-1.3-0.4c-0.5,0-0.9,0.1-1.3,0.4
					s-0.5,0.6-0.5,0.9h-1.5c0-0.4,0.1-0.8,0.4-1.2s0.7-0.7,1.2-0.9s1.1-0.3,1.7-0.3c1,0,1.7,0.2,2.3,0.7s0.8,1.2,0.9,2v3.9
					c0,0.8,0.1,1.4,0.3,1.9v0.1H477.8z M475.4,28.5c0.5,0,0.9-0.1,1.3-0.4s0.7-0.5,0.9-0.9v-1.7h-1.1c-1.8,0-2.7,0.5-2.7,1.6
					c0,0.5,0.2,0.8,0.5,1.1S475,28.5,475.4,28.5z"/>
				<path class="st5" d="M484.7,28.6c0.5,0,1-0.2,1.4-0.5s0.6-0.7,0.6-1.2h1.4c0,0.5-0.2,0.9-0.5,1.4s-0.7,0.8-1.2,1
					s-1.1,0.4-1.6,0.4c-1.2,0-2.1-0.4-2.7-1.2s-1-1.8-1-3.2v-0.2c0-0.8,0.2-1.6,0.5-2.2s0.7-1.1,1.3-1.5s1.2-0.5,2-0.5
					c0.9,0,1.7,0.3,2.4,0.9s1,1.3,1,2.2h-1.4c0-0.5-0.2-1-0.6-1.3s-0.8-0.5-1.4-0.5c-0.7,0-1.3,0.3-1.7,0.8s-0.6,1.3-0.6,2.3v0.3
					c0,1,0.2,1.7,0.6,2.2S484,28.6,484.7,28.6z"/>
				<path class="st5" d="M493.2,29.8c-1.1,0-2.1-0.4-2.8-1.1s-1.1-1.8-1.1-3v-0.3c0-0.8,0.2-1.6,0.5-2.2s0.8-1.2,1.3-1.5
					s1.2-0.6,1.9-0.6c1.1,0,2,0.4,2.6,1.1s0.9,1.8,0.9,3.1v0.6h-5.7c0,0.8,0.3,1.5,0.7,2s1.1,0.8,1.8,0.8c0.5,0,0.9-0.1,1.3-0.3
					s0.7-0.5,0.9-0.8l0.9,0.7C495.7,29.2,494.6,29.8,493.2,29.8z M493,22.2c-0.6,0-1.1,0.2-1.5,0.6s-0.6,1-0.7,1.8h4.2v-0.1
					c0-0.7-0.2-1.3-0.6-1.7S493.6,22.2,493,22.2z"/>
				<path class="st5" d="M499.5,21.2l0,1.1c0.6-0.8,1.5-1.2,2.5-1.2c1.8,0,2.7,1,2.7,3v5.6h-1.4V24c0-0.6-0.1-1.1-0.4-1.4
					s-0.7-0.4-1.3-0.4c-0.5,0-0.9,0.1-1.2,0.4s-0.6,0.6-0.8,1v6h-1.4v-8.5H499.5z"/>
				<path class="st5" d="M512.2,29.6c-0.1-0.2-0.2-0.5-0.2-0.9c-0.7,0.7-1.5,1-2.4,1c-0.8,0-1.5-0.2-2.1-0.7s-0.8-1.1-0.8-1.8
					c0-0.9,0.3-1.6,1-2.1s1.6-0.7,2.8-0.7h1.4v-0.7c0-0.5-0.2-0.9-0.5-1.2s-0.7-0.4-1.3-0.4c-0.5,0-0.9,0.1-1.3,0.4
					s-0.5,0.6-0.5,0.9h-1.5c0-0.4,0.1-0.8,0.4-1.2s0.7-0.7,1.2-0.9s1.1-0.3,1.7-0.3c1,0,1.7,0.2,2.3,0.7s0.8,1.2,0.9,2v3.9
					c0,0.8,0.1,1.4,0.3,1.9v0.1H512.2z M509.8,28.5c0.5,0,0.9-0.1,1.3-0.4s0.7-0.5,0.9-0.9v-1.7h-1.1c-1.8,0-2.7,0.5-2.7,1.6
					c0,0.5,0.2,0.8,0.5,1.1S509.3,28.5,509.8,28.5z"/>
				<path class="st5" d="M517.2,21.2v9.4c0,1.6-0.7,2.4-2.2,2.4c-0.3,0-0.6,0-0.9-0.1v-1.1c0.2,0,0.4,0.1,0.7,0.1
					c0.3,0,0.6-0.1,0.7-0.3c0.2-0.2,0.3-0.5,0.3-0.9v-9.5H517.2z M515.6,18.9c0-0.2,0.1-0.4,0.2-0.6s0.4-0.2,0.6-0.2
					c0.3,0,0.5,0.1,0.6,0.2s0.2,0.4,0.2,0.6s-0.1,0.4-0.2,0.6s-0.4,0.2-0.6,0.2s-0.5-0.1-0.6-0.2S515.6,19.2,515.6,18.9z"/>
				<path class="st5" d="M523,29.8c-1.1,0-2.1-0.4-2.8-1.1s-1.1-1.8-1.1-3v-0.3c0-0.8,0.2-1.6,0.5-2.2s0.8-1.2,1.3-1.5
					s1.2-0.6,1.9-0.6c1.1,0,2,0.4,2.6,1.1s0.9,1.8,0.9,3.1v0.6h-5.7c0,0.8,0.3,1.5,0.7,2s1.1,0.8,1.8,0.8c0.5,0,0.9-0.1,1.3-0.3
					s0.7-0.5,0.9-0.8l0.9,0.7C525.5,29.2,524.4,29.8,523,29.8z M522.8,22.2c-0.6,0-1.1,0.2-1.5,0.6s-0.6,1-0.7,1.8h4.2v-0.1
					c0-0.7-0.2-1.3-0.6-1.7S523.4,22.2,522.8,22.2z"/>
			</g>
			<path class="st4" d="M665.7,0H539.6l28.9,26.6l-28.9,27.6h126.2l28.9-27.6L665.7,0z"/>
			<g class="st1">
				<path class="st5" d="M588.7,19.5h-3.7v10.1h-1.5V19.5h-3.6v-1.2h8.8V19.5z"/>
			</g>
			<g class="st1">
				<path class="st5" d="M593.8,22.5c-0.2,0-0.5-0.1-0.7-0.1c-0.9,0-1.6,0.4-1.9,1.2v6h-1.4v-8.5h1.4l0,1c0.5-0.8,1.1-1.1,2-1.1
					c0.3,0,0.5,0,0.6,0.1V22.5z"/>
				<path class="st5" d="M600,29.6c-0.1-0.2-0.2-0.5-0.2-0.9c-0.7,0.7-1.5,1-2.4,1c-0.8,0-1.5-0.2-2.1-0.7s-0.8-1.1-0.8-1.8
					c0-0.9,0.3-1.6,1-2.1s1.6-0.7,2.8-0.7h1.4v-0.7c0-0.5-0.2-0.9-0.5-1.2s-0.7-0.4-1.3-0.4c-0.5,0-0.9,0.1-1.3,0.4
					s-0.5,0.6-0.5,0.9h-1.5c0-0.4,0.1-0.8,0.4-1.2s0.7-0.7,1.2-0.9s1.1-0.3,1.7-0.3c1,0,1.7,0.2,2.3,0.7s0.8,1.2,0.9,2v3.9
					c0,0.8,0.1,1.4,0.3,1.9v0.1H600z M597.6,28.5c0.5,0,0.9-0.1,1.3-0.4s0.7-0.5,0.9-0.9v-1.7h-1.1c-1.8,0-2.7,0.5-2.7,1.6
					c0,0.5,0.2,0.8,0.5,1.1S597.2,28.5,597.6,28.5z"/>
				<path class="st5" d="M604.9,21.2l0,1.1c0.6-0.8,1.5-1.2,2.5-1.2c1.8,0,2.7,1,2.7,3v5.6h-1.4V24c0-0.6-0.1-1.1-0.4-1.4
					s-0.7-0.4-1.3-0.4c-0.5,0-0.9,0.1-1.2,0.4s-0.6,0.6-0.8,1v6h-1.4v-8.5H604.9z"/>
				<path class="st5" d="M617.3,27.4c0-0.4-0.1-0.7-0.4-0.9s-0.8-0.4-1.5-0.6s-1.3-0.3-1.7-0.6s-0.7-0.5-1-0.8s-0.3-0.7-0.3-1.1
					c0-0.7,0.3-1.3,0.9-1.8s1.3-0.7,2.2-0.7c1,0,1.7,0.2,2.3,0.7s0.9,1.1,0.9,1.9h-1.5c0-0.4-0.2-0.7-0.5-1s-0.8-0.4-1.3-0.4
					c-0.5,0-0.9,0.1-1.2,0.3s-0.4,0.5-0.4,0.9c0,0.3,0.1,0.6,0.4,0.8s0.8,0.3,1.5,0.5s1.3,0.4,1.8,0.6s0.8,0.5,1,0.8
					s0.3,0.7,0.3,1.2c0,0.8-0.3,1.4-0.9,1.8s-1.4,0.7-2.4,0.7c-0.7,0-1.3-0.1-1.8-0.4s-0.9-0.6-1.2-1S612,27.5,612,27h1.4
					c0,0.5,0.2,0.9,0.6,1.2s0.8,0.4,1.4,0.4c0.5,0,1-0.1,1.3-0.3S617.3,27.8,617.3,27.4z"/>
				<path class="st5" d="M627.7,25.5c0,1.3-0.3,2.3-0.9,3.1s-1.4,1.2-2.4,1.2c-1,0-1.8-0.3-2.4-1v4.1h-1.4V21.2h1.3l0.1,0.9
					c0.6-0.7,1.4-1.1,2.5-1.1c1,0,1.8,0.4,2.4,1.1s0.9,1.8,0.9,3.2V25.5z M626.3,25.3c0-1-0.2-1.7-0.6-2.3s-1-0.8-1.7-0.8
					c-0.9,0-1.5,0.4-2,1.2v4c0.4,0.8,1.1,1.2,2,1.2c0.7,0,1.2-0.3,1.7-0.8S626.3,26.4,626.3,25.3z"/>
				<path class="st5" d="M629.2,25.3c0-0.8,0.2-1.6,0.5-2.2s0.8-1.2,1.4-1.5s1.2-0.5,2-0.5c1.2,0,2.1,0.4,2.8,1.2s1.1,1.9,1.1,3.2
					v0.1c0,0.8-0.2,1.6-0.5,2.2s-0.8,1.2-1.4,1.5s-1.3,0.5-2,0.5c-1.1,0-2.1-0.4-2.8-1.2s-1.1-1.9-1.1-3.2V25.3z M630.7,25.5
					c0,0.9,0.2,1.7,0.7,2.3s1,0.9,1.7,0.9c0.7,0,1.3-0.3,1.8-0.9s0.6-1.4,0.6-2.4c0-0.9-0.2-1.7-0.7-2.3s-1-0.9-1.8-0.9
					c-0.7,0-1.3,0.3-1.7,0.9S630.7,24.4,630.7,25.5z"/>
			</g>
			<g class="st1">
				<path class="st5" d="M642.8,22.5c-0.2,0-0.5-0.1-0.7-0.1c-0.9,0-1.6,0.4-1.9,1.2v6h-1.4v-8.5h1.4l0,1c0.5-0.8,1.1-1.1,2-1.1
					c0.3,0,0.5,0,0.6,0.1V22.5z"/>
			</g>
			<g class="st1">
				<path class="st5" d="M646.2,19.1v2h1.6v1.1h-1.6v5.2c0,0.3,0.1,0.6,0.2,0.8c0.1,0.2,0.4,0.3,0.7,0.3c0.2,0,0.4,0,0.7-0.1v1.2
					c-0.4,0.1-0.8,0.2-1.1,0.2c-0.6,0-1.1-0.2-1.5-0.6s-0.5-0.9-0.5-1.7v-5.2h-1.5v-1.1h1.5v-2H646.2z"/>
				<path class="st5" d="M653,29.8c-1.1,0-2.1-0.4-2.8-1.1s-1.1-1.8-1.1-3v-0.3c0-0.8,0.2-1.6,0.5-2.2s0.8-1.2,1.3-1.5
					c0.6-0.4,1.2-0.6,1.9-0.6c1.1,0,2,0.4,2.6,1.1s0.9,1.8,0.9,3.1v0.6h-5.7c0,0.8,0.3,1.5,0.7,2c0.5,0.5,1.1,0.8,1.8,0.8
					c0.5,0,0.9-0.1,1.3-0.3c0.4-0.2,0.7-0.5,0.9-0.8l0.9,0.7C655.5,29.2,654.4,29.8,653,29.8z M652.8,22.2c-0.6,0-1.1,0.2-1.5,0.6
					c-0.4,0.4-0.6,1-0.7,1.8h4.2v-0.1c0-0.7-0.2-1.3-0.6-1.7C653.9,22.4,653.4,22.2,652.8,22.2z"/>
			</g>
			<path class="st2" d="M902.5,0H794.3l28.9,26.6l-28.9,27.6h108.2V0z"/>
			<g class="st1">
				<path class="st5" d="M843.9,26c-0.1,1.2-0.6,2.1-1.3,2.8s-1.7,1-3,1c-1.3,0-2.4-0.5-3.2-1.4s-1.2-2.3-1.2-3.9v-1.1
					c0-1.1,0.2-2,0.6-2.8s0.9-1.4,1.6-1.8s1.5-0.6,2.4-0.6c1.2,0,2.2,0.3,2.9,1s1.2,1.6,1.3,2.8h-1.5c-0.1-0.9-0.4-1.6-0.8-2
					s-1-0.6-1.8-0.6c-1,0-1.7,0.4-2.3,1.1s-0.8,1.7-0.8,3v1.1c0,1.2,0.3,2.2,0.8,2.9s1.2,1.1,2.2,1.1c0.8,0,1.5-0.2,1.9-0.6
					s0.7-1,0.9-2H843.9z"/>
				<path class="st5" d="M847.3,29.6h-1.4v-12h1.4V29.6z"/>
				<path class="st5" d="M849.7,18.9c0-0.2,0.1-0.4,0.2-0.6s0.4-0.2,0.6-0.2s0.5,0.1,0.6,0.2s0.2,0.4,0.2,0.6s-0.1,0.4-0.2,0.6
					s-0.4,0.2-0.6,0.2s-0.5-0.1-0.6-0.2S849.7,19.2,849.7,18.9z M851.2,29.6h-1.4v-8.5h1.4V29.6z"/>
				<path class="st5" d="M857,29.8c-1.1,0-2.1-0.4-2.8-1.1s-1.1-1.8-1.1-3v-0.3c0-0.8,0.2-1.6,0.5-2.2s0.8-1.2,1.3-1.5
					s1.2-0.6,1.9-0.6c1.1,0,2,0.4,2.6,1.1s0.9,1.8,0.9,3.1v0.6h-5.7c0,0.8,0.3,1.5,0.7,2s1.1,0.8,1.8,0.8c0.5,0,0.9-0.1,1.3-0.3
					s0.7-0.5,0.9-0.8l0.9,0.7C859.5,29.2,858.5,29.8,857,29.8z M856.9,22.2c-0.6,0-1.1,0.2-1.5,0.6s-0.6,1-0.7,1.8h4.2v-0.1
					c0-0.7-0.2-1.3-0.6-1.7S857.5,22.2,856.9,22.2z"/>
				<path class="st5" d="M863.4,21.2l0,1.1c0.6-0.8,1.5-1.2,2.5-1.2c1.8,0,2.7,1,2.7,3v5.6h-1.4V24c0-0.6-0.1-1.1-0.4-1.4
					s-0.7-0.4-1.3-0.4c-0.5,0-0.9,0.1-1.2,0.4s-0.6,0.6-0.8,1v6H862v-8.5H863.4z"/>
				<path class="st5" d="M872.8,19.1v2h1.6v1.1h-1.6v5.2c0,0.3,0.1,0.6,0.2,0.8c0.1,0.2,0.4,0.3,0.7,0.3c0.2,0,0.4,0,0.7-0.1v1.2
					c-0.4,0.1-0.8,0.2-1.1,0.2c-0.6,0-1.1-0.2-1.5-0.6s-0.5-0.9-0.5-1.7v-5.2h-1.5v-1.1h1.5v-2H872.8z"/>
				<path class="st5" d="M879.6,29.8c-1.1,0-2.1-0.4-2.8-1.1s-1.1-1.8-1.1-3v-0.3c0-0.8,0.2-1.6,0.5-2.2s0.8-1.2,1.3-1.5
					s1.2-0.6,1.9-0.6c1.1,0,2,0.4,2.6,1.1s0.9,1.8,0.9,3.1v0.6h-5.7c0,0.8,0.3,1.5,0.7,2s1.1,0.8,1.8,0.8c0.5,0,0.9-0.1,1.3-0.3
					s0.7-0.5,0.9-0.8l0.9,0.7C882.1,29.2,881,29.8,879.6,29.8z M879.4,22.2c-0.6,0-1.1,0.2-1.5,0.6s-0.6,1-0.7,1.8h4.2v-0.1
					c0-0.7-0.2-1.3-0.6-1.7S880,22.2,879.4,22.2z"/>
			</g>
			<path class="st3" d="M784.3,0H674.7l28.9,26.6l-28.9,27.6h109.5l28.9-27.6L784.3,0z"/>
			<g transform="translate(128.572 4.426)">
				<g class="st1">
					<path class="st5" d="M5.5,12.4H2.8V17H1.3V5.6h3.8c1.3,0,2.3,0.3,3,0.9c0.7,0.6,1,1.4,1,2.5c0,0.7-0.2,1.3-0.6,1.9
						s-0.9,0.9-1.6,1.2l2.7,4.8V17H8L5.5,12.4z M2.8,11.2h2.3c0.7,0,1.3-0.2,1.8-0.6C7.3,10.2,7.6,9.7,7.6,9c0-0.7-0.2-1.2-0.6-1.6
						C6.5,7,5.9,6.9,5.1,6.9H2.8V11.2z"/>
					<path class="st5" d="M14.5,17.2c-1.1,0-2.1-0.4-2.8-1.1c-0.7-0.8-1.1-1.8-1.1-3v-0.3c0-0.8,0.2-1.6,0.5-2.2s0.8-1.2,1.3-1.5
						c0.6-0.4,1.2-0.6,1.9-0.6c1.1,0,2,0.4,2.6,1.1s0.9,1.8,0.9,3.1v0.6H12c0,0.8,0.3,1.5,0.7,2c0.5,0.5,1.1,0.8,1.8,0.8
						c0.5,0,0.9-0.1,1.3-0.3c0.4-0.2,0.7-0.5,0.9-0.8l0.9,0.7C16.9,16.6,15.9,17.2,14.5,17.2z M14.3,9.6c-0.6,0-1.1,0.2-1.5,0.6
						c-0.4,0.4-0.6,1-0.7,1.8h4.2v-0.1c0-0.7-0.2-1.3-0.6-1.7C15.4,9.8,14.9,9.6,14.3,9.6z"/>
					<path class="st5" d="M22.8,16c0.5,0,1-0.2,1.4-0.5c0.4-0.3,0.6-0.7,0.6-1.2h1.4c0,0.5-0.2,0.9-0.5,1.4c-0.3,0.4-0.7,0.8-1.2,1
						c-0.5,0.3-1.1,0.4-1.6,0.4c-1.2,0-2.1-0.4-2.7-1.2c-0.7-0.8-1-1.8-1-3.2v-0.2c0-0.8,0.2-1.6,0.5-2.2c0.3-0.6,0.7-1.1,1.3-1.5
						c0.6-0.4,1.2-0.5,2-0.5c0.9,0,1.7,0.3,2.4,0.9c0.6,0.6,1,1.3,1,2.2h-1.4c0-0.5-0.2-1-0.6-1.3c-0.4-0.4-0.8-0.5-1.4-0.5
						c-0.7,0-1.3,0.3-1.7,0.8c-0.4,0.5-0.6,1.3-0.6,2.3v0.3c0,1,0.2,1.7,0.6,2.2C21.5,15.7,22.1,16,22.8,16z"/>
					<path class="st5" d="M31.3,17.2c-1.1,0-2.1-0.4-2.8-1.1c-0.7-0.8-1.1-1.8-1.1-3v-0.3c0-0.8,0.2-1.6,0.5-2.2s0.8-1.2,1.3-1.5
						c0.6-0.4,1.2-0.6,1.9-0.6c1.1,0,2,0.4,2.6,1.1s0.9,1.8,0.9,3.1v0.6h-5.7c0,0.8,0.3,1.5,0.7,2c0.5,0.5,1.1,0.8,1.8,0.8
						c0.5,0,0.9-0.1,1.3-0.3c0.4-0.2,0.7-0.5,0.9-0.8l0.9,0.7C33.8,16.6,32.7,17.2,31.3,17.2z M31.1,9.6c-0.6,0-1.1,0.2-1.5,0.6
						c-0.4,0.4-0.6,1-0.7,1.8h4.2v-0.1c0-0.7-0.2-1.3-0.6-1.7C32.2,9.8,31.7,9.6,31.1,9.6z"/>
					<path class="st5" d="M43.4,12.9c0,1.3-0.3,2.3-0.9,3.1c-0.6,0.8-1.4,1.2-2.4,1.2c-1,0-1.8-0.3-2.4-1v4.1h-1.4V8.5h1.3l0.1,0.9
						c0.6-0.7,1.4-1.1,2.5-1.1c1,0,1.8,0.4,2.4,1.1c0.6,0.8,0.9,1.8,0.9,3.2V12.9z M42,12.7c0-1-0.2-1.7-0.6-2.3s-1-0.8-1.7-0.8
						c-0.9,0-1.5,0.4-2,1.2v4c0.4,0.8,1.1,1.2,2,1.2c0.7,0,1.2-0.3,1.7-0.8C41.8,14.6,42,13.8,42,12.7z"/>
					<path class="st5" d="M48.6,16c0.5,0,1-0.2,1.4-0.5c0.4-0.3,0.6-0.7,0.6-1.2H52c0,0.5-0.2,0.9-0.5,1.4c-0.3,0.4-0.7,0.8-1.2,1
						c-0.5,0.3-1.1,0.4-1.6,0.4c-1.2,0-2.1-0.4-2.7-1.2c-0.7-0.8-1-1.8-1-3.2v-0.2c0-0.8,0.2-1.6,0.5-2.2c0.3-0.6,0.7-1.1,1.3-1.5
						c0.6-0.4,1.2-0.5,2-0.5c0.9,0,1.7,0.3,2.4,0.9c0.6,0.6,1,1.3,1,2.2h-1.4c0-0.5-0.2-1-0.6-1.3c-0.4-0.4-0.8-0.5-1.4-0.5
						c-0.7,0-1.3,0.3-1.7,0.8c-0.4,0.5-0.6,1.3-0.6,2.3v0.3c0,1,0.2,1.7,0.6,2.2C47.3,15.7,47.9,16,48.6,16z"/>
					<path class="st5" d="M53.6,6.3c0-0.2,0.1-0.4,0.2-0.6c0.1-0.2,0.4-0.2,0.6-0.2s0.5,0.1,0.6,0.2c0.1,0.2,0.2,0.4,0.2,0.6
						s-0.1,0.4-0.2,0.6C55,7,54.8,7.1,54.5,7.1S54,7,53.8,6.9C53.7,6.7,53.6,6.5,53.6,6.3z M55.2,17h-1.4V8.5h1.4V17z"/>
					<path class="st5" d="M57.1,12.7c0-0.8,0.2-1.6,0.5-2.2c0.3-0.7,0.8-1.2,1.4-1.5c0.6-0.4,1.2-0.5,2-0.5c1.2,0,2.1,0.4,2.8,1.2
						s1.1,1.9,1.1,3.2v0.1c0,0.8-0.2,1.6-0.5,2.2c-0.3,0.7-0.8,1.2-1.4,1.5s-1.3,0.5-2,0.5c-1.1,0-2.1-0.4-2.8-1.2
						c-0.7-0.8-1.1-1.9-1.1-3.2V12.7z M58.6,12.9c0,0.9,0.2,1.7,0.7,2.3c0.4,0.6,1,0.9,1.7,0.9c0.7,0,1.3-0.3,1.8-0.9
						c0.4-0.6,0.6-1.4,0.6-2.4c0-0.9-0.2-1.7-0.7-2.3c-0.4-0.6-1-0.9-1.8-0.9c-0.7,0-1.3,0.3-1.7,0.9S58.6,11.8,58.6,12.9z M61.6,5
						h1.8l-2.1,2.3l-1.2,0L61.6,5z"/>
					<path class="st5" d="M68,8.5l0,1.1c0.6-0.8,1.5-1.2,2.5-1.2c1.8,0,2.7,1,2.7,3V17h-1.4v-5.6c0-0.6-0.1-1.1-0.4-1.4
						s-0.7-0.4-1.3-0.4c-0.5,0-0.9,0.1-1.2,0.4c-0.4,0.2-0.6,0.6-0.8,1v6h-1.4V8.5H68z"/>
					<path class="st5" d="M79.1,12.7c0-1.3,0.3-2.3,0.9-3.1c0.6-0.8,1.4-1.2,2.4-1.2c1,0,1.8,0.3,2.4,1V5h1.4v12h-1.3l-0.1-0.9
						c-0.6,0.7-1.4,1.1-2.4,1.1c-1,0-1.8-0.4-2.4-1.2c-0.6-0.8-0.9-1.8-0.9-3.1V12.7z M80.5,12.9c0,1,0.2,1.7,0.6,2.2
						c0.4,0.5,0.9,0.8,1.6,0.8c0.9,0,1.6-0.4,2-1.2v-3.9c-0.4-0.8-1.1-1.2-2-1.2c-0.7,0-1.3,0.3-1.7,0.8
						C80.7,11,80.5,11.8,80.5,12.9z"/>
					<path class="st5" d="M92,17.2c-1.1,0-2.1-0.4-2.8-1.1c-0.7-0.8-1.1-1.8-1.1-3v-0.3c0-0.8,0.2-1.6,0.5-2.2s0.8-1.2,1.3-1.5
						c0.6-0.4,1.2-0.6,1.9-0.6c1.1,0,2,0.4,2.6,1.1s0.9,1.8,0.9,3.1v0.6h-5.7c0,0.8,0.3,1.5,0.7,2c0.5,0.5,1.1,0.8,1.8,0.8
						c0.5,0,0.9-0.1,1.3-0.3c0.4-0.2,0.7-0.5,0.9-0.8l0.9,0.7C94.4,16.6,93.4,17.2,92,17.2z M91.8,9.6c-0.6,0-1.1,0.2-1.5,0.6
						c-0.4,0.4-0.6,1-0.7,1.8h4.2v-0.1c0-0.7-0.2-1.3-0.6-1.7C92.9,9.8,92.4,9.6,91.8,9.6z"/>
				</g>
				<g class="st1">
					<path class="st5" d="M2.5,25.8l0,0.9C3.1,26,3.9,25.6,5,25.6c1.2,0,2,0.5,2.4,1.4c0.3-0.4,0.6-0.7,1.1-1c0.5-0.2,1-0.4,1.6-0.4
						c1.9,0,2.8,1,2.8,2.9v5.7h-1.4v-5.6c0-0.6-0.1-1.1-0.4-1.4c-0.3-0.3-0.7-0.4-1.4-0.4c-0.5,0-1,0.2-1.3,0.5
						c-0.4,0.3-0.6,0.8-0.6,1.3v5.6H6.3v-5.5c0-1.2-0.6-1.8-1.8-1.8c-0.9,0-1.6,0.4-1.9,1.2v6.2H1.1v-8.5H2.5z"/>
					<path class="st5" d="M20.3,34.2c-0.1-0.2-0.2-0.5-0.2-0.9c-0.7,0.7-1.5,1-2.4,1c-0.8,0-1.5-0.2-2.1-0.7
						c-0.5-0.5-0.8-1.1-0.8-1.8c0-0.9,0.3-1.6,1-2.1c0.7-0.5,1.6-0.7,2.8-0.7h1.4v-0.7c0-0.5-0.2-0.9-0.5-1.2
						c-0.3-0.3-0.7-0.4-1.3-0.4c-0.5,0-0.9,0.1-1.3,0.4c-0.3,0.3-0.5,0.6-0.5,0.9H15c0-0.4,0.1-0.8,0.4-1.2c0.3-0.4,0.7-0.7,1.2-0.9
						c0.5-0.2,1.1-0.3,1.7-0.3c1,0,1.7,0.2,2.3,0.7c0.6,0.5,0.8,1.2,0.9,2v3.9c0,0.8,0.1,1.4,0.3,1.9v0.1H20.3z M17.9,33.1
						c0.5,0,0.9-0.1,1.3-0.4s0.7-0.5,0.9-0.9v-1.7H19c-1.8,0-2.7,0.5-2.7,1.6c0,0.5,0.2,0.8,0.5,1.1C17.1,33,17.5,33.1,17.9,33.1z"
						/>
					<path class="st5" d="M25.8,23.7v2h1.6v1.1h-1.6v5.2c0,0.3,0.1,0.6,0.2,0.8c0.1,0.2,0.4,0.3,0.7,0.3c0.2,0,0.4,0,0.7-0.1v1.2
						c-0.4,0.1-0.8,0.2-1.1,0.2c-0.6,0-1.1-0.2-1.5-0.6s-0.5-0.9-0.5-1.7v-5.2h-1.5v-1.1h1.5v-2H25.8z"/>
					<path class="st5" d="M32.6,34.4c-1.1,0-2.1-0.4-2.8-1.1s-1.1-1.8-1.1-3V30c0-0.8,0.2-1.6,0.5-2.2s0.8-1.2,1.3-1.5
						c0.6-0.4,1.2-0.6,1.9-0.6c1.1,0,2,0.4,2.6,1.1s0.9,1.8,0.9,3.1v0.6h-5.7c0,0.8,0.3,1.5,0.7,2c0.5,0.5,1.1,0.8,1.8,0.8
						c0.5,0,0.9-0.1,1.3-0.3c0.4-0.2,0.7-0.5,0.9-0.8l0.9,0.7C35,33.9,34,34.4,32.6,34.4z M32.4,26.8c-0.6,0-1.1,0.2-1.5,0.6
						c-0.4,0.4-0.6,1-0.7,1.8h4.2v-0.1c0-0.7-0.2-1.3-0.6-1.7C33.5,27,33,26.8,32.4,26.8z"/>
					<path class="st5" d="M41.6,27.1c-0.2,0-0.5-0.1-0.7-0.1c-0.9,0-1.6,0.4-1.9,1.2v6h-1.4v-8.5h1.4l0,1c0.5-0.8,1.1-1.1,2-1.1
						c0.3,0,0.5,0,0.6,0.1V27.1z"/>
					<path class="st5" d="M42.9,23.5c0-0.2,0.1-0.4,0.2-0.6c0.1-0.2,0.4-0.2,0.6-0.2s0.5,0.1,0.6,0.2c0.1,0.2,0.2,0.4,0.2,0.6
						s-0.1,0.4-0.2,0.6c-0.1,0.2-0.4,0.2-0.6,0.2s-0.5-0.1-0.6-0.2C43,24,42.9,23.8,42.9,23.5z M44.5,34.2h-1.4v-8.5h1.4V34.2z"/>
					<path class="st5" d="M52,34.2c-0.1-0.2-0.2-0.5-0.2-0.9c-0.7,0.7-1.5,1-2.4,1c-0.8,0-1.5-0.2-2.1-0.7c-0.5-0.5-0.8-1.1-0.8-1.8
						c0-0.9,0.3-1.6,1-2.1c0.7-0.5,1.6-0.7,2.8-0.7h1.4v-0.7c0-0.5-0.2-0.9-0.5-1.2c-0.3-0.3-0.7-0.4-1.3-0.4
						c-0.5,0-0.9,0.1-1.3,0.4c-0.3,0.3-0.5,0.6-0.5,0.9h-1.5c0-0.4,0.1-0.8,0.4-1.2c0.3-0.4,0.7-0.7,1.2-0.9
						c0.5-0.2,1.1-0.3,1.7-0.3c1,0,1.7,0.2,2.3,0.7c0.6,0.5,0.8,1.2,0.9,2v3.9c0,0.8,0.1,1.4,0.3,1.9v0.1H52z M49.6,33.1
						c0.5,0,0.9-0.1,1.3-0.4s0.7-0.5,0.9-0.9v-1.7h-1.1c-1.8,0-2.7,0.5-2.7,1.6c0,0.5,0.2,0.8,0.5,1.1C48.8,33,49.2,33.1,49.6,33.1z
						"/>
					<path class="st5" d="M60.4,32c0-0.4-0.1-0.7-0.4-0.9c-0.3-0.2-0.8-0.4-1.5-0.6c-0.7-0.2-1.3-0.3-1.7-0.6s-0.7-0.5-1-0.8
						c-0.2-0.3-0.3-0.7-0.3-1.1c0-0.7,0.3-1.3,0.9-1.8s1.3-0.7,2.2-0.7c1,0,1.7,0.2,2.3,0.7c0.6,0.5,0.9,1.1,0.9,1.9h-1.5
						c0-0.4-0.2-0.7-0.5-1s-0.8-0.4-1.3-0.4c-0.5,0-0.9,0.1-1.2,0.3s-0.4,0.5-0.4,0.9c0,0.3,0.1,0.6,0.4,0.8
						c0.3,0.2,0.8,0.3,1.5,0.5c0.7,0.2,1.3,0.4,1.8,0.6c0.4,0.2,0.8,0.5,1,0.8c0.2,0.3,0.3,0.7,0.3,1.2c0,0.8-0.3,1.4-0.9,1.8
						c-0.6,0.5-1.4,0.7-2.4,0.7c-0.7,0-1.3-0.1-1.8-0.4c-0.5-0.2-0.9-0.6-1.2-1c-0.3-0.4-0.4-0.9-0.4-1.4h1.4c0,0.5,0.2,0.9,0.6,1.2
						c0.4,0.3,0.8,0.4,1.4,0.4c0.5,0,1-0.1,1.3-0.3C60.3,32.7,60.4,32.4,60.4,32z"/>
					<path class="st5" d="M74.9,30.1c0,1.3-0.3,2.3-0.9,3.1c-0.6,0.8-1.4,1.2-2.4,1.2c-1,0-1.8-0.3-2.4-1v4.1h-1.4V25.8h1.3l0.1,0.9
						c0.6-0.7,1.4-1.1,2.5-1.1c1,0,1.8,0.4,2.4,1.1c0.6,0.8,0.9,1.8,0.9,3.2V30.1z M73.4,29.9c0-1-0.2-1.7-0.6-2.3s-1-0.8-1.7-0.8
						c-0.9,0-1.5,0.4-2,1.2v4c0.4,0.8,1.1,1.2,2,1.2c0.7,0,1.2-0.3,1.7-0.8C73.2,31.8,73.4,31,73.4,29.9z"/>
					<path class="st5" d="M80.8,27.1c-0.2,0-0.5-0.1-0.7-0.1c-0.9,0-1.6,0.4-1.9,1.2v6h-1.4v-8.5h1.4l0,1c0.5-0.8,1.1-1.1,2-1.1
						c0.3,0,0.5,0,0.6,0.1V27.1z"/>
					<path class="st5" d="M82.1,23.5c0-0.2,0.1-0.4,0.2-0.6c0.1-0.2,0.4-0.2,0.6-0.2s0.5,0.1,0.6,0.2c0.1,0.2,0.2,0.4,0.2,0.6
						s-0.1,0.4-0.2,0.6c-0.1,0.2-0.4,0.2-0.6,0.2s-0.5-0.1-0.6-0.2C82.2,24,82.1,23.8,82.1,23.5z M83.7,34.2h-1.4v-8.5h1.4V34.2z"/>
					<path class="st5" d="M87.4,25.8l0,0.9c0.6-0.7,1.5-1.1,2.5-1.1c1.2,0,2,0.5,2.4,1.4c0.3-0.4,0.6-0.7,1.1-1
						c0.5-0.2,1-0.4,1.6-0.4c1.9,0,2.8,1,2.8,2.9v5.7h-1.4v-5.6c0-0.6-0.1-1.1-0.4-1.4c-0.3-0.3-0.7-0.4-1.4-0.4
						c-0.5,0-1,0.2-1.3,0.5c-0.4,0.3-0.6,0.8-0.6,1.3v5.6h-1.5v-5.5c0-1.2-0.6-1.8-1.8-1.8c-0.9,0-1.6,0.4-1.9,1.2v6.2H86v-8.5H87.4
						z"/>
					<path class="st5" d="M105.3,34.2c-0.1-0.2-0.2-0.5-0.2-0.9c-0.7,0.7-1.5,1-2.4,1c-0.8,0-1.5-0.2-2.1-0.7
						c-0.5-0.5-0.8-1.1-0.8-1.8c0-0.9,0.3-1.6,1-2.1c0.7-0.5,1.6-0.7,2.8-0.7h1.4v-0.7c0-0.5-0.2-0.9-0.5-1.2
						c-0.3-0.3-0.7-0.4-1.3-0.4c-0.5,0-0.9,0.1-1.3,0.4c-0.3,0.3-0.5,0.6-0.5,0.9H100c0-0.4,0.1-0.8,0.4-1.2
						c0.3-0.4,0.7-0.7,1.2-0.9c0.5-0.2,1.1-0.3,1.7-0.3c1,0,1.7,0.2,2.3,0.7c0.6,0.5,0.8,1.2,0.9,2v3.9c0,0.8,0.1,1.4,0.3,1.9v0.1
						H105.3z M102.9,33.1c0.5,0,0.9-0.1,1.3-0.4s0.7-0.5,0.9-0.9v-1.7h-1.1c-1.8,0-2.7,0.5-2.7,1.6c0,0.5,0.2,0.8,0.5,1.1
						C102,33,102.4,33.1,102.9,33.1z"/>
					<path class="st5" d="M113.7,32c0-0.4-0.1-0.7-0.4-0.9c-0.3-0.2-0.8-0.4-1.5-0.6c-0.7-0.2-1.3-0.3-1.7-0.6s-0.7-0.5-1-0.8
						c-0.2-0.3-0.3-0.7-0.3-1.1c0-0.7,0.3-1.3,0.9-1.8s1.3-0.7,2.2-0.7c1,0,1.7,0.2,2.3,0.7c0.6,0.5,0.9,1.1,0.9,1.9h-1.5
						c0-0.4-0.2-0.7-0.5-1s-0.8-0.4-1.3-0.4c-0.5,0-0.9,0.1-1.2,0.3s-0.4,0.5-0.4,0.9c0,0.3,0.1,0.6,0.4,0.8
						c0.3,0.2,0.8,0.3,1.5,0.5c0.7,0.2,1.3,0.4,1.8,0.6c0.4,0.2,0.8,0.5,1,0.8c0.2,0.3,0.3,0.7,0.3,1.2c0,0.8-0.3,1.4-0.9,1.8
						c-0.6,0.5-1.4,0.7-2.4,0.7c-0.7,0-1.3-0.1-1.8-0.4c-0.5-0.2-0.9-0.6-1.2-1c-0.3-0.4-0.4-0.9-0.4-1.4h1.4c0,0.5,0.2,0.9,0.6,1.2
						c0.4,0.3,0.8,0.4,1.4,0.4c0.5,0,1-0.1,1.3-0.3C113.5,32.7,113.7,32.4,113.7,32z"/>
				</g>
			</g>
			<g transform="translate(716.305 4.426)">
				<g class="st1">
					<path class="st5" d="M2.8,12.5V17H1.3V5.6h4.2c1.2,0,2.2,0.3,2.9,1s1.1,1.5,1.1,2.5c0,1.1-0.3,2-1,2.6s-1.7,0.9-3,0.9H2.8z
						 M2.8,11.3h2.7c0.8,0,1.4-0.2,1.8-0.6S8,9.8,8,9.1c0-0.7-0.2-1.2-0.6-1.6s-1-0.6-1.8-0.6H2.8V11.3z"/>
					<path class="st5" d="M16.4,16.2c-0.6,0.7-1.4,1-2.5,1c-0.9,0-1.6-0.3-2.1-0.8c-0.5-0.5-0.7-1.3-0.7-2.3V8.5h1.4V14
						c0,1.3,0.5,1.9,1.6,1.9c1.1,0,1.8-0.4,2.2-1.2V8.5h1.4V17h-1.4L16.4,16.2z"/>
					<path class="st5" d="M21.4,8.5l0,1.1c0.6-0.8,1.5-1.2,2.5-1.2c1.8,0,2.7,1,2.7,3V17h-1.4v-5.6c0-0.6-0.1-1.1-0.4-1.4
						s-0.7-0.4-1.3-0.4c-0.5,0-0.9,0.1-1.2,0.4s-0.6,0.6-0.8,1v6H20V8.5H21.4z"/>
					<path class="st5" d="M30.8,6.5v2h1.6v1.1h-1.6v5.2c0,0.3,0.1,0.6,0.2,0.8c0.1,0.2,0.4,0.3,0.7,0.3c0.2,0,0.4,0,0.7-0.1V17
						c-0.4,0.1-0.8,0.2-1.1,0.2c-0.6,0-1.1-0.2-1.5-0.6s-0.5-0.9-0.5-1.7V9.7h-1.5V8.5h1.5v-2H30.8z"/>
					<path class="st5" d="M33.5,12.7c0-0.8,0.2-1.6,0.5-2.2s0.8-1.2,1.4-1.5s1.2-0.5,2-0.5c1.2,0,2.1,0.4,2.8,1.2s1.1,1.9,1.1,3.2
						v0.1c0,0.8-0.2,1.6-0.5,2.2s-0.8,1.2-1.4,1.5s-1.3,0.5-2,0.5c-1.1,0-2.1-0.4-2.8-1.2c-0.7-0.8-1.1-1.9-1.1-3.2V12.7z M35,12.9
						c0,0.9,0.2,1.7,0.7,2.3s1,0.9,1.7,0.9c0.7,0,1.3-0.3,1.8-0.9s0.6-1.4,0.6-2.4c0-0.9-0.2-1.7-0.7-2.3s-1-0.9-1.8-0.9
						c-0.7,0-1.3,0.3-1.7,0.9S35,11.8,35,12.9z"/>
				</g>
				<g class="st1">
					<path class="st5" d="M0.7,29.9c0-1.3,0.3-2.3,0.9-3.1s1.4-1.2,2.4-1.2c1,0,1.8,0.3,2.4,1v-4.4h1.4v12H6.5l-0.1-0.9
						c-0.6,0.7-1.4,1.1-2.4,1.1c-1,0-1.8-0.4-2.4-1.2s-0.9-1.8-0.9-3.1V29.9z M2.2,30.1c0,1,0.2,1.7,0.6,2.3
						c0.4,0.5,0.9,0.8,1.6,0.8c0.9,0,1.6-0.4,2-1.2v-3.9c-0.4-0.8-1.1-1.2-2-1.2c-0.7,0-1.3,0.3-1.7,0.8S2.2,29,2.2,30.1z"/>
					<path class="st5" d="M13.6,34.4c-1.1,0-2.1-0.4-2.8-1.1s-1.1-1.8-1.1-3V30c0-0.8,0.2-1.6,0.5-2.2s0.8-1.2,1.3-1.5
						s1.2-0.6,1.9-0.6c1.1,0,2,0.4,2.6,1.1s0.9,1.8,0.9,3.1v0.6h-5.7c0,0.8,0.3,1.5,0.7,2c0.5,0.5,1.1,0.8,1.8,0.8
						c0.5,0,0.9-0.1,1.3-0.3s0.7-0.5,0.9-0.8l0.9,0.7C16.1,33.9,15,34.4,13.6,34.4z M13.4,26.8c-0.6,0-1.1,0.2-1.5,0.6
						s-0.6,1-0.7,1.8h4.2v-0.1c0-0.7-0.2-1.3-0.6-1.7S14,26.8,13.4,26.8z"/>
				</g>
				<g class="st1">
					<path class="st5" d="M26.6,30.5l1.8-5.7h1.3l-2.7,7.4h-1l-2.7-7.4h1.3L26.6,30.5z"/>
				</g>
				<g class="st1">
					<path class="st5" d="M36.4,34.4c-1.1,0-2.1-0.4-2.8-1.1s-1.1-1.8-1.1-3V30c0-0.8,0.2-1.6,0.5-2.2s0.8-1.2,1.3-1.5
						c0.6-0.4,1.2-0.6,1.9-0.6c1.1,0,2,0.4,2.6,1.1s0.9,1.8,0.9,3.1v0.6h-5.7c0,0.8,0.3,1.5,0.7,2c0.5,0.5,1.1,0.8,1.8,0.8
						c0.5,0,0.9-0.1,1.3-0.3c0.4-0.2,0.7-0.5,0.9-0.8l0.9,0.7C38.8,33.9,37.8,34.4,36.4,34.4z M36.2,26.8c-0.6,0-1.1,0.2-1.5,0.6
						c-0.4,0.4-0.6,1-0.7,1.8h4.2v-0.1c0-0.7-0.2-1.3-0.6-1.7C37.3,27,36.8,26.8,36.2,26.8z"/>
					<path class="st5" d="M42.7,25.8l0,1.1c0.6-0.8,1.5-1.2,2.5-1.2c1.8,0,2.7,1,2.7,3v5.6h-1.4v-5.6c0-0.6-0.1-1.1-0.4-1.4
						s-0.7-0.4-1.3-0.4c-0.5,0-0.9,0.1-1.2,0.4c-0.4,0.2-0.6,0.6-0.8,1v6h-1.4v-8.5H42.7z"/>
					<path class="st5" d="M52.1,23.7v2h1.6v1.1h-1.6v5.2c0,0.3,0.1,0.6,0.2,0.8c0.1,0.2,0.4,0.3,0.7,0.3c0.2,0,0.4,0,0.7-0.1v1.2
						c-0.4,0.1-0.8,0.2-1.1,0.2c-0.6,0-1.1-0.2-1.5-0.6s-0.5-0.9-0.5-1.7v-5.2h-1.5v-1.1h1.5v-2H52.1z"/>
					<path class="st5" d="M60.6,34.2c-0.1-0.2-0.2-0.5-0.2-0.9c-0.7,0.7-1.5,1-2.4,1c-0.8,0-1.5-0.2-2.1-0.7
						c-0.5-0.5-0.8-1.1-0.8-1.8c0-0.9,0.3-1.6,1-2.1c0.7-0.5,1.6-0.7,2.8-0.7h1.4v-0.7c0-0.5-0.2-0.9-0.5-1.2
						c-0.3-0.3-0.7-0.4-1.3-0.4c-0.5,0-0.9,0.1-1.3,0.4c-0.3,0.3-0.5,0.6-0.5,0.9h-1.5c0-0.4,0.1-0.8,0.4-1.2
						c0.3-0.4,0.7-0.7,1.2-0.9c0.5-0.2,1.1-0.3,1.7-0.3c1,0,1.7,0.2,2.3,0.7c0.6,0.5,0.8,1.2,0.9,2v3.9c0,0.8,0.1,1.4,0.3,1.9v0.1
						H60.6z M58.2,33.1c0.5,0,0.9-0.1,1.3-0.4s0.7-0.5,0.9-0.9v-1.7h-1.1c-1.8,0-2.7,0.5-2.7,1.6c0,0.5,0.2,0.8,0.5,1.1
						C57.4,33,57.7,33.1,58.2,33.1z"/>
				</g>
			</g>
		</g>
	</g>
</g>
</svg>
