<?xml version="1.0" encoding="utf-8"?>
<!-- Generator: Adobe Illustrator 25.2.3, SVG Export Plug-In . SVG Version: 6.00 Build 0)  -->
<svg version="1.1" id="Capa_1" xmlns="http://www.w3.org/2000/svg" xmlns:xlink="http://www.w3.org/1999/xlink" x="0px" y="0px"
	 viewBox="0 0 60 60" style="enable-background:new 0 0 60 60;" xml:space="preserve">
<style type="text/css">
	.st0{fill:#FE7062;}
	.st1{enable-background:new    ;}
	.st2{fill:#FFFFFF;}
</style>
<g transform="translate(-181 -6245)">
	<circle class="st0" cx="211" cy="6275" r="30"/>
	<g class="st1">
		<path class="st2" d="M203.9,6287v-21.3h7.5c2.6,0,4.6,0.5,5.9,1.5c1.3,1,2,2.4,2,4.4c0,1-0.3,2-0.8,2.8c-0.5,0.8-1.3,1.4-2.2,1.8
			c1.1,0.3,2,0.8,2.6,1.7c0.6,0.8,0.9,1.8,0.9,3c0,2.1-0.7,3.6-2,4.7s-3.2,1.6-5.6,1.6H203.9z M208.3,6274.6h3.3
			c2.2,0,3.3-0.9,3.3-2.7c0-1-0.3-1.7-0.8-2.1c-0.6-0.4-1.4-0.6-2.7-0.6h-3.1V6274.6z M208.3,6277.7v5.8h3.8c1,0,1.8-0.2,2.4-0.7
			c0.6-0.5,0.9-1.2,0.9-2c0-2-1-2.9-3-3H208.3z"/>
	</g>
</g>
</svg>
