<?xml version="1.0" encoding="utf-8"?>
<!-- Generator: Adobe Illustrator 25.2.3, SVG Export Plug-In . SVG Version: 6.00 Build 0)  -->
<svg version="1.1" id="Capa_1" xmlns="http://www.w3.org/2000/svg" xmlns:xlink="http://www.w3.org/1999/xlink" x="0px" y="0px"
	 viewBox="0 0 60 60" style="enable-background:new 0 0 60 60;" xml:space="preserve">
<style type="text/css">
	.st0{fill:#FE7062;}
	.st1{enable-background:new    ;}
	.st2{fill:#FFFFFF;}
</style>
<g transform="translate(-697 -6039)">
	<circle class="st0" cx="727" cy="6069" r="30"/>
	<g class="st1">
		<path class="st2" d="M736.6,6073.9c-0.2,2.3-1,4.1-2.5,5.4c-1.5,1.3-3.5,2-6,2c-2.7,0-4.9-0.9-6.5-2.8c-1.6-1.8-2.4-4.4-2.4-7.6
			v-1.3c0-2.1,0.4-3.9,1.1-5.4s1.8-2.8,3.1-3.6c1.3-0.8,2.9-1.3,4.7-1.3c2.5,0,4.4,0.7,5.9,2s2.4,3.2,2.6,5.6h-4.4
			c-0.1-1.4-0.5-2.4-1.1-3c-0.7-0.6-1.7-0.9-3-0.9c-1.5,0-2.6,0.5-3.3,1.6c-0.7,1.1-1.1,2.7-1.1,4.9v1.6c0,2.3,0.3,4,1,5.1
			s1.8,1.6,3.3,1.6c1.4,0,2.4-0.3,3-0.9c0.7-0.6,1.1-1.6,1.1-2.9H736.6z"/>
	</g>
</g>
</svg>
