<?xml version="1.0" encoding="utf-8"?>
<!-- Generator: Adobe Illustrator 25.2.3, SVG Export Plug-In . SVG Version: 6.00 Build 0)  -->
<svg version="1.1" id="Capa_1" xmlns="http://www.w3.org/2000/svg" xmlns:xlink="http://www.w3.org/1999/xlink" x="0px" y="0px"
	 viewBox="0 0 60 60" style="enable-background:new 0 0 60 60;" xml:space="preserve">
<style type="text/css">
	.st0{fill:#FE7062;}
	.st1{enable-background:new    ;}
	.st2{fill:#FFFFFF;}
</style>
<g transform="translate(-698 -6245)">
	<circle class="st0" cx="728" cy="6275" r="30"/>
	<g class="st1">
		<path class="st2" d="M720.9,6286v-21.3h6.6c1.9,0,3.6,0.4,5,1.3c1.5,0.8,2.6,2,3.5,3.6s1.2,3.3,1.2,5.3v1c0,2-0.4,3.7-1.2,5.3
			c-0.8,1.5-2,2.7-3.4,3.6s-3.2,1.3-5,1.3H720.9z M725.3,6268.2v14.2h2.1c1.7,0,3-0.6,3.9-1.7s1.4-2.7,1.4-4.8v-1.1
			c0-2.2-0.4-3.8-1.3-4.9c-0.9-1.1-2.2-1.7-3.9-1.7H725.3z"/>
	</g>
</g>
</svg>
