<svg xmlns="http://www.w3.org/2000/svg" width="93.696" height="93.696" viewBox="0 0 93.696 93.696"><g transform="translate(0.5 0.5)"><path d="M46.348,0A46.348,46.348,0,1,1,0,46.348,46.348,46.348,0,0,1,46.348,0Z" fill="#57dbd8" stroke="#1a0f91" stroke-width="1"/><g transform="translate(17.518 21.139)"><g transform="translate(1.689 1.689)"><path d="M112.906,117.906v40.655h54.282V117.906Z" transform="translate(-112.906 -117.906)" fill="#dae9fa"/></g><g transform="translate(20.384 49.214)"><rect width="16.893" height="6.757" fill="#cbcbf7"/></g><path d="M104,109v44.034l4.122,3.491h49.62l3.919-3.491V109Zm54.282,40.655h-50.9V112.379h50.9Z" transform="translate(-104 -109)" fill="#3e5959"/><g transform="translate(0 44.034)"><path d="M104,341.156v6.87h57.661v-6.87Z" transform="translate(-104 -341.156)" fill="#ebebfc"/></g><g transform="translate(17.005 54.282)"><g transform="translate(0 0)"><rect width="23.65" height="3.379" fill="#ebebfc"/></g></g><path d="M195.2,145.185v27.028h-3.514a30.951,30.951,0,0,0-15.068,3.581,31.086,31.086,0,0,0-16.116-3.581h-2.466V145.185h2.432a42.19,42.19,0,0,1,4.325.135l1.96,2.4,1.419-1.993a33.279,33.279,0,0,1,8.446,2.635,35.424,35.424,0,0,1,16.15-3.176H195.2Z" transform="translate(-147.783 -138.315)" fill="#ff8f8b"/><path d="M271.068,172.214A30.951,30.951,0,0,0,256,175.795V148.361a35.424,35.424,0,0,1,16.15-3.176h2.432v27.028Z" transform="translate(-227.17 -138.316)" fill="#fe7062"/><g transform="translate(17.005 7.005)"><path d="M197.035,146.336v9.6h-3.379v-10A26.863,26.863,0,0,1,197.035,146.336Z" transform="translate(-193.656 -145.931)" fill="#3e5959"/></g></g></g></svg>