<?xml version="1.0" encoding="utf-8"?>
<!-- Generator: Adobe Illustrator 25.2.3, SVG Export Plug-In . SVG Version: 6.00 Build 0)  -->
<svg version="1.1" id="Capa_1" xmlns="http://www.w3.org/2000/svg" xmlns:xlink="http://www.w3.org/1999/xlink" x="0px" y="0px"
	 viewBox="0 0 869 205.3" style="enable-background:new 0 0 869 205.3;" xml:space="preserve">
<style type="text/css">
	.st0{fill:#FFFFFF;}
	.st1{fill:url(#SVGID_1_);}
	.st2{fill:none;stroke:#E8B4B1;stroke-width:2;}
	.st3{fill:url(#SVGID_2_);}
	.st4{fill:url(#SVGID_3_);}
	.st5{fill:#7D97F4;}
	.st6{fill:#EDF1F9;}
	.st7{fill:#1E168C;}
	.st8{fill:#8CD9D6;}
	.st9{fill:#EEF3FF;}
</style>
<g transform="translate(-246 -7524.511)">
	<path class="st0" d="M689.5,7609.7c4.4,0.1,7.9,3.7,7.8,8.1c0.1,4.4-3.4,8-7.8,8.1c-4.4-0.1-7.9-3.7-7.8-8.1
		C681.6,7613.5,685.1,7609.8,689.5,7609.7z"/>
	
		<linearGradient id="SVGID_1_" gradientUnits="userSpaceOnUse" x1="358.7835" y1="7996.2915" x2="359.7835" y2="7996.2915" gradientTransform="matrix(10.0943 0 0 -10.534 -2971.9639 91850.8516)">
		<stop  offset="0" style="stop-color:#ECB9B8"/>
		<stop  offset="1" style="stop-color:#E5908C"/>
	</linearGradient>
	<path class="st1" d="M689.5,7612.6c2.8,0.1,5.1,2.4,5,5.3c0.1,2.8-2.2,5.2-5,5.3c-2.8-0.1-5.1-2.4-5-5.3
		C684.3,7615.1,686.6,7612.7,689.5,7612.6z"/>
	<path class="st2" d="M693.7,7620.8l77.6,52.6"/>
	<path class="st0" d="M689.5,7607c4.4,0.1,7.9,3.7,7.8,8.1c0.1,4.4-3.4,8-7.8,8.1c-4.4-0.1-7.9-3.7-7.8-8.1
		C681.6,7610.8,685.1,7607.1,689.5,7607z"/>
	
		<linearGradient id="SVGID_2_" gradientUnits="userSpaceOnUse" x1="363.7585" y1="7996.2915" x2="364.7595" y2="7996.2915" gradientTransform="matrix(10.0943 0 0 -10.534 -2971.9639 91848.0312)">
		<stop  offset="0" style="stop-color:#ECB9B8"/>
		<stop  offset="1" style="stop-color:#E5908C"/>
	</linearGradient>
	<path class="st3" d="M689.5,7609.8c2.8,0.1,5.1,2.4,5,5.3c0.1,2.8-2.2,5.2-5,5.3c-2.8-0.1-5.1-2.4-5-5.3
		C684.3,7612.2,686.6,7609.9,689.5,7609.8z"/>
	<path class="st2" d="M693.7,7612.2l77.6-52.6"/>
	<path class="st0" d="M689.2,7608.9c4.4,0.1,7.9,3.7,7.8,8.1c0.1,4.4-3.4,8-7.8,8.1c-4.4-0.1-7.9-3.7-7.8-8.1
		C681.3,7612.6,684.8,7609,689.2,7608.9z"/>
	
		<linearGradient id="SVGID_3_" gradientUnits="userSpaceOnUse" x1="362.2205" y1="7996.2915" x2="363.2205" y2="7996.2915" gradientTransform="matrix(10.0943 0 0 -10.534 -2972.2078 91850.0391)">
		<stop  offset="0" style="stop-color:#E5908C"/>
		<stop  offset="1" style="stop-color:#DF6F63"/>
	</linearGradient>
	<path class="st4" d="M689.2,7611.8c2.8,0.1,5.1,2.4,5,5.3c0.1,2.8-2.2,5.2-5,5.3c-2.8-0.1-5.1-2.4-5-5.3
		C684.1,7614.3,686.4,7611.9,689.2,7611.8z"/>
	<path class="st2" d="M694.3,7617.1h92.5"/>
	<path class="st5" d="M722.8,7617.9l-49.8-52v17.3l-393.9-0.8c-18.3,0-33.1,15.5-33.1,34.6v0.3c0,19.1,14.8,34.6,33.1,34.6
		l393.9,0.8v17.3L722.8,7617.9z"/>
	<path class="st6" d="M566.6,7591.5H648c13.5,0.1,24.4,11.1,24.3,24.6c-0.1,13.4-10.9,24.2-24.3,24.3h-81.4
		c-13.5-0.1-24.4-11.1-24.3-24.6C542.3,7602.4,553.2,7591.5,566.6,7591.5z"/>
	<path class="st7" d="M573.9,7615.6h-2.7v4.6h-1.5v-11.4h3.8c1.1-0.1,2.1,0.2,3,0.9c0.7,0.6,1.1,1.6,1,2.5c0,0.7-0.2,1.3-0.6,1.9
		c-0.4,0.5-1,1-1.6,1.2l2.7,4.8v0.1h-1.6L573.9,7615.6z M571.3,7614.4h2.3c0.6,0,1.3-0.2,1.8-0.6c0.4-0.4,0.7-1,0.7-1.5
		c0-0.6-0.2-1.2-0.6-1.6c-0.5-0.4-1.2-0.6-1.8-0.6h-2.3V7614.4z M582.9,7620.4c-1.1,0-2.1-0.4-2.8-1.1c-0.7-0.8-1.1-1.9-1.1-3v-0.3
		c0-0.8,0.2-1.5,0.5-2.2c0.3-0.6,0.8-1.2,1.3-1.5c0.6-0.4,1.2-0.6,1.9-0.6c1-0.1,1.9,0.3,2.6,1.1c0.7,0.9,1,2,0.9,3.1v0.6h-5.7
		c0,0.7,0.2,1.5,0.7,2c0.5,0.5,1.1,0.8,1.8,0.8c0.5,0,0.9-0.1,1.3-0.3c0.4-0.2,0.7-0.5,0.9-0.8l0.9,0.7
		C585.4,7619.8,584.2,7620.4,582.9,7620.4z M582.7,7612.8c-0.6,0-1.1,0.2-1.5,0.6c-0.4,0.5-0.7,1.1-0.7,1.8h4.2v-0.1
		c0-0.6-0.2-1.2-0.6-1.7C583.8,7613,583.3,7612.8,582.7,7612.8z M591.3,7619.2c0.5,0,1-0.2,1.4-0.5c0.4-0.3,0.6-0.7,0.6-1.2h1.4
		c0,0.5-0.2,1-0.5,1.4c-0.3,0.4-0.7,0.8-1.2,1c-0.5,0.3-1.1,0.4-1.6,0.4c-1,0-2-0.4-2.7-1.2c-0.7-0.9-1.1-2-1-3.2v-0.2
		c0-0.8,0.1-1.5,0.5-2.2c0.3-0.6,0.7-1.1,1.3-1.5c0.6-0.4,1.3-0.5,2-0.5c0.9,0,1.7,0.3,2.4,0.9c0.6,0.6,1,1.4,1,2.2h-1.4
		c0-0.5-0.2-1-0.6-1.3c-0.4-0.3-0.9-0.5-1.4-0.5c-0.7,0-1.3,0.3-1.7,0.8c-0.4,0.7-0.7,1.5-0.6,2.3v0.3c-0.1,0.8,0.2,1.6,0.6,2.2
		C589.9,7618.9,590.6,7619.2,591.3,7619.2L591.3,7619.2z M599.7,7620.4c-1.1,0-2.1-0.4-2.8-1.1c-0.7-0.8-1.1-1.9-1.1-3v-0.3
		c0-0.8,0.2-1.5,0.5-2.2c0.3-0.6,0.8-1.2,1.3-1.5c0.6-0.4,1.2-0.6,1.9-0.6c1-0.1,1.9,0.3,2.6,1.1c0.7,0.9,1,2,0.9,3.1v0.6h-5.7
		c0,0.7,0.2,1.5,0.7,2c0.5,0.5,1.1,0.8,1.8,0.8c0.5,0,0.9-0.1,1.3-0.3c0.4-0.2,0.7-0.5,0.9-0.8l0.9,0.7
		C602.2,7619.8,601,7620.4,599.7,7620.4z M599.6,7612.8c-0.6,0-1.1,0.2-1.5,0.6c-0.4,0.5-0.7,1.1-0.7,1.8h4.2v-0.1
		c0-0.6-0.2-1.2-0.6-1.7C600.6,7613,600.1,7612.8,599.6,7612.8L599.6,7612.8z M611.9,7616.1c0.1,1.1-0.3,2.2-0.9,3.1
		c-0.5,0.8-1.4,1.2-2.4,1.2c-0.9,0-1.8-0.3-2.4-1v4.1h-1.4v-11.7h1.3l0.1,0.9c0.6-0.7,1.5-1.1,2.5-1.1c0.9,0,1.8,0.4,2.4,1.1
		c0.6,0.9,1,2.1,0.9,3.2L611.9,7616.1z M610.4,7615.9c0-0.8-0.2-1.6-0.6-2.3c-0.4-0.5-1-0.9-1.7-0.8c-0.8,0-1.6,0.4-2,1.2v4
		c0.4,0.7,1.2,1.2,2,1.2c0.7,0,1.3-0.3,1.7-0.8C610.3,7617.6,610.5,7616.8,610.4,7615.9z M617.1,7619.2c0.5,0,1-0.2,1.4-0.5
		c0.4-0.3,0.6-0.7,0.6-1.2h1.4c0,0.5-0.2,1-0.5,1.4c-0.3,0.4-0.7,0.8-1.2,1.1c-0.5,0.3-1.1,0.4-1.6,0.4c-1,0-2.1-0.4-2.7-1.2
		c-0.7-0.9-1.1-2-1-3.2v-0.2c0-0.8,0.1-1.5,0.5-2.2c0.3-0.6,0.7-1.1,1.3-1.5c0.6-0.4,1.3-0.5,2-0.5c0.9,0,1.7,0.3,2.4,0.9
		c0.6,0.6,1,1.4,1,2.2h-1.4c0-0.5-0.2-1-0.6-1.3c-0.4-0.4-0.9-0.5-1.4-0.5c-0.7,0-1.3,0.3-1.7,0.8c-0.4,0.7-0.7,1.5-0.6,2.3v0.3
		c-0.1,0.8,0.2,1.6,0.6,2.2C615.8,7618.9,616.4,7619.2,617.1,7619.2L617.1,7619.2z M623.6,7620.2h-1.5v-8.5h1.5V7620.2z
		 M622.1,7609.5c0-0.2,0.1-0.4,0.2-0.6c0.2-0.2,0.4-0.3,0.6-0.2c0.2,0,0.5,0.1,0.6,0.2c0.1,0.2,0.2,0.4,0.2,0.6
		c0,0.2-0.1,0.4-0.2,0.6c-0.2,0.2-0.4,0.3-0.6,0.2c-0.2,0-0.5-0.1-0.6-0.2C622.1,7609.9,622.1,7609.7,622.1,7609.5z M625.6,7615.9
		c0-0.8,0.2-1.5,0.5-2.2c0.3-0.6,0.8-1.2,1.4-1.5c0.6-0.4,1.3-0.6,2-0.5c1.1,0,2.1,0.4,2.8,1.2c0.7,0.9,1.1,2,1.1,3.2v0.1
		c0,0.8-0.1,1.5-0.5,2.2c-0.3,0.6-0.8,1.2-1.3,1.5c-0.6,0.4-1.3,0.6-2,0.5c-1.1,0-2.1-0.4-2.8-1.2
		C625.9,7618.3,625.5,7617.2,625.6,7615.9L625.6,7615.9z M627,7616.1c0,0.8,0.2,1.6,0.7,2.3c0.4,0.6,1.1,0.9,1.7,0.9
		c0.7,0,1.3-0.3,1.8-0.9c0.5-0.7,0.7-1.6,0.6-2.4c0-0.8-0.2-1.6-0.7-2.3c-0.4-0.6-1.1-0.9-1.8-0.9c-0.7,0-1.3,0.3-1.7,0.9
		C627.2,7614.4,627,7615.2,627,7616.1L627,7616.1z M630.1,7608.2h1.8l-2.1,2.3h-1.2L630.1,7608.2z M636.4,7611.8l0,1.1
		c0.6-0.8,1.5-1.2,2.5-1.2c1.8,0,2.7,1,2.7,3v5.6h-1.4v-5.6c0-0.5-0.1-1-0.4-1.4c-0.3-0.3-0.8-0.5-1.3-0.4c-0.4,0-0.9,0.1-1.2,0.4
		c-0.4,0.3-0.6,0.6-0.8,1v6h-1.4v-8.5H636.4z"/>
	<path class="st8" d="M1115,7617.9l-49.8-52v17.3l-114.4-0.8c-18.3,0-33.1,15.5-33.1,34.6v0.3c0,19.1,14.8,34.6,33.1,34.6l114.4,0.8
		v17.3L1115,7617.9z"/>
	<path class="st6" d="M958.7,7591.5h81.4c13.5,0.1,24.4,11.1,24.3,24.6c-0.1,13.4-10.9,24.2-24.3,24.3h-81.4
		c-13.5-0.1-24.4-11.1-24.3-24.6C934.5,7602.4,945.3,7591.5,958.7,7591.5z"/>
	<path class="st6" d="M425.8,7591.5h81.4c13.5,0.1,24.4,11.1,24.3,24.6c-0.1,13.4-10.9,24.2-24.3,24.3h-81.4
		c-13.5-0.1-24.4-11.1-24.3-24.6C401.6,7602.4,412.4,7591.5,425.8,7591.5z"/>
	<path class="st7" d="M428.2,7620.2h-1.5v-11.4h1.5V7620.2z M432.1,7611.8l0,1.1c0.6-0.8,1.5-1.2,2.5-1.2c1.8,0,2.7,1,2.7,3v5.6
		h-1.4v-5.6c0-0.5-0.1-1-0.4-1.4c-0.3-0.3-0.8-0.5-1.3-0.4c-0.4,0-0.9,0.1-1.2,0.4c-0.4,0.3-0.6,0.6-0.8,1v6h-1.4v-8.5H432.1z
		 M442.3,7618.3l2.1-6.5h1.5l-3,8.5h-1.1l-3.1-8.5h1.5L442.3,7618.3z M450.6,7620.4c-1.1,0-2.1-0.4-2.8-1.1c-0.7-0.8-1.1-1.9-1.1-3
		v-0.3c0-0.8,0.2-1.5,0.5-2.2c0.3-0.6,0.8-1.2,1.3-1.5c0.6-0.4,1.2-0.6,1.9-0.6c1-0.1,1.9,0.3,2.6,1.1c0.7,0.9,1,2,0.9,3.1v0.6h-5.7
		c0,0.7,0.2,1.5,0.7,2c0.5,0.5,1.1,0.8,1.8,0.8c0.5,0,0.9-0.1,1.3-0.3c0.4-0.2,0.7-0.5,0.9-0.8l0.9,0.7
		C453.1,7619.8,451.9,7620.4,450.6,7620.4z M450.4,7612.8c-0.6,0-1.1,0.2-1.5,0.6c-0.4,0.5-0.7,1.1-0.7,1.8h4.2v-0.1
		c0-0.6-0.2-1.2-0.6-1.7C451.5,7613,451,7612.8,450.4,7612.8L450.4,7612.8z M457,7611.8l0,1.1c0.6-0.8,1.5-1.2,2.5-1.2
		c1.8,0,2.7,1,2.7,3v5.6h-1.4v-5.6c0-0.5-0.1-1-0.4-1.4c-0.3-0.3-0.8-0.5-1.3-0.4c-0.4,0-0.9,0.1-1.2,0.4c-0.4,0.3-0.6,0.6-0.8,1v6
		h-1.4v-8.5H457z M466.4,7609.7v2h1.6v1.1h-1.6v5.2c0,0.3,0.1,0.5,0.2,0.8c0.2,0.2,0.5,0.3,0.7,0.3c0.2,0,0.5,0,0.7-0.1v1.2
		c-0.4,0.1-0.7,0.2-1.1,0.2c-0.6,0-1.1-0.2-1.5-0.6c-0.4-0.5-0.5-1.1-0.5-1.7v-5.2h-1.5v-1.1h1.5v-2H466.4z M474.9,7620.2
		c-0.1-0.3-0.2-0.6-0.2-0.9c-0.6,0.7-1.5,1.1-2.4,1c-0.7,0-1.5-0.2-2.1-0.7c-0.5-0.4-0.8-1.1-0.8-1.8c0-0.8,0.3-1.6,1-2.1
		c0.8-0.5,1.8-0.8,2.8-0.7h1.4v-0.7c0-0.4-0.1-0.9-0.4-1.2c-0.4-0.3-0.8-0.5-1.3-0.4c-0.5,0-0.9,0.1-1.3,0.4
		c-0.3,0.2-0.5,0.6-0.5,0.9h-1.5c0-0.4,0.2-0.9,0.4-1.2c0.3-0.4,0.7-0.7,1.2-0.9c0.5-0.2,1.1-0.4,1.7-0.3c0.8,0,1.6,0.2,2.3,0.7
		c0.6,0.5,0.9,1.2,0.9,2v3.9c0,0.6,0.1,1.3,0.3,1.9v0.1H474.9z M472.5,7619.1c0.5,0,0.9-0.1,1.3-0.4c0.4-0.2,0.7-0.5,0.9-0.9v-1.7
		h-1.1c-1.8,0-2.7,0.5-2.7,1.6c0,0.4,0.1,0.8,0.5,1.1C471.6,7619,472.1,7619.1,472.5,7619.1L472.5,7619.1z M482.4,7613.1
		c-0.2,0-0.5-0.1-0.7-0.1c-0.8-0.1-1.6,0.4-1.9,1.2v6h-1.4v-8.5h1.4l0,1c0.4-0.7,1.2-1.2,2-1.1c0.2,0,0.4,0,0.6,0.1L482.4,7613.1z
		 M485.3,7620.2h-1.4v-8.5h1.4V7620.2z M483.8,7609.5c0-0.2,0.1-0.4,0.2-0.6c0.2-0.2,0.4-0.3,0.6-0.2c0.2,0,0.5,0.1,0.6,0.2
		c0.1,0.2,0.2,0.4,0.2,0.6c0,0.2-0.1,0.4-0.2,0.6c-0.2,0.2-0.4,0.3-0.6,0.2c-0.2,0-0.5-0.1-0.6-0.2
		C483.8,7609.9,483.8,7609.7,483.8,7609.5z M487.3,7615.9c0-0.8,0.2-1.5,0.5-2.2c0.3-0.6,0.8-1.2,1.4-1.5c0.6-0.4,1.3-0.6,2-0.5
		c1.1,0,2.1,0.4,2.8,1.2c0.7,0.9,1.1,2,1.1,3.2v0.1c0,0.8-0.1,1.5-0.5,2.2c-0.3,0.6-0.8,1.2-1.4,1.5c-0.6,0.4-1.3,0.6-2,0.5
		c-1.1,0-2.1-0.4-2.8-1.2C487.6,7618.3,487.2,7617.2,487.3,7615.9L487.3,7615.9z M488.7,7616.1c0,0.8,0.2,1.6,0.7,2.3
		c0.4,0.6,1.1,0.9,1.7,0.9c0.7,0,1.3-0.3,1.8-0.9c0.5-0.7,0.7-1.6,0.6-2.4c0-0.8-0.2-1.6-0.7-2.3c-0.4-0.6-1.1-0.9-1.8-0.9
		c-0.7,0-1.3,0.3-1.7,0.9C488.9,7614.4,488.7,7615.2,488.7,7616.1L488.7,7616.1z M501.7,7618c0-0.4-0.2-0.7-0.4-0.9
		c-0.5-0.3-1-0.5-1.5-0.6c-0.6-0.1-1.2-0.3-1.7-0.6c-0.4-0.2-0.7-0.4-1-0.8c-0.2-0.3-0.3-0.7-0.3-1.1c0-0.7,0.3-1.3,0.9-1.8
		c0.6-0.5,1.4-0.8,2.2-0.7c0.8,0,1.7,0.2,2.3,0.7c0.6,0.5,0.9,1.2,0.9,1.9h-1.5c0-0.4-0.2-0.8-0.5-1c-0.4-0.3-0.8-0.4-1.3-0.4
		c-0.4,0-0.9,0.1-1.2,0.3c-0.3,0.2-0.5,0.5-0.4,0.9c0,0.3,0.1,0.6,0.4,0.8c0.5,0.2,1,0.4,1.5,0.5c0.6,0.1,1.2,0.3,1.8,0.6
		c0.4,0.2,0.7,0.5,1,0.8c0.2,0.3,0.3,0.7,0.3,1.2c0,0.7-0.3,1.4-0.9,1.8c-0.7,0.5-1.5,0.7-2.4,0.7c-0.6,0-1.2-0.1-1.8-0.4
		c-0.5-0.2-0.9-0.6-1.2-1c-0.3-0.4-0.4-0.9-0.5-1.4h1.4c0,0.5,0.2,0.9,0.6,1.2c0.4,0.3,0.9,0.5,1.4,0.4c0.5,0,0.9-0.1,1.3-0.3
		C501.5,7618.7,501.7,7618.3,501.7,7618z"/>
	<path class="st6" d="M281.7,7592.6h81.4c13.5,0.1,24.4,11.1,24.3,24.6c-0.1,13.4-10.9,24.2-24.3,24.3h-81.4
		c-13.5-0.1-24.4-11.1-24.3-24.6C257.4,7603.5,268.3,7592.7,281.7,7592.6z"/>
	<path class="st7" d="M295.7,7616.9v4.5h-1.5V7610h4.2c1.1-0.1,2.1,0.3,2.9,1c0.7,0.6,1.1,1.6,1.1,2.5c0.1,1-0.3,1.9-1,2.6
		c-0.8,0.6-1.9,1-3,0.9H295.7z M295.7,7615.7h2.7c0.7,0,1.3-0.2,1.8-0.6c0.4-0.4,0.7-1,0.6-1.6c0-0.6-0.2-1.2-0.6-1.6
		c-0.5-0.4-1.1-0.7-1.8-0.6h-2.8V7615.7z M307.4,7621.5c-1.1,0-2.1-0.4-2.8-1.1c-0.7-0.8-1.1-1.9-1.1-3v-0.3c0-0.8,0.2-1.5,0.5-2.2
		c0.3-0.6,0.8-1.2,1.3-1.5c0.6-0.4,1.2-0.6,1.9-0.6c1-0.1,1.9,0.3,2.6,1.1c0.7,0.9,1,2,0.9,3.1v0.6H305c0,0.7,0.2,1.5,0.7,2
		c0.5,0.5,1.1,0.8,1.8,0.8c0.5,0,0.9-0.1,1.3-0.3c0.4-0.2,0.7-0.5,0.9-0.8l0.9,0.7C309.9,7621,308.7,7621.6,307.4,7621.5z
		 M307.2,7613.9c-0.6,0-1.1,0.2-1.5,0.6c-0.4,0.5-0.7,1.1-0.7,1.8h4.2v-0.1c0-0.6-0.2-1.2-0.6-1.7
		C308.3,7614.1,307.8,7613.9,307.2,7613.9L307.2,7613.9z M312,7617.1c-0.1-1.1,0.3-2.2,0.9-3.1c0.6-0.8,1.5-1.2,2.4-1.2
		c0.9,0,1.8,0.3,2.3,1v-4.4h1.4v12h-1.3l-0.1-0.9c-0.6,0.7-1.5,1.1-2.4,1.1c-0.9,0-1.8-0.4-2.4-1.2c-0.7-0.9-1-2-0.9-3.1L312,7617.1
		z M313.5,7617.2c0,0.8,0.2,1.6,0.6,2.2c0.4,0.5,1,0.8,1.6,0.8c0.9,0,1.6-0.5,2-1.2v-3.9c-0.4-0.8-1.1-1.2-2-1.2
		c-0.7,0-1.3,0.3-1.7,0.8C313.6,7615.5,313.4,7616.4,313.5,7617.2z M323,7621.4h-1.4v-8.5h1.4V7621.4z M321.4,7610.7
		c0-0.2,0.1-0.4,0.2-0.6c0.2-0.2,0.4-0.3,0.6-0.2c0.2,0,0.5,0.1,0.6,0.2c0.1,0.2,0.2,0.4,0.2,0.6c0,0.2-0.1,0.4-0.2,0.6
		c-0.2,0.2-0.4,0.3-0.6,0.2c-0.2,0-0.5-0.1-0.6-0.2C321.5,7611.1,321.4,7610.9,321.4,7610.7z M324.9,7617.1
		c-0.1-1.1,0.3-2.2,0.9-3.1c0.6-0.8,1.5-1.2,2.4-1.2c0.9,0,1.8,0.3,2.4,1v-4.4h1.4v12h-1.3l-0.1-0.9c-0.6,0.7-1.5,1.1-2.4,1.1
		c-0.9,0-1.8-0.4-2.4-1.2c-0.7-0.9-1-2-0.9-3.1L324.9,7617.1z M326.4,7617.2c0,0.8,0.2,1.6,0.6,2.2c0.4,0.5,1,0.8,1.6,0.8
		c0.9,0,1.7-0.4,2-1.2v-3.9c-0.4-0.8-1.1-1.2-2-1.2c-0.7,0-1.3,0.3-1.7,0.8C326.5,7615.5,326.3,7616.4,326.4,7617.2L326.4,7617.2z
		 M333.9,7617.1c0-0.8,0.2-1.5,0.5-2.2c0.3-0.6,0.8-1.2,1.4-1.5c0.6-0.4,1.3-0.6,2-0.5c1.1,0,2.1,0.4,2.8,1.2c0.7,0.9,1.1,2,1.1,3.2
		v0.1c0,0.8-0.1,1.5-0.5,2.2c-0.3,0.6-0.8,1.2-1.4,1.5c-0.6,0.4-1.3,0.6-2,0.5c-1.1,0-2.1-0.4-2.8-1.2
		C334.3,7619.4,333.9,7618.3,333.9,7617.1L333.9,7617.1z M335.4,7617.2c0,0.8,0.2,1.6,0.7,2.3c0.4,0.6,1.1,0.9,1.7,0.9
		c0.7,0,1.3-0.3,1.8-0.9c0.5-0.7,0.7-1.6,0.6-2.4c0-0.8-0.2-1.6-0.7-2.3c-0.4-0.6-1.1-0.9-1.8-0.9c-0.7,0-1.3,0.3-1.7,0.9
		C335.6,7615.5,335.3,7616.4,335.4,7617.2L335.4,7617.2z M348.4,7619.1c0-0.4-0.2-0.7-0.4-0.9c-0.5-0.3-1-0.5-1.5-0.6
		c-0.6-0.1-1.2-0.3-1.7-0.6c-0.4-0.2-0.7-0.4-1-0.8c-0.2-0.3-0.3-0.7-0.3-1.1c0-0.7,0.3-1.3,0.9-1.8c0.6-0.5,1.4-0.8,2.2-0.7
		c0.8,0,1.7,0.2,2.3,0.7c0.6,0.5,0.9,1.2,0.9,1.9h-1.5c0-0.4-0.2-0.8-0.5-1c-0.4-0.3-0.8-0.4-1.3-0.4c-0.4,0-0.9,0.1-1.2,0.3
		c-0.3,0.2-0.5,0.5-0.4,0.9c0,0.3,0.1,0.6,0.4,0.8c0.5,0.2,1,0.4,1.5,0.5c0.6,0.1,1.2,0.3,1.8,0.6c0.4,0.2,0.7,0.5,1,0.8
		c0.2,0.3,0.3,0.7,0.3,1.2c0,0.7-0.3,1.4-0.9,1.8c-0.7,0.5-1.5,0.7-2.4,0.7c-0.6,0-1.2-0.1-1.8-0.4c-0.5-0.2-0.9-0.6-1.2-1
		c-0.3-0.4-0.4-0.9-0.4-1.4h1.4c0,0.5,0.2,0.9,0.6,1.2c0.4,0.3,0.9,0.5,1.4,0.4c0.5,0,0.9-0.1,1.3-0.3
		C348.2,7619.8,348.4,7619.5,348.4,7619.1z"/>
	<path class="st9" d="M872,7578.9H766.1c-11.4,0-20.7-9.7-20.7-21.6l0,0c0-11.9,9.3-21.6,20.7-21.6H872c11.4,0,20.7,9.7,20.7,21.6
		l0,0C892.7,7569.2,883.4,7578.9,872,7578.9z"/>
	<path class="st9" d="M872.5,7700.1H766.6c-11.4,0-20.7-9.7-20.7-21.6l0,0c0-11.9,9.3-21.6,20.7-21.6h105.9
		c11.4,0,20.7,9.7,20.7,21.6l0,0C893.2,7690.4,883.9,7700.1,872.5,7700.1z"/>
	<path class="st7" d="M775.4,7671.2c-0.1,0.9-0.5,1.8-1.2,2.4c-0.7,0.6-1.7,0.9-2.6,0.9c-1.1,0-2.1-0.4-2.8-1.3
		c-0.7-1-1.1-2.2-1.1-3.4v-1c0-0.8,0.2-1.7,0.5-2.4c0.3-0.7,0.8-1.2,1.4-1.6c0.6-0.4,1.4-0.6,2.1-0.6c0.9,0,1.8,0.3,2.5,0.9
		c0.7,0.6,1.1,1.5,1.1,2.4H774c0-0.6-0.3-1.3-0.7-1.7c-0.4-0.4-1-0.6-1.6-0.5c-0.8,0-1.5,0.3-2,0.9c-0.5,0.8-0.8,1.7-0.7,2.6v1
		c0,0.9,0.2,1.8,0.7,2.6c0.4,0.6,1.1,1,1.9,1c0.6,0,1.2-0.1,1.7-0.5c0.5-0.5,0.7-1.1,0.8-1.7L775.4,7671.2z M780.5,7668.1
		c-0.2,0-0.4,0-0.6,0c-0.7-0.1-1.4,0.4-1.7,1.1v5.2h-1.3v-7.4h1.2l0,0.9c0.4-0.6,1-1,1.8-1c0.2,0,0.4,0,0.6,0.1L780.5,7668.1z
		 M781.1,7670.6c0-0.7,0.1-1.3,0.4-2c0.3-0.6,0.7-1,1.2-1.3c0.5-0.3,1.1-0.5,1.7-0.5c0.9,0,1.8,0.3,2.4,1c0.7,0.8,1,1.8,0.9,2.8v0.1
		c0,0.7-0.1,1.3-0.4,1.9c-0.3,0.6-0.7,1-1.2,1.3c-0.5,0.3-1.1,0.5-1.8,0.5c-0.9,0-1.8-0.4-2.4-1
		C781.4,7672.6,781,7671.6,781.1,7670.6L781.1,7670.6z M782.3,7670.7c0,0.7,0.2,1.4,0.6,2c0.4,0.5,0.9,0.8,1.5,0.7
		c0.6,0,1.2-0.3,1.5-0.8c0.4-0.6,0.6-1.4,0.6-2.1c0-0.7-0.2-1.4-0.6-2c-0.4-0.5-0.9-0.8-1.5-0.8c-0.6,0-1.2,0.3-1.5,0.7
		C782.5,7669.2,782.3,7669.9,782.3,7670.7L782.3,7670.7z M793.7,7672.4c0-0.3-0.1-0.6-0.4-0.8c-0.4-0.2-0.9-0.4-1.3-0.5
		c-0.5-0.1-1-0.3-1.5-0.5c-0.3-0.2-0.6-0.4-0.8-0.7c-0.2-0.3-0.3-0.6-0.3-0.9c0-0.6,0.3-1.2,0.8-1.5c0.6-0.4,1.3-0.7,2-0.6
		c0.7,0,1.5,0.2,2,0.6c0.5,0.4,0.8,1,0.8,1.7h-1.3c0-0.4-0.2-0.7-0.4-0.9c-0.3-0.3-0.7-0.4-1.1-0.4c-0.4,0-0.8,0.1-1.1,0.3
		c-0.3,0.2-0.4,0.5-0.4,0.8c0,0.3,0.1,0.5,0.4,0.7c0.4,0.2,0.9,0.4,1.3,0.4c0.5,0.1,1,0.3,1.5,0.5c0.3,0.2,0.6,0.4,0.9,0.7
		c0.2,0.3,0.3,0.7,0.3,1c0,0.6-0.3,1.2-0.8,1.6c-0.6,0.4-1.3,0.6-2.1,0.6c-0.5,0-1.1-0.1-1.6-0.3c-0.4-0.2-0.8-0.5-1.1-0.9
		c-0.3-0.4-0.4-0.8-0.4-1.2h1.3c0,0.4,0.2,0.8,0.5,1c0.4,0.3,0.8,0.4,1.3,0.4c0.4,0,0.8-0.1,1.2-0.3
		C793.5,7673,793.7,7672.7,793.7,7672.4z M800.9,7672.4c0-0.3-0.1-0.6-0.4-0.8c-0.4-0.2-0.9-0.4-1.3-0.5c-0.5-0.1-1-0.3-1.5-0.5
		c-0.3-0.2-0.6-0.4-0.8-0.7c-0.2-0.3-0.3-0.6-0.3-0.9c0-0.6,0.3-1.2,0.8-1.5c0.6-0.4,1.3-0.7,2-0.6c0.7,0,1.5,0.2,2,0.6
		c0.5,0.4,0.8,1,0.8,1.7h-1.3c0-0.4-0.2-0.7-0.4-0.9c-0.3-0.3-0.7-0.4-1.1-0.4c-0.4,0-0.8,0.1-1.1,0.3c-0.3,0.2-0.4,0.5-0.4,0.8
		c0,0.3,0.1,0.5,0.4,0.7c0.4,0.2,0.9,0.4,1.3,0.4c0.5,0.1,1,0.3,1.5,0.5c0.3,0.2,0.6,0.4,0.9,0.7c0.2,0.3,0.3,0.7,0.3,1
		c0,0.6-0.3,1.2-0.8,1.6c-0.6,0.4-1.3,0.6-2.1,0.6c-0.5,0-1.1-0.1-1.6-0.3c-0.4-0.2-0.8-0.5-1.1-0.9c-0.3-0.4-0.4-0.8-0.4-1.2h1.3
		c0,0.4,0.2,0.8,0.5,1c0.4,0.3,0.8,0.4,1.3,0.4c0.4,0,0.8-0.1,1.2-0.3C800.8,7673,800.9,7672.7,800.9,7672.4z M767.5,7684.6
		c0-1,0.2-1.9,0.8-2.7c0.5-0.7,1.3-1.1,2.1-1c0.8,0,1.5,0.3,2.1,0.9v-3.9h1.3v10.5h-1.2l-0.1-0.8c-0.5,0.6-1.3,1-2.1,0.9
		c-0.8,0-1.6-0.4-2.1-1.1C767.8,7686.6,767.5,7685.6,767.5,7684.6L767.5,7684.6z M768.8,7684.7c0,0.7,0.1,1.4,0.5,2
		c0.3,0.5,0.9,0.7,1.4,0.7c0.8,0,1.4-0.4,1.8-1.1v-3.4c-0.3-0.7-1-1.1-1.7-1c-0.6,0-1.1,0.2-1.4,0.7
		C768.9,7683.2,768.7,7684,768.8,7684.7z M775.4,7684.5c0-0.7,0.1-1.3,0.4-2c0.3-0.6,0.7-1,1.2-1.3c0.5-0.3,1.1-0.5,1.7-0.5
		c0.9,0,1.8,0.4,2.4,1c0.7,0.8,1,1.8,0.9,2.8v0.1c0,0.7-0.1,1.3-0.4,1.9c-0.3,0.6-0.7,1-1.2,1.3c-0.5,0.3-1.1,0.5-1.8,0.5
		c-0.9,0-1.8-0.4-2.4-1C775.7,7686.6,775.3,7685.6,775.4,7684.5L775.4,7684.5z M776.7,7684.7c0,0.7,0.2,1.4,0.6,2
		c0.7,0.8,1.9,1,2.7,0.3c0.1-0.1,0.2-0.2,0.3-0.3c0.4-0.6,0.6-1.4,0.6-2.1c0-0.7-0.2-1.4-0.6-2c-0.4-0.5-0.9-0.8-1.5-0.8
		c-0.6,0-1.2,0.3-1.5,0.7C776.8,7683.2,776.6,7683.9,776.7,7684.7L776.7,7684.7z M786.7,7687.4c0.4,0,0.8-0.1,1.2-0.4
		c0.3-0.2,0.5-0.6,0.6-1h1.2c0,0.4-0.2,0.9-0.4,1.2c-0.3,0.4-0.6,0.7-1.1,0.9c-0.4,0.2-0.9,0.3-1.4,0.3c-0.9,0-1.8-0.3-2.4-1
		c-0.6-0.8-0.9-1.8-0.9-2.8v-0.2c0-0.7,0.1-1.3,0.4-1.9c0.2-0.5,0.6-1,1.1-1.3c0.5-0.3,1.1-0.5,1.7-0.5c0.8,0,1.5,0.2,2.1,0.7
		c0.5,0.5,0.9,1.2,0.9,1.9h-1.2c0-0.4-0.2-0.9-0.5-1.2c-0.3-0.3-0.8-0.5-1.2-0.5c-0.6,0-1.1,0.2-1.5,0.7c-0.4,0.6-0.6,1.3-0.5,2v0.2
		c0,0.7,0.1,1.4,0.5,2C785.5,7687.2,786.1,7687.4,786.7,7687.4z M793.1,7684.9l-0.8,0.8v2.6h-1.3v-10.5h1.3v6.4l0.7-0.8l2.3-2.4h1.5
		l-2.9,3.1l3.2,4.3h-1.5L793.1,7684.9z M799.5,7688.3h-1.3v-7.4h1.3V7688.3z M798.1,7679c0-0.2,0.1-0.4,0.2-0.5
		c0.1-0.1,0.3-0.2,0.6-0.2c0.2,0,0.4,0.1,0.6,0.2c0.1,0.1,0.2,0.3,0.2,0.5c0,0.2-0.1,0.4-0.2,0.5c-0.1,0.1-0.4,0.2-0.6,0.2
		c-0.2,0-0.4-0.1-0.6-0.2C798.2,7679.3,798.1,7679.1,798.1,7679z M802.7,7680.9l0,0.9c0.5-0.7,1.3-1.1,2.2-1.1
		c1.6,0,2.4,0.9,2.4,2.6v4.9h-1.3v-4.9c0-0.4-0.1-0.8-0.4-1.2c-0.3-0.3-0.7-0.4-1.1-0.4c-0.4,0-0.8,0.1-1.1,0.3
		c-0.3,0.2-0.6,0.5-0.7,0.9v5.3h-1.3v-7.4H802.7z M809,7684.6c-0.1-1,0.2-2,0.8-2.8c1-1.2,2.7-1.4,3.9-0.4c0.1,0.1,0.2,0.2,0.4,0.3
		l0.1-0.8h1.2v7.2c0,0.8-0.3,1.7-0.9,2.3c-0.6,0.6-1.4,0.9-2.3,0.8c-0.5,0-1.1-0.1-1.6-0.3c-0.5-0.2-0.9-0.5-1.2-0.9l0.7-0.8
		c0.5,0.6,1.2,1,2,1c0.5,0,1.1-0.2,1.4-0.5c0.4-0.4,0.5-0.9,0.5-1.5v-0.6c-0.5,0.6-1.3,0.9-2.1,0.9c-0.8,0-1.6-0.4-2.1-1
		C809.2,7686.6,808.9,7685.6,809,7684.6L809,7684.6z M810.2,7684.7c0,0.7,0.1,1.4,0.5,2c0.3,0.5,0.9,0.7,1.4,0.7
		c0.8,0,1.4-0.4,1.8-1.1v-3.4c-0.3-0.7-1-1.1-1.7-1.1c-0.6,0-1.1,0.2-1.4,0.7C810.4,7683.2,810.2,7684,810.2,7684.7L810.2,7684.7z"
		/>
	<path class="st9" d="M880,7640.4H774.1c-11.4,0-20.7-9.7-20.7-21.6l0,0c0-11.9,9.3-21.6,20.7-21.6H880c11.4,0,20.7,9.7,20.7,21.6
		l0,0C900.6,7630.7,891.4,7640.4,880,7640.4z"/>
	<path class="st7" d="M775.4,7611.5c-0.1,0.9-0.5,1.8-1.2,2.4c-0.7,0.6-1.7,0.9-2.6,0.9c-1.1,0-2.1-0.4-2.8-1.3
		c-0.7-1-1.1-2.2-1.1-3.4v-1c0-0.8,0.2-1.7,0.5-2.4c0.3-0.7,0.8-1.2,1.4-1.6c0.6-0.4,1.4-0.6,2.1-0.6c0.9,0,1.8,0.3,2.5,0.9
		c0.7,0.6,1.1,1.5,1.1,2.4H774c0-0.6-0.3-1.3-0.7-1.7c-0.4-0.4-1-0.6-1.6-0.5c-0.8,0-1.5,0.3-2,0.9c-0.5,0.8-0.8,1.7-0.7,2.6v1
		c0,0.9,0.2,1.8,0.7,2.6c0.4,0.6,1.1,1,1.9,1c0.6,0,1.2-0.1,1.7-0.5c0.5-0.5,0.7-1.1,0.8-1.7L775.4,7611.5z M776.6,7610.8
		c0-0.7,0.1-1.3,0.4-2c0.3-0.6,0.7-1,1.2-1.3c0.5-0.3,1.1-0.5,1.7-0.5c0.9,0,1.8,0.4,2.4,1c0.7,0.8,1,1.8,0.9,2.8v0.1
		c0,0.7-0.1,1.3-0.4,1.9c-0.3,0.6-0.7,1-1.2,1.3c-0.5,0.3-1.1,0.5-1.8,0.5c-0.9,0-1.8-0.4-2.4-1
		C776.9,7612.9,776.6,7611.9,776.6,7610.8L776.6,7610.8z M777.9,7611c0,0.7,0.2,1.4,0.6,2c0.4,0.5,0.9,0.8,1.5,0.7
		c0.6,0,1.2-0.3,1.5-0.8c0.4-0.6,0.6-1.4,0.6-2.1c0-0.7-0.2-1.4-0.6-2c-0.4-0.5-0.9-0.8-1.5-0.8c-0.6,0-1.2,0.3-1.5,0.7
		C778,7609.5,777.8,7610.2,777.9,7611z M786.1,7607.2l0,0.9c0.5-0.7,1.3-1.1,2.2-1.1c1.6,0,2.4,0.9,2.4,2.6v4.9h-1.3v-4.9
		c0-0.4-0.1-0.8-0.4-1.2c-0.3-0.3-0.7-0.4-1.1-0.4c-0.4,0-0.8,0.1-1.1,0.3c-0.3,0.2-0.6,0.5-0.7,0.9v5.3h-1.3v-7.4H786.1z
		 M797,7612.7c0-0.3-0.1-0.6-0.4-0.8c-0.4-0.2-0.9-0.4-1.3-0.5c-0.5-0.1-1-0.3-1.5-0.5c-0.3-0.2-0.6-0.4-0.8-0.7
		c-0.2-0.3-0.3-0.6-0.3-0.9c0-0.6,0.3-1.2,0.8-1.5c0.6-0.4,1.3-0.7,2-0.6c0.7,0,1.5,0.2,2,0.6c0.5,0.4,0.8,1,0.8,1.7h-1.3
		c0-0.4-0.2-0.7-0.4-0.9c-0.3-0.3-0.7-0.4-1.1-0.4c-0.4,0-0.8,0.1-1.1,0.3c-0.3,0.2-0.4,0.5-0.4,0.8c0,0.3,0.1,0.5,0.4,0.7
		c0.4,0.2,0.9,0.4,1.3,0.4c0.5,0.1,1,0.3,1.5,0.5c0.3,0.2,0.6,0.4,0.9,0.7c0.2,0.3,0.3,0.7,0.3,1c0,0.6-0.3,1.2-0.8,1.6
		c-0.6,0.4-1.3,0.6-2.1,0.6c-0.5,0-1.1-0.1-1.6-0.3c-0.4-0.2-0.8-0.5-1.1-0.9c-0.3-0.4-0.4-0.8-0.4-1.2h1.3c0,0.4,0.2,0.8,0.5,1
		c0.4,0.3,0.8,0.4,1.3,0.4c0.4,0,0.8-0.1,1.2-0.3C796.8,7613.3,797,7613,797,7612.7z M799.5,7610.9c0-0.7,0.1-1.3,0.4-2
		c0.3-0.6,0.7-1,1.2-1.3c0.5-0.3,1.1-0.5,1.7-0.5c0.9,0,1.8,0.4,2.4,1c0.7,0.8,1,1.8,0.9,2.8v0.1c0,0.7-0.1,1.3-0.4,1.9
		c-0.3,0.6-0.7,1-1.2,1.3c-0.5,0.3-1.1,0.5-1.8,0.5c-0.9,0-1.8-0.4-2.4-1C799.8,7612.9,799.5,7611.9,799.5,7610.9L799.5,7610.9z
		 M800.8,7611c0,0.7,0.2,1.4,0.6,2c0.4,0.5,0.9,0.8,1.5,0.7c0.6,0,1.2-0.3,1.5-0.8c0.4-0.6,0.6-1.4,0.6-2.1c0-0.7-0.2-1.4-0.6-2
		c-0.4-0.5-0.9-0.8-1.5-0.8c-0.6,0-1.2,0.3-1.5,0.7C801,7609.5,800.8,7610.2,800.8,7611L800.8,7611z M809.2,7614.6H808v-10.5h1.3
		L809.2,7614.6z M812.6,7614.6h-1.3v-7.4h1.3L812.6,7614.6z M811.3,7605.3c0-0.2,0.1-0.4,0.2-0.5c0.1-0.1,0.3-0.2,0.6-0.2
		c0.2,0,0.4,0.1,0.6,0.2c0.1,0.1,0.2,0.3,0.2,0.5c0,0.2-0.1,0.4-0.2,0.5c-0.1,0.1-0.4,0.2-0.6,0.2c-0.2,0-0.4-0.1-0.6-0.2
		C811.3,7605.6,811.3,7605.4,811.3,7605.3z M814.3,7610.9c0-1,0.2-1.9,0.8-2.7c0.5-0.7,1.3-1.1,2.1-1c0.8,0,1.5,0.3,2.1,0.9v-3.9
		h1.3v10.5h-1.2l-0.1-0.8c-0.5,0.6-1.3,1-2.1,0.9c-0.8,0-1.6-0.4-2.1-1.1C814.6,7612.9,814.3,7611.9,814.3,7610.9L814.3,7610.9z
		 M815.6,7611c0,0.7,0.1,1.4,0.5,2c0.3,0.5,0.9,0.7,1.4,0.7c0.8,0,1.4-0.4,1.8-1.1v-3.4c-0.3-0.7-1-1.1-1.7-1
		c-0.6,0-1.1,0.2-1.4,0.7C815.7,7609.5,815.6,7610.3,815.6,7611L815.6,7611z M827.1,7614.6c-0.1-0.2-0.2-0.5-0.2-0.8
		c-0.5,0.6-1.3,0.9-2.1,0.9c-0.7,0-1.3-0.2-1.8-0.6c-0.5-0.4-0.7-1-0.7-1.6c0-0.7,0.3-1.4,0.9-1.8c0.7-0.5,1.6-0.7,2.5-0.6h1.2v-0.6
		c0-0.4-0.1-0.8-0.4-1.1c-0.3-0.3-0.7-0.4-1.2-0.4c-0.4,0-0.8,0.1-1.1,0.3c-0.3,0.2-0.5,0.5-0.5,0.8h-1.3c0-0.4,0.1-0.8,0.4-1.1
		c0.3-0.4,0.6-0.6,1.1-0.8c0.5-0.2,1-0.3,1.5-0.3c0.7,0,1.4,0.2,2,0.6c0.5,0.5,0.8,1.1,0.8,1.8v3.4c0,0.6,0.1,1.1,0.3,1.6v0.1H827.1
		z M825,7613.6c0.4,0,0.8-0.1,1.1-0.3c0.3-0.2,0.6-0.5,0.8-0.8v-1.5h-1c-1.5,0-2.3,0.5-2.3,1.4c0,0.4,0.1,0.7,0.4,0.9
		C824.3,7613.5,824.7,7613.7,825,7613.6L825,7613.6z M833.1,7613.7c0.4,0,0.8-0.1,1.2-0.4c0.3-0.2,0.5-0.6,0.6-1h1.2
		c0,0.4-0.2,0.9-0.4,1.2c-0.3,0.4-0.6,0.7-1.1,0.9c-0.4,0.2-0.9,0.3-1.4,0.3c-0.9,0-1.8-0.3-2.4-1c-0.6-0.8-0.9-1.8-0.9-2.8v-0.2
		c0-0.7,0.1-1.3,0.4-1.9c0.2-0.5,0.6-1,1.1-1.3c0.5-0.3,1.1-0.5,1.8-0.5c0.8,0,1.5,0.2,2.1,0.7c0.5,0.5,0.9,1.2,0.9,1.9h-1.2
		c0-0.4-0.2-0.9-0.5-1.2c-0.3-0.3-0.8-0.5-1.2-0.5c-0.6,0-1.1,0.2-1.5,0.7c-0.4,0.6-0.6,1.3-0.5,2v0.2c0,0.7,0.1,1.4,0.5,2
		C832,7613.5,832.6,7613.7,833.1,7613.7z M838.9,7614.6h-1.3v-7.4h1.3L838.9,7614.6z M837.5,7605.3c0-0.2,0.1-0.4,0.2-0.5
		c0.1-0.1,0.3-0.2,0.6-0.2c0.2,0,0.4,0.1,0.6,0.2c0.1,0.1,0.2,0.3,0.2,0.5c0,0.2-0.1,0.4-0.2,0.5c-0.1,0.1-0.4,0.2-0.6,0.2
		c-0.2,0-0.4-0.1-0.6-0.2C837.6,7605.6,837.5,7605.4,837.5,7605.3z M840.6,7610.8c0-0.7,0.1-1.3,0.4-2c0.3-0.6,0.7-1,1.2-1.3
		c0.5-0.3,1.1-0.5,1.7-0.5c0.9,0,1.8,0.4,2.4,1c0.7,0.8,1,1.8,0.9,2.8v0.1c0,0.7-0.1,1.3-0.4,1.9c-0.3,0.6-0.7,1-1.2,1.3
		c-0.5,0.3-1.1,0.5-1.8,0.5c-0.9,0-1.8-0.4-2.4-1C840.8,7612.9,840.5,7611.9,840.6,7610.8L840.6,7610.8z M841.8,7611
		c0,0.7,0.2,1.4,0.6,2c0.4,0.5,0.9,0.8,1.5,0.7c0.6,0,1.2-0.3,1.5-0.8c0.4-0.6,0.6-1.4,0.6-2.1c0-0.7-0.2-1.4-0.6-2
		c-0.4-0.5-0.9-0.8-1.5-0.8c-0.6,0-1.2,0.3-1.5,0.7C842,7609.5,841.8,7610.2,841.8,7611z M844.5,7604.1h1.5l-1.8,2h-1L844.5,7604.1z
		 M850.1,7607.2l0,0.9c0.5-0.7,1.3-1.1,2.2-1.1c1.6,0,2.4,0.9,2.4,2.6v4.9h-1.3v-4.9c0-0.4-0.1-0.8-0.4-1.2
		c-0.3-0.3-0.7-0.4-1.1-0.4c-0.4,0-0.8,0.1-1.1,0.3c-0.3,0.2-0.6,0.5-0.7,0.9v5.3h-1.3v-7.4H850.1z"/>
	<path class="st7" d="M768.1,7630.7H767l4.2-10.8h1.1L768.1,7630.7z M773.3,7626.1c0-1,0.2-1.9,0.8-2.7c0.5-0.7,1.3-1.1,2.1-1
		c0.8,0,1.5,0.3,2.1,0.9v-3.9h1.3v10.5h-1.2l-0.1-0.8c-0.5,0.6-1.3,1-2.1,0.9c-0.8,0-1.6-0.4-2.1-1.1
		C773.5,7628.1,773.2,7627.2,773.3,7626.1L773.3,7626.1z M774.6,7626.2c0,0.7,0.1,1.4,0.5,2c0.3,0.5,0.9,0.7,1.4,0.7
		c0.8,0,1.5-0.4,1.8-1.1v-3.4c-0.3-0.7-1-1.1-1.7-1c-0.6,0-1.1,0.2-1.5,0.7C774.7,7624.8,774.5,7625.5,774.6,7626.2z M784.6,7630
		c-0.9,0-1.8-0.3-2.4-1c-0.7-0.7-1-1.7-0.9-2.6v-0.2c0-0.7,0.1-1.4,0.4-2c0.3-0.6,0.7-1,1.2-1.4c0.5-0.3,1.1-0.5,1.6-0.5
		c0.9,0,1.7,0.3,2.2,1c0.6,0.8,0.9,1.7,0.8,2.7v0.5h-5c0,0.6,0.2,1.3,0.6,1.8c0.4,0.4,1,0.7,1.6,0.7c0.4,0,0.8-0.1,1.1-0.3
		c0.3-0.2,0.6-0.4,0.8-0.7l0.8,0.6C786.8,7629.5,785.7,7630.1,784.6,7630z M784.4,7623.4c-0.5,0-1,0.2-1.3,0.6
		c-0.4,0.4-0.6,1-0.6,1.6h3.7v-0.1c0-0.5-0.2-1.1-0.5-1.5C785.4,7623.5,784.9,7623.3,784.4,7623.4z M793.2,7627.9
		c0-0.3-0.1-0.6-0.4-0.8c-0.4-0.2-0.9-0.4-1.3-0.5c-0.5-0.1-1-0.3-1.5-0.5c-0.3-0.2-0.6-0.4-0.8-0.7c-0.2-0.3-0.3-0.6-0.3-0.9
		c0-0.6,0.3-1.2,0.8-1.5c0.6-0.4,1.3-0.7,2-0.6c0.7,0,1.5,0.2,2,0.6c0.5,0.4,0.8,1,0.8,1.7h-1.3c0-0.4-0.2-0.7-0.4-0.9
		c-0.3-0.3-0.7-0.4-1.1-0.4c-0.4,0-0.8,0.1-1.1,0.3c-0.3,0.2-0.4,0.5-0.4,0.8c0,0.3,0.1,0.5,0.4,0.7c0.4,0.2,0.9,0.4,1.3,0.4
		c0.5,0.1,1,0.3,1.5,0.5c0.3,0.2,0.6,0.4,0.9,0.7c0.2,0.3,0.3,0.7,0.3,1c0,0.6-0.3,1.2-0.8,1.6c-0.6,0.4-1.3,0.6-2.1,0.6
		c-0.5,0-1.1-0.1-1.6-0.3c-0.4-0.2-0.8-0.5-1.1-0.9c-0.3-0.4-0.4-0.8-0.4-1.2h1.3c0,0.4,0.2,0.8,0.5,1c0.4,0.3,0.8,0.4,1.3,0.4
		c0.4,0,0.8-0.1,1.2-0.3C793.1,7628.5,793.2,7628.2,793.2,7627.9z M799.1,7629c0.4,0,0.8-0.1,1.2-0.4c0.3-0.2,0.5-0.6,0.6-1h1.2
		c0,0.4-0.2,0.9-0.4,1.2c-0.3,0.4-0.6,0.7-1.1,0.9c-0.4,0.2-0.9,0.3-1.4,0.3c-0.9,0-1.8-0.3-2.4-1c-0.6-0.8-1-1.8-0.9-2.8v-0.2
		c0-0.7,0.1-1.3,0.4-1.9c0.2-0.5,0.6-1,1.1-1.3c0.5-0.3,1.1-0.5,1.8-0.5c0.8,0,1.5,0.2,2.1,0.7c0.5,0.5,0.9,1.2,0.9,1.9h-1.2
		c0-0.4-0.2-0.9-0.5-1.2c-0.3-0.3-0.8-0.5-1.2-0.5c-0.6,0-1.1,0.2-1.5,0.7c-0.4,0.6-0.6,1.3-0.5,2v0.2c0,0.7,0.1,1.4,0.5,2
		C798,7628.7,798.5,7629,799.1,7629z M803.1,7626.1c0-0.7,0.1-1.3,0.4-2c0.3-0.6,0.7-1,1.2-1.3c0.5-0.3,1.1-0.5,1.7-0.5
		c0.9,0,1.8,0.4,2.4,1c0.7,0.8,1,1.8,0.9,2.8v0.1c0,0.7-0.1,1.3-0.4,1.9c-0.3,0.6-0.7,1-1.2,1.3c-0.5,0.3-1.1,0.5-1.8,0.5
		c-0.9,0-1.8-0.4-2.4-1C803.4,7628.2,803.1,7627.2,803.1,7626.1L803.1,7626.1z M804.4,7626.2c0,0.7,0.2,1.4,0.6,2
		c0.4,0.5,0.9,0.8,1.5,0.7c0.6,0,1.2-0.3,1.5-0.8c0.4-0.6,0.6-1.4,0.6-2.1c0-0.7-0.2-1.4-0.6-2c-0.4-0.5-0.9-0.8-1.5-0.8
		c-0.6,0-1.2,0.3-1.5,0.7C804.6,7624.7,804.4,7625.5,804.4,7626.2L804.4,7626.2z M812.6,7622.5l0,0.9c0.5-0.7,1.3-1.1,2.2-1.1
		c1.6,0,2.4,0.9,2.4,2.6v4.9H816v-4.9c0-0.4-0.1-0.8-0.4-1.2c-0.3-0.3-0.7-0.4-1.1-0.4c-0.4,0-0.8,0.1-1.1,0.3
		c-0.3,0.2-0.6,0.5-0.7,0.9v5.3h-1.3v-7.4H812.6z M823.5,7627.9c0-0.3-0.1-0.6-0.4-0.8c-0.4-0.2-0.9-0.4-1.3-0.5
		c-0.5-0.1-1-0.3-1.5-0.5c-0.3-0.2-0.6-0.4-0.8-0.7c-0.2-0.3-0.3-0.6-0.3-0.9c0-0.6,0.3-1.2,0.8-1.5c0.6-0.4,1.3-0.7,2-0.6
		c0.7,0,1.5,0.2,2,0.6c0.5,0.4,0.8,1,0.8,1.7h-1.3c0-0.4-0.2-0.7-0.4-0.9c-0.3-0.3-0.7-0.4-1.1-0.4c-0.4,0-0.8,0.1-1.1,0.3
		c-0.3,0.2-0.4,0.5-0.4,0.8c0,0.3,0.1,0.5,0.4,0.7c0.4,0.2,0.9,0.4,1.3,0.4c0.5,0.1,1,0.3,1.5,0.5c0.3,0.2,0.6,0.4,0.9,0.7
		c0.2,0.3,0.3,0.7,0.3,1c0,0.6-0.3,1.2-0.8,1.6c-0.6,0.4-1.3,0.6-2.1,0.6c-0.5,0-1.1-0.1-1.6-0.3c-0.4-0.2-0.8-0.5-1.1-0.9
		c-0.3-0.4-0.4-0.8-0.4-1.2h1.3c0,0.4,0.2,0.8,0.5,1c0.4,0.3,0.8,0.4,1.3,0.4c0.4,0,0.8-0.1,1.2-0.3
		C823.3,7628.5,823.5,7628.2,823.5,7627.9z M826.1,7626.1c0-0.7,0.1-1.3,0.4-2c0.3-0.6,0.7-1,1.2-1.3c0.5-0.3,1.1-0.5,1.7-0.5
		c0.9,0,1.8,0.4,2.4,1c0.7,0.8,1,1.8,0.9,2.8v0.1c0,0.7-0.1,1.3-0.4,1.9c-0.3,0.6-0.7,1-1.2,1.3c-0.5,0.3-1.1,0.5-1.8,0.5
		c-0.9,0-1.8-0.4-2.4-1C826.3,7628.2,826,7627.2,826.1,7626.1L826.1,7626.1z M827.3,7626.2c0,0.7,0.2,1.4,0.6,2
		c0.4,0.5,0.9,0.8,1.5,0.7c0.6,0,1.2-0.3,1.5-0.8c0.4-0.6,0.6-1.4,0.6-2.1c0-0.7-0.2-1.4-0.6-2c-0.4-0.5-0.9-0.8-1.5-0.8
		c-0.6,0-1.2,0.3-1.5,0.7C827.5,7624.7,827.3,7625.5,827.3,7626.2L827.3,7626.2z M835.8,7629.9h-1.3v-10.5h1.3V7629.9z
		 M839.2,7629.9h-1.3v-7.4h1.3L839.2,7629.9z M837.8,7620.5c0-0.2,0.1-0.4,0.2-0.5c0.1-0.1,0.3-0.2,0.6-0.2c0.2,0,0.4,0.1,0.6,0.2
		c0.1,0.1,0.2,0.3,0.2,0.5c0,0.2-0.1,0.4-0.2,0.5c-0.1,0.1-0.4,0.2-0.6,0.2c-0.2,0-0.4-0.1-0.6-0.2
		C837.8,7620.9,837.8,7620.7,837.8,7620.5z M840.9,7626.1c0-1,0.2-1.9,0.8-2.7c0.5-0.7,1.3-1.1,2.1-1c0.8,0,1.5,0.3,2.1,0.9v-3.9
		h1.3v10.5h-1.2l-0.1-0.8c-0.5,0.6-1.3,1-2.1,0.9c-0.8,0-1.6-0.4-2.1-1.1C841.1,7628.1,840.8,7627.2,840.9,7626.1L840.9,7626.1z
		 M842.1,7626.2c0,0.7,0.1,1.4,0.5,2c0.3,0.5,0.9,0.7,1.4,0.7c0.8,0,1.4-0.4,1.8-1.1v-3.4c-0.3-0.7-1-1.1-1.7-1
		c-0.6,0-1.1,0.2-1.4,0.7C842.3,7624.8,842.1,7625.5,842.1,7626.2L842.1,7626.2z M853.6,7629.9c-0.1-0.2-0.2-0.5-0.2-0.8
		c-0.5,0.6-1.3,0.9-2.1,0.9c-0.7,0-1.3-0.2-1.8-0.6c-0.5-0.4-0.7-1-0.7-1.6c0-0.7,0.3-1.4,0.9-1.8c0.7-0.5,1.6-0.7,2.5-0.6h1.2v-0.6
		c0-0.4-0.1-0.8-0.4-1.1c-0.3-0.3-0.7-0.4-1.2-0.4c-0.4,0-0.8,0.1-1.1,0.3c-0.3,0.2-0.5,0.5-0.5,0.8H849c0-0.4,0.1-0.8,0.4-1.1
		c0.3-0.4,0.6-0.6,1.1-0.8c0.5-0.2,1-0.3,1.5-0.3c0.7,0,1.4,0.2,2,0.6c0.5,0.5,0.8,1.1,0.8,1.8v3.4c0,0.6,0.1,1.1,0.3,1.6v0.1H853.6
		z M851.5,7628.9c0.4,0,0.8-0.1,1.1-0.3c0.3-0.2,0.6-0.5,0.8-0.8v-1.5h-1c-1.5,0-2.3,0.5-2.3,1.4c0,0.4,0.1,0.7,0.4,0.9
		C850.8,7628.8,851.2,7628.9,851.5,7628.9L851.5,7628.9z M859.7,7629c0.4,0,0.8-0.1,1.2-0.4c0.3-0.2,0.5-0.6,0.6-1h1.2
		c0,0.4-0.2,0.9-0.4,1.2c-0.3,0.4-0.6,0.7-1.1,0.9c-0.4,0.2-0.9,0.3-1.4,0.3c-0.9,0-1.8-0.3-2.4-1c-0.6-0.8-0.9-1.8-0.9-2.8v-0.2
		c0-0.7,0.1-1.3,0.4-1.9c0.2-0.5,0.6-1,1.1-1.3c0.5-0.3,1.1-0.5,1.8-0.5c0.8,0,1.5,0.2,2.1,0.7c0.5,0.5,0.9,1.2,0.9,1.9h-1.2
		c0-0.4-0.2-0.9-0.5-1.2c-0.3-0.3-0.8-0.5-1.2-0.5c-0.6,0-1.1,0.2-1.5,0.7c-0.4,0.6-0.6,1.3-0.5,2v0.2c0,0.7,0.1,1.4,0.5,2
		C858.5,7628.7,859.1,7629,859.7,7629z M865.4,7629.9h-1.3v-7.4h1.3V7629.9z M864,7620.5c0-0.2,0.1-0.4,0.2-0.5
		c0.1-0.1,0.3-0.2,0.6-0.2c0.2,0,0.4,0.1,0.6,0.2c0.1,0.1,0.2,0.3,0.2,0.5c0,0.2-0.1,0.4-0.2,0.5c-0.1,0.1-0.4,0.2-0.6,0.2
		c-0.2,0-0.4-0.1-0.6-0.2C864.1,7620.9,864,7620.7,864,7620.5z M867.1,7626.1c0-0.7,0.1-1.3,0.4-2c0.3-0.6,0.7-1,1.2-1.3
		c0.5-0.3,1.1-0.5,1.7-0.5c0.9,0,1.8,0.4,2.4,1c0.7,0.8,1,1.8,0.9,2.8v0.1c0,0.7-0.1,1.3-0.4,1.9c-0.3,0.6-0.7,1-1.2,1.3
		c-0.5,0.3-1.1,0.5-1.8,0.5c-0.9,0-1.8-0.4-2.4-1C867.4,7628.2,867,7627.2,867.1,7626.1L867.1,7626.1z M868.3,7626.2
		c0,0.7,0.2,1.4,0.6,2c0.4,0.5,0.9,0.8,1.5,0.7c0.6,0,1.2-0.3,1.5-0.8c0.4-0.6,0.6-1.4,0.6-2.1c0-0.7-0.2-1.4-0.6-2
		c-0.4-0.5-0.9-0.8-1.5-0.8c-0.6,0-1.2,0.3-1.5,0.7C868.5,7624.7,868.3,7625.5,868.3,7626.2z M871,7619.4h1.5l-1.8,2h-1L871,7619.4z
		 M876.6,7622.5l0,0.9c0.5-0.7,1.3-1.1,2.2-1.1c1.6,0,2.4,0.9,2.4,2.6v4.9h-1.3v-4.9c0-0.4-0.1-0.8-0.4-1.2
		c-0.3-0.3-0.7-0.4-1.1-0.4c-0.4,0-0.8,0.1-1.1,0.3c-0.3,0.2-0.6,0.5-0.7,0.9v5.3h-1.3v-7.4H876.6z"/>
	<path class="st7" d="M769.4,7557.7h-4.2l-0.9,2.6H763l3.8-10h1.1l3.8,10h-1.3L769.4,7557.7z M765.7,7556.7h3.4l-1.7-4.7
		L765.7,7556.7z M774.2,7560.3H773v-10.5h1.3L774.2,7560.3z M777.5,7552.9l0,0.8c0.5-0.6,1.4-1,2.2-1c0.9-0.1,1.7,0.4,2.1,1.2
		c0.2-0.4,0.6-0.7,1-0.9c0.4-0.2,0.9-0.3,1.4-0.3c1.6,0,2.4,0.9,2.5,2.6v5h-1.3v-4.9c0-0.4-0.1-0.9-0.4-1.2
		c-0.3-0.3-0.8-0.4-1.2-0.4c-0.4,0-0.8,0.1-1.2,0.4c-0.3,0.3-0.5,0.7-0.5,1.1v4.9h-1.3v-4.8c0.1-0.8-0.4-1.5-1.2-1.6
		c-0.1,0-0.3,0-0.4,0c-0.7-0.1-1.4,0.4-1.7,1.1v5.4h-1.3v-7.4H777.5z M793.1,7560.3c-0.1-0.2-0.2-0.5-0.2-0.8
		c-0.5,0.6-1.3,0.9-2.1,0.9c-0.7,0-1.3-0.2-1.8-0.6c-0.5-0.4-0.7-1-0.7-1.6c0-0.7,0.3-1.4,0.9-1.8c0.7-0.5,1.6-0.7,2.5-0.6h1.2v-0.6
		c0-0.4-0.1-0.8-0.4-1.1c-0.3-0.3-0.7-0.4-1.2-0.4c-0.4,0-0.8,0.1-1.1,0.3c-0.3,0.2-0.5,0.5-0.5,0.8h-1.3c0-0.4,0.1-0.8,0.4-1.1
		c0.3-0.4,0.6-0.6,1.1-0.8c0.5-0.2,1-0.3,1.5-0.3c0.7,0,1.4,0.2,2,0.6c0.5,0.5,0.8,1.1,0.8,1.8v3.4c0,0.6,0.1,1.1,0.3,1.6v0.1H793.1
		z M791,7559.4c0.4,0,0.8-0.1,1.1-0.3c0.3-0.2,0.6-0.5,0.8-0.8v-1.5h-1c-1.5,0-2.3,0.5-2.3,1.4c0,0.4,0.1,0.7,0.4,0.9
		C790.3,7559.3,790.6,7559.4,791,7559.4L791,7559.4z M799.1,7559.4c0.4,0,0.8-0.1,1.2-0.4c0.3-0.2,0.5-0.6,0.6-1h1.2
		c0,0.4-0.2,0.9-0.4,1.2c-0.3,0.4-0.6,0.7-1.1,0.9c-0.4,0.2-0.9,0.3-1.4,0.3c-0.9,0-1.8-0.3-2.4-1c-0.6-0.8-0.9-1.8-0.9-2.8v-0.2
		c0-0.7,0.1-1.3,0.4-1.9c0.2-0.5,0.6-1,1.1-1.3c0.5-0.3,1.1-0.5,1.8-0.5c0.8,0,1.5,0.2,2.1,0.7c0.5,0.5,0.9,1.2,0.9,1.9h-1.2
		c0-0.4-0.2-0.9-0.5-1.2c-0.3-0.3-0.8-0.5-1.2-0.5c-0.6,0-1.1,0.2-1.5,0.7c-0.4,0.6-0.6,1.3-0.5,2v0.2c0,0.7,0.1,1.4,0.5,2
		C798,7559.2,798.5,7559.5,799.1,7559.4z M806.5,7560.5c-0.9,0-1.8-0.3-2.4-1c-0.7-0.7-1-1.7-0.9-2.6v-0.2c0-0.7,0.1-1.4,0.4-2
		c0.3-0.6,0.7-1,1.2-1.4c0.5-0.3,1.1-0.5,1.6-0.5c0.9,0,1.7,0.3,2.2,1c0.6,0.8,0.9,1.7,0.8,2.7v0.5h-5c0,0.6,0.2,1.3,0.6,1.8
		c0.4,0.4,1,0.7,1.6,0.7c0.4,0,0.8-0.1,1.1-0.3c0.3-0.2,0.6-0.4,0.8-0.7l0.8,0.6C808.7,7560,807.7,7560.5,806.5,7560.5z
		 M806.4,7553.8c-0.5,0-1,0.2-1.3,0.6c-0.4,0.4-0.6,1-0.6,1.6h3.7v-0.1c0-0.5-0.2-1.1-0.5-1.5C807.3,7554,806.9,7553.8,806.4,7553.8
		L806.4,7553.8z M812.1,7552.9l0,0.9c0.5-0.7,1.3-1.1,2.2-1.1c1.6,0,2.4,0.9,2.4,2.6v4.9h-1.3v-4.9c0-0.4-0.1-0.8-0.4-1.2
		c-0.3-0.3-0.7-0.4-1.1-0.4c-0.4,0-0.8,0.1-1.1,0.3c-0.3,0.2-0.6,0.5-0.7,0.9v5.3h-1.3v-7.4L812.1,7552.9z M823.2,7560.3
		c-0.1-0.2-0.2-0.5-0.2-0.8c-0.5,0.6-1.3,0.9-2.1,0.9c-0.7,0-1.3-0.2-1.8-0.6c-0.5-0.4-0.7-1-0.7-1.6c0-0.7,0.3-1.4,0.9-1.8
		c0.7-0.5,1.6-0.7,2.5-0.6h1.2v-0.6c0-0.4-0.1-0.8-0.4-1.1c-0.3-0.3-0.7-0.4-1.2-0.4c-0.4,0-0.8,0.1-1.1,0.3
		c-0.3,0.2-0.5,0.5-0.5,0.8h-1.3c0-0.4,0.1-0.8,0.4-1.1c0.3-0.4,0.6-0.6,1.1-0.8c0.5-0.2,1-0.3,1.5-0.3c0.7,0,1.4,0.2,2,0.6
		c0.5,0.5,0.8,1.1,0.8,1.8v3.4c0,0.6,0.1,1.1,0.3,1.6v0.1H823.2z M821.1,7559.4c0.4,0,0.8-0.1,1.1-0.3c0.3-0.2,0.6-0.5,0.8-0.8v-1.5
		h-1c-1.5,0-2.3,0.5-2.3,1.4c0,0.4,0.1,0.7,0.4,0.9C820.4,7559.3,820.7,7559.4,821.1,7559.4L821.1,7559.4z M827.5,7552.9v8.3
		c0,1.4-0.6,2.1-1.9,2.1c-0.3,0-0.5,0-0.8-0.1v-1c0.2,0,0.4,0.1,0.6,0.1c0.2,0,0.5-0.1,0.6-0.2c0.2-0.2,0.3-0.5,0.2-0.8v-8.3H827.5z
		 M826.1,7551c0-0.2,0.1-0.4,0.2-0.5c0.1-0.2,0.3-0.2,0.5-0.2c0.2,0,0.4,0.1,0.6,0.2c0.1,0.1,0.2,0.3,0.2,0.5c0,0.2-0.1,0.4-0.2,0.5
		c-0.1,0.1-0.4,0.2-0.6,0.2c-0.2,0-0.4-0.1-0.6-0.2C826.2,7551.4,826.1,7551.2,826.1,7551z M832.6,7560.5c-0.9,0-1.8-0.3-2.4-1
		c-0.7-0.7-1-1.7-0.9-2.6v-0.2c0-0.7,0.1-1.4,0.4-2c0.3-0.6,0.7-1,1.2-1.4c0.5-0.3,1.1-0.5,1.6-0.5c0.9,0,1.7,0.3,2.2,0.9
		c0.6,0.8,0.9,1.7,0.8,2.7v0.5h-5c0,0.6,0.2,1.3,0.6,1.8c0.4,0.4,1,0.7,1.6,0.7c0.4,0,0.8-0.1,1.1-0.3c0.3-0.2,0.6-0.4,0.8-0.7
		l0.8,0.6C834.8,7560,833.8,7560.5,832.6,7560.5L832.6,7560.5z M832.5,7553.9c-0.5,0-1,0.2-1.3,0.6c-0.4,0.4-0.6,1-0.6,1.6h3.7v-0.1
		c0-0.5-0.2-1.1-0.5-1.5C833.4,7554,833,7553.8,832.5,7553.9L832.5,7553.9z"/>
	<g>
		<path class="st7" d="M965.2,7620.6v-11.4h3.2c1,0,1.9,0.2,2.6,0.7s1.3,1.1,1.8,1.9s0.6,1.7,0.6,2.8v0.7c0,1.1-0.2,2-0.6,2.8
			s-1,1.4-1.8,1.9s-1.7,0.7-2.7,0.7H965.2z M966.7,7610.5v8.9h1.6c1.2,0,2.1-0.4,2.7-1.1s1-1.7,1-3.1v-0.7c0-1.3-0.3-2.3-0.9-3
			s-1.5-1.1-2.6-1.1H966.7z"/>
		<path class="st7" d="M978.9,7620.8c-1.1,0-2.1-0.4-2.8-1.1s-1.1-1.8-1.1-3v-0.3c0-0.8,0.2-1.6,0.5-2.2s0.8-1.2,1.3-1.5
			s1.2-0.6,1.9-0.6c1.1,0,2,0.4,2.6,1.1s0.9,1.8,0.9,3.1v0.6h-5.7c0,0.8,0.3,1.5,0.7,2s1.1,0.8,1.8,0.8c0.5,0,0.9-0.1,1.3-0.3
			s0.7-0.5,0.9-0.8l0.9,0.7C981.4,7620.2,980.4,7620.8,978.9,7620.8z M978.8,7613.2c-0.6,0-1.1,0.2-1.5,0.6s-0.6,1-0.7,1.8h4.2v-0.1
			c0-0.7-0.2-1.3-0.6-1.7S979.4,7613.2,978.8,7613.2z"/>
		<path class="st7" d="M988.8,7618.4c0-0.4-0.1-0.7-0.4-0.9s-0.8-0.4-1.5-0.6s-1.3-0.3-1.7-0.6s-0.7-0.5-1-0.8s-0.3-0.7-0.3-1.1
			c0-0.7,0.3-1.3,0.9-1.8s1.3-0.7,2.2-0.7c1,0,1.7,0.2,2.3,0.7s0.9,1.1,0.9,1.9h-1.5c0-0.4-0.2-0.7-0.5-1s-0.8-0.4-1.3-0.4
			c-0.5,0-0.9,0.1-1.2,0.3s-0.4,0.5-0.4,0.9c0,0.3,0.1,0.6,0.4,0.8s0.8,0.3,1.5,0.5s1.3,0.4,1.8,0.6s0.8,0.5,1,0.8s0.3,0.7,0.3,1.2
			c0,0.8-0.3,1.4-0.9,1.8s-1.4,0.7-2.4,0.7c-0.7,0-1.3-0.1-1.8-0.4s-0.9-0.6-1.2-1s-0.4-0.9-0.4-1.4h1.4c0,0.5,0.2,0.9,0.6,1.2
			s0.8,0.4,1.4,0.4c0.5,0,1-0.1,1.3-0.3S988.8,7618.7,988.8,7618.4z"/>
		<path class="st7" d="M999.3,7616.5c0,1.3-0.3,2.3-0.9,3.1s-1.4,1.2-2.4,1.2c-1,0-1.8-0.3-2.4-1v4.1h-1.4v-11.7h1.3l0.1,0.9
			c0.6-0.7,1.4-1.1,2.5-1.1c1,0,1.8,0.4,2.4,1.1s0.9,1.8,0.9,3.2V7616.5z M997.8,7616.3c0-1-0.2-1.7-0.6-2.3s-1-0.8-1.7-0.8
			c-0.9,0-1.5,0.4-2,1.2v4c0.4,0.8,1.1,1.2,2,1.2c0.7,0,1.2-0.3,1.7-0.8S997.8,7617.4,997.8,7616.3z"/>
		<path class="st7" d="M1006.3,7620.6c-0.1-0.2-0.2-0.5-0.2-0.9c-0.7,0.7-1.5,1-2.4,1c-0.8,0-1.5-0.2-2.1-0.7s-0.8-1.1-0.8-1.8
			c0-0.9,0.3-1.6,1-2.1s1.6-0.7,2.8-0.7h1.4v-0.7c0-0.5-0.2-0.9-0.5-1.2s-0.7-0.4-1.3-0.4c-0.5,0-0.9,0.1-1.3,0.4s-0.5,0.6-0.5,0.9
			h-1.5c0-0.4,0.1-0.8,0.4-1.2s0.7-0.7,1.2-0.9s1.1-0.3,1.7-0.3c1,0,1.7,0.2,2.3,0.7s0.8,1.2,0.9,2v3.9c0,0.8,0.1,1.4,0.3,1.9v0.1
			H1006.3z M1004,7619.5c0.5,0,0.9-0.1,1.3-0.4s0.7-0.5,0.9-0.9v-1.7h-1.1c-1.8,0-2.7,0.5-2.7,1.6c0,0.5,0.2,0.8,0.5,1.1
			S1003.5,7619.5,1004,7619.5z"/>
		<path class="st7" d="M1013.2,7619.6c0.5,0,1-0.2,1.4-0.5s0.6-0.7,0.6-1.2h1.4c0,0.5-0.2,0.9-0.5,1.4s-0.7,0.8-1.2,1
			s-1.1,0.4-1.6,0.4c-1.2,0-2.1-0.4-2.7-1.2s-1-1.8-1-3.2v-0.2c0-0.8,0.2-1.6,0.5-2.2s0.7-1.1,1.3-1.5s1.2-0.5,2-0.5
			c0.9,0,1.7,0.3,2.4,0.9s1,1.3,1,2.2h-1.4c0-0.5-0.2-1-0.6-1.3s-0.8-0.5-1.4-0.5c-0.7,0-1.3,0.3-1.7,0.8s-0.6,1.3-0.6,2.3v0.3
			c0,1,0.2,1.7,0.6,2.2S1012.5,7619.6,1013.2,7619.6z"/>
		<path class="st7" d="M1019.7,7613.2c0.6-0.8,1.5-1.2,2.5-1.2c1.8,0,2.7,1,2.7,3v5.6h-1.4v-5.6c0-0.6-0.1-1.1-0.4-1.4
			s-0.7-0.4-1.3-0.4c-0.5,0-0.9,0.1-1.2,0.4s-0.6,0.6-0.8,1v6h-1.4v-12h1.4V7613.2z"/>
		<path class="st7" d="M1026.6,7616.3c0-0.8,0.2-1.6,0.5-2.2s0.8-1.2,1.4-1.5s1.2-0.5,2-0.5c1.2,0,2.1,0.4,2.8,1.2s1.1,1.9,1.1,3.2
			v0.1c0,0.8-0.2,1.6-0.5,2.2s-0.8,1.2-1.4,1.5s-1.3,0.5-2,0.5c-1.1,0-2.1-0.4-2.8-1.2s-1.1-1.9-1.1-3.2V7616.3z M1028.1,7616.5
			c0,0.9,0.2,1.7,0.7,2.3s1,0.9,1.7,0.9c0.7,0,1.3-0.3,1.8-0.9s0.6-1.4,0.6-2.4c0-0.9-0.2-1.7-0.7-2.3s-1-0.9-1.8-0.9
			c-0.7,0-1.3,0.3-1.7,0.9S1028.1,7615.4,1028.1,7616.5z"/>
	</g>
</g>
</svg>
