<svg xmlns="http://www.w3.org/2000/svg" xmlns:xlink="http://www.w3.org/1999/xlink" width="505.707" height="508.393" viewBox="0 0 505.707 508.393"><defs><linearGradient id="a" x1="1.086" y1="1.014" x2="0.335" y2="0.363" gradientUnits="objectBoundingBox"><stop offset="0" stop-color="#dbe1fc"/><stop offset="1" stop-color="#e9edfb"/></linearGradient><linearGradient id="b" x1="0.754" y1="-0.883" x2="0.466" y2="0.673" gradientUnits="objectBoundingBox"><stop offset="0" stop-color="#0f005b"/><stop offset="1" stop-color="#1e168c"/></linearGradient><linearGradient id="c" x1="-0.001" y1="0.501" x2="1" y2="0.501" gradientUnits="objectBoundingBox"><stop offset="0" stop-color="#5153fa"/><stop offset="1" stop-color="#4344dc"/></linearGradient><linearGradient id="d" y1="0.5" x2="1" y2="0.5" gradientUnits="objectBoundingBox"><stop offset="0" stop-color="#c24940"/><stop offset="1" stop-color="#cc605b"/></linearGradient><linearGradient id="e" y1="0.5" x2="1" y2="0.5" gradientUnits="objectBoundingBox"><stop offset="0" stop-color="#e5908c"/><stop offset="1" stop-color="#df6f63"/></linearGradient><linearGradient id="g" x1="0" y1="0.5" x2="1" y2="0.5" xlink:href="#e"/><linearGradient id="h" x1="0" y1="0.5" x2="1" y2="0.5" xlink:href="#d"/><linearGradient id="i" x1="0" y1="0.5" x2="1" y2="0.5" xlink:href="#e"/><linearGradient id="j" x1="0.525" y1="0.997" x2="0.501" y2="0.031" xlink:href="#c"/><linearGradient id="k" x1="0.5" y1="1.136" x2="0.5" y2="-7.682" xlink:href="#c"/><linearGradient id="l" x1="0.506" y1="-0.281" x2="0.482" y2="0.848" xlink:href="#c"/><linearGradient id="m" x1="0.5" y1="0.35" x2="0.5" y2="6.249" xlink:href="#c"/><linearGradient id="n" x1="1.701" y1="-2.147" x2="0.295" y2="1.077" xlink:href="#c"/><linearGradient id="o" x1="0.695" y1="-0.845" x2="0.188" y2="2.394" gradientUnits="objectBoundingBox"><stop offset="0" stop-color="#ecb9b8"/><stop offset="1" stop-color="#e5908c"/></linearGradient><linearGradient id="p" x1="1.059" y1="-1.442" x2="0.083" y2="2.199" xlink:href="#c"/><linearGradient id="q" x1="0.628" y1="-0.227" x2="0.116" y2="2.534" xlink:href="#o"/><linearGradient id="r" x1="1.824" y1="-0.312" x2="-0.623" y2="1.239" xlink:href="#b"/><linearGradient id="s" x1="-8.764" y1="19.115" x2="-7.91" y2="20.5" xlink:href="#o"/><linearGradient id="t" x1="-184.405" y1="-85.953" x2="-185.45" y2="-84.667" xlink:href="#o"/><linearGradient id="u" x1="-130.144" y1="-56.852" x2="-129.266" y2="-56.852" xlink:href="#b"/><linearGradient id="v" x1="-500.191" y1="-211.527" x2="-498.464" y2="-207.14" xlink:href="#o"/><linearGradient id="w" x1="4.323" y1="-5.171" x2="0.622" y2="0.323" xlink:href="#c"/><linearGradient id="x" x1="0" y1="0.5" x2="1" y2="0.5" xlink:href="#o"/><linearGradient id="y" x1="10.911" y1="144.509" x2="11.711" y2="144.509" xlink:href="#o"/><linearGradient id="z" x1="-35.808" y1="4.565" x2="-35.222" y2="3.552" xlink:href="#b"/><clipPath id="aa"><path d="M177.464,206.957c-1.02-.376-3.81-2.375-8.412-8.76a157.864,157.864,0,0,1-13.617-23.772,157.449,157.449,0,0,1-9.767-25.61c-2.026-7.607-1.811-11.028-1.449-12.074,1.02.376,3.8,2.375,8.4,8.76,4.454,6.171,18.433,10.29,22.807,19.453s-1.342,22.592.631,29.944C178.041,202.517,177.826,205.924,177.464,206.957Z" transform="translate(-143.984 -136.74)" fill="none"/></clipPath><linearGradient id="ab" x1="-71.049" y1="7.065" x2="-73.421" y2="7.198" xlink:href="#b"/><linearGradient id="ac" x1="-53.829" y1="4.281" x2="-53.894" y2="2.828" xlink:href="#b"/><linearGradient id="ad" x1="-0.003" y1="0.5" x2="0.997" y2="0.5" xlink:href="#o"/></defs><g transform="translate(-18.481 -19.647)"><g transform="translate(18.481 19.651)"><path d="M502.553,363.116c-48.86,115.052-179.032,179.5-291.911,162.114-18.366-2.817-68.715-11.256-113.295-50.979C11.487,397.715-6.839,246.186,62.466,139.357,112.788,61.587,203.116,17.53,288.936,19.73c18.487.47,89.348,3.408,151.6,54.749a233.43,233.43,0,0,1,47.491,53.891C530.726,195.126,534.4,288.123,502.553,363.116Z" transform="translate(-17.955 -19.651)" fill="url(#a)"/><g transform="translate(99.492 17.39)"><path d="M114.212,34.473A23.558,23.558,0,0,0,92.747,57.9c-.215,74.6-.563,331.889,4.293,422.955a18.312,18.312,0,0,0,18.1,17.333c47.746.47,185.189,1.422,263.215-3.555a30.856,30.856,0,0,0,28.884-30.856c-.094-78.28-1.342-298.458-12.074-399.1a25.141,25.141,0,0,0-23.075-22.4C319.98,38.257,181.585,28.57,114.212,34.473Z" transform="translate(-92.642 -32.614)" fill="url(#b)"/><path d="M107.413,71.72c-.939,63.8-3.622,276.067,1.046,354.414.684,11.444,9.579,20.486,20.566,20.861,45.211,1.583,161.175,4.628,227.247-2.683,11.9-1.342,21-11.618,21.317-24.148,1.65-65.119,6.118-262.812,1.583-340.274-.765-12.275-10.156-22.136-22.015-22.927-48.967-3.3-174.7-10.907-230.883-6.225A21.009,21.009,0,0,0,107.413,71.72Z" transform="translate(-88.151 -26.93)" fill="#99b0f6"/><path d="M188.43,43.174a3.3,3.3,0,0,0,3.206,3.233c8.693.268,33.2,1.02,44.164,1.409a3.3,3.3,0,0,0,3.354-4.025,3.381,3.381,0,0,0-3.086-2.965c-7.405-.51-29.769-1.905-44.54-1.046a3.408,3.408,0,0,0-3.1,3.394Z" transform="translate(-59.925 -30.26)" fill="url(#c)"/></g><g transform="translate(179.777 54.777)"><path d="M68.565.455c38.371.785,70.114,38.185,70.9,83.534s-29.685,81.476-68.056,80.691S1.294,126.5.509,81.146,30.193-.33,68.565.455Z" transform="translate(2.179 140.377) rotate(-83.66)" fill="url(#d)"/><path d="M77.652.883c43.814,1.367,80.441,32.822,81.808,70.256s-33.043,66.672-76.857,65.3S2.162,103.622.8,66.188,33.838-.484,77.652.883Z" transform="matrix(0.98, -0.201, 0.201, 0.98, 1.856, 28.276)" fill="url(#e)"/><path d="M181.749,149.58h0a.793.793,0,0,1-.8-.748,53.511,53.511,0,0,1,1.083-7.885.85.85,0,0,1,.977-.584.754.754,0,0,1,.693.838,51.124,51.124,0,0,0-1.066,7.706.664.664,0,0,1-.276.494A.935.935,0,0,1,181.749,149.58Z" transform="translate(-161.185 -72.734)" fill="#fff" opacity="0.58"/><path d="M186.14,141.755a.923.923,0,0,1-.391,0,.681.681,0,0,1-.373-.958c14.96-24.848,47.523-38.457,80.054-33.457a.847.847,0,0,1,.548.289.6.6,0,0,1,.127.534.7.7,0,0,1-.348.456.961.961,0,0,1-.629.112,87.476,87.476,0,0,0-13.159-.988c-27.539-.066-52.75,13.009-65.084,33.756a.9.9,0,0,1-.746.254Z" transform="translate(-157.815 -89.627)" fill="#fff" opacity="0.58"/><path d="M58.753,1.805C93.143,4.743,123.4,35,126.341,69.393s-22.558,59.886-56.948,56.948S4.743,93.143,1.805,58.753,24.364-1.133,58.753,1.805Z" transform="translate(5.295 80.911) rotate(-45)" fill="#fff" opacity="0.78"/></g><g transform="translate(294.675 26.817)"><path d="M41.777.693c24.515,2.034,46.036,38.209,48.07,80.8s-16.191,75.469-40.706,73.435S3.1,116.72,1.071,74.129,17.262-1.34,41.777.693Z" transform="translate(4.976 82.782) rotate(-83.66)" fill="url(#d)"/><path d="M68.766,1.9c40.825,3.542,76.792,26.111,80.334,50.409S122.417,93.437,81.591,89.895,4.8,63.784,1.258,39.486,27.94-1.639,68.766,1.9Z" transform="matrix(0.98, -0.201, 0.201, 0.98, 6.388, 15.641)" fill="url(#g)"/><path d="M232.8,75.142h0c-.422,0-.769-.189-.8-.427a24.979,24.979,0,0,1,1.021-5.012.949.949,0,0,1,.915-.323c.406.042.69.251.658.484a22.681,22.681,0,0,0-.92,4.851.422.422,0,0,1-.271.321A1.228,1.228,0,0,1,232.8,75.142Z" transform="translate(-212.912 -31.281)" fill="#fff" opacity="0.58"/><path d="M237.169,57.8a1.465,1.465,0,0,1-.351,0,.657.657,0,0,1-.4-.262.279.279,0,0,1,.05-.346c11.884-13.473,36.2-21.965,62.753-21.919a124.256,124.256,0,0,1,12.658.645c.4.063.646.287.575.517s-.439.393-.85.376a121.687,121.687,0,0,0-12.383-.636c-25.96-.042-49.724,8.258-61.348,21.425a1.089,1.089,0,0,1-.7.2Z" transform="translate(-209.965 -29.552)" fill="#fff" opacity="0.58"/><path d="M39.841,3.711c27.565,7.611,56.08,36.126,63.69,63.69s-8.565,43.741-36.13,36.13-56.08-36.126-63.69-63.69S12.276-3.9,39.841,3.711Z" transform="translate(15.066 46.423) rotate(-45)" fill="#fff" opacity="0.78"/></g><g transform="translate(85.492 90.391)"><circle cx="44.949" cy="44.949" r="44.949" transform="matrix(0.113, -0.994, 0.994, 0.113, 1.564, 90.887)" fill="url(#h)"/><circle cx="43.458" cy="43.458" r="43.458" transform="matrix(0.98, -0.201, 0.201, 0.98, 0, 17.477)" fill="url(#i)"/><path d="M113.955,85.613h0a.472.472,0,0,1-.435-.485,38.943,38.943,0,0,1,.6-5.044.46.46,0,1,1,.895.174,41.3,41.3,0,0,0-.572,4.969.46.46,0,0,1-.484.385Z" transform="translate(-102.708 -35.964)" fill="#fff" opacity="0.58"/><path d="M117.36,76.114a.4.4,0,0,1-.2,0,.46.46,0,0,1-.211-.621A40.414,40.414,0,0,1,153.2,53.13a41.07,41.07,0,0,1,7.308.657.461.461,0,0,1-.152.909,39.756,39.756,0,0,0-42.589,21.12A.447.447,0,0,1,117.36,76.114Z" transform="translate(-101.889 -42.392)" fill="#fff" opacity="0.58"/><circle cx="36.787" cy="36.787" r="36.787" transform="translate(0.234 52.258) rotate(-45)" fill="#fff" opacity="0.78"/></g><g transform="translate(78.668 165.789)"><path d="M326.435,332.387H174.222c-29.81-60.612-59.646-122.458-89.4-183.687H415.837C386.028,209.929,356.232,271.775,326.435,332.387Z" transform="translate(-74.49 -141.362)" fill="url(#j)"/><rect width="352.066" height="13.469" rx="2.87" fill="url(#k)"/><path d="M292.846,357.239H162.486c-3.77-22.659-7.553-47.76-11.336-71.639H304.182C300.4,309.507,296.629,334.607,292.846,357.239Z" transform="translate(-51.834 -94.602)" fill="url(#l)"/><path d="M295.056,341.482c0,2.683-1.623,4.306-3.542,4.306H159.464c-1.918,0-3.394-1.664-3.394-4.306v-2.938c0-2.683,1.476-5,3.394-5h132.01c1.918,0,3.542,2.361,3.542,5Z" transform="translate(-50.154 -78.227)" fill="url(#m)"/></g><g transform="translate(0 151.651)"><path d="M72.4,243.033s33.781,23.142,41.052,11.994S83.8,210.5,83.8,210.5Z" transform="translate(-0.064 -106.115)" fill="#8cd9d6"/><path d="M72.533,401.431a1.61,1.61,0,0,0,0-.51C69.931,390.805,57.28,384.5,57.28,384.5l-5.017.4c-2.884,8.908-2.509,14.368-2.053,16.81v.2a120.373,120.373,0,0,0,22.324-.483Z" transform="translate(-7.751 -46.683)" fill="url(#n)"/><path d="M50.16,379.23l2.12,10.223a1.677,1.677,0,0,0,1.422,1.341,14.527,14.527,0,0,0,3.3,0,2.106,2.106,0,0,0,1.664-2.482L57.19,379.23Z" transform="translate(-7.661 -48.483)" fill="url(#o)"/><path d="M108.2,400.575a2.109,2.109,0,0,0-.121-.228c-2.683-3.743-9.525-11.229-23.048-14.462l-6.493-.215S75.654,390.7,75.6,400c1.476.6,4.347,1.261,9.887,1.342a226.561,226.561,0,0,0,22.713-.765Z" transform="translate(1.029 -46.284)" fill="url(#p)"/><path d="M76.9,378.739c0,.483.952,7.835,1.342,10.733a1.422,1.422,0,0,0,1.194,1.274,14.755,14.755,0,0,0,4.454-.067,1.918,1.918,0,0,0,1.449-1.932V377.21Z" transform="translate(1.473 -49.173)" fill="url(#q)"/><path d="M83.486,278.39s15.643,59.458,15.361,134.264a2.911,2.911,0,0,1-2.307,2.831,33.541,33.541,0,0,1-7.244.832,2.683,2.683,0,0,1-2.562-2.24c-2.2-12.866-14.757-85.323-21.948-97.089,0,0-4.722,64.543-3.22,98.028a1.583,1.583,0,0,1-1.342,1.65,26.83,26.83,0,0,1-5.822,0,2.106,2.106,0,0,1-1.892-1.8c-1.6-10.893-10.612-75.718-10.2-122.4,0-2.683,6.949-14.073,6.949-14.073Z" transform="translate(-10.346 -82.926)" fill="url(#r)"/><path d="M102.421,210.826c-21.465-3.112-45.184-.255-56.654,1.181a15.146,15.146,0,0,0-9.565,5.138c-9.713,11.242-31.03,42.018-5.943,73.021a47.06,47.06,0,0,0,10.867-7.942c-2.777-7.821-3.005-17.829,2.817-30.091a29.286,29.286,0,0,0,.738,2.884,177.851,177.851,0,0,1,8.425,51.409,1.637,1.637,0,0,0,1.02,1.5c10.545,4.226,30.856,1.7,37.671.7a2.294,2.294,0,0,0,1.918-2.6c-2.4-17.373,5.742-42.782,12.222-59.472C108.5,239.964,103.763,212.664,102.421,210.826Z" transform="translate(-18.481 -106.481)" fill="#8cd9d6"/><path d="M55.429,192.21l-2.965,24.577a2.308,2.308,0,0,0,1.623,2.482c3.233.939,10.129,2.375,16.448-.228a2.683,2.683,0,0,0,1.583-3.059l-3.756-17.346Z" transform="translate(-6.879 -112.362)" fill="url(#s)"/><g transform="translate(36.573 51.05)"><path d="M66.421,178.4c.3.241,13.161,22.31,13.161,22.31L66.824,207.8l-15.294-19.1S61.458,174.243,66.421,178.4Z" transform="translate(-43.766 -168.385)" fill="url(#t)"/><path d="M59.329,191.211a2.173,2.173,0,0,0,.268,1.838l7.164,10.531a1.891,1.891,0,0,0,.389.416c.818.684,3.6,2.683,5.5-.349,1.61-2.549,3.126-4.856,4.843-5.876a2.079,2.079,0,0,1,2.871.765,77.022,77.022,0,0,1,5.085,10.357,2.093,2.093,0,0,1-1.06,2.683,58.306,58.306,0,0,1-12.356,4.373,2.053,2.053,0,0,1-2.026-.724c-2.16-2.683-8.251-9.981-10.29-11.792s-5.152-.818-6.614-.309a2.066,2.066,0,0,1-1.69-.121c-1.556-.818-4.333-2.938-2.133-6.909a2.093,2.093,0,0,0-.8-2.8,4.642,4.642,0,0,1-2.16-6.466,6.534,6.534,0,0,1,6.869-3.864,2.187,2.187,0,0,0,2.214-1.342,1.342,1.342,0,0,1,1.033-.912,2.039,2.039,0,0,0,1.5-2.482,5.366,5.366,0,0,1,2.683-6.305c5.487-3.434,10.732,1.342,12.235,5.554s-4.655,7.593-8.6,8.331C61.3,186.287,59.879,189.561,59.329,191.211Z" transform="translate(-45.743 -170.744)" fill="url(#u)"/><path d="M60.656,199.714s-2.938-7.218-6.144-6.708-5.567,3.81-1.342,7.191C58.376,204.329,60.656,199.714,60.656,199.714Z" transform="translate(-43.984 -163.149)" fill="url(#v)"/></g><path d="M37.425,246.429c-4.253-11.645-2.683-25.691-2.683-25.838l1.167.134c0,.148-1.516,13.925,2.683,25.3Z" transform="translate(-13.024 -102.669)" fill="#388e87"/><path d="M61.7,309.083a.6.6,0,0,1-.577-.443c-1.342-5-11.014-10.5-11.108-10.558a.592.592,0,0,1,.577-1.033c.416.242,10.25,5.8,11.672,11.3a.59.59,0,0,1-.416.711Z" transform="translate(-7.813 -76.579)" fill="url(#w)"/><path d="M38.127,263.69a47.061,47.061,0,0,1-10.867,7.942A90.126,90.126,0,0,0,47.129,289.3l1.033,2.334a5.822,5.822,0,0,0,5.031,3.421c11.994.577,15.321-1.972,4.266-9.673C57.459,285.383,43.332,278.34,38.127,263.69Z" transform="translate(-15.483 -87.947)" fill="url(#x)"/><path d="M116.084,220.94S99.1,234.664,94.914,239.9s-1.61,16.1,6.574,14.636,20.767-27.354,20.767-27.354Z" transform="translate(6.95 -102.549)" fill="url(#y)"/><g transform="translate(85.111 0)"><path d="M90.7,208.973s28.173,27.032,35.31,32.01c8.345,5.8,19.332-5.621,15.508-11.967s-32.493-26.456-32.493-26.456Z" transform="translate(-78.925 -108.827)" fill="url(#z)"/><path d="M94.81,199.7l64.918-63.711,33.7,73.249-87.322,19.788Z" transform="translate(-77.521 -131.565)" fill="#8cd9d6"/><ellipse cx="8.438" cy="41.441" rx="8.438" ry="41.441" transform="translate(74.263 7.223) rotate(-25.34)" fill="#388e87"/><path d="M177.464,206.957c-1.02-.376-3.81-2.375-8.412-8.76a157.864,157.864,0,0,1-13.617-23.772,157.449,157.449,0,0,1-9.767-25.61c-2.026-7.607-1.811-11.028-1.449-12.074,1.02.376,3.8,2.375,8.4,8.76a156.878,156.878,0,0,1,13.63,23.786,157.444,157.444,0,0,1,9.767,25.61C178.041,202.517,177.826,205.924,177.464,206.957Z" transform="translate(-60.725 -131.309)" fill="#8cd9d6"/><g transform="translate(83.259 5.431)" clip-path="url(#aa)"><path d="M169.763,161.272c3.019,6.359,2.026,13.134-4.749,16.354s-14.757.657-17.749-5.7,0-14.127,6.829-17.346S166.744,154.9,169.763,161.272Z" transform="translate(-143.259 -131.06)" fill="url(#ab)"/></g><path d="M85.944,188.3a48.4,48.4,0,0,1,14.865-6.171,86.008,86.008,0,0,0,14.985,30.158l-15.978,7.566a5.715,5.715,0,0,1-7.177-1.932c-3.193-4.669-8.184-12.691-10.37-19.989a8.519,8.519,0,0,1,3.676-9.632Z" transform="translate(-81.923 -115.805)" fill="url(#ac)"/><path d="M98.452,189.99,86,195.893a1.462,1.462,0,0,1-2-1.516.555.555,0,1,1,1.1.148.349.349,0,0,0,.148.322.322.322,0,0,0,.349,0l12.45-5.889a.349.349,0,0,0,.161-.456l-.429-.885a.335.335,0,0,0-.456-.161L84.8,193.4a.59.59,0,0,1-.751-.268.563.563,0,0,1,.268-.751l12.544-5.943a1.476,1.476,0,0,1,1.945.7l.416.885a1.449,1.449,0,0,1-.765,1.972Z" transform="translate(-81.217 -114.381)" fill="#99b0f6"/><path d="M99.589,194.467l-12.45,5.97a1.462,1.462,0,0,1-1.489-.148,1.422,1.422,0,0,1-.577-1.342.555.555,0,0,1,1.1.148.349.349,0,0,0,.148.322.335.335,0,0,0,.349,0l12.436-5.9a.349.349,0,0,0,.174-.456l-.429-.885a.335.335,0,0,0-.456-.161l-12.53,5.943a.577.577,0,0,1-.751-.268.563.563,0,0,1,.268-.751l12.544-5.93a1.462,1.462,0,0,1,1.945.684l.416.885a1.462,1.462,0,0,1-.7,1.892Z" transform="translate(-80.851 -112.822)" fill="#99b0f6"/><path d="M102.8,190.28a.563.563,0,0,1-.631-.912l49.96-46.579a.563.563,0,0,1,.765.818l-49.96,46.579A.4.4,0,0,1,102.8,190.28Z" transform="translate(-75.063 -129.281)" fill="#fff" opacity="0.58"/><path d="M98.01,184.354a.59.59,0,0,1-.617-.094.55.55,0,0,1,0-.792l2.442-2.683a.555.555,0,0,1,.818.751l-2.442,2.683a.6.6,0,0,1-.2.134Z" transform="translate(-76.696 -116.326)" fill="#fff" opacity="0.58"/><path d="M102.7,198.946l-12.45,5.889a1.462,1.462,0,0,1-2.079-1.516.563.563,0,0,1,1.113.148.335.335,0,0,0,.134.322.362.362,0,0,0,.349,0l12.45-5.9a.335.335,0,0,0,.161-.456l-.416-.885a.335.335,0,0,0-.456-.161l-12.544,5.943a.55.55,0,0,1-.738-.268.563.563,0,0,1,.268-.751l12.53-5.93a1.449,1.449,0,0,1,1.945.684l.429.885a1.489,1.489,0,0,1-.7,2Z" transform="translate(-79.792 -111.331)" fill="#99b0f6"/><path d="M106.1,203.856l-12.45,5.889a1.462,1.462,0,0,1-2.079-1.516.563.563,0,0,1,1.114.148.335.335,0,0,0,.134.322.322.322,0,0,0,.349,0l12.45-5.9a.335.335,0,0,0,.161-.456l-.416-.885a.335.335,0,0,0-.456-.161l-12.544,5.943a.55.55,0,0,1-.738-.268.563.563,0,0,1,.255-.751l12.544-5.93a1.449,1.449,0,0,1,1.945.684l.429.885a1.489,1.489,0,0,1-.7,2Z" transform="translate(-78.631 -109.653)" fill="#99b0f6"/><path d="M132.2,233.011a9.59,9.59,0,0,1-1.865.657,9.083,9.083,0,0,1-8.049-1.945l-20.405-17.44a.55.55,0,0,1,0-.792.563.563,0,0,1,.792,0l20.405,17.44a7.929,7.929,0,0,0,7.016,1.7,7.794,7.794,0,0,0,5.46-4.508l.161-.389a.55.55,0,0,1,.724-.309.563.563,0,0,1,.309.724c0,.148-.121.282-.174.416a8.827,8.827,0,0,1-4.373,4.441Z" transform="translate(-75.162 -105.149)" fill="#99b0f6"/><path d="M100.874,213.012a.55.55,0,0,1-.6-.08L97.99,211a.563.563,0,1,1,.724-.859L101,212.087a.563.563,0,0,1,0,.792A.55.55,0,0,1,100.874,213.012Z" transform="translate(-76.515 -106.293)" fill="#99b0f6"/><path d="M166.567,161.528a.563.563,0,0,1-.724-.228,9.793,9.793,0,0,0-6.346-5.286c-4.4-.966-8.64,2.093-8.68,2.12a.563.563,0,0,1-.792-.121.577.577,0,0,1,.121-.778c.2-.134,4.682-3.381,9.592-2.321a10.866,10.866,0,0,1,7.083,5.836.55.55,0,0,1-.215.751Z" transform="translate(-58.695 -125.174)" fill="#99b0f6"/></g><path d="M115.755,213.274s4.32-3.662,7.687,0,4.025,10.048,3.354,10.357S105.21,218.829,115.755,213.274Z" transform="translate(13.731 -105.723)" fill="url(#ad)"/></g><path d="M215.818,336.483l31.218-31.218H236.679l.5-21.1c0-11.457-9.284-10.6-20.754-10.6h-.188c-11.47,0-20.754-.859-20.754,10.6l-.51,21.1H184.6Z" transform="translate(38.259 67.071)" fill="#8cd9d6"/><rect width="132.063" height="47.491" rx="17.7" transform="translate(188.77 419.733)" fill="#edf1f9"/></g><path d="M9.9,11.842a3.662,3.662,0,0,1-1.166,2.437,3.82,3.82,0,0,1-2.608.858A3.507,3.507,0,0,1,3.3,13.872a5.088,5.088,0,0,1-1.063-3.384V9.531a5.671,5.671,0,0,1,.5-2.44,3.7,3.7,0,0,1,1.4-1.617A3.911,3.911,0,0,1,6.242,4.91,3.6,3.6,0,0,1,8.785,5.8,3.706,3.706,0,0,1,9.9,8.246H8.58a2.86,2.86,0,0,0-.742-1.728,2.244,2.244,0,0,0-1.6-.535,2.348,2.348,0,0,0-1.972.93,4.272,4.272,0,0,0-.714,2.648v.965a4.391,4.391,0,0,0,.677,2.579,2.187,2.187,0,0,0,1.894.958,2.526,2.526,0,0,0,1.678-.5,2.75,2.75,0,0,0,.776-1.726Zm1.258-.608a4.369,4.369,0,0,1,.427-1.955,3.187,3.187,0,0,1,1.189-1.34,3.238,3.238,0,0,1,1.74-.472,3.119,3.119,0,0,1,2.444,1.046,4.024,4.024,0,0,1,.933,2.782v.089a4.407,4.407,0,0,1-.414,1.938,3.14,3.14,0,0,1-1.183,1.336,3.275,3.275,0,0,1-1.767.479,3.111,3.111,0,0,1-2.437-1.046,4,4,0,0,1-.933-2.769Zm1.271.15A3.164,3.164,0,0,0,13,13.359a1.934,1.934,0,0,0,3.059-.01,3.46,3.46,0,0,0,.567-2.116,3.159,3.159,0,0,0-.578-1.972,1.836,1.836,0,0,0-1.535-.755A1.816,1.816,0,0,0,13,9.251,3.435,3.435,0,0,0,12.428,11.384ZM20.672,7.6l.041.93a2.7,2.7,0,0,1,2.215-1.066q2.345,0,2.365,2.646V15H24.029V10.105a1.7,1.7,0,0,0-.366-1.183,1.466,1.466,0,0,0-1.118-.383,1.825,1.825,0,0,0-1.08.328,2.228,2.228,0,0,0-.725.861V15H19.476V7.6Zm8.244-1.791V7.6H30.3v.978H28.917v4.593a1.027,1.027,0,0,0,.185.667.777.777,0,0,0,.629.222,3.062,3.062,0,0,0,.6-.082V15a3.688,3.688,0,0,1-.971.136,1.575,1.575,0,0,1-1.278-.513,2.2,2.2,0,0,1-.431-1.456V8.581H26.305V7.6h1.347V5.813Zm6.433,2.926a3.79,3.79,0,0,0-.622-.048,1.667,1.667,0,0,0-1.688,1.06V15H31.774V7.6H33l.021.854a1.969,1.969,0,0,1,1.764-.991,1.292,1.292,0,0,1,.561.1Zm.69,2.5a4.369,4.369,0,0,1,.427-1.955,3.187,3.187,0,0,1,1.189-1.34,3.238,3.238,0,0,1,1.74-.472A3.119,3.119,0,0,1,41.84,8.513a4.024,4.024,0,0,1,.933,2.782v.089a4.407,4.407,0,0,1-.414,1.938,3.14,3.14,0,0,1-1.183,1.336,3.275,3.275,0,0,1-1.767.479,3.111,3.111,0,0,1-2.437-1.046,4,4,0,0,1-.933-2.769Zm1.271.15a3.164,3.164,0,0,0,.571,1.976,1.934,1.934,0,0,0,3.059-.01,3.46,3.46,0,0,0,.567-2.116,3.159,3.159,0,0,0-.578-1.972A1.836,1.836,0,0,0,39.4,8.506a1.816,1.816,0,0,0-1.511.745A3.435,3.435,0,0,0,37.311,11.384ZM45.733,15H44.468V4.5h1.265Zm5.182-3.76A4.333,4.333,0,0,1,51.721,8.5a2.745,2.745,0,0,1,4.17-.147V4.5h1.265V15H55.994l-.062-.793a2.575,2.575,0,0,1-2.112.93,2.526,2.526,0,0,1-2.1-1.053,4.382,4.382,0,0,1-.81-2.748Zm1.265.144a3.281,3.281,0,0,0,.52,1.969,1.68,1.68,0,0,0,1.436.711,1.845,1.845,0,0,0,1.757-1.08v-3.4A1.859,1.859,0,0,0,54.148,8.54a1.687,1.687,0,0,0-1.449.718A3.612,3.612,0,0,0,52.179,11.384Zm10.008,3.753a3.232,3.232,0,0,1-2.447-.988,3.666,3.666,0,0,1-.943-2.642v-.232a4.438,4.438,0,0,1,.42-1.965,3.28,3.28,0,0,1,1.176-1.354,2.956,2.956,0,0,1,1.637-.489,2.77,2.77,0,0,1,2.242.95,4.114,4.114,0,0,1,.8,2.721v.526H60.061a2.629,2.629,0,0,0,.639,1.767,2.009,2.009,0,0,0,1.555.673,2.2,2.2,0,0,0,1.135-.273,2.851,2.851,0,0,0,.813-.725l.772.6A3.106,3.106,0,0,1,62.187,15.137ZM62.03,8.506a1.687,1.687,0,0,0-1.285.557,2.708,2.708,0,0,0-.643,1.562h3.705v-.1a2.409,2.409,0,0,0-.52-1.494A1.588,1.588,0,0,0,62.03,8.506ZM9.195,27.384A4.429,4.429,0,0,1,8.422,30.1a2.476,2.476,0,0,1-2.092,1.032,2.713,2.713,0,0,1-2.119-.854v3.562H2.947V23.6H4.1l.062.82a2.605,2.605,0,0,1,2.146-.957,2.522,2.522,0,0,1,2.109,1,4.477,4.477,0,0,1,.776,2.8ZM7.93,27.24A3.268,3.268,0,0,0,7.4,25.265a1.718,1.718,0,0,0-1.463-.725,1.859,1.859,0,0,0-1.723,1.019v3.534A1.863,1.863,0,0,0,5.948,30.1a1.71,1.71,0,0,0,1.446-.721A3.567,3.567,0,0,0,7.93,27.24Zm6.446-2.5a3.79,3.79,0,0,0-.622-.048,1.667,1.667,0,0,0-1.688,1.06V31H10.8V23.6h1.23l.021.854a1.969,1.969,0,0,1,1.764-.991,1.292,1.292,0,0,1,.561.1Zm.69,2.5a4.369,4.369,0,0,1,.427-1.955,3.187,3.187,0,0,1,1.189-1.34,3.238,3.238,0,0,1,1.74-.472,3.119,3.119,0,0,1,2.444,1.046,4.024,4.024,0,0,1,.933,2.782v.089a4.407,4.407,0,0,1-.414,1.938A3.14,3.14,0,0,1,20.2,30.658a3.275,3.275,0,0,1-1.767.479A3.111,3.111,0,0,1,16,30.091a4,4,0,0,1-.933-2.769Zm1.271.15a3.164,3.164,0,0,0,.571,1.976,1.934,1.934,0,0,0,3.059-.01,3.46,3.46,0,0,0,.567-2.116,3.159,3.159,0,0,0-.578-1.972,1.836,1.836,0,0,0-1.535-.755,1.816,1.816,0,0,0-1.511.745A3.434,3.434,0,0,0,16.338,27.384Zm6.74-.144a4.333,4.333,0,0,1,.807-2.738,2.745,2.745,0,0,1,4.17-.147V20.5H29.32V31H28.158l-.062-.793a2.575,2.575,0,0,1-2.112.93,2.526,2.526,0,0,1-2.1-1.053,4.382,4.382,0,0,1-.81-2.748Zm1.265.144a3.281,3.281,0,0,0,.52,1.969,1.68,1.68,0,0,0,1.436.711,1.845,1.845,0,0,0,1.757-1.08v-3.4a1.859,1.859,0,0,0-1.743-1.046,1.687,1.687,0,0,0-1.449.718A3.612,3.612,0,0,0,24.343,27.384Zm11.5,2.885a2.686,2.686,0,0,1-2.167.868,2.3,2.3,0,0,1-1.8-.687,2.974,2.974,0,0,1-.625-2.034V23.6h1.265v4.778q0,1.682,1.367,1.682a1.893,1.893,0,0,0,1.928-1.08V23.6h1.265V31h-1.2Zm6.118-.164a1.822,1.822,0,0,0,1.183-.41,1.443,1.443,0,0,0,.561-1.025h1.2a2.293,2.293,0,0,1-.437,1.21,2.881,2.881,0,0,1-1.077.916,3.107,3.107,0,0,1-1.425.342,3.047,3.047,0,0,1-2.4-1.008,4.016,4.016,0,0,1-.892-2.758v-.212a4.453,4.453,0,0,1,.4-1.921,3.02,3.02,0,0,1,1.138-1.306,3.233,3.233,0,0,1,1.753-.465,2.966,2.966,0,0,1,2.068.745,2.663,2.663,0,0,1,.878,1.935h-1.2a1.743,1.743,0,0,0-.543-1.179,1.691,1.691,0,0,0-1.207-.461,1.77,1.77,0,0,0-1.494.694,3.259,3.259,0,0,0-.53,2.006v.239a3.194,3.194,0,0,0,.526,1.969A1.779,1.779,0,0,0,41.966,30.1Zm6.077-8.292V23.6h1.381v.978H48.043v4.593a1.027,1.027,0,0,0,.185.667.777.777,0,0,0,.629.222,3.062,3.062,0,0,0,.6-.082V31a3.688,3.688,0,0,1-.971.136,1.575,1.575,0,0,1-1.278-.513,2.2,2.2,0,0,1-.431-1.456V24.581H45.432V23.6h1.347V21.813Zm2.386,5.421a4.369,4.369,0,0,1,.427-1.955,3.187,3.187,0,0,1,1.189-1.34,3.238,3.238,0,0,1,1.74-.472,3.119,3.119,0,0,1,2.444,1.046,4.024,4.024,0,0,1,.933,2.782v.089a4.407,4.407,0,0,1-.414,1.938,3.14,3.14,0,0,1-1.183,1.336,3.275,3.275,0,0,1-1.767.479,3.111,3.111,0,0,1-2.437-1.046,4,4,0,0,1-.933-2.769Zm1.271.15a3.164,3.164,0,0,0,.571,1.976,1.934,1.934,0,0,0,3.059-.01,3.46,3.46,0,0,0,.567-2.116,3.159,3.159,0,0,0-.578-1.972,1.836,1.836,0,0,0-1.535-.755,1.816,1.816,0,0,0-1.511.745A3.434,3.434,0,0,0,51.7,27.384Zm11.354,1.654a.931.931,0,0,0-.386-.8,3.718,3.718,0,0,0-1.347-.489,6.367,6.367,0,0,1-1.524-.492,2.169,2.169,0,0,1-.834-.684,1.635,1.635,0,0,1-.27-.943,1.919,1.919,0,0,1,.769-1.538,3,3,0,0,1,1.965-.629,3.091,3.091,0,0,1,2.041.649,2.063,2.063,0,0,1,.783,1.661H62.98a1.142,1.142,0,0,0-.441-.9,1.652,1.652,0,0,0-1.111-.376,1.729,1.729,0,0,0-1.08.3.947.947,0,0,0-.39.786.767.767,0,0,0,.362.69,4.458,4.458,0,0,0,1.309.444,6.821,6.821,0,0,1,1.535.506,2.239,2.239,0,0,1,.872.708,1.74,1.74,0,0,1,.284,1.008,1.893,1.893,0,0,1-.793,1.589,3.326,3.326,0,0,1-2.058.6,3.725,3.725,0,0,1-1.572-.314,2.557,2.557,0,0,1-1.07-.878,2.117,2.117,0,0,1-.386-1.22h1.265a1.309,1.309,0,0,0,.509,1.008,1.976,1.976,0,0,0,1.254.373,2.039,2.039,0,0,0,1.152-.291A.893.893,0,0,0,63.055,29.038Z" transform="translate(123.198 142.651)" fill="#1a0f91"/><path d="M14.571,11.1V15H13.259V5.047H16.93a3.688,3.688,0,0,1,2.56.834,2.827,2.827,0,0,1,.926,2.208,2.79,2.79,0,0,1-.906,2.232,3.853,3.853,0,0,1-2.594.783Zm0-1.073H16.93a2.358,2.358,0,0,0,1.613-.5A1.815,1.815,0,0,0,19.1,8.1a1.876,1.876,0,0,0-.561-1.424A2.209,2.209,0,0,0,17,6.12H14.571Zm10.9-1.292a3.79,3.79,0,0,0-.622-.048,1.667,1.667,0,0,0-1.688,1.06V15H21.893V7.6h1.23l.021.854a1.969,1.969,0,0,1,1.764-.991,1.292,1.292,0,0,1,.561.1Zm.69,2.5a4.369,4.369,0,0,1,.427-1.955,3.187,3.187,0,0,1,1.189-1.34,3.238,3.238,0,0,1,1.74-.472,3.119,3.119,0,0,1,2.444,1.046,4.024,4.024,0,0,1,.933,2.782v.089a4.407,4.407,0,0,1-.414,1.938A3.14,3.14,0,0,1,31.3,14.658a3.275,3.275,0,0,1-1.767.479,3.111,3.111,0,0,1-2.437-1.046,4,4,0,0,1-.933-2.769Zm1.271.15A3.164,3.164,0,0,0,28,13.359a1.934,1.934,0,0,0,3.059-.01,3.46,3.46,0,0,0,.567-2.116,3.159,3.159,0,0,0-.578-1.972,1.836,1.836,0,0,0-1.535-.755A1.816,1.816,0,0,0,28,9.251,3.435,3.435,0,0,0,27.43,11.384Zm6.74-.144A4.333,4.333,0,0,1,34.977,8.5a2.745,2.745,0,0,1,4.17-.147V4.5h1.265V15H39.249l-.062-.793a2.575,2.575,0,0,1-2.112.93,2.526,2.526,0,0,1-2.1-1.053,4.382,4.382,0,0,1-.81-2.748Zm1.265.144a3.281,3.281,0,0,0,.52,1.969,1.68,1.68,0,0,0,1.436.711,1.845,1.845,0,0,0,1.757-1.08v-3.4A1.859,1.859,0,0,0,37.4,8.54a1.687,1.687,0,0,0-1.449.718A3.612,3.612,0,0,0,35.435,11.384Zm11.5,2.885a2.686,2.686,0,0,1-2.167.868,2.3,2.3,0,0,1-1.8-.687,2.974,2.974,0,0,1-.625-2.034V7.6H43.61v4.778q0,1.682,1.367,1.682a1.893,1.893,0,0,0,1.928-1.08V7.6H48.17V15h-1.2Zm6.118-.164a1.822,1.822,0,0,0,1.183-.41,1.443,1.443,0,0,0,.561-1.025H56a2.293,2.293,0,0,1-.437,1.21,2.881,2.881,0,0,1-1.077.916,3.107,3.107,0,0,1-1.425.342,3.047,3.047,0,0,1-2.4-1.008,4.016,4.016,0,0,1-.892-2.758v-.212a4.453,4.453,0,0,1,.4-1.921A3.02,3.02,0,0,1,51.3,7.932a3.233,3.233,0,0,1,1.753-.465,2.966,2.966,0,0,1,2.068.745A2.663,2.663,0,0,1,56,10.146H54.8a1.743,1.743,0,0,0-.543-1.179,1.691,1.691,0,0,0-1.207-.461,1.77,1.77,0,0,0-1.494.694,3.259,3.259,0,0,0-.53,2.006v.239a3.194,3.194,0,0,0,.526,1.969A1.779,1.779,0,0,0,53.058,14.1Zm7.328,0a1.822,1.822,0,0,0,1.183-.41,1.443,1.443,0,0,0,.561-1.025h1.2a2.293,2.293,0,0,1-.437,1.21,2.881,2.881,0,0,1-1.077.916,3.107,3.107,0,0,1-1.425.342,3.047,3.047,0,0,1-2.4-1.008,4.016,4.016,0,0,1-.892-2.758v-.212a4.453,4.453,0,0,1,.4-1.921,3.02,3.02,0,0,1,1.138-1.306,3.233,3.233,0,0,1,1.753-.465,2.966,2.966,0,0,1,2.068.745,2.663,2.663,0,0,1,.878,1.935h-1.2a1.743,1.743,0,0,0-.543-1.179,1.691,1.691,0,0,0-1.207-.461,1.77,1.77,0,0,0-1.494.694,3.259,3.259,0,0,0-.53,2.006v.239a3.194,3.194,0,0,0,.526,1.969A1.779,1.779,0,0,0,60.386,14.1Zm5.735.9H64.856V7.6h1.265ZM64.754,5.642a.755.755,0,0,1,.188-.52A.706.706,0,0,1,65.5,4.91a.717.717,0,0,1,.561.212.747.747,0,0,1,.191.52.722.722,0,0,1-.191.513.73.73,0,0,1-.561.205.718.718,0,0,1-.557-.205A.73.73,0,0,1,64.754,5.642Zm3.056,5.592a4.369,4.369,0,0,1,.427-1.955,3.187,3.187,0,0,1,1.189-1.34,3.238,3.238,0,0,1,1.74-.472A3.119,3.119,0,0,1,73.61,8.513a4.024,4.024,0,0,1,.933,2.782v.089a4.407,4.407,0,0,1-.414,1.938,3.14,3.14,0,0,1-1.183,1.336,3.275,3.275,0,0,1-1.767.479,3.111,3.111,0,0,1-2.437-1.046,4,4,0,0,1-.933-2.769Zm1.271.15a3.164,3.164,0,0,0,.571,1.976,1.934,1.934,0,0,0,3.059-.01,3.46,3.46,0,0,0,.567-2.116A3.159,3.159,0,0,0,72.7,9.261a1.836,1.836,0,0,0-1.535-.755,1.816,1.816,0,0,0-1.511.745A3.435,3.435,0,0,0,69.081,11.384ZM71.74,4.5h1.531L71.439,6.51l-1.019,0Zm5.585,3.1.041.93a2.7,2.7,0,0,1,2.215-1.066q2.345,0,2.365,2.646V15H80.682V10.105a1.7,1.7,0,0,0-.366-1.183A1.466,1.466,0,0,0,79.2,8.54a1.825,1.825,0,0,0-1.08.328,2.228,2.228,0,0,0-.725.861V15H76.129V7.6Z" transform="translate(223.835 453.651)" fill="#1a0f91"/><path d="M20.663,11.1V15H19.35V5.047h3.671a3.688,3.688,0,0,1,2.56.834,2.827,2.827,0,0,1,.926,2.208,2.79,2.79,0,0,1-.906,2.232,3.853,3.853,0,0,1-2.594.783Zm0-1.073h2.358a2.358,2.358,0,0,0,1.613-.5A1.815,1.815,0,0,0,25.195,8.1a1.876,1.876,0,0,0-.561-1.424A2.209,2.209,0,0,0,23.1,6.12H20.663Zm8.7,4.97H28.093V4.5h1.265Zm6.59,0a2.657,2.657,0,0,1-.178-.779,2.822,2.822,0,0,1-2.105.916,2.611,2.611,0,0,1-1.794-.619,2,2,0,0,1-.7-1.569,2.091,2.091,0,0,1,.878-1.794,4.142,4.142,0,0,1,2.471-.639h1.23V9.935a1.42,1.42,0,0,0-.4-1.056,1.593,1.593,0,0,0-1.169-.393,1.844,1.844,0,0,0-1.135.342,1.007,1.007,0,0,0-.458.827H31.32a1.745,1.745,0,0,1,.393-1.07,2.683,2.683,0,0,1,1.066-.817,3.588,3.588,0,0,1,1.48-.3,2.924,2.924,0,0,1,2,.639,2.306,2.306,0,0,1,.752,1.76v3.4a4.162,4.162,0,0,0,.26,1.62V15Zm-2.1-.964a2.223,2.223,0,0,0,1.128-.308,1.861,1.861,0,0,0,.772-.8V11.411h-.991q-2.324,0-2.324,1.36a1.151,1.151,0,0,0,.4.93A1.524,1.524,0,0,0,33.849,14.036ZM40.193,7.6l.041.93a2.7,2.7,0,0,1,2.215-1.066q2.345,0,2.365,2.646V15H43.549V10.105a1.7,1.7,0,0,0-.366-1.183,1.466,1.466,0,0,0-1.118-.383,1.825,1.825,0,0,0-1.08.328,2.228,2.228,0,0,0-.725.861V15H39V7.6Zm9.6,7.533a3.232,3.232,0,0,1-2.447-.988,3.666,3.666,0,0,1-.943-2.642v-.232a4.438,4.438,0,0,1,.42-1.965A3.28,3.28,0,0,1,48,7.956a2.956,2.956,0,0,1,1.637-.489,2.77,2.77,0,0,1,2.242.95,4.114,4.114,0,0,1,.8,2.721v.526H47.665a2.629,2.629,0,0,0,.639,1.767,2.009,2.009,0,0,0,1.555.673,2.2,2.2,0,0,0,1.135-.273,2.851,2.851,0,0,0,.813-.725l.772.6A3.106,3.106,0,0,1,49.791,15.137Zm-.157-6.631a1.687,1.687,0,0,0-1.285.557,2.708,2.708,0,0,0-.643,1.562h3.705v-.1a2.409,2.409,0,0,0-.52-1.494A1.588,1.588,0,0,0,49.633,8.506ZM58.7,15a2.657,2.657,0,0,1-.178-.779,2.822,2.822,0,0,1-2.105.916,2.611,2.611,0,0,1-1.794-.619,2,2,0,0,1-.7-1.569,2.091,2.091,0,0,1,.878-1.794,4.142,4.142,0,0,1,2.471-.639h1.23V9.935a1.42,1.42,0,0,0-.4-1.056,1.593,1.593,0,0,0-1.169-.393,1.844,1.844,0,0,0-1.135.342,1.007,1.007,0,0,0-.458.827H54.077a1.745,1.745,0,0,1,.393-1.07,2.683,2.683,0,0,1,1.066-.817,3.588,3.588,0,0,1,1.48-.3,2.924,2.924,0,0,1,2,.639,2.306,2.306,0,0,1,.752,1.76v3.4a4.162,4.162,0,0,0,.26,1.62V15Zm-2.1-.964a2.223,2.223,0,0,0,1.128-.308,1.861,1.861,0,0,0,.772-.8V11.411h-.991q-2.324,0-2.324,1.36a1.151,1.151,0,0,0,.4.93A1.524,1.524,0,0,0,56.606,14.036ZM62.943,7.6l.034.82a2.732,2.732,0,0,1,2.194-.957,2.115,2.115,0,0,1,2.112,1.189,2.8,2.8,0,0,1,.96-.861,2.837,2.837,0,0,1,1.4-.328q2.434,0,2.475,2.577V15H70.852V10.119a1.7,1.7,0,0,0-.362-1.186,1.6,1.6,0,0,0-1.217-.393,1.677,1.677,0,0,0-1.169.42,1.706,1.706,0,0,0-.54,1.131V15H66.292V10.153A1.411,1.411,0,0,0,64.713,8.54a1.692,1.692,0,0,0-1.7,1.06V15H61.747V7.6ZM75.4,15H74.133V7.6H75.4ZM74.031,5.642a.755.755,0,0,1,.188-.52.706.706,0,0,1,.557-.212.717.717,0,0,1,.561.212.747.747,0,0,1,.191.52.722.722,0,0,1-.191.513.73.73,0,0,1-.561.205.718.718,0,0,1-.557-.205A.73.73,0,0,1,74.031,5.642Zm6.46,9.5a3.232,3.232,0,0,1-2.447-.988,3.666,3.666,0,0,1-.943-2.642v-.232a4.438,4.438,0,0,1,.42-1.965A3.28,3.28,0,0,1,78.7,7.956a2.956,2.956,0,0,1,1.637-.489,2.77,2.77,0,0,1,2.242.95,4.114,4.114,0,0,1,.8,2.721v.526H78.365A2.629,2.629,0,0,0,79,13.431a2.009,2.009,0,0,0,1.555.673,2.2,2.2,0,0,0,1.135-.273,2.851,2.851,0,0,0,.813-.725l.772.6A3.106,3.106,0,0,1,80.491,15.137Zm-.157-6.631a1.687,1.687,0,0,0-1.285.557,2.708,2.708,0,0,0-.643,1.562h3.705v-.1a2.409,2.409,0,0,0-.52-1.494A1.588,1.588,0,0,0,80.333,8.506Zm5.7-.9.041.93a2.7,2.7,0,0,1,2.215-1.066q2.345,0,2.365,2.646V15H89.391V10.105a1.7,1.7,0,0,0-.366-1.183,1.466,1.466,0,0,0-1.118-.383,1.825,1.825,0,0,0-1.08.328,2.228,2.228,0,0,0-.725.861V15H84.838V7.6Zm8.244-1.791V7.6H95.66v.978H94.279v4.593a1.027,1.027,0,0,0,.185.667.777.777,0,0,0,.629.222,3.062,3.062,0,0,0,.6-.082V15a3.688,3.688,0,0,1-.971.136,1.575,1.575,0,0,1-1.278-.513,2.2,2.2,0,0,1-.431-1.456V8.581H91.667V7.6h1.347V5.813Zm2.386,5.421a4.369,4.369,0,0,1,.427-1.955,3.187,3.187,0,0,1,1.189-1.34,3.238,3.238,0,0,1,1.74-.472,3.119,3.119,0,0,1,2.444,1.046,4.024,4.024,0,0,1,.933,2.782v.089a4.407,4.407,0,0,1-.414,1.938,3.14,3.14,0,0,1-1.183,1.336,3.275,3.275,0,0,1-1.767.479A3.111,3.111,0,0,1,97.6,14.091a4,4,0,0,1-.933-2.769Zm1.271.15a3.164,3.164,0,0,0,.571,1.976,1.934,1.934,0,0,0,3.059-.01,3.46,3.46,0,0,0,.567-2.116,3.159,3.159,0,0,0-.578-1.972,1.836,1.836,0,0,0-1.535-.755,1.816,1.816,0,0,0-1.511.745A3.435,3.435,0,0,0,97.936,11.384Zm10.206-.144a4.333,4.333,0,0,1,.807-2.738,2.745,2.745,0,0,1,4.17-.147V4.5h1.265V15h-1.162l-.062-.793a2.575,2.575,0,0,1-2.112.93,2.526,2.526,0,0,1-2.1-1.053,4.382,4.382,0,0,1-.81-2.748Zm1.265.144a3.281,3.281,0,0,0,.52,1.969,1.68,1.68,0,0,0,1.436.711,1.845,1.845,0,0,0,1.757-1.08v-3.4a1.859,1.859,0,0,0-1.743-1.046,1.687,1.687,0,0,0-1.449.718A3.612,3.612,0,0,0,109.407,11.384Zm10.008,3.753a3.232,3.232,0,0,1-2.447-.988,3.666,3.666,0,0,1-.943-2.642v-.232a4.438,4.438,0,0,1,.42-1.965,3.28,3.28,0,0,1,1.176-1.354,2.956,2.956,0,0,1,1.637-.489,2.77,2.77,0,0,1,2.242.95,4.114,4.114,0,0,1,.8,2.721v.526h-5.011a2.629,2.629,0,0,0,.639,1.767,2.009,2.009,0,0,0,1.555.673,2.2,2.2,0,0,0,1.135-.273,2.851,2.851,0,0,0,.813-.725l.772.6A3.106,3.106,0,0,1,119.415,15.137Zm-.157-6.631a1.687,1.687,0,0,0-1.285.557,2.708,2.708,0,0,0-.643,1.562h3.705v-.1a2.409,2.409,0,0,0-.52-1.494A1.588,1.588,0,0,0,119.257,8.506ZM8.454,23.6l.034.82a2.732,2.732,0,0,1,2.194-.957,2.115,2.115,0,0,1,2.112,1.189,2.8,2.8,0,0,1,.96-.861,2.837,2.837,0,0,1,1.4-.328q2.434,0,2.475,2.577V31H16.363V26.119A1.7,1.7,0,0,0,16,24.933a1.6,1.6,0,0,0-1.217-.393,1.677,1.677,0,0,0-1.169.42,1.706,1.706,0,0,0-.54,1.131V31H11.8V26.153a1.411,1.411,0,0,0-1.579-1.613,1.692,1.692,0,0,0-1.7,1.06V31H7.257V23.6ZM24.1,31a2.657,2.657,0,0,1-.178-.779,2.822,2.822,0,0,1-2.105.916,2.611,2.611,0,0,1-1.794-.619,2,2,0,0,1-.7-1.569,2.091,2.091,0,0,1,.878-1.794,4.141,4.141,0,0,1,2.471-.639H23.9v-.581a1.42,1.42,0,0,0-.4-1.056,1.593,1.593,0,0,0-1.169-.393,1.844,1.844,0,0,0-1.135.342,1.007,1.007,0,0,0-.458.827H19.473a1.745,1.745,0,0,1,.393-1.07,2.683,2.683,0,0,1,1.066-.817,3.588,3.588,0,0,1,1.48-.3,2.924,2.924,0,0,1,2,.639,2.306,2.306,0,0,1,.752,1.76v3.4a4.162,4.162,0,0,0,.26,1.62V31ZM22,30.036a2.223,2.223,0,0,0,1.128-.308,1.861,1.861,0,0,0,.772-.8V27.411h-.991q-2.324,0-2.324,1.36a1.151,1.151,0,0,0,.4.93A1.524,1.524,0,0,0,22,30.036Zm6.863-8.224V23.6h1.381v.978H28.866v4.593a1.027,1.027,0,0,0,.185.667.777.777,0,0,0,.629.222,3.062,3.062,0,0,0,.6-.082V31a3.688,3.688,0,0,1-.971.136,1.575,1.575,0,0,1-1.278-.513,2.2,2.2,0,0,1-.431-1.456V24.581H26.254V23.6H27.6V21.813Zm5.927,9.324a3.232,3.232,0,0,1-2.447-.988,3.666,3.666,0,0,1-.943-2.642v-.232a4.438,4.438,0,0,1,.42-1.965A3.279,3.279,0,0,1,33,23.956a2.956,2.956,0,0,1,1.637-.489,2.77,2.77,0,0,1,2.242.95,4.114,4.114,0,0,1,.8,2.721v.526H32.667a2.629,2.629,0,0,0,.639,1.767,2.009,2.009,0,0,0,1.555.673A2.2,2.2,0,0,0,36,29.831a2.851,2.851,0,0,0,.813-.725l.772.6A3.106,3.106,0,0,1,34.792,31.137Zm-.157-6.631a1.687,1.687,0,0,0-1.285.557,2.708,2.708,0,0,0-.643,1.562h3.705v-.1a2.409,2.409,0,0,0-.52-1.494A1.588,1.588,0,0,0,34.635,24.506Zm8.08.232a3.79,3.79,0,0,0-.622-.048A1.667,1.667,0,0,0,40.4,25.75V31H39.14V23.6h1.23l.021.854a1.969,1.969,0,0,1,1.764-.991,1.292,1.292,0,0,1,.561.1ZM45.251,31H43.987V23.6h1.265Zm-1.367-9.358a.755.755,0,0,1,.188-.52.706.706,0,0,1,.557-.212.717.717,0,0,1,.561.212.747.747,0,0,1,.191.52.722.722,0,0,1-.191.513.73.73,0,0,1-.561.205.718.718,0,0,1-.557-.205A.73.73,0,0,1,43.884,21.642ZM51.841,31a2.657,2.657,0,0,1-.178-.779,2.822,2.822,0,0,1-2.105.916,2.611,2.611,0,0,1-1.794-.619,2,2,0,0,1-.7-1.569,2.091,2.091,0,0,1,.878-1.794,4.142,4.142,0,0,1,2.471-.639h1.23v-.581a1.42,1.42,0,0,0-.4-1.056,1.593,1.593,0,0,0-1.169-.393,1.844,1.844,0,0,0-1.135.342,1.007,1.007,0,0,0-.458.827H47.213a1.745,1.745,0,0,1,.393-1.07,2.683,2.683,0,0,1,1.066-.817,3.588,3.588,0,0,1,1.48-.3,2.924,2.924,0,0,1,2,.639,2.306,2.306,0,0,1,.752,1.76v3.4a4.162,4.162,0,0,0,.26,1.62V31Zm-2.1-.964a2.223,2.223,0,0,0,1.128-.308,1.861,1.861,0,0,0,.772-.8V27.411h-.991q-2.324,0-2.324,1.36a1.151,1.151,0,0,0,.4.93A1.524,1.524,0,0,0,49.743,30.036ZM56.264,31H55V20.5h1.265Zm5.093.137a3.232,3.232,0,0,1-2.447-.988,3.666,3.666,0,0,1-.943-2.642v-.232a4.438,4.438,0,0,1,.42-1.965,3.279,3.279,0,0,1,1.176-1.354,2.956,2.956,0,0,1,1.637-.489,2.77,2.77,0,0,1,2.242.95,4.114,4.114,0,0,1,.8,2.721v.526H59.231a2.629,2.629,0,0,0,.639,1.767,2.009,2.009,0,0,0,1.555.673,2.2,2.2,0,0,0,1.135-.273,2.851,2.851,0,0,0,.813-.725l.772.6A3.106,3.106,0,0,1,61.357,31.137ZM61.2,24.506a1.687,1.687,0,0,0-1.285.557,2.708,2.708,0,0,0-.643,1.562h3.705v-.1a2.409,2.409,0,0,0-.52-1.494A1.588,1.588,0,0,0,61.2,24.506Zm8.812,4.532a.931.931,0,0,0-.386-.8,3.718,3.718,0,0,0-1.347-.489,6.367,6.367,0,0,1-1.524-.492,2.169,2.169,0,0,1-.834-.684,1.635,1.635,0,0,1-.27-.943,1.919,1.919,0,0,1,.769-1.538,3,3,0,0,1,1.965-.629,3.091,3.091,0,0,1,2.041.649,2.063,2.063,0,0,1,.783,1.661H69.936a1.142,1.142,0,0,0-.441-.9,1.652,1.652,0,0,0-1.111-.376,1.729,1.729,0,0,0-1.08.3.947.947,0,0,0-.39.786.767.767,0,0,0,.362.69,4.458,4.458,0,0,0,1.309.444,6.821,6.821,0,0,1,1.535.506,2.239,2.239,0,0,1,.872.708,1.74,1.74,0,0,1,.284,1.008,1.893,1.893,0,0,1-.793,1.589,3.326,3.326,0,0,1-2.058.6,3.725,3.725,0,0,1-1.572-.314,2.557,2.557,0,0,1-1.07-.878,2.117,2.117,0,0,1-.386-1.22h1.265a1.309,1.309,0,0,0,.509,1.008,1.976,1.976,0,0,0,1.254.373,2.039,2.039,0,0,0,1.152-.291A.893.893,0,0,0,70.011,29.038Zm9.953-4.3a3.79,3.79,0,0,0-.622-.048,1.667,1.667,0,0,0-1.688,1.06V31H76.389V23.6h1.23l.021.854a1.969,1.969,0,0,1,1.764-.991,1.292,1.292,0,0,1,.561.1Zm4.231,6.4a3.232,3.232,0,0,1-2.447-.988,3.666,3.666,0,0,1-.943-2.642v-.232a4.438,4.438,0,0,1,.42-1.965A3.28,3.28,0,0,1,82.4,23.956a2.956,2.956,0,0,1,1.637-.489,2.77,2.77,0,0,1,2.242.95,4.114,4.114,0,0,1,.8,2.721v.526H82.07a2.629,2.629,0,0,0,.639,1.767,2.009,2.009,0,0,0,1.555.673,2.2,2.2,0,0,0,1.135-.273,2.851,2.851,0,0,0,.813-.725l.772.6A3.106,3.106,0,0,1,84.2,31.137Zm-.157-6.631a1.687,1.687,0,0,0-1.285.557,2.708,2.708,0,0,0-.643,1.562h3.705v-.1a2.409,2.409,0,0,0-.52-1.494A1.588,1.588,0,0,0,84.039,24.506Zm4.2,2.734a4.341,4.341,0,0,1,.8-2.758,2.823,2.823,0,0,1,4.218-.133l.055-.745H94.47v10.24H93.206V30.316a2.654,2.654,0,0,1-2.037.82,2.551,2.551,0,0,1-2.136-1.042,4.438,4.438,0,0,1-.8-2.765Zm1.265.144a3.291,3.291,0,0,0,.537,2,1.707,1.707,0,0,0,1.446.725,1.894,1.894,0,0,0,1.723-1V25.483a1.9,1.9,0,0,0-1.709-.978,1.72,1.72,0,0,0-1.456.728A3.583,3.583,0,0,0,89.5,27.384Zm11.566,2.885a2.686,2.686,0,0,1-2.167.868,2.3,2.3,0,0,1-1.8-.687,2.974,2.974,0,0,1-.625-2.034V23.6h1.265v4.778q0,1.682,1.367,1.682a1.893,1.893,0,0,0,1.928-1.08V23.6H102.3V31h-1.2Zm6.221.868a3.232,3.232,0,0,1-2.447-.988,3.666,3.666,0,0,1-.943-2.642v-.232a4.438,4.438,0,0,1,.42-1.965,3.28,3.28,0,0,1,1.176-1.354,2.956,2.956,0,0,1,1.637-.489,2.77,2.77,0,0,1,2.242.95,4.114,4.114,0,0,1,.8,2.721v.526h-5.011a2.629,2.629,0,0,0,.639,1.767,2.009,2.009,0,0,0,1.555.673,2.2,2.2,0,0,0,1.135-.273,2.851,2.851,0,0,0,.813-.725l.772.6A3.106,3.106,0,0,1,107.288,31.137Zm-.157-6.631a1.687,1.687,0,0,0-1.285.557,2.708,2.708,0,0,0-.643,1.562h3.705v-.1a2.409,2.409,0,0,0-.52-1.494A1.588,1.588,0,0,0,107.13,24.506Zm8.08.232a3.79,3.79,0,0,0-.622-.048,1.667,1.667,0,0,0-1.688,1.06V31h-1.265V23.6h1.23l.021.854a1.969,1.969,0,0,1,1.764-.991,1.292,1.292,0,0,1,.561.1ZM117.747,31h-1.265V23.6h1.265Zm-1.367-9.358a.755.755,0,0,1,.188-.52.706.706,0,0,1,.557-.212.717.717,0,0,1,.561.212.747.747,0,0,1,.191.52.722.722,0,0,1-.191.513.73.73,0,0,1-.561.205.718.718,0,0,1-.557-.205A.73.73,0,0,1,116.379,21.642Zm3.083,5.6a4.333,4.333,0,0,1,.807-2.738,2.745,2.745,0,0,1,4.17-.147V20.5H125.7V31h-1.162l-.062-.793a2.575,2.575,0,0,1-2.112.93,2.526,2.526,0,0,1-2.1-1.053,4.382,4.382,0,0,1-.81-2.748Zm1.265.144a3.281,3.281,0,0,0,.52,1.969,1.68,1.68,0,0,0,1.436.711,1.845,1.845,0,0,0,1.757-1.08v-3.4A1.859,1.859,0,0,0,122.7,24.54a1.687,1.687,0,0,0-1.449.718A3.612,3.612,0,0,0,120.727,27.384Zm6.6-.15a4.369,4.369,0,0,1,.427-1.955,3.187,3.187,0,0,1,1.189-1.34,3.238,3.238,0,0,1,1.74-.472,3.119,3.119,0,0,1,2.444,1.046,4.024,4.024,0,0,1,.933,2.782v.089a4.407,4.407,0,0,1-.414,1.938,3.14,3.14,0,0,1-1.183,1.336,3.275,3.275,0,0,1-1.767.479,3.111,3.111,0,0,1-2.437-1.046,4,4,0,0,1-.933-2.769Zm1.271.15a3.164,3.164,0,0,0,.571,1.976,1.934,1.934,0,0,0,3.059-.01,3.46,3.46,0,0,0,.567-2.116,3.159,3.159,0,0,0-.578-1.972,1.836,1.836,0,0,0-1.535-.755,1.816,1.816,0,0,0-1.511.745A3.434,3.434,0,0,0,128.6,27.384ZM10.022,42.96a10.569,10.569,0,0,1,.414-2.967,8.618,8.618,0,0,1,1.234-2.584,5.249,5.249,0,0,1,1.7-1.641l.26.834a5.444,5.444,0,0,0-1.637,2.338,10.135,10.135,0,0,0-.7,3.521l-.007.581a10.188,10.188,0,0,0,.964,4.58,5.47,5.47,0,0,0,1.381,1.818l-.26.772a5.418,5.418,0,0,1-1.736-1.7A9.5,9.5,0,0,1,10.022,42.96Zm6.727-5.913L20,45.168l3.254-8.121h1.7V47H23.646V43.124l.123-4.184L20.5,47h-1l-3.261-8.039.13,4.163V47H15.054V37.047Zm14.178,5.927H28.589V47H27.27V37.047h3.295a3.9,3.9,0,0,1,2.587.766,2.755,2.755,0,0,1,.906,2.229,2.68,2.68,0,0,1-.5,1.62,3,3,0,0,1-1.4,1.032L34.5,46.918V47H33.087ZM28.589,41.9h2.017a2.275,2.275,0,0,0,1.555-.507,1.714,1.714,0,0,0,.578-1.356,1.8,1.8,0,0,0-.55-1.418,2.33,2.33,0,0,0-1.589-.5h-2.01Zm8.62,1.2V47H35.9V37.047h3.671a3.688,3.688,0,0,1,2.56.834,2.827,2.827,0,0,1,.926,2.208,2.79,2.79,0,0,1-.906,2.232,3.853,3.853,0,0,1-2.594.783Zm0-1.073h2.358a2.358,2.358,0,0,0,1.613-.5,1.815,1.815,0,0,0,.561-1.435,1.875,1.875,0,0,0-.561-1.424,2.209,2.209,0,0,0-1.538-.555H37.209Zm10.24,1a10.574,10.574,0,0,1-.4,2.922,8.641,8.641,0,0,1-1.224,2.581A5.361,5.361,0,0,1,44.1,50.213l-.267-.772a5.5,5.5,0,0,0,1.692-2.505,10.839,10.839,0,0,0,.653-3.77v-.219a11.254,11.254,0,0,0-.3-2.669,9.009,9.009,0,0,0-.837-2.211,5.108,5.108,0,0,0-1.207-1.524l.267-.772a5.34,5.34,0,0,1,1.719,1.668,8.66,8.66,0,0,1,1.224,2.577A10.818,10.818,0,0,1,47.449,43.028Zm12.934.813a3.662,3.662,0,0,1-1.166,2.437,3.82,3.82,0,0,1-2.608.858,3.507,3.507,0,0,1-2.827-1.265,5.088,5.088,0,0,1-1.063-3.384v-.957a5.671,5.671,0,0,1,.5-2.44,3.7,3.7,0,0,1,1.4-1.617,3.911,3.911,0,0,1,2.105-.564,3.6,3.6,0,0,1,2.543.885,3.706,3.706,0,0,1,1.114,2.451H59.063a2.86,2.86,0,0,0-.742-1.728,2.244,2.244,0,0,0-1.6-.535,2.348,2.348,0,0,0-1.972.93,4.271,4.271,0,0,0-.714,2.648v.965a4.391,4.391,0,0,0,.677,2.579,2.187,2.187,0,0,0,1.894.958,2.526,2.526,0,0,0,1.678-.5,2.75,2.75,0,0,0,.776-1.726Zm1.258-.608a4.369,4.369,0,0,1,.427-1.955,3.187,3.187,0,0,1,1.189-1.34A3.238,3.238,0,0,1,65,39.467a3.119,3.119,0,0,1,2.444,1.046,4.024,4.024,0,0,1,.933,2.782v.089a4.407,4.407,0,0,1-.414,1.938,3.14,3.14,0,0,1-1.183,1.336,3.275,3.275,0,0,1-1.767.479,3.111,3.111,0,0,1-2.437-1.046,4,4,0,0,1-.933-2.769Zm1.271.15a3.164,3.164,0,0,0,.571,1.976,1.934,1.934,0,0,0,3.059-.01,3.46,3.46,0,0,0,.567-2.116,3.159,3.159,0,0,0-.578-1.972A1.836,1.836,0,0,0,65,40.506a1.816,1.816,0,0,0-1.511.745A3.435,3.435,0,0,0,62.912,43.384Zm8.244-3.78.041.93a2.7,2.7,0,0,1,2.215-1.066q2.345,0,2.365,2.646V47H74.513V42.105a1.7,1.7,0,0,0-.366-1.183,1.466,1.466,0,0,0-1.118-.383,1.825,1.825,0,0,0-1.08.328,2.228,2.228,0,0,0-.725.861V47H69.96V39.6ZM79.4,37.813V39.6h1.381v.978H79.4v4.593a1.027,1.027,0,0,0,.185.667.777.777,0,0,0,.629.222,3.062,3.062,0,0,0,.6-.082V47a3.688,3.688,0,0,1-.971.136,1.575,1.575,0,0,1-1.278-.513,2.2,2.2,0,0,1-.431-1.456V40.581H76.789V39.6h1.347V37.813Zm6.433,2.926a3.79,3.79,0,0,0-.622-.048,1.667,1.667,0,0,0-1.688,1.06V47H82.258V39.6h1.23l.021.854a1.969,1.969,0,0,1,1.764-.991,1.292,1.292,0,0,1,.561.1Zm.69,2.5a4.369,4.369,0,0,1,.427-1.955,3.187,3.187,0,0,1,1.189-1.34,3.238,3.238,0,0,1,1.74-.472,3.119,3.119,0,0,1,2.444,1.046,4.024,4.024,0,0,1,.933,2.782v.089a4.407,4.407,0,0,1-.414,1.938,3.14,3.14,0,0,1-1.183,1.336,3.275,3.275,0,0,1-1.767.479,3.111,3.111,0,0,1-2.437-1.046,4,4,0,0,1-.933-2.769Zm1.271.15a3.164,3.164,0,0,0,.571,1.976,1.934,1.934,0,0,0,3.059-.01,3.46,3.46,0,0,0,.567-2.116,3.159,3.159,0,0,0-.578-1.972,1.836,1.836,0,0,0-1.535-.755,1.816,1.816,0,0,0-1.511.745A3.435,3.435,0,0,0,87.795,43.384ZM96.217,47H94.952V36.5h1.265Zm7.205-9.187V39.6H104.8v.978h-1.381v4.593a1.027,1.027,0,0,0,.185.667.777.777,0,0,0,.629.222,3.062,3.062,0,0,0,.6-.082V47a3.688,3.688,0,0,1-.971.136,1.575,1.575,0,0,1-1.278-.513,2.2,2.2,0,0,1-.431-1.456V40.581h-1.347V39.6h1.347V37.813ZM110.846,47a2.657,2.657,0,0,1-.178-.779,2.822,2.822,0,0,1-2.105.916,2.611,2.611,0,0,1-1.794-.619,2,2,0,0,1-.7-1.569,2.091,2.091,0,0,1,.878-1.794,4.142,4.142,0,0,1,2.471-.639h1.23v-.581a1.42,1.42,0,0,0-.4-1.056,1.593,1.593,0,0,0-1.169-.393,1.844,1.844,0,0,0-1.135.342,1.007,1.007,0,0,0-.458.827h-1.271a1.745,1.745,0,0,1,.393-1.07,2.683,2.683,0,0,1,1.066-.817,3.588,3.588,0,0,1,1.48-.3,2.924,2.924,0,0,1,2,.639,2.306,2.306,0,0,1,.752,1.76v3.4a4.162,4.162,0,0,0,.26,1.62V47Zm-2.1-.964a2.223,2.223,0,0,0,1.128-.308,1.861,1.861,0,0,0,.772-.8V43.411h-.991q-2.324,0-2.324,1.36a1.151,1.151,0,0,0,.4.93A1.524,1.524,0,0,0,108.747,46.036Zm6.521.964H114V36.5h1.265Zm3.4,0H117.4V36.5h1.265Zm5.093.137a3.232,3.232,0,0,1-2.447-.988,3.666,3.666,0,0,1-.943-2.642v-.232a4.438,4.438,0,0,1,.42-1.965,3.28,3.28,0,0,1,1.176-1.354,2.956,2.956,0,0,1,1.637-.489,2.77,2.77,0,0,1,2.242.95,4.114,4.114,0,0,1,.8,2.721v.526h-5.011a2.629,2.629,0,0,0,.639,1.767,2.009,2.009,0,0,0,1.555.673,2.2,2.2,0,0,0,1.135-.273,2.851,2.851,0,0,0,.813-.725l.772.6A3.106,3.106,0,0,1,123.759,47.137Zm-.157-6.631a1.687,1.687,0,0,0-1.285.557,2.708,2.708,0,0,0-.643,1.562h3.705v-.1a2.409,2.409,0,0,0-.52-1.494A1.588,1.588,0,0,0,123.6,40.506Zm8.08.232a3.79,3.79,0,0,0-.622-.048,1.667,1.667,0,0,0-1.688,1.06V47h-1.265V39.6h1.23l.021.854a1.969,1.969,0,0,1,1.764-.991,1.292,1.292,0,0,1,.561.1Z" transform="translate(223.789 126.651)" fill="#1a0f91"/><path d="M41.4,10.974H39.058V15H37.739V5.047h3.295a3.9,3.9,0,0,1,2.587.766,2.755,2.755,0,0,1,.906,2.229,2.68,2.68,0,0,1-.5,1.62,3,3,0,0,1-1.4,1.032l2.338,4.225V15H43.556ZM39.058,9.9h2.017a2.275,2.275,0,0,0,1.555-.507,1.714,1.714,0,0,0,.578-1.356,1.8,1.8,0,0,0-.55-1.418,2.33,2.33,0,0,0-1.589-.5h-2.01Zm10.179,5.236a3.232,3.232,0,0,1-2.447-.988,3.666,3.666,0,0,1-.943-2.642v-.232a4.438,4.438,0,0,1,.42-1.965,3.28,3.28,0,0,1,1.176-1.354,2.956,2.956,0,0,1,1.637-.489,2.77,2.77,0,0,1,2.242.95,4.114,4.114,0,0,1,.8,2.721v.526H47.111a2.629,2.629,0,0,0,.639,1.767,2.009,2.009,0,0,0,1.555.673,2.2,2.2,0,0,0,1.135-.273,2.851,2.851,0,0,0,.813-.725l.772.6A3.106,3.106,0,0,1,49.237,15.137ZM49.08,8.506a1.687,1.687,0,0,0-1.285.557,2.708,2.708,0,0,0-.643,1.562h3.705v-.1a2.409,2.409,0,0,0-.52-1.494A1.588,1.588,0,0,0,49.08,8.506Zm7.472,5.6a1.822,1.822,0,0,0,1.183-.41,1.443,1.443,0,0,0,.561-1.025h1.2a2.293,2.293,0,0,1-.437,1.21,2.881,2.881,0,0,1-1.077.916,3.107,3.107,0,0,1-1.425.342,3.047,3.047,0,0,1-2.4-1.008,4.016,4.016,0,0,1-.892-2.758v-.212a4.453,4.453,0,0,1,.4-1.921,3.02,3.02,0,0,1,1.138-1.306,3.233,3.233,0,0,1,1.753-.465,2.966,2.966,0,0,1,2.068.745,2.663,2.663,0,0,1,.878,1.935h-1.2a1.743,1.743,0,0,0-.543-1.179,1.691,1.691,0,0,0-1.207-.461,1.77,1.77,0,0,0-1.494.694,3.259,3.259,0,0,0-.53,2.006v.239a3.194,3.194,0,0,0,.526,1.969A1.779,1.779,0,0,0,56.551,14.1Zm7.431,1.032a3.232,3.232,0,0,1-2.447-.988,3.666,3.666,0,0,1-.943-2.642v-.232a4.438,4.438,0,0,1,.42-1.965,3.28,3.28,0,0,1,1.176-1.354,2.956,2.956,0,0,1,1.637-.489,2.77,2.77,0,0,1,2.242.95,4.114,4.114,0,0,1,.8,2.721v.526H61.856a2.629,2.629,0,0,0,.639,1.767,2.009,2.009,0,0,0,1.555.673,2.2,2.2,0,0,0,1.135-.273A2.851,2.851,0,0,0,66,13.106l.772.6A3.106,3.106,0,0,1,63.982,15.137Zm-.157-6.631a1.687,1.687,0,0,0-1.285.557,2.708,2.708,0,0,0-.643,1.562H65.6v-.1a2.409,2.409,0,0,0-.52-1.494A1.588,1.588,0,0,0,63.825,8.506Zm10.753,2.878a4.429,4.429,0,0,1-.772,2.721,2.476,2.476,0,0,1-2.092,1.032,2.713,2.713,0,0,1-2.119-.854v3.562H68.33V7.6h1.155l.062.82a2.605,2.605,0,0,1,2.146-.957,2.522,2.522,0,0,1,2.109,1,4.477,4.477,0,0,1,.776,2.8Zm-1.265-.144a3.268,3.268,0,0,0-.533-1.976,1.718,1.718,0,0,0-1.463-.725,1.859,1.859,0,0,0-1.723,1.019v3.534A1.863,1.863,0,0,0,71.331,14.1a1.71,1.71,0,0,0,1.446-.721A3.567,3.567,0,0,0,73.313,11.24ZM79.151,14.1a1.822,1.822,0,0,0,1.183-.41,1.443,1.443,0,0,0,.561-1.025h1.2a2.293,2.293,0,0,1-.437,1.21,2.882,2.882,0,0,1-1.077.916,3.107,3.107,0,0,1-1.425.342,3.047,3.047,0,0,1-2.4-1.008,4.016,4.016,0,0,1-.892-2.758v-.212a4.453,4.453,0,0,1,.4-1.921,3.02,3.02,0,0,1,1.138-1.306,3.233,3.233,0,0,1,1.753-.465,2.966,2.966,0,0,1,2.068.745,2.663,2.663,0,0,1,.878,1.935h-1.2a1.743,1.743,0,0,0-.543-1.179,1.691,1.691,0,0,0-1.207-.461A1.77,1.77,0,0,0,77.65,9.2a3.259,3.259,0,0,0-.53,2.006v.239a3.194,3.194,0,0,0,.526,1.969A1.779,1.779,0,0,0,79.151,14.1Zm5.735.9H83.622V7.6h1.265ZM83.519,5.642a.755.755,0,0,1,.188-.52.706.706,0,0,1,.557-.212.717.717,0,0,1,.561.212.747.747,0,0,1,.191.52.722.722,0,0,1-.191.513.73.73,0,0,1-.561.205.718.718,0,0,1-.557-.205A.73.73,0,0,1,83.519,5.642Zm3.056,5.592A4.369,4.369,0,0,1,87,9.278a3.187,3.187,0,0,1,1.189-1.34,3.238,3.238,0,0,1,1.74-.472,3.119,3.119,0,0,1,2.444,1.046,4.024,4.024,0,0,1,.933,2.782v.089a4.407,4.407,0,0,1-.414,1.938,3.14,3.14,0,0,1-1.183,1.336,3.275,3.275,0,0,1-1.767.479,3.111,3.111,0,0,1-2.437-1.046,4,4,0,0,1-.933-2.769Zm1.271.15a3.164,3.164,0,0,0,.571,1.976,1.934,1.934,0,0,0,3.059-.01,3.46,3.46,0,0,0,.567-2.116,3.159,3.159,0,0,0-.578-1.972,1.836,1.836,0,0,0-1.535-.755,1.816,1.816,0,0,0-1.511.745A3.435,3.435,0,0,0,87.846,11.384ZM90.505,4.5h1.531L90.2,6.51l-1.019,0ZM96.09,7.6l.041.93a2.7,2.7,0,0,1,2.215-1.066q2.345,0,2.365,2.646V15H99.447V10.105a1.7,1.7,0,0,0-.366-1.183,1.466,1.466,0,0,0-1.118-.383,1.825,1.825,0,0,0-1.08.328,2.228,2.228,0,0,0-.725.861V15H94.894V7.6Zm6.487,9.379-.718-.492a3.3,3.3,0,0,0,.67-1.846V13.5h1.237v.991a3.114,3.114,0,0,1-.338,1.381A3.233,3.233,0,0,1,102.578,16.982ZM18.872,31a2.657,2.657,0,0,1-.178-.779,2.822,2.822,0,0,1-2.105.916,2.611,2.611,0,0,1-1.794-.619,2,2,0,0,1-.7-1.569,2.091,2.091,0,0,1,.878-1.794,4.141,4.141,0,0,1,2.471-.639h1.23v-.581a1.42,1.42,0,0,0-.4-1.056,1.593,1.593,0,0,0-1.169-.393,1.844,1.844,0,0,0-1.135.342,1.007,1.007,0,0,0-.458.827H14.244a1.745,1.745,0,0,1,.393-1.07,2.683,2.683,0,0,1,1.066-.817,3.588,3.588,0,0,1,1.48-.3,2.924,2.924,0,0,1,2,.639,2.306,2.306,0,0,1,.752,1.76v3.4a4.162,4.162,0,0,0,.26,1.62V31Zm-2.1-.964a2.223,2.223,0,0,0,1.128-.308,1.861,1.861,0,0,0,.772-.8V27.411h-.991q-2.324,0-2.324,1.36a1.151,1.151,0,0,0,.4.93A1.524,1.524,0,0,0,16.773,30.036ZM23.294,31H22.03V20.5h1.265Zm3.213-7.4.034.82a2.732,2.732,0,0,1,2.194-.957,2.115,2.115,0,0,1,2.112,1.189,2.8,2.8,0,0,1,.96-.861,2.837,2.837,0,0,1,1.4-.328q2.434,0,2.475,2.577V31H34.417V26.119a1.7,1.7,0,0,0-.362-1.186,1.6,1.6,0,0,0-1.217-.393,1.677,1.677,0,0,0-1.169.42,1.706,1.706,0,0,0-.54,1.131V31H29.857V26.153a1.411,1.411,0,0,0-1.579-1.613,1.692,1.692,0,0,0-1.7,1.06V31H25.311V23.6ZM42.155,31a2.657,2.657,0,0,1-.178-.779,2.822,2.822,0,0,1-2.105.916,2.611,2.611,0,0,1-1.794-.619,2,2,0,0,1-.7-1.569,2.091,2.091,0,0,1,.878-1.794,4.142,4.142,0,0,1,2.471-.639h1.23v-.581a1.42,1.42,0,0,0-.4-1.056,1.593,1.593,0,0,0-1.169-.393,1.844,1.844,0,0,0-1.135.342,1.007,1.007,0,0,0-.458.827H37.527a1.745,1.745,0,0,1,.393-1.07,2.683,2.683,0,0,1,1.066-.817,3.588,3.588,0,0,1,1.48-.3,2.924,2.924,0,0,1,2,.639,2.306,2.306,0,0,1,.752,1.76v3.4a4.162,4.162,0,0,0,.26,1.62V31Zm-2.1-.964a2.223,2.223,0,0,0,1.128-.308,1.861,1.861,0,0,0,.772-.8V27.411h-.991q-2.324,0-2.324,1.36a1.151,1.151,0,0,0,.4.93A1.524,1.524,0,0,0,40.056,30.036Zm8.114.068a1.822,1.822,0,0,0,1.183-.41,1.443,1.443,0,0,0,.561-1.025h1.2a2.293,2.293,0,0,1-.437,1.21,2.881,2.881,0,0,1-1.077.916,3.107,3.107,0,0,1-1.425.342,3.047,3.047,0,0,1-2.4-1.008,4.016,4.016,0,0,1-.892-2.758v-.212a4.453,4.453,0,0,1,.4-1.921,3.02,3.02,0,0,1,1.138-1.306,3.233,3.233,0,0,1,1.753-.465,2.966,2.966,0,0,1,2.068.745,2.663,2.663,0,0,1,.878,1.935h-1.2a1.743,1.743,0,0,0-.543-1.179,1.691,1.691,0,0,0-1.207-.461,1.77,1.77,0,0,0-1.494.694,3.259,3.259,0,0,0-.53,2.006v.239a3.194,3.194,0,0,0,.526,1.969A1.779,1.779,0,0,0,48.17,30.1ZM55.6,31.137a3.232,3.232,0,0,1-2.447-.988,3.666,3.666,0,0,1-.943-2.642v-.232a4.438,4.438,0,0,1,.42-1.965,3.279,3.279,0,0,1,1.176-1.354,2.956,2.956,0,0,1,1.637-.489,2.77,2.77,0,0,1,2.242.95,4.114,4.114,0,0,1,.8,2.721v.526H53.475a2.629,2.629,0,0,0,.639,1.767,2.009,2.009,0,0,0,1.555.673,2.2,2.2,0,0,0,1.135-.273,2.851,2.851,0,0,0,.813-.725l.772.6A3.106,3.106,0,0,1,55.6,31.137Zm-.157-6.631a1.687,1.687,0,0,0-1.285.557,2.708,2.708,0,0,0-.643,1.562h3.705v-.1a2.409,2.409,0,0,0-.52-1.494A1.588,1.588,0,0,0,55.444,24.506Zm5.7-.9.041.93A2.7,2.7,0,0,1,63.4,23.467q2.345,0,2.365,2.646V31H64.5V26.105a1.7,1.7,0,0,0-.366-1.183,1.466,1.466,0,0,0-1.118-.383,1.825,1.825,0,0,0-1.08.328,2.228,2.228,0,0,0-.725.861V31H59.949V23.6ZM72.24,31a2.657,2.657,0,0,1-.178-.779,2.822,2.822,0,0,1-2.105.916,2.611,2.611,0,0,1-1.794-.619,2,2,0,0,1-.7-1.569,2.091,2.091,0,0,1,.878-1.794,4.141,4.141,0,0,1,2.471-.639h1.23v-.581a1.42,1.42,0,0,0-.4-1.056,1.593,1.593,0,0,0-1.169-.393,1.844,1.844,0,0,0-1.135.342,1.007,1.007,0,0,0-.458.827H67.612A1.745,1.745,0,0,1,68,24.584a2.683,2.683,0,0,1,1.066-.817,3.588,3.588,0,0,1,1.48-.3,2.924,2.924,0,0,1,2,.639,2.306,2.306,0,0,1,.752,1.76v3.4a4.162,4.162,0,0,0,.26,1.62V31Zm-2.1-.964a2.223,2.223,0,0,0,1.128-.308,1.861,1.861,0,0,0,.772-.8V27.411H71.05q-2.324,0-2.324,1.36a1.151,1.151,0,0,0,.4.93A1.524,1.524,0,0,0,70.141,30.036ZM76.478,23.6l.034.82a2.732,2.732,0,0,1,2.194-.957,2.115,2.115,0,0,1,2.112,1.189,2.8,2.8,0,0,1,.96-.861,2.837,2.837,0,0,1,1.4-.328q2.434,0,2.475,2.577V31H84.387V26.119a1.7,1.7,0,0,0-.362-1.186,1.6,1.6,0,0,0-1.217-.393,1.677,1.677,0,0,0-1.169.42,1.706,1.706,0,0,0-.54,1.131V31H79.828V26.153a1.411,1.411,0,0,0-1.579-1.613,1.692,1.692,0,0,0-1.7,1.06V31H75.282V23.6ZM88.933,31H87.668V23.6h1.265Zm-1.367-9.358a.755.755,0,0,1,.188-.52.706.706,0,0,1,.557-.212.717.717,0,0,1,.561.212.747.747,0,0,1,.191.52.722.722,0,0,1-.191.513.73.73,0,0,1-.561.205.718.718,0,0,1-.557-.205A.73.73,0,0,1,87.566,21.642Zm6.46,9.5a3.232,3.232,0,0,1-2.447-.988,3.666,3.666,0,0,1-.943-2.642v-.232a4.438,4.438,0,0,1,.42-1.965,3.28,3.28,0,0,1,1.176-1.354,2.956,2.956,0,0,1,1.637-.489,2.77,2.77,0,0,1,2.242.95,4.114,4.114,0,0,1,.8,2.721v.526H91.9a2.629,2.629,0,0,0,.639,1.767,2.009,2.009,0,0,0,1.555.673,2.2,2.2,0,0,0,1.135-.273,2.851,2.851,0,0,0,.813-.725l.772.6A3.106,3.106,0,0,1,94.026,31.137Zm-.157-6.631a1.687,1.687,0,0,0-1.285.557,2.708,2.708,0,0,0-.643,1.562h3.705v-.1a2.409,2.409,0,0,0-.52-1.494A1.588,1.588,0,0,0,93.869,24.506Zm5.7-.9.041.93a2.7,2.7,0,0,1,2.215-1.066q2.345,0,2.365,2.646V31h-1.265V26.105a1.7,1.7,0,0,0-.366-1.183,1.466,1.466,0,0,0-1.118-.383,1.825,1.825,0,0,0-1.08.328,2.228,2.228,0,0,0-.725.861V31H98.374V23.6Zm8.244-1.791V23.6h1.381v.978h-1.381v4.593a1.027,1.027,0,0,0,.185.667.777.777,0,0,0,.629.222,3.062,3.062,0,0,0,.6-.082V31a3.688,3.688,0,0,1-.971.136,1.575,1.575,0,0,1-1.278-.513,2.2,2.2,0,0,1-.431-1.456V24.581H105.2V23.6h1.347V21.813Zm2.386,5.421a4.369,4.369,0,0,1,.427-1.955,3.187,3.187,0,0,1,1.189-1.34,3.238,3.238,0,0,1,1.74-.472A3.119,3.119,0,0,1,116,24.513a4.024,4.024,0,0,1,.933,2.782v.089a4.407,4.407,0,0,1-.414,1.938,3.14,3.14,0,0,1-1.183,1.336,3.275,3.275,0,0,1-1.767.479,3.111,3.111,0,0,1-2.437-1.046,4,4,0,0,1-.933-2.769Zm1.271.15a3.164,3.164,0,0,0,.571,1.976,1.934,1.934,0,0,0,3.059-.01,3.46,3.46,0,0,0,.567-2.116,3.159,3.159,0,0,0-.578-1.972,1.836,1.836,0,0,0-1.535-.755,1.816,1.816,0,0,0-1.511.745A3.434,3.434,0,0,0,111.471,27.384ZM124.4,29.147l1.723-5.544h1.354l-2.974,8.538q-.69,1.846-2.194,1.846l-.239-.021-.472-.089V32.853l.342.027a1.683,1.683,0,0,0,1-.26,1.88,1.88,0,0,0,.591-.95l.28-.752L121.178,23.6h1.381ZM40.921,37.813V39.6H42.3v.978H40.921v4.593a1.027,1.027,0,0,0,.185.667.777.777,0,0,0,.629.222,3.062,3.062,0,0,0,.6-.082V47a3.688,3.688,0,0,1-.971.136,1.575,1.575,0,0,1-1.278-.513,2.2,2.2,0,0,1-.431-1.456V40.581H38.31V39.6h1.347V37.813Zm6.433,2.926a3.79,3.79,0,0,0-.622-.048,1.667,1.667,0,0,0-1.688,1.06V47H43.778V39.6h1.23l.021.854a1.969,1.969,0,0,1,1.764-.991,1.292,1.292,0,0,1,.561.1ZM52.809,47a2.657,2.657,0,0,1-.178-.779,2.822,2.822,0,0,1-2.105.916,2.611,2.611,0,0,1-1.794-.619,2,2,0,0,1-.7-1.569,2.091,2.091,0,0,1,.878-1.794,4.142,4.142,0,0,1,2.471-.639h1.23v-.581a1.42,1.42,0,0,0-.4-1.056,1.593,1.593,0,0,0-1.169-.393,1.844,1.844,0,0,0-1.135.342,1.007,1.007,0,0,0-.458.827H48.181a1.745,1.745,0,0,1,.393-1.07,2.683,2.683,0,0,1,1.066-.817,3.588,3.588,0,0,1,1.48-.3,2.924,2.924,0,0,1,2,.639,2.306,2.306,0,0,1,.752,1.76v3.4a4.162,4.162,0,0,0,.26,1.62V47Zm-2.1-.964a2.223,2.223,0,0,0,1.128-.308,1.861,1.861,0,0,0,.772-.8V43.411h-.991q-2.324,0-2.324,1.36a1.151,1.151,0,0,0,.4.93A1.524,1.524,0,0,0,50.71,46.036ZM57.054,39.6l.041.93a2.7,2.7,0,0,1,2.215-1.066q2.345,0,2.365,2.646V47H60.41V42.105a1.7,1.7,0,0,0-.366-1.183,1.466,1.466,0,0,0-1.118-.383,1.825,1.825,0,0,0-1.08.328,2.228,2.228,0,0,0-.725.861V47H55.857V39.6Zm10.835,5.435a.931.931,0,0,0-.386-.8,3.718,3.718,0,0,0-1.347-.489,6.367,6.367,0,0,1-1.524-.492,2.169,2.169,0,0,1-.834-.684,1.635,1.635,0,0,1-.27-.943A1.919,1.919,0,0,1,64.3,40.1a3,3,0,0,1,1.965-.629,3.091,3.091,0,0,1,2.041.649,2.063,2.063,0,0,1,.783,1.661H67.813a1.142,1.142,0,0,0-.441-.9,1.652,1.652,0,0,0-1.111-.376,1.729,1.729,0,0,0-1.08.3.947.947,0,0,0-.39.786.767.767,0,0,0,.362.69,4.458,4.458,0,0,0,1.309.444A6.821,6.821,0,0,1,68,43.233a2.239,2.239,0,0,1,.872.708,1.74,1.74,0,0,1,.284,1.008,1.893,1.893,0,0,1-.793,1.589,3.326,3.326,0,0,1-2.058.6,3.725,3.725,0,0,1-1.572-.314,2.557,2.557,0,0,1-1.07-.878,2.117,2.117,0,0,1-.386-1.22h1.265a1.309,1.309,0,0,0,.509,1.008A1.976,1.976,0,0,0,66.3,46.1a2.039,2.039,0,0,0,1.152-.291A.893.893,0,0,0,67.889,45.038Zm9.16-1.654a4.429,4.429,0,0,1-.772,2.721,2.476,2.476,0,0,1-2.092,1.032,2.713,2.713,0,0,1-2.119-.854v3.562H70.8V39.6h1.155l.062.82a2.605,2.605,0,0,1,2.146-.957,2.522,2.522,0,0,1,2.109,1,4.477,4.477,0,0,1,.776,2.8Zm-1.265-.144a3.268,3.268,0,0,0-.533-1.976,1.718,1.718,0,0,0-1.463-.725,1.859,1.859,0,0,0-1.723,1.019v3.534A1.863,1.863,0,0,0,73.8,46.1a1.71,1.71,0,0,0,1.446-.721A3.567,3.567,0,0,0,75.784,43.24Zm2.536-.007a4.369,4.369,0,0,1,.427-1.955,3.187,3.187,0,0,1,1.189-1.34,3.238,3.238,0,0,1,1.74-.472,3.119,3.119,0,0,1,2.444,1.046,4.024,4.024,0,0,1,.933,2.782v.089a4.407,4.407,0,0,1-.414,1.938,3.14,3.14,0,0,1-1.183,1.336,3.275,3.275,0,0,1-1.767.479,3.111,3.111,0,0,1-2.437-1.046,4,4,0,0,1-.933-2.769Zm1.271.15a3.164,3.164,0,0,0,.571,1.976,1.934,1.934,0,0,0,3.059-.01,3.46,3.46,0,0,0,.567-2.116,3.159,3.159,0,0,0-.578-1.972,1.836,1.836,0,0,0-1.535-.755,1.816,1.816,0,0,0-1.511.745A3.435,3.435,0,0,0,79.592,43.384Zm10.623-2.646a3.79,3.79,0,0,0-.622-.048A1.667,1.667,0,0,0,87.9,41.75V47H86.64V39.6h1.23l.021.854a1.969,1.969,0,0,1,1.764-.991,1.292,1.292,0,0,1,.561.1Zm3.22-2.926V39.6h1.381v.978H93.435v4.593a1.027,1.027,0,0,0,.185.667.777.777,0,0,0,.629.222,3.062,3.062,0,0,0,.6-.082V47a3.688,3.688,0,0,1-.971.136,1.575,1.575,0,0,1-1.278-.513,2.2,2.2,0,0,1-.431-1.456V40.581H90.823V39.6H92.17V37.813Zm5.927,9.324a3.232,3.232,0,0,1-2.447-.988,3.666,3.666,0,0,1-.943-2.642v-.232a4.438,4.438,0,0,1,.42-1.965,3.28,3.28,0,0,1,1.176-1.354,2.956,2.956,0,0,1,1.637-.489,2.77,2.77,0,0,1,2.242.95,4.114,4.114,0,0,1,.8,2.721v.526H97.235a2.629,2.629,0,0,0,.639,1.767,2.009,2.009,0,0,0,1.555.673,2.2,2.2,0,0,0,1.135-.273,2.851,2.851,0,0,0,.813-.725l.772.6A3.106,3.106,0,0,1,99.361,47.137ZM99.2,40.506a1.687,1.687,0,0,0-1.285.557,2.708,2.708,0,0,0-.643,1.562h3.705v-.1a2.409,2.409,0,0,0-.52-1.494A1.588,1.588,0,0,0,99.2,40.506Z" transform="translate(333.047 64.036)" fill="#1a0f91"/></g></svg>