<svg xmlns="http://www.w3.org/2000/svg" width="60" height="60" viewBox="0 0 60 60"><g transform="translate(-179 -9080.5)"><circle cx="30" cy="30" r="30" transform="translate(179 9080.5)" fill="#fe7062"/><g transform="translate(193.582 9092.359)"><g transform="translate(0.018)"><g transform="translate(0)"><path d="M36.454,11.771a3.291,3.291,0,0,0-4.649,0l-3.3,3.3V6.387a3.265,3.265,0,0,0-.963-2.324l-3.1-3.1A3.266,3.266,0,0,0,22.122,0H3.305A3.291,3.291,0,0,0,.018,3.287V34.115A3.291,3.291,0,0,0,3.305,37.4H25.221a3.291,3.291,0,0,0,3.287-3.287V24.372l7.946-7.953A3.285,3.285,0,0,0,36.454,11.771ZM21.934,2.192a1.2,1.2,0,0,1,.963.321l3.1,3.1a1.2,1.2,0,0,1,.321.963H21.934Zm4.383,31.924a1.1,1.1,0,0,1-1.1,1.1H3.305a1.1,1.1,0,0,1-1.1-1.1V3.287a1.1,1.1,0,0,1,1.1-1.1H19.742V7.67a1.1,1.1,0,0,0,1.1,1.1h5.479v8.5L23.084,20.5l-1.549,1.549a1.1,1.1,0,0,0-.265.428l-1.55,4.649a1.1,1.1,0,0,0,1.386,1.386l4.649-1.55a1.1,1.1,0,0,0,.428-.265l.133-.133ZM23.859,22.823l1.55,1.55-.592.592-2.324.775.775-2.325Zm3.1,0-1.55-1.55L30.676,16l1.55,1.55ZM34.9,14.87,33.775,16l-1.55-1.55,1.13-1.131A1.1,1.1,0,1,1,34.9,14.87Z" transform="translate(-0.018)" fill="#fff"/></g></g><g transform="translate(4.401 10.958)"><path d="M76.455,150H61.114a1.1,1.1,0,1,0,0,2.192H76.455a1.1,1.1,0,1,0,0-2.192Z" transform="translate(-60.018 -150)" fill="#fff"/></g><g transform="translate(4.401 15.341)"><path d="M72.072,210H61.114a1.1,1.1,0,1,0,0,2.192H72.072a1.1,1.1,0,0,0,0-2.192Z" transform="translate(-60.018 -210)" fill="#fff"/></g><g transform="translate(4.401 19.724)"><path d="M72.072,270H61.114a1.1,1.1,0,1,0,0,2.192H72.072a1.1,1.1,0,0,0,0-2.192Z" transform="translate(-60.018 -270)" fill="#fff"/></g><g transform="translate(4.401 24.107)"><path d="M72.072,330H61.114a1.1,1.1,0,1,0,0,2.192H72.072a1.1,1.1,0,1,0,0-2.192Z" transform="translate(-60.018 -330)" fill="#fff"/></g><g transform="translate(13.167 30.828)"><path d="M187.688,422h-6.575a1.1,1.1,0,0,0,0,2.192h6.575a1.1,1.1,0,1,0,0-2.192Z" transform="translate(-180.018 -422)" fill="#fff"/></g></g></g></svg>