<svg xmlns="http://www.w3.org/2000/svg" xmlns:xlink="http://www.w3.org/1999/xlink" width="408.151" height="408.075" viewBox="0 0 408.151 408.075"><defs><linearGradient id="a" y1="0.5" x2="1" y2="0.5" gradientUnits="objectBoundingBox"><stop offset="0" stop-color="#073e98"/><stop offset="0.25" stop-color="#0e56a2"/><stop offset="0.76" stop-color="#2193bb"/><stop offset="1" stop-color="#2ab2c8"/></linearGradient><linearGradient id="b" x1="0" y1="0.5" x2="1" y2="0.5" xlink:href="#a"/><linearGradient id="c" x1="0" y1="0.5" x2="1" y2="0.5" xlink:href="#a"/><linearGradient id="d" x1="1.944" y1="-0.588" x2="1.248" y2="-0.064" gradientUnits="objectBoundingBox"><stop offset="0" stop-color="#e5908c"/><stop offset="1" stop-color="#df6f63"/></linearGradient><linearGradient id="e" x1="0.773" y1="0.294" x2="2.554" y2="-1.061" gradientUnits="objectBoundingBox"><stop offset="0" stop-color="#c24940"/><stop offset="1" stop-color="#cc605b"/></linearGradient><linearGradient id="f" x1="0.651" y1="-12.567" x2="0.475" y2="2.965" xlink:href="#e"/><linearGradient id="g" x1="1.291" y1="-0.672" x2="3.677" y2="-4.207" gradientUnits="objectBoundingBox"><stop offset="0" stop-color="#ecb9b8"/><stop offset="1" stop-color="#e5908c"/></linearGradient><linearGradient id="h" x1="0.988" y1="-0.223" x2="3.374" y2="-3.757" xlink:href="#g"/><linearGradient id="i" x1="0.023" y1="1.139" x2="0.858" y2="-0.027" xlink:href="#d"/><linearGradient id="j" x1="0.5" y1="-2.711" x2="0.5" y2="-1.247" xlink:href="#e"/><linearGradient id="k" x1="0.509" y1="-3.152" x2="0.502" y2="-0.769" xlink:href="#g"/><linearGradient id="l" x1="13.449" y1="-3.322" x2="9.6" y2="-2.186" xlink:href="#d"/><linearGradient id="m" x1="11.788" y1="-2.833" x2="7.939" y2="-1.696" xlink:href="#d"/><linearGradient id="n" x1="10.131" y1="-2.343" x2="6.282" y2="-1.207" xlink:href="#d"/><linearGradient id="o" x1="8.475" y1="-1.854" x2="4.626" y2="-0.718" xlink:href="#d"/><linearGradient id="p" x1="6.818" y1="-1.365" x2="2.967" y2="-0.228" xlink:href="#d"/><linearGradient id="q" x1="5.158" y1="-0.876" x2="1.309" y2="0.261" xlink:href="#d"/><linearGradient id="r" x1="0.573" y1="-0.643" x2="0.806" y2="-4.278" xlink:href="#g"/><linearGradient id="s" x1="0.678" y1="-3.277" x2="0.475" y2="1.025" xlink:href="#e"/><linearGradient id="t" x1="0.55" y1="-0.273" x2="0.783" y2="-3.908" xlink:href="#g"/><linearGradient id="u" x1="0.661" y1="-2.915" x2="0.458" y2="1.387" xlink:href="#e"/><linearGradient id="v" x1="0.526" y1="0.097" x2="0.759" y2="-3.537" xlink:href="#g"/><linearGradient id="w" x1="0.644" y1="-2.554" x2="0.441" y2="1.749" xlink:href="#e"/><linearGradient id="x" x1="1.222" y1="-1.61" x2="0.725" y2="-0.157" xlink:href="#g"/><linearGradient id="y" x1="0.445" y1="2.317" x2="0.557" y2="-1.317" xlink:href="#e"/><linearGradient id="z" x1="1.234" y1="-1.309" x2="0.971" y2="-0.615" gradientUnits="objectBoundingBox"><stop offset="0" stop-color="#0f005b"/><stop offset="1" stop-color="#1e168c"/></linearGradient><linearGradient id="aa" x1="0.653" y1="0.156" x2="1.547" y2="-1.669" xlink:href="#g"/><linearGradient id="ab" x1="0" y1="0.5" x2="1" y2="0.5" xlink:href="#e"/><linearGradient id="ac" y1="0.5" x2="0.997" y2="0.5" gradientUnits="objectBoundingBox"><stop offset="0" stop-color="#dbe1fc"/><stop offset="1" stop-color="#e9edfb"/></linearGradient><linearGradient id="ae" x1="0" y1="0.5" x2="0.997" y2="0.5" xlink:href="#ac"/></defs><g transform="translate(5951.151 9012.007)"><path d="M306.828,105.876a163.663,163.663,0,0,1,39.731-17.83,186.221,186.221,0,0,0-2.406-46.656,204.116,204.116,0,0,1,99.661,145.549,192.187,192.187,0,0,1-34.91,31.1,168.52,168.52,0,0,0-38.8-19.815,129.659,129.659,0,0,0-63.3-92.4Z" transform="translate(-5989.175 -9026.021)" fill="#57dbd8"/><path d="M373.163,234.5a170.156,170.156,0,0,1,35.331,25.469A193.642,193.642,0,0,0,447.7,234.5a202.872,202.872,0,0,1-44.214,126.786,200.52,200.52,0,0,1-32.019,32.257,186.441,186.441,0,0,1-44.424-14.637,163.945,163.945,0,0,0-2.3-43.473,126.139,126.139,0,0,0,20.355-20.5A128.369,128.369,0,0,0,373.163,234.5Z" transform="translate(-5990.703 -9042.469)" fill="url(#a)"/><path d="M293.043,357.12a161.507,161.507,0,0,1-.677,21.462q-.576,5.37-1.464,10.886c-.585,3.714-1.372,7.255-2.214,10.978,3.092,2.086,6.358,4.254,9.624,6.138s6.687,3.8,10.182,5.617a198.687,198.687,0,0,0,21.874,9.459,201.381,201.381,0,0,1-86.46,26.731,207.748,207.748,0,0,1-45.4-1.555,200.18,200.18,0,0,1-44.049-11.646c-1.29-3.879-2.525-7.6-3.54-11.509s-1.958-7.7-2.744-11.481A185.235,185.235,0,0,1,144.96,389.4a170.157,170.157,0,0,0,19.349-10.8q4.574-3.028,8.874-6.212c2.836-2.077,5.654-4.428,8.3-6.687a128.808,128.808,0,0,0,56.829,8.343A127,127,0,0,0,293.08,357.12Z" transform="translate(-5975.39 -9052.913)" fill="#57dbd8"/><path d="M394.251,317.757a6.084,6.084,0,1,0-6.559,0,7.776,7.776,0,0,0-7.072,7.749v6.4l.439.137a35.6,35.6,0,0,0,10.575,1.7,21.632,21.632,0,0,0,9.24-1.738l.4-.2h.046v-6.3a7.794,7.794,0,0,0-7.072-7.749Z" transform="translate(-5995.462 -9048.605)" fill="#fff"/><path d="M152.586,346.677a163.979,163.979,0,0,1-39.731,17.83,185.784,185.784,0,0,0,2.4,46.656A204.144,204.144,0,0,1,15.6,265.614a192.187,192.187,0,0,1,34.91-31.1,168.465,168.465,0,0,0,38.77,19.824,129.631,129.631,0,0,0,63.306,92.352Z" transform="translate(-5964.372 -9042.47)" fill="url(#b)"/><path d="M87.558,219.693a169.966,169.966,0,0,1-35.34-25.469A193.844,193.844,0,0,0,13,219.693,202.872,202.872,0,0,1,57.232,92.907,200.467,200.467,0,0,1,89.251,60.65a186.169,186.169,0,0,1,44.424,14.637,164.322,164.322,0,0,0,2.305,43.473,126.567,126.567,0,0,0-20.391,20.529,128.3,128.3,0,0,0-28.03,80.4Z" transform="translate(-5964.15 -9027.662)" fill="#57dbd8"/><path d="M161.864,103.327a161.458,161.458,0,0,1,.677-21.462Q163.117,76.5,164,70.979c.576-3.723,1.363-7.255,2.2-10.978-3.092-2.086-6.349-4.254-9.624-6.138s-6.678-3.8-10.182-5.617a197.176,197.176,0,0,0-21.874-9.459A201.472,201.472,0,0,1,211,12.055a207.749,207.749,0,0,1,45.4,1.555,200.183,200.183,0,0,1,44.049,11.646c1.29,3.879,2.516,7.6,3.54,11.509s1.949,7.7,2.744,11.481a183.5,183.5,0,0,1,3.211,22.807,169.981,169.981,0,0,0-19.339,10.795q-4.574,3.028-8.883,6.212c-2.827,2.077-5.645,4.428-8.288,6.678a128.936,128.936,0,0,0-56.82-8.352,131.387,131.387,0,0,0-28.36,5.333,129.906,129.906,0,0,0-26.393,11.609Z" transform="translate(-5973.65 -9023.473)" fill="url(#c)"/><path d="M252.212,64.293l-5.864-5.873A11.325,11.325,0,0,1,243,61.814l5.864,5.864a2.4,2.4,0,1,0,3.394-3.385Z" transform="translate(-5983.74 -9027.472)" fill="#fff"/><path d="M245.063,50.946a9.6,9.6,0,1,0-9.587,9.587A9.6,9.6,0,0,0,245.063,50.946Zm-9.587,7.191a7.2,7.2,0,1,1,7.191-7.191,7.2,7.2,0,0,1-7.191,7.191Z" transform="translate(-5982.281 -9026.017)" fill="#fff"/><path d="M230.25,51.319h1.6a4,4,0,0,1,4-4v-1.6A5.608,5.608,0,0,0,230.25,51.319Z" transform="translate(-5982.654 -9026.39)" fill="#fff"/><path d="M92.8,322.27l-7.5,5.443,2.863,8.865a1.153,1.153,0,0,1-1.1,1.509,1.2,1.2,0,0,1-.686-.22l-7.492-5.443-7.529,5.4a1.171,1.171,0,0,1-1.363,0,1.153,1.153,0,0,1-.421-1.29l2.863-8.819-7.483-5.443a1.153,1.153,0,0,1,.677-2.095h9.295l2.836-8.81a1.153,1.153,0,0,1,2.2,0l2.863,8.81h9.295a1.162,1.162,0,0,1,.686,2.095Z" transform="translate(-5968.534 -9048.947)" fill="#fff"/><path d="M3.054-10.664l3.486,8.7,3.486-8.7h1.824V0H10.444V-4.153l.132-4.482L7.075,0H6L2.5-8.613l.139,4.46V0H1.238V-10.664ZM20.361-4.929H15.74V-1.15h5.369V0H14.333V-10.664h6.7v1.15h-5.3v3.435h4.622Zm6.965-5.735H28.74v7.551a3.128,3.128,0,0,1-.919,2.4,3.431,3.431,0,0,1-2.45.864A3.527,3.527,0,0,1,22.9-.667a2.936,2.936,0,0,1-.886-2.278h1.406a1.955,1.955,0,0,0,.5,1.428A1.944,1.944,0,0,0,25.371-1a1.886,1.886,0,0,0,1.41-.549,2.128,2.128,0,0,0,.546-1.538ZM39.338-4.988a6.6,6.6,0,0,1-.527,2.736A3.994,3.994,0,0,1,37.317-.469a4.111,4.111,0,0,1-2.256.615,4.076,4.076,0,0,1-2.234-.619,4.09,4.09,0,0,1-1.512-1.765,6.33,6.33,0,0,1-.553-2.655v-.769A6.518,6.518,0,0,1,31.3-8.379a4.075,4.075,0,0,1,1.512-1.805,4.058,4.058,0,0,1,2.238-.626,4.134,4.134,0,0,1,2.26.619A3.987,3.987,0,0,1,38.811-8.4a6.629,6.629,0,0,1,.527,2.736Zm-1.4-.688a4.781,4.781,0,0,0-.762-2.911A2.512,2.512,0,0,0,35.046-9.6a2.485,2.485,0,0,0-2.1,1.014,4.683,4.683,0,0,0-.787,2.816v.784A4.788,4.788,0,0,0,32.933-2.1a2.5,2.5,0,0,0,2.128,1.051A2.486,2.486,0,0,0,37.17-2.04a4.761,4.761,0,0,0,.769-2.845Zm7.419,1.362h-2.5V0H41.44V-10.664h3.53a4.178,4.178,0,0,1,2.772.82,2.951,2.951,0,0,1,.97,2.388,2.871,2.871,0,0,1-.538,1.736,3.214,3.214,0,0,1-1.5,1.106l2.5,4.526V0H47.673Zm-2.5-1.15h2.161a2.437,2.437,0,0,0,1.666-.543A1.836,1.836,0,0,0,47.3-7.46a1.933,1.933,0,0,0-.59-1.519,2.5,2.5,0,0,0-1.7-.536H42.854ZM56.572-2.791H52.1L51.1,0h-1.45l4.072-10.664h1.23L59.033,0H57.59ZM52.529-3.94h3.625L54.338-8.928Z" transform="translate(-5630.86 -8886.81)" fill="#1a0f91"/><path d="M5.149-4.314h-2.5V0H1.23V-10.664h3.53a4.178,4.178,0,0,1,2.772.82A2.951,2.951,0,0,1,8.5-7.456,2.871,2.871,0,0,1,7.965-5.72a3.214,3.214,0,0,1-1.5,1.106l2.5,4.526V0H7.463Zm-2.5-1.15H4.8a2.437,2.437,0,0,0,1.666-.543A1.836,1.836,0,0,0,7.09-7.46,1.933,1.933,0,0,0,6.5-8.979a2.5,2.5,0,0,0-1.7-.536H2.644ZM16.5-4.929H11.88V-1.15h5.369V0H10.474V-10.664h6.7v1.15h-5.3v3.435H16.5Zm5.64.176a6.612,6.612,0,0,1-2.633-1.278A2.442,2.442,0,0,1,18.684-7.9a2.58,2.58,0,0,1,1.007-2.084,4,4,0,0,1,2.618-.824,4.369,4.369,0,0,1,1.959.425A3.222,3.222,0,0,1,25.6-9.214a3,3,0,0,1,.472,1.633H24.661a1.95,1.95,0,0,0-.615-1.525,2.5,2.5,0,0,0-1.736-.555,2.561,2.561,0,0,0-1.622.459A1.53,1.53,0,0,0,20.1-7.929a1.376,1.376,0,0,0,.553,1.1A5.424,5.424,0,0,0,22.54-6a8.734,8.734,0,0,1,2.08.825,3.157,3.157,0,0,1,1.113,1.051A2.683,2.683,0,0,1,26.1-2.71,2.492,2.492,0,0,1,25.085-.634a4.31,4.31,0,0,1-2.7.78,5.013,5.013,0,0,1-2.051-.421,3.451,3.451,0,0,1-1.469-1.154,2.815,2.815,0,0,1-.516-1.663h1.414a1.837,1.837,0,0,0,.714,1.527A3.007,3.007,0,0,0,22.383-1a2.764,2.764,0,0,0,1.707-.454A1.475,1.475,0,0,0,24.683-2.7a1.448,1.448,0,0,0-.549-1.212A6.333,6.333,0,0,0,22.141-4.753Zm13.264-5.911v7.251a3.4,3.4,0,0,1-.948,2.468A3.822,3.822,0,0,1,31.9.132l-.374.015A3.992,3.992,0,0,1,28.74-.8a3.379,3.379,0,0,1-1.055-2.6v-7.266h1.392v7.222a2.439,2.439,0,0,0,.637,1.8A2.449,2.449,0,0,0,31.531-1a2.465,2.465,0,0,0,1.827-.637,2.435,2.435,0,0,0,.634-1.794v-7.229ZM39.038-1.15h5.054V0H37.625V-10.664h1.414ZM49.55-9.514H46.122V0h-1.4V-9.514H41.3v-1.15H49.55Zm6.142,6.724H51.224L50.221,0h-1.45l4.072-10.664h1.23L58.153,0H56.71ZM51.649-3.94h3.625L53.458-8.928ZM59.588,0V-10.664H62.6a4.846,4.846,0,0,1,2.461.615A4.161,4.161,0,0,1,66.711-8.3a5.7,5.7,0,0,1,.59,2.607v.681a5.718,5.718,0,0,1-.582,2.644A4.1,4.1,0,0,1,65.056-.623,5.155,5.155,0,0,1,62.54,0Zm1.406-9.514V-1.15h1.479A3.219,3.219,0,0,0,65-2.162a4.18,4.18,0,0,0,.9-2.881v-.623a4.246,4.246,0,0,0-.853-2.826,3.036,3.036,0,0,0-2.421-1.023ZM77.628-4.988A6.6,6.6,0,0,1,77.1-2.252,3.994,3.994,0,0,1,75.606-.469a4.111,4.111,0,0,1-2.256.615,4.076,4.076,0,0,1-2.234-.619A4.09,4.09,0,0,1,69.6-2.238a6.33,6.33,0,0,1-.553-2.655v-.769a6.518,6.518,0,0,1,.535-2.717A4.075,4.075,0,0,1,71.1-10.184a4.058,4.058,0,0,1,2.238-.626,4.134,4.134,0,0,1,2.26.619A3.987,3.987,0,0,1,77.1-8.4a6.629,6.629,0,0,1,.527,2.736Zm-1.4-.688a4.781,4.781,0,0,0-.762-2.911A2.512,2.512,0,0,0,73.336-9.6a2.485,2.485,0,0,0-2.1,1.014,4.683,4.683,0,0,0-.787,2.816v.784A4.788,4.788,0,0,0,71.223-2.1a2.5,2.5,0,0,0,2.128,1.051A2.486,2.486,0,0,0,75.46-2.04a4.761,4.761,0,0,0,.769-2.845Zm6.65.923a6.612,6.612,0,0,1-2.633-1.278A2.442,2.442,0,0,1,79.422-7.9a2.58,2.58,0,0,1,1.007-2.084,4,4,0,0,1,2.618-.824,4.369,4.369,0,0,1,1.959.425A3.222,3.222,0,0,1,86.34-9.214a3,3,0,0,1,.472,1.633H85.4a1.95,1.95,0,0,0-.615-1.525,2.5,2.5,0,0,0-1.736-.555,2.561,2.561,0,0,0-1.622.459,1.53,1.53,0,0,0-.582,1.273,1.376,1.376,0,0,0,.553,1.1A5.424,5.424,0,0,0,83.279-6a8.734,8.734,0,0,1,2.08.825,3.157,3.157,0,0,1,1.113,1.051,2.683,2.683,0,0,1,.363,1.414A2.492,2.492,0,0,1,85.824-.634a4.31,4.31,0,0,1-2.7.78A5.013,5.013,0,0,1,81.07-.275,3.451,3.451,0,0,1,79.6-1.428a2.815,2.815,0,0,1-.516-1.663H80.5a1.837,1.837,0,0,0,.714,1.527A3.007,3.007,0,0,0,83.121-1a2.764,2.764,0,0,0,1.707-.454A1.475,1.475,0,0,0,85.421-2.7a1.448,1.448,0,0,0-.549-1.212A6.333,6.333,0,0,0,82.879-4.753Z" transform="translate(-5797.286 -8637.803)" fill="#1a0f91"/><path d="M7.126-2.791H2.659L1.655,0H.205L4.277-10.664h1.23L9.587,0H8.145ZM3.083-3.94H6.709L4.893-8.928ZM19.219,0H17.805L12.437-8.218V0H11.023V-10.664h1.414L17.82-2.41v-8.254h1.4Zm8.536-2.791H23.287L22.284,0h-1.45l4.072-10.664h1.23L30.216,0H28.773ZM23.712-3.94h3.625L25.521-8.928Zm2.5-9.58h1.641l-1.963,2.153-1.091,0ZM33.065-1.15h5.054V0H31.651V-10.664h1.414ZM41.232,0H39.825V-10.664h1.406Zm5.713-4.753a6.612,6.612,0,0,1-2.633-1.278A2.442,2.442,0,0,1,43.487-7.9a2.58,2.58,0,0,1,1.007-2.084,4,4,0,0,1,2.618-.824,4.369,4.369,0,0,1,1.959.425,3.222,3.222,0,0,1,1.333,1.172,3,3,0,0,1,.472,1.633H49.464a1.95,1.95,0,0,0-.615-1.525,2.5,2.5,0,0,0-1.736-.555,2.561,2.561,0,0,0-1.622.459,1.53,1.53,0,0,0-.582,1.273,1.376,1.376,0,0,0,.553,1.1A5.424,5.424,0,0,0,47.344-6a8.734,8.734,0,0,1,2.08.825,3.157,3.157,0,0,1,1.113,1.051A2.683,2.683,0,0,1,50.9-2.71,2.492,2.492,0,0,1,49.889-.634a4.31,4.31,0,0,1-2.7.78,5.013,5.013,0,0,1-2.051-.421,3.451,3.451,0,0,1-1.469-1.154,2.815,2.815,0,0,1-.516-1.663h1.414a1.837,1.837,0,0,0,.714,1.527A3.007,3.007,0,0,0,47.186-1a2.764,2.764,0,0,0,1.707-.454A1.475,1.475,0,0,0,49.486-2.7a1.448,1.448,0,0,0-.549-1.212A6.333,6.333,0,0,0,46.944-4.753ZM54.21,0H52.8V-10.664H54.21Zm5.713-4.753A6.612,6.612,0,0,1,57.29-6.031,2.442,2.442,0,0,1,56.466-7.9a2.58,2.58,0,0,1,1.007-2.084,4,4,0,0,1,2.618-.824,4.369,4.369,0,0,1,1.959.425,3.222,3.222,0,0,1,1.333,1.172,3,3,0,0,1,.472,1.633H62.442a1.95,1.95,0,0,0-.615-1.525,2.5,2.5,0,0,0-1.736-.555,2.561,2.561,0,0,0-1.622.459,1.53,1.53,0,0,0-.582,1.273,1.376,1.376,0,0,0,.553,1.1A5.424,5.424,0,0,0,60.322-6a8.734,8.734,0,0,1,2.08.825,3.157,3.157,0,0,1,1.113,1.051,2.683,2.683,0,0,1,.363,1.414A2.492,2.492,0,0,1,62.867-.634a4.31,4.31,0,0,1-2.7.78,5.013,5.013,0,0,1-2.051-.421,3.451,3.451,0,0,1-1.469-1.154,2.815,2.815,0,0,1-.516-1.663h1.414a1.837,1.837,0,0,0,.714,1.527A3.007,3.007,0,0,0,60.165-1a2.764,2.764,0,0,0,1.707-.454A1.475,1.475,0,0,0,62.464-2.7a1.448,1.448,0,0,0-.549-1.212A6.333,6.333,0,0,0,59.923-4.753Z" transform="translate(-5925.792 -8886.81)" fill="#1a0f91"/><path d="M167.709,274.56H84.13L91.549,356.7a4.2,4.2,0,0,0,4.19,3.824h71.969Z" transform="translate(-5970.208 -9048.626)" fill="url(#d)"/><path d="M140.7,364.251H107.273l-3.815-41.917a3.714,3.714,0,0,1,3.659-4.044h32.019a3.7,3.7,0,0,1,3.705,3.9Z" transform="translate(-5971.854 -9052.351)" fill="url(#e)"/><path d="M161.97,278.408H82.9a3.1,3.1,0,0,1-2.891-4.208l.6-1.564a3.092,3.092,0,0,1,2.891-1.985H161.97Z" transform="translate(-5969.84 -9048.293)" fill="url(#f)"/><path d="M0,0H8.956V13.732H0Z" transform="translate(-5858.616 -8762.127)" fill="url(#g)"/><path d="M0,0H8.956V13.732H0Z" transform="translate(-5841.901 -8762.127)" fill="url(#h)"/><path d="M0,0H8.956V13.732H0Z" transform="translate(-5875.33 -8762.127)" fill="#fff" opacity="0.76"/><path d="M144.82,175.37l9.99,176.708H320.933L328.1,175.37Z" transform="translate(-5975.378 -9040.178)" fill="url(#i)"/><path d="M328.349,178.569h-184.8a2.04,2.04,0,0,1-1.958-1.445l-1.134-3.659a2.049,2.049,0,0,1,1.958-2.644h186.5a2.04,2.04,0,0,1,2.022,2.351l-.567,3.659a2.049,2.049,0,0,1-2.022,1.738Z" transform="translate(-5974.999 -9039.79)" fill="url(#j)"/><path d="M326.571,216.105l1.015-25.075H145.71l1.418,25.075Z" transform="translate(-5975.454 -9041.511)" fill="url(#k)"/><path d="M0,0H4.181V25.075H0Z" transform="translate(-5809.663 -8850.472)" fill="url(#l)"/><path d="M0,0H4.181V25.075H0Z" transform="translate(-5781.001 -8850.472)" fill="url(#m)"/><path d="M0,0H4.181V25.075H0Z" transform="translate(-5752.349 -8850.472)" fill="url(#n)"/><path d="M0,0H4.181V25.075H0Z" transform="translate(-5723.697 -8850.472)" fill="url(#o)"/><path d="M0,0H4.181V25.075H0Z" transform="translate(-5695.044 -8850.472)" fill="url(#p)"/><path d="M0,0H4.181V25.075H0Z" transform="translate(-5666.383 -8850.472)" fill="url(#q)"/><path d="M0,0H43.015V18.507H0Z" transform="translate(-5807.87 -8815.251)" fill="url(#r)"/><path d="M0,0H39.832V15.525H0Z" transform="translate(-5806.278 -8813.467)" fill="url(#s)"/><path d="M0,0H43.015V18.507H0Z" transform="translate(-5760.875 -8815.251)" fill="url(#t)"/><path d="M0,0H39.832V15.525H0Z" transform="translate(-5759.284 -8813.467)" fill="url(#u)"/><path d="M0,0H43.015V18.507H0Z" transform="translate(-5713.881 -8815.251)" fill="url(#v)"/><path d="M0,0H39.832V15.525H0Z" transform="translate(-5712.28 -8813.467)" fill="url(#w)"/><path d="M0,0H81.191V69.847H0Z" transform="translate(-5798.914 -8753.766)" fill="url(#x)"/><path d="M172.227,294.14h14.921v72.271h-4.894a10.063,10.063,0,0,1-10.063-10.063V294.14Z" transform="translate(-5977.709 -9050.293)" fill="url(#y)"/><path d="M210.631,320.24h16.284A20.684,20.684,0,0,1,247.6,340.924V368.6H195.07V335.8a15.552,15.552,0,0,1,15.561-15.561Z" transform="translate(-5979.658 -9052.517)" fill="url(#z)"/><path d="M165.319,262.462l2.141,36.383h83.56v64.477h54.441a5.489,5.489,0,0,0,5.489-5.251l3.806-93.989a3.925,3.925,0,0,0-3.879-4.089L169.29,258.3a3.934,3.934,0,0,0-3.97,4.162Z" transform="translate(-5977.123 -9047.24)" fill="url(#aa)"/><path d="M166.824,288.292H259.46V274.56H166.01Z" transform="translate(-5977.183 -9048.626)" fill="url(#ab)"/><path d="M0,0H3.586V13.732H0Z" transform="translate(-5796.526 -8774.065)" fill="url(#ac)"/><path d="M0,0H3.586V13.732H0Z" transform="translate(-5780.407 -8774.065)" fill="url(#ac)"/><path d="M0,0H3.586V13.732H0Z" transform="translate(-5764.288 -8774.065)" fill="url(#ae)"/><path d="M0,0H3.586V13.732H0Z" transform="translate(-5748.168 -8774.065)" fill="url(#ac)"/><path d="M0,0H3.586V13.732H0Z" transform="translate(-5732.049 -8774.065)" fill="url(#ac)"/><path d="M123.483,0A123.483,123.483,0,1,1,0,123.483,123.483,123.483,0,0,1,123.483,0Z" transform="translate(-5870.261 -8933.62)" fill="none"/></g></svg>