<?xml version="1.0" encoding="utf-8"?>
<!-- Generator: Adobe Illustrator 25.2.3, SVG Export Plug-In . SVG Version: 6.00 Build 0)  -->
<svg version="1.1" id="Capa_1" xmlns="http://www.w3.org/2000/svg" xmlns:xlink="http://www.w3.org/1999/xlink" x="0px" y="0px"
	 viewBox="0 0 603 604" style="enable-background:new 0 0 603 604;" xml:space="preserve">
<style type="text/css">
	.st0{fill:url(#SVGID_1_);}
	.st1{fill:url(#SVGID_2_);}
	.st2{fill:url(#SVGID_3_);}
	.st3{fill:url(#SVGID_4_);}
	.st4{fill:url(#SVGID_5_);}
	.st5{fill:url(#SVGID_6_);}
	.st6{fill:url(#SVGID_7_);}
	.st7{fill:url(#SVGID_8_);}
	.st8{fill:url(#SVGID_9_);}
	.st9{fill:url(#SVGID_10_);}
	.st10{fill:url(#SVGID_11_);}
	.st11{fill:url(#SVGID_12_);}
	.st12{fill:url(#SVGID_13_);}
	.st13{fill:url(#SVGID_14_);}
	.st14{fill:#FFFFFF;}
	.st15{fill:url(#SVGID_15_);}
	.st16{fill:#EDEEF0;}
	.st17{fill:#87868A;}
</style>
<g transform="translate(8007.485 10407)">
	
		<radialGradient id="SVGID_1_" cx="-24034.5137" cy="-9709.7275" r="1.577" gradientTransform="matrix(183.4791 0 0 -183.5482 4402117 -1792572.25)" gradientUnits="userSpaceOnUse">
		<stop  offset="4.000000e-02" style="stop-color:#7D97F4"/>
		<stop  offset="1" style="stop-color:#EEF3FF"/>
	</radialGradient>
	<path class="st0" d="M-7492.7-10318.6l-95.3,95.3c-31.2-31.3-73.6-48.9-117.8-48.8v-134.7
		C-7625.8-10407-7549.1-10375.2-7492.7-10318.6L-7492.7-10318.6z"/>
	
		<radialGradient id="SVGID_2_" cx="-24034.4336" cy="-9709.3574" r="1.224" gradientTransform="matrix(215.2008 -32.8718 -32.8779 -215.2994 4845439.5 -2890786.75)" gradientUnits="userSpaceOnUse">
		<stop  offset="4.000000e-02" style="stop-color:#E8B4B1"/>
		<stop  offset="0.25" style="stop-color:#E8B8B6"/>
		<stop  offset="0.49" style="stop-color:#E9C3C3"/>
		<stop  offset="0.74" style="stop-color:#EBD7DA"/>
		<stop  offset="1" style="stop-color:#EDF1F9"/>
	</radialGradient>
	<path class="st1" d="M-7527.3-10348.3l-79.9,108.6c35.6,26.1,59.4,65.4,66,109.1l133.2-20.3
		C-7419.8-10229.9-7462.8-10301-7527.3-10348.3z"/>
	
		<radialGradient id="SVGID_3_" cx="-24033.293" cy="-9709.0049" r="1.158" gradientTransform="matrix(205.7068 103.0844 103.0822 -205.7085 5937480.5 470266.5)" gradientUnits="userSpaceOnUse">
		<stop  offset="4.000000e-02" style="stop-color:#DF6F63"/>
		<stop  offset="0.24" style="stop-color:#E07368"/>
		<stop  offset="0.47" style="stop-color:#E17F75"/>
		<stop  offset="0.71" style="stop-color:#E4938C"/>
		<stop  offset="0.96" style="stop-color:#E7AFAB"/>
		<stop  offset="1" style="stop-color:#E8B4B1"/>
	</radialGradient>
	<path class="st2" d="M-7420-10202.2l-127.9,42.6c14,41.9,10.7,87.7-9.1,127.2l120.5,60.4
		C-7400.6-10043.5-7394.7-10126.4-7420-10202.2z"/>
	
		<radialGradient id="SVGID_4_" cx="-24033.2988" cy="-9709.2061" r="1.101" gradientTransform="matrix(211.4879 52.9835 53.1304 -211.4978 5591201 -790123.4375)" gradientUnits="userSpaceOnUse">
		<stop  offset="0" style="stop-color:#388E87"/>
		<stop  offset="0.53" style="stop-color:#63B4AF"/>
		<stop  offset="1" style="stop-color:#8CD9D6"/>
	</radialGradient>
	<path class="st3" d="M-7551.2-9846.7l-69.2-115.6c37.9-22.7,65.3-59.5,76-102.4l130.7,32.8
		C-7433-9954.3-7482.5-9887.7-7551.2-9846.7z"/>
	
		<radialGradient id="SVGID_5_" cx="-24033.207" cy="-9709.6992" r="1.738" gradientTransform="matrix(175.1 12.463 12.4759 -175.0092 4321848 -1409715.375)" gradientUnits="userSpaceOnUse">
		<stop  offset="0" style="stop-color:#1E168C"/>
		<stop  offset="1" style="stop-color:#6864B5"/>
	</radialGradient>
	<path class="st4" d="M-7509.8-9876.7l-88.3-101.9c-33.4,29-76.9,43.5-121,40.3l-9.6,134.5
		C-7648.9-9798-7570.2-9824.2-7509.8-9876.7L-7509.8-9876.7z"/>
	
		<radialGradient id="SVGID_6_" cx="-23737.4551" cy="-9657" r="178.7568" gradientTransform="matrix(1 0 0 1 16014.9697 -186)" gradientUnits="userSpaceOnUse">
		<stop  offset="4.000000e-02" style="stop-color:#7D97F4"/>
		<stop  offset="1" style="stop-color:#EEF3FF"/>
	</radialGradient>
	<path class="st5" d="M-7919.3-9891.4l95.3-95.3c31.2,31.3,73.6,48.9,117.8,48.8v134.7C-7786.2-9803.1-7862.9-9834.8-7919.3-9891.4z
		"/>
	
		<linearGradient id="SVGID_7_" gradientUnits="userSpaceOnUse" x1="-24054.4512" y1="-9710.4795" x2="-24053.0488" y2="-9710.4834" gradientTransform="matrix(33.492 0 0 -136.975 797210.25 -1339972.5)">
		<stop  offset="0" style="stop-color:#727176;stop-opacity:0.702"/>
		<stop  offset="0.19" style="stop-color:#7D7C81;stop-opacity:0.651"/>
		<stop  offset="0.45" style="stop-color:#9C9B9E;stop-opacity:0.49"/>
		<stop  offset="0.76" style="stop-color:#CECDCF;stop-opacity:0.239"/>
		<stop  offset="1" style="stop-color:#FFFFFF;stop-opacity:0"/>
	</linearGradient>
	<path class="st6" d="M-7739.7-9805c11.1,1.2,22.3,1.9,33.5,1.9v-134.7c-9.1,0-18.2-0.7-27.3-2.2L-7739.7-9805z"/>
	
		<radialGradient id="SVGID_8_" cx="-23926.4551" cy="-9755" r="139.2839" gradientTransform="matrix(1 0 0 1 16014.9697 -186)" gradientUnits="userSpaceOnUse">
		<stop  offset="4.000000e-02" style="stop-color:#E8B4B1"/>
		<stop  offset="0.25" style="stop-color:#E8B8B6"/>
		<stop  offset="0.49" style="stop-color:#E9C3C3"/>
		<stop  offset="0.74" style="stop-color:#EBD7DA"/>
		<stop  offset="1" style="stop-color:#EDF1F9"/>
	</radialGradient>
	<path class="st7" d="M-7884.7-9861.8l79.8-108.6c-35.6-26.1-59.4-65.4-66-109.1l-133.2,20.3
		C-7992.2-9980.1-7949.2-9909.1-7884.7-9861.8L-7884.7-9861.8z"/>
	
		<radialGradient id="SVGID_9_" cx="-24034.6152" cy="-9707.9951" r="1.158" gradientTransform="matrix(-205.719 -103.0848 -103.0882 205.7094 -5954656.5 -490605.625)" gradientUnits="userSpaceOnUse">
		<stop  offset="4.000000e-02" style="stop-color:#DF6F63"/>
		<stop  offset="0.24" style="stop-color:#E07368"/>
		<stop  offset="0.47" style="stop-color:#E17F75"/>
		<stop  offset="0.71" style="stop-color:#E4938C"/>
		<stop  offset="0.96" style="stop-color:#E7AFAB"/>
		<stop  offset="1" style="stop-color:#E8B4B1"/>
	</radialGradient>
	<path class="st8" d="M-7992-10007.8l127.9-42.5c-14-41.9-10.7-87.7,9.1-127.2l-120.5-60.4
		C-8011.4-10166.5-8017.3-10083.7-7992-10007.8L-7992-10007.8z"/>
	
		<radialGradient id="SVGID_10_" cx="-24034.6094" cy="-9707.7939" r="1.102" gradientTransform="matrix(-211.4879 -52.9759 -53.1304 211.4678 -5607708 769478)" gradientUnits="userSpaceOnUse">
		<stop  offset="0" style="stop-color:#388E87"/>
		<stop  offset="0.53" style="stop-color:#63B4AF"/>
		<stop  offset="1" style="stop-color:#8CD9D6"/>
	</radialGradient>
	<path class="st9" d="M-7860.8-10363.4l69.2,115.6c-37.9,22.7-65.3,59.5-76,102.4l-130.7-32.8
		C-7979-10255.7-7929.5-10322.4-7860.8-10363.4z"/>
	
		<radialGradient id="SVGID_11_" cx="-24034.7051" cy="-9707.3008" r="1.732" gradientTransform="matrix(-175.0797 -12.4619 -12.4626 174.9934 -4337559 1388910.125)" gradientUnits="userSpaceOnUse">
		<stop  offset="0" style="stop-color:#1E168C"/>
		<stop  offset="1" style="stop-color:#6864B5"/>
	</radialGradient>
	<path class="st10" d="M-7902.2-10333.3l88.3,101.9c32.2-27.9,66.8-46,112.7-42.7l-1.8-132.8
		C-7780.9-10403.3-7843.9-10383.9-7902.2-10333.3z"/>
	
		<radialGradient id="SVGID_12_" cx="-24034.209" cy="-9708.8828" r="1.19" gradientTransform="matrix(345.064 0 0 -345.064 8285535 -3360438.25)" gradientUnits="userSpaceOnUse">
		<stop  offset="4.000000e-02" style="stop-color:#D8D9DD"/>
		<stop  offset="0.55" style="stop-color:#EDEEF0"/>
		<stop  offset="1" style="stop-color:#F7F7F8"/>
	</radialGradient>
	<path class="st11" d="M-7705.8-10278c-95.3,0-172.5,77.2-172.5,172.5s77.2,172.5,172.5,172.5s172.5-77.2,172.5-172.5
		C-7533.2-10200.8-7610.5-10278-7705.8-10278L-7705.8-10278z M-7705.8-9942.8c-89.9,0-162.7-72.8-162.7-162.7
		s72.8-162.7,162.7-162.7c89.9,0,162.7,72.8,162.7,162.7C-7543.1-10015.6-7615.9-9942.8-7705.8-9942.8L-7705.8-9942.8z"/>
	
		<radialGradient id="SVGID_13_" cx="-24034.3281" cy="-9709.0508" r="1.455" gradientTransform="matrix(272.2747 0 0 -272.274 6536117.5 -2653761)" gradientUnits="userSpaceOnUse">
		<stop  offset="4.000000e-02" style="stop-color:#D8D9DD"/>
		<stop  offset="0.55" style="stop-color:#EDEEF0"/>
		<stop  offset="1" style="stop-color:#F7F7F8"/>
	</radialGradient>
	<path class="st12" d="M-7571.8-10110.1c-0.1-75.2-61.1-136.1-136.2-136c-75.2,0.1-136.1,61.1-136,136.2s61.1,136.1,136.2,136
		c17.3,0,34.5-3.3,50.5-9.8C-7605.5-10004.2-7571.6-10054.4-7571.8-10110.1z"/>
	
		<radialGradient id="SVGID_14_" cx="-24034.3281" cy="-9709.0508" r="1.455" gradientTransform="matrix(272.2747 0 0 -272.274 6536117.5 -2653756.5)" gradientUnits="userSpaceOnUse">
		<stop  offset="4.000000e-02" style="stop-color:#D8D9DD"/>
		<stop  offset="0.55" style="stop-color:#EDEEF0"/>
		<stop  offset="1" style="stop-color:#F7F7F8"/>
	</radialGradient>
	<path class="st13" d="M-7571.8-10105.6c-0.1-75.2-61.1-136.1-136.2-136s-136.1,61.1-136,136.2c0.1,75.2,61.1,136.1,136.2,136
		c17.3,0,34.5-3.3,50.5-9.8C-7605.5-9999.7-7571.6-10049.8-7571.8-10105.6z"/>
	<path class="st14" d="M-7602.3-10105.5c0-57.2-46.4-103.5-103.6-103.5s-103.5,46.4-103.5,103.6c0,57.2,46.4,103.5,103.5,103.5
		C-7648.6-10002-7602.3-10048.3-7602.3-10105.5L-7602.3-10105.5z"/>
	
		<radialGradient id="SVGID_15_" cx="-24034.3203" cy="-9709.3779" r="1.463" gradientTransform="matrix(205.3405 0 0 -205.3404 4927427.5 -2003930.375)" gradientUnits="userSpaceOnUse">
		<stop  offset="0" style="stop-color:#F7F7F8"/>
		<stop  offset="0.51" style="stop-color:#FBFBFB"/>
		<stop  offset="0.72" style="stop-color:#FFFFFF"/>
	</radialGradient>
	<path class="st15" d="M-7602.3-10105.5c-0.8-56.7-47.4-102-104.1-101.2s-102,47.4-101.2,104.1c0.8,56.7,47.4,102,104.1,101.2
		S-7601.5-10048.8-7602.3-10105.5L-7602.3-10105.5z"/>
	<path class="st16" d="M-7612.8-10151.1c23.4,52.5-0.2,113.9-52.7,137.3c-44.8,20-97.5,5.9-126.3-33.7c32.1,47.4,96.5,59.8,144,27.8
		C-7605.1-10048.7-7590.2-10104.7-7612.8-10151.1z"/>
	<path class="st17" d="M-7747.1-10125.9l5.9-17h3l-7.6,20.6h-2.4l-7.6-20.6h3L-7747.1-10125.9z"/>
	<path class="st17" d="M-7723.8-10128.5h-8.3l-1.9,5.2h-2.7l7.6-19.9h2.3l7.6,19.9h-2.7L-7723.8-10128.5z M-7731.4-10130.6h6.8
		l-3.4-9.3L-7731.4-10130.6z"/>
	<path class="st17" d="M-7711.4-10125.4h9.4v2.1h-12.1v-19.9h2.6v17.8L-7711.4-10125.4L-7711.4-10125.4z"/>
	<path class="st17" d="M-7681.2-10131.9c0,1.8-0.3,3.6-1,5.3c-0.6,1.4-1.6,2.6-2.9,3.4c-1.3,0.8-2.8,1.2-4.4,1.2
		c-1.5,0-3-0.4-4.3-1.2s-2.3-2-2.9-3.4c-0.7-1.6-1.1-3.4-1.1-5.1v-1.5c0-1.8,0.3-3.6,1-5.3c0.6-1.4,1.6-2.6,2.9-3.5
		c1.3-0.8,2.8-1.2,4.3-1.2s3.1,0.4,4.4,1.2s2.3,2,2.9,3.5c0.7,1.7,1.1,3.5,1,5.3L-7681.2-10131.9z M-7683.9-10133.3
		c0.1-2-0.4-4-1.5-5.6c-1-1.3-2.5-2-4.1-2c-1.6-0.1-3.1,0.7-4.1,2c-1.1,1.6-1.6,3.5-1.5,5.4v1.5c-0.1,2,0.4,3.9,1.5,5.6
		c0.9,1.3,2.5,2.1,4.1,2c1.6,0.1,3.1-0.6,4.1-1.9c1.1-1.6,1.6-3.6,1.5-5.5V-10133.3z M-7669.5-10130.6h-4.8v8.3h-2.7v-20.6h6.8
		c1.9-0.1,3.8,0.4,5.4,1.6c1.3,1.2,2,2.9,1.9,4.6c0,1.2-0.3,2.4-1,3.4s-1.7,1.7-2.9,2.1l4.8,8.8v0.2h-2.9L-7669.5-10130.6z
		 M-7674.4-10132.8h4.2c1.2,0.1,2.3-0.3,3.2-1c0.8-0.7,1.2-1.7,1.2-2.8c0.1-1.1-0.3-2.2-1.1-2.9c-0.9-0.7-2.1-1.1-3.3-1h-4.2
		L-7674.4-10132.8L-7674.4-10132.8z"/>
	<path class="st17" d="M-7776.7-10089.2h-8.6l-1.9,5.4h-2.8l7.9-20.6h2.4l7.9,20.6h-2.8L-7776.7-10089.2z M-7784.5-10091.4h7
		l-3.5-9.6L-7784.5-10091.4z M-7753.9-10086.5c-0.7,1-1.7,1.8-2.9,2.2c-1.4,0.5-2.9,0.8-4.4,0.7c-1.6,0-3.1-0.4-4.5-1.2
		c-1.3-0.8-2.4-2-3-3.4c-0.7-1.6-1.1-3.3-1.1-5.1v-1.8c0-3.1,0.7-5.5,2.2-7.2s3.8-2.7,6.1-2.6c1.9-0.1,3.7,0.5,5.2,1.7
		c1.4,1.2,2.2,2.9,2.4,4.7h-2.7c-0.5-2.7-2.1-4.1-4.9-4.1c-1.6-0.1-3.2,0.6-4.1,1.9c-1,1.7-1.5,3.6-1.4,5.6v1.7
		c-0.1,2,0.5,3.9,1.6,5.5c1,1.3,2.6,2.1,4.3,2c0.9,0,1.8-0.1,2.7-0.3c0.7-0.2,1.4-0.6,1.9-1.1v-4.6h-4.8v-2.2h7.5L-7753.9-10086.5z
		 M-7741.9-10092.1h-4.8v8.3h-2.7v-20.6h6.8c1.9-0.1,3.8,0.4,5.4,1.6c1.3,1.2,2,2.9,1.9,4.6c0,1.2-0.3,2.4-1,3.4s-1.7,1.7-2.9,2.1
		l4.8,8.8v0.2h-2.9L-7741.9-10092.1z M-7746.7-10094.3h4.2c1.2,0.1,2.3-0.3,3.2-1c0.8-0.7,1.2-1.7,1.2-2.8c0.1-1.1-0.3-2.2-1.1-2.9
		c-0.9-0.7-2.1-1.1-3.3-1h-4.2L-7746.7-10094.3L-7746.7-10094.3z M-7719.9-10093.3h-8.9v7.3h10.4v2.2h-13.1v-20.6h13v2.2h-10.2v6.6
		h8.9L-7719.9-10093.3L-7719.9-10093.3z M-7699.9-10086.5c-0.7,1-1.7,1.8-2.9,2.2c-1.4,0.5-2.9,0.8-4.4,0.7c-1.6,0-3.1-0.4-4.5-1.2
		c-1.3-0.8-2.4-2-3-3.4c-0.7-1.6-1.1-3.3-1.1-5.1v-1.8c0-3.1,0.7-5.5,2.2-7.2s3.8-2.7,6.1-2.6c1.9-0.1,3.7,0.5,5.2,1.7
		c1.4,1.2,2.2,2.9,2.4,4.7h-2.7c-0.5-2.7-2.1-4.1-4.9-4.1c-1.6-0.1-3.2,0.6-4.1,1.9c-1,1.7-1.5,3.6-1.4,5.6v1.7
		c-0.1,2,0.5,3.9,1.6,5.5c1,1.3,2.6,2.1,4.3,2c0.9,0,1.8-0.1,2.7-0.3c0.7-0.2,1.4-0.6,1.9-1.1v-4.6h-4.8v-2.2h7.5v7.6
		L-7699.9-10086.5L-7699.9-10086.5z M-7683.9-10089.2h-8.6l-1.9,5.4h-2.8l7.9-20.6h2.4l7.9,20.6h-2.8L-7683.9-10089.2z
		 M-7691.8-10091.4h7l-3.5-9.6L-7691.8-10091.4z M-7676.4-10083.8v-20.6h5.8c1.7,0,3.3,0.4,4.8,1.2c1.4,0.8,2.5,2,3.2,3.4
		c0.8,1.6,1.2,3.3,1.1,5v1.3c0,1.8-0.3,3.5-1.1,5.1c-0.7,1.4-1.8,2.6-3.2,3.4c-1.5,0.8-3.2,1.2-4.9,1.2L-7676.4-10083.8
		L-7676.4-10083.8z M-7673.7-10102.2v16.2h2.9c1.8,0.1,3.6-0.6,4.9-2c1.3-1.6,1.9-3.6,1.7-5.6v-1.2c0.1-2-0.5-3.9-1.6-5.5
		c-1.2-1.3-2.9-2.1-4.7-2L-7673.7-10102.2z M-7641.5-10093.4c0,1.8-0.3,3.6-1,5.3c-0.6,1.4-1.6,2.6-2.9,3.4
		c-1.3,0.8-2.8,1.2-4.4,1.2c-1.5,0-3-0.4-4.3-1.2s-2.3-2-2.9-3.4c-0.7-1.6-1.1-3.4-1.1-5.1v-1.5c0-1.8,0.3-3.6,1-5.2
		c0.6-1.4,1.6-2.6,2.9-3.5c1.3-0.8,2.8-1.2,4.3-1.2s3.1,0.4,4.4,1.2s2.3,2,2.9,3.5c0.7,1.7,1.1,3.5,1,5.3L-7641.5-10093.4z
		 M-7644.2-10094.7c0.1-2-0.4-4-1.5-5.6c-1-1.3-2.5-2-4.1-2c-1.6-0.1-3.1,0.7-4.1,2c-1.1,1.6-1.6,3.5-1.5,5.4v1.5
		c-0.1,2,0.4,3.9,1.5,5.6c0.9,1.3,2.5,2.1,4.1,2c1.6,0.1,3.1-0.6,4.1-1.9c1.1-1.6,1.6-3.6,1.5-5.5V-10094.7z"/>
	<path class="st14" d="M-7658.8-10333.8v5.3h-1.8v-13.5h5c1.3-0.1,2.5,0.3,3.5,1.1c0.8,0.8,1.3,1.9,1.3,3c0.1,1.1-0.4,2.3-1.2,3
		c-1,0.8-2.3,1.1-3.5,1.1L-7658.8-10333.8L-7658.8-10333.8z M-7658.8-10335.3h3.2c0.8,0.1,1.6-0.2,2.2-0.7c0.5-0.5,0.8-1.2,0.8-1.9
		s-0.2-1.4-0.8-1.9c-0.6-0.5-1.3-0.8-2.1-0.8h-3.3L-7658.8-10335.3z M-7644-10337c-0.3,0-0.6-0.1-0.8-0.1c-1-0.1-1.9,0.5-2.3,1.4
		v7.1h-1.7v-10h1.7v1.2c0.5-0.9,1.4-1.4,2.4-1.3c0.3,0,0.5,0,0.8,0.1L-7644-10337z M-7638.4-10328.3c-1.2,0-2.5-0.4-3.3-1.3
		c-0.9-1-1.3-2.3-1.3-3.6v-0.3c0-0.9,0.2-1.8,0.6-2.7c0.4-0.8,0.9-1.4,1.6-1.8c0.7-0.4,1.4-0.7,2.2-0.7c1.2-0.1,2.3,0.4,3,1.3
		c0.8,1.1,1.2,2.4,1.1,3.7v0.7h-6.8c0,0.9,0.3,1.7,0.9,2.4c0.5,0.6,1.3,0.9,2.1,0.9c0.5,0,1.1-0.1,1.5-0.4c0.4-0.3,0.8-0.6,1.1-1
		l1,0.8C-7635.5-10329-7636.9-10328.2-7638.4-10328.3z M-7638.6-10337.3c-0.7,0-1.3,0.3-1.7,0.8c-0.5,0.6-0.8,1.3-0.9,2.1h5v-0.1
		c0-0.7-0.2-1.4-0.7-2C-7637.4-10337.1-7638-10337.4-7638.6-10337.3L-7638.6-10337.3z M-7628.5-10329.7c0.6,0,1.1-0.2,1.6-0.6
		c0.4-0.3,0.7-0.8,0.8-1.4h1.6c0,0.6-0.2,1.2-0.6,1.6c-0.4,0.5-0.9,1-1.5,1.2c-0.6,0.3-1.3,0.5-1.9,0.5c-1.2,0.1-2.4-0.4-3.3-1.4
		c-0.9-1.1-1.3-2.4-1.2-3.7v-0.3c0-0.9,0.2-1.8,0.5-2.6c0.3-0.7,0.9-1.3,1.5-1.8c0.7-0.4,1.5-0.7,2.4-0.6c1,0,2,0.3,2.8,1
		c0.7,0.7,1.2,1.6,1.2,2.6h-1.6c0-0.6-0.3-1.2-0.7-1.6c-0.4-0.4-1-0.6-1.6-0.6c-0.8,0-1.5,0.3-2,0.9c-0.5,0.8-0.8,1.8-0.7,2.7v0.3
		c-0.1,0.9,0.2,1.9,0.7,2.7C-7630.1-10330-7629.3-10329.7-7628.5-10329.7L-7628.5-10329.7z M-7620.7-10328.5h-1.7v-10h1.7V-10328.5z
		 M-7622.6-10341.2c0-0.3,0.1-0.5,0.3-0.7c0.2-0.2,0.5-0.3,0.8-0.3s0.6,0.1,0.8,0.3c0.2,0.2,0.3,0.4,0.3,0.7s-0.1,0.5-0.3,0.7
		c-0.2,0.2-0.5,0.3-0.8,0.3s-0.6-0.1-0.8-0.3S-7622.6-10341-7622.6-10341.2z M-7618.4-10333.6c0-0.9,0.2-1.8,0.6-2.7
		c0.4-0.7,0.9-1.4,1.6-1.8c0.7-0.4,1.5-0.7,2.4-0.6c1.3,0,2.5,0.5,3.3,1.4c0.9,1.1,1.3,2.4,1.3,3.8v0.1c0,0.9-0.2,1.8-0.6,2.6
		c-0.3,0.7-0.9,1.4-1.6,1.8c-0.7,0.4-1.6,0.7-2.4,0.6c-1.3,0-2.5-0.5-3.3-1.4C-7618-10330.8-7618.4-10332.2-7618.4-10333.6
		L-7618.4-10333.6z M-7616.7-10333.4c0,1,0.2,1.9,0.8,2.7c0.5,0.7,1.3,1,2.1,1c0.8,0,1.6-0.4,2.1-1c0.6-0.8,0.8-1.9,0.8-2.9
		s-0.2-1.9-0.8-2.7c-0.5-0.7-1.3-1-2.1-1c-0.8,0-1.6,0.4-2,1C-7616.5-10335.5-7616.8-10334.4-7616.7-10333.4L-7616.7-10333.4z"/>
	<path class="st14" d="M-7854-10334.7c-0.1,1.3-0.6,2.4-1.6,3.3c-1,0.8-2.3,1.2-3.5,1.2c-1.5,0.1-2.9-0.6-3.8-1.7
		c-1-1.3-1.5-2.9-1.4-4.6v-1.3c0-1.1,0.2-2.3,0.7-3.3c0.4-0.9,1.1-1.7,1.9-2.2c0.9-0.5,1.9-0.8,2.9-0.8c1.3-0.1,2.5,0.4,3.5,1.2
		c0.9,0.9,1.4,2.1,1.5,3.3h-1.8c-0.1-0.9-0.4-1.7-1-2.3c-0.6-0.5-1.4-0.8-2.2-0.7c-1,0-2,0.4-2.7,1.3c-0.7,1.1-1,2.3-1,3.6v1.3
		c-0.1,1.2,0.3,2.5,0.9,3.5c0.6,0.8,1.5,1.3,2.6,1.3c0.8,0.1,1.6-0.2,2.3-0.7c0.6-0.6,1-1.5,1.1-2.3L-7854-10334.7L-7854-10334.7z
		 M-7845.6-10331.4c-0.7,0.8-1.8,1.3-2.9,1.2c-0.9,0.1-1.8-0.3-2.4-0.9c-0.6-0.8-0.9-1.8-0.8-2.8v-6.5h1.7v6.5
		c0,1.5,0.6,2.3,1.9,2.3c1.1,0.1,2.1-0.5,2.6-1.5v-7.3h1.7v10h-1.6L-7845.6-10331.4z M-7835.5-10333.1c0-0.4-0.2-0.8-0.5-1.1
		c-0.6-0.3-1.2-0.6-1.8-0.7c-0.7-0.1-1.4-0.4-2.1-0.7c-0.4-0.2-0.8-0.5-1.1-0.9c-0.3-0.4-0.4-0.8-0.4-1.3c0-0.8,0.4-1.6,1-2.1
		c0.8-0.6,1.7-0.9,2.7-0.9s2,0.3,2.8,0.9c0.7,0.5,1.1,1.4,1.1,2.3h-1.7c0-0.5-0.2-0.9-0.6-1.2s-1-0.5-1.5-0.5s-1,0.1-1.5,0.4
		c-0.3,0.2-0.5,0.6-0.5,1.1c0,0.4,0.2,0.7,0.5,0.9c0.6,0.3,1.2,0.5,1.8,0.6c0.7,0.1,1.4,0.4,2.1,0.7c0.5,0.2,0.9,0.5,1.2,1
		c0.3,0.4,0.4,0.9,0.4,1.4c0,0.9-0.4,1.7-1.1,2.2c-0.8,0.6-1.8,0.9-2.8,0.8c-0.7,0-1.5-0.1-2.1-0.4c-0.6-0.3-1.1-0.7-1.5-1.2
		c-0.3-0.5-0.5-1.1-0.5-1.7h1.7c0,0.5,0.3,1,0.7,1.4c0.5,0.4,1.1,0.5,1.7,0.5s1.1-0.1,1.6-0.4
		C-7835.7-10332.2-7835.5-10332.6-7835.5-10333.1L-7835.5-10333.1z M-7829.2-10342.9v2.4h1.9v1.3h-1.9v6.2c0,0.3,0.1,0.6,0.2,0.9
		c0.2,0.2,0.5,0.3,0.9,0.3c0.3,0,0.5,0,0.8-0.1v1.4c-0.4,0.1-0.9,0.2-1.3,0.2c-0.7,0-1.3-0.2-1.7-0.7c-0.4-0.6-0.6-1.3-0.6-2v-6.2
		h-1.8v-1.3h1.8v-2.4L-7829.2-10342.9L-7829.2-10342.9z M-7826-10335.5c0-0.9,0.2-1.8,0.6-2.7c0.4-0.7,0.9-1.4,1.6-1.8
		c0.7-0.4,1.5-0.7,2.4-0.6c1.3,0,2.5,0.5,3.3,1.4c0.9,1.1,1.3,2.4,1.3,3.8v0.1c0,0.9-0.2,1.8-0.6,2.6c-0.3,0.7-0.9,1.4-1.6,1.8
		c-0.7,0.4-1.6,0.7-2.4,0.6c-1.3,0-2.5-0.5-3.3-1.4C-7825.6-10332.7-7826-10334.1-7826-10335.5L-7826-10335.5z M-7824.3-10335.3
		c0,1,0.2,1.9,0.8,2.7c0.5,0.7,1.3,1,2.1,1c0.8,0,1.6-0.4,2.1-1c0.6-0.8,0.8-1.9,0.8-2.9s-0.2-1.9-0.8-2.7c-0.5-0.7-1.3-1-2.1-1
		c-0.8,0-1.6,0.4-2.1,1C-7824-10337.3-7824.3-10336.3-7824.3-10335.3L-7824.3-10335.3z M-7813.1-10340.4v1.1c0.7-0.9,1.8-1.3,3-1.3
		c1.2-0.1,2.4,0.5,2.9,1.6c0.3-0.5,0.8-0.9,1.3-1.2c0.6-0.3,1.2-0.5,1.9-0.4c2.2,0,3.3,1.2,3.4,3.5v6.7h-1.7v-6.6
		c0-0.6-0.1-1.2-0.5-1.6c-0.5-0.4-1-0.6-1.6-0.5c-0.6,0-1.1,0.2-1.6,0.6c-0.4,0.4-0.7,0.9-0.7,1.5v6.7h-1.7v-6.6
		c0.2-1-0.6-2-1.6-2.2c-0.2,0-0.4,0-0.5,0c-1-0.1-1.9,0.5-2.3,1.4v7.3h-1.7v-10H-7813.1z M-7796.2-10330.4h-1.7v-10h1.7V-10330.4z
		 M-7798-10343.1c0-0.3,0.1-0.5,0.3-0.7c0.2-0.2,0.5-0.3,0.8-0.3s0.6,0.1,0.8,0.3c0.2,0.2,0.3,0.4,0.3,0.7s-0.1,0.5-0.3,0.7
		c-0.2,0.2-0.5,0.3-0.8,0.3s-0.6-0.1-0.8-0.3S-7798-10342.8-7798-10343.1z M-7791.8-10331.8h5.9v1.4h-8v-1.3l5.5-7.4h-5.5v-1.4h7.6
		v1.2L-7791.8-10331.8z M-7777.8-10330.4c-0.1-0.3-0.2-0.7-0.2-1.1c-0.7,0.8-1.8,1.3-2.9,1.2c-0.9,0-1.8-0.3-2.4-0.8s-1-1.3-1-2.1
		c0-1,0.4-1.9,1.2-2.4c1-0.6,2.2-0.9,3.4-0.9h1.7v-0.8c0-0.5-0.2-1-0.5-1.4c-0.4-0.4-1-0.6-1.6-0.5c-0.6,0-1.1,0.1-1.5,0.5
		c-0.4,0.2-0.6,0.7-0.6,1.1h-1.7c0-0.5,0.2-1,0.5-1.5c0.4-0.5,0.9-0.9,1.4-1.1c0.6-0.3,1.3-0.4,2-0.4c1-0.1,2,0.3,2.7,0.9
		c0.7,0.6,1,1.5,1,2.4v4.6c0,0.7,0.1,1.5,0.4,2.2v0.1H-7777.8z M-7780.7-10331.7c0.5,0,1.1-0.1,1.5-0.4c0.5-0.2,0.8-0.6,1-1.1v-2.1
		h-1.3c-2.1,0-3.2,0.6-3.2,1.8c0,0.5,0.2,0.9,0.5,1.3C-7781.6-10331.8-7781.2-10331.7-7780.7-10331.7z M-7769.6-10331.6
		c0.6,0,1.1-0.2,1.6-0.6c0.4-0.3,0.7-0.8,0.8-1.4h1.6c0,0.6-0.2,1.2-0.6,1.6c-0.4,0.5-0.9,1-1.5,1.2c-0.6,0.3-1.3,0.5-1.9,0.5
		c-1.2,0.1-2.4-0.4-3.3-1.4c-0.9-1.1-1.3-2.4-1.2-3.7v-0.3c0-0.9,0.2-1.8,0.5-2.6c0.3-0.7,0.9-1.3,1.5-1.8c0.7-0.4,1.5-0.7,2.4-0.6
		c1,0,2,0.3,2.8,1c0.7,0.7,1.2,1.6,1.2,2.6h-1.6c0-0.6-0.3-1.2-0.7-1.6c-0.4-0.4-1-0.6-1.6-0.6c-0.8,0-1.5,0.3-2,0.9
		c-0.5,0.8-0.8,1.8-0.7,2.7v0.3c-0.1,0.9,0.2,1.9,0.7,2.7C-7771.2-10331.9-7770.4-10331.6-7769.6-10331.6z M-7761.9-10330.4h-1.7
		v-10h1.7V-10330.4z M-7763.7-10343.1c0-0.3,0.1-0.5,0.3-0.7c0.2-0.2,0.5-0.3,0.8-0.3s0.6,0.1,0.8,0.3c0.2,0.2,0.3,0.4,0.3,0.7
		s-0.1,0.5-0.3,0.7c-0.2,0.2-0.5,0.3-0.8,0.3s-0.6-0.1-0.8-0.3S-7763.7-10342.8-7763.7-10343.1L-7763.7-10343.1z M-7759.6-10335.5
		c0-0.9,0.2-1.8,0.6-2.7c0.4-0.7,0.9-1.4,1.6-1.8c0.7-0.4,1.5-0.7,2.4-0.6c1.3,0,2.5,0.5,3.3,1.4c0.9,1.1,1.3,2.4,1.3,3.8v0.1
		c0,0.9-0.2,1.8-0.6,2.6c-0.3,0.7-0.9,1.4-1.6,1.8c-0.7,0.4-1.6,0.7-2.4,0.6c-1.3,0-2.5-0.5-3.3-1.4
		C-7759.2-10332.7-7759.6-10334.1-7759.6-10335.5L-7759.6-10335.5z M-7757.8-10335.3c0,1,0.2,1.9,0.8,2.7c0.5,0.7,1.3,1,2.1,1
		c0.8,0,1.6-0.4,2.1-1c0.6-0.8,0.8-1.9,0.8-2.9s-0.2-1.9-0.8-2.7c-0.5-0.7-1.3-1-2.1-1c-0.8,0-1.6,0.4-2,1
		C-7757.6-10337.3-7757.9-10336.3-7757.8-10335.3L-7757.8-10335.3z M-7754.2-10344.6h2.1l-2.5,2.7h-1.4L-7754.2-10344.6z
		 M-7746.7-10340.4l0.1,1.3c0.7-0.9,1.8-1.5,3-1.4c2.1,0,3.2,1.2,3.2,3.6v6.6h-1.7v-6.6c0-0.6-0.1-1.1-0.5-1.6
		c-0.4-0.4-1-0.6-1.5-0.5c-0.5,0-1,0.1-1.5,0.4c-0.4,0.3-0.8,0.7-1,1.2v7.1h-1.7v-10L-7746.7-10340.4z"/>
	<path class="st14" d="M-7549.9-10240.4h-1.8l-6.8-10.4v10.4h-1.8v-13.5h1.8l6.8,10.5v-10.5h1.8V-10240.4z M-7547.5-10245.5
		c0-0.9,0.2-1.8,0.6-2.7c0.4-0.7,0.9-1.4,1.6-1.8c0.7-0.4,1.5-0.7,2.4-0.6c1.3,0,2.5,0.5,3.3,1.4c0.9,1.1,1.3,2.4,1.3,3.8v0.1
		c0,0.9-0.2,1.8-0.6,2.6c-0.3,0.7-0.9,1.4-1.6,1.8c-0.7,0.4-1.6,0.7-2.4,0.6c-1.3,0-2.5-0.5-3.3-1.4
		C-7547.1-10242.7-7547.5-10244.1-7547.5-10245.5L-7547.5-10245.5z M-7545.8-10245.3c0,1,0.2,1.9,0.8,2.7c0.5,0.7,1.3,1,2.1,1
		c0.8,0,1.6-0.4,2.1-1c0.6-0.8,0.8-1.9,0.8-2.9s-0.2-1.9-0.8-2.7c-0.5-0.7-1.3-1-2.1-1c-0.8,0-1.6,0.4-2,1
		C-7545.5-10247.4-7545.8-10246.4-7545.8-10245.3L-7545.8-10245.3z M-7533.2-10242.8l2.5-7.7h1.8l-3.6,10h-1.3l-3.6-10h1.8
		L-7533.2-10242.8z M-7523.3-10240.2c-1.2,0-2.5-0.4-3.3-1.3c-0.9-1-1.3-2.3-1.3-3.6v-0.3c0-0.9,0.2-1.8,0.6-2.7
		c0.4-0.8,0.9-1.4,1.6-1.8c0.7-0.4,1.4-0.7,2.2-0.7c1.2-0.1,2.3,0.4,3,1.3c0.8,1.1,1.2,2.4,1.1,3.7v0.7h-6.8c0,0.9,0.3,1.7,0.9,2.4
		c0.5,0.6,1.3,0.9,2.1,0.9c0.5,0,1.1-0.1,1.5-0.4c0.4-0.3,0.8-0.6,1.1-1l1,0.8C-7520.4-10240.9-7521.8-10240.2-7523.3-10240.2z
		 M-7523.5-10249.2c-0.7,0-1.3,0.3-1.7,0.8c-0.5,0.6-0.8,1.3-0.9,2.1h5v-0.1c0-0.7-0.2-1.4-0.7-2
		C-7522.3-10249-7522.9-10249.3-7523.5-10249.2L-7523.5-10249.2z M-7517.8-10245.5c-0.1-1.3,0.3-2.6,1.1-3.7
		c0.7-0.9,1.7-1.4,2.9-1.4c1.1,0,2.1,0.4,2.8,1.2v-5.2h1.7v14.2h-1.6l-0.1-1.1c-0.7,0.8-1.8,1.3-2.9,1.3s-2.2-0.5-2.8-1.4
		c-0.8-1.1-1.2-2.4-1.1-3.7V-10245.5z M-7516.1-10245.3c-0.1,0.9,0.2,1.9,0.7,2.7c0.4,0.6,1.2,1,1.9,1c1,0,2-0.5,2.4-1.5v-4.6
		c-0.4-0.9-1.4-1.5-2.4-1.4c-0.8,0-1.5,0.3-2,1C-7516-10247.4-7516.2-10246.4-7516.1-10245.3L-7516.1-10245.3z M-7500.5-10240.4
		c-0.1-0.3-0.2-0.7-0.2-1.1c-0.7,0.8-1.8,1.3-2.9,1.2c-0.9,0-1.8-0.3-2.4-0.8s-1-1.3-1-2.1c0-1,0.4-1.9,1.2-2.4
		c1-0.6,2.2-0.9,3.4-0.9h1.7v-0.8c0-0.5-0.2-1-0.5-1.4c-0.4-0.4-1-0.6-1.6-0.5c-0.6,0-1.1,0.1-1.5,0.5c-0.4,0.2-0.6,0.7-0.6,1.1
		h-1.7c0-0.5,0.2-1,0.5-1.5c0.4-0.5,0.9-0.9,1.4-1.1c0.6-0.3,1.3-0.4,2-0.4c1-0.1,2,0.3,2.7,0.9c0.7,0.6,1,1.5,1,2.4v4.6
		c0,0.7,0.1,1.5,0.4,2.2v0.1H-7500.5z M-7503.4-10241.7c0.5,0,1.1-0.1,1.5-0.4c0.5-0.2,0.8-0.6,1-1.1v-2.1h-1.3
		c-2.1,0-3.2,0.6-3.2,1.8c0,0.5,0.2,0.9,0.5,1.3C-7504.4-10241.9-7503.9-10241.7-7503.4-10241.7z M-7496.8-10245.5
		c-0.1-1.3,0.3-2.6,1.1-3.7c0.7-0.9,1.7-1.4,2.9-1.4c1.1,0,2.1,0.4,2.8,1.2v-5.2h1.7v14.2h-1.6l-0.1-1.1c-0.7,0.8-1.8,1.3-2.9,1.3
		s-2.2-0.5-2.8-1.4c-0.8-1.1-1.2-2.4-1.1-3.7V-10245.5z M-7495.1-10245.3c-0.1,0.9,0.2,1.9,0.7,2.7c0.4,0.6,1.2,1,1.9,1
		c1,0,2-0.5,2.4-1.5v-4.6c-0.4-0.9-1.4-1.5-2.4-1.4c-0.8,0-1.5,0.3-2,1C-7494.9-10247.4-7495.2-10246.3-7495.1-10245.3
		L-7495.1-10245.3z"/>
	<path class="st14" d="M-7927.8-10240.4v-13.5h3.8c1.1,0,2.2,0.2,3.1,0.8c0.9,0.5,1.6,1.3,2.1,2.2c0.5,1,0.8,2.2,0.7,3.3v0.9
		c0,1.2-0.2,2.3-0.7,3.3c-0.5,0.9-1.2,1.7-2.1,2.2c-1,0.5-2.1,0.8-3.2,0.8H-7927.8z M-7926-10252.5v10.6h1.9
		c1.2,0.1,2.4-0.4,3.2-1.3c0.8-1,1.2-2.3,1.1-3.6v-0.8c0.1-1.3-0.3-2.6-1.1-3.6c-0.8-0.9-1.9-1.4-3.1-1.3L-7926-10252.5z
		 M-7913.8-10240.4h-1.7v-10h1.7V-10240.4z M-7915.6-10253.1c0-0.3,0.1-0.5,0.3-0.7c0.2-0.2,0.5-0.3,0.8-0.3s0.6,0.1,0.8,0.3
		c0.2,0.2,0.3,0.4,0.3,0.7s-0.1,0.5-0.3,0.7c-0.2,0.2-0.5,0.3-0.8,0.3s-0.6-0.1-0.8-0.3S-7915.6-10252.9-7915.6-10253.1z
		 M-7905.2-10243.1c0-0.4-0.2-0.8-0.5-1.1c-0.6-0.3-1.2-0.6-1.8-0.7c-0.7-0.1-1.4-0.4-2.1-0.7c-0.4-0.2-0.8-0.5-1.1-0.9
		c-0.3-0.4-0.4-0.8-0.4-1.3c0-0.8,0.4-1.6,1-2.1c0.8-0.6,1.7-0.9,2.7-0.9s2,0.3,2.8,0.9c0.7,0.5,1.1,1.4,1.1,2.3h-1.7
		c0-0.5-0.2-0.9-0.6-1.2s-1-0.5-1.5-0.5s-1,0.1-1.5,0.4c-0.3,0.2-0.5,0.6-0.5,1.1c0,0.4,0.2,0.7,0.5,0.9c0.6,0.3,1.2,0.5,1.8,0.6
		c0.7,0.1,1.4,0.4,2.1,0.7c0.5,0.2,0.9,0.5,1.2,1c0.3,0.4,0.4,0.9,0.4,1.4c0,0.9-0.4,1.7-1.1,2.2c-0.8,0.6-1.8,0.9-2.8,0.8
		c-0.7,0-1.5-0.1-2.1-0.4c-0.6-0.3-1.1-0.7-1.5-1.2c-0.3-0.5-0.5-1.1-0.5-1.7h1.7c0,0.5,0.3,1,0.7,1.4c0.5,0.4,1.1,0.5,1.7,0.5
		c0.5,0,1.1-0.1,1.6-0.4C-7905.4-10242.3-7905.2-10242.7-7905.2-10243.1z M-7897-10240.2c-1.2,0-2.5-0.4-3.3-1.3
		c-0.9-1-1.3-2.3-1.3-3.6v-0.3c0-0.9,0.2-1.8,0.6-2.7c0.4-0.8,0.9-1.4,1.6-1.8c0.7-0.4,1.4-0.7,2.2-0.7c1.2-0.1,2.3,0.4,3,1.3
		c0.8,1.1,1.2,2.4,1.1,3.7v0.7h-6.8c0,0.9,0.3,1.7,0.9,2.4c0.5,0.6,1.3,0.9,2.1,0.9c0.5,0,1.1-0.1,1.5-0.4c0.4-0.3,0.8-0.6,1.1-1
		l1,0.8C-7894.1-10240.9-7895.5-10240.2-7897-10240.2z M-7897.3-10249.2c-0.7,0-1.3,0.3-1.7,0.8c-0.5,0.6-0.8,1.3-0.9,2.1h5v-0.1
		c0-0.7-0.2-1.4-0.7-2C-7896-10249-7896.6-10249.3-7897.3-10249.2L-7897.3-10249.2z M-7889.5-10250.5l0.1,1.3c0.7-0.9,1.8-1.5,3-1.4
		c2.1,0,3.2,1.2,3.2,3.6v6.6h-1.7v-6.6c0-0.6-0.1-1.1-0.5-1.6c-0.4-0.4-1-0.6-1.5-0.5c-0.5,0-1,0.1-1.5,0.4c-0.4,0.3-0.8,0.7-1,1.2
		v7.1h-1.7v-10L-7889.5-10250.5z M-7883.8-10254.4c0,0.6-0.2,1.2-0.6,1.6c-0.4,0.4-0.9,0.6-1.4,0.6c-0.2,0-0.4,0-0.7-0.1
		c-0.3-0.1-0.5-0.2-0.7-0.4c-0.2-0.1-0.4-0.3-0.6-0.3c-0.1,0-0.3-0.1-0.5-0.1s-0.5,0.1-0.6,0.3c-0.2,0.2-0.3,0.5-0.3,0.7l-1.1-0.1
		c0-0.6,0.2-1.2,0.6-1.6c0.4-0.4,0.9-0.7,1.4-0.6c0.2,0,0.4,0,0.6,0.1s0.5,0.2,0.7,0.4c0.2,0.1,0.4,0.3,0.7,0.4
		c0.2,0.1,0.3,0.1,0.5,0.1c0.3,0,0.5-0.1,0.7-0.3s0.3-0.5,0.3-0.7L-7883.8-10254.4z M-7881.1-10245.5c0-0.9,0.2-1.8,0.6-2.7
		c0.4-0.7,0.9-1.4,1.6-1.8c0.7-0.4,1.5-0.7,2.4-0.6c1.3,0,2.5,0.5,3.3,1.4c0.9,1.1,1.3,2.4,1.3,3.8v0.1c0,0.9-0.2,1.8-0.6,2.6
		c-0.3,0.7-0.9,1.4-1.6,1.8c-0.7,0.4-1.6,0.7-2.4,0.6c-1.3,0-2.5-0.5-3.3-1.4C-7880.7-10242.7-7881.1-10244.1-7881.1-10245.5
		L-7881.1-10245.5z M-7879.4-10245.3c0,1,0.2,1.9,0.8,2.7c0.5,0.7,1.3,1,2.1,1c0.8,0,1.6-0.4,2.1-1c0.6-0.8,0.8-1.9,0.8-2.9
		s-0.2-1.9-0.8-2.7c-0.5-0.7-1.3-1-2.1-1c-0.8,0-1.6,0.4-2.1,1C-7879.2-10247.4-7879.5-10246.4-7879.4-10245.3L-7879.4-10245.3z"/>
	<path class="st14" d="M-7494.7-10111.6c-0.1,1.3-0.6,2.4-1.6,3.3c-1,0.8-2.3,1.2-3.5,1.2c-1.5,0.1-2.9-0.6-3.8-1.7
		c-1-1.3-1.5-2.9-1.4-4.6v-1.3c0-1.1,0.2-2.3,0.7-3.3c0.4-0.9,1.1-1.7,1.9-2.2c0.9-0.5,1.9-0.8,2.9-0.8c1.3-0.1,2.5,0.4,3.5,1.2
		c0.9,0.9,1.4,2.1,1.5,3.3h-1.8c-0.1-0.9-0.4-1.7-1-2.3c-0.6-0.5-1.4-0.8-2.2-0.7c-1,0-2,0.4-2.7,1.3c-0.7,1.1-1,2.3-1,3.6v1.3
		c-0.1,1.2,0.3,2.5,0.9,3.5c0.6,0.8,1.5,1.3,2.6,1.3c0.8,0.1,1.6-0.2,2.3-0.7c0.6-0.6,1-1.5,1.1-2.3L-7494.7-10111.6
		L-7494.7-10111.6z M-7486.4-10107.3c-0.1-0.3-0.2-0.7-0.2-1.1c-0.7,0.8-1.8,1.3-2.9,1.2c-0.9,0-1.8-0.3-2.4-0.8s-1-1.3-1-2.1
		c0-1,0.4-1.9,1.2-2.4c1-0.6,2.2-0.9,3.4-0.9h1.7v-0.8c0-0.5-0.2-1-0.5-1.4c-0.4-0.4-1-0.6-1.6-0.5c-0.6,0-1.1,0.1-1.5,0.5
		c-0.4,0.2-0.6,0.7-0.6,1.1h-1.7c0-0.5,0.2-1,0.5-1.5c0.4-0.5,0.9-0.9,1.4-1.1c0.6-0.3,1.3-0.4,2-0.4c1-0.1,2,0.3,2.7,0.9
		c0.7,0.6,1,1.5,1,2.4v4.6c0,0.7,0.1,1.5,0.4,2.2v0.1H-7486.4z M-7489.2-10108.6c0.5,0,1.1-0.1,1.5-0.4c0.5-0.2,0.8-0.6,1-1.1v-2.1
		h-1.3c-2.1,0-3.2,0.6-3.2,1.8c0,0.5,0.2,0.9,0.5,1.3C-7490.2-10108.8-7489.7-10108.6-7489.2-10108.6z M-7480.4-10107.3h-1.7v-14.2
		h1.7V-10107.3z M-7475.8-10107.3h-1.7v-10h1.7V-10107.3z M-7477.6-10120c0-0.3,0.1-0.5,0.3-0.7c0.2-0.2,0.5-0.3,0.8-0.3
		s0.6,0.1,0.8,0.3c0.2,0.2,0.3,0.4,0.3,0.7s-0.1,0.5-0.3,0.7c-0.2,0.2-0.5,0.3-0.8,0.3s-0.6-0.1-0.8-0.3
		S-7477.6-10119.8-7477.6-10120z M-7473.4-10112.4c-0.1-1.3,0.3-2.6,1.1-3.7c0.7-0.9,1.7-1.4,2.9-1.4c1.1,0,2.1,0.4,2.8,1.2v-5.2
		h1.7v14.2h-1.6l-0.1-1.1c-0.7,0.8-1.8,1.3-2.9,1.3s-2.2-0.5-2.8-1.4c-0.8-1.1-1.2-2.4-1.1-3.7V-10112.4z M-7471.7-10112.2
		c-0.1,0.9,0.2,1.9,0.7,2.7c0.4,0.6,1.2,1,1.9,1c1,0,2-0.5,2.4-1.5v-4.6c-0.4-0.9-1.4-1.5-2.4-1.4c-0.8,0-1.5,0.3-2,1
		C-7471.5-10114.2-7471.8-10113.2-7471.7-10112.2L-7471.7-10112.2z M-7456.1-10107.3c-0.1-0.3-0.2-0.7-0.2-1.1
		c-0.7,0.8-1.8,1.3-2.9,1.2c-0.9,0-1.8-0.3-2.4-0.8s-1-1.3-1-2.1c0-1,0.4-1.9,1.2-2.4c1-0.6,2.2-0.9,3.4-0.9h1.7v-0.8
		c0-0.5-0.2-1-0.5-1.4c-0.4-0.4-1-0.6-1.6-0.5c-0.6,0-1.1,0.1-1.5,0.5c-0.4,0.2-0.6,0.7-0.6,1.1h-1.7c0-0.5,0.2-1,0.5-1.5
		c0.4-0.5,0.9-0.9,1.4-1.1c0.6-0.3,1.3-0.4,2-0.4c1-0.1,2,0.3,2.7,0.9c0.7,0.6,1,1.5,1,2.4v4.6c0,0.7,0.1,1.5,0.4,2.2v0.1H-7456.1z
		 M-7458.9-10108.6c0.5,0,1.1-0.1,1.5-0.4c0.5-0.2,0.8-0.6,1-1.1v-2.1h-1.3c-2.1,0-3.2,0.6-3.2,1.8c0,0.5,0.2,0.9,0.5,1.3
		C-7459.9-10108.8-7459.4-10108.6-7458.9-10108.6z M-7452.4-10112.4c-0.1-1.3,0.3-2.6,1.1-3.7c0.7-0.9,1.7-1.4,2.9-1.4
		c1.1,0,2.1,0.4,2.8,1.2v-5.2h1.7v14.2h-1.6l-0.1-1.1c-0.7,0.8-1.8,1.3-2.9,1.3s-2.2-0.5-2.8-1.4c-0.8-1.1-1.2-2.4-1.1-3.7V-10112.4
		z M-7450.7-10112.2c-0.1,0.9,0.2,1.9,0.7,2.7c0.4,0.6,1.2,1,1.9,1c1,0,2-0.5,2.4-1.5v-4.6c-0.4-0.9-1.4-1.5-2.4-1.4
		c-0.8,0-1.5,0.3-2,1C-7450.5-10114.2-7450.7-10113.2-7450.7-10112.2L-7450.7-10112.2z"/>
	<path class="st14" d="M-7989.4-10112.8h-3.2v5.5h-1.8v-13.5h4.5c1.3-0.1,2.5,0.3,3.5,1c0.9,0.8,1.3,1.9,1.2,3
		c0,0.8-0.2,1.6-0.7,2.2c-0.5,0.6-1.1,1.1-1.9,1.4l3.2,5.7v0.1h-1.9L-7989.4-10112.8z M-7992.6-10114.2h2.7c0.8,0,1.5-0.2,2.1-0.7
		c0.5-0.5,0.8-1.1,0.8-1.8s-0.2-1.4-0.7-1.9c-0.6-0.5-1.4-0.7-2.2-0.7h-2.7L-7992.6-10114.2L-7992.6-10114.2z M-7978.8-10107.1
		c-1.2,0-2.5-0.4-3.3-1.3c-0.9-1-1.3-2.3-1.3-3.6v-0.3c0-0.9,0.2-1.8,0.6-2.7c0.4-0.8,0.9-1.4,1.6-1.8c0.7-0.4,1.4-0.7,2.2-0.7
		c1.2-0.1,2.3,0.4,3,1.3c0.8,1.1,1.2,2.4,1.1,3.7v0.7h-6.8c0,0.9,0.3,1.7,0.9,2.4c0.5,0.6,1.3,0.9,2.1,0.9c0.5,0,1.1-0.1,1.5-0.4
		c0.4-0.3,0.8-0.6,1.1-1l1,0.8C-7975.8-10107.8-7977.3-10107-7978.8-10107.1z M-7979-10116.1c-0.7,0-1.3,0.3-1.7,0.8
		c-0.5,0.6-0.8,1.3-0.9,2.1h5v-0.1c0-0.7-0.2-1.4-0.7-2C-7977.7-10115.9-7978.3-10116.2-7979-10116.1L-7979-10116.1z
		 M-7973.3-10112.4c-0.1-1.3,0.3-2.6,1.1-3.7c0.7-0.9,1.7-1.4,2.9-1.4c1.1,0,2.1,0.4,2.8,1.2v-5.2h1.7v14.2h-1.6l-0.1-1.1
		c-0.7,0.8-1.8,1.3-2.9,1.3s-2.2-0.5-2.8-1.4c-0.8-1.1-1.2-2.4-1.1-3.7V-10112.4z M-7971.6-10112.2c-0.1,0.9,0.2,1.9,0.7,2.7
		c0.4,0.6,1.2,1,1.9,1c1,0,2-0.5,2.4-1.5v-4.6c-0.4-0.9-1.4-1.5-2.4-1.4c-0.8,0-1.5,0.3-2,1
		C-7971.4-10114.2-7971.6-10113.2-7971.6-10112.2L-7971.6-10112.2z M-7956-10108.3c-0.7,0.8-1.8,1.3-2.9,1.2
		c-0.9,0.1-1.8-0.3-2.4-0.9c-0.6-0.8-0.9-1.8-0.8-2.8v-6.5h1.7v6.5c0,1.5,0.6,2.3,1.9,2.3c1.1,0.1,2.2-0.5,2.6-1.5v-7.3h1.7v10h-1.6
		L-7956-10108.3z M-7947.7-10108.5c0.6,0,1.1-0.2,1.6-0.6c0.4-0.3,0.7-0.8,0.8-1.4h1.6c0,0.6-0.2,1.2-0.6,1.6
		c-0.4,0.5-0.9,1-1.5,1.2c-0.6,0.3-1.3,0.5-1.9,0.5c-1.2,0.1-2.4-0.4-3.3-1.4c-0.9-1.1-1.3-2.4-1.2-3.7v-0.3c0-0.9,0.2-1.8,0.5-2.6
		c0.3-0.7,0.9-1.3,1.5-1.8c0.7-0.4,1.5-0.7,2.4-0.6c1,0,2,0.3,2.8,1c0.7,0.7,1.2,1.6,1.2,2.6h-1.6c0-0.6-0.3-1.2-0.7-1.6
		c-0.4-0.4-1-0.6-1.6-0.6c-0.8,0-1.5,0.3-2,0.9c-0.5,0.8-0.8,1.8-0.7,2.7v0.3c-0.1,0.9,0.2,1.9,0.7,2.7
		C-7949.2-10108.8-7948.4-10108.5-7947.7-10108.5L-7947.7-10108.5z M-7937.7-10108.5c0.6,0,1.1-0.2,1.6-0.6c0.4-0.3,0.7-0.8,0.8-1.4
		h1.6c0,0.6-0.2,1.2-0.6,1.6c-0.4,0.5-0.9,1-1.5,1.2c-0.6,0.3-1.3,0.5-1.9,0.5c-1.2,0.1-2.4-0.4-3.3-1.4c-0.9-1.1-1.3-2.4-1.2-3.7
		v-0.3c0-0.9,0.2-1.8,0.5-2.6c0.3-0.7,0.9-1.3,1.5-1.8c0.7-0.4,1.5-0.7,2.4-0.6c1,0,2,0.3,2.8,1c0.7,0.7,1.2,1.6,1.2,2.6h-1.6
		c0-0.6-0.3-1.2-0.7-1.6c-0.4-0.4-1-0.6-1.6-0.6c-0.8,0-1.5,0.3-2,0.9c-0.5,0.8-0.8,1.8-0.7,2.7v0.3c-0.1,0.9,0.2,1.9,0.7,2.7
		C-7939.3-10108.8-7938.5-10108.5-7937.7-10108.5L-7937.7-10108.5z M-7929.9-10107.3h-1.7v-10h1.7V-10107.3z M-7931.8-10120
		c0-0.3,0.1-0.5,0.3-0.7c0.2-0.2,0.5-0.3,0.8-0.3s0.6,0.1,0.8,0.3c0.2,0.2,0.3,0.4,0.3,0.7s-0.1,0.5-0.3,0.7
		c-0.2,0.2-0.5,0.3-0.8,0.3s-0.6-0.1-0.8-0.3C-7931.7-10119.5-7931.8-10119.8-7931.8-10120z M-7927.6-10112.4c0-0.9,0.2-1.8,0.6-2.7
		c0.4-0.7,0.9-1.4,1.6-1.8c0.7-0.4,1.5-0.7,2.4-0.6c1.3,0,2.5,0.5,3.3,1.4c0.9,1.1,1.3,2.4,1.3,3.8v0.1c0,0.9-0.2,1.8-0.6,2.6
		c-0.3,0.7-0.9,1.4-1.6,1.8c-0.7,0.4-1.6,0.7-2.4,0.6c-1.3,0-2.5-0.5-3.3-1.4C-7927.2-10109.6-7927.6-10111-7927.6-10112.4
		L-7927.6-10112.4z M-7925.9-10112.2c0,1,0.2,1.9,0.8,2.7c0.5,0.7,1.3,1,2.1,1c0.8,0,1.6-0.4,2.1-1c0.6-0.8,0.8-1.9,0.8-2.9
		s-0.2-1.9-0.8-2.7c-0.5-0.7-1.3-1-2.1-1c-0.8,0-1.6,0.4-2.1,1C-7925.7-10114.3-7926-10113.2-7925.9-10112.2L-7925.9-10112.2z
		 M-7922.3-10121.6h2.1l-2.5,2.7h-1.4L-7922.3-10121.6z M-7914.7-10117.4l0.1,1.3c0.7-0.9,1.8-1.5,3-1.4c2.1,0,3.2,1.2,3.2,3.6v6.6
		h-1.7v-6.6c0-0.6-0.1-1.1-0.5-1.6c-0.4-0.4-1-0.6-1.5-0.5c-0.5,0-1,0.1-1.5,0.4c-0.4,0.3-0.8,0.7-1,1.2v7.1h-1.7v-10
		L-7914.7-10117.4z"/>
	<path class="st14" d="M-7990.5-10087.4c-0.1-1.3,0.3-2.6,1.1-3.7c0.7-0.9,1.7-1.4,2.9-1.4c1.1,0,2.1,0.4,2.8,1.2v-5.2h1.7v14.2
		h-1.6l-0.1-1.1c-0.7,0.8-1.8,1.3-2.9,1.3s-2.2-0.5-2.8-1.4c-0.8-1.1-1.2-2.4-1.1-3.7V-10087.4z M-7988.7-10087.2
		c-0.1,0.9,0.2,1.9,0.7,2.7c0.4,0.6,1.2,1,1.9,1c1,0,2-0.5,2.4-1.5v-4.6c-0.4-0.9-1.4-1.5-2.4-1.4c-0.8,0-1.5,0.3-2,1
		C-7988.6-10089.2-7988.8-10088.2-7988.7-10087.2z M-7975.2-10082.1c-1.2,0-2.5-0.4-3.3-1.3c-0.9-1-1.3-2.3-1.3-3.6v-0.3
		c0-0.9,0.2-1.8,0.6-2.7c0.4-0.8,0.9-1.4,1.6-1.8c0.7-0.4,1.4-0.7,2.2-0.7c1.2-0.1,2.3,0.4,3,1.3c0.8,1.1,1.2,2.4,1.1,3.7v0.7h-6.8
		c0,0.9,0.3,1.7,0.9,2.4c0.5,0.6,1.3,0.9,2.1,0.9c0.5,0,1.1-0.1,1.5-0.4c0.4-0.3,0.8-0.6,1.1-1l1,0.8
		C-7972.2-10082.8-7973.6-10082-7975.2-10082.1z M-7975.4-10091.1c-0.7,0-1.3,0.3-1.7,0.8c-0.5,0.6-0.8,1.3-0.9,2.1h5v-0.1
		c0-0.7-0.2-1.4-0.7-2C-7974.1-10090.9-7974.7-10091.1-7975.4-10091.1L-7975.4-10091.1z M-7960.5-10083.5c0.6,0,1.1-0.2,1.6-0.6
		c0.4-0.3,0.7-0.8,0.8-1.4h1.6c0,0.6-0.2,1.2-0.6,1.6c-0.4,0.5-0.9,1-1.5,1.2c-0.6,0.3-1.3,0.5-1.9,0.5c-1.2,0.1-2.4-0.4-3.3-1.4
		c-0.9-1.1-1.3-2.4-1.2-3.7v-0.3c0-0.9,0.2-1.8,0.5-2.6c0.3-0.7,0.9-1.3,1.5-1.8c0.7-0.4,1.5-0.7,2.4-0.6c1,0,2,0.3,2.8,1
		c0.7,0.7,1.2,1.6,1.2,2.6h-1.6c0-0.6-0.3-1.2-0.7-1.6c-0.4-0.4-1-0.6-1.6-0.6c-0.8,0-1.5,0.3-2,0.9c-0.5,0.8-0.8,1.8-0.7,2.7v0.3
		c-0.1,0.9,0.2,1.9,0.7,2.7C-7962.1-10083.8-7961.3-10083.5-7960.5-10083.5L-7960.5-10083.5z M-7955.1-10087.4
		c0-0.9,0.2-1.8,0.6-2.7c0.4-0.7,0.9-1.4,1.6-1.8c0.7-0.4,1.5-0.7,2.4-0.6c1.3,0,2.5,0.5,3.3,1.4c0.9,1.1,1.3,2.4,1.3,3.8v0.1
		c0,0.9-0.2,1.8-0.6,2.6c-0.3,0.7-0.9,1.4-1.6,1.8c-0.7,0.4-1.6,0.7-2.4,0.6c-1.3,0-2.5-0.5-3.3-1.4
		C-7954.7-10084.6-7955.1-10086-7955.1-10087.4L-7955.1-10087.4z M-7953.3-10087.2c0,1,0.2,1.9,0.8,2.7c0.5,0.7,1.3,1,2.1,1
		c0.8,0,1.6-0.4,2.1-1c0.6-0.8,0.8-1.9,0.8-2.9s-0.2-1.9-0.8-2.7c-0.5-0.7-1.3-1-2.1-1c-0.8,0-1.6,0.4-2.1,1
		C-7953.1-10089.3-7953.4-10088.2-7953.3-10087.2L-7953.3-10087.2z M-7937.9-10085c0-0.4-0.2-0.8-0.5-1.1c-0.6-0.3-1.2-0.6-1.8-0.7
		c-0.7-0.1-1.4-0.4-2.1-0.7c-0.4-0.2-0.8-0.5-1.1-0.9c-0.2-0.4-0.4-0.8-0.4-1.3c0-0.8,0.4-1.6,1-2.1c0.8-0.6,1.7-0.9,2.7-0.9
		s2,0.3,2.8,0.9c0.7,0.5,1.1,1.4,1.1,2.3h-1.7c0-0.5-0.2-0.9-0.6-1.2s-1-0.5-1.5-0.5s-1,0.1-1.5,0.4c-0.3,0.2-0.5,0.6-0.5,1.1
		c0,0.4,0.2,0.7,0.5,0.9c0.6,0.3,1.2,0.5,1.8,0.6c0.7,0.1,1.4,0.4,2.1,0.7c0.5,0.2,0.9,0.5,1.2,1c0.3,0.4,0.4,0.9,0.4,1.4
		c0,0.9-0.4,1.7-1.1,2.2c-0.8,0.6-1.8,0.9-2.8,0.8c-0.7,0-1.5-0.1-2.1-0.4c-0.6-0.3-1.1-0.7-1.5-1.2c-0.3-0.5-0.5-1.1-0.5-1.7h1.7
		c0,0.5,0.3,1,0.7,1.4c0.5,0.4,1.1,0.5,1.7,0.5c0.5,0,1.1-0.1,1.6-0.4C-7938.2-10084.1-7937.9-10084.5-7937.9-10085z
		 M-7931.7-10094.8v2.4h1.9v1.3h-1.9v6.2c0,0.3,0.1,0.6,0.2,0.9c0.2,0.2,0.5,0.3,0.9,0.3c0.3,0,0.5,0,0.8-0.1v1.4
		c-0.4,0.1-0.9,0.2-1.3,0.2c-0.7,0-1.3-0.2-1.7-0.7c-0.4-0.6-0.6-1.3-0.6-2v-6.2h-1.8v-1.3h1.8v-2.4L-7931.7-10094.8
		L-7931.7-10094.8z M-7923.6-10082.1c-1.2,0-2.5-0.4-3.3-1.3c-0.9-1-1.3-2.3-1.3-3.6v-0.3c0-0.9,0.2-1.8,0.6-2.7
		c0.4-0.8,0.9-1.4,1.6-1.8c0.7-0.4,1.4-0.7,2.2-0.7c1.2-0.1,2.3,0.4,3,1.3c0.8,1.1,1.2,2.4,1.1,3.7v0.7h-6.8c0,0.9,0.3,1.7,0.9,2.4
		c0.5,0.6,1.3,0.9,2.1,0.9c0.5,0,1.1-0.1,1.5-0.4c0.4-0.3,0.8-0.6,1.1-1l1,0.8C-7920.7-10082.8-7922.1-10082-7923.6-10082.1z
		 M-7923.8-10091.1c-0.7,0-1.3,0.3-1.7,0.8c-0.5,0.6-0.8,1.3-0.9,2.1h5v-0.1c0-0.7-0.2-1.4-0.7-2
		C-7922.6-10090.9-7923.2-10091.1-7923.8-10091.1L-7923.8-10091.1z M-7911.9-10085c0-0.4-0.2-0.8-0.5-1.1c-0.6-0.3-1.2-0.6-1.8-0.7
		c-0.7-0.1-1.4-0.4-2.1-0.7c-0.4-0.2-0.8-0.5-1.1-0.9c-0.3-0.4-0.4-0.8-0.4-1.3c0-0.8,0.4-1.6,1-2.1c0.8-0.6,1.7-0.9,2.7-0.9
		s2,0.3,2.8,0.9c0.7,0.5,1.1,1.4,1.1,2.3h-1.7c0-0.5-0.2-0.9-0.6-1.2s-1-0.5-1.5-0.5s-1,0.1-1.5,0.4c-0.3,0.2-0.5,0.6-0.5,1.1
		c0,0.4,0.2,0.7,0.5,0.9c0.6,0.3,1.2,0.5,1.8,0.6c0.7,0.1,1.4,0.4,2.1,0.7c0.5,0.2,0.9,0.5,1.2,1c0.3,0.4,0.4,0.9,0.4,1.4
		c0,0.9-0.4,1.7-1.1,2.2c-0.8,0.6-1.8,0.9-2.8,0.8c-0.7,0-1.5-0.1-2.1-0.4c-0.6-0.3-1.1-0.7-1.5-1.2c-0.3-0.5-0.5-1.1-0.5-1.7h1.7
		c0,0.5,0.3,1,0.7,1.4c0.5,0.4,1.1,0.5,1.7,0.5c0.5,0,1.1-0.1,1.6-0.4C-7912.1-10084.1-7911.9-10084.5-7911.9-10085z"/>
	<path class="st14" d="M-7562.6-9981.5c-0.1,1.3-0.6,2.4-1.6,3.3c-1,0.8-2.3,1.2-3.5,1.2c-1.5,0.1-2.9-0.6-3.8-1.7
		c-1-1.3-1.5-2.9-1.4-4.6v-1.3c0-1.1,0.2-2.3,0.7-3.3c0.4-0.9,1.1-1.7,1.9-2.2c0.9-0.5,1.9-0.8,2.9-0.8c1.3-0.1,2.5,0.4,3.5,1.2
		c0.9,0.9,1.4,2.1,1.5,3.3h-1.8c-0.1-0.9-0.4-1.7-1-2.3c-0.6-0.5-1.4-0.8-2.2-0.7c-1,0-2,0.4-2.7,1.3c-0.7,1.1-1,2.3-1,3.6v1.3
		c-0.1,1.2,0.3,2.5,0.9,3.5c0.6,0.8,1.5,1.3,2.6,1.3c0.8,0.1,1.6-0.2,2.3-0.7c0.6-0.6,1-1.5,1.1-2.3L-7562.6-9981.5L-7562.6-9981.5z
		 M-7560.9-9982.4c0-0.9,0.2-1.8,0.6-2.7c0.4-0.7,0.9-1.4,1.6-1.8c0.7-0.4,1.5-0.7,2.4-0.6c1.3,0,2.5,0.5,3.3,1.4
		c0.9,1.1,1.3,2.4,1.3,3.8v0.1c0,0.9-0.2,1.8-0.6,2.6c-0.3,0.7-0.9,1.4-1.6,1.8c-0.7,0.4-1.6,0.7-2.4,0.6c-1.3,0-2.5-0.5-3.3-1.4
		C-7560.5-9979.6-7560.9-9981-7560.9-9982.4L-7560.9-9982.4z M-7559.1-9982.2c0,1,0.2,1.9,0.8,2.7c0.5,0.7,1.3,1,2.1,1
		c0.8,0,1.6-0.4,2.1-1c0.6-0.8,0.8-1.9,0.8-2.9s-0.2-1.9-0.8-2.7c-0.5-0.7-1.3-1-2.1-1c-0.8,0-1.6,0.4-2.1,1
		C-7558.9-9984.2-7559.2-9983.2-7559.1-9982.2L-7559.1-9982.2z M-7548-9987.3l0.1,1.3c0.7-0.9,1.8-1.5,3-1.4c2.1,0,3.2,1.2,3.2,3.6
		v6.6h-1.7v-6.6c0-0.6-0.1-1.1-0.5-1.6c-0.4-0.4-1-0.6-1.5-0.5c-0.5,0-1,0.1-1.5,0.4c-0.4,0.3-0.8,0.7-1,1.2v7.1h-1.7v-10
		L-7548-9987.3z M-7535.8-9979.6l2.5-7.7h1.8l-3.6,10h-1.3l-3.6-10h1.8L-7535.8-9979.6z M-7525.9-9977.1c-1.2,0-2.5-0.4-3.3-1.3
		c-0.9-1-1.3-2.3-1.3-3.6v-0.3c0-0.9,0.2-1.8,0.6-2.7c0.4-0.8,0.9-1.4,1.6-1.8c0.7-0.4,1.4-0.7,2.2-0.7c1.2-0.1,2.3,0.4,3,1.3
		c0.8,1.1,1.2,2.4,1.1,3.7v0.7h-6.8c0,0.9,0.3,1.7,0.9,2.4c0.5,0.6,1.3,0.9,2.1,0.9c0.5,0,1.1-0.1,1.5-0.4c0.4-0.3,0.8-0.6,1.1-1
		l1,0.8C-7522.9-9977.7-7524.4-9977-7525.9-9977.1z M-7526.1-9986.1c-0.7,0-1.3,0.3-1.7,0.8c-0.5,0.6-0.8,1.3-0.9,2.1h5v-0.1
		c0-0.7-0.2-1.4-0.7-2C-7524.9-9985.8-7525.5-9986.1-7526.1-9986.1L-7526.1-9986.1z M-7518.4-9987.3l0.1,1.3c0.7-0.9,1.8-1.5,3-1.4
		c2.1,0,3.2,1.2,3.2,3.6v6.6h-1.7v-6.6c0-0.6-0.1-1.1-0.5-1.6c-0.4-0.4-1-0.6-1.5-0.5c-0.5,0-1,0.1-1.5,0.4c-0.4,0.3-0.8,0.7-1,1.2
		v7.1h-1.7v-10L-7518.4-9987.3z M-7507.7-9977.2h-1.7v-10h1.7V-9977.2z M-7509.5-9989.9c0-0.3,0.1-0.5,0.3-0.7
		c0.2-0.2,0.5-0.3,0.8-0.3s0.6,0.1,0.8,0.3c0.2,0.2,0.3,0.4,0.3,0.7s-0.1,0.5-0.3,0.7c-0.2,0.2-0.5,0.3-0.8,0.3s-0.6-0.1-0.8-0.3
		S-7509.5-9989.7-7509.5-9989.9z M-7500.8-9977.1c-1.2,0-2.5-0.4-3.3-1.3c-0.9-1-1.3-2.3-1.3-3.6v-0.3c0-0.9,0.2-1.8,0.6-2.7
		c0.4-0.8,0.9-1.4,1.6-1.8c0.7-0.4,1.4-0.7,2.2-0.7c1.2-0.1,2.3,0.4,3,1.3c0.8,1.1,1.2,2.4,1.1,3.7v0.7h-6.8c0,0.9,0.3,1.7,0.9,2.4
		c0.5,0.6,1.3,0.9,2.1,0.9c0.5,0,1.1-0.1,1.5-0.4c0.4-0.3,0.8-0.6,1.1-1l1,0.8C-7497.8-9977.7-7499.2-9977-7500.8-9977.1z
		 M-7501-9986.1c-0.7,0-1.3,0.3-1.7,0.8c-0.5,0.6-0.8,1.3-0.9,2.1h5v-0.1c0-0.7-0.2-1.4-0.7-2
		C-7499.7-9985.8-7500.3-9986.1-7501-9986.1L-7501-9986.1z M-7493.2-9987.3l0.1,1.3c0.7-0.9,1.8-1.5,3-1.4c2.1,0,3.2,1.2,3.2,3.6
		v6.6h-1.7v-6.6c0-0.6-0.1-1.1-0.5-1.6c-0.4-0.4-1-0.6-1.5-0.5c-0.5,0-1,0.1-1.5,0.4c-0.4,0.3-0.8,0.7-1,1.2v7.1h-1.7v-10
		L-7493.2-9987.3z M-7480.3-9978.5c0.6,0,1.1-0.2,1.6-0.6c0.4-0.3,0.7-0.8,0.8-1.4h1.6c0,0.6-0.2,1.2-0.6,1.6
		c-0.4,0.5-0.9,1-1.5,1.2c-0.6,0.3-1.3,0.5-1.9,0.5c-1.2,0.1-2.4-0.4-3.3-1.4c-0.9-1.1-1.3-2.4-1.2-3.7v-0.3c0-0.9,0.2-1.8,0.5-2.6
		c0.3-0.7,0.9-1.3,1.5-1.8c0.7-0.4,1.5-0.7,2.4-0.6c1,0,2,0.3,2.8,1c0.7,0.7,1.2,1.6,1.2,2.6h-1.6c0-0.6-0.3-1.2-0.7-1.6
		c-0.4-0.4-1-0.6-1.6-0.6c-0.8,0-1.5,0.3-2,0.9c-0.5,0.8-0.8,1.8-0.7,2.7v0.3c-0.1,0.9,0.2,1.9,0.7,2.7
		C-7481.9-9978.8-7481.1-9978.4-7480.3-9978.5z M-7472.6-9977.2h-1.7v-10h1.7V-9977.2z M-7474.4-9989.9c0-0.3,0.1-0.5,0.3-0.7
		c0.2-0.2,0.5-0.3,0.8-0.3s0.6,0.1,0.8,0.3c0.2,0.2,0.3,0.4,0.3,0.7s-0.1,0.5-0.3,0.7c-0.2,0.2-0.5,0.3-0.8,0.3s-0.6-0.1-0.8-0.3
		S-7474.4-9989.7-7474.4-9989.9z M-7463.6-9977.2c-0.1-0.3-0.2-0.7-0.2-1.1c-0.7,0.8-1.8,1.3-2.9,1.2c-0.9,0-1.8-0.3-2.4-0.8
		s-1-1.3-1-2.1c0-1,0.4-1.9,1.2-2.4c1-0.6,2.2-0.9,3.4-0.9h1.7v-0.8c0-0.5-0.2-1-0.5-1.4c-0.4-0.4-1-0.6-1.6-0.5
		c-0.6,0-1.1,0.1-1.5,0.5c-0.4,0.2-0.6,0.7-0.6,1.1h-1.7c0-0.5,0.2-1,0.5-1.5c0.4-0.5,0.9-0.9,1.4-1.1c0.6-0.3,1.3-0.4,2-0.4
		c1-0.1,2,0.3,2.7,0.9c0.7,0.6,1,1.5,1,2.4v4.6c0,0.7,0.1,1.5,0.4,2.2v0.1H-7463.6z M-7466.5-9978.6c0.5,0,1.1-0.1,1.5-0.4
		c0.5-0.2,0.8-0.6,1-1.1v-2.1h-1.3c-2.1,0-3.2,0.6-3.2,1.8c0,0.5,0.2,0.9,0.5,1.3C-7467.5-9978.7-7467-9978.5-7466.5-9978.6z"/>
	<path class="st14" d="M-7946.1-9982.7h-3.2v5.5h-1.8v-13.5h4.5c1.3-0.1,2.5,0.3,3.5,1c0.9,0.8,1.3,1.9,1.2,3c0,0.8-0.2,1.6-0.7,2.2
		c-0.5,0.6-1.1,1.1-1.9,1.4l3.2,5.7v0.1h-1.9L-7946.1-9982.7z M-7949.3-9984.2h2.7c0.8,0,1.5-0.2,2.1-0.7c0.5-0.5,0.8-1.1,0.8-1.8
		s-0.2-1.4-0.7-1.9c-0.6-0.5-1.4-0.7-2.2-0.7h-2.7L-7949.3-9984.2L-7949.3-9984.2z M-7935.5-9977.1c-1.2,0-2.5-0.4-3.3-1.3
		c-0.9-1-1.3-2.3-1.3-3.6v-0.3c0-0.9,0.2-1.8,0.6-2.7c0.4-0.8,0.9-1.4,1.6-1.8c0.7-0.4,1.4-0.7,2.2-0.7c1.2-0.1,2.3,0.4,3,1.3
		c0.8,1.1,1.2,2.4,1.1,3.7v0.7h-6.8c0,0.9,0.3,1.7,0.9,2.4c0.5,0.6,1.3,0.9,2.1,0.9c0.5,0,1.1-0.1,1.5-0.4c0.4-0.3,0.8-0.6,1.1-1
		l1,0.8C-7932.5-9977.7-7933.9-9977-7935.5-9977.1z M-7935.7-9986.1c-0.7,0-1.3,0.3-1.7,0.8c-0.5,0.6-0.8,1.3-0.9,2.1h5v-0.1
		c0-0.7-0.2-1.4-0.7-2C-7934.4-9985.8-7935-9986.1-7935.7-9986.1L-7935.7-9986.1z M-7930-9982.3c-0.1-1.3,0.3-2.6,1.1-3.7
		c0.7-0.9,1.7-1.4,2.9-1.4c1.1,0,2.1,0.4,2.8,1.2v-5.2h1.7v14.2h-1.6l-0.1-1.1c-0.7,0.8-1.8,1.3-2.9,1.3s-2.2-0.5-2.8-1.4
		c-0.8-1.1-1.2-2.4-1.1-3.7V-9982.3z M-7928.3-9982.2c-0.1,0.9,0.2,1.9,0.7,2.7c0.4,0.6,1.2,1,1.9,1c1,0,2-0.5,2.4-1.5v-4.6
		c-0.4-0.9-1.4-1.5-2.4-1.4c-0.8,0-1.5,0.3-2,1C-7928.1-9984.2-7928.3-9983.2-7928.3-9982.2L-7928.3-9982.2z M-7912.6-9978.2
		c-0.7,0.8-1.8,1.3-2.9,1.2c-0.9,0.1-1.8-0.3-2.4-0.9c-0.6-0.8-0.9-1.8-0.8-2.8v-6.5h1.7v6.5c0,1.5,0.6,2.3,1.9,2.3
		c1.1,0.1,2.2-0.5,2.6-1.5v-7.3h1.7v10h-1.6L-7912.6-9978.2z M-7904.3-9978.5c0.6,0,1.1-0.2,1.6-0.6c0.4-0.3,0.7-0.8,0.8-1.4h1.6
		c0,0.6-0.2,1.2-0.6,1.6c-0.4,0.5-0.9,1-1.5,1.2c-0.6,0.3-1.3,0.5-1.9,0.5c-1.2,0.1-2.4-0.4-3.3-1.4c-0.9-1.1-1.3-2.4-1.2-3.7v-0.3
		c0-0.9,0.2-1.8,0.5-2.6c0.3-0.7,0.9-1.3,1.5-1.8c0.7-0.4,1.5-0.7,2.4-0.6c1,0,2,0.3,2.8,1c0.7,0.7,1.2,1.6,1.2,2.6h-1.6
		c0-0.6-0.3-1.2-0.7-1.6c-0.4-0.4-1-0.6-1.6-0.6c-0.8,0-1.5,0.3-2,0.9c-0.5,0.8-0.8,1.8-0.7,2.7v0.3c-0.1,0.9,0.2,1.9,0.7,2.7
		C-7905.9-9978.8-7905.1-9978.4-7904.3-9978.5L-7904.3-9978.5z M-7894.4-9978.5c0.6,0,1.1-0.2,1.6-0.6c0.4-0.3,0.7-0.8,0.8-1.4h1.6
		c0,0.6-0.2,1.2-0.6,1.6c-0.4,0.5-0.9,1-1.5,1.2c-0.6,0.3-1.3,0.5-1.9,0.5c-1.2,0.1-2.4-0.4-3.3-1.4c-0.9-1.1-1.3-2.4-1.2-3.7v-0.3
		c0-0.9,0.2-1.8,0.5-2.6c0.3-0.7,0.9-1.3,1.5-1.8c0.7-0.4,1.5-0.7,2.4-0.6c1,0,2,0.3,2.8,1c0.7,0.7,1.2,1.6,1.2,2.6h-1.6
		c0-0.6-0.3-1.2-0.7-1.6c-0.4-0.4-1-0.6-1.6-0.6c-0.8,0-1.5,0.3-2,0.9c-0.5,0.8-0.8,1.8-0.7,2.7v0.3c-0.1,0.9,0.2,1.9,0.7,2.7
		C-7896-9978.8-7895.2-9978.4-7894.4-9978.5L-7894.4-9978.5z M-7886.6-9977.2h-1.7v-10h1.7V-9977.2z M-7888.5-9989.9
		c0-0.3,0.1-0.5,0.3-0.7c0.2-0.2,0.5-0.3,0.8-0.3s0.6,0.1,0.8,0.3c0.2,0.2,0.3,0.4,0.3,0.7s-0.1,0.5-0.3,0.7
		c-0.2,0.2-0.5,0.3-0.8,0.3s-0.6-0.1-0.8-0.3S-7888.5-9989.7-7888.5-9989.9z M-7884.3-9982.4c0-0.9,0.2-1.8,0.6-2.7
		c0.4-0.7,0.9-1.4,1.6-1.8c0.7-0.4,1.5-0.7,2.4-0.6c1.3,0,2.5,0.5,3.3,1.4c0.9,1.1,1.3,2.4,1.3,3.8v0.1c0,0.9-0.2,1.8-0.6,2.6
		c-0.3,0.7-0.9,1.4-1.6,1.8c-0.7,0.4-1.6,0.7-2.4,0.6c-1.3,0-2.5-0.5-3.3-1.4C-7883.9-9979.6-7884.3-9981-7884.3-9982.4
		L-7884.3-9982.4z M-7882.6-9982.2c0,1,0.2,1.9,0.8,2.7c0.5,0.7,1.3,1,2.1,1c0.8,0,1.6-0.4,2.1-1c0.6-0.8,0.8-1.9,0.8-2.9
		s-0.2-1.9-0.8-2.7c-0.5-0.7-1.3-1-2.1-1c-0.8,0-1.6,0.4-2.1,1C-7882.4-9984.2-7882.7-9983.2-7882.6-9982.2L-7882.6-9982.2z
		 M-7879-9991.5h2.1l-2.5,2.7h-1.4L-7879-9991.5z M-7871.4-9987.3l0.1,1.3c0.7-0.9,1.8-1.5,3-1.4c2.1,0,3.2,1.2,3.2,3.6v6.6h-1.7
		v-6.6c0-0.6-0.1-1.1-0.5-1.6c-0.4-0.4-1-0.6-1.5-0.5c-0.5,0-1,0.1-1.5,0.4c-0.4,0.3-0.8,0.7-1,1.2v7.1h-1.7v-10L-7871.4-9987.3z"/>
	<path class="st14" d="M-7944.5-9957.3c-0.1-1.3,0.3-2.6,1.1-3.7c0.7-0.9,1.7-1.4,2.9-1.4c1.1,0,2.1,0.4,2.8,1.2v-5.2h1.7v14.2h-1.6
		l-0.1-1.1c-0.7,0.8-1.8,1.3-2.9,1.3s-2.2-0.5-2.8-1.4c-0.8-1.1-1.2-2.4-1.1-3.7V-9957.3z M-7942.8-9957.1c-0.1,0.9,0.2,1.9,0.7,2.7
		c0.4,0.6,1.2,1,1.9,1c1,0,2-0.5,2.4-1.5v-4.6c-0.4-0.9-1.4-1.5-2.4-1.4c-0.8,0-1.5,0.3-2,1
		C-7942.6-9959.2-7942.9-9958.2-7942.8-9957.1z M-7929.2-9952.1c-1.2,0-2.5-0.4-3.3-1.3c-0.9-1-1.3-2.3-1.3-3.6v-0.3
		c0-0.9,0.2-1.8,0.6-2.7c0.4-0.8,0.9-1.4,1.6-1.8c0.7-0.4,1.4-0.7,2.2-0.7c1.2-0.1,2.3,0.4,3,1.3c0.8,1.1,1.2,2.4,1.1,3.7v0.7h-6.8
		c0,0.9,0.3,1.7,0.9,2.4c0.5,0.6,1.3,0.9,2.1,0.9c0.5,0,1.1-0.1,1.5-0.4c0.4-0.3,0.8-0.6,1.1-1l1,0.8
		C-7926.2-9952.7-7927.7-9952-7929.2-9952.1z M-7929.4-9961.1c-0.7,0-1.3,0.3-1.7,0.8c-0.5,0.6-0.8,1.3-0.9,2.1h5v-0.1
		c0-0.7-0.2-1.4-0.7-2C-7928.2-9960.8-7928.8-9961.1-7929.4-9961.1L-7929.4-9961.1z M-7913.8-9960.7c-0.3,0-0.6-0.1-0.8-0.1
		c-1-0.1-1.9,0.5-2.3,1.4v7.1h-1.7v-10h1.7v1.2c0.5-0.9,1.4-1.4,2.4-1.3c0.3,0,0.5,0,0.8,0.1L-7913.8-9960.7z M-7910.3-9952.2h-1.7
		v-10h1.7V-9952.2z M-7912.2-9964.9c0-0.3,0.1-0.5,0.3-0.7c0.2-0.2,0.5-0.3,0.8-0.3s0.6,0.1,0.8,0.3c0.2,0.2,0.3,0.4,0.3,0.7
		s-0.1,0.5-0.3,0.7c-0.2,0.2-0.5,0.3-0.8,0.3s-0.6-0.1-0.8-0.3S-7912.2-9964.7-7912.2-9964.9z M-7903.4-9952.1
		c-1.2,0-2.5-0.4-3.3-1.3c-0.9-1-1.3-2.3-1.3-3.6v-0.3c0-0.9,0.2-1.8,0.6-2.7c0.4-0.8,0.9-1.4,1.6-1.8c0.7-0.4,1.4-0.7,2.2-0.7
		c1.2-0.1,2.3,0.4,3,1.3c0.8,1.1,1.2,2.4,1.1,3.7v0.7h-6.8c0,0.9,0.3,1.7,0.9,2.4c0.5,0.6,1.3,0.9,2.1,0.9c0.5,0,1.1-0.1,1.5-0.4
		c0.4-0.3,0.8-0.6,1.1-1l1,0.8C-7900.4-9952.7-7901.9-9952-7903.4-9952.1z M-7903.6-9961.1c-0.7,0-1.3,0.3-1.7,0.8
		c-0.5,0.6-0.8,1.3-0.9,2.1h5v-0.1c0-0.7-0.2-1.4-0.7-2C-7902.3-9960.8-7903-9961.1-7903.6-9961.1L-7903.6-9961.1z M-7891.7-9954.9
		c0-0.4-0.2-0.8-0.5-1.1c-0.6-0.3-1.2-0.6-1.8-0.7c-0.7-0.1-1.4-0.4-2.1-0.7c-0.4-0.2-0.8-0.5-1.1-0.9c-0.3-0.4-0.4-0.8-0.4-1.3
		c0-0.8,0.4-1.6,1-2.1c0.8-0.6,1.7-0.9,2.7-0.9s2,0.3,2.8,0.9c0.7,0.5,1.1,1.4,1.1,2.3h-1.7c0-0.5-0.2-0.9-0.6-1.2s-1-0.5-1.5-0.5
		s-1,0.1-1.5,0.4c-0.3,0.2-0.5,0.6-0.5,1.1c0,0.4,0.2,0.7,0.5,0.9c0.6,0.3,1.2,0.5,1.8,0.6c0.7,0.1,1.4,0.4,2.1,0.7
		c0.5,0.2,0.9,0.5,1.2,1c0.3,0.4,0.4,0.9,0.4,1.4c0,0.9-0.4,1.7-1.1,2.2c-0.8,0.6-1.8,0.9-2.8,0.8c-0.7,0-1.5-0.1-2.1-0.4
		c-0.6-0.3-1.1-0.7-1.4-1.2s-0.5-1.1-0.5-1.7h1.7c0,0.5,0.3,1,0.7,1.4c0.5,0.4,1.1,0.5,1.7,0.5c0.5,0,1.1-0.1,1.6-0.4
		C-7891.9-9954.1-7891.7-9954.5-7891.7-9954.9z M-7888.1-9957.3c-0.1-1.3,0.3-2.6,1.1-3.7c0.7-0.9,1.7-1.4,2.9-1.4
		c1.1-0.1,2.2,0.4,2.9,1.3l0.1-1.1h1.6v9.8c0.1,1.1-0.4,2.2-1.2,3.1c-0.8,0.8-2,1.2-3.1,1.1c-0.7,0-1.5-0.2-2.1-0.5
		s-1.2-0.7-1.6-1.3l0.9-1c0.6,0.9,1.6,1.4,2.7,1.4c0.7,0,1.4-0.2,2-0.7c0.5-0.5,0.7-1.3,0.7-2v-0.9c-0.7,0.8-1.7,1.2-2.8,1.2
		c-1.1,0-2.2-0.5-2.9-1.4C-7887.8-9954.6-7888.2-9956-7888.1-9957.3z M-7886.4-9957.1c-0.1,0.9,0.2,1.9,0.7,2.7c0.4,0.6,1.2,1,1.9,1
		c1,0,2-0.5,2.4-1.5v-4.6c-0.4-0.9-1.4-1.5-2.4-1.4c-0.8,0-1.5,0.3-2,1C-7886.2-9959.2-7886.5-9958.2-7886.4-9957.1z
		 M-7877.5-9957.3c0-0.9,0.2-1.8,0.6-2.7c0.4-0.7,0.9-1.4,1.6-1.8c0.7-0.4,1.5-0.7,2.4-0.6c1.3,0,2.5,0.5,3.3,1.4
		c0.9,1.1,1.3,2.4,1.3,3.8v0.1c0,0.9-0.2,1.8-0.6,2.6c-0.3,0.7-0.9,1.4-1.6,1.8c-0.7,0.4-1.6,0.7-2.4,0.6c-1.3,0-2.5-0.5-3.3-1.4
		C-7877.1-9954.5-7877.5-9955.9-7877.5-9957.3L-7877.5-9957.3z M-7875.8-9957.1c0,1,0.2,1.9,0.8,2.7c0.5,0.7,1.3,1,2.1,1
		c0.8,0,1.6-0.4,2.1-1c0.6-0.8,0.8-1.9,0.8-2.9s-0.2-1.9-0.8-2.7c-0.5-0.7-1.3-1-2.1-1c-0.8,0-1.6,0.4-2,1
		C-7875.6-9959.2-7875.8-9958.2-7875.8-9957.1L-7875.8-9957.1z"/>
	<path class="st14" d="M-7656.4-9899.1l4.6,11.6l4.6-11.6h2.4v14.2h-1.9v-5.5l0.2-6l-4.7,11.5h-1.4l-4.7-11.5l0.2,5.9v5.5h-1.9
		v-14.2L-7656.4-9899.1L-7656.4-9899.1z M-7635.1-9884.9c-0.1-0.4-0.2-0.7-0.3-1.1c-0.8,0.8-1.9,1.3-3,1.3c-0.9,0-1.8-0.3-2.6-0.9
		c-0.7-0.6-1-1.4-1-2.2c0-1,0.4-2,1.3-2.6c1.1-0.7,2.3-1,3.5-0.9h1.8v-0.8c0-0.6-0.2-1.1-0.6-1.5c-0.5-0.4-1.1-0.6-1.7-0.6
		s-1.1,0.2-1.6,0.5c-0.4,0.3-0.6,0.7-0.7,1.2h-1.8c0-0.6,0.2-1.1,0.6-1.5c0.4-0.5,0.9-0.9,1.5-1.2c0.7-0.3,1.4-0.4,2.1-0.4
		c1-0.1,2.1,0.3,2.9,0.9c0.7,0.6,1.1,1.6,1.1,2.5v4.9c0,0.8,0.1,1.6,0.4,2.3v0.2h-1.9L-7635.1-9884.9L-7635.1-9884.9z
		 M-7638.1-9886.2c0.6,0,1.1-0.2,1.6-0.4c0.5-0.3,0.9-0.7,1.1-1.1v-2.2h-1.4c-2.2,0-3.3,0.6-3.3,1.9c0,0.5,0.2,1,0.6,1.3
		C-7639.1-9886.4-7638.6-9886.2-7638.1-9886.2L-7638.1-9886.2z"/>
	<path class="st14" d="M-7625.3-9893.7c-0.3,0-0.6-0.1-0.9-0.1c-1-0.1-2,0.5-2.4,1.5v7.5h-1.8v-10.7h1.8v1.3
		c0.5-0.9,1.5-1.5,2.5-1.4c0.3,0,0.5,0,0.8,0.1V-9893.7z"/>
	<path class="st14" d="M-7618.7-9886.1c0.6,0,1.2-0.2,1.7-0.6c0.5-0.4,0.8-0.9,0.8-1.5h1.7c0,0.6-0.3,1.2-0.6,1.7
		c-0.4,0.6-0.9,1-1.5,1.3s-1.3,0.5-2,0.5c-1.3,0.1-2.6-0.5-3.4-1.4c-0.9-1.1-1.4-2.5-1.3-3.9v-0.3c0-0.9,0.2-1.9,0.6-2.7
		c0.3-0.8,0.9-1.4,1.6-1.9c0.8-0.5,1.6-0.7,2.5-0.7c1.1,0,2.1,0.3,3,1.1c0.8,0.7,1.2,1.7,1.2,2.8h-1.7c0-0.6-0.3-1.2-0.8-1.7
		c-0.5-0.4-1.1-0.7-1.7-0.7c-0.8,0-1.6,0.3-2.1,1c-0.6,0.8-0.8,1.9-0.8,2.9v0.3c-0.1,1,0.2,2,0.8,2.8
		C-7620.3-9886.5-7619.5-9886.1-7618.7-9886.1z M-7605.9-9884.9c-0.1-0.4-0.2-0.7-0.3-1.1c-0.8,0.8-1.9,1.3-3,1.3
		c-0.9,0-1.9-0.3-2.6-0.9c-0.7-0.6-1-1.4-1-2.2c0-1,0.4-2,1.3-2.6c1.1-0.7,2.3-1,3.5-0.9h1.8v-0.8c0-0.6-0.2-1.1-0.6-1.5
		c-0.5-0.4-1.1-0.6-1.7-0.6s-1.1,0.2-1.6,0.5c-0.4,0.3-0.6,0.7-0.7,1.2h-1.8c0-0.6,0.2-1.1,0.6-1.5c0.4-0.5,0.9-0.9,1.5-1.2
		c0.7-0.3,1.4-0.4,2.1-0.4c1-0.1,2.1,0.3,2.9,0.9c0.7,0.6,1.1,1.6,1.1,2.5v4.9c0,0.8,0.1,1.6,0.4,2.3v0.2h-1.9L-7605.9-9884.9
		L-7605.9-9884.9z M-7608.9-9886.2c0.6,0,1.1-0.2,1.6-0.4c0.5-0.3,0.9-0.7,1.1-1.1v-2.2h-1.4c-2.2,0-3.3,0.6-3.3,1.9
		c0,0.5,0.2,1,0.6,1.3C-7609.9-9886.4-7609.4-9886.2-7608.9-9886.2L-7608.9-9886.2z"/>
	<path class="st14" d="M-7664.7-9859.7h-1.5l5.6-14.7h1.5L-7664.7-9859.7z M-7652.9-9866.9c-1.2-0.3-2.4-0.8-3.3-1.6
		c-0.7-0.6-1.1-1.5-1-2.4c0-1,0.5-2,1.3-2.6c0.9-0.7,2.1-1.1,3.3-1c0.9,0,1.7,0.2,2.5,0.5c0.7,0.3,1.3,0.8,1.7,1.5
		c0.4,0.6,0.6,1.3,0.6,2.1h-1.8c0-0.7-0.2-1.4-0.8-1.9c-0.6-0.5-1.4-0.8-2.2-0.7c-0.7,0-1.5,0.2-2.1,0.6c-0.5,0.4-0.8,1-0.7,1.6
		c0,0.6,0.3,1.1,0.7,1.4c0.7,0.5,1.5,0.8,2.4,1s1.8,0.6,2.6,1c0.6,0.3,1.1,0.8,1.4,1.3s0.5,1.2,0.5,1.8c0,1-0.4,2-1.3,2.6
		c-1,0.7-2.2,1.1-3.4,1c-0.9,0-1.8-0.2-2.6-0.5c-0.7-0.3-1.4-0.8-1.9-1.5c-0.4-0.6-0.7-1.4-0.7-2.1h1.8c0,0.8,0.3,1.5,0.9,1.9
		c0.7,0.5,1.6,0.8,2.4,0.7c0.8,0,1.5-0.2,2.2-0.6c0.5-0.4,0.8-1,0.8-1.6s-0.2-1.2-0.7-1.5C-7651.2-9866.3-7652-9866.7-7652.9-9866.9
		z M-7643.6-9873.3v2.4h1.9v1.3h-1.9v6.2c0,0.3,0.1,0.6,0.2,0.9c0.2,0.2,0.5,0.3,0.9,0.3c0.3,0,0.5,0,0.8-0.1v1.4
		c-0.4,0.1-0.9,0.2-1.3,0.2c-0.7,0-1.3-0.2-1.7-0.7c-0.4-0.6-0.6-1.3-0.6-2v-6.2h-1.8v-1.3h1.8v-2.4L-7643.6-9873.3L-7643.6-9873.3z
		 M-7633.5-9860.9c-0.1-0.3-0.2-0.7-0.2-1.1c-0.7,0.8-1.8,1.3-2.9,1.2c-0.9,0-1.8-0.3-2.4-0.8s-1-1.3-1-2.1c0-1,0.4-1.9,1.2-2.4
		c1-0.6,2.2-0.9,3.4-0.9h1.7v-0.8c0-0.5-0.2-1.1-0.5-1.4c-0.4-0.4-1-0.6-1.6-0.5c-0.6,0-1.1,0.1-1.5,0.5c-0.4,0.2-0.6,0.7-0.6,1.1
		h-1.7c0-0.5,0.2-1,0.5-1.5c0.4-0.5,0.9-0.9,1.4-1.1c0.6-0.3,1.3-0.4,2-0.4c1-0.1,2,0.3,2.7,0.9c0.7,0.6,1,1.5,1,2.4v4.6
		c0,0.7,0.1,1.5,0.4,2.2v0.1H-7633.5z M-7636.3-9862.2c0.5,0,1.1-0.1,1.5-0.4c0.5-0.2,0.8-0.6,1-1.1v-2.1h-1.3
		c-2.1,0-3.2,0.6-3.2,1.8c0,0.5,0.2,0.9,0.5,1.3C-7637.3-9862.3-7636.8-9862.1-7636.3-9862.2z M-7627-9873.3v2.4h1.9v1.3h-1.9v6.2
		c0,0.3,0.1,0.6,0.2,0.9c0.2,0.2,0.5,0.3,0.9,0.3c0.3,0,0.5,0,0.8-0.1v1.4c-0.4,0.1-0.9,0.2-1.3,0.2c-0.7,0-1.3-0.2-1.7-0.7
		c-0.4-0.6-0.6-1.3-0.6-2v-6.2h-1.8v-1.3h1.8v-2.4L-7627-9873.3L-7627-9873.3z M-7617-9861.9c-0.7,0.8-1.8,1.3-2.9,1.2
		c-0.9,0.1-1.8-0.3-2.4-0.9c-0.6-0.8-0.9-1.8-0.8-2.8v-6.5h1.7v6.5c0,1.5,0.6,2.3,1.9,2.3c1.1,0.1,2.2-0.5,2.6-1.5v-7.3h1.7v10h-1.6
		L-7617-9861.9z M-7606.8-9863.5c0-0.4-0.2-0.8-0.5-1.1c-0.6-0.3-1.2-0.6-1.8-0.7c-0.7-0.1-1.4-0.4-2.1-0.7
		c-0.4-0.2-0.8-0.5-1.1-0.9c-0.2-0.4-0.4-0.8-0.4-1.3c0-0.8,0.4-1.6,1-2.1c0.8-0.6,1.7-0.9,2.7-0.9s2,0.3,2.8,0.9
		c0.7,0.5,1.1,1.4,1.1,2.3h-1.7c0-0.5-0.2-0.9-0.6-1.2s-1-0.5-1.5-0.5s-1,0.1-1.5,0.4c-0.3,0.2-0.5,0.6-0.5,1.1
		c0,0.4,0.2,0.7,0.5,0.9c0.6,0.3,1.2,0.5,1.8,0.6c0.7,0.1,1.4,0.4,2.1,0.7c0.5,0.2,0.9,0.5,1.2,1c0.3,0.4,0.4,0.9,0.4,1.4
		c0,0.9-0.4,1.7-1.1,2.2c-0.8,0.6-1.8,0.9-2.8,0.8c-0.7,0-1.5-0.1-2.1-0.4c-0.6-0.3-1.1-0.7-1.5-1.2c-0.3-0.5-0.5-1.1-0.5-1.7h1.7
		c0,0.5,0.3,1,0.7,1.4c0.5,0.4,1.1,0.5,1.7,0.5c0.5,0,1.1-0.1,1.6-0.4C-7607.1-9862.7-7606.8-9863.1-7606.8-9863.5z"/>
	<path class="st14" d="M-7840.5-9885.9v-13.5h3.8c1.1,0,2.2,0.2,3.1,0.8c0.9,0.5,1.6,1.3,2.1,2.2c0.5,1,0.8,2.2,0.7,3.3v0.9
		c0,1.2-0.2,2.3-0.7,3.3c-0.5,0.9-1.2,1.7-2.1,2.2c-1,0.5-2.1,0.8-3.2,0.8H-7840.5z M-7838.7-9897.9v10.6h1.9
		c1.2,0.1,2.4-0.4,3.2-1.3c0.8-1,1.2-2.3,1.1-3.6v-0.8c0.1-1.3-0.3-2.6-1.1-3.6c-0.8-0.9-1.9-1.4-3.1-1.3L-7838.7-9897.9z
		 M-7824.2-9885.7c-1.2,0-2.5-0.4-3.3-1.3c-0.9-1-1.3-2.3-1.3-3.6v-0.3c0-0.9,0.2-1.8,0.6-2.7c0.4-0.8,0.9-1.4,1.6-1.8
		c0.7-0.4,1.4-0.7,2.2-0.7c1.2-0.1,2.3,0.4,3,1.3c0.8,1.1,1.2,2.4,1.1,3.7v0.7h-6.8c0,0.9,0.3,1.7,0.9,2.4c0.5,0.6,1.3,0.9,2.1,0.9
		c0.5,0,1.1-0.1,1.5-0.4c0.4-0.3,0.8-0.6,1.1-1l1,0.8C-7821.2-9886.3-7822.6-9885.6-7824.2-9885.7z M-7824.4-9894.7
		c-0.7,0-1.3,0.3-1.7,0.8c-0.5,0.6-0.8,1.3-0.9,2.1h5v-0.1c0-0.7-0.2-1.4-0.7-2C-7823.1-9894.4-7823.7-9894.7-7824.4-9894.7
		L-7824.4-9894.7z M-7812.4-9888.5c0-0.4-0.2-0.8-0.5-1.1c-0.6-0.3-1.2-0.6-1.8-0.7c-0.7-0.1-1.4-0.4-2.1-0.7
		c-0.4-0.2-0.8-0.5-1.1-0.9c-0.3-0.4-0.4-0.8-0.4-1.3c0-0.8,0.4-1.6,1-2.1c0.8-0.6,1.7-0.9,2.7-0.9s2,0.3,2.8,0.9
		c0.7,0.5,1.1,1.4,1.1,2.3h-1.7c0-0.5-0.2-0.9-0.6-1.2s-1-0.5-1.5-0.5s-1,0.1-1.5,0.4c-0.3,0.2-0.5,0.6-0.5,1.1
		c0,0.4,0.2,0.7,0.5,0.9c0.6,0.3,1.2,0.5,1.8,0.6c0.7,0.1,1.4,0.4,2.1,0.7c0.5,0.2,0.9,0.5,1.2,1c0.3,0.4,0.4,0.9,0.4,1.4
		c0,0.9-0.4,1.7-1.1,2.2c-0.8,0.6-1.8,0.9-2.8,0.8c-0.7,0-1.5-0.1-2.1-0.4c-0.6-0.3-1.1-0.7-1.5-1.2c-0.3-0.5-0.5-1.1-0.5-1.7h1.7
		c0,0.5,0.3,1,0.7,1.4c0.5,0.4,1.1,0.5,1.7,0.5c0.5,0,1.1-0.1,1.6-0.4C-7812.6-9887.7-7812.4-9888.1-7812.4-9888.5z M-7804.3-9885.7
		c-1.2,0-2.5-0.4-3.3-1.3c-0.9-1-1.3-2.3-1.3-3.6v-0.3c0-0.9,0.2-1.8,0.6-2.7c0.4-0.8,0.9-1.4,1.6-1.8c0.7-0.4,1.4-0.7,2.2-0.7
		c1.2-0.1,2.3,0.4,3,1.3c0.8,1.1,1.2,2.4,1.1,3.7v0.7h-6.8c0,0.9,0.3,1.7,0.9,2.4c0.5,0.6,1.3,0.9,2.1,0.9c0.5,0,1.1-0.1,1.5-0.4
		c0.4-0.3,0.8-0.6,1.1-1l1,0.8C-7801.3-9886.3-7802.8-9885.6-7804.3-9885.7z M-7804.5-9894.7c-0.7,0-1.3,0.3-1.7,0.8
		c-0.5,0.6-0.8,1.3-0.9,2.1h5v-0.1c0-0.7-0.2-1.4-0.7-2C-7803.2-9894.4-7803.9-9894.7-7804.5-9894.7L-7804.5-9894.7z
		 M-7796.8-9895.9v1.1c0.7-0.9,1.8-1.3,3-1.3c1.2-0.1,2.3,0.5,2.9,1.6c0.3-0.5,0.8-0.9,1.3-1.2c0.6-0.3,1.2-0.5,1.9-0.4
		c2.2,0,3.3,1.2,3.4,3.5v6.7h-1.7v-6.6c0-0.6-0.1-1.2-0.5-1.6c-0.5-0.4-1.1-0.6-1.7-0.5c-0.6,0-1.1,0.2-1.6,0.6
		c-0.4,0.4-0.7,0.9-0.7,1.5v6.7h-1.7v-6.6c0.2-1-0.6-2-1.6-2.2c-0.2,0-0.4,0-0.5,0c-1-0.1-1.9,0.5-2.3,1.4v7.3h-1.7v-10H-7796.8z
		 M-7773.3-9890.8c0.1,1.3-0.3,2.6-1,3.7c-0.7,0.9-1.7,1.4-2.8,1.4c-1.1,0.1-2.1-0.4-2.9-1.2v4.8h-1.7v-13.9h1.6l0.1,1.1
		c0.7-0.9,1.8-1.4,2.9-1.3c1.1,0,2.2,0.5,2.9,1.4c0.8,1.1,1.1,2.4,1.1,3.8L-7773.3-9890.8z M-7775-9891c0.1-0.9-0.2-1.9-0.7-2.7
		c-0.5-0.6-1.2-1-2-1c-1,0-1.9,0.5-2.3,1.4v4.8c0.4,0.9,1.4,1.4,2.4,1.4c0.8,0,1.5-0.3,2-1C-7775.2-9888.9-7774.9-9889.9-7775-9891z
		 M-7766.9-9885.7c-1.2,0-2.5-0.4-3.3-1.3c-0.9-1-1.3-2.3-1.3-3.6v-0.3c0-0.9,0.2-1.8,0.6-2.7c0.4-0.8,0.9-1.4,1.6-1.8
		c0.7-0.4,1.4-0.7,2.2-0.7c1.2-0.1,2.3,0.4,3,1.3c0.8,1.1,1.2,2.4,1.1,3.7v0.7h-6.8c0,0.9,0.3,1.7,0.9,2.4c0.5,0.6,1.3,0.9,2.1,0.9
		c0.5,0,1.1-0.1,1.5-0.4c0.4-0.3,0.8-0.6,1.1-1l1,0.8C-7764-9886.3-7765.4-9885.6-7766.9-9885.7z M-7767.1-9894.7
		c-0.7,0-1.3,0.3-1.7,0.8c-0.5,0.6-0.8,1.3-0.9,2.1h5v-0.1c0-0.7-0.2-1.4-0.7-2C-7765.9-9894.4-7766.5-9894.7-7767.1-9894.7
		L-7767.1-9894.7z M-7759.4-9895.9l0.1,1.3c0.7-0.9,1.8-1.5,3-1.4c2.1,0,3.2,1.2,3.2,3.6v6.6h-1.7v-6.6c0-0.6-0.1-1.1-0.5-1.6
		c-0.4-0.4-1-0.6-1.5-0.5c-0.5,0-1,0.1-1.5,0.4c-0.4,0.3-0.8,0.7-1,1.2v7.1h-1.7v-10L-7759.4-9895.9z M-7753.7-9899.8
		c0,0.6-0.2,1.2-0.6,1.6c-0.4,0.4-0.9,0.6-1.4,0.6c-0.2,0-0.4,0-0.7-0.1c-0.3-0.1-0.5-0.2-0.7-0.4c-0.2-0.1-0.4-0.3-0.6-0.3
		c-0.1,0-0.3-0.1-0.5-0.1s-0.5,0.1-0.6,0.3c-0.2,0.2-0.3,0.5-0.3,0.7l-1.1-0.1c0-0.6,0.2-1.2,0.6-1.6c0.4-0.4,0.9-0.7,1.4-0.6
		c0.2,0,0.4,0,0.6,0.1s0.5,0.2,0.7,0.4c0.2,0.1,0.4,0.3,0.7,0.4c0.2,0.1,0.3,0.1,0.5,0.1c0.3,0,0.5-0.1,0.7-0.3s0.3-0.5,0.3-0.7
		L-7753.7-9899.8z M-7751-9891c0-0.9,0.2-1.8,0.6-2.7c0.4-0.7,0.9-1.4,1.6-1.8c0.7-0.4,1.5-0.7,2.4-0.6c1.3,0,2.5,0.5,3.3,1.4
		c0.9,1.1,1.3,2.4,1.3,3.8v0.1c0,0.9-0.2,1.8-0.6,2.6c-0.3,0.7-0.9,1.4-1.6,1.8c-0.7,0.4-1.6,0.7-2.4,0.6c-1.3,0-2.5-0.5-3.3-1.4
		C-7750.6-9888.2-7751-9889.6-7751-9891L-7751-9891z M-7749.3-9890.8c0,1,0.2,1.9,0.8,2.7c0.5,0.7,1.3,1,2.1,1c0.8,0,1.6-0.4,2.1-1
		c0.6-0.8,0.8-1.9,0.8-2.9s-0.2-1.9-0.8-2.7c-0.5-0.7-1.3-1-2.1-1c-0.8,0-1.6,0.4-2,1C-7749.1-9892.8-7749.3-9891.8-7749.3-9890.8
		L-7749.3-9890.8z"/>
</g>
</svg>
