<svg xmlns="http://www.w3.org/2000/svg" xmlns:xlink="http://www.w3.org/1999/xlink" width="444" height="353.206" viewBox="0 0 444 353.206"><defs><linearGradient id="a" y1="0.5" x2="1" y2="0.5" gradientUnits="objectBoundingBox"><stop offset="0" stop-color="#dae3fe"/><stop offset="1" stop-color="#e9effd"/></linearGradient><linearGradient id="b" x1="0" y1="0.5" x2="1.001" y2="0.5" xlink:href="#a"/><linearGradient id="c" x1="0" y1="0.5" x2="1" y2="0.5" xlink:href="#a"/><linearGradient id="d" x1="0" y1="0.5" x2="0.999" y2="0.5" xlink:href="#a"/><linearGradient id="e" x1="0" y1="0.5" x2="1" y2="0.5" xlink:href="#a"/><linearGradient id="f" x1="0.508" y1="-1.224" x2="0.499" y2="0.713" gradientUnits="objectBoundingBox"><stop offset="0" stop-color="#4f52ff"/><stop offset="1" stop-color="#4042e2"/></linearGradient><linearGradient id="g" x1="-7.304" y1="0.495" x2="2.508" y2="0.501" xlink:href="#f"/><linearGradient id="h" x1="0.555" y1="-0.309" x2="0.392" y2="2.086" xlink:href="#f"/><linearGradient id="i" x1="1.167" y1="-2.905" x2="0.97" y2="-1.901" xlink:href="#f"/><linearGradient id="j" x1="8.44" y1="-0.2" x2="-3.717" y2="0.872" xlink:href="#f"/><linearGradient id="k" x1="0.233" y1="-0.089" x2="1.011" y2="1.627" xlink:href="#f"/><linearGradient id="m" x1="0.231" y1="-0.094" x2="1.009" y2="1.622" xlink:href="#f"/><linearGradient id="n" x1="8.439" y1="-0.2" x2="-3.718" y2="0.872" xlink:href="#f"/><linearGradient id="o" x1="0.228" y1="-0.099" x2="1.006" y2="1.617" xlink:href="#f"/><linearGradient id="q" x1="0.226" y1="-0.103" x2="1.004" y2="1.613" xlink:href="#f"/><linearGradient id="s" x1="0.224" y1="-0.108" x2="1.002" y2="1.609" xlink:href="#f"/><linearGradient id="t" x1="8.439" y1="-0.2" x2="-3.717" y2="0.872" xlink:href="#f"/><linearGradient id="u" x1="0.222" y1="-0.112" x2="1" y2="1.604" xlink:href="#f"/><linearGradient id="w" x1="0.221" y1="-0.116" x2="0.999" y2="1.601" xlink:href="#f"/><linearGradient id="y" x1="0.219" y1="-0.12" x2="0.997" y2="1.596" xlink:href="#f"/><linearGradient id="aa" x1="0.217" y1="-0.125" x2="0.994" y2="1.591" xlink:href="#f"/><linearGradient id="ac" x1="0.214" y1="-0.13" x2="0.992" y2="1.587" xlink:href="#f"/><linearGradient id="ae" x1="0.212" y1="-0.134" x2="0.99" y2="1.582" xlink:href="#f"/><linearGradient id="ag" x1="0.211" y1="-0.138" x2="0.988" y2="1.578" xlink:href="#f"/><linearGradient id="ai" x1="0.208" y1="-0.143" x2="0.986" y2="1.573" xlink:href="#f"/><linearGradient id="ak" x1="-7.305" y1="0.495" x2="2.508" y2="0.501" xlink:href="#f"/><linearGradient id="am" x1="2.048" y1="-2.555" x2="1.598" y2="-1.667" xlink:href="#f"/><linearGradient id="an" x1="8.44" y1="-0.2" x2="-3.717" y2="0.872" xlink:href="#f"/><linearGradient id="as" x1="0.229" y1="-0.099" x2="1.006" y2="1.617" xlink:href="#f"/><linearGradient id="au" x1="0.227" y1="-0.103" x2="1.004" y2="1.613" xlink:href="#f"/><linearGradient id="ba" x1="0.221" y1="-0.116" x2="0.999" y2="1.601" xlink:href="#f"/><linearGradient id="bg" x1="0.214" y1="-0.13" x2="0.992" y2="1.587" xlink:href="#f"/><linearGradient id="bn" x1="0.508" y1="-1.224" x2="0.499" y2="0.713" gradientUnits="objectBoundingBox"><stop offset="0" stop-color="#ff928e"/><stop offset="1" stop-color="#fe7062"/></linearGradient><linearGradient id="bo" x1="-7.306" y1="0.495" x2="2.509" y2="0.501" xlink:href="#bn"/><linearGradient id="bp" x1="0.555" y1="-0.309" x2="0.392" y2="2.087" xlink:href="#bn"/><linearGradient id="bq" x1="0.498" y1="-1.127" x2="0.501" y2="1.571" xlink:href="#bn"/><linearGradient id="br" x1="8.44" y1="-0.2" x2="-3.717" y2="0.872" xlink:href="#bn"/><linearGradient id="bs" x1="0.233" y1="-0.089" x2="1.01" y2="1.627" xlink:href="#bn"/><linearGradient id="bu" x1="0.231" y1="-0.094" x2="1.009" y2="1.622" xlink:href="#bn"/><linearGradient id="bw" x1="0.229" y1="-0.099" x2="1.006" y2="1.617" xlink:href="#bn"/><linearGradient id="bx" x1="8.439" y1="-0.2" x2="-3.718" y2="0.872" xlink:href="#bn"/><linearGradient id="by" x1="0.227" y1="-0.103" x2="1.004" y2="1.613" xlink:href="#bn"/><linearGradient id="ca" x1="0.225" y1="-0.108" x2="1.002" y2="1.609" xlink:href="#bn"/><linearGradient id="cc" x1="0.223" y1="-0.112" x2="1" y2="1.604" xlink:href="#bn"/><linearGradient id="cd" x1="8.44" y1="-0.2" x2="-3.717" y2="0.872" xlink:href="#bn"/><linearGradient id="ce" x1="0.221" y1="-0.116" x2="0.999" y2="1.601" xlink:href="#bn"/><linearGradient id="cg" x1="0.219" y1="-0.12" x2="0.997" y2="1.596" xlink:href="#bn"/><linearGradient id="ci" x1="0.217" y1="-0.125" x2="0.994" y2="1.591" xlink:href="#bn"/><linearGradient id="ck" x1="0.214" y1="-0.13" x2="0.992" y2="1.587" xlink:href="#bn"/><linearGradient id="cl" x1="8.439" y1="-0.2" x2="-3.717" y2="0.872" xlink:href="#bn"/><linearGradient id="cm" x1="0.212" y1="-0.134" x2="0.99" y2="1.582" xlink:href="#bn"/><linearGradient id="cn" x1="8.439" y1="-0.2" x2="-3.717" y2="0.872" xlink:href="#bn"/><linearGradient id="co" x1="0.211" y1="-0.138" x2="0.988" y2="1.578" xlink:href="#bn"/><linearGradient id="cq" x1="0.208" y1="-0.143" x2="0.986" y2="1.573" xlink:href="#bn"/><linearGradient id="cs" x1="-7.305" y1="0.495" x2="2.508" y2="0.501" xlink:href="#bn"/><linearGradient id="cw" x1="0.233" y1="-0.089" x2="1.011" y2="1.627" xlink:href="#bn"/><linearGradient id="de" x1="0.224" y1="-0.108" x2="1.002" y2="1.609" xlink:href="#bn"/><linearGradient id="dg" x1="0.222" y1="-0.112" x2="1" y2="1.604" xlink:href="#bn"/><linearGradient id="dv" x1="0.537" y1="-0.278" x2="0.6" y2="-1.638" xlink:href="#f"/><linearGradient id="dw" x1="8.824" y1="-0.898" x2="5.195" y2="-0.295" xlink:href="#f"/><linearGradient id="dx" x1="0.54" y1="-0.331" x2="0.607" y2="-1.698" xlink:href="#f"/><linearGradient id="dy" x1="0.488" y1="-1.74" x2="0.493" y2="-0.853" xlink:href="#f"/><linearGradient id="dz" x1="2.003" y1="-0.513" x2="4.262" y2="-2.035" xlink:href="#f"/><linearGradient id="ea" x1="2" y1="-0.511" x2="4.26" y2="-2.034" xlink:href="#f"/><linearGradient id="eb" x1="1.981" y1="-0.498" x2="4.241" y2="-2.021" xlink:href="#f"/><linearGradient id="ec" x1="1.979" y1="-0.497" x2="4.238" y2="-2.019" xlink:href="#f"/><linearGradient id="ed" x1="1.961" y1="-0.484" x2="4.22" y2="-2.007" xlink:href="#f"/><linearGradient id="ee" x1="1.958" y1="-0.483" x2="4.218" y2="-2.005" xlink:href="#f"/><linearGradient id="ef" x1="1.939" y1="-0.47" x2="4.199" y2="-1.993" xlink:href="#f"/><linearGradient id="eg" x1="1.937" y1="-0.468" x2="4.196" y2="-1.991" xlink:href="#f"/><linearGradient id="eh" x1="1.919" y1="-0.456" x2="4.178" y2="-1.979" xlink:href="#f"/><linearGradient id="ei" x1="1.916" y1="-0.454" x2="4.176" y2="-1.977" xlink:href="#f"/><linearGradient id="ej" x1="1.897" y1="-0.442" x2="4.156" y2="-1.964" xlink:href="#f"/><linearGradient id="ek" x1="1.894" y1="-0.44" x2="4.154" y2="-1.962" xlink:href="#f"/><linearGradient id="el" x1="1.874" y1="-0.426" x2="4.134" y2="-1.949" xlink:href="#f"/><linearGradient id="em" x1="1.872" y1="-0.425" x2="4.131" y2="-1.947" xlink:href="#f"/><linearGradient id="en" x1="1.853" y1="-0.412" x2="4.112" y2="-1.934" xlink:href="#f"/><linearGradient id="eo" x1="1.85" y1="-0.41" x2="4.11" y2="-1.933" xlink:href="#f"/><linearGradient id="ep" x1="1.832" y1="-0.398" x2="4.092" y2="-1.921" xlink:href="#f"/><linearGradient id="eq" x1="1.83" y1="-0.396" x2="4.089" y2="-1.919" xlink:href="#f"/><linearGradient id="er" x1="1.811" y1="-0.383" x2="4.071" y2="-1.906" xlink:href="#f"/><linearGradient id="es" x1="1.808" y1="-0.382" x2="4.068" y2="-1.904" xlink:href="#f"/><linearGradient id="et" x1="1.79" y1="-0.369" x2="4.05" y2="-1.892" xlink:href="#f"/><linearGradient id="eu" x1="1.788" y1="-0.368" x2="4.047" y2="-1.89" xlink:href="#f"/><linearGradient id="ev" x1="1.769" y1="-0.355" x2="4.028" y2="-1.878" xlink:href="#f"/><linearGradient id="ew" x1="1.766" y1="-0.353" x2="4.026" y2="-1.876" xlink:href="#f"/><linearGradient id="ex" x1="1.747" y1="-0.34" x2="4.006" y2="-1.863" xlink:href="#f"/><linearGradient id="ey" x1="1.744" y1="-0.338" x2="4.004" y2="-1.861" xlink:href="#f"/><linearGradient id="ez" x1="-4.473" y1="-2.028" x2="-4.642" y2="2.574" xlink:href="#bn"/><linearGradient id="fa" x1="-282.01" y1="-1.02" x2="-299.533" y2="2.631" xlink:href="#bn"/><linearGradient id="fb" x1="-16.306" y1="-16.913" x2="-17.353" y2="19.498" xlink:href="#bn"/><linearGradient id="fc" x1="-16.465" y1="-11.691" x2="-17.514" y2="24.721" xlink:href="#bn"/><linearGradient id="fd" x1="-562.671" y1="-0.157" x2="-599.232" y2="3.312" xlink:href="#bn"/><linearGradient id="fe" x1="1.85" y1="3.361" x2="-12.897" y2="-0.746" xlink:href="#bn"/><linearGradient id="ff" x1="1.806" y1="4.571" x2="-12.983" y2="-1.302" xlink:href="#bn"/><linearGradient id="fg" x1="1.831" y1="4.58" x2="-12.959" y2="-1.292" xlink:href="#bn"/><linearGradient id="fh" x1="1.782" y1="4.561" x2="-13.008" y2="-1.311" xlink:href="#bn"/><linearGradient id="fi" x1="1.757" y1="4.551" x2="-13.032" y2="-1.321" xlink:href="#bn"/><linearGradient id="fj" x1="1.734" y1="4.542" x2="-13.056" y2="-1.33" xlink:href="#bn"/><linearGradient id="fk" x1="1.71" y1="4.532" x2="-13.08" y2="-1.34" xlink:href="#bn"/><linearGradient id="fl" x1="17.474" y1="0.788" x2="-167.324" y2="0.374" xlink:href="#bn"/><linearGradient id="fm" x1="17.01" y1="0.786" x2="-167.788" y2="0.372" xlink:href="#bn"/><linearGradient id="fn" x1="16.251" y1="0.785" x2="-168.546" y2="0.371" xlink:href="#bn"/><linearGradient id="fo" x1="15.763" y1="0.785" x2="-169.034" y2="0.371" xlink:href="#bn"/><linearGradient id="fp" x1="16.575" y1="0.786" x2="-168.222" y2="0.372" xlink:href="#bn"/><linearGradient id="fq" x1="17.183" y1="0.787" x2="-167.614" y2="0.373" xlink:href="#bn"/><linearGradient id="fr" x1="15.661" y1="0.784" x2="-169.137" y2="0.369" xlink:href="#bn"/><linearGradient id="fs" x1="9.941" y1="0.57" x2="-161.311" y2="0.473" xlink:href="#bn"/><linearGradient id="ft" x1="21.16" y1="0.564" x2="-150.091" y2="0.466" xlink:href="#bn"/><linearGradient id="fu" x1="2.048" y1="4.673" x2="-12.742" y2="-1.199" xlink:href="#bn"/><linearGradient id="fv" x1="2.023" y1="4.663" x2="-12.767" y2="-1.209" xlink:href="#bn"/><linearGradient id="fw" x1="1.999" y1="4.654" x2="-12.791" y2="-1.218" xlink:href="#bn"/><linearGradient id="fx" x1="1.975" y1="4.645" x2="-12.814" y2="-1.228" xlink:href="#bn"/><linearGradient id="fy" x1="1.951" y1="4.635" x2="-12.839" y2="-1.237" xlink:href="#bn"/><linearGradient id="fz" x1="20.025" y1="0.793" x2="-164.773" y2="0.379" xlink:href="#bn"/><linearGradient id="ga" x1="19.266" y1="0.792" x2="-165.532" y2="0.378" xlink:href="#bn"/><linearGradient id="gb" x1="18.777" y1="0.792" x2="-166.02" y2="0.378" xlink:href="#bn"/><linearGradient id="gc" x1="19.59" y1="0.793" x2="-165.208" y2="0.379" xlink:href="#bn"/><linearGradient id="gd" x1="18.675" y1="0.791" x2="-166.123" y2="0.377" xlink:href="#bn"/><linearGradient id="ge" x1="12.454" y1="0.601" x2="-158.799" y2="0.464" xlink:href="#bn"/><linearGradient id="gf" x1="23.673" y1="0.592" x2="-147.579" y2="0.455" xlink:href="#bn"/><linearGradient id="gg" x1="-28.432" y1="1.36" x2="-168.184" y2="0.517" xlink:href="#bn"/><linearGradient id="gh" x1="-4.072" y1="1.327" x2="-28.411" y2="0.501" xlink:href="#bn"/><linearGradient id="gi" x1="-2.091" y1="1.26" x2="-26.432" y2="0.434" xlink:href="#bn"/><linearGradient id="gj" x1="-0.109" y1="1.193" x2="-24.451" y2="0.367" xlink:href="#bn"/><linearGradient id="gk" x1="0.82" y1="1.195" x2="-21.365" y2="0.326" xlink:href="#bn"/><linearGradient id="gl" x1="-0.36" y1="1.291" x2="-22.544" y2="0.395" xlink:href="#bn"/><linearGradient id="gm" x1="-1.633" y1="1.378" x2="-23.819" y2="0.467" xlink:href="#bn"/><linearGradient id="gn" x1="1.806" y1="1.128" x2="-22.536" y2="0.302" xlink:href="#bn"/><linearGradient id="go" x1="0.247" y1="6.114" x2="-3.332" y2="-0.242" xlink:href="#bn"/><linearGradient id="gp" x1="0.255" y1="6.101" x2="-3.302" y2="-0.235" xlink:href="#bn"/><linearGradient id="gq" x1="1.698" y1="4.118" x2="-10.615" y2="-1.035" xlink:href="#bn"/><linearGradient id="gr" x1="1.711" y1="4.119" x2="-11.27" y2="-1.034" xlink:href="#bn"/><linearGradient id="gs" x1="1.687" y1="4.109" x2="-11.294" y2="-1.044" xlink:href="#bn"/><linearGradient id="gt" x1="1.663" y1="4.099" x2="-11.318" y2="-1.053" xlink:href="#bn"/><linearGradient id="gu" x1="15.673" y1="0.755" x2="-146.545" y2="0.391" xlink:href="#bn"/><linearGradient id="gv" x1="1.716" y1="0.884" x2="-11.712" y2="0.336" xlink:href="#bn"/><linearGradient id="gw" x1="16.525" y1="0.781" x2="-145.694" y2="0.379" xlink:href="#bn"/><linearGradient id="gx" x1="9.094" y1="0.642" x2="-141.236" y2="0.449" xlink:href="#bn"/><linearGradient id="gy" x1="20.315" y1="0.627" x2="-130.014" y2="0.435" xlink:href="#bn"/><linearGradient id="gz" x1="-3.828" y1="-6.548" x2="-3.872" y2="1.373" xlink:href="#bn"/><linearGradient id="ha" x1="17.717" y1="-0.08" x2="16.95" y2="1.445" gradientUnits="objectBoundingBox"><stop offset="0" stop-color="#09005d"/><stop offset="1" stop-color="#1a0f91"/></linearGradient><linearGradient id="hb" x1="46.193" y1="0.5" x2="47.193" y2="0.5" xlink:href="#ha"/><linearGradient id="hc" x1="-4.598" y1="-50.257" x2="-4.902" y2="10.477" gradientUnits="objectBoundingBox"><stop offset="0" stop-color="#e1473d"/><stop offset="1" stop-color="#e9605a"/></linearGradient><linearGradient id="hd" x1="-4.802" y1="-49.087" x2="-5.111" y2="10.247" xlink:href="#hc"/><linearGradient id="he" x1="-149.067" y1="-10.727" x2="-171.351" y2="2.707" xlink:href="#hc"/><linearGradient id="hf" x1="-289.505" y1="-10.666" x2="-333.875" y2="2.695" xlink:href="#hc"/><linearGradient id="hg" x1="-279.571" y1="-10.666" x2="-323.939" y2="2.695" xlink:href="#hc"/><linearGradient id="hh" x1="-269.639" y1="-10.666" x2="-314.007" y2="2.695" xlink:href="#hc"/><linearGradient id="hi" x1="-259.706" y1="-10.666" x2="-304.075" y2="2.695" xlink:href="#hc"/><linearGradient id="hj" x1="-249.099" y1="-10.666" x2="-293.47" y2="2.695" xlink:href="#hc"/><linearGradient id="hk" x1="-239.165" y1="-10.666" x2="-283.533" y2="2.695" xlink:href="#hc"/><linearGradient id="hl" x1="-227.985" y1="-10.666" x2="-272.353" y2="2.695" xlink:href="#hc"/><linearGradient id="hm" x1="-218.052" y1="-10.666" x2="-262.421" y2="2.695" xlink:href="#hc"/><linearGradient id="hn" x1="-208.206" y1="-10.666" x2="-252.575" y2="2.695" xlink:href="#hc"/><linearGradient id="ho" x1="-99.488" y1="-10.727" x2="-121.772" y2="2.707" xlink:href="#hc"/><linearGradient id="hp" x1="37.164" y1="0.878" x2="-324.745" y2="0.349" xlink:href="#bn"/><linearGradient id="hq" x1="38.296" y1="1.044" x2="-323.614" y2="0.283" xlink:href="#bn"/><linearGradient id="hr" x1="39.337" y1="1.425" x2="-322.571" y2="0.128" xlink:href="#bn"/><linearGradient id="hs" x1="41.134" y1="0.857" x2="-320.776" y2="0.351" xlink:href="#bn"/><linearGradient id="ht" x1="41.761" y1="0.975" x2="-320.148" y2="0.301" xlink:href="#bn"/><linearGradient id="hu" x1="43.727" y1="1.751" x2="-344.948" y2="-0.01" xlink:href="#bn"/><linearGradient id="hv" x1="2.021" y1="0.706" x2="-12.006" y2="0.416" xlink:href="#bn"/><linearGradient id="hw" x1="-97.829" y1="-0.944" x2="-99.14" y2="1.936" xlink:href="#bn"/><linearGradient id="hx" x1="-4.911" y1="-0.756" x2="-6.256" y2="3.493" xlink:href="#hc"/><linearGradient id="hy" x1="-15.562" y1="0.489" x2="-13.641" y2="0.526" xlink:href="#bn"/><linearGradient id="hz" x1="-17.704" y1="-2.57" x2="-25.504" y2="3.644" xlink:href="#ha"/><linearGradient id="ia" x1="-13.891" y1="-2.227" x2="-19.017" y2="2.357" xlink:href="#ha"/><linearGradient id="ib" x1="-5.455" y1="-2.171" x2="-5.59" y2="3.154" xlink:href="#bn"/><linearGradient id="ic" x1="-1.245" y1="-1.008" x2="4.1" y2="3.633" xlink:href="#ha"/><linearGradient id="id" x1="0.57" y1="-3.802" x2="0.512" y2="-0.232" xlink:href="#f"/><linearGradient id="ie" x1="-1.698" y1="-1.401" x2="3.647" y2="3.24" xlink:href="#ha"/><linearGradient id="if" x1="0.55" y1="-6.933" x2="0.518" y2="-2.232" xlink:href="#f"/><linearGradient id="ii" x1="0" y1="0.5" x2="1" y2="0.5" xlink:href="#f"/><linearGradient id="ij" x1="0.727" y1="-4.259" x2="0.665" y2="-2.855" xlink:href="#ha"/><linearGradient id="il" x1="18.089" y1="-1.105" x2="11.29" y2="-0.49" xlink:href="#bn"/><linearGradient id="im" x1="0.555" y1="-0.309" x2="0.392" y2="2.086" xlink:href="#bn"/><linearGradient id="in" x1="0.613" y1="-2.477" x2="0.585" y2="-1.738" xlink:href="#hc"/><linearGradient id="it" x1="0.229" y1="-0.099" x2="1.006" y2="1.617" xlink:href="#bn"/><linearGradient id="iz" x1="0.223" y1="-0.112" x2="1" y2="1.604" xlink:href="#bn"/><linearGradient id="je" x1="8.439" y1="-0.2" x2="-3.718" y2="0.872" xlink:href="#bn"/><linearGradient id="jf" x1="0.217" y1="-0.125" x2="0.995" y2="1.591" xlink:href="#bn"/><linearGradient id="jg" x1="8.439" y1="-0.2" x2="-3.718" y2="0.872" xlink:href="#bn"/><linearGradient id="jh" x1="0.215" y1="-0.13" x2="0.992" y2="1.587" xlink:href="#bn"/><linearGradient id="jj" x1="0.213" y1="-0.134" x2="0.991" y2="1.582" xlink:href="#bn"/><linearGradient id="jl" x1="0.21" y1="-0.138" x2="0.988" y2="1.578" xlink:href="#bn"/><linearGradient id="jo" x1="0.539" y1="-6.187" x2="0.526" y2="-3.894" xlink:href="#ha"/><linearGradient id="jp" x1="16.728" y1="-2.371" x2="13.38" y2="-1.778" xlink:href="#ha"/><linearGradient id="jq" x1="1.238" y1="-0.98" x2="1.146" y2="-0.795" xlink:href="#bn"/><linearGradient id="jr" x1="0.538" y1="-0.069" x2="0.424" y2="1.623" xlink:href="#bn"/><linearGradient id="js" x1="1.036" y1="-0.081" x2="0.932" y2="0.032" xlink:href="#hc"/><linearGradient id="jt" x1="28.654" y1="0.449" x2="30.003" y2="0.561" gradientUnits="objectBoundingBox"><stop offset="0" stop-color="#febbba"/><stop offset="1" stop-color="#ff928e"/></linearGradient><linearGradient id="ju" x1="120.568" y1="-2.102" x2="117.869" y2="1.986" xlink:href="#bn"/><linearGradient id="jv" x1="54.147" y1="-0.439" x2="51.365" y2="1.198" xlink:href="#jt"/><linearGradient id="jw" x1="27.245" y1="27.353" x2="27.095" y2="27.916" xlink:href="#ha"/><linearGradient id="jx" x1="-0.001" y1="0.5" x2="1" y2="0.5" xlink:href="#a"/><linearGradient id="jy" x1="91.964" y1="-0.307" x2="90.6" y2="1.929" xlink:href="#ha"/><linearGradient id="jz" x1="27.563" y1="26.159" x2="27.413" y2="26.722" xlink:href="#ha"/><linearGradient id="ka" x1="0" y1="0.5" x2="1" y2="0.5" xlink:href="#a"/><linearGradient id="kb" x1="91.965" y1="-0.307" x2="90.6" y2="1.929" xlink:href="#ha"/><linearGradient id="kc" x1="27.377" y1="26.859" x2="27.227" y2="27.422" xlink:href="#ha"/><linearGradient id="ke" x1="91.964" y1="-0.307" x2="90.6" y2="1.929" xlink:href="#ha"/><linearGradient id="kf" x1="27.638" y1="25.875" x2="27.488" y2="26.438" xlink:href="#ha"/><linearGradient id="kh" x1="91.965" y1="-0.307" x2="90.6" y2="1.929" xlink:href="#ha"/><linearGradient id="ki" x1="144.877" y1="1.12" x2="145.514" y2="-0.326" xlink:href="#bn"/></defs><g transform="translate(-40.227 -26.732)"><g transform="translate(40.227 26.732)"><path d="M793.68,773.749a135.873,135.873,0,0,1-21.19,15.333c-69.125,42.623-150.916,30.2-168.3,27.165-25.67-4.48-75.289-13.141-111.161-49.4C438.752,712,447.2,625.585,489.305,568.541c7.7-10.436,48.376-68.347,131.051-77.635,50.03-5.621,108.357,5.715,150.592,36.124C859.6,590.864,853.289,719.817,793.68,773.749Z" transform="translate(-455.003 -467.068)" fill="url(#a)"/><g transform="translate(187.772)"><g transform="translate(52.558)"><g transform="translate(8.534 57.604)" opacity="0.3"><path d="M2261.267,855.66a1.5,1.5,0,0,1,1.9.289c.841,1.044,1.748,2.07,2.693,3.053a1.084,1.084,0,0,1-.15,1.658l-.019.016a1.5,1.5,0,0,1-1,.275,1.438,1.438,0,0,1-.929-.423c-1-1.034-1.95-2.115-2.835-3.214a1.082,1.082,0,0,1,.219-1.578C2261.19,855.711,2261.227,855.684,2261.267,855.66Zm9.574,7.848c1.09.861,2.233,1.689,3.4,2.462a1.089,1.089,0,0,1,.258,1.664,1.5,1.5,0,0,1-1.912.225c-1.225-.813-2.428-1.679-3.583-2.59a1.084,1.084,0,0,1-.094-1.679,1.414,1.414,0,0,1,.115-.1A1.521,1.521,0,0,1,2270.842,863.508Zm9.394,5.9c1.28.626,2.606,1.212,3.943,1.739a1.12,1.12,0,0,1,.6,1.539,1.448,1.448,0,0,1-1.724.62c-1.407-.557-2.8-1.173-4.151-1.832a1.111,1.111,0,0,1-.521-1.618,1.211,1.211,0,0,1,.293-.313A1.525,1.525,0,0,1,2280.236,869.4Zm10.675,3.92c1.409.36,2.853.674,4.292.928a1.2,1.2,0,0,1,1.062,1.4,1.373,1.373,0,0,1-1.613.924c-1.517-.269-3.032-.6-4.518-.978a1.173,1.173,0,0,1-.924-1.476,1.406,1.406,0,0,1,1.7-.8Zm11.411,1.751c1.463.08,2.951.107,4.421.078a1.291,1.291,0,0,1,1.364,1.163,1.272,1.272,0,0,1-1.3,1.213c-1.547.029-3.113,0-4.653-.083a1.259,1.259,0,0,1-1.276-1.261A1.313,1.313,0,0,1,2302.322,875.076Zm11.577-.49c1.45-.2,2.907-.464,4.33-.775a1.386,1.386,0,0,1,1.621.872,1.182,1.182,0,0,1-.958,1.433c-1.5.326-3.032.6-4.558.815a1.355,1.355,0,0,1-1.565-.983A1.219,1.219,0,0,1,2313.9,874.586Zm40.632-26.372a1.131,1.131,0,0,1,.677,1.574c-.641,1.224-1.352,2.439-2.113,3.612a1.479,1.479,0,0,1-1.86.45,1.11,1.11,0,0,1-.518-1.619c.722-1.113,1.4-2.267,2.005-3.429a1.31,1.31,0,0,1,.764-.621A1.554,1.554,0,0,1,2354.531,848.215Zm-29.485,23.663c1.36-.48,2.712-1.015,4.02-1.593a1.468,1.468,0,0,1,1.837.519,1.12,1.12,0,0,1-.6,1.6c-1.378.609-2.8,1.174-4.234,1.68a1.475,1.475,0,0,1-1.678-.479,1.082,1.082,0,0,1,.269-1.519A1.443,1.443,0,0,1,2325.046,871.878Zm23.625-14.647a1.089,1.089,0,0,1,.253,1.666c-.938,1.066-1.943,2.112-2.984,3.108a1.511,1.511,0,0,1-1.928.079,1.083,1.083,0,0,1-.091-1.678c.99-.947,1.943-1.941,2.836-2.955a1.418,1.418,0,0,1,.9-.456A1.515,1.515,0,0,1,2348.672,857.231Zm-13.45,9.837c1.2-.732,2.384-1.518,3.512-2.337a1.508,1.508,0,0,1,1.923.132,1.084,1.084,0,0,1-.152,1.674l-.022.017c-1.187.862-2.431,1.69-3.7,2.46a1.506,1.506,0,0,1-1.849-.247,1.083,1.083,0,0,1,.169-1.622,1.229,1.229,0,0,1,.115-.076Z" transform="translate(-2260.68 -840.245)" fill="#bdd0fb"/><path d="M2947.475,782.857a1.173,1.173,0,0,0-.426.6c-.172.6-.361,1.2-.561,1.786a1.173,1.173,0,0,0,.923,1.476,1.407,1.407,0,0,0,1.7-.8c.211-.621.413-1.253.591-1.878a1.128,1.128,0,0,0-.615-1.3A1.529,1.529,0,0,0,2947.475,782.857Z" transform="translate(-2851.919 -782.565)" fill="#bdd0fb"/></g><g opacity="0.3"><path d="M2904.624,484.44a1.08,1.08,0,0,0-.26,1.523c.372.519.737,1.054,1.087,1.591a1.486,1.486,0,0,0,1.843.418,1.112,1.112,0,0,0,.532-1.591c-.369-.564-.754-1.128-1.147-1.679a1.488,1.488,0,0,0-1.88-.38A1.321,1.321,0,0,0,2904.624,484.44Z" transform="translate(-2806.936 -462.335)" fill="#bdd0fb"/><path d="M2235.418,312.507a1.506,1.506,0,0,1,1.917.2,1.088,1.088,0,0,1-.227,1.669c-1.127.772-2.234,1.6-3.308,2.466a1.512,1.512,0,0,1-1.929-.059,1.083,1.083,0,0,1,.068-1.679q.689-.562,1.4-1.1C2234.026,313.487,2234.715,312.985,2235.418,312.507Zm-6.639,7.152a1.086,1.086,0,0,1,.193,1.671c-.916.975-1.792,1.995-2.61,3.03a1.5,1.5,0,0,1-1.9.309,1.1,1.1,0,0,1-.354-1.651c.859-1.09,1.784-2.159,2.747-3.191a1.367,1.367,0,0,1,.161-.145A1.526,1.526,0,0,1,2228.779,319.659Zm12.782-10.8c1.309-.669,2.671-1.3,4.045-1.87a1.46,1.46,0,0,1,1.82.56,1.125,1.125,0,0,1-.643,1.584c-1.305.543-2.6,1.141-3.841,1.775a1.5,1.5,0,0,1-1.8-.33,1.082,1.082,0,0,1,.212-1.59,1.307,1.307,0,0,1,.207-.134Zm-19.4,19.2a1.122,1.122,0,0,1,.611,1.594c-.647,1.124-1.24,2.286-1.778,3.455a1.44,1.44,0,0,1-1.773.664,1.143,1.143,0,0,1-.763-1.543c.562-1.23,1.192-2.454,1.873-3.638a1.326,1.326,0,0,1,.789-.6A1.55,1.55,0,0,1,2222.165,328.065Zm30.351-23.459c1.446-.4,2.932-.755,4.411-1.048a1.381,1.381,0,0,1,1.634.893,1.194,1.194,0,0,1-1.026,1.422c-1.41.281-2.821.615-4.2,1a1.413,1.413,0,0,1-1.714-.772,1.165,1.165,0,0,1,.886-1.492Zm11.76-2.056c1.516-.12,3.054-.18,4.573-.186a1.425,1.425,0,0,1,1.222.578,1.059,1.059,0,0,1,.008,1.21,1.422,1.422,0,0,1-1.216.588c-1.443.006-2.905.065-4.346.175a1.324,1.324,0,0,1-1.48-1.078,1.248,1.248,0,0,1,1.239-1.288Zm12,.222c1.509.174,3.032.405,4.511.686a1.2,1.2,0,0,1,1.042,1.414,1.377,1.377,0,0,1-1.624.907c-1.409-.267-2.853-.48-4.287-.651a1.225,1.225,0,0,1-1.135-1.329A1.338,1.338,0,0,1,2276.274,302.772Zm11.655,2.5c1.429.456,2.853.97,4.231,1.531a1.131,1.131,0,0,1,.664,1.582,1.461,1.461,0,0,1-1.818.578c-1.309-.531-2.66-1.02-4.017-1.454a1.151,1.151,0,0,1-.811-1.524,1.43,1.43,0,0,1,1.751-.706Zm10.75,4.666c1.275.72,2.532,1.491,3.736,2.3a1.129,1.129,0,0,1,.554,1.11,1.229,1.229,0,0,1-.85.957,1.531,1.531,0,0,1-1.374-.188c-1.142-.77-2.343-1.505-3.549-2.187a1.1,1.1,0,0,1-.4-1.643A1.492,1.492,0,0,1,2298.679,309.935Zm9.3,6.6c.785.693,1.556,1.418,2.289,2.151q.4.4.784.8a1.085,1.085,0,0,1-.174,1.673,1.508,1.508,0,0,1-1.922-.152q-.368-.383-.747-.762c-.7-.7-1.429-1.385-2.174-2.045a1.081,1.081,0,0,1,.015-1.679l.062-.05a1.515,1.515,0,0,1,1.864.065Z" transform="translate(-2215.662 -302.363)" fill="#bdd0fb"/><path d="M2199.707,595.793a1.167,1.167,0,0,0-.428.611c-.177.625-.342,1.264-.491,1.9a1.2,1.2,0,0,0,1.066,1.4,1.371,1.371,0,0,0,1.609-.928c.138-.6.3-1.213.466-1.805a1.127,1.127,0,0,0-.615-1.3A1.527,1.527,0,0,0,2199.707,595.793Z" transform="translate(-2198.76 -560.336)" fill="#bdd0fb"/></g><g transform="translate(12.733 12)"><path d="M2291.447,443.294a.573.573,0,0,0,.449.513l7.417,2a27.759,27.759,0,0,0,4.513,8.691l-3.17,6.163a.505.505,0,0,0,.146.631l6.793,5.546a.715.715,0,0,0,.735.086l6.858-3.154a37.053,37.053,0,0,0,10.255,3.359l2.759,6.321a.643.643,0,0,0,.616.36l9.309-.259a.632.632,0,0,0,.588-.391l2.3-6.459a36.482,36.482,0,0,0,9.987-3.927l7.08,2.759a.706.706,0,0,0,.726-.127l6.373-5.913a.5.5,0,0,0,.092-.641l-3.621-5.974a27.2,27.2,0,0,0,3.858-8.925l7.255-2.406a.562.562,0,0,0,.414-.537l-.3-8.1a.574.574,0,0,0-.45-.512l-7.417-2a27.723,27.723,0,0,0-4.513-8.691l3.17-6.163a.508.508,0,0,0-.146-.632l-6.793-5.544a.714.714,0,0,0-.735-.086l-6.85,3.156a37.036,37.036,0,0,0-10.253-3.359l-2.771-6.318a.641.641,0,0,0-.616-.36l-9.309.259a.634.634,0,0,0-.589.391l-2.294,6.456a36.458,36.458,0,0,0-9.986,3.927l-7.081-2.759a.707.707,0,0,0-.726.127l-6.372,5.913a.5.5,0,0,0-.1.638l3.62,5.974a27.209,27.209,0,0,0-3.859,8.925l-7.255,2.406a.565.565,0,0,0-.414.536Z" transform="translate(-2291.148 -402.398)" fill="#91b3fa"/><path d="M2525.169,633.434c4.235-2.361,9.857-1.383,12.725,2.213s1.951,8.523-2.072,11.15a10.328,10.328,0,0,1-12.878-1.391,7.42,7.42,0,0,1,1.122-11.252A9.271,9.271,0,0,1,2525.169,633.434Zm12.064,8.193c.731-2.912-1-5.867-4.14-7.06a7.828,7.828,0,0,0-8.764,2.157,5.649,5.649,0,0,0,.721,7.9,7.984,7.984,0,0,0,9.044.926,7.4,7.4,0,0,0,.852-.557A6.1,6.1,0,0,0,2537.234,641.627Z" transform="translate(-2489.203 -604.587)" fill="url(#b)"/><path d="M2436.543,538.013q-.892.677-1.7,1.43h0q-.256.24-.5.48a20.832,20.832,0,0,0-2.205,2.571.427.427,0,0,1-.026.037l-.074.106c-.049.068-.1.137-.145.205a.431.431,0,0,0,.057.557.492.492,0,0,0,.131.1.6.6,0,0,0,.748-.163c4.733-6.853,13.868-10.416,22.9-8.931a23.094,23.094,0,0,1,10.916,4.826,20.829,20.829,0,0,1,1.565,1.413c7.364,7.39,7.116,18.43-.573,25.564-8.269,7.677-22.174,8.064-30.992.865a18.861,18.861,0,0,1-6.088-8.677.439.439,0,0,0-.113-.181.613.613,0,0,0-.664-.093.46.46,0,0,0-.273.534,19.82,19.82,0,0,0,6.4,9.1c9.259,7.557,23.857,7.147,32.537-.908,8.068-7.49,8.327-19.076.6-26.835a21.935,21.935,0,0,0-1.644-1.484A25.625,25.625,0,0,0,2436.543,538.013Z" transform="translate(-2410.413 -517.428)" fill="url(#c)"/></g></g><g transform="translate(0 32.045)"><g transform="translate(2.528 43.884)" opacity="0.3"><path d="M1836.049,935.513a.669.669,0,0,0-.212.859c.3.566.622,1.132.965,1.68a.914.914,0,0,0,1.126.278.691.691,0,0,0,.361-.969c-.321-.524-.628-1.064-.915-1.6a.807.807,0,0,0-.473-.382.957.957,0,0,0-.645.022A.854.854,0,0,0,1836.049,935.513Z" transform="translate(-1835.76 -935.329)" fill="#bdd0fb"/><path d="M1859.628,976.247a.928.928,0,0,1,1.176.176,31.431,31.431,0,0,0,2.184,2.422q.244.24.5.48a.67.67,0,0,1-.058,1.036.969.969,0,0,1-1.191-.05c-.177-.168-.349-.337-.52-.507a33.062,33.062,0,0,1-2.291-2.538.67.67,0,0,1,.138-.977Zm6.923,5.684a34.774,34.774,0,0,0,3.407,2.254.676.676,0,0,1,.218,1.009.924.924,0,0,1-1.154.213,36.794,36.794,0,0,1-3.572-2.363.672.672,0,0,1-.088-1.037.992.992,0,0,1,.085-.074A.942.942,0,0,1,1866.55,981.93Zm7.11,4.125a37.593,37.593,0,0,0,3.94,1.457.709.709,0,0,1,.483.927.878.878,0,0,1-1.045.456,39.4,39.4,0,0,1-4.135-1.528.692.692,0,0,1-.377-.984.749.749,0,0,1,.2-.225A.946.946,0,0,1,1873.661,986.056Zm8.057,2.479a40.128,40.128,0,0,0,4.228.573.765.765,0,0,1,.731.8.814.814,0,0,1-.886.666,41.764,41.764,0,0,1-4.435-.6.816.816,0,0,1-.647-.492.666.666,0,0,1,.184-.73.927.927,0,0,1,.824-.211Zm8.509.691a40.085,40.085,0,0,0,4.261-.337.916.916,0,0,1,.811.254.659.659,0,0,1,.13.742.836.836,0,0,1-.687.454,42.35,42.35,0,0,1-4.467.36.8.8,0,0,1-.868-.713.787.787,0,0,1,.819-.756Zm8.443-1.126a38.121,38.121,0,0,0,4.035-1.232.894.894,0,0,1,1.105.391.7.7,0,0,1-.449.962,40.1,40.1,0,0,1-4.233,1.291.938.938,0,0,1-.84-.166.674.674,0,0,1-.234-.721A.8.8,0,0,1,1898.67,988.1Zm7.868-2.889a35.3,35.3,0,0,0,3.567-2.058.929.929,0,0,1,1.182.143.674.674,0,0,1-.165,1.029,37.417,37.417,0,0,1-3.742,2.159.914.914,0,0,1-1.151-.269.684.684,0,0,1,.309-1Zm10.888-7.346a.671.671,0,0,1,.127,1.032,34.26,34.26,0,0,1-2.606,2.519q-.208.183-.414.36a.922.922,0,0,1-1.192-.018.684.684,0,0,1-.237-.523.692.692,0,0,1,.257-.515c.138-.112.265-.224.4-.341a32.573,32.573,0,0,0,2.489-2.41.732.732,0,0,1,.1-.094.942.942,0,0,1,1.076-.011Z" transform="translate(-1856.032 -971.22)" fill="#bdd0fb"/></g><g opacity="0.3"><path d="M1841.2,577a36.761,36.761,0,0,1,3.531-2.3.921.921,0,0,1,1.113.24.673.673,0,0,1-.189.984,34.9,34.9,0,0,0-3.368,2.2.934.934,0,0,1-1.191-.077.671.671,0,0,1,.088-1.036Zm-2,2.619a.669.669,0,0,1,.046,1.036,31.887,31.887,0,0,0-2.672,2.835.927.927,0,0,1-1.178.164.675.675,0,0,1-.188-1.025,33.751,33.751,0,0,1,2.8-2.97.688.688,0,0,1,.066-.055.937.937,0,0,1,1.126.013Zm9.36-6.838a39.587,39.587,0,0,1,4.067-1.492.879.879,0,0,1,1.057.454.711.711,0,0,1-.5.931,38,38,0,0,0-3.881,1.423.919.919,0,0,1-1.079-.248.668.668,0,0,1,.151-.962.843.843,0,0,1,.181-.106Zm-14.575,12.8a.688.688,0,0,1,.331,1,28.464,28.464,0,0,0-1.807,3.311.894.894,0,0,1-1.088.388.708.708,0,0,1-.476-.936,30.009,30.009,0,0,1,1.891-3.467.757.757,0,0,1,.185-.2A.944.944,0,0,1,1833.99,585.581Zm22.885-15.346a41.736,41.736,0,0,1,4.361-.6.817.817,0,0,1,.9.662.766.766,0,0,1-.738.8,39.526,39.526,0,0,0-4.159.569.855.855,0,0,1-1.008-.562.743.743,0,0,1,.646-.877Zm8.771-.733a42.3,42.3,0,0,1,4.4.327.839.839,0,0,1,.69.45.66.66,0,0,1-.125.743.916.916,0,0,1-.811.258,40.42,40.42,0,0,0-4.2-.312.872.872,0,0,1-.742-.376.653.653,0,0,1,.022-.747A.885.885,0,0,1,1865.647,569.5Zm8.721,1.116a40.117,40.117,0,0,1,4.182,1.237.7.7,0,0,1,.43.946.888.888,0,0,1-1.069.412,38.5,38.5,0,0,0-3.987-1.179.8.8,0,0,1-.622-.519.673.673,0,0,1,.227-.723A.935.935,0,0,1,1874.368,570.617Z" transform="translate(-1829.039 -569.5)" fill="#bdd0fb"/><path d="M1818.186,761.211a.728.728,0,0,0-.26.366c-.185.607-.35,1.221-.492,1.826a.744.744,0,0,0,.659.866.848.848,0,0,0,.995-.573c.138-.577.294-1.164.47-1.743a.694.694,0,0,0-.37-.812.944.944,0,0,0-1,.07Z" transform="translate(-1817.416 -738.055)" fill="#bdd0fb"/></g><g transform="translate(8.439 7.959)"><path d="M1878.855,663.217a.384.384,0,0,0,.3.343l4.962,1.336a18.613,18.613,0,0,0,3.02,5.816l-2.122,4.124a.339.339,0,0,0,.1.424l4.548,3.71a.479.479,0,0,0,.491.058l4.592-2.109a24.811,24.811,0,0,0,6.861,2.253l1.85,4.225a.433.433,0,0,0,.414.24l6.228-.174a.424.424,0,0,0,.394-.261l1.535-4.319a24.38,24.38,0,0,0,6.682-2.628l4.739,1.838a.473.473,0,0,0,.486-.085l4.263-3.959a.334.334,0,0,0,.066-.427l-2.428-3.991a18.168,18.168,0,0,0,2.585-5.972l4.857-1.611a.376.376,0,0,0,.276-.36l-.2-5.421a.384.384,0,0,0-.3-.343l-4.961-1.336a18.575,18.575,0,0,0-3.019-5.817l2.123-4.123a.34.34,0,0,0-.1-.423l-4.548-3.71a.472.472,0,0,0-.49-.058l-4.593,2.108a24.8,24.8,0,0,0-6.862-2.249l-1.85-4.226a.433.433,0,0,0-.413-.24l-6.229.174a.423.423,0,0,0-.394.262l-1.535,4.318a24.386,24.386,0,0,0-6.682,2.628l-4.742-1.846a.475.475,0,0,0-.486.085l-4.263,3.959a.336.336,0,0,0-.066.428l2.423,4a18.18,18.18,0,0,0-2.585,5.973l-4.856,1.61a.375.375,0,0,0-.275.36Z" transform="translate(-1878.649 -635.849)" fill="#91b3fa"/><path d="M2034.524,789.624a7,7,0,0,1,8.684,1.5,5.1,5.1,0,0,1-1.4,7.608,7.048,7.048,0,0,1-8.788-.939,5.062,5.062,0,0,1,.753-7.678A6.564,6.564,0,0,1,2034.524,789.624Zm7.391,2.469a4.736,4.736,0,0,0-2.945-1.785,5.275,5.275,0,0,0-3.532.552h0a3.78,3.78,0,0,0-1.417,5.64,5.123,5.123,0,0,0,6.48,1.233,4.132,4.132,0,0,0,2.051-2.563,3.643,3.643,0,0,0-.635-3.075Z" transform="translate(-2010.511 -770.403)" fill="url(#d)"/><path d="M1972.657,723.306c-.4.3-.79.631-1.163.975a14.373,14.373,0,0,0-1.962,2.238l-.076.109a.66.66,0,0,0,.085.859.873.873,0,0,0,.2.147.918.918,0,0,0,1.156-.251,12.654,12.654,0,0,1,1.825-2.1h0c.037-.036.076-.071.115-.106a14.491,14.491,0,0,1,5.892-3.209,16.242,16.242,0,0,1,3.764-.577h.128a15.351,15.351,0,0,1,10.164,3.336q.533.435,1.014.915c4.917,4.971,4.513,12.42-.919,16.967a15.769,15.769,0,0,1-19.515.136,13.1,13.1,0,0,1-1-.9,11.929,11.929,0,0,1-2.94-4.713.866.866,0,0,0-1.042-.505.726.726,0,0,0-.581.907,13.351,13.351,0,0,0,3.289,5.278,15.068,15.068,0,0,0,1.12,1.011,17.638,17.638,0,0,0,21.876-.118c6.093-5.1,6.527-13.464.986-19.022q-.536-.537-1.133-1.024A17.7,17.7,0,0,0,1972.657,723.306Z" transform="translate(-1955.49 -709.838)" fill="url(#e)"/></g></g></g><g transform="translate(227.82 82.164)"><g transform="translate(105.406 91.239)"><path d="M2985.307,1747.89H2883.581c-.562,0-7.12,2.72-7.12,2.72l5.113.265v41.986a1.9,1.9,0,0,0,2.007,1.745h100.1a2.22,2.22,0,0,0,2.358-2.051v-44.031a.688.688,0,0,0-.727-.633Z" transform="translate(-2875.954 -1747.89)" fill="url(#f)"/><path d="M3610.125,1801.2l6.489-2.415a.945.945,0,0,0,.654-.863V1753.17l-8.667,1.505Z" transform="translate(-3507.187 -1752.537)" fill="url(#g)"/><rect width="104.434" height="46.615" rx="2.46" transform="translate(0 2.139)" fill="url(#h)"/><rect width="99.335" height="41.739" rx="2.8" transform="translate(2.725 4.55)" fill="url(#i)"/><g transform="translate(6.183 4.537)"><rect width="3.068" height="41.739" transform="translate(0 0.013)" fill="url(#j)"/><rect width="3.068" height="41.739" transform="translate(0.877 0.013)" fill="url(#k)"/><rect width="3.068" height="41.739" transform="translate(7.401 0.013)" fill="url(#j)"/><rect width="3.068" height="41.739" transform="translate(8.278 0.013)" fill="url(#m)"/><rect width="3.068" height="41.739" transform="translate(14.771 0.04)" fill="url(#n)"/><rect width="3.068" height="41.739" transform="translate(15.647 0.04)" fill="url(#o)"/><rect width="3.068" height="41.739" transform="translate(22.172 0.04)" fill="url(#n)"/><rect width="3.068" height="41.739" transform="translate(23.048 0.04)" fill="url(#q)"/><rect width="3.068" height="41.739" transform="translate(29.281 0.04)" fill="url(#n)"/><rect width="3.068" height="41.739" transform="translate(30.157 0.04)" fill="url(#s)"/><rect width="3.068" height="41.739" transform="translate(36.682 0.04)" fill="url(#t)"/><rect width="3.068" height="41.739" transform="translate(37.558 0.04)" fill="url(#u)"/><rect width="3.068" height="41.739" transform="translate(43.968)" fill="url(#j)"/><rect width="3.068" height="41.739" transform="translate(44.845)" fill="url(#w)"/><rect width="3.068" height="41.739" transform="translate(51.37)" fill="url(#j)"/><rect width="3.068" height="41.739" transform="translate(52.246)" fill="url(#y)"/><rect width="3.068" height="41.739" transform="translate(58.739 0.026)" fill="url(#j)"/><rect width="3.068" height="41.739" transform="translate(59.615 0.026)" fill="url(#aa)"/><rect width="3.068" height="41.739" transform="translate(66.14 0.026)" fill="url(#j)"/><rect width="3.068" height="41.739" transform="translate(67.017 0.026)" fill="url(#ac)"/><rect width="3.068" height="41.739" transform="translate(73.249 0.026)" fill="url(#j)"/><rect width="3.068" height="41.739" transform="translate(74.125 0.026)" fill="url(#ae)"/><rect width="3.068" height="41.739" transform="translate(80.65 0.026)" fill="url(#j)"/><rect width="3.068" height="41.739" transform="translate(81.527 0.026)" fill="url(#ag)"/><rect width="3.068" height="41.739" transform="translate(88.197 0.026)" fill="url(#j)"/><rect width="3.068" height="41.739" transform="translate(89.074 0.026)" fill="url(#ai)"/></g></g><g transform="translate(106.099 186.563)"><path d="M2990.336,2542.53H2888.61c-.562,0-7.12,2.719-7.12,2.719l5.114.265V2587.5a1.9,1.9,0,0,0,2.006,1.746h100.1a2.222,2.222,0,0,0,2.358-2.052v-44.032A.687.687,0,0,0,2990.336,2542.53Z" transform="translate(-2880.983 -2542.53)" fill="url(#f)"/><path d="M3615.155,2595.831l6.488-2.416a.944.944,0,0,0,.655-.862V2547.8l-8.667,1.507Z" transform="translate(-3512.217 -2547.168)" fill="url(#ak)"/><rect width="104.434" height="46.615" rx="2.46" transform="translate(0 2.139)" fill="url(#h)"/><rect width="99.335" height="41.739" rx="2.8" transform="translate(2.725 4.55)" fill="url(#am)"/><g transform="translate(6.183 4.537)"><rect width="3.068" height="41.739" transform="translate(0 0.013)" fill="url(#an)"/><rect width="3.068" height="41.739" transform="translate(0.877 0.013)" fill="url(#k)"/><rect width="3.068" height="41.739" transform="translate(7.401 0.013)" fill="url(#an)"/><rect width="3.068" height="41.739" transform="translate(8.278 0.013)" fill="url(#m)"/><rect width="3.068" height="41.739" transform="translate(14.771 0.04)" fill="url(#n)"/><rect width="3.068" height="41.739" transform="translate(15.646 0.04)" fill="url(#as)"/><rect width="3.068" height="41.739" transform="translate(22.172 0.04)" fill="url(#n)"/><rect width="3.068" height="41.739" transform="translate(23.047 0.04)" fill="url(#au)"/><rect width="3.068" height="41.739" transform="translate(29.281 0.04)" fill="url(#n)"/><rect width="3.068" height="41.739" transform="translate(30.157 0.04)" fill="url(#s)"/><rect width="3.068" height="41.739" transform="translate(36.682 0.04)" fill="url(#n)"/><rect width="3.068" height="41.739" transform="translate(37.558 0.04)" fill="url(#u)"/><rect width="3.068" height="41.739" transform="translate(43.968)" fill="url(#j)"/><rect width="3.068" height="41.739" transform="translate(44.845)" fill="url(#ba)"/><rect width="3.068" height="41.739" transform="translate(51.369)" fill="url(#j)"/><rect width="3.068" height="41.739" transform="translate(52.246)" fill="url(#y)"/><rect width="3.068" height="41.739" transform="translate(58.739 0.026)" fill="url(#t)"/><rect width="3.068" height="41.739" transform="translate(59.615 0.026)" fill="url(#aa)"/><rect width="3.068" height="41.739" transform="translate(66.14 0.026)" fill="url(#t)"/><rect width="3.068" height="41.739" transform="translate(67.017 0.026)" fill="url(#bg)"/><rect width="3.068" height="41.739" transform="translate(73.249 0.026)" fill="url(#an)"/><rect width="3.068" height="41.739" transform="translate(74.125 0.026)" fill="url(#ae)"/><rect width="3.068" height="41.739" transform="translate(80.65 0.026)" fill="url(#an)"/><rect width="3.068" height="41.739" transform="translate(81.527 0.026)" fill="url(#ag)"/><rect width="3.068" height="41.739" transform="translate(88.197 0.026)" fill="url(#an)"/><rect width="3.068" height="41.739" transform="translate(89.074 0.026)" fill="url(#ai)"/></g></g><g transform="translate(0 46.928)"><path d="M2220.516,1378.5H2118.79c-.562,0-7.12,2.719-7.12,2.719l5.114.265v41.985a1.9,1.9,0,0,0,2.006,1.747h100.1a2.221,2.221,0,0,0,2.358-2.052v-44.03A.688.688,0,0,0,2220.516,1378.5Z" transform="translate(-2111.163 -1378.5)" fill="#7d97f4"/><path d="M2845.37,1431.81l6.5-2.42a.945.945,0,0,0,.653-.862V1383.78l-8.667,1.506Z" transform="translate(-2742.432 -1383.147)" fill="#7d97f4"/><rect width="104.434" height="46.615" rx="2.53" transform="translate(0 2.139)" fill="#7d97f4"/><rect width="99.335" height="41.739" rx="9.4" transform="translate(2.725 4.55)" fill="#91b3fa"/><g transform="translate(6.183 4.537)"><rect width="3.068" height="41.739" transform="translate(0 0.013)" fill="#7d97f4"/><rect width="3.068" height="41.739" transform="translate(0.877 0.013)" fill="#7d97f4"/><rect width="3.068" height="41.739" transform="translate(7.401 0.013)" fill="#7d97f4"/><rect width="3.068" height="41.739" transform="translate(8.278 0.013)" fill="#7d97f4"/><rect width="3.068" height="41.739" transform="translate(14.771 0.04)" fill="#7d97f4"/><rect width="3.068" height="41.739" transform="translate(15.647 0.04)" fill="#7d97f4"/><rect width="3.068" height="41.739" transform="translate(22.172 0.04)" fill="#7d97f4"/><rect width="3.068" height="41.739" transform="translate(23.048 0.04)" fill="#7d97f4"/><rect width="3.068" height="41.739" transform="translate(29.281 0.04)" fill="#7d97f4"/><rect width="3.068" height="41.739" transform="translate(30.157 0.04)" fill="#7d97f4"/><rect width="3.068" height="41.739" transform="translate(36.682 0.04)" fill="#7d97f4"/><rect width="3.068" height="41.739" transform="translate(37.558 0.04)" fill="#7d97f4"/><rect width="3.068" height="41.739" transform="translate(43.97)" fill="#7d97f4"/><rect width="3.068" height="41.739" transform="translate(44.846)" fill="#7d97f4"/><rect width="3.068" height="41.739" transform="translate(51.371)" fill="#7d97f4"/><rect width="3.068" height="41.739" transform="translate(52.247)" fill="#7d97f4"/><rect width="3.068" height="41.739" transform="translate(58.739 0.026)" fill="#7d97f4"/><rect width="3.068" height="41.739" transform="translate(59.615 0.026)" fill="#7d97f4"/><rect width="3.068" height="41.739" transform="translate(66.14 0.026)" fill="#7d97f4"/><rect width="3.068" height="41.739" transform="translate(67.017 0.026)" fill="#7d97f4"/><rect width="3.068" height="41.739" transform="translate(73.249 0.026)" fill="#7d97f4"/><rect width="3.068" height="41.739" transform="translate(74.125 0.026)" fill="#7d97f4"/><rect width="3.068" height="41.739" transform="translate(80.65 0.026)" fill="#7d97f4"/><rect width="3.068" height="41.739" transform="translate(81.527 0.026)" fill="#7d97f4"/><rect width="3.068" height="41.739" transform="translate(88.197 0.026)" fill="#7d97f4"/><rect width="3.068" height="41.739" transform="translate(89.074 0.026)" fill="#7d97f4"/></g></g><g transform="translate(106.063 46.134)"><path d="M2990.1,1371.88H2888.369c-.563,0-7.119,2.719-7.119,2.719l5.113.265v41.985a1.9,1.9,0,0,0,2.006,1.745h100.1a2.22,2.22,0,0,0,2.357-2.051v-44.036A.686.686,0,0,0,2990.1,1371.88Z" transform="translate(-2880.74 -1371.88)" fill="url(#bn)"/><path d="M3614.895,1425.182l6.489-2.415a.942.942,0,0,0,.653-.862V1377.15l-8.666,1.507Z" transform="translate(-3511.957 -1376.518)" fill="url(#bo)"/><rect width="104.434" height="46.615" rx="1.92" transform="translate(0 2.139)" fill="url(#bp)"/><rect width="99.335" height="41.739" rx="2.8" transform="translate(2.725 4.55)" fill="url(#bq)"/><g transform="translate(6.183 4.537)"><rect width="3.068" height="41.739" transform="translate(0 0.013)" fill="url(#br)"/><rect width="3.068" height="41.739" transform="translate(0.877 0.013)" fill="url(#bs)"/><rect width="3.068" height="41.739" transform="translate(7.401 0.013)" fill="url(#br)"/><rect width="3.068" height="41.739" transform="translate(8.278 0.013)" fill="url(#bu)"/><rect width="3.068" height="41.739" transform="translate(14.769 0.04)" fill="url(#br)"/><rect width="3.068" height="41.739" transform="translate(15.646 0.04)" fill="url(#bw)"/><rect width="3.068" height="41.739" transform="translate(22.172 0.04)" fill="url(#bx)"/><rect width="3.068" height="41.739" transform="translate(23.047 0.04)" fill="url(#by)"/><rect width="3.068" height="41.739" transform="translate(29.281 0.04)" fill="url(#bx)"/><rect width="3.068" height="41.739" transform="translate(30.156 0.04)" fill="url(#ca)"/><rect width="3.068" height="41.739" transform="translate(36.682 0.04)" fill="url(#bx)"/><rect width="3.068" height="41.739" transform="translate(37.557 0.04)" fill="url(#cc)"/><rect width="3.068" height="41.739" transform="translate(43.968)" fill="url(#cd)"/><rect width="3.068" height="41.739" transform="translate(44.845)" fill="url(#ce)"/><rect width="3.068" height="41.739" transform="translate(51.369)" fill="url(#cd)"/><rect width="3.068" height="41.739" transform="translate(52.246)" fill="url(#cg)"/><rect width="3.068" height="41.739" transform="translate(58.739 0.026)" fill="url(#bx)"/><rect width="3.068" height="41.739" transform="translate(59.615 0.026)" fill="url(#ci)"/><rect width="3.068" height="41.739" transform="translate(66.14 0.026)" fill="url(#bx)"/><rect width="3.068" height="41.739" transform="translate(67.017 0.026)" fill="url(#ck)"/><rect width="3.068" height="41.739" transform="translate(73.249 0.026)" fill="url(#cl)"/><rect width="3.068" height="41.739" transform="translate(74.125 0.026)" fill="url(#cm)"/><rect width="3.068" height="41.739" transform="translate(80.65 0.026)" fill="url(#cn)"/><rect width="3.068" height="41.739" transform="translate(81.527 0.026)" fill="url(#co)"/><rect width="3.068" height="41.739" transform="translate(88.197 0.026)" fill="url(#cn)"/><rect width="3.068" height="41.739" transform="translate(89.074 0.026)" fill="url(#cq)"/></g></g><g transform="translate(105.37 139.044)"><path d="M2985.053,2146.4H2883.32c-.562,0-7.12,2.719-7.12,2.719l5.113.265v41.985a1.9,1.9,0,0,0,2.008,1.745h100.095a2.222,2.222,0,0,0,2.359-2.052v-44.036A.687.687,0,0,0,2985.053,2146.4Z" transform="translate(-2875.693 -2146.4)" fill="url(#bn)"/><path d="M3609.865,2199.7l6.489-2.416a.942.942,0,0,0,.654-.861V2151.67l-8.667,1.507Z" transform="translate(-3506.927 -2151.038)" fill="url(#cs)"/><rect width="104.434" height="46.615" rx="1.92" transform="translate(0 2.139)" fill="url(#bp)"/><rect width="99.335" height="41.739" rx="2.8" transform="translate(2.725 4.55)" fill="url(#bq)"/><g transform="translate(6.183 4.537)"><rect width="3.068" height="41.739" transform="translate(0 0.013)" fill="url(#br)"/><rect width="3.068" height="41.739" transform="translate(0.877 0.013)" fill="url(#cw)"/><rect width="3.068" height="41.739" transform="translate(7.401 0.013)" fill="url(#br)"/><rect width="3.068" height="41.739" transform="translate(8.278 0.013)" fill="url(#bu)"/><rect width="3.068" height="41.739" transform="translate(14.771 0.04)" fill="url(#bx)"/><rect width="3.068" height="41.739" transform="translate(15.646 0.04)" fill="url(#bw)"/><rect width="3.068" height="41.739" transform="translate(22.172 0.04)" fill="url(#bx)"/><rect width="3.068" height="41.739" transform="translate(23.047 0.04)" fill="url(#by)"/><rect width="3.068" height="41.739" transform="translate(29.281 0.04)" fill="url(#bx)"/><rect width="3.068" height="41.739" transform="translate(30.157 0.04)" fill="url(#de)"/><rect width="3.068" height="41.739" transform="translate(36.682 0.04)" fill="url(#bx)"/><rect width="3.068" height="41.739" transform="translate(37.558 0.04)" fill="url(#dg)"/><rect width="3.068" height="41.739" transform="translate(43.968)" fill="url(#cd)"/><rect width="3.068" height="41.739" transform="translate(44.845)" fill="url(#ce)"/><rect width="3.068" height="41.739" transform="translate(51.37)" fill="url(#cd)"/><rect width="3.068" height="41.739" transform="translate(52.246)" fill="url(#cg)"/><rect width="3.068" height="41.739" transform="translate(58.739 0.026)" fill="url(#cn)"/><rect width="3.068" height="41.739" transform="translate(59.615 0.026)" fill="url(#ci)"/><rect width="3.068" height="41.739" transform="translate(66.14 0.026)" fill="url(#cn)"/><rect width="3.068" height="41.739" transform="translate(67.017 0.026)" fill="url(#ck)"/><rect width="3.068" height="41.739" transform="translate(73.249 0.026)" fill="url(#br)"/><rect width="3.068" height="41.739" transform="translate(74.125 0.026)" fill="url(#cm)"/><rect width="3.068" height="41.739" transform="translate(80.65 0.026)" fill="url(#br)"/><rect width="3.068" height="41.739" transform="translate(81.527 0.026)" fill="url(#co)"/><rect width="3.068" height="41.739" transform="translate(88.197 0.026)" fill="url(#br)"/><rect width="3.068" height="41.739" transform="translate(89.074 0.026)" fill="url(#cq)"/></g></g><g transform="translate(106.007)"><path d="M2989.668,987.3H2887.94c-.562,0-7.12,2.719-7.12,2.719l5.113.264v41.991a1.9,1.9,0,0,0,2.008,1.745h100.1a2.221,2.221,0,0,0,2.357-2.051V987.932A.685.685,0,0,0,2989.668,987.3Z" transform="translate(-2880.313 -987.3)" fill="url(#dv)"/><path d="M3614.516,1040.6l6.49-2.416a.943.943,0,0,0,.653-.861V992.57l-8.66,1.507Z" transform="translate(-3511.582 -991.938)" fill="url(#dw)"/><rect width="104.434" height="46.615" rx="2.82" transform="translate(0 2.139)" fill="url(#dx)"/><rect width="99.335" height="41.739" rx="2.8" transform="translate(2.725 4.55)" fill="url(#dy)"/><g transform="translate(6.184 4.537)"><rect width="3.068" height="41.739" transform="translate(0 0.013)" fill="url(#dz)"/><rect width="3.068" height="41.739" transform="translate(0.877 0.013)" fill="url(#ea)"/><rect width="3.068" height="41.739" transform="translate(7.401 0.013)" fill="url(#eb)"/><rect width="3.068" height="41.739" transform="translate(8.278 0.013)" fill="url(#ec)"/><rect width="3.068" height="41.739" transform="translate(14.769 0.04)" fill="url(#ed)"/><rect width="3.068" height="41.739" transform="translate(15.646 0.04)" fill="url(#ee)"/><rect width="3.068" height="41.739" transform="translate(22.17 0.04)" fill="url(#ef)"/><rect width="3.068" height="41.739" transform="translate(23.047 0.04)" fill="url(#eg)"/><rect width="3.068" height="41.739" transform="translate(29.279 0.04)" fill="url(#eh)"/><rect width="3.068" height="41.739" transform="translate(30.156 0.04)" fill="url(#ei)"/><rect width="3.068" height="41.739" transform="translate(36.68 0.04)" fill="url(#ej)"/><rect width="3.068" height="41.739" transform="translate(37.557 0.04)" fill="url(#ek)"/><rect width="3.068" height="41.739" transform="translate(43.968)" fill="url(#el)"/><rect width="3.068" height="41.739" transform="translate(44.845)" fill="url(#em)"/><rect width="3.068" height="41.739" transform="translate(51.369)" fill="url(#en)"/><rect width="3.068" height="41.739" transform="translate(52.246)" fill="url(#eo)"/><rect width="3.068" height="41.739" transform="translate(58.737 0.026)" fill="url(#ep)"/><rect width="3.068" height="41.739" transform="translate(59.614 0.026)" fill="url(#eq)"/><rect width="3.068" height="41.739" transform="translate(66.139 0.026)" fill="url(#er)"/><rect width="3.068" height="41.739" transform="translate(67.015 0.026)" fill="url(#es)"/><rect width="3.068" height="41.739" transform="translate(73.248 0.026)" fill="url(#et)"/><rect width="3.068" height="41.739" transform="translate(74.124 0.026)" fill="url(#eu)"/><rect width="3.068" height="41.739" transform="translate(80.649 0.026)" fill="url(#ev)"/><rect width="3.068" height="41.739" transform="translate(81.525 0.026)" fill="url(#ew)"/><rect width="3.068" height="41.739" transform="translate(88.196 0.026)" fill="url(#ex)"/><rect width="3.068" height="41.739" transform="translate(89.072 0.026)" fill="url(#ey)"/></g></g></g><g transform="translate(12.087 19.296)"><path d="M663.621,506.053l-79.6-34.843L543.69,507.965l2.741.089,38.2-35.38,77.807,34.441Z" transform="translate(-543.554 -470.252)" fill="url(#ez)"/><g transform="translate(0 37.525)"><path d="M647.429,780.08l-.179,7.963,1.617.006.178-7.963Z" transform="translate(-632.841 -779.595)" fill="url(#fa)"/><path d="M542.91,840.3l30.018.112-.043.687-29.975-.112Z" transform="translate(-542.881 -832.591)" fill="url(#fb)"/><path d="M542.91,776.04l29.639.112.35.687-29.989-.112Z" transform="translate(-542.881 -776.04)" fill="url(#fc)"/><rect width="0.86" height="8.387" transform="translate(0.86 8.396) rotate(180)" fill="url(#fd)"/></g><g transform="translate(27.869 159.101)"><rect width="23.575" height="2.456" transform="translate(24.837 2.456) rotate(180)" fill="url(#fe)"/><rect width="23.507" height="1.718" transform="translate(24.785 31.866) rotate(180)" fill="url(#ff)"/><rect width="23.507" height="1.718" transform="translate(24.785 16.669) rotate(180)" fill="url(#fg)"/><rect width="23.507" height="1.718" transform="translate(24.785 46.816) rotate(180)" fill="url(#fh)"/><rect width="23.507" height="1.718" transform="translate(24.785 61.768) rotate(180)" fill="url(#fi)"/><rect width="23.507" height="1.718" transform="translate(24.785 76.257) rotate(180)" fill="url(#fj)"/><rect width="23.507" height="1.718" transform="translate(24.785 91.208) rotate(180)" fill="url(#fk)"/><path d="M0,0,1.714.113,3.4,26.959l-1.714-.113Z" transform="matrix(-0.56, 0.828, -0.828, -0.56, 24.783, 14.462)" fill="url(#fl)"/><path d="M0,0,1.714.113,3.4,26.959l-1.714-.113Z" transform="matrix(-0.56, 0.828, -0.828, -0.56, 24.505, 44.517)" fill="url(#fm)"/><path d="M0,0,1.714.113,3.4,26.959l-1.714-.113Z" transform="matrix(-0.56, 0.828, -0.828, -0.56, 24.781, 74.57)" fill="url(#fn)"/><path d="M3.52,0,5.257-.12l-1.783,26.5-1.737.12Z" transform="matrix(0.639, 0.769, -0.769, 0.639, 20.948, 71.877)" fill="url(#fo)"/><path d="M3.52,0,5.257-.12l-1.783,26.5-1.737.12Z" transform="matrix(0.639, 0.769, -0.769, 0.639, 20.586, 41.378)" fill="url(#fp)"/><path d="M3.52,0,5.257-.12l-1.783,26.5-1.737.12Z" transform="matrix(0.639, 0.769, -0.769, 0.639, 20.586, 11.476)" fill="url(#fq)"/><path d="M0,0,1.714.113,3.4,26.959l-1.714-.113Z" transform="matrix(-0.56, 0.828, -0.828, -0.56, 24.781, 103.614)" fill="url(#fr)"/><rect width="2.03" height="103.294" transform="translate(24.785 103.295) rotate(180)" fill="url(#fs)"/><rect width="2.03" height="103.294" transform="translate(2.03 103.39) rotate(180)" fill="url(#ft)"/></g><g transform="translate(28.075 35.277)"><rect width="23.507" height="1.718" transform="translate(24.785 1.84) rotate(180)" fill="url(#fu)"/><rect width="23.507" height="1.718" transform="translate(24.785 17) rotate(180)" fill="url(#fv)"/><rect width="23.507" height="1.718" transform="translate(24.785 31.951) rotate(180)" fill="url(#fw)"/><rect width="23.507" height="1.718" transform="translate(24.785 46.441) rotate(180)" fill="url(#fx)"/><rect width="23.507" height="1.718" transform="translate(24.785 61.391) rotate(180)" fill="url(#fy)"/><path d="M0,0,1.714.113,3.4,26.959l-1.714-.113Z" transform="matrix(-0.56, 0.828, -0.828, -0.56, 24.51, 14.694)" fill="url(#fz)"/><path d="M0,0,1.714.113,3.4,26.959l-1.714-.113Z" transform="matrix(-0.56, 0.828, -0.828, -0.56, 24.785, 44.75)" fill="url(#ga)"/><path d="M3.52,0,5.257-.12l-1.783,26.5-1.737.12Z" transform="matrix(0.639, 0.769, -0.769, 0.639, 20.947, 42.056)" fill="url(#gb)"/><path d="M3.52,0,5.257-.12l-1.783,26.5-1.737.12Z" transform="matrix(0.639, 0.769, -0.769, 0.639, 20.585, 11.558)" fill="url(#gc)"/><path d="M0,0,1.714.113,3.4,26.959l-1.714-.113Z" transform="matrix(-0.56, 0.828, -0.828, -0.56, 24.786, 73.792)" fill="url(#gd)"/><rect width="2.03" height="73.506" transform="translate(24.786 73.506) rotate(180)" fill="url(#ge)"/><rect width="2.03" height="73.506" transform="translate(2.03 73.573) rotate(180)" fill="url(#gf)"/></g><g transform="translate(51.471 35.271)"><path d="M1615.729,767.17l-.179,11.951,2.308.013.179-11.951Z" transform="translate(-1519.158 -765.98)" fill="url(#gg)"/><path d="M1525.748,776.408l-1.268-.542L1537.5,764.19l1.268.542Z" transform="translate(-1440.64 -763.358)" fill="url(#gh)"/><path d="M1320.7,773.886l-1.267-.541,13.016-11.676,1.267.541Z" transform="translate(-1263.85 -761.14)" fill="url(#gi)"/><path d="M1115.606,773.707l-1.266-.541,13.016-11.675,1.267.541Z" transform="translate(-1087.026 -760.981)" fill="url(#gj)"/><path d="M1025.461,775.935l-1.192.6-14.479-10.994,1.194-.6Z" transform="translate(-996.886 -764.018)" fill="url(#gk)"/><path d="M1230.6,775.786l-1.192.6-14.957-11.342,1.672-.255Z" transform="translate(-1173.339 -763.886)" fill="url(#gl)"/><path d="M1432.923,777.125l-1.194.6L1416.5,766.255l1.945-.125Z" transform="translate(-1347.542 -765.065)" fill="url(#gm)"/><path d="M917.428,772.4l-1.268-.542,13.016-11.675,1.267.542Z" transform="translate(-916.16 -759.829)" fill="url(#gn)"/><path d="M927.485,853.46l-.015,1.029,97.143.558.015-1.029Z" transform="translate(-925.911 -841.919)" fill="url(#go)"/><path d="M923.8,757.25l-.015,1.029,97.733.563.017-1.029Z" transform="translate(-922.73 -757.25)" fill="url(#gp)"/></g><g transform="translate(26.782 107.797)"><rect width="28.237" height="1.958" transform="translate(28.237 1.958) rotate(180)" fill="url(#gq)"/><rect width="26.782" height="1.958" transform="translate(28.237 18.991) rotate(180)" fill="url(#gr)"/><rect width="26.782" height="1.958" transform="translate(28.237 35.498) rotate(180)" fill="url(#gs)"/><rect width="26.782" height="1.958" transform="translate(28.237 52.532) rotate(180)" fill="url(#gt)"/><path d="M0,0,1.953.129,3.871,30.715l-1.953-.129Z" transform="matrix(-0.56, 0.828, -0.828, -0.56, 28.236, 33.575)" fill="url(#gu)"/><path d="M775.332,1641.83l1.369,1.435-23.48,16.984-2.41-.681Z" transform="translate(-748.91 -1608.243)" fill="url(#gv)"/><path d="M0,0,1.979-.137.14,27.2l-1.979.137Z" transform="matrix(0.639, 0.769, -0.769, 0.639, 23.69, 0.525)" fill="url(#gw)"/><rect width="2.313" height="52.483" transform="translate(28.237 52.483) rotate(180)" fill="url(#gx)"/><rect width="2.313" height="52.483" transform="translate(2.313 52.531) rotate(180)" fill="url(#gy)"/></g><rect width="47.812" height="5.566" transform="translate(16.251 261.662)" fill="url(#gz)"/><g transform="translate(72.688 44.672)"><g transform="translate(29.246)"><path d="M1286.3,874.323l-1.289-6.118a1.891,1.891,0,0,1,.515-1.7,2.547,2.547,0,0,1,1.832-.751h3.2a2.989,2.989,0,0,1,2.044.777,2.238,2.238,0,0,1,.731,1.834l-.557,6.3a2.844,2.844,0,0,1-1.327,2.093,7.226,7.226,0,0,0-3.17,5.366,4.911,4.911,0,0,0,3.007,5.175,7.2,7.2,0,0,0,4.209.7c.765-.168,3.487-1.065,3.675-1.74,2.736-5.435,5.87-.284,1.63,2.851a12.045,12.045,0,0,1-5.318,2.131c-9.13,1.287-17.986-7.182-10.182-14.035A2.974,2.974,0,0,0,1286.3,874.323Z" transform="translate(-1282.304 -862.136)" fill="url(#ha)"/><path d="M3.41.218A4.1,4.1,0,0,1,7.037,4.064a3.04,3.04,0,0,1-3.192,3.41A4.1,4.1,0,0,1,.218,3.628,3.04,3.04,0,0,1,3.41.218Z" transform="matrix(0.526, -0.851, 0.851, 0.526, 1.934, 5.571)" fill="url(#hb)"/><path d="M2.029.13A2.44,2.44,0,0,1,4.188,2.417a1.807,1.807,0,0,1-1.9,2.026A2.44,2.44,0,0,1,.13,2.157,1.807,1.807,0,0,1,2.029.13Z" transform="matrix(0.529, -0.849, 0.849, 0.529, 4.731, 5.674)" fill="#fff" opacity="0.75"/></g><path d="M1070.56,1054.129a.444.444,0,0,1-.454-.356.41.41,0,0,1,.348-.438l38.937-8.037a.52.52,0,0,1,.172-.007l63.272,7.906a.415.415,0,0,1,.389.458.458.458,0,0,1-.526.339l-63.178-7.9-38.853,8.023A.511.511,0,0,1,1070.56,1054.129Z" transform="translate(-1070.102 -1020.135)" fill="#7d97f4"/><path d="M1109.121,1048.032a.442.442,0,0,1-.458-.362.413.413,0,0,1,.365-.434l33.353-5.9a.458.458,0,0,1,.138-.006l67.779,5.564a.421.421,0,0,1,.413.438.381.381,0,0,1-.164.273.5.5,0,0,1-.339.087l-67.711-5.558-33.283,5.886A.482.482,0,0,1,1109.121,1048.032Z" transform="translate(-1103.346 -1016.652)" fill="#7d97f4"/></g><g transform="translate(21.441 119.863)"><rect width="39.371" height="1.278" rx="0.639" transform="translate(39.371 1.278) rotate(180)" fill="url(#hc)"/><rect width="37.855" height="1.278" transform="translate(38.489 16.005) rotate(180)" fill="url(#hd)"/><rect width="1.468" height="15.771" transform="translate(38.49 15.771) rotate(180)" fill="url(#he)"/><rect width="0.733" height="15.771" transform="translate(34.599 15.771) rotate(180)" fill="url(#hf)"/><rect width="0.733" height="15.771" transform="translate(30.958 15.771) rotate(180)" fill="url(#hg)"/><rect width="0.733" height="15.771" transform="translate(27.317 15.771) rotate(180)" fill="url(#hh)"/><rect width="0.733" height="15.771" transform="translate(23.675 15.771) rotate(180)" fill="url(#hi)"/><rect width="0.733" height="15.771" transform="translate(19.786 15.771) rotate(180)" fill="url(#hj)"/><rect width="0.733" height="15.771" transform="translate(16.145 15.771) rotate(180)" fill="url(#hk)"/><rect width="0.733" height="15.771" transform="translate(12.046 15.771) rotate(180)" fill="url(#hl)"/><rect width="0.733" height="15.771" transform="translate(8.403 15.771) rotate(180)" fill="url(#hm)"/><rect width="0.733" height="15.771" transform="translate(4.794 15.771) rotate(180)" fill="url(#hn)"/><rect width="1.468" height="15.771" transform="translate(2.102 15.771) rotate(180)" fill="url(#ho)"/></g><g transform="translate(28.075 0.958)"><path d="M0,0,.875.058,2.194,21.081l-.875-.058Z" transform="matrix(-0.56, 0.828, -0.828, -0.56, 23.771, 34.133)" fill="url(#hp)"/><path d="M0,0,.875.058l.916,14.611-.875-.058Z" transform="matrix(-0.56, 0.828, -0.828, -0.56, 20.314, 22.156)" fill="url(#hq)"/><path d="M0,0,.875.058l.538,8.575L.538,8.575Z" transform="matrix(-0.56, 0.828, -0.828, -0.56, 16.976, 13.699)" fill="url(#hr)"/><path d="M2.349,0l.888-.061L1.775,21.6l-.888.061Z" transform="translate(17.594 19.43) rotate(49.95)" fill="url(#hs)"/><path d="M2.013,0l.9-.062L1.8,16.019l-.9.062Z" transform="translate(14.712 12.192) rotate(45)" fill="url(#ht)"/><path d="M0,0,.837-.058.41,6.1l-.837.058Z" transform="translate(13.795 5.932) rotate(45)" fill="url(#hu)"/><path d="M771.185,505.651,758.793,471.21,746.4,506.032h2.518l9.875-29.908,10.362,29.4Z" transform="translate(-746.4 -471.21)" fill="url(#hv)"/></g><ellipse cx="2.878" cy="2.505" rx="2.878" ry="2.505" transform="translate(37.266)" fill="url(#hw)"/><g transform="translate(40.531 29.354)"><path d="M0,0H43.277V23.694a2.69,2.69,0,0,1-2.856,2.486H8.027C3.6,26.182,0,23.058,0,19.2V0Z" transform="translate(43.277 26.18) rotate(180)" fill="url(#hx)"/><path d="M874.2,747.608l-.284-21.422a2.477,2.477,0,0,0-.935-1.869,3.279,3.279,0,0,0-2.19-.721l-9.478.308a2.339,2.339,0,0,0-2.4,2.172v21.531Z" transform="translate(-855.86 -721.714)" fill="url(#hy)"/><path d="M874,756.727h10.41V745.3a1.566,1.566,0,0,0-1.578-1.462l-5.651-.292a3.206,3.206,0,0,0-3.17,3.394Z" transform="translate(-868.87 -739.266)" fill="url(#hz)"/><path d="M1051.949,726.96H1038.6a1.909,1.909,0,0,1-2.018-1.715l-.429-16.164C1042.869,709.815,1052.718,714.625,1051.949,726.96Z" transform="translate(-1008.672 -708.941)" fill="url(#ia)"/></g><rect width="34.92" height="5.726" transform="translate(58.378 141.594) rotate(180)" fill="url(#ib)"/></g><g transform="translate(0.672 150.627)"><rect width="326.478" height="130.723" transform="translate(11.284 34.791)" fill="#7d97f4"/><g transform="translate(32.354 56.773)"><path d="M713.2,2044.27h80.055a2.437,2.437,0,0,1,2.587,2.252v104.392H711.38V2045.856A1.716,1.716,0,0,1,713.2,2044.27Z" transform="translate(-709.072 -2042.714)" fill="url(#ic)"/><rect width="91.337" height="9.328" rx="4.664" fill="url(#id)"/></g><g transform="translate(128.93 56.906)"><path d="M1419.762,2049.83h80.053a2.437,2.437,0,0,1,2.587,2.251v104.393H1417.94V2051.41A1.718,1.718,0,0,1,1419.762,2049.83Z" transform="translate(-1414.827 -2047.74)" fill="url(#ie)"/><path d="M1482.313,2042.54h-82.588c-2.416-.8-4.374-2.506-4.374-4.609v-1.713a4.12,4.12,0,0,1,4.374-3.807h82.588a4.12,4.12,0,0,1,4.375,3.807v1.713C1486.687,2040.038,1484.729,2041.738,1482.313,2042.54Z" transform="translate(-1395.35 -2032.41)" fill="url(#if)"/></g><g transform="translate(225.509 57.509)"><path d="M2120.513,2054.86h80.054a2.437,2.437,0,0,1,2.587,2.252V2161.5H2118.69V2056.446A1.716,1.716,0,0,1,2120.513,2054.86Z" transform="translate(-2115.577 -2052.771)" fill="url(#ie)"/><path d="M2183.063,2047.569h-82.588c-2.416-.8-4.375-2.506-4.375-4.609v-1.713a4.121,4.121,0,0,1,4.375-3.807h82.588a4.12,4.12,0,0,1,4.374,3.807v1.713C2187.437,2045.064,2185.479,2046.768,2183.063,2047.569Z" transform="translate(-2096.1 -2037.44)" fill="url(#if)"/></g><rect width="324.724" height="7.335" transform="translate(12.777 34.791)" opacity="0.35" fill="url(#ii)"/><path d="M806.316,1594.134H463.587c-2.988,0-4.745-2.183-3.043-3.78l32.987-30.936a6.491,6.491,0,0,1,4.308-1.388H781.426c2.838,0,5.4.975,6.515,2.478l22.074,29.8C811.328,1592.081,809.343,1594.134,806.316,1594.134Z" transform="translate(-459.878 -1558.03)" fill="url(#ij)"/></g><g transform="translate(83.026 94.518)"><path d="M1169.936,1090.29H1068.209c-.562,0-7.119,2.719-7.119,2.719l5.113.264v41.985a1.9,1.9,0,0,0,2.005,1.747h100.1a2.22,2.22,0,0,0,2.357-2.051v-44.037A.686.686,0,0,0,1169.936,1090.29Z" transform="translate(-1060.583 -1090.29)" fill="url(#bn)"/><path d="M1794.754,1143.6l6.489-2.416a.942.942,0,0,0,.653-.861V1095.56l-8.666,1.505Z" transform="translate(-1691.817 -1094.928)" fill="url(#il)"/><rect width="104.434" height="46.615" rx="2.63" transform="translate(0 2.138)" fill="url(#im)"/><rect width="99.335" height="41.739" rx="2.8" transform="translate(2.725 4.55)" fill="url(#in)"/><g transform="translate(6.183 4.537)"><rect width="3.068" height="41.739" transform="translate(0 0.013)" fill="url(#br)"/><rect width="3.068" height="41.739" transform="translate(0.877 0.013)" fill="url(#bs)"/><rect width="3.068" height="41.739" transform="translate(7.401 0.013)" fill="url(#br)"/><rect width="3.068" height="41.739" transform="translate(8.278 0.013)" fill="url(#bu)"/><rect width="3.068" height="41.739" transform="translate(14.769 0.038)" fill="url(#cd)"/><rect width="3.068" height="41.739" transform="translate(15.646 0.038)" fill="url(#it)"/><rect width="3.068" height="41.739" transform="translate(22.17 0.038)" fill="url(#cd)"/><rect width="3.068" height="41.739" transform="translate(23.047 0.038)" fill="url(#by)"/><rect width="3.068" height="41.739" transform="translate(29.279 0.038)" fill="url(#cd)"/><rect width="3.068" height="41.739" transform="translate(30.156 0.038)" fill="url(#ca)"/><rect width="3.068" height="41.739" transform="translate(36.68 0.038)" fill="url(#cd)"/><rect width="3.068" height="41.739" transform="translate(37.557 0.038)" fill="url(#iz)"/><rect width="3.068" height="41.739" transform="translate(43.968)" fill="url(#br)"/><rect width="3.068" height="41.739" transform="translate(44.845)" fill="url(#ce)"/><rect width="3.068" height="41.739" transform="translate(51.369)" fill="url(#br)"/><rect width="3.068" height="41.739" transform="translate(52.246)" fill="url(#cg)"/><rect width="3.068" height="41.739" transform="translate(58.739 0.026)" fill="url(#je)"/><rect width="3.068" height="41.739" transform="translate(59.614 0.026)" fill="url(#jf)"/><rect width="3.068" height="41.739" transform="translate(66.14 0.026)" fill="url(#jg)"/><rect width="3.068" height="41.739" transform="translate(67.015 0.026)" fill="url(#jh)"/><rect width="3.068" height="41.739" transform="translate(73.249 0.026)" fill="url(#je)"/><rect width="3.068" height="41.739" transform="translate(74.124 0.026)" fill="url(#jj)"/><rect width="3.068" height="41.739" transform="translate(80.65 0.026)" fill="url(#je)"/><rect width="3.068" height="41.739" transform="translate(81.527 0.026)" fill="url(#jl)"/><rect width="3.068" height="41.739" transform="translate(88.197 0.026)" fill="url(#je)"/><rect width="3.068" height="41.739" transform="translate(89.074 0.026)" fill="url(#cq)"/></g></g><g transform="translate(126.324 261.326)"><rect width="187.67" height="9.911" transform="translate(3.796 64.42)" fill="url(#jo)"/><rect width="3.796" height="13.582" transform="translate(0 62.217)" fill="url(#jp)"/><path d="M1559.873,2485.34c0-2.475-2.831-4.5-7.412-4.5H1379.935c-4.58,0-8.365,2.024-8.365,4.5v56.3c0,2.475,3.785,4.54,8.365,4.54H1552.46c4.581,0,7.412-2.065,7.412-4.54Z" transform="translate(-1371.57 -2480.84)" fill="url(#jq)"/><path d="M1589.944,2509.152c0-2.264-3.583-3.832-7.9-3.832H1419.287c-4.32,0-7.947,1.568-7.947,3.832v51.462c0,2.265,3.628,3.989,7.947,3.989h162.755c4.319,0,7.9-1.724,7.9-3.989Z" transform="translate(-1405.859 -2502.384)" fill="url(#jr)"/><path d="M2794.569,2678.526l-8.507-22.594c-.214-.573-.827-.672-1.516-.672H2750.09v53.407h46.5Z" transform="translate(-2560.098 -2634.337)" fill="url(#js)"/><path d="M2855.687,3032.428a3.907,3.907,0,0,0-1.836-.392l-35.726.6-.2,8.813,35.948.761c1.305,0,2.779-.548,2.779-1.32v-7.466C2856.647,3033.049,2856.144,3032.69,2855.687,3032.428Z" transform="translate(-2618.579 -2965.915)" fill="url(#jt)"/><g transform="translate(199.431 23.825)"><path d="M2846.976,2700.133l-5.142-17.713a1.6,1.6,0,0,0-1.55-1.08h-20.109a1.555,1.555,0,0,0-1.6,1.485l.483,14.2a1.477,1.477,0,0,0,1.342,1.336l24.77,3.479a1.739,1.739,0,0,0,1.433-.432,1.263,1.263,0,0,0,.371-1.28Z" transform="translate(-2818.576 -2681.114)" fill="#91b3fa"/><path d="M3007.172,2679.45l-.262.038a1.629,1.629,0,0,0-1.082.619,1.238,1.238,0,0,0-.2,1.113l5.6,18.141a1.622,1.622,0,0,0,1.838,1.007l1.77-.289Z" transform="translate(-2979.801 -2679.45)" fill="#91b3fa"/></g><rect width="9.278" height="2.753" rx="1.377" transform="translate(199.689 45.883)" fill="url(#ju)"/><path d="M2752.71,2520.949a2.876,2.876,0,0,0-1.739.368c-.394.319-.9.686-.9,1.154v14.587h21.112S2770.061,2522.048,2752.71,2520.949Z" transform="translate(-2560.081 -2516.132)" fill="url(#jv)"/><g transform="translate(195.424 61.676)"><ellipse cx="16.204" cy="14.103" rx="16.204" ry="14.103" fill="url(#jw)"/><path d="M13.138.192C20.393.3,26.361,5.521,26.467,11.859s-5.69,11.39-12.946,11.284S.3,17.813.192,11.475,5.882.086,13.138.192Z" transform="matrix(0.994, -0.113, 0.113, 0.994, 1.655, 4.003)" fill="#91b3fa"/><path d="M2881.759,3039.574a.484.484,0,0,1-.386-.179.357.357,0,0,1-.039-.38,8.9,8.9,0,0,0-2.846-11.045,12.52,12.52,0,0,0-12.926-1.247.5.5,0,0,1-.61-.164.374.374,0,0,1,.157-.538,13.554,13.554,0,0,1,13.992,1.351,9.635,9.635,0,0,1,3.083,11.955A.468.468,0,0,1,2881.759,3039.574Z" transform="translate(-2854.501 -3021.121)" fill="url(#jx)"/><path d="M5.294.175c2.924.1,5.373,2.859,5.469,6.169s-2.2,5.916-5.119,5.819S.271,9.3.175,5.994,2.37.078,5.294.175Z" transform="translate(8.93 17.989) rotate(-76.72)" fill="url(#jy)"/></g><g transform="translate(41.27 62.07)"><ellipse cx="16.204" cy="14.103" rx="16.204" ry="14.103" fill="url(#jz)"/><path d="M13.143.167C20.4.259,26.36,5.47,26.453,11.8s-5.717,11.4-12.976,11.3S.259,17.8.167,11.47,5.884.075,13.143.167Z" transform="translate(1.777 3.855) rotate(-5.65)" fill="#91b3fa"/><path d="M1763.151,3042.88a.494.494,0,0,1-.179-.033.431.431,0,0,1-.248-.218.35.35,0,0,1,0-.308,8.9,8.9,0,0,0-2.851-11.041,12.522,12.522,0,0,0-12.922-1.248.5.5,0,0,1-.629-.154.376.376,0,0,1,.177-.548,13.554,13.554,0,0,1,13.992,1.352,9.635,9.635,0,0,1,3.083,11.956A.469.469,0,0,1,1763.151,3042.88Z" transform="translate(-1735.894 -3024.427)" fill="url(#ka)"/><path d="M5.339.244c2.948.135,5.448,2.908,5.583,6.194s-2.146,5.84-5.094,5.705S.379,9.235.244,5.95,2.39.109,5.339.244Z" transform="translate(8.512 17.322) rotate(-70.67)" fill="url(#kb)"/></g><g transform="translate(132.586 62.07)"><ellipse cx="16.204" cy="14.103" rx="16.204" ry="14.103" fill="url(#kc)"/><path d="M13.143.167C20.4.259,26.36,5.47,26.453,11.8s-5.717,11.4-12.976,11.3S.259,17.8.167,11.47,5.884.075,13.143.167Z" transform="translate(1.777 3.861) rotate(-5.65)" fill="#91b3fa"/><path d="M2425.711,3042.881a.485.485,0,0,1-.384-.18.359.359,0,0,1-.041-.379,8.9,8.9,0,0,0-2.851-11.041,12.52,12.52,0,0,0-12.922-1.248.5.5,0,0,1-.629-.155.376.376,0,0,1,.177-.547,13.555,13.555,0,0,1,13.992,1.352,9.635,9.635,0,0,1,3.083,11.956A.467.467,0,0,1,2425.711,3042.881Z" transform="translate(-2398.455 -3024.428)" fill="url(#ka)"/><path d="M5.339.244c2.948.135,5.448,2.908,5.583,6.194s-2.146,5.84-5.094,5.705S.379,9.235.244,5.95,2.39.109,5.339.244Z" transform="translate(8.513 17.323) rotate(-70.67)" fill="url(#ke)"/></g><g transform="translate(4.201 62.07)"><ellipse cx="16.204" cy="14.103" rx="16.204" ry="14.103" fill="url(#kf)"/><path d="M13.143.167C20.4.259,26.36,5.47,26.453,11.8s-5.717,11.4-12.976,11.3S.259,17.8.167,11.47,5.884.075,13.143.167Z" transform="translate(1.777 3.851) rotate(-5.65)" fill="#91b3fa"/><path d="M1494.192,3042.88a.482.482,0,0,1-.384-.181.359.359,0,0,1-.041-.378,8.9,8.9,0,0,0-2.851-11.041,12.52,12.52,0,0,0-12.922-1.248.5.5,0,0,1-.629-.154.376.376,0,0,1,.177-.548,13.554,13.554,0,0,1,13.992,1.352,9.635,9.635,0,0,1,3.083,11.956A.469.469,0,0,1,1494.192,3042.88Z" transform="translate(-1466.934 -3024.427)" fill="url(#ka)"/><path d="M5.339.244c2.948.135,5.448,2.908,5.583,6.194s-2.146,5.84-5.094,5.705S.379,9.235.244,5.95,2.39.109,5.339.244Z" transform="translate(8.512 17.323) rotate(-70.67)" fill="url(#kh)"/></g><g transform="translate(228.789 57.262)"><rect width="7.591" height="6.974" rx="3.487" transform="translate(0.633)" fill="url(#ki)"/><path d="M3035.175,2958.19v8.075h-1.14c-.882,0-2.445-.817-2.445-1.585v-4.58c0-.769,1.563-1.911,2.445-1.911Z" transform="translate(-3031.591 -2958.19)" fill="#fff" opacity="0.8"/></g><path d="M2765.537,2711.039a.5.5,0,0,1-.327-.118.379.379,0,0,1-.135-.285v-32.484a.394.394,0,0,1,.224-.368.523.523,0,0,1,.478,0,.393.393,0,0,1,.223.368v32.484a.376.376,0,0,1-.135.285A.5.5,0,0,1,2765.537,2711.039Z" transform="translate(-2573.017 -2654.108)" fill="#fff" opacity="0.84"/><path d="M2778.064,2552.458a.461.461,0,0,1-.437-.271c-4.76-12.006-14.521-11.142-14.619-11.128a.453.453,0,0,1-.513-.352.419.419,0,0,1,.4-.447c.106-.011,10.6-.944,15.6,11.666a.354.354,0,0,1-.022.307.448.448,0,0,1-.265.2A.549.549,0,0,1,2778.064,2552.458Z" transform="translate(-2570.79 -2533.114)" fill="#fff" opacity="0.79"/></g></g></g></svg>