<svg xmlns="http://www.w3.org/2000/svg" xmlns:xlink="http://www.w3.org/1999/xlink" width="440.761" height="352.031" viewBox="0 0 440.761 352.031"><defs><linearGradient id="a" x1="-0.945" y1="0.5" x2="0.055" y2="0.5" gradientUnits="objectBoundingBox"><stop offset="0" stop-color="#dae3fe"/><stop offset="1" stop-color="#e9effd"/></linearGradient><linearGradient id="b" x1="0.463" y1="0.142" x2="0.557" y2="1.049" gradientUnits="objectBoundingBox"><stop offset="0" stop-color="#4042e2"/><stop offset="1" stop-color="#4f52ff"/></linearGradient><linearGradient id="c" x1="0" y1="0.5" x2="1" y2="0.5" xlink:href="#a"/><linearGradient id="d" x1="0" y1="0.5" x2="1" y2="0.5" xlink:href="#a"/><linearGradient id="e" x1="0" y1="0.5" x2="1" y2="0.5" xlink:href="#a"/><linearGradient id="f" x1="0.527" y1="1.132" x2="0.407" y2="-0.083" gradientUnits="objectBoundingBox"><stop offset="0" stop-color="#a22b25"/><stop offset="1" stop-color="#c0423c"/></linearGradient><linearGradient id="g" x1="1.931" y1="-0.354" x2="-0.311" y2="1.263" gradientUnits="objectBoundingBox"><stop offset="0" stop-color="#fe7062"/><stop offset="1" stop-color="#ff928e"/></linearGradient><linearGradient id="h" x1="-0.579" y1="0.868" x2="-5.056" y2="2.815" xlink:href="#g"/><linearGradient id="i" x1="0.888" y1="-0.843" x2="0.251" y2="1.393" gradientUnits="objectBoundingBox"><stop offset="0" stop-color="#ff928e"/><stop offset="1" stop-color="#feb3b1"/></linearGradient><linearGradient id="j" x1="1.01" y1="-1.182" x2="0.399" y2="0.558" xlink:href="#i"/><linearGradient id="k" x1="0.763" y1="-1.392" x2="-0.306" y2="5.924" xlink:href="#i"/><linearGradient id="l" x1="0.858" y1="0.196" x2="-0.223" y2="1.099" xlink:href="#g"/><linearGradient id="m" x1="0.912" y1="0.157" x2="-0.228" y2="1.313" xlink:href="#i"/><linearGradient id="n" x1="0.89" y1="-1.066" x2="0.726" y2="-0.352" xlink:href="#i"/><linearGradient id="o" x1="4.469" y1="-4.694" x2="1.735" y2="-1.118" gradientUnits="objectBoundingBox"><stop offset="0" stop-color="#e1473d"/><stop offset="1" stop-color="#e9605a"/></linearGradient><linearGradient id="p" x1="2.438" y1="-2.998" x2="0.842" y2="-0.088" xlink:href="#o"/><linearGradient id="q" x1="-0.002" y1="-0.635" x2="0.451" y2="0.325" xlink:href="#i"/><linearGradient id="r" x1="-0.249" y1="-0.731" x2="0.079" y2="-0.223" gradientUnits="objectBoundingBox"><stop offset="0" stop-color="#09005d"/><stop offset="1" stop-color="#1a0f91"/></linearGradient><linearGradient id="s" x1="-1.523" y1="-2.943" x2="0.333" y2="0.192" xlink:href="#i"/><linearGradient id="t" x1="0.605" y1="0.858" x2="0.333" y2="-0.073" xlink:href="#f"/><linearGradient id="u" x1="1.016" y1="0.189" x2="-0.331" y2="0.942" xlink:href="#g"/><linearGradient id="v" x1="0.591" y1="0.88" x2="0.368" y2="-0.057" xlink:href="#f"/><linearGradient id="w" x1="1.004" y1="-0.977" x2="0.537" y2="0.326" xlink:href="#r"/><linearGradient id="x" x1="0.985" y1="0.336" x2="-1.642" y2="1.663" xlink:href="#g"/><linearGradient id="y" x1="-0.278" y1="0.282" x2="1.278" y2="0.718" xlink:href="#o"/><linearGradient id="z" x1="0.609" y1="0.796" x2="0.324" y2="-0.022" xlink:href="#f"/><linearGradient id="aa" x1="-23.897" y1="-24.55" x2="-24.219" y2="-25.459" xlink:href="#f"/><linearGradient id="ab" x1="-67.161" y1="-83.678" x2="-67.463" y2="-84.731" xlink:href="#f"/><linearGradient id="ac" x1="8.513" y1="-9.514" x2="8.014" y2="-8.397" xlink:href="#r"/><linearGradient id="ad" x1="1.529" y1="-5.133" x2="1.017" y2="-2.323" xlink:href="#r"/><linearGradient id="ae" x1="1.615" y1="-0.114" x2="-1.005" y2="1.328" xlink:href="#b"/><linearGradient id="af" x1="11.904" y1="17.573" x2="13.754" y2="15.887" xlink:href="#r"/><linearGradient id="ag" x1="34.405" y1="17.573" x2="40.084" y2="15.92" xlink:href="#r"/><linearGradient id="ah" x1="1.317" y1="-2.985" x2="0.916" y2="-1.273" xlink:href="#r"/><linearGradient id="ai" x1="2.582" y1="-2.225" x2="1.625" y2="-0.973" xlink:href="#r"/><linearGradient id="aj" x1="1.539" y1="-1.939" x2="0.961" y2="-0.581" xlink:href="#r"/><linearGradient id="ak" x1="3.281" y1="-3.324" x2="2.525" y2="-2.285" xlink:href="#r"/><linearGradient id="al" x1="0" y1="0.5" x2="1" y2="0.5" xlink:href="#a"/><linearGradient id="am" x1="0.176" y1="0.892" x2="1.122" y2="-0.179" xlink:href="#g"/><linearGradient id="an" x1="-572.275" y1="-0.166" x2="-590.316" y2="3.358" xlink:href="#r"/><linearGradient id="ao" x1="-720.077" y1="-0.086" x2="-742.84" y2="3.376" xlink:href="#r"/><linearGradient id="ap" x1="-638.892" y1="-0.018" x2="-659.159" y2="3.454" xlink:href="#r"/><linearGradient id="aq" x1="-427.571" y1="0.12" x2="-441.219" y2="3.399" xlink:href="#r"/><linearGradient id="ar" x1="-1000.872" y1="0.175" x2="-1032.923" y2="3.698" xlink:href="#r"/><linearGradient id="as" x1="-629.203" y1="0.227" x2="-649.406" y2="3.744" xlink:href="#r"/><linearGradient id="at" x1="-382.167" y1="-0.191" x2="-394.17" y2="2.95" xlink:href="#r"/><linearGradient id="au" x1="0.097" y1="-0.193" x2="2.06" y2="3.186" xlink:href="#g"/><linearGradient id="av" x1="3.394" y1="-5.379" x2="-1.015" y2="3.575" xlink:href="#i"/><linearGradient id="aw" x1="1.807" y1="-2.165" x2="-0.185" y2="1.896" xlink:href="#i"/><linearGradient id="ax" x1="-1.111" y1="-2.276" x2="2.712" y2="4.31" xlink:href="#g"/><linearGradient id="ay" x1="7.216" y1="-13.137" x2="-1.56" y2="4.686" xlink:href="#i"/><linearGradient id="az" x1="3.54" y1="-5.78" x2="-0.435" y2="2.445" xlink:href="#i"/><linearGradient id="ba" x1="1.096" y1="-0.709" x2="-0.729" y2="2.996" xlink:href="#g"/><linearGradient id="bb" x1="2.772" y1="-4.116" x2="-4.189" y2="10.023" xlink:href="#i"/><linearGradient id="bc" x1="1.525" y1="-1.581" x2="-1.62" y2="4.804" xlink:href="#i"/><linearGradient id="bd" x1="0.528" y1="-3.762" x2="0.509" y2="-0.862" xlink:href="#o"/><linearGradient id="be" x1="15.858" y1="-2.337" x2="6.963" y2="-0.694" xlink:href="#g"/><linearGradient id="bf" x1="-0.577" y1="1.579" x2="0.953" y2="0.045" xlink:href="#i"/><linearGradient id="bg" x1="6.843" y1="0.153" x2="7.096" y2="1.981" xlink:href="#o"/><linearGradient id="bh" x1="0.553" y1="0.447" x2="-0.948" y2="1.964" xlink:href="#g"/><linearGradient id="bi" x1="22.843" y1="0.448" x2="24.194" y2="0.559" xlink:href="#o"/><linearGradient id="bj" x1="5.024" y1="-4.089" x2="2.651" y2="-1.681" xlink:href="#r"/><linearGradient id="bk" x1="6.9" y1="-0.668" x2="2.759" y2="0.091" xlink:href="#r"/><linearGradient id="bl" x1="94.316" y1="-1.748" x2="91.542" y2="1.784" xlink:href="#o"/><linearGradient id="bm" x1="43.254" y1="-0.433" x2="40.474" y2="1.196" xlink:href="#i"/><linearGradient id="bn" x1="3.488" y1="-4.124" x2="1.593" y2="-1.191" xlink:href="#r"/><linearGradient id="bo" x1="1.614" y1="-0.889" x2="-0.055" y2="1.192" xlink:href="#o"/><linearGradient id="bp" x1="1.688" y1="-0.922" x2="-0.432" y2="1.64" xlink:href="#i"/><linearGradient id="bq" x1="4.841" y1="-5.891" x2="2.661" y2="-2.681" xlink:href="#r"/><linearGradient id="br" x1="3.227" y1="-4.356" x2="1.378" y2="-1.063" xlink:href="#r"/><linearGradient id="bs" x1="1.66" y1="-0.501" x2="-0.343" y2="1.227" xlink:href="#o"/><linearGradient id="bt" x1="0" y1="0.5" x2="1" y2="0.5" xlink:href="#i"/><linearGradient id="bu" x1="68.346" y1="13.836" x2="69.382" y2="9.531" xlink:href="#r"/><linearGradient id="bv" x1="3.502" y1="-4.844" x2="1.652" y2="-1.551" xlink:href="#r"/><linearGradient id="bw" x1="1.944" y1="-0.486" x2="-0.471" y2="1.163" xlink:href="#o"/><linearGradient id="bx" x1="0" y1="0.5" x2="1" y2="0.5" xlink:href="#i"/><linearGradient id="by" x1="68.514" y1="13.138" x2="69.55" y2="8.833" xlink:href="#r"/><linearGradient id="bz" x1="117.647" y1="1.101" x2="118.356" y2="-0.302" xlink:href="#i"/><linearGradient id="ca" x1="94.139" y1="-0.179" x2="-14.73" y2="0.61" xlink:href="#i"/><linearGradient id="cb" x1="-0.312" y1="1.598" x2="0.509" y2="0.516" xlink:href="#g"/><linearGradient id="cc" x1="-152.063" y1="-0.164" x2="-169.384" y2="3.359" xlink:href="#r"/><linearGradient id="cd" x1="-192.023" y1="-0.086" x2="-214.139" y2="3.38" xlink:href="#r"/><linearGradient id="ce" x1="-172.368" y1="-0.017" x2="-192.477" y2="3.442" xlink:href="#r"/><linearGradient id="cf" x1="-110.7" y1="0.122" x2="-123.946" y2="3.396" xlink:href="#r"/><linearGradient id="cg" x1="-255.197" y1="0.177" x2="-286.115" y2="3.7" xlink:href="#r"/><linearGradient id="ch" x1="-161.656" y1="0.228" x2="-181.435" y2="3.749" xlink:href="#r"/><linearGradient id="ci" x1="-102.731" y1="-0.191" x2="-114.283" y2="2.953" xlink:href="#r"/><linearGradient id="cj" x1="-0.529" y1="1.362" x2="0.691" y2="0.367" xlink:href="#g"/><linearGradient id="ck" x1="-307.686" y1="-0.165" x2="-325.491" y2="3.357" xlink:href="#r"/><linearGradient id="cl" x1="-387.765" y1="-0.086" x2="-410.332" y2="3.376" xlink:href="#r"/><linearGradient id="cm" x1="-341.592" y1="-0.016" x2="-361.598" y2="3.446" xlink:href="#r"/><linearGradient id="cn" x1="-226.056" y1="0.12" x2="-239.466" y2="3.398" xlink:href="#r"/><linearGradient id="co" x1="-533.465" y1="0.175" x2="-565.295" y2="3.7" xlink:href="#r"/><linearGradient id="cp" x1="-333.339" y1="0.228" x2="-353.321" y2="3.744" xlink:href="#r"/><linearGradient id="cq" x1="-204.069" y1="-0.191" x2="-215.804" y2="2.951" xlink:href="#r"/><linearGradient id="cr" x1="-0.014" y1="1.169" x2="0.945" y2="-0.028" xlink:href="#g"/><linearGradient id="cs" x1="-176.446" y1="-0.166" x2="-194.472" y2="3.36" xlink:href="#r"/><linearGradient id="ct" x1="-220.893" y1="-0.086" x2="-243.654" y2="3.377" xlink:href="#r"/><linearGradient id="cu" x1="-193.904" y1="-0.019" x2="-214.118" y2="3.458" xlink:href="#r"/><linearGradient id="cv" x1="-128.662" y1="0.117" x2="-142.353" y2="3.397" xlink:href="#r"/><linearGradient id="cw" x1="-298.556" y1="0.176" x2="-330.671" y2="3.696" xlink:href="#r"/><linearGradient id="cx" x1="-188.53" y1="0.228" x2="-208.992" y2="3.743" xlink:href="#r"/><linearGradient id="cy" x1="-118.215" y1="-0.195" x2="-130.144" y2="2.959" xlink:href="#r"/><linearGradient id="cz" x1="-1.143" y1="2.344" x2="0.438" y2="0.594" gradientUnits="objectBoundingBox"><stop offset="0" stop-color="#fe7062"/><stop offset="0.53" stop-color="#fe7164"/><stop offset="0.72" stop-color="#fe776b"/><stop offset="0.86" stop-color="#fe8076"/><stop offset="0.97" stop-color="#ff8d87"/><stop offset="1" stop-color="#ff928e"/></linearGradient><linearGradient id="da" x1="-352.393" y1="-0.165" x2="-373.181" y2="3.366" xlink:href="#r"/><linearGradient id="db" x1="-448.951" y1="-0.084" x2="-475.464" y2="3.376" xlink:href="#r"/><linearGradient id="dc" x1="-397.657" y1="-0.013" x2="-421.302" y2="3.45" xlink:href="#r"/><linearGradient id="dd" x1="-267.483" y1="0.121" x2="-283.452" y2="3.382" xlink:href="#r"/><linearGradient id="de" x1="-617.182" y1="0.177" x2="-654.253" y2="3.692" xlink:href="#r"/><linearGradient id="df" x1="-396.376" y1="0.229" x2="-420.393" y2="3.748" xlink:href="#r"/><linearGradient id="dg" x1="-239.971" y1="-0.188" x2="-253.982" y2="2.944" xlink:href="#r"/><linearGradient id="dh" x1="-0.792" y1="1.508" x2="0.737" y2="0.342" xlink:href="#g"/><linearGradient id="di" x1="-515.904" y1="-0.167" x2="-537.452" y2="3.367" xlink:href="#r"/><linearGradient id="dj" x1="-649.586" y1="-0.085" x2="-676.701" y2="3.375" xlink:href="#r"/><linearGradient id="dk" x1="-574.588" y1="-0.014" x2="-598.708" y2="3.45" xlink:href="#r"/><linearGradient id="dl" x1="-388.181" y1="0.121" x2="-404.48" y2="3.384" xlink:href="#r"/><linearGradient id="dm" x1="-892.604" y1="0.177" x2="-930.265" y2="3.687" xlink:href="#r"/><linearGradient id="dn" x1="-567.756" y1="0.228" x2="-591.894" y2="3.747" xlink:href="#r"/><linearGradient id="do" x1="-344.509" y1="-0.188" x2="-358.771" y2="2.943" xlink:href="#r"/></defs><g transform="translate(-40.675 -25.149)"><g transform="translate(40.675 25.149)"><g transform="translate(0)"><path d="M603.811,151.8c24.371,33.342,108.943-3.7,108.054,57.778-1.042,71.988-84.16,93.168-57.246,143.76s-2.808,107.308-110.961,106.246S261.516,395.02,303.435,326.055s13.989-72.506,11.944-102.986,19.159-97.345,102.93-41.59S542.1,67.36,603.811,151.8Z" transform="translate(-277.537 -127.798)" fill="url(#a)"/><g transform="translate(373.089 197.747)"><path d="M2110.521,926.573h-44.277a1.885,1.885,0,0,1-1.714-2.018h0a1.884,1.884,0,0,1,1.714-2.015h44.277a1.884,1.884,0,0,1,1.713,2.015h0A1.884,1.884,0,0,1,2110.521,926.573Z" transform="translate(-2064.53 -922.54)" fill="#bdd0fb"/><path d="M2135.7,958.336h-44.277a1.885,1.885,0,0,1-1.714-2.018h0a1.885,1.885,0,0,1,1.714-2.018H2135.7a1.884,1.884,0,0,1,1.713,2.018h0A1.884,1.884,0,0,1,2135.7,958.336Z" transform="translate(-2084.39 -946.398)" fill="#bdd0fb"/><path d="M2123.095,1021.866H2091.4a1.884,1.884,0,0,1-1.713-2.018h0a1.884,1.884,0,0,1,1.713-2.018h31.691a1.885,1.885,0,0,1,1.712,2.018h0A1.885,1.885,0,0,1,2123.095,1021.866Z" transform="translate(-2084.375 -994.12)" fill="#bdd0fb"/><path d="M2159.209,990.1h-44.275a1.884,1.884,0,0,1-1.714-2.018h0a1.884,1.884,0,0,1,1.714-2.016h44.275a1.884,1.884,0,0,1,1.714,2.016h0A1.884,1.884,0,0,1,2159.209,990.1Z" transform="translate(-2102.933 -970.263)" fill="#bdd0fb"/></g><g transform="translate(90.033 58.585)"><path d="M133.435-.881c73.694-.487,133.01,53.908,132.484,121.495S205.228,243.384,131.533,243.87-1.476,189.962-.951,122.376,59.741-.394,133.435-.881Z" transform="translate(0 266.692) rotate(-87.49)" fill="url(#b)"/><g transform="translate(24.581 23.242)" opacity="0.18"><ellipse cx="95.994" cy="106.798" rx="95.994" ry="106.798" fill="#91b3fa"/></g><g transform="translate(15.929 9.674)" opacity="0.68"><path d="M1146.92,534.919q0,17.661-1.149,35.292c-.775,11.742-2.009,23.446-3.773,35.046-.894,5.8-1.929,11.565-3.169,17.278q-1.826,8.591-4.414,16.92c-.875,2.767-1.832,5.5-2.907,8.174a67.515,67.515,0,0,1-3.666,7.766,39.469,39.469,0,0,1-2.256,3.585,24.391,24.391,0,0,1-2.677,3.2,14.012,14.012,0,0,1-3.23,2.453,8.487,8.487,0,0,1-3.771,1.048,7.878,7.878,0,0,1-1.946-.182,8.913,8.913,0,0,1-1.868-.644,12.941,12.941,0,0,1-3.307-2.317,22.771,22.771,0,0,1-2.747-3.128,37.322,37.322,0,0,1-2.305-3.548,64.87,64.87,0,0,1-3.727-7.728c-1.09-2.665-2.062-5.392-2.947-8.156q-2.617-8.3-4.456-16.895c-1.245-5.723-2.288-11.476-3.186-17.273-1.8-11.593-3.019-23.3-3.845-35.034s-1.232-23.513-1.282-35.292c0-.184-.023-.368-.021-.552v-1.655l.021-2.209.061-4.414q.081-4.414.211-8.828.279-8.828.828-17.634c.739-11.744,1.844-23.459,3.486-35.083.824-5.81,1.785-11.592,2.941-17.325q1.7-8.614,4.175-16.979c.845-2.777,1.758-5.526,2.8-8.211a64.173,64.173,0,0,1,3.592-7.79,28.165,28.165,0,0,1,4.933-6.718,12.307,12.307,0,0,1,3.262-2.3,8.643,8.643,0,0,1,1.838-.625,7.854,7.854,0,0,1,1.9-.162,8.743,8.743,0,0,1,3.706,1.025,14.423,14.423,0,0,1,3.22,2.369,31.293,31.293,0,0,1,5.037,6.6,66.505,66.505,0,0,1,3.824,7.629c1.137,2.632,2.147,5.335,3.08,8.072q2.758,8.226,4.741,16.77c1.337,5.678,2.468,11.421,3.448,17.2q2.872,17.346,4.181,34.977C1146.489,511.364,1146.905,523.14,1146.92,534.919Zm-1.479,0q0-8.8-.287-17.591t-.9-17.562q-1.173-17.542-3.894-34.87c-.917-5.763-1.986-11.493-3.258-17.169q-1.881-8.507-4.551-16.731c-.9-2.737-1.882-5.422-2.985-8.042a66.031,66.031,0,0,0-3.714-7.587,30.874,30.874,0,0,0-4.878-6.531,14.016,14.016,0,0,0-3.091-2.326,8.146,8.146,0,0,0-3.528-1.01,7.487,7.487,0,0,0-3.558.789,11.965,11.965,0,0,0-3.114,2.252,27.481,27.481,0,0,0-4.756,6.629,63.414,63.414,0,0,0-3.473,7.738c-1.01,2.67-1.9,5.409-2.7,8.176q-2.377,8.329-3.993,16.92c-1.1,5.723-2,11.488-2.766,17.283-1.53,11.612-2.521,23.307-3.15,35q-.467,8.781-.663,17.581-.1,4.4-.135,8.8l-.021,4.4v3.849c0,.184-.019.366-.019.55q-.042,17.594,1.056,35.161c.746,11.695,1.889,23.362,3.592,34.914.858,5.773,1.857,11.518,3.057,17.2q1.766,8.535,4.312,16.805c.858,2.737,1.8,5.449,2.859,8.086a64.4,64.4,0,0,0,3.609,7.624,36.97,36.97,0,0,0,2.219,3.484,22.311,22.311,0,0,0,2.609,3.028,12.264,12.264,0,0,0,3.087,2.2,7.418,7.418,0,0,0,3.492.781,7.821,7.821,0,0,0,3.457-1,13.2,13.2,0,0,0,3.023-2.339,23.433,23.433,0,0,0,2.554-3.1,38.36,38.36,0,0,0,2.176-3.523,66.854,66.854,0,0,0,3.554-7.664c1.056-2.645,1.975-5.36,2.825-8.107q2.508-8.273,4.257-16.825c1.183-5.69,2.17-11.446,3.017-17.213,1.69-11.555,2.827-23.222,3.577-34.917S1145.445,546.651,1145.441,534.919Z" transform="translate(-1004.4 -404.277)" fill="#fff"/><path d="M985.143,532.772a205.746,205.746,0,0,1-1.28,22.682,190.2,190.2,0,0,1-3.887,22.264,169.959,169.959,0,0,1-6.6,21.359,145,145,0,0,1-9.355,19.871,116.752,116.752,0,0,1-12.2,17.587,89.623,89.623,0,0,1-15.024,14.22,68.159,68.159,0,0,1-17.511,9.455,56.392,56.392,0,0,1-38.1.02,68.2,68.2,0,0,1-17.523-9.433,89.59,89.59,0,0,1-15.045-14.207,116.71,116.71,0,0,1-12.227-17.584A157.143,157.143,0,0,1,820.4,577.761a190.188,190.188,0,0,1-3.9-22.282,200.364,200.364,0,0,1,.011-45.395,189.823,189.823,0,0,1,3.911-22.277,157.05,157.05,0,0,1,16.015-41.217,116.7,116.7,0,0,1,12.227-17.564,89.74,89.74,0,0,1,15.039-14.183,68.125,68.125,0,0,1,17.508-9.415,56.347,56.347,0,0,1,38.045.017,68.22,68.22,0,0,1,17.494,9.433,89.629,89.629,0,0,1,15.018,14.2,116.458,116.458,0,0,1,12.2,17.567,145.489,145.489,0,0,1,9.366,19.853,170.116,170.116,0,0,1,6.611,21.346,190.2,190.2,0,0,1,3.9,22.242A205.689,205.689,0,0,1,985.143,532.772Zm-1.69,0a197.552,197.552,0,0,0-4.961-44.461,157.654,157.654,0,0,0-15.44-40.948,115.883,115.883,0,0,0-11.927-17.534A87.968,87.968,0,0,0,936.369,415.6a66.943,66.943,0,0,0-17.285-9.455,54.948,54.948,0,0,0-37.664.017,66.942,66.942,0,0,0-17.27,9.455A87.861,87.861,0,0,0,849.4,429.873a115.773,115.773,0,0,0-11.9,17.539,144.716,144.716,0,0,0-9.057,19.759,171.462,171.462,0,0,0-6.338,21.175,201.294,201.294,0,0,0,.025,88.846,171.781,171.781,0,0,0,6.355,21.15,144.669,144.669,0,0,0,9.068,19.741,115.929,115.929,0,0,0,11.9,17.52,87.913,87.913,0,0,0,14.728,14.215,66.908,66.908,0,0,0,17.253,9.455,54.933,54.933,0,0,0,37.618.017,66.834,66.834,0,0,0,17.266-9.43,87.87,87.87,0,0,0,14.749-14.205A115.759,115.759,0,0,0,963,618.137a157.129,157.129,0,0,0,15.461-40.918,197.332,197.332,0,0,0,4.988-44.447Z" transform="translate(-792.195 -402.13)" fill="#fff"/><path d="M748.25,717.75l12.74-.132,12.748-.109,25.5-.137c8.5-.06,17-.052,25.5-.072l25.5-.04,25.5.047,12.748.025,6.374.015,6.374.035,25.5.149,12.749.122,6.374.06,6.374.082a.067.067,0,0,1,.053.025.093.093,0,0,1,.021.062.084.084,0,0,1-.074.09l-6.374.08-6.374.06-12.749.122-25.5.149-6.374.037-6.374.012-12.748.027-25.5.045-25.5-.04c-8.5-.017-17-.013-25.5-.07l-25.5-.139-12.748-.11-12.749-.132a.123.123,0,0,1-.112-.132.148.148,0,0,1,.037-.1.107.107,0,0,1,.083-.037Z" transform="translate(-739.279 -638.85)" fill="#fff"/><path d="M888.282,515.613l4.526-.075,4.526-.057,9.051-.11,18.1-.137c12.068-.092,24.136-.1,36.2-.114l18.1.027,9.051.04,4.526.02,4.526.037,18.1.149,9.051.122,4.526.06,4.526.082a.069.069,0,0,1,.053.026.1.1,0,0,1,.021.063.084.084,0,0,1-.074.087l-4.526.08-4.526.06L1015,516.1l-18.1.149-4.526.037-4.526.02-9.051.04-18.1.027q-18.1,0-36.2-.112l-18.1-.139-9.051-.109-4.526-.057-4.526-.075a.134.134,0,0,1,0-.264Z" transform="translate(-849.732 -487.006)" fill="#fff"/><path d="M706.348,919.88l13.856-.132,13.856-.109,27.713-.137c9.237-.06,18.474-.052,27.713-.072l27.711-.04,27.713.047,13.856.025,6.928.015,6.928.035,27.713.149,13.856.122,6.928.06,6.928.082a.081.081,0,0,1,.074.087.084.084,0,0,1-.074.089l-6.928.08-6.928.06-13.856.122-27.713.149-6.928.037-6.928.012-13.856.027-27.713.045-27.711-.04c-9.239-.017-18.476-.013-27.713-.07l-27.713-.139-13.856-.1-13.856-.132a.1.1,0,0,1-.078-.039.142.142,0,0,1-.031-.093.147.147,0,0,1,.028-.1A.106.106,0,0,1,706.348,919.88Z" transform="translate(-706.238 -790.686)" fill="#fff"/><path d="M748.25,1122.04l12.74-.122,12.748-.109,25.5-.137c8.5-.06,17-.052,25.5-.072l25.5-.04,25.5.047,12.748.025,6.374.015,6.374.035,25.5.149,12.749.122,6.374.06,6.374.082a.067.067,0,0,1,.053.025.092.092,0,0,1,.021.062.084.084,0,0,1-.074.089l-6.374.08-6.374.06-12.749.122-25.5.149-6.374.037h-6.374l-12.748.027-25.5.045-25.5-.04c-8.5-.017-17,0-25.5-.07l-25.5-.139-12.748-.109-12.749-.132a.123.123,0,0,1-.112-.132A.125.125,0,0,1,748.25,1122.04Z" transform="translate(-739.279 -942.552)" fill="#fff"/><path d="M1049.353,1325.221H904.541a.466.466,0,0,1,0-.921h144.818a.467.467,0,0,1,0,.921Z" transform="translate(-862.336 -1094.847)" fill="#fff"/></g><g transform="translate(59.219 80.769)"><ellipse cx="6.378" cy="7.512" rx="6.378" ry="7.512" transform="translate(131.043 69.973)" fill="#91b3fa"/><path d="M911.531,1109.991a.419.419,0,0,1-.391-.405.461.461,0,0,1,.3-.5c.376-.11.752-.229,1.118-.351a.348.348,0,0,1,.4.094.516.516,0,0,1,.111.463.424.424,0,0,1-.3.326c-.374.127-.761.249-1.145.361A.321.321,0,0,1,911.531,1109.991Zm3.716-1.4a.414.414,0,0,1-.384-.374.48.48,0,0,1,.24-.514c.357-.167.714-.346,1.056-.53a.37.37,0,0,1,.518.229.5.5,0,0,1-.194.61c-.357.189-.725.373-1.094.547a.344.344,0,0,1-.142.042Zm3.5-2.025a.407.407,0,0,1-.378-.338.5.5,0,0,1,.177-.518c.33-.231.657-.475.974-.724a.359.359,0,0,1,.543.129.525.525,0,0,1,.058.345.467.467,0,0,1-.168.292c-.327.249-.666.5-1.008.747a.341.341,0,0,1-.2.077Zm3.169-2.675a.4.4,0,0,1-.366-.3.516.516,0,0,1,.111-.509c.292-.293.579-.6.858-.908a.351.351,0,0,1,.552.019.52.52,0,0,1-.016.651c-.287.321-.585.637-.885.938a.36.36,0,0,1-.251.119Zm2.747-3.27a.4.4,0,0,1-.345-.264.531.531,0,0,1,.045-.482c.245-.344.486-.7.716-1.062a.357.357,0,0,1,.551-.1.52.52,0,0,1,.082.649c-.239.373-.488.746-.74,1.1a.373.373,0,0,1-.317.167Zm2.25-3.757a.337.337,0,0,1-.2-.065.459.459,0,0,1-.179-.282.529.529,0,0,1,.044-.348c.192-.383.385-.784.568-1.184a.363.363,0,0,1,.529-.188.5.5,0,0,1,.16.623c-.19.416-.387.824-.587,1.219a.383.383,0,0,1-.342.234Zm1.758-4.108a.337.337,0,0,1-.152-.035.5.5,0,0,1-.211-.6c.15-.413.294-.838.423-1.266a.376.376,0,0,1,.5-.268.488.488,0,0,1,.227.594c-.142.438-.289.873-.442,1.3a.4.4,0,0,1-.355.291Zm1.3-4.34a.326.326,0,0,1-.108-.017.482.482,0,0,1-.268-.572c.108-.433.211-.878.306-1.319a.387.387,0,0,1,.471-.312.469.469,0,0,1,.285.54c-.1.45-.211.9-.311,1.346a.407.407,0,0,1-.382.344Zm.894-4.479a.321.321,0,0,1-.072,0,.46.46,0,0,1-.315-.535c.07-.443.135-.9.194-1.351a.405.405,0,0,1,.447-.385.457.457,0,0,1,.326.526c-.061.46-.127.923-.2,1.376a.411.411,0,0,1-.389.373Zm.528-4.553h-.038a.443.443,0,0,1-.351-.5c.036-.453.07-.913.1-1.366a.417.417,0,0,1,.418-.425.442.442,0,0,1,.361.492c-.028.46-.061.928-.1,1.388A.421.421,0,0,1,931.391,1079.386Zm.226-4.6h0a.436.436,0,0,1-.382-.47c0-.465.013-.918.013-1.361a.439.439,0,0,1,.391-.468.427.427,0,0,1,.391.455v.013c0,.45,0,.908-.013,1.378a.427.427,0,0,1-.4.45Zm-.055-4.606a.426.426,0,0,1-.391-.438c-.019-.48-.042-.938-.068-1.369a.442.442,0,0,1,.362-.491.418.418,0,0,1,.417.427q.038.657.07,1.388a.512.512,0,0,1-.1.332.369.369,0,0,1-.271.15Zm-.334-4.588a.418.418,0,0,1-.387-.4c-.093-.854-.165-1.341-.165-1.346a.511.511,0,0,1,.125-.449.346.346,0,0,1,.4-.082.454.454,0,0,1,.248.372c0,.02.076.5.171,1.391a.452.452,0,0,1-.338.515Z" transform="translate(-911.137 -969.871)" fill="url(#c)"/><path d="M1111.037,850.163a.373.373,0,0,1-.315-.187q-.349-.56-.7-1.107a.519.519,0,0,1,.083-.648.356.356,0,0,1,.55.1c.232.366.467.747.7,1.112a.526.526,0,0,1,.035.481.386.386,0,0,1-.35.251Zm-2.36-3.668a.373.373,0,0,1-.308-.177c-.241-.363-.482-.721-.725-1.08a.517.517,0,0,1,.061-.647.352.352,0,0,1,.549.072c.243.361.488.722.731,1.087a.522.522,0,0,1,.08.34.485.485,0,0,1-.148.307.359.359,0,0,1-.241.1Zm-2.461-3.576a.368.368,0,0,1-.3-.164q-.376-.53-.754-1.048a.521.521,0,0,1-.09-.463.417.417,0,0,1,.306-.31.364.364,0,0,1,.375.173q.385.522.763,1.055a.528.528,0,0,1,.047.483.393.393,0,0,1-.347.263Zm-2.567-3.468a.371.371,0,0,1-.289-.152c-.262-.343-.526-.682-.788-1.015a.517.517,0,0,1-.1-.459.424.424,0,0,1,.3-.323.36.36,0,0,1,.381.158c.266.336.53.677.8,1.023a.52.52,0,0,1-.03.649A.354.354,0,0,1,1103.648,839.452Zm-2.677-3.354a.36.36,0,0,1-.279-.137c-.273-.331-.547-.654-.822-.978a.521.521,0,0,1,.007-.641.35.35,0,0,1,.544-.011q.423.5.83,1a.519.519,0,0,1,.083.5.392.392,0,0,1-.364.279Zm-2.791-3.22a.361.361,0,0,1-.266-.124q-.423-.473-.858-.933a.521.521,0,0,1-.025-.652.352.352,0,0,1,.554-.03c.287.311.577.625.864.943a.519.519,0,0,1,.1.506A.4.4,0,0,1,1098.18,832.878Zm-93.509-.47a.4.4,0,0,1-.369-.3.515.515,0,0,1,.113-.511c.013,0,.328-.328.93-.886a.347.347,0,0,1,.4-.084.454.454,0,0,1,.249.372.5.5,0,0,1-.161.434c-.587.545-.9.861-.9.866A.366.366,0,0,1,1004.671,832.407Zm90.609-2.6a.359.359,0,0,1-.256-.112q-.444-.448-.892-.886a.505.505,0,0,1-.142-.435.449.449,0,0,1,.254-.358.347.347,0,0,1,.389.087q.45.44.9.893a.49.49,0,0,1,.136.314.511.511,0,0,1-.094.335A.364.364,0,0,1,1095.279,829.8Zm-87.492-.214a.4.4,0,0,1-.371-.319.508.508,0,0,1,.143-.515q.45-.383.961-.806a.347.347,0,0,1,.411-.084.464.464,0,0,1,.241.4.481.481,0,0,1-.2.429q-.507.413-.953.8a.351.351,0,0,1-.235.1Zm3.228-2.608a.406.406,0,0,1-.373-.331.5.5,0,0,1,.162-.516c.319-.249.651-.5.991-.746a.358.358,0,0,1,.541.139.512.512,0,0,1-.118.637q-.507.381-.982.746a.349.349,0,0,1-.226.07Zm81.236-.087a.359.359,0,0,1-.241-.1q-.463-.42-.927-.833a.521.521,0,0,1-.081-.651.358.358,0,0,1,.553-.1c.313.276.634.557.936.844a.511.511,0,0,1,.13.512.4.4,0,0,1-.369.312Zm-77.921-2.344a.407.407,0,0,1-.38-.339.5.5,0,0,1,.181-.519q.5-.346,1.016-.7a.341.341,0,0,1,.4-.014.48.48,0,0,1,.2.409.475.475,0,0,1-.211.4q-.515.351-1.008.7A.364.364,0,0,1,1014.331,824.552Zm74.767-.376a.345.345,0,0,1-.224-.085q-.482-.391-.963-.774a.513.513,0,0,1-.106-.639.356.356,0,0,1,.543-.124c.323.249.649.518.972.784a.505.505,0,0,1,.152.509.407.407,0,0,1-.363.329Zm-71.357-1.9a.408.408,0,0,1-.38-.347.494.494,0,0,1,.194-.518c.34-.216.689-.433,1.039-.652a.364.364,0,0,1,.528.194.5.5,0,0,1-.165.622c-.351.216-.693.43-1.033.647A.343.343,0,0,1,1017.741,822.276Zm68.093-.63a.338.338,0,0,1-.211-.067c-.332-.249-.666-.478-1-.712a.508.508,0,0,1-.136-.631.36.36,0,0,1,.536-.161c.336.234.672.475,1.008.719a.5.5,0,0,1,.174.522.4.4,0,0,1-.385.329Zm-64.611-1.471a.41.41,0,0,1-.384-.357.488.488,0,0,1,.213-.519c.349-.2.7-.4,1.056-.6a.341.341,0,0,1,.406.018.494.494,0,0,1,.173.434.456.456,0,0,1-.248.38l-1.056.595a.328.328,0,0,1-.165.047Zm61.228-.829a.347.347,0,0,1-.186-.057q-.513-.323-1.031-.639a.5.5,0,0,1-.168-.621.365.365,0,0,1,.527-.2c.349.211.7.428,1.044.649a.494.494,0,0,1,.194.518A.409.409,0,0,1,1082.451,819.347Zm-57.679-1.095a.412.412,0,0,1-.385-.366.483.483,0,0,1,.228-.517c.359-.184.72-.363,1.084-.545a.373.373,0,0,1,.512.248.494.494,0,0,1-.21.6c-.361.177-.72.358-1.075.537A.323.323,0,0,1,1024.772,818.252Zm54.182-.968a.333.333,0,0,1-.165-.042q-.532-.287-1.056-.565a.5.5,0,0,1-.2-.608.371.371,0,0,1,.517-.235c.357.187.716.378,1.073.572a.486.486,0,0,1,.218.516.412.412,0,0,1-.381.362Zm-50.561-.769a.415.415,0,0,1-.384-.378.478.478,0,0,1,.246-.513c.363-.164.733-.323,1.1-.5a.38.38,0,0,1,.5.276.533.533,0,0,1-.012.352.421.421,0,0,1-.22.238q-.552.249-1.094.48a.351.351,0,0,1-.139.042Zm46.965-1.033a.368.368,0,0,1-.142-.03q-.545-.249-1.09-.485a.446.446,0,0,1-.26-.354.507.507,0,0,1,.137-.439.344.344,0,0,1,.393-.071c.365.157.735.321,1.1.5a.48.48,0,0,1,.24.513.415.415,0,0,1-.382.375Zm-43.278-.5a.417.417,0,0,1-.386-.389.472.472,0,0,1,.266-.51c.372-.144.746-.284,1.122-.423a.384.384,0,0,1,.49.3.481.481,0,0,1-.258.577q-.56.2-1.111.418a.359.359,0,0,1-.122.018Zm39.593-1.023a.325.325,0,0,1-.118-.022c-.372-.137-.744-.271-1.115-.4a.483.483,0,0,1-.24-.557.392.392,0,0,1,.452-.327q.564.194,1.128.4a.469.469,0,0,1,.273.51.417.417,0,0,1-.389.391Zm-35.847-.3a.419.419,0,0,1-.385-.4.466.466,0,0,1,.281-.5q.568-.184,1.141-.356a.351.351,0,0,1,.389.113.519.519,0,0,1,.1.457.424.424,0,0,1-.295.32c-.38.114-.754.231-1.128.353a.378.378,0,0,1-.1.01Zm32.085-.938a.384.384,0,0,1-.093-.012q-.57-.164-1.135-.314a.419.419,0,0,1-.3-.309.522.522,0,0,1,.086-.459.354.354,0,0,1,.383-.13c.382.1.767.206,1.149.316a.461.461,0,0,1,.3.5A.42.42,0,0,1,1067.911,812.723Zm-28.288-.157a.421.421,0,0,1-.39-.412.458.458,0,0,1,.308-.5q.573-.144,1.154-.284a.4.4,0,0,1,.46.361.464.464,0,0,1-.306.542q-.573.134-1.143.281a.306.306,0,0,1-.082,0Zm24.464-.786a.325.325,0,0,1-.07,0c-.382-.08-.767-.154-1.149-.224a.457.457,0,0,1-.327-.526.405.405,0,0,1,.447-.384q.579.107,1.164.226a.453.453,0,0,1,.319.492.424.424,0,0,1-.385.422Zm-20.623-.067a.425.425,0,0,1-.381-.424.453.453,0,0,1,.32-.489q.579-.112,1.166-.209a.41.41,0,0,1,.426.393.458.458,0,0,1-.316.517c-.384.067-.769.134-1.151.207a.275.275,0,0,1-.063,0Zm16.752-.575h-.042q-.579-.07-1.16-.132a.446.446,0,0,1-.355-.5.416.416,0,0,1,.425-.418l1.175.134a.443.443,0,0,1,.35.483.425.425,0,0,1-.392.435Zm-12.875-.022a.426.426,0,0,1-.39-.437.444.444,0,0,1,.35-.481q.585-.07,1.175-.127a.416.416,0,0,1,.422.421.445.445,0,0,1-.357.5q-.583.055-1.162.124Zm8.979-.321h-.017c-.391-.02-.777-.035-1.164-.045a.434.434,0,0,1-.382-.47.426.426,0,0,1,.4-.45c.391,0,.786.027,1.179.045a.433.433,0,0,1,.384.469A.427.427,0,0,1,1056.32,810.8Zm-5.071,0a.427.427,0,0,1-.4-.452.433.433,0,0,1,.384-.469c.391-.02.784-.032,1.179-.042a.359.359,0,0,1,.28.127.5.5,0,0,1,.12.323.436.436,0,0,1-.382.47c-.391,0-.778.022-1.166.042Z" transform="translate(-984.599 -779.481)" fill="url(#d)"/><path d="M6.544-.4c3.614-.221,6.365,2.888,6.144,6.945S9.357,14.07,5.743,14.291-.622,11.4-.4,7.346,2.93-.179,6.544-.4Z" transform="translate(10.166 60.761) rotate(-22.5)" fill="#91b3fa"/><path d="M1103.518,722.481a.4.4,0,0,1-.359-.274c-.156-.416-.319-.834-.484-1.244a.5.5,0,0,1,.185-.613.367.367,0,0,1,.521.218c.169.418.334.844.494,1.266a.537.537,0,0,1,0,.356.432.432,0,0,1-.214.251A.326.326,0,0,1,1103.518,722.481Zm-1.737-4.123a.392.392,0,0,1-.342-.249c-.184-.4-.378-.8-.573-1.192a.509.509,0,0,1,.14-.631.361.361,0,0,1,.536.166c.2.4.393.809.581,1.212a.534.534,0,0,1,.034.351.454.454,0,0,1-.188.276.354.354,0,0,1-.188.07Zm-2.022-3.939a.382.382,0,0,1-.328-.206c-.211-.378-.422-.746-.653-1.132a.513.513,0,0,1,.118-.595.35.35,0,0,1,.516.067c.226.381.448.766.666,1.152a.531.531,0,0,1,.018.471.387.387,0,0,1-.344.243Zm-2.29-3.732a.376.376,0,0,1-.308-.174c-.237-.356-.482-.714-.729-1.068a.518.518,0,0,1,.052-.648.352.352,0,0,1,.55.061c.251.361.5.724.742,1.085a.525.525,0,0,1,.048.488.388.388,0,0,1-.354.259Zm-2.535-3.5a.362.362,0,0,1-.287-.149c-.262-.333-.53-.667-.8-1a.52.52,0,0,1,.016-.642.35.35,0,0,1,.546,0c.272.331.547.672.813,1.01a.519.519,0,0,1-.023.649.357.357,0,0,1-.266.129Zm-2.766-3.255a.353.353,0,0,1-.264-.122c-.285-.311-.577-.62-.864-.918a.507.507,0,0,1-.133-.439.443.443,0,0,1,.261-.351.348.348,0,0,1,.387.1c.294.3.589.62.879.933a.519.519,0,0,1,.1.507A.4.4,0,0,1,1092.168,703.934Zm-2.973-2.986a.35.35,0,0,1-.241-.1c-.3-.281-.615-.562-.923-.833a.521.521,0,0,1-.081-.651.357.357,0,0,1,.552-.1c.313.276.634.56.936.848a.512.512,0,0,1,.126.512.4.4,0,0,1-.369.309Zm-59.17-.435a.4.4,0,0,1-.371-.312.511.511,0,0,1,.133-.514c.311-.279.634-.56.949-.831a.355.355,0,0,1,.546.1.516.516,0,0,1-.088.643c-.313.269-.634.542-.932.819a.347.347,0,0,1-.239.094Zm56.01-2.269a.351.351,0,0,1-.211-.077c-.321-.249-.651-.5-.974-.746a.512.512,0,0,1-.118-.637.358.358,0,0,1,.541-.139c.33.249.663.5.991.759a.5.5,0,0,1,.158.513.406.406,0,0,1-.37.33Zm-52.819-.373a.405.405,0,0,1-.376-.331.5.5,0,0,1,.165-.518c.33-.249.666-.5,1-.746a.36.36,0,0,1,.538.155.51.51,0,0,1-.132.633c-.332.249-.663.48-.987.724a.352.352,0,0,1-.205.085Zm49.477-2.03a.345.345,0,0,1-.19-.057c-.338-.224-.682-.443-1.023-.654a.5.5,0,0,1-.164-.623.364.364,0,0,1,.529-.193c.346.216.695.44,1.039.667a.5.5,0,0,1,.185.518A.408.408,0,0,1,1082.693,695.84Zm-46.1-.291a.409.409,0,0,1-.378-.349.493.493,0,0,1,.194-.517c.344-.216.7-.43,1.056-.64a.367.367,0,0,1,.524.207.532.532,0,0,1,.022.352.443.443,0,0,1-.2.266c-.347.2-.7.416-1.033.627a.345.345,0,0,1-.182.057Zm42.619-1.792a.325.325,0,0,1-.163-.042c-.353-.189-.71-.376-1.056-.555a.453.453,0,0,1-.25-.369.5.5,0,0,1,.157-.434.342.342,0,0,1,.4-.043c.359.182.723.371,1.082.565a.487.487,0,0,1,.218.516.412.412,0,0,1-.381.362Zm-39.086-.2a.413.413,0,0,1-.38-.366.485.485,0,0,1,.224-.515c.361-.184.727-.366,1.09-.537a.374.374,0,0,1,.509.254.492.492,0,0,1-.215.6c-.357.169-.718.348-1.073.528a.323.323,0,0,1-.156.04Zm35.478-1.54a.368.368,0,0,1-.133-.027c-.365-.157-.735-.309-1.1-.45a.483.483,0,0,1-.247-.582.381.381,0,0,1,.494-.291c.37.144.746.3,1.118.458a.476.476,0,0,1,.252.513A.415.415,0,0,1,1075.6,692.015Zm-31.831-.114a.416.416,0,0,1-.385-.385.474.474,0,0,1,.259-.511c.368-.149.746-.294,1.122-.433a.383.383,0,0,1,.491.3.481.481,0,0,1-.255.579c-.372.137-.744.279-1.107.425a.328.328,0,0,1-.127.027Zm28.1-1.269a.367.367,0,0,1-.1-.015c-.372-.119-.752-.231-1.126-.338a.47.47,0,0,1-.288-.556.393.393,0,0,1,.472-.34c.38.109.767.224,1.145.343a.464.464,0,0,1,.289.506A.418.418,0,0,1,1071.869,690.632Zm-24.36-.045a.42.42,0,0,1-.384-.4.464.464,0,0,1,.289-.5c.378-.114.765-.224,1.147-.328a.394.394,0,0,1,.469.346.469.469,0,0,1-.294.552c-.376.1-.756.209-1.13.323a.328.328,0,0,1-.1.015Zm20.549-.951h-.07c-.38-.08-.767-.157-1.147-.224a.456.456,0,0,1-.327-.525.405.405,0,0,1,.446-.386c.387.07.78.147,1.166.229a.454.454,0,0,1,.319.493.423.423,0,0,1-.387.42Zm-16.725,0a.424.424,0,0,1-.385-.421.453.453,0,0,1,.319-.492c.385-.08.778-.154,1.166-.222a.406.406,0,0,1,.444.388.455.455,0,0,1-.33.523c-.38.067-.767.139-1.147.216Zm3.873-.607a.427.427,0,0,1-.386-.439.443.443,0,0,1,.35-.479c.391-.042.786-.082,1.179-.114a.419.419,0,0,1,.418.428.443.443,0,0,1-.363.493c-.387.03-.777.067-1.16.109Zm8.979,0h-.036c-.382-.04-.771-.077-1.16-.109a.393.393,0,0,1-.334-.253.53.53,0,0,1,.027-.467.372.372,0,0,1,.36-.2c.4.032.792.07,1.179.112a.443.443,0,0,1,.35.479.427.427,0,0,1-.386.439Zm-5.071-.249a.466.466,0,0,1,0-.921h1.183a.432.432,0,0,1,.387.465.5.5,0,0,1-.116.326.358.358,0,0,1-.279.13h-1.164Z" transform="translate(-1004.598 -687.86)" fill="url(#e)"/></g></g><g transform="translate(47.199 17.945)"><g transform="translate(191.565 15.307)"><path d="M63.072-5.146C97.906-7.988,123.84,17.946,121,52.78S87.614,118.156,52.78,121-7.988,97.906-5.146,63.072,28.238-2.3,63.072-5.146Z" transform="translate(0 96.476) rotate(-45)" fill="#91b3fa"/><path d="M60.976-4.975c33.676-2.748,58.749,22.325,56,56S84.7,114.23,51.026,116.978s-58.749-22.325-56-56S27.3-2.228,60.976-4.975Z" transform="translate(2.722 96.476) rotate(-45)" fill="#7d97f4"/><path d="M51.609-4.211c28.5-2.326,49.724,18.9,47.4,47.4S71.69,96.681,43.187,99.007s-49.724-18.9-47.4-47.4S23.106-1.885,51.609-4.211Z" transform="translate(16.109 97.912) rotate(-45)" fill="#bdd0fb"/></g><g transform="translate(0 15.304)"><path d="M63.075-5.146C97.91-7.989,123.845,17.947,121,52.782S87.617,118.16,52.782,121-7.989,97.91-5.146,63.075,28.239-2.3,63.075-5.146Z" transform="translate(0 96.479) rotate(-45)" fill="#91b3fa"/><ellipse cx="56.001" cy="65.952" rx="56.001" ry="65.952" transform="translate(25.92 30.529)" fill="#7d97f4"/><path d="M570.059,612.034h-.021a.439.439,0,0,1-.37-.483,72.421,72.421,0,0,1,.761-7.713.4.4,0,0,1,.454-.371.46.46,0,0,1,.315.535,71.338,71.338,0,0,0-.748,7.589A.427.427,0,0,1,570.059,612.034Z" transform="translate(-539.759 -518.355)" fill="#bdd0fb"/><path d="M595.883,437.029a.355.355,0,0,1-.175-.05.5.5,0,0,1-.173-.62c8.859-20.676,26.85-33.715,46.515-33.71h.032a44.942,44.942,0,0,1,9.4,1,.46.46,0,0,1,.315.535.4.4,0,0,1-.455.37,44.289,44.289,0,0,0-9.256-1h-.025c-19.375-.006-37.1,12.844-45.822,33.22A.389.389,0,0,1,595.883,437.029Z" transform="translate(-560.128 -367.511)" fill="#bdd0fb"/><path d="M51.609-4.211c28.5-2.326,49.724,18.9,47.4,47.4S71.69,96.681,43.187,99.007s-49.724-18.9-47.4-47.4S23.106-1.885,51.609-4.211Z" transform="translate(16.11 97.919) rotate(-45)" fill="#bdd0fb"/></g><g transform="translate(159.105 53.471)"><path d="M1195.712,587.118s-2.24-6.945-4.859-6.31a16.856,16.856,0,0,0-5.481,3.008l-4.2,6.7s11.8,5.474,15.949,2.336a77.137,77.137,0,0,0,27.274-.5,79.271,79.271,0,0,1-4.287-15.22C1212.4,582.273,1204.094,586.112,1195.712,587.118Z" transform="translate(-1181.17 -536.744)" fill="url(#f)"/><path d="M1404.908,414.82s-17.257,25.6-39.448,40.391a79.261,79.261,0,0,0,4.287,15.22,66.717,66.717,0,0,0,36.128-19.331Z" transform="translate(-1326.524 -414.82)" fill="url(#g)"/></g><path d="M940,428.43l1.071,33.884a69.514,69.514,0,0,0,8.7,2.909c1.726-6.541,5.525-14.571,8.637-20.542C946.972,439.92,940,428.43,940,428.43Z" transform="translate(-831.849 -371.572)" fill="url(#h)"/><path d="M1033.561,426.11c-15.681,19.938-28.374,21.112-38.664,16.828-3.112,5.972-6.911,14-8.637,20.542,41.877,10.873,51.738-34.464,51.738-34.464Z" transform="translate(-868.335 -369.829)" fill="url(#i)"/><path d="M1225.19,410.537a5.245,5.245,0,0,1,5.151-1.568c3.344.717,6.317,2.085,8.4,0s2.816.714,2.816.714l-6.237,5.583Z" transform="translate(-1056.784 -356.374)" fill="url(#j)"/><path d="M1207.53,417.174s1.238-6.094,4.969-5.26,12.2,6.26,14.379,5.26,4.971-3.389,6.4-2.545l-2.521,3.693s6.482-4.4,7.606-1.7l-10.775,7.149S1211.792,421.911,1207.53,417.174Z" transform="translate(-1042.855 -359.107)" fill="url(#k)"/><path d="M738.1,454.09c11.409-15.987,15.78-33.046,2.191-49.465s-24.493-7.937-24.493-7.937c-30.344,21.762-33.842,81.04-33.9,106.288,8.376,7.876,18.778,12.161,29.5,12.15a40.775,40.775,0,0,0,5.426-.366C716,497.994,727.443,469.039,738.1,454.09Z" transform="translate(-628.279 -346.082)" fill="url(#l)"/><path d="M886.88,304.81c0,1.075-13,22.8-13,22.8s2.324,5.407,13.463,9.8l9.607-23.262Z" transform="translate(-779.698 -278.711)" fill="url(#m)"/><path d="M911.23,549.333s24.643,24.3,51.254,13.7a5.484,5.484,0,0,1,5,.443l7.65,4.757c3.211,2,7.187.685,9.049-2.986a18.948,18.948,0,0,0,2.151-6.778l-14.969-7.136,1.1-2.162s-7.308-.729-9.22,5.442c0,0-13.921,6.818-37.4-23.593C925.846,531.015,915.2,541.692,911.23,549.333Z" transform="translate(-809.157 -448.636)" fill="url(#n)"/><path d="M846.44,535.5a.485.485,0,0,1-.3-.109c-10.405-8.281-15.3-21.647-15.349-21.782a.685.685,0,0,1,.3-.812.514.514,0,0,1,.7.314c.046.129,4.826,13.155,14.956,21.217a.7.7,0,0,1,.217.721.564.564,0,0,1-.523.453Z" transform="translate(-745.683 -434.908)" fill="url(#o)"/><path d="M876.312,445.589a.536.536,0,0,1-.461-.294c-.03-.057-3.2-5.875-9.241-18.612-1.84-3.877-4.255-6.332-7.183-7.3-4.847-1.595-9.522,1.466-9.569,1.493a.5.5,0,0,1-.744-.241.707.707,0,0,1,.2-.876c.211-.137,5.1-3.357,10.391-1.62,3.216,1.057,5.855,3.72,7.843,7.912,6.023,12.69,9.178,18.482,9.207,18.539a.737.737,0,0,1,.075.484.652.652,0,0,1-.238.4A.481.481,0,0,1,876.312,445.589Z" transform="translate(-760.109 -363.459)" fill="url(#p)"/><g transform="translate(90.567)"><path d="M914.612,254.78s4.623,12.5,4.933,19.065,1.511,10.821-4.933,12.142-11.87-2.458-14.81-8.995c0,0-4.608-10.072-3.575-14.2S914.612,254.78,914.612,254.78Z" transform="translate(-887.772 -241.13)" fill="url(#q)"/><path d="M871,231.082l.365-.192a1,1,0,0,0,.474-.608,1.208,1.208,0,0,0-.051-.823c-.909-2.065-2.679-6.8-.391-7.91,2.958-1.423,14.629-4.23,17.149-9.109,2.421-4.693.277-10.746-2.958-12.471a.415.415,0,0,0-.581.224l-.268.6a.427.427,0,0,1-.433.27.466.466,0,0,1-.376-.37h0a.466.466,0,0,0-.358-.368.415.415,0,0,0-.43.236c-.773,1.461-2.865,3.827-8.451,5.044-7.95,1.727-13.2,5.516-13.336,11.983a.536.536,0,0,1-.232.45.383.383,0,0,1-.446-.022c-.585-.423-1.525-.62-2.78.622-2.182,2.162-1.291,7.771,3.5,12.384a.552.552,0,0,1,.166.418.541.541,0,0,1-.187.405c-.868.667-2.161,2.239,1.19,4.359,3.467,2.182,6.055,2,7.05,1.809a.438.438,0,0,0,.29-.22.591.591,0,0,0,.064-.4l-1.056-5.686a.587.587,0,0,1,.084-.432.417.417,0,0,1,.338-.195Z" transform="translate(-856.772 -199.919)" fill="url(#r)"/><path d="M903.4,311.452s-1.764-7.987-4.8-5.748,1.578,8.957,4.014,9.249Z" transform="translate(-888.971 -279.085)" fill="url(#s)"/></g><path d="M1177.47,643.966s6.262,7.216,7.471,6.163a26.58,26.58,0,0,0,2.567-3.235,3.623,3.623,0,0,0,.182-3.732l-1.479-2.685a4.277,4.277,0,0,0-2.975-2.254,3.841,3.841,0,0,0-3.4,1.161A9.492,9.492,0,0,0,1177.47,643.966Z" transform="translate(-1019.146 -529.126)" fill="url(#t)"/><path d="M1589.844,402.373c-24.341-8.383-46.3.368-46.3.368l-1.754,13.334a61.92,61.92,0,0,0,5.225,34.529,172.588,172.588,0,0,1,15.981,63.653,41.181,41.181,0,0,0,40.92-3.053C1619.645,436.656,1589.844,402.373,1589.844,402.373Z" transform="translate(-1306.053 -349.27)" fill="url(#u)"/><path d="M1569.86,333.5l5.7,16.111a2.867,2.867,0,0,0,2.06,1.931c3.283.662,11.223,1.7,16.439-2.341a1.594,1.594,0,0,0,.57-1.01,1.781,1.781,0,0,0-.217-1.185L1583.9,329.22Z" transform="translate(-1328.633 -297.047)" fill="url(#v)"/><g transform="translate(250.333 92.347)"><path d="M1613.9,598.487a1.352,1.352,0,0,0-.832.839,1.735,1.735,0,0,0,.033,1.289l16.48,37.2a1.2,1.2,0,0,0,1.479.746l53.876-18.323a1.546,1.546,0,0,0,.864-1.844l-9.284-37.843a1.257,1.257,0,0,0-1.536-1.028Z" transform="translate(-1612.961 -577.381)" fill="#bdd0fb"/><path d="M1630.068,587.793a1.377,1.377,0,0,0-.859.78,1.809,1.809,0,0,0-.074,1.275l13.186,42.185a1.288,1.288,0,0,0,1.61.958l53.724-18.266a1.6,1.6,0,0,0,.928-1.826l-7.446-40.61a1.581,1.581,0,0,0-.589-.99,1.159,1.159,0,0,0-1.013-.2Z" transform="translate(-1625.652 -571.059)" fill="#91b3fa"/><path d="M1650.81,592.074a1.634,1.634,0,0,0-1.108.824,2.215,2.215,0,0,0-.24,1.517l8.956,45.534a1.932,1.932,0,0,0,.765,1.228,1.422,1.422,0,0,0,1.283.19l52.912-17.99a1.984,1.984,0,0,0,1.13-2.331l-8.132-37.171a1.658,1.658,0,0,0-1.83-1.423Z" transform="translate(-1641.717 -579.601)" fill="url(#w)"/></g><path d="M1750.644,481.141c4.105-36.532-19.8-64.623-19.8-64.623l-2.666-3.177-11.557,22.7c10.8,15.852,15.932,30.376,18.278,41.787C1738.008,476.764,1745.493,475.079,1750.644,481.141Z" transform="translate(-1444.386 -360.237)" fill="url(#x)"/><path d="M1733.44,545.445a.41.41,0,0,1-.38-.353c-2.907-14.145-9.032-28.144-18.2-41.6a.519.519,0,0,1,.06-.648.353.353,0,0,1,.55.071c9.241,13.568,15.423,27.686,18.352,41.966a.469.469,0,0,1-.29.555A.288.288,0,0,1,1733.44,545.445Z" transform="translate(-1442.928 -427.39)" fill="url(#y)"/><path d="M1748.937,669.345a78.737,78.737,0,0,1,1.618,22.292,2.732,2.732,0,0,1-2.309,2.635c-1.378.115-3.251.249-4.927.376-1.842.124-3.885-1.244-5.252-2.391a.727.727,0,0,0-1.012.054,1.09,1.09,0,0,0-.2,1.17c1.018,2.351,3.609,4.444,5.392,5.673a1.055,1.055,0,0,1,.427.993.959.959,0,0,1-.622.839l-7.634,2.548c12.542,13.914,20.819-1.652,20.819-1.652a78.49,78.49,0,0,0,9.444-29.226C1759.532,666.593,1752.047,668.277,1748.937,669.345Z" transform="translate(-1458.425 -551.75)" fill="url(#z)"/><g transform="translate(234.761 4.077)"><path d="M1559.57,249.82c-.211.3-8.2,24.511-8.2,24.511L1563.2,279.4l10.458-21.625S1563.229,244.853,1559.57,249.82Z" transform="translate(-1548.81 -240.627)" fill="url(#aa)"/><path d="M1559.165,234.609a2.475,2.475,0,0,1,.023,1.876l-4.68,11.719a2.153,2.153,0,0,1-.271.5c-.606.814-2.715,3.222-4.737.525-1.724-2.307-3.328-4.384-4.933-5.131a1.559,1.559,0,0,0-1.391.038,2.025,2.025,0,0,0-.956,1.191,90.174,90.174,0,0,0-2.928,11.219,2.171,2.171,0,0,0,1.268,2.463,43.474,43.474,0,0,0,11.128,2.428,1.772,1.772,0,0,0,1.629-1.055c1.479-2.986,5.677-11.341,7.169-13.483,1.386-1.991,4.289-1.647,5.607-1.366a1.612,1.612,0,0,0,1.418-.4,5.169,5.169,0,0,0,.885-7.285,2.4,2.4,0,0,1,.309-2.948,5.732,5.732,0,0,0-5.426-9.617,1.776,1.776,0,0,1-2.071-1.05,1.2,1.2,0,0,0-1-.746c-2.662-.311-1.008-4.14-1.876-5.927-1.217-2.5-3.9-.759-5.189.821-.716.876-1.333,1.861-2.079,2.7a8.708,8.708,0,0,1-4.225,2.67,1.33,1.33,0,0,0-.682.321,1.2,1.2,0,0,0-.152,1.157,2.846,2.846,0,0,0,.649.968,10.474,10.474,0,0,0,7.606,3.653C1556.807,229.914,1558.464,232.984,1559.165,234.609Z" transform="translate(-1539.255 -216.304)" fill="#fff"/><path d="M1629.12,332.643s2-7.288,4.8-7.345,5.255,2.936,2.134,7C1632.169,337.353,1629.12,332.643,1629.12,332.643Z" transform="translate(-1610.134 -298.177)" fill="url(#ab)"/></g><path d="M1573.06,217.978c10.619-21.085,35.026.015,22.541,17.574C1587.157,228.222,1577.717,217.505,1573.06,217.978Z" transform="translate(-1331.157 -206.858)" fill="url(#ac)"/><path d="M1549.335,253.27l-17.443-1.632a1.285,1.285,0,0,1-1.033-.824,12.824,12.824,0,0,0-6.446-6.984.433.433,0,0,1-.215-.463.374.374,0,0,1,.344-.338l10.746-.249h.036c5.318.786,9.888,4.84,14.189,10.05a.3.3,0,0,1,.036.29.222.222,0,0,1-.214.15Z" transform="translate(-1292.613 -232.115)" fill="url(#ad)"/></g><path d="M1402.4,1232.211a.345.345,0,0,1-.19-.06q-.507-.336-1.02-.662a.5.5,0,0,1-.159-.623.363.363,0,0,1,.529-.188q.52.328,1.033.672a.5.5,0,0,1,.185.518.408.408,0,0,1-.378.343Zm-3.463-2.135a.352.352,0,0,1-.169-.045q-.526-.3-1.056-.587a.5.5,0,0,1-.191-.611.369.369,0,0,1,.519-.225c.357.194.714.393,1.056.595a.49.49,0,0,1,.208.517.411.411,0,0,1-.379.357Zm-57.871-.316a.41.41,0,0,1-.382-.358.488.488,0,0,1,.213-.518q.532-.3,1.069-.587a.371.371,0,0,1,.5.235.5.5,0,0,1-.176.6q-.528.289-1.056.582a.351.351,0,0,1-.169.042Zm54.3-1.562a.31.31,0,0,1-.148-.035c-.361-.174-.72-.343-1.084-.5a.49.49,0,0,1-.222-.6.375.375,0,0,1,.507-.261q.549.249,1.094.517a.481.481,0,0,1,.234.514.414.414,0,0,1-.382.371Zm-50.728-.294a.414.414,0,0,1-.386-.373.48.48,0,0,1,.24-.515c.363-.172.731-.344,1.1-.5a.377.377,0,0,1,.491.27.492.492,0,0,1-.21.589l-1.086.5a.307.307,0,0,1-.14.027Zm47.071-1.329a.329.329,0,0,1-.127-.025q-.551-.219-1.107-.433a.481.481,0,0,1-.251-.58.382.382,0,0,1,.492-.3q.56.214,1.12.438a.474.474,0,0,1,.259.511A.416.416,0,0,1,1391.708,1226.575Zm-43.4-.264a.416.416,0,0,1-.39-.386.472.472,0,0,1,.265-.512q.56-.221,1.122-.428a.383.383,0,0,1,.49.3.48.48,0,0,1-.256.577q-.554.2-1.109.423a.306.306,0,0,1-.116.022Zm39.669-1.1a.319.319,0,0,1-.106-.017q-.56-.184-1.126-.356a.475.475,0,0,1-.27-.558.392.392,0,0,1,.467-.333q.57.177,1.139.361a.466.466,0,0,1,.281.5A.419.419,0,0,1,1387.975,1225.211Zm-35.917-.229a.418.418,0,0,1-.39-.4.464.464,0,0,1,.289-.506q.57-.179,1.141-.348a.391.391,0,0,1,.474.335.472.472,0,0,1-.284.559c-.376.112-.754.226-1.128.346a.353.353,0,0,1-.106.012Zm32.133-.876a.291.291,0,0,1-.082,0c-.38-.1-.761-.192-1.143-.278a.464.464,0,0,1-.307-.543.4.4,0,0,1,.461-.361q.577.134,1.153.281a.458.458,0,0,1,.308.5.421.421,0,0,1-.39.412Zm-28.33-.187a.421.421,0,0,1-.388-.413.457.457,0,0,1,.308-.5c.387-.095.771-.184,1.158-.269a.357.357,0,0,1,.385.141.524.524,0,0,1,.075.466.412.412,0,0,1-.314.3q-.573.127-1.145.266a.281.281,0,0,1-.083.008Zm24.489-.659h-.061q-.577-.107-1.154-.2a.4.4,0,0,1-.325-.278.528.528,0,0,1,.056-.469.361.361,0,0,1,.377-.163c.389.065.78.132,1.166.2a.449.449,0,0,1,.332.49.423.423,0,0,1-.392.426Zm-20.642-.139a.424.424,0,0,1-.388-.428.449.449,0,0,1,.333-.488c.389-.067.777-.132,1.168-.189a.347.347,0,0,1,.289.09.481.481,0,0,1,.149.3.455.455,0,0,1-.338.518c-.385.057-.771.12-1.156.187Zm16.765-.448h-.04c-.387-.045-.773-.087-1.16-.124a.444.444,0,0,1-.358-.5.417.417,0,0,1,.422-.422c.391.04.784.082,1.175.127a.443.443,0,0,1,.35.48.426.426,0,0,1-.388.438Zm-12.888-.087a.423.423,0,0,1-.408-.44.438.438,0,0,1,.374-.48c.391-.04.784-.077,1.175-.109a.372.372,0,0,1,.358.2.53.53,0,0,1,.028.465.394.394,0,0,1-.331.255c-.387.032-.775.07-1.162.109Zm8.981-.249h-.017c-.387-.02-.775-.035-1.164-.047a.434.434,0,0,1-.38-.473.491.491,0,0,1,.119-.324.352.352,0,0,1,.281-.124c.393,0,.786.028,1.179.047a.434.434,0,0,1,.382.47A.426.426,0,0,1,1372.567,1222.337Zm-5.081-.035a.466.466,0,0,1,0-.921c.393-.015.786-.025,1.179-.032h0a.466.466,0,0,1,0,.921c-.389,0-.777.017-1.166.032Z" transform="translate(-1100.671 -949.253)" fill="#fff"/><path d="M1842.077,1071.228a.34.34,0,0,1-.131-.027.485.485,0,0,1-.239-.587c.133-.44.279-.883.438-1.314a.371.371,0,0,1,.513-.242.494.494,0,0,1,.205.6c-.152.413-.292.836-.423,1.244A.405.405,0,0,1,1842.077,1071.228Zm1.69-4.14a.342.342,0,0,1-.211-.07.462.462,0,0,1-.175-.285.529.529,0,0,1,.048-.347c.211-.4.423-.791.666-1.174a.377.377,0,0,1,.362-.218.4.4,0,0,1,.331.279.528.528,0,0,1-.059.474c-.222.366-.435.746-.634,1.125a.385.385,0,0,1-.325.217Zm2.4-3.628a.4.4,0,0,1-.357-.281.526.526,0,0,1,.074-.5c.275-.338.562-.669.845-1a.351.351,0,0,1,.552.029.52.52,0,0,1-.024.651c-.279.3-.556.622-.82.945a.366.366,0,0,1-.268.149Zm2.981-2.966a.407.407,0,0,1-.366-.33.5.5,0,0,1,.155-.511c.33-.264.672-.518,1.014-.746a.341.341,0,0,1,.4-.022.479.479,0,0,1,.2.412.474.474,0,0,1-.216.4c-.325.226-.653.468-.97.719a.341.341,0,0,1-.224.075Zm4.477-2.055a.392.392,0,0,1-.361-.286.6.6,0,0,0-.249.047l-.275.122a.343.343,0,0,1-.4-.051.5.5,0,0,1-.147-.445.443.443,0,0,1,.268-.359l.287-.13a1.249,1.249,0,0,1,.494-.107.744.744,0,0,1,.775.692.452.452,0,0,1-.338.515Z" transform="translate(-1495.828 -825.969)" fill="#fff"/><path d="M477.617,1128.551h-.03c-.393-.035-.792-.082-1.185-.139a.377.377,0,0,1-.262-.172.515.515,0,0,1-.079-.34.41.41,0,0,1,.435-.4c.38.055.767.1,1.147.135a.442.442,0,0,1,.352.474A.429.429,0,0,1,477.617,1128.551Zm-3.858-.7a.284.284,0,0,1-.091,0c-.382-.107-.771-.229-1.151-.358a.483.483,0,0,1-.241-.557.392.392,0,0,1,.452-.327c.37.124.744.249,1.116.346a.461.461,0,0,1,.3.5.42.42,0,0,1-.389.406Zm-3.714-1.421a.325.325,0,0,1-.15-.035c-.366-.179-.731-.368-1.088-.567a.5.5,0,0,1-.188-.612.368.368,0,0,1,.52-.221c.346.192.7.378,1.056.55a.482.482,0,0,1,.234.516.413.413,0,0,1-.384.37Zm-3.478-2.093a.342.342,0,0,1-.211-.07c-.338-.249-.674-.5-1-.766a.522.522,0,0,1-.051-.6.357.357,0,0,1,.492-.151c.315.249.634.5.966.746a.5.5,0,0,1,.172.522.4.4,0,0,1-.383.331Zm-3.144-2.737a.352.352,0,0,1-.256-.114c-.3-.306-.594-.625-.879-.951a.521.521,0,0,1,0-.643.35.35,0,0,1,.545-.019c.277.313.562.622.845.918a.516.516,0,0,1,.11.51.4.4,0,0,1-.368.3Zm-2.715-3.3a.368.368,0,0,1-.3-.167c-.251-.361-.5-.746-.735-1.107a.519.519,0,0,1,.083-.648.357.357,0,0,1,.55.1c.228.363.467.724.712,1.073a.528.528,0,0,1,.047.484.392.392,0,0,1-.349.262Zm-2.229-3.775a.382.382,0,0,1-.338-.229c-.2-.4-.393-.816-.577-1.229a.5.5,0,0,1,.167-.622.365.365,0,0,1,.528.2c.175.4.363.8.556,1.189a.529.529,0,0,1,.042.349.457.457,0,0,1-.181.281.335.335,0,0,1-.2.065Zm-1.69-4.143a.4.4,0,0,1-.366-.3c-.144-.433-.279-.876-.4-1.319a.483.483,0,0,1,.247-.582.381.381,0,0,1,.494.291c.12.428.254.858.391,1.279a.534.534,0,0,1-.007.352.423.423,0,0,1-.217.242.355.355,0,0,1-.144.032Zm-1.116-4.409a.41.41,0,0,1-.382-.363c-.082-.458-.156-.923-.211-1.381a.458.458,0,0,1,.324-.529.4.4,0,0,1,.449.382c.061.445.131.893.211,1.336a.465.465,0,0,1-.3.545.311.311,0,0,1-.093.01Zm-.363-4.558a.311.311,0,0,1-.082,0,.469.469,0,0,1-.3-.547,2.349,2.349,0,0,1,.748-1.433.346.346,0,0,1,.409-.08.463.463,0,0,1,.24.4.483.483,0,0,1-.2.428,1.421,1.421,0,0,0-.433.873.413.413,0,0,1-.387.361Z" transform="translate(-402.056 -857.584)" fill="#fff"/><path d="M1000.088,1283.738h0c-.391,0-.79,0-1.181-.02a.435.435,0,0,1-.38-.473.426.426,0,0,1,.4-.448c.384,0,.777.018,1.162.02a.466.466,0,0,1,0,.921Zm2.734-.09a.425.425,0,0,1-.4-.448.435.435,0,0,1,.38-.473c.382-.025.773-.057,1.16-.094a.417.417,0,0,1,.421.422.444.444,0,0,1-.358.5c-.393.037-.788.07-1.179.1Zm-6.638-.114h-.034c-.393-.04-.788-.087-1.177-.14a.45.45,0,0,1-.344-.51.411.411,0,0,1,.433-.406c.38.052.771.1,1.156.137a.438.438,0,0,1,.374.48.423.423,0,0,1-.408.441Zm10.528-.336a.424.424,0,0,1-.388-.428.449.449,0,0,1,.333-.488c.385-.062.771-.132,1.151-.207a.4.4,0,0,1,.45.381.458.458,0,0,1-.323.53c-.387.075-.78.144-1.168.209Zm-14.4-.261h-.068c-.382-.077-.773-.164-1.162-.249a.464.464,0,0,1-.306-.543.4.4,0,0,1,.461-.361c.38.089.765.174,1.143.249a.454.454,0,0,1,.319.493.423.423,0,0,1-.387.42Zm18.248-.558a.421.421,0,0,1-.383-.41.461.461,0,0,1,.3-.5c.378-.1.759-.2,1.132-.313a.352.352,0,0,1,.384.121.52.52,0,0,1,.1.454.424.424,0,0,1-.291.318c-.38.11-.767.219-1.151.319a.335.335,0,0,1-.084.01Zm-22.066-.418a.344.344,0,0,1-.1-.015c-.378-.117-.76-.249-1.141-.369a.429.429,0,0,1-.285-.328.517.517,0,0,1,.108-.452.349.349,0,0,1,.389-.105c.374.127.75.249,1.122.363a.464.464,0,0,1,.289.5.419.419,0,0,1-.386.4Zm25.843-.746a.409.409,0,0,1-.374-.326.479.479,0,0,1,.26-.575c.37-.134.742-.274,1.107-.418a.381.381,0,0,1,.5.29.483.483,0,0,1-.246.583c-.372.144-.752.289-1.126.423a.32.32,0,0,1-.116.013Zm-29.579-.585a.345.345,0,0,1-.129-.027c-.37-.152-.744-.311-1.111-.473a.49.49,0,0,1-.228-.595.377.377,0,0,1,.505-.269c.361.162.729.319,1.092.468a.474.474,0,0,1,.259.512A.415.415,0,0,1,984.756,1280.63Zm33.272-.938a.414.414,0,0,1-.384-.374.48.48,0,0,1,.24-.514c.361-.169.723-.343,1.078-.52a.372.372,0,0,1,.512.245.493.493,0,0,1-.208.6c-.359.179-.727.356-1.094.527a.324.324,0,0,1-.148.022Zm-36.908-.746a.332.332,0,0,1-.156-.04c-.357-.187-.718-.381-1.075-.577a.5.5,0,0,1-.188-.612.368.368,0,0,1,.52-.221c.353.194.708.386,1.056.567a.483.483,0,0,1,.228.518.411.411,0,0,1-.387.365Zm40.483-1.107a.411.411,0,0,1-.379-.357.489.489,0,0,1,.208-.516c.346-.2.7-.408,1.04-.617a.365.365,0,0,1,.527.2.5.5,0,0,1-.168.621c-.349.211-.7.423-1.056.625a.342.342,0,0,1-.175.032Zm-43.992-.916a.345.345,0,0,1-.186-.055c-.347-.219-.693-.448-1.033-.674a.507.507,0,0,1-.147-.628.361.361,0,0,1,.534-.173c.334.224.676.448,1.018.664a.494.494,0,0,1,.194.518A.409.409,0,0,1,977.61,1276.923Zm47.434-1.267a.407.407,0,0,1-.376-.339.5.5,0,0,1,.177-.517c.332-.234.668-.473,1-.712a.36.36,0,0,1,.543.142.514.514,0,0,1-.12.64c-.332.249-.672.5-1.01.722a.334.334,0,0,1-.213.05Zm-50.8-1.082a.347.347,0,0,1-.211-.072c-.332-.249-.663-.5-.987-.769a.513.513,0,0,1-.1-.64.356.356,0,0,1,.543-.122c.319.249.634.5.97.746a.5.5,0,0,1,.167.517.4.4,0,0,1-.378.328Zm54.087-1.421a.406.406,0,0,1-.371-.323.511.511,0,0,1,.145-.516c.317-.261.634-.532.944-.8a.356.356,0,0,1,.549.1.518.518,0,0,1-.084.647c-.315.274-.634.55-.959.816a.34.34,0,0,1-.224.07Zm-57.282-1.222a.343.343,0,0,1-.237-.095c-.311-.276-.634-.565-.932-.856a.518.518,0,0,1-.061-.647.353.353,0,0,1,.549-.072c.3.286.61.57.917.844a.511.511,0,0,1,.133.513A.4.4,0,0,1,971.048,1271.932Zm60.383-1.58a.364.364,0,0,1-.3-.164.516.516,0,0,1-.09-.337.49.49,0,0,1,.139-.313c.3-.291.6-.592.885-.888a.348.348,0,0,1,.387-.1.443.443,0,0,1,.262.351.508.508,0,0,1-.134.44c-.294.3-.6.607-.9.9a.347.347,0,0,1-.256.1Zm-63.4-1.351a.369.369,0,0,1-.262-.117c-.292-.308-.583-.625-.87-.941a.521.521,0,0,1-.017-.652.352.352,0,0,1,.553-.02c.281.311.568.622.856.926a.518.518,0,0,1,.1.507A.4.4,0,0,1,968.035,1269Zm66.291-1.742a.359.359,0,0,1-.277-.137.523.523,0,0,1,0-.652c.275-.318.552-.645.818-.973a.351.351,0,0,1,.553-.012.521.521,0,0,1,.011.652c-.273.333-.554.667-.833,1a.361.361,0,0,1-.279.122Zm-69.088-1.466a.366.366,0,0,1-.283-.144c-.27-.336-.541-.679-.8-1.02a.521.521,0,0,1,.027-.652.352.352,0,0,1,.554.032c.258.338.524.677.79,1a.526.526,0,0,1,.074.5.4.4,0,0,1-.357.281Zm-2.573-3.463a.369.369,0,0,1-.3-.174c-.247-.358-.492-.727-.731-1.095a.517.517,0,0,1,.073-.646.353.353,0,0,1,.548.086c.234.363.477.724.718,1.078a.528.528,0,0,1,.046.485.392.392,0,0,1-.35.261Zm-2.324-3.705a.379.379,0,0,1-.323-.2c-.211-.385-.439-.776-.649-1.164a.512.512,0,0,1,.118-.637.358.358,0,0,1,.541.139c.211.381.423.766.634,1.145a.516.516,0,0,1-.106.639.343.343,0,0,1-.224.077Z" transform="translate(-799.877 -975.693)" fill="#fff"/><g transform="translate(198.25 229.586)"><rect width="191.183" height="13.245" transform="translate(4.325 88.634)" fill="#7d97f4"/><rect width="4.325" height="18" transform="translate(0 85.579)" fill="#91b3fa"/><path d="M1335.387,1056.151c0-3.416-3.106-5.651-7.775-5.651H1151.681c-4.669,0-8.631,2.239-8.631,5.651v77.676c0,3.414,3.962,6.325,8.631,6.325h175.931c4.669,0,7.775-2.911,7.775-6.325Z" transform="translate(-1143.05 -1050.5)" fill="#bdd0fb"/><path d="M1353.377,1067.476c0-3.125-3.556-6.066-7.961-6.066H1179.449c-4.4,0-7.739,2.941-7.739,6.066v71c0,3.125,3.336,5.8,7.739,5.8h165.967c4.405,0,7.961-2.67,7.961-5.8Z" transform="translate(-1165.655 -1058.695)" fill="#7d97f4"/><path d="M2106.721,1194.953l-8.675-31.364a1.492,1.492,0,0,0-1.551-1.13h-34.9v74.034h47.184Z" transform="translate(-1867.523 -1134.602)" fill="url(#ae)"/><path d="M2143.9,1415.445a2.876,2.876,0,0,0-1.783-.542l-36.388.824-.186,12.16,36.492,1.053c1.331,0,2.667-.746,2.667-1.816v-10.3A1.839,1.839,0,0,0,2143.9,1415.445Z" transform="translate(-1902.188 -1324.231)" fill="#7d97f4"/><g transform="translate(203.468 32.314)"><path d="M2135.046,1207.509l-5.244-24.446a1.756,1.756,0,0,0-1.578-1.493h-20.507a1.909,1.909,0,0,0-1.629,2.06l.492,19.6a1.849,1.849,0,0,0,1.367,1.844l25.258,4.81a1.494,1.494,0,0,0,1.46-.6,2.169,2.169,0,0,0,.38-1.765Z" transform="translate(-2106.087 -1181.271)" fill="url(#af)"/><path d="M2232.1,1180.37l-.268.052a1.636,1.636,0,0,0-1.1.854,2.206,2.206,0,0,0-.2,1.537l5.715,25.031a1.641,1.641,0,0,0,1.874,1.389l1.8-.4Z" transform="translate(-2204.193 -1180.37)" fill="url(#ag)"/></g><rect width="9.516" height="4.414" rx="2.207" transform="translate(203.87 62.145)" fill="#7d97f4"/><path d="M2064.055,1073.983a2.169,2.169,0,0,0-1.66.622,2.727,2.727,0,0,0-.8,1.709v19.657h21.3S2081.748,1075.508,2064.055,1073.983Z" transform="translate(-1867.523 -1068.135)" fill="#bdd0fb"/><g transform="translate(200.495 85.808)"><g transform="translate(0 0)"><path d="M13.481-.382c7.445-.211,13.31,6.665,13.1,15.357S20.162,30.886,12.717,31.1-.593,24.432-.382,15.74,6.036-.171,13.481-.382Z" transform="translate(0 5.135) rotate(-9.35)" fill="url(#ah)"/><path d="M2154.7,1431a.241.241,0,0,1-.114-.027.366.366,0,0,1-.152-.445,15.378,15.378,0,0,0-2.95-15.481,10.261,10.261,0,0,0-13.39-1.75.268.268,0,0,1-.393-.132.388.388,0,0,1-.027-.257.332.332,0,0,1,.136-.2,10.771,10.771,0,0,1,14.058,1.836,16.143,16.143,0,0,1,3.1,16.253A.289.289,0,0,1,2154.7,1431Z" transform="translate(-2128.018 -1407.021)" fill="#7d97f4"/></g><path d="M7.146-.318c3.947-.176,7,2.483,6.828,5.938s-3.518,6.4-7.464,6.575-7-2.483-6.828-5.938S3.2-.143,7.146-.318Z" transform="translate(7.698 22.921) rotate(-72.2)" fill="#7d97f4"/></g><g transform="translate(44.224 87.498)"><g transform="translate(0 0)"><path d="M13.434-.2c7.42-.108,13.347,6.872,13.239,15.59s-6.211,15.874-13.63,15.982S-.3,24.5-.2,15.786,6.015-.088,13.434-.2Z" transform="translate(0 2.606) rotate(-4.73)" fill="url(#ai)"/><path d="M1410.752,1433.179a.229.229,0,0,1-.112-.027.363.363,0,0,1-.154-.443,15.378,15.378,0,0,0-2.948-15.484,10.26,10.26,0,0,0-13.392-1.749.269.269,0,0,1-.374-.142.379.379,0,0,1,.091-.45,10.771,10.771,0,0,1,14.058,1.835,16.143,16.143,0,0,1,3.1,16.254.289.289,0,0,1-.264.207Z" transform="translate(-1384.994 -1410.349)" fill="#7d97f4"/></g><path d="M7.19-.244c3.971-.135,7.081,2.537,6.946,5.968S10.673,12.045,6.7,12.18-.38,9.643-.244,6.212,3.219-.109,7.19-.244Z" transform="translate(7.073 22.415) rotate(-76.72)" fill="#7d97f4"/></g><g transform="translate(137.012 87.08)"><g transform="translate(0 0)"><path d="M13.447-.262c7.427-.145,13.33,6.8,13.185,15.511s-6.283,15.891-13.71,16.036S-.407,24.485-.262,15.773,6.021-.118,13.447-.262Z" transform="matrix(0.994, -0.111, 0.111, 0.994, 0, 3.501)" fill="url(#aj)"/><path d="M1851.472,1433.179a.243.243,0,0,1-.114-.027.363.363,0,0,1-.152-.443,15.379,15.379,0,0,0-2.948-15.484,10.261,10.261,0,0,0-13.392-1.749.269.269,0,0,1-.374-.142.379.379,0,0,1,.091-.45,10.771,10.771,0,0,1,14.058,1.835,16.143,16.143,0,0,1,3.1,16.254.289.289,0,0,1-.264.207Z" transform="translate(-1825.388 -1409.93)" fill="#7d97f4"/></g><path d="M7.158-.3c3.953-.166,7.023,2.495,6.856,5.944s-3.506,6.38-7.459,6.546S-.468,9.694-.3,6.245,3.2-.135,7.158-.3Z" transform="translate(7.167 22.351) rotate(-73.28)" fill="#7d97f4"/></g><g transform="translate(6.325 87.401)"><g transform="translate(0 0)"><path d="M13.437-.213c7.421-.118,13.342,6.853,13.224,15.57s-6.229,15.879-13.651,16S-.331,24.5-.213,15.783,6.016-.1,13.437-.213Z" transform="translate(0 2.837) rotate(-5.15)" fill="url(#ak)"/><path d="M1231.767,1433.178a.239.239,0,0,1-.112-.027.316.316,0,0,1-.155-.184.391.391,0,0,1,0-.259,15.38,15.38,0,0,0-2.951-15.482,10.262,10.262,0,0,0-13.391-1.751.267.267,0,0,1-.392-.131.373.373,0,0,1,.111-.462,10.771,10.771,0,0,1,14.058,1.835,16.144,16.144,0,0,1,3.1,16.254A.29.29,0,0,1,1231.767,1433.178Z" transform="translate(-1205.911 -1410.25)" fill="#7d97f4"/></g><path d="M6.946-.489c3.836-.27,6.727,2.4,6.457,5.968s-3.6,6.676-7.435,6.946-6.727-2.4-6.457-5.968S3.11-.219,6.946-.489Z" transform="matrix(0.526, -0.851, 0.851, 0.526, 6.116, 19.52)" fill="#7d97f4"/></g><g transform="translate(233.859 78.443)"><rect width="7.786" height="10.189" rx="3.893" transform="translate(0 0.002)" fill="#bdd0fb"/><path d="M2253.154,1365.763v11.2h-1.135a2.479,2.479,0,0,1-2.039-2.24v-6.32c0-1.06,1.139-2.64,2.039-2.64Z" transform="translate(-2249.969 -1365.76)" fill="#fff" opacity="0.8"/></g><path d="M2074.16,1226.424a.267.267,0,0,1-.2-.1.371.371,0,0,1-.085-.24v-45.507a.289.289,0,1,1,.577,0v45.507A.316.316,0,0,1,2074.16,1226.424Z" transform="translate(-1877.209 -1147.979)" fill="#bdd0fb"/><path d="M2085.34,1105.028a.3.3,0,0,1-.272-.229c-1.416-4.835-4.2-11.2-9.44-14.108a10,10,0,0,0-5.66-1.391.3.3,0,0,1-.32-.3.332.332,0,0,1,.252-.377,10.345,10.345,0,0,1,5.973,1.451c2.99,1.657,7.107,5.516,9.74,14.5a.392.392,0,0,1-.012.26.309.309,0,0,1-.165.173A.261.261,0,0,1,2085.34,1105.028Z" transform="translate(-1873.876 -1079.113)" fill="url(#al)"/><g transform="translate(87.957 11.502)"><path d="M1644.392,1166.378a8.393,8.393,0,0,0,6.521-3.054,11.691,11.691,0,0,0,2.716-7.62V1108.2c0-6.24-4.26-11.319-9.558-11.388-15.905-.2-48.71-.214-75.549,2.451-3.658.367-6.509,3.89-6.645,8.211l-2.51,45.93a12.034,12.034,0,0,0,2.522,7.866,8.666,8.666,0,0,0,6.531,3.4Z" transform="translate(-1559.362 -1096.728)" fill="url(#am)"/><path d="M1889.391,1152.678c.068,4.041-.034,10.45-.118,14.6a3.95,3.95,0,0,1-1.069,2.677,2.805,2.805,0,0,1-2.4.871l-13.1-1.807a3.038,3.038,0,0,1-2.108-1.412,4.156,4.156,0,0,1-.6-2.766l1.608-12.623a3.319,3.319,0,0,1,3.072-3.118h11.6A3.4,3.4,0,0,1,1889.391,1152.678Z" transform="translate(-1804.336 -1136.069)" fill="#fff"/><path d="M1749.064,1137.823l-10.919,1.386a2.247,2.247,0,0,1-1.974-.8,3.2,3.2,0,0,1-.745-2.3l2.387-38.253c4.578-.169,9.085-.3,13.448-.383v37.452A2.77,2.77,0,0,1,1749.064,1137.823Z" transform="translate(-1698.222 -1097.293)" fill="#fff" opacity="0.37"/><path d="M1770.656,1131.59a1.193,1.193,0,0,1-1.094,1.219h-.066a1.238,1.238,0,0,1-1.033-1.366l1.648-33.384,2.2-.06Z" transform="translate(-1724.284 -1097.684)" fill="#fff"/><g transform="translate(70.598 16.849)"><path d="M1931.923,1177.553a.4.4,0,0,0,.365-.406l.566-10.515a.415.415,0,0,0-.342-.458.323.323,0,0,0-.268.1.454.454,0,0,0-.121.3l-.566,10.517a.476.476,0,0,0,.09.312.344.344,0,0,0,.252.144Z" transform="translate(-1923.518 -1165.743)" fill="url(#an)"/><path d="M1926.405,1176.945a.4.4,0,0,0,.365-.418l.3-10.717a.477.477,0,0,0-.1-.31.344.344,0,0,0-.256-.136.318.318,0,0,0-.268.11.449.449,0,0,0-.11.308l-.3,10.717a.41.41,0,0,0,.353.445Z" transform="translate(-1919.167 -1165.135)" fill="url(#ao)"/><path d="M1918.987,1177.031a.346.346,0,0,1-.254-.14.478.478,0,0,1-.095-.31c.146-3.6.423-10.465.423-10.7a.368.368,0,1,1,.733,0c0,.179-.357,8.975-.423,10.737a.4.4,0,0,1-.365.413Zm.072-11.147Z" transform="translate(-1913.329 -1165.224)" fill="url(#ap)"/><path d="M1906.057,1176.72a.8.8,0,0,0,.731-.831c.311-10.383.256-10.62.211-10.774a.734.734,0,0,0-.85-.607.858.858,0,0,0-.583.948c.023.625-.139,6.666-.25,10.371a.818.818,0,0,0,.706.893Z" transform="translate(-1902.823 -1164.479)" fill="url(#aq)"/><path d="M1899.946,1177.558a.339.339,0,0,0,.259-.127.473.473,0,0,0,.106-.306v-10.515a.37.37,0,1,0-.731,0v10.515a.473.473,0,0,0,.106.306.341.341,0,0,0,.26.127Z" transform="translate(-1898.298 -1165.749)" fill="url(#ar)"/><path d="M1893.877,1177.485a.4.4,0,0,0,.366-.423c.07-3.653.234-9.622.38-10.338a.5.5,0,0,0-.013-.448.37.37,0,0,0-.232-.185.321.321,0,0,0-.275.063c-.211.152-.391.3-.594,10.888a.41.41,0,0,0,.359.443Z" transform="translate(-1893.51 -1165.675)" fill="url(#as)"/><path d="M1939.877,1177.211a.8.8,0,0,0,.731-.816l.488-11.043a.821.821,0,0,0-.693-.906.789.789,0,0,0-.769.816l-.488,11.043a.823.823,0,0,0,.693.906Z" transform="translate(-1929.504 -1164.445)" fill="url(#at)"/></g></g><path d="M1245.733,1167.927h-4.061a1.088,1.088,0,0,1-1.009-.64,1.519,1.519,0,0,1,0-1.349,1.088,1.088,0,0,1,1.009-.64h4.133a1.343,1.343,0,0,1,0,2.63Zm-9.136,0h-4.061a1.087,1.087,0,0,1-1.008-.64,1.519,1.519,0,0,1,0-1.349,1.087,1.087,0,0,1,1.008-.64h4.061a1.343,1.343,0,0,1,0,2.63Zm-9.136,0H1223.4a1.088,1.088,0,0,1-1.009-.64,1.519,1.519,0,0,1,0-1.349,1.088,1.088,0,0,1,1.009-.64h4.061a1.343,1.343,0,0,1,0,2.63Zm-9.135,0h-4.061a1.088,1.088,0,0,1-1.009-.64,1.519,1.519,0,0,1,0-1.349,1.088,1.088,0,0,1,1.009-.64h4.061a1.343,1.343,0,0,1,0,2.63Zm-9.136,0h-4.061a1.088,1.088,0,0,1-1.009-.64,1.52,1.52,0,0,1,0-1.349,1.088,1.088,0,0,1,1.009-.64h4.061a1.343,1.343,0,0,1,0,2.63Zm-9.138,0h-4.058a1.088,1.088,0,0,1-1.009-.64,1.519,1.519,0,0,1,0-1.349,1.087,1.087,0,0,1,1.009-.64h4.058a1.088,1.088,0,0,1,1.009.64,1.519,1.519,0,0,1,0,1.349A1.088,1.088,0,0,1,1200.052,1167.927Zm-9.136,0h-4.059a1.088,1.088,0,0,1-1.009-.64,1.519,1.519,0,0,1,0-1.349,1.088,1.088,0,0,1,1.009-.64h4.059a1.088,1.088,0,0,1,1.009.64,1.519,1.519,0,0,1,0,1.349A1.088,1.088,0,0,1,1190.917,1167.927Zm-8.92-1.381a.991.991,0,0,1-.577-.192,10.367,10.367,0,0,1-3.207-3.824,1.519,1.519,0,0,1-.034-1.339,1.044,1.044,0,0,1,1.958,0,7.889,7.889,0,0,0,2.44,2.909,1.43,1.43,0,0,1,.5,1.479,1.163,1.163,0,0,1-1.075.962Zm68.549-.463a1.148,1.148,0,0,1-1.063-.906,1.451,1.451,0,0,1,.4-1.47,8.2,8.2,0,0,0,2.22-3.145,1.044,1.044,0,0,1,1.474-.58,1.423,1.423,0,0,1,.542,1.715,10.8,10.8,0,0,1-2.92,4.135A1.008,1.008,0,0,1,1250.545,1166.083Zm-72.5-8.641a1.038,1.038,0,0,1-.79-.386,1.442,1.442,0,0,1-.326-.931v-4.792a1.125,1.125,0,1,1,2.233,0v4.782a1.445,1.445,0,0,1-.324.937,1.041,1.041,0,0,1-.793.389Zm75.863-.833a1.229,1.229,0,0,1-1.118-1.316v-4.78a1.387,1.387,0,0,1,.544-1.188.975.975,0,0,1,1.146,0,1.387,1.387,0,0,1,.544,1.188v4.78a1.441,1.441,0,0,1-.326.931A1.039,1.039,0,0,1,1253.909,1156.608Zm-75.863-9.925a1.038,1.038,0,0,1-.79-.386,1.442,1.442,0,0,1-.326-.931v-4.782a1.125,1.125,0,1,1,2.233,0v4.777a1.445,1.445,0,0,1-.326.934,1.04,1.04,0,0,1-.792.387Zm75.863-.834a1.229,1.229,0,0,1-1.118-1.316v-4.782a1.125,1.125,0,1,1,2.233,0v4.782a1.443,1.443,0,0,1-.323.937,1.039,1.039,0,0,1-.793.389Zm-75.863-9.925a1.038,1.038,0,0,1-.79-.386,1.442,1.442,0,0,1-.326-.931v-4.782a1.125,1.125,0,1,1,2.233,0v4.782A1.229,1.229,0,0,1,1178.046,1135.923Zm75.863-.833a1.229,1.229,0,0,1-1.118-1.316v-4.782a1.125,1.125,0,1,1,2.233,0v4.782a1.441,1.441,0,0,1-.326.931A1.038,1.038,0,0,1,1253.909,1135.09Zm-75.863-9.925a1.038,1.038,0,0,1-.79-.386,1.442,1.442,0,0,1-.326-.931v-4.782a1.125,1.125,0,1,1,2.233,0v4.782A1.229,1.229,0,0,1,1178.046,1125.165Zm75.863-.834a1.229,1.229,0,0,1-1.118-1.316v-4.775a1.125,1.125,0,1,1,2.233,0v4.782A1.226,1.226,0,0,1,1253.909,1124.331Zm-75.863-9.925a1.038,1.038,0,0,1-.79-.386,1.442,1.442,0,0,1-.326-.931v-1.05a12.572,12.572,0,0,1,.687-4.135,1.066,1.066,0,0,1,1.456-.719,1.4,1.4,0,0,1,.611,1.714,9.589,9.589,0,0,0-.52,3.14v1.05A1.229,1.229,0,0,1,1178.046,1114.406Zm75.863-.833a1.228,1.228,0,0,1-1.115-1.3v-.216a9.429,9.429,0,0,0-.775-3.795,1.435,1.435,0,0,1,.483-1.77,1.042,1.042,0,0,1,1.5.569,12.583,12.583,0,0,1,1.023,5v.216A1.225,1.225,0,0,1,1253.909,1113.572Zm-72.046-8.363a1.157,1.157,0,0,1-1.075-.948,1.431,1.431,0,0,1,.478-1.479,8.372,8.372,0,0,1,4.344-1.665,1.206,1.206,0,0,1,1.149,1.228,1.271,1.271,0,0,1-1,1.4,6.365,6.365,0,0,0-3.3,1.261.978.978,0,0,1-.6.2Zm67.622-.413a.985.985,0,0,1-.511-.147,6.129,6.129,0,0,0-3.237-.923h-.165a1.343,1.343,0,0,1,0-2.63h.165a8.211,8.211,0,0,1,4.264,1.217,1.406,1.406,0,0,1,.577,1.484,1.17,1.17,0,0,1-1.093,1Zm-8.988-1.07h-4.061a1.343,1.343,0,0,1,0-2.63h4.061a1.088,1.088,0,0,1,1.008.64,1.519,1.519,0,0,1,0,1.349,1.087,1.087,0,0,1-1.008.641Zm-9.136,0H1227.3a1.343,1.343,0,0,1,0-2.63h4.061a1.088,1.088,0,0,1,1.008.64,1.52,1.52,0,0,1,0,1.349,1.088,1.088,0,0,1-1.008.641Zm-9.135,0h-4.061a1.343,1.343,0,0,1,0-2.63h4.061a1.343,1.343,0,0,1,0,2.63Zm-9.136,0h-4.061a1.343,1.343,0,0,1,0-2.63h4.061a1.343,1.343,0,0,1,0,2.63Zm-9.136,0h-4.065a1.343,1.343,0,0,1,0-2.63h4.061a1.343,1.343,0,0,1,0,2.63Zm-9.136,0h-4.061a1.343,1.343,0,0,1,0-2.63h4.061a1.343,1.343,0,0,1,0,2.63Z" transform="translate(-1169.772 -1088.506)" fill="#bdd0fb"/></g><g transform="translate(190.327 138.474)"><g transform="translate(0 33.04)"><path d="M1108.753,865.2a.418.418,0,0,0,.423.289l5.145-.6a24.485,24.485,0,0,0,5.354,5.84l-.114,6.084a.5.5,0,0,0,.277.48l5.817,2.533a.384.384,0,0,0,.478-.152l3.273-4.71a19.185,19.185,0,0,0,7.291-.333l3.575,4.4a.378.378,0,0,0,.484.11l5.635-3.056a.517.517,0,0,0,.245-.5l-.513-6.059a25.407,25.407,0,0,0,4.959-6.305l5.166.134a.43.43,0,0,0,.408-.326l2.151-6.852a.556.556,0,0,0-.129-.56l-4-3.854a31.223,31.223,0,0,0-.285-8.587l3.735-4.21a.563.563,0,0,0,.093-.57l-2.586-6.631a.418.418,0,0,0-.423-.289l-5.145.6a24.442,24.442,0,0,0-5.354-5.84l.114-6.084a.5.5,0,0,0-.277-.48l-5.817-2.533a.384.384,0,0,0-.478.152L1134.984,822a19.185,19.185,0,0,0-7.291.336l-3.581-4.409a.378.378,0,0,0-.484-.11l-5.635,3.053a.517.517,0,0,0-.245.5l.514,6.059a25.371,25.371,0,0,0-4.959,6.325l-5.166-.134a.43.43,0,0,0-.408.326l-2.151,6.85a.555.555,0,0,0,.129.562l4,3.842a31.147,31.147,0,0,0,.283,8.587l-3.736,4.21a.563.563,0,0,0-.093.57Z" transform="translate(-1105.55 -817.111)" fill="url(#au)"/><path d="M1203.866,926.363c-3.631-1.11-5.865-5.4-5.057-9.717s4.369-7.1,8.059-6.308,6.186,4.881,5.649,9.253-3.914,7.46-7.644,6.989A6.243,6.243,0,0,1,1203.866,926.363Zm2.772-12.555a3.642,3.642,0,0,0-.589-.125c-2.135-.258-4.06,1.518-4.359,4.021s1.136,4.836,3.248,5.281,4.146-1.155,4.6-3.624S1208.716,914.439,1206.638,913.808Z" transform="translate(-1178.975 -887.04)" fill="url(#av)"/><path d="M1170.666,906.08a13.5,13.5,0,0,1-1.5-.552l-.237-.1a14.943,14.943,0,0,1-2.713-1.615.63.63,0,0,1-.211-.632.605.605,0,0,1,.063-.167.5.5,0,0,1,.307-.254.427.427,0,0,1,.369.077,13.755,13.755,0,0,0,2.764,1.61h0c7.3,3.175,15.425-1.014,18.4-9.485.068-.194.133-.388.194-.587,2.773-8.83-1.058-18.635-8.556-21.9s-15.824,1.247-18.6,10.078c-.168.545-.316,1.1-.438,1.655a19.989,19.989,0,0,0-.211,7.392.667.667,0,0,1,0,.249.509.509,0,0,1-.491.435.523.523,0,0,1-.466-.472,21.31,21.31,0,0,1,.226-7.9c.131-.595.287-1.184.469-1.764,2.914-8.986,11.261-13.752,19.056-10.88s12.347,12.391,10.392,21.73c-.131.592-.287,1.184-.471,1.769C1186.257,903.511,1178.339,908.393,1170.666,906.08Z" transform="translate(-1147.768 -857.164)" fill="url(#aw)"/></g><g transform="translate(45.773 87.188)"><path d="M1336.975,1066.918a.213.213,0,0,0,.211-.159l.926-2.847a10.3,10.3,0,0,0,3.418-1.51l2.286,1.423a.188.188,0,0,0,.245-.04l2.267-2.488a.281.281,0,0,0,.048-.286l-1.056-2.779a14.58,14.58,0,0,0,1.507-3.916l2.474-.9a.246.246,0,0,0,.15-.229l.1-3.655a.253.253,0,0,0-.137-.249l-2.417-1.09a14.871,14.871,0,0,0-1.282-4.026l1.208-2.692a.284.284,0,0,0-.032-.286l-2.132-2.662a.19.19,0,0,0-.241-.057l-2.362,1.244a10.535,10.535,0,0,0-3.326-1.776l-.761-2.911a.22.22,0,0,0-.2-.177l-3.1-.122a.212.212,0,0,0-.211.159l-.923,2.846a10.305,10.305,0,0,0-3.419,1.51l-2.286-1.423a.187.187,0,0,0-.245.037l-2.267,2.488a.281.281,0,0,0-.049.286l1.057,2.779a14.525,14.525,0,0,0-1.509,3.917l-2.472.9a.246.246,0,0,0-.15.229l-.1,3.655a.253.253,0,0,0,.137.249l2.417,1.09a14.71,14.71,0,0,0,1.282,4.026l-1.211,2.692a.283.283,0,0,0,.034.286l2.113,2.67a.189.189,0,0,0,.243.057l2.36-1.244a10.544,10.544,0,0,0,3.328,1.777l.761,2.911a.22.22,0,0,0,.2.177Z" transform="translate(-1322.198 -1034.728)" fill="url(#ax)"/><path d="M1376.448,1089.659a3.146,3.146,0,0,1-4.844.507,4.642,4.642,0,0,1-.607-5.682,3.17,3.17,0,0,1,4.8-.923,4.6,4.6,0,0,1,.958,5.615A4.164,4.164,0,0,1,1376.448,1089.659Zm-4.15-4.277a2.654,2.654,0,0,0-.18.284,2.611,2.611,0,0,0,.552,3.182,1.8,1.8,0,0,0,2.721-.529,2.634,2.634,0,0,0-.346-3.222A1.786,1.786,0,0,0,1372.3,1085.382Z" transform="translate(-1360.137 -1070.86)" fill="url(#ay)"/><path d="M1363.853,1077.56a8.576,8.576,0,0,1-.547.667l-.093.1a7.947,7.947,0,0,1-1.221,1.067.216.216,0,0,1-.287-.03.241.241,0,0,1-.049-.07.319.319,0,0,1,.084-.4,7.541,7.541,0,0,0,1.229-1.095h0a9.649,9.649,0,0,0,.522-11.824c-.059-.077-.118-.157-.18-.234a7.314,7.314,0,0,0-.53-.6,6.482,6.482,0,0,0-9.971.5,9.659,9.659,0,0,0-.077,11.754,7.767,7.767,0,0,0,.528.6,6.969,6.969,0,0,0,2.761,1.771.247.247,0,0,1,.095.06.329.329,0,0,1,.052.356.234.234,0,0,1-.282.141,7.472,7.472,0,0,1-2.958-1.891c-.2-.2-.385-.418-.564-.645a10.316,10.316,0,0,1,.082-12.552,6.923,6.923,0,0,1,10.648-.539c.194.2.385.418.566.645A10.359,10.359,0,0,1,1363.853,1077.56Z" transform="translate(-1344.346 -1055.561)" fill="url(#az)"/></g><g transform="translate(36.95)"><path d="M1282.46,714.747a.269.269,0,0,0,.273.184l3.254-.383a15.469,15.469,0,0,0,3.38,3.695l-.072,3.847a.32.32,0,0,0,.176.3l3.68,1.6a.242.242,0,0,0,.3-.1l2.071-2.986a12.164,12.164,0,0,0,4.612-.211l2.261,2.782a.24.24,0,0,0,.306.067l3.564-1.931a.326.326,0,0,0,.154-.319l-.323-3.832a16.047,16.047,0,0,0,3.137-3.981l3.266.085a.275.275,0,0,0,.258-.206l1.36-4.332a.356.356,0,0,0-.082-.356l-2.535-2.438a19.68,19.68,0,0,0-.18-5.432l2.364-2.662a.355.355,0,0,0,.057-.361l-1.639-4.2a.265.265,0,0,0-.271-.184l-3.254.383a15.428,15.428,0,0,0-3.38-3.7l.072-3.847a.317.317,0,0,0-.175-.3l-3.678-1.6a.246.246,0,0,0-.3.1l-2.071,2.986a12.163,12.163,0,0,0-4.612.211l-2.252-2.789a.24.24,0,0,0-.306-.067l-3.564,1.931a.329.329,0,0,0-.154.319l.323,3.832a16.037,16.037,0,0,0-3.135,3.981l-3.268-.085a.271.271,0,0,0-.258.206l-1.359,4.332a.356.356,0,0,0,.08.356l2.535,2.438a19.756,19.756,0,0,0,.18,5.432l-2.362,2.662a.36.36,0,0,0-.059.361Z" transform="translate(-1280.44 -684.322)" fill="url(#ba)"/><path d="M1342.58,753.423c-2.3-.7-3.714-3.425-3.2-6.157s2.77-4.5,5.108-3.991,3.916,3.1,3.573,5.865-2.484,4.722-4.847,4.419a4.185,4.185,0,0,1-.634-.137Zm1.754-7.942a2.419,2.419,0,0,0-.374-.08,2.656,2.656,0,0,0-2.773,2.549,2.968,2.968,0,0,0,2.059,3.359,2.58,2.58,0,0,0,2.927-2.3A3.048,3.048,0,0,0,1344.334,745.481Z" transform="translate(-1326.844 -728.542)" fill="url(#bb)"/><path d="M1321.6,740.276a8.8,8.8,0,0,1-.949-.348l-.15-.067a9.353,9.353,0,0,1-1.716-1.023.393.393,0,0,1-.133-.4.31.31,0,0,1,.038-.1.284.284,0,0,1,.423-.115,8.612,8.612,0,0,0,1.747,1.02h0c4.619,2.008,9.759-.644,11.637-6,.042-.122.084-.249.123-.371q.163-.515.279-1.048c1.216-5.559-1.479-11.266-6.132-12.98s-9.629,1.166-11.32,6.55q-.161.515-.279,1.045a12.663,12.663,0,0,0-.135,4.678.4.4,0,0,1,0,.159.322.322,0,0,1-.312.275.332.332,0,0,1-.295-.3,13.452,13.452,0,0,1,.146-4.994c.082-.376.182-.747.3-1.117,1.827-5.821,7.243-8.889,12.245-6.937s7.79,8.223,6.3,14.177S1326.7,741.824,1321.6,740.276Z" transform="translate(-1307.116 -709.328)" fill="url(#bc)"/></g></g><g transform="translate(0 239.143)"><rect width="119.004" height="12.859" transform="translate(5.675 79.204)" fill="url(#bd)"/><rect width="3.495" height="15.944" transform="translate(3.055 79.204)" fill="url(#be)"/><path d="M328.079,1094.541a5.831,5.831,0,0,0-5.73-5.631h-112.3a5.5,5.5,0,0,0-5.343,5.631v69.7a5.543,5.543,0,0,0,5.343,5.676h112.3a5.874,5.874,0,0,0,5.73-5.676Z" transform="translate(-204.71 -1088.91)" fill="url(#bf)"/><path d="M335.548,1107.446a4.909,4.909,0,0,0-4.859-5.1H224.752c-2.81,0-5.582,2.292-5.582,5.1v63.71a5.911,5.911,0,0,0,5.582,5.511H330.689c2.812,0,4.859-2.707,4.859-5.511Z" transform="translate(-216.115 -1099.006)" fill="url(#bg)"/><path d="M830.081,1231.5l-7.378-26.8a1.372,1.372,0,0,0-1.318-1.072H791.73v63.519h40.1Z" transform="translate(-667.706 -1175.083)" fill="url(#bh)"/><path d="M861.343,1418.394a2.217,2.217,0,0,0-1.435-.46l-30.9.7-.137,10.341,30.874.893c1.13,0,2.113-.642,2.113-1.543v-8.761A1.375,1.375,0,0,0,861.343,1418.394Z" transform="translate(-696.999 -1336.065)" fill="url(#bi)"/><g transform="translate(131.991 32.239)"><path d="M854.066,1241.282l-4.458-20.831a1.546,1.546,0,0,0-1.344-1.321H830.825a1.71,1.71,0,0,0-1.386,1.814l.423,16.671a1.582,1.582,0,0,0,1.164,1.573l21.481,4.093a1.269,1.269,0,0,0,1.241-.507,1.842,1.842,0,0,0,.323-1.5Z" transform="translate(-829.439 -1218.968)" fill="url(#bj)"/><path d="M936.6,1218.48l-.226.045a1.394,1.394,0,0,0-.938.727,1.881,1.881,0,0,0-.173,1.306l4.859,21.286a1.4,1.4,0,0,0,1.593,1.182l1.536-.341Z" transform="translate(-912.868 -1218.48)" fill="url(#bk)"/></g><rect width="8.079" height="3.857" rx="1.928" transform="translate(132.323 57.86)" fill="url(#bl)"/><path d="M793.8,1128.226a1.79,1.79,0,0,0-1.4.5,2.243,2.243,0,0,0-.67,1.428v16.825h18.085S808.844,1129.52,793.8,1128.226Z" transform="translate(-667.706 -1118.438)" fill="url(#bm)"/><g transform="translate(126.891 75.273)"><g transform="translate(0 0)"><path d="M14.156-.394c7.818-.218,13.979,7.007,13.761,16.138S21.185,32.452,13.367,32.67-.612,25.663-.394,16.532,6.338-.177,14.156-.394Z" transform="matrix(0.987, -0.16, 0.16, 0.987, 0, 5.296)" fill="url(#bn)"/><path d="M11.419-.126C17.725-.2,22.782,5.762,22.712,13.18S17.474,26.667,11.168,26.736-.2,20.849-.126,13.431,5.112-.056,11.419-.126Z" transform="translate(3.563 5.363) rotate(-3.56)" fill="url(#bo)"/><path d="M870.849,1431.681a.218.218,0,0,1-.087-.02.234.234,0,0,1-.12-.14.289.289,0,0,1,.005-.2,13.114,13.114,0,0,0-2.515-13.214,8.75,8.75,0,0,0-11.43-1.481.2.2,0,0,1-.3-.1.282.282,0,0,1,.085-.349,9.137,9.137,0,0,1,11.924,1.558,13.7,13.7,0,0,1,2.626,13.786A.215.215,0,0,1,870.849,1431.681Z" transform="translate(-845.587 -1408.862)" fill="url(#bp)"/></g><ellipse cx="5.233" cy="6.163" rx="5.233" ry="6.163" transform="translate(10.442 11.767)" fill="url(#bq)"/></g><g transform="translate(40.275 74.748)"><g transform="translate(0 0)"><path d="M14.089-.3c7.781-.167,13.954,7.09,13.786,16.209S21.265,32.553,13.484,32.72-.47,25.631-.3,16.512,6.308-.136,14.089-.3Z" transform="translate(0 4.045) rotate(-7.02)" fill="url(#br)"/><path d="M11.421-.144C17.729-.223,22.778,5.725,22.7,13.141S17.442,26.634,11.134,26.713-.223,20.845-.144,13.428,5.113-.064,11.421-.144Z" transform="translate(3.491 5.992) rotate(-4.07)" fill="url(#bs)"/><path d="M460.806,1431.681a.218.218,0,0,1-.087-.02.233.233,0,0,1-.121-.139.289.289,0,0,1,0-.2,13.443,13.443,0,0,0-.871-10.964,9.6,9.6,0,0,0-8.237-5.21,8.77,8.77,0,0,0-4.824,1.477.184.184,0,0,1-.166.028.221.221,0,0,1-.131-.124.287.287,0,0,1-.024-.2.245.245,0,0,1,.106-.154,9.137,9.137,0,0,1,11.924,1.558,13.7,13.7,0,0,1,2.627,13.786A.214.214,0,0,1,460.806,1431.681Z" transform="translate(-435.566 -1408.337)" fill="url(#bt)"/></g><ellipse cx="5.233" cy="6.163" rx="5.233" ry="6.163" transform="translate(10.421 12.292)" fill="url(#bu)"/></g><g transform="translate(8.614 75.347)"><g transform="translate(0 0)"><path d="M14.069-.205c7.77-.113,13.977,7.2,13.864,16.327s-6.5,16.624-14.274,16.737S-.319,25.662-.205,16.532,6.3-.092,14.069-.205Z" transform="translate(0 2.729) rotate(-4.73)" fill="url(#bv)"/><path d="M11.419-.126C17.725-.2,22.782,5.762,22.712,13.18S17.474,26.667,11.168,26.736-.2,20.849-.126,13.431,5.112-.056,11.419-.126Z" transform="translate(3.059 5.281) rotate(-3.56)" fill="url(#bw)"/><path d="M308.638,1431.681a.218.218,0,0,1-.087-.02.234.234,0,0,1-.12-.14.289.289,0,0,1,.005-.2,13.114,13.114,0,0,0-2.515-13.214,8.75,8.75,0,0,0-11.43-1.481.2.2,0,0,1-.3-.1.282.282,0,0,1,.085-.349,9.137,9.137,0,0,1,11.924,1.558,13.7,13.7,0,0,1,2.627,13.786A.215.215,0,0,1,308.638,1431.681Z" transform="translate(-283.883 -1408.937)" fill="url(#bx)"/></g><ellipse cx="5.233" cy="6.163" rx="5.233" ry="6.163" transform="translate(9.936 11.692)" fill="url(#by)"/></g><g transform="translate(157.871 72.518)"><rect width="6.332" height="9" rx="3.166" transform="translate(0)" fill="url(#bz)"/><path d="M954.823,1380.36v8.487H953.69a2.076,2.076,0,0,1-1.69-1.916v-5.375c0-.9.934-1.2,1.69-1.2Z" transform="translate(-951.985 -1380.36)" fill="#fff" opacity="0.8"/></g><path d="M802.311,1256.412a.232.232,0,0,1-.211-.249v-37.811a.222.222,0,1,1,.437,0v37.8a.273.273,0,0,1-.065.187A.193.193,0,0,1,802.311,1256.412Z" transform="translate(-675.885 -1185.951)" fill="url(#ca)"/><path d="M811.893,1154.533a.216.216,0,0,1-.211-.174c-1.206-4.118-3.581-9.547-8.043-12.016a8.512,8.512,0,0,0-4.828-1.187.223.223,0,0,1-.237-.219.245.245,0,0,1,.186-.279,8.852,8.852,0,0,1,5.071,1.244c4.6,2.545,7.036,8.1,8.269,12.312a.289.289,0,0,1-.007.2.225.225,0,0,1-.128.129A.179.179,0,0,1,811.893,1154.533Z" transform="translate(-673.103 -1127.765)" fill="#fff"/><g transform="translate(4.928 34.609)"><path d="M279.242,1268.541c3.055.067,5.563-2.737,5.563-6.221v-27.644c0-3.633-2.565-6.589-5.757-6.628-9.577-.119-29.334-.124-45.5,1.426-2.171.172-3.89,2.228-4,4.787l-1.511,26.733c-.112,3.536,2.345,6.492,5.453,6.559Z" transform="translate(-228.033 -1228.002)" fill="url(#cb)"/><path d="M426.821,1260.561c.04,2.354-.021,6.086-.072,8.5a2.339,2.339,0,0,1-.659,1.573,1.664,1.664,0,0,1-1.429.493l-7.885-1.052a1.767,1.767,0,0,1-1.258-.805,2.43,2.43,0,0,1-.375-1.628l.968-7.345a1.965,1.965,0,0,1,1.853-1.816h6.985A2,2,0,0,1,426.821,1260.561Z" transform="translate(-375.598 -1250.895)" fill="#fff"/><path d="M342.334,1251.921l-6.575.808a1.326,1.326,0,0,1-1.176-.45,1.887,1.887,0,0,1-.461-1.352l1.437-22.267c2.757-.1,5.476-.172,8.1-.221v21.8A1.619,1.619,0,0,1,342.334,1251.921Z" transform="translate(-311.706 -1228.331)" fill="#fff" opacity="0.37"/><path d="M355.313,1248.3a.708.708,0,0,1-.659.712h-.04a.725.725,0,0,1-.615-.786l.991-19.433,1.327-.035Z" transform="translate(-327.385 -1228.571)" fill="#fff"/><g transform="translate(42.517 9.794)"><path d="M452.353,1275.007a.23.23,0,0,0,.211-.234l.34-6.121a.277.277,0,0,0-.056-.187.2.2,0,0,0-.155-.079.19.19,0,0,0-.159.058.267.267,0,0,0-.074.175l-.342,6.121a.276.276,0,0,0,.056.187.2.2,0,0,0,.155.079Z" transform="translate(-447.29 -1268.131)" fill="url(#cc)"/><path d="M449.088,1274.664a.2.2,0,0,0,.156-.068.272.272,0,0,0,.066-.18l.177-6.238a.232.232,0,0,0-.211-.249.193.193,0,0,0-.159.066.271.271,0,0,0-.067.182l-.18,6.238a.232.232,0,0,0,.211.249Z" transform="translate(-444.729 -1267.787)" fill="url(#cd)"/><path d="M444.611,1274.718a.232.232,0,0,1-.211-.249c.087-2.1.254-6.094.256-6.22a.214.214,0,1,1,.423,0c0,.1-.211,5.225-.258,6.25a.232.232,0,0,1-.211.249Zm.042-6.489Z" transform="translate(-441.203 -1267.842)" fill="url(#ce)"/><path d="M436.841,1274.5a.389.389,0,0,0,.31-.139.543.543,0,0,0,.13-.359c.188-6.044.154-6.178.133-6.27a.436.436,0,0,0-.541-.351.5.5,0,0,0-.321.55c.013.363-.085,3.879-.152,6.036a.48.48,0,0,0,.423.52Z" transform="translate(-434.893 -1267.363)" fill="url(#cf)"/><path d="M433.14,1274.985a.232.232,0,0,0,.211-.249v-6.121a.224.224,0,1,0-.442,0v6.121a.271.271,0,0,0,.068.184A.193.193,0,0,0,433.14,1274.985Z" transform="translate(-432.141 -1268.108)" fill="url(#cg)"/><path d="M429.492,1274.984a.233.233,0,0,0,.211-.249c.042-2.127.142-5.6.228-6.019a.288.288,0,0,0,0-.249.2.2,0,0,0-.3-.072c-.12.09-.235.174-.357,6.34a.233.233,0,0,0,.211.249Z" transform="translate(-429.27 -1268.107)" fill="url(#ch)"/><path d="M457.175,1274.847a.468.468,0,0,0,.439-.475l.3-6.427a.565.565,0,0,0-.118-.368.408.408,0,0,0-.3-.16.471.471,0,0,0-.463.475l-.3,6.427a.564.564,0,0,0,.118.367.406.406,0,0,0,.3.16Z" transform="translate(-450.927 -1267.404)" fill="url(#ci)"/></g></g><g transform="translate(62.382 37.593)"><path d="M549.878,1279.952c2.979.064,5.424-2.695,5.424-6.124v-27.253c0-3.58-2.5-6.494-5.612-6.534-9.334-.117-28.584-.122-44.337,1.406-2.129.184-3.8,2.216-3.9,4.728l-1.479,26.347c-.11,3.484,2.284,6.395,5.312,6.469Z" transform="translate(-499.973 -1239.996)" fill="url(#cj)"/><path d="M693.713,1272.115c.038,2.319-.021,6-.07,8.375a2.292,2.292,0,0,1-.638,1.546,1.63,1.63,0,0,1-1.4.49l-7.68-1.028a1.744,1.744,0,0,1-1.23-.8,2.394,2.394,0,0,1-.363-1.6l.942-7.241a1.929,1.929,0,0,1,1.8-1.789h6.807A1.965,1.965,0,0,1,693.713,1272.115Z" transform="translate(-643.791 -1262.587)" fill="#fff"/><path d="M611.353,1263.572l-6.408.8a1.3,1.3,0,0,1-1.15-.448,1.849,1.849,0,0,1-.445-1.327l1.4-21.943c2.685-.1,5.335-.172,7.891-.222v21.491A1.592,1.592,0,0,1,611.353,1263.572Z" transform="translate(-581.506 -1240.322)" fill="#fff" opacity="0.37"/><path d="M624.035,1259.958a.688.688,0,0,1-.634.7h-.038a.6.6,0,0,1-.442-.243.831.831,0,0,1-.164-.541l.966-19.159,1.293-.035Z" transform="translate(-596.815 -1240.51)" fill="#fff"/><g transform="translate(41.444 9.665)"><path d="M718.643,1286.361a.229.229,0,0,0,.211-.231l.33-6.031a.239.239,0,0,0-.2-.265.227.227,0,0,0-.225.233l-.332,6.029a.233.233,0,0,0,.211.249Z" transform="translate(-713.719 -1279.586)" fill="url(#ck)"/><path d="M715.419,1286.006a.232.232,0,0,0,.211-.249l.175-6.148a.214.214,0,1,0-.423,0l-.173,6.148a.232.232,0,0,0,.211.249Z" transform="translate(-711.179 -1279.231)" fill="url(#cl)"/><path d="M711.031,1286.036a.232.232,0,0,1-.211-.249c.084-2.065.247-6,.249-6.138a.214.214,0,1,1,.423,0c0,.1-.211,5.148-.251,6.161a.229.229,0,0,1-.211.234Zm.04-6.394Z" transform="translate(-707.716 -1279.261)" fill="url(#cm)"/><path d="M703.454,1285.864a.461.461,0,0,0,.423-.478c.182-5.957.15-6.091.129-6.181a.493.493,0,0,0-.2-.3.366.366,0,0,0-.325-.043.5.5,0,0,0-.313.542c.013.358-.082,3.824-.148,5.949a.549.549,0,0,0,.119.362.393.393,0,0,0,.3.151Z" transform="translate(-701.564 -1278.839)" fill="url(#cn)"/><path d="M699.891,1286.359a.232.232,0,0,0,.211-.249v-6.031a.214.214,0,1,0-.423,0v6.031A.232.232,0,0,0,699.891,1286.359Z" transform="translate(-698.93 -1279.583)" fill="url(#co)"/><path d="M696.339,1286.319a.232.232,0,0,0,.211-.249c.042-2.1.137-5.519.224-5.932a.287.287,0,0,0,0-.249.214.214,0,0,0-.135-.108.187.187,0,0,0-.16.038c-.118.087-.23.172-.349,6.248a.232.232,0,0,0,.211.249Z" transform="translate(-696.13 -1279.543)" fill="url(#cp)"/><path d="M723.284,1286.169a.459.459,0,0,0,.422-.468l.287-6.335a.552.552,0,0,0-.112-.36.4.4,0,0,0-.3-.16.384.384,0,0,0-.308.123.535.535,0,0,0-.142.344l-.287,6.335a.553.553,0,0,0,.112.36.4.4,0,0,0,.3.16Z" transform="translate(-717.203 -1278.844)" fill="url(#cq)"/></g></g><g transform="translate(7.403 4.482)"><path d="M279.612,1131.863v-20.09c0-2.639-1.8-4.789-4.042-4.817a316.628,316.628,0,0,0-31.954,1.035,3.419,3.419,0,0,0-2.81,3.484l-1.056,19.425a5.091,5.091,0,0,0,1.066,3.327,3.667,3.667,0,0,0,2.762,1.438l32.131.719a3.551,3.551,0,0,0,2.757-1.3A4.947,4.947,0,0,0,279.612,1131.863Z" transform="translate(-239.748 -1106.922)" fill="url(#cr)"/><path d="M379.337,1130.56c.03,1.709-.015,4.422-.049,6.175a1.671,1.671,0,0,1-.456,1.127,1.189,1.189,0,0,1-1.013.366l-5.535-.764a1.287,1.287,0,0,1-.891-.6,1.761,1.761,0,0,1-.257-1.169l.68-5.34a1.4,1.4,0,0,1,1.3-1.319h4.906A1.438,1.438,0,0,1,379.337,1130.56Z" transform="translate(-343.366 -1123.537)" fill="#fff"/><path d="M319.977,1124.317l-4.619.587a.949.949,0,0,1-.835-.337,1.351,1.351,0,0,1-.314-.972l1.008-16.173c1.937-.072,3.845-.124,5.688-.162V1123.1A1.169,1.169,0,0,1,319.977,1124.317Z" transform="translate(-298.475 -1107.176)" fill="#fff" opacity="0.37"/><path d="M329.094,1121.655a.508.508,0,0,1-.465.518H328.6a.439.439,0,0,1-.321-.182.607.607,0,0,1-.117-.4l.7-14.12.932-.025Z" transform="translate(-309.485 -1107.318)" fill="#fff"/><g transform="translate(29.862 7.146)"><path d="M397.293,1141.107a.167.167,0,0,0,.156-.169l.239-4.449a.2.2,0,0,0-.039-.132.146.146,0,0,0-.107-.06.134.134,0,0,0-.113.043.189.189,0,0,0-.05.127l-.241,4.449a.2.2,0,0,0,.039.132.147.147,0,0,0,.107.06Z" transform="translate(-393.748 -1136.133)" fill="url(#cs)"/><path d="M394.964,1140.845a.168.168,0,0,0,.154-.174l.127-4.533a.174.174,0,0,0-.15-.189.135.135,0,0,0-.114.046.19.19,0,0,0-.047.13l-.125,4.533a.171.171,0,0,0,.15.187Z" transform="translate(-391.911 -1135.871)" fill="url(#ct)"/><path d="M391.827,1140.9a.145.145,0,0,1-.107-.058.2.2,0,0,1-.041-.131c.061-1.523.177-4.427.18-4.526a.155.155,0,1,1,.311,0c0,.075-.15,3.794-.182,4.541a.168.168,0,0,1-.154.172Zm.03-4.713Z" transform="translate(-389.442 -1135.93)" fill="url(#cu)"/><path d="M386.378,1140.8a.337.337,0,0,0,.311-.341c.131-4.392.108-4.479.093-4.556a.31.31,0,0,0-.359-.254.363.363,0,0,0-.247.4c.011.264-.059,2.819-.106,4.387a.4.4,0,0,0,.082.262.291.291,0,0,0,.216.116Z" transform="translate(-385.017 -1135.64)" fill="url(#cv)"/><path d="M383.774,1141.087a.141.141,0,0,0,.11-.052.2.2,0,0,0,.045-.129v-4.454a.156.156,0,1,0-.308,0v4.446a.2.2,0,0,0,.043.133A.144.144,0,0,0,383.774,1141.087Z" transform="translate(-383.085 -1136.113)" fill="url(#cw)"/><path d="M381.238,1141.063a.169.169,0,0,0,.154-.177c.03-1.545.1-4.071.161-4.374a.206.206,0,0,0-.024-.221.137.137,0,0,0-.188-.028c-.085.067-.165.127-.251,4.606a.2.2,0,0,0,.043.131.144.144,0,0,0,.109.056Z" transform="translate(-381.09 -1136.089)" fill="url(#cx)"/><path d="M400.659,1141.027a.338.338,0,0,0,.308-.346l.211-4.671a.344.344,0,0,0-.295-.36.331.331,0,0,0-.324.323l-.211,4.67a.349.349,0,0,0,.294.383Z" transform="translate(-396.279 -1135.647)" fill="url(#cy)"/></g></g><g transform="translate(48.019 5.081)"><path d="M465.921,1134.273v-20.092c0-2.64-1.534-4.787-3.442-4.814a229.455,229.455,0,0,0-27.191,1.035c-1.318.154-2.343,1.65-2.392,3.483l-.9,19.421c-.068,2.568,1.4,4.728,3.258,4.765l27.344.719C464.421,1138.836,465.921,1136.8,465.921,1134.273Z" transform="translate(-431.989 -1109.332)" fill="url(#cz)"/><path d="M550.8,1132.97c.025,1.709,0,4.422-.042,6.176-.015.911-.594,1.6-1.249,1.493l-4.709-.764a1.526,1.526,0,0,1-.976-1.769l.577-5.337c.082-.746.554-1.319,1.107-1.319h4.175C550.289,1131.457,550.787,1132.129,550.8,1132.97Z" transform="translate(-520.184 -1125.946)" fill="#fff"/><path d="M500.289,1126.726l-3.93.587c-.549.082-1.018-.545-.978-1.309l.858-16.173c1.648-.072,3.273-.124,4.84-.162v15.842A1.136,1.136,0,0,1,500.289,1126.726Z" transform="translate(-481.986 -1109.586)" fill="#fff" opacity="0.37"/><path d="M508.023,1124.107a.474.474,0,0,1-.4.515H507.6a.515.515,0,0,1-.372-.577l.594-14.12.792-.025Z" transform="translate(-491.33 -1109.758)" fill="#fff"/><g transform="translate(25.418 7.126)"><path d="M566.079,1143.472a.158.158,0,0,0,.131-.169l.211-4.449a.175.175,0,0,0-.123-.194.132.132,0,0,0-.1.051.184.184,0,0,0-.04.121l-.211,4.446a.172.172,0,0,0,.123.194Z" transform="translate(-563.061 -1138.488)" fill="url(#da)"/><path d="M564.1,1143.217a.162.162,0,0,0,.131-.177l.108-4.531a.167.167,0,0,0-.129-.189c-.082,0-.133.077-.135.177l-.108,4.534a.167.167,0,0,0,.129.186Z" transform="translate(-561.501 -1138.233)" fill="url(#db)"/><path d="M561.431,1143.208a.168.168,0,0,1-.125-.189c.053-1.523.152-4.429.154-4.526a.17.17,0,0,1,.058-.159.117.117,0,0,1,.147,0,.17.17,0,0,1,.058.159c0,.077-.127,3.8-.152,4.541a.161.161,0,0,1-.133.174Zm.025-4.728Z" transform="translate(-559.402 -1138.224)" fill="url(#dc)"/><path d="M556.788,1143.179a.327.327,0,0,0,.262-.353c.112-4.392.093-4.479.078-4.556a.317.317,0,0,0-.115-.208.229.229,0,0,0-.208-.041.38.38,0,0,0-.19.4c0,.264-.051,2.819-.091,4.387a.333.333,0,0,0,.254.376Z" transform="translate(-555.629 -1138.001)" fill="url(#dd)"/><path d="M554.577,1143.5a.165.165,0,0,0,.133-.182v-4.446a.168.168,0,0,0-.061-.152.117.117,0,0,0-.143,0,.168.168,0,0,0-.061.152v4.446A.166.166,0,0,0,554.577,1143.5Z" transform="translate(-553.991 -1138.511)" fill="url(#de)"/><path d="M552.422,1143.445a.16.16,0,0,0,.131-.177c.025-1.545.085-4.071.137-4.374a.245.245,0,0,0,0-.189.126.126,0,0,0-.08-.077.106.106,0,0,0-.1.025c-.072.065-.142.127-.211,4.606a.191.191,0,0,0,.031.125.138.138,0,0,0,.1.062Z" transform="translate(-552.296 -1138.461)" fill="url(#df)"/><path d="M568.947,1143.369a.321.321,0,0,0,.262-.346l.175-4.67a.34.34,0,0,0-.249-.383.32.32,0,0,0-.277.346l-.175,4.67a.343.343,0,0,0,.249.383Z" transform="translate(-565.219 -1137.97)" fill="url(#dg)"/></g></g><g transform="translate(83.302 6.32)"><path d="M632.253,1139.255v-20.092c0-2.64-1.5-4.79-3.38-4.817a220.512,220.512,0,0,0-26.657,1.035c-1.293.154-2.3,1.65-2.345,3.483l-.879,19.42c-.065,2.57,1.373,4.715,3.195,4.765l26.807.719C630.783,1143.816,632.253,1141.781,632.253,1139.255Z" transform="translate(-598.99 -1114.312)" fill="url(#dh)"/><path d="M715.415,1137.95c.025,1.709,0,4.424-.04,6.176-.015.911-.583,1.607-1.225,1.493l-4.619-.764a1.526,1.526,0,0,1-.955-1.767l.566-5.34c.08-.747.541-1.319,1.084-1.319h4.092C714.925,1136.437,715.415,1137.109,715.415,1137.95Z" transform="translate(-685.411 -1130.927)" fill="#fff"/><path d="M665.944,1131.707l-3.854.587c-.539.082-1-.545-.959-1.309l.845-16.173c1.614-.072,3.207-.125,4.745-.162v15.842A1.152,1.152,0,0,1,665.944,1131.707Z" transform="translate(-648 -1114.566)" fill="#fff" opacity="0.37"/><path d="M673.541,1129.045a.477.477,0,0,1-.387.518h-.021a.517.517,0,0,1-.366-.577l.581-14.12.777-.025Z" transform="translate(-657.178 -1114.708)" fill="#fff"/><g transform="translate(24.913 7.126)"><path d="M730.415,1148.479h0a.159.159,0,0,0,.131-.169l.2-4.449a.17.17,0,0,0-.12-.192c-.076,0-.133.07-.137.169l-.2,4.449a.194.194,0,0,0,.03.127A.141.141,0,0,0,730.415,1148.479Z" transform="translate(-727.458 -1143.491)" fill="url(#di)"/><path d="M728.516,1148.217a.16.16,0,0,0,.129-.174l.106-4.533a.171.171,0,0,0-.127-.189c-.082,0-.131.077-.133.177l-.1,4.534a.165.165,0,0,0,.125.187Z" transform="translate(-725.96 -1143.228)" fill="url(#dj)"/><path d="M725.888,1148.216a.166.166,0,0,1-.123-.189c.051-1.523.148-4.427.15-4.526a.167.167,0,0,1,.057-.156.115.115,0,0,1,.144,0,.167.167,0,0,1,.057.156c0,.075-.125,3.794-.15,4.541a.16.16,0,0,1-.129.172Zm.025-4.712Z" transform="translate(-723.893 -1143.227)" fill="url(#dk)"/><path d="M721.294,1148.161h0a.323.323,0,0,0,.258-.353c.11-4.392.091-4.479.078-4.556a.312.312,0,0,0-.112-.207.225.225,0,0,0-.205-.042.389.389,0,0,0-.188.4c0,.264-.051,2.819-.089,4.386a.336.336,0,0,0,.258.371Z" transform="translate(-720.163 -1142.983)" fill="url(#dl)"/><path d="M719.161,1148.479a.136.136,0,0,0,.1-.059.187.187,0,0,0,.032-.123v-4.446a.167.167,0,0,0-.057-.156.115.115,0,0,0-.144,0,.167.167,0,0,0-.057.156v4.446a.188.188,0,0,0,.032.123A.136.136,0,0,0,719.161,1148.479Z" transform="translate(-718.581 -1143.49)" fill="url(#dm)"/><path d="M717.034,1148.445a.16.16,0,0,0,.129-.177c.025-1.545.082-4.071.135-4.374a.244.244,0,0,0,0-.189.125.125,0,0,0-.079-.077.1.1,0,0,0-.1.025c-.07.067-.137.127-.211,4.606a.165.165,0,0,0,.127.187Z" transform="translate(-716.906 -1143.456)" fill="url(#dn)"/><path d="M733.238,1148.349h.013a.321.321,0,0,0,.26-.346l.171-4.67a.341.341,0,0,0-.245-.383.316.316,0,0,0-.27.346l-.173,4.67A.344.344,0,0,0,733.238,1148.349Z" transform="translate(-729.592 -1142.95)" fill="url(#do)"/></g></g></g></g></g></g></svg>