<?xml version="1.0" encoding="utf-8"?>
<!-- Generator: Adobe Illustrator 25.2.3, SVG Export Plug-In . SVG Version: 6.00 Build 0)  -->
<svg version="1.1" id="Capa_1" xmlns="http://www.w3.org/2000/svg" xmlns:xlink="http://www.w3.org/1999/xlink" x="0px" y="0px"
	 viewBox="0 0 408.2 408.1" style="enable-background:new 0 0 408.2 408.1;" xml:space="preserve">
<style type="text/css">
	.st0{fill:#57DBD8;}
	.st1{fill:url(#SVGID_1_);}
	.st2{fill:#FFFFFF;}
	.st3{fill:url(#SVGID_2_);}
	.st4{fill:url(#SVGID_3_);}
	.st5{fill:#1A0F91;}
	.st6{clip-path:url(#SVGID_5_);}
	.st7{fill:url(#SVGID_6_);}
	.st8{fill:url(#SVGID_7_);}
	.st9{fill:url(#SVGID_8_);}
	.st10{fill:url(#SVGID_9_);}
	.st11{fill:url(#SVGID_10_);}
	.st12{opacity:0.76;fill:#FFFFFF;enable-background:new    ;}
	.st13{fill:url(#SVGID_11_);}
	.st14{fill:url(#SVGID_12_);}
	.st15{fill:url(#SVGID_13_);}
	.st16{fill:url(#SVGID_14_);}
	.st17{fill:url(#SVGID_15_);}
	.st18{fill:url(#SVGID_16_);}
	.st19{fill:url(#SVGID_17_);}
	.st20{fill:url(#SVGID_18_);}
	.st21{fill:url(#SVGID_19_);}
	.st22{fill:url(#SVGID_20_);}
	.st23{fill:url(#SVGID_21_);}
	.st24{fill:url(#SVGID_22_);}
	.st25{fill:url(#SVGID_23_);}
	.st26{fill:url(#SVGID_24_);}
	.st27{fill:url(#SVGID_25_);}
	.st28{fill:url(#SVGID_26_);}
	.st29{fill:url(#SVGID_27_);}
	.st30{fill:url(#SVGID_28_);}
	.st31{fill:url(#SVGID_29_);}
	.st32{fill:url(#SVGID_30_);}
	.st33{fill:url(#SVGID_31_);}
	.st34{fill:url(#SVGID_32_);}
	.st35{fill:url(#SVGID_33_);}
	.st36{fill:url(#SVGID_34_);}
</style>
<g transform="translate(5951.151 9012.007)">
	<path class="st0" d="M-5682.3-8920.1c12.4-7.7,25.8-13.7,39.7-17.8c1.2-15.6,0.4-31.3-2.4-46.7c53.6,30.9,90.2,84.4,99.7,145.5
		c-10.3,11.7-22.1,22.2-34.9,31.1c-12-8.3-25.1-14.9-38.8-19.8C-5625.1-8866.6-5648.4-8900.6-5682.3-8920.1L-5682.3-8920.1z"/>
	
		<linearGradient id="SVGID_1_" gradientUnits="userSpaceOnUse" x1="-6051.3296" y1="-8412.708" x2="-6050.3296" y2="-8412.708" gradientTransform="matrix(122.9573 0 0 -159.043 738389.1875 -1346710.75)">
		<stop  offset="0" style="stop-color:#073E98"/>
		<stop  offset="0.25" style="stop-color:#0E56A2"/>
		<stop  offset="0.76" style="stop-color:#2193BB"/>
		<stop  offset="1" style="stop-color:#2AB2C8"/>
	</linearGradient>
	<path class="st1" d="M-5617.5-8808c12.8,6.9,24.7,15.5,35.3,25.5c14-6.9,27.2-15.4,39.2-25.5c0.1,46.1-15.5,90.8-44.2,126.8
		c-9.4,11.9-20.2,22.8-32,32.3c-15.4-3-30.3-7.9-44.4-14.6c1.2-14.5,0.4-29.1-2.3-43.5c7.5-6,14.4-12.9,20.4-20.5
		C-5627.4-8750.4-5617.5-8778.7-5617.5-8808z"/>
	<path class="st0" d="M-5682.3-8695.8c0.3,7.2,0,14.3-0.7,21.5c-0.4,3.6-0.9,7.2-1.5,10.9c-0.6,3.7-1.4,7.3-2.2,11
		c3.1,2.1,6.4,4.3,9.6,6.1s6.7,3.8,10.2,5.6c7.1,3.6,14.4,6.7,21.9,9.5c-26.4,15.4-56,24.5-86.5,26.7c-15.1,1.1-30.4,0.6-45.4-1.6
		c-15.1-2.2-29.9-6.1-44-11.6c-1.3-3.9-2.5-7.6-3.5-11.5s-2-7.7-2.7-11.5c-1.5-7.5-2.6-15.1-3.2-22.8c6.7-3.2,13.1-6.8,19.3-10.8
		c3-2,6-4.1,8.9-6.2c2.8-2.1,5.7-4.4,8.3-6.7c18.1,7,37.5,9.9,56.8,8.3C-5717.8-8680.3-5699-8686.1-5682.3-8695.8L-5682.3-8695.8z"
		/>
	<path class="st2" d="M-5601.2-8730.8c2.8-1.8,3.7-5.6,1.8-8.4c-1.8-2.8-5.6-3.7-8.4-1.8c-2.8,1.8-3.7,5.6-1.8,8.4
		c0.5,0.7,1.1,1.4,1.8,1.8c-4,0.4-7.1,3.7-7.1,7.7v6.4l0.4,0.1c3.4,1.1,7,1.7,10.6,1.7c3.2,0.1,6.3-0.5,9.2-1.7l0.4-0.2h0v-6.3
		C-5594.1-8727.1-5597.2-8730.5-5601.2-8730.8L-5601.2-8730.8z"/>
	
		<linearGradient id="SVGID_2_" gradientUnits="userSpaceOnUse" x1="-6051.4136" y1="-8412.5879" x2="-6050.4136" y2="-8412.5879" gradientTransform="matrix(136.986 0 0 -176.649 823010.125 -1494794.75)">
		<stop  offset="0" style="stop-color:#073E98"/>
		<stop  offset="0.25" style="stop-color:#0E56A2"/>
		<stop  offset="0.76" style="stop-color:#2193BB"/>
		<stop  offset="1" style="stop-color:#2AB2C8"/>
	</linearGradient>
	<path class="st3" d="M-5811.8-8695.8c-12.4,7.7-25.8,13.7-39.7,17.8c-1.2,15.6-0.4,31.3,2.4,46.7c-53.5-30.9-90.2-84.4-99.7-145.5
		c10.3-11.7,22.1-22.2,34.9-31.1c12,8.3,25,14.9,38.8,19.8C-5869.1-8749.4-5845.8-8715.4-5811.8-8695.8L-5811.8-8695.8z"/>
	<path class="st0" d="M-5876.6-8808c-12.8-6.9-24.7-15.5-35.3-25.5c-14.1,6.9-27.2,15.4-39.2,25.5c-0.1-46.1,15.5-90.8,44.2-126.8
		c9.4-11.9,20.2-22.8,32-32.3c15.4,3,30.3,7.9,44.4,14.6c-1.2,14.5-0.4,29.1,2.3,43.5c-7.6,6-14.4,12.9-20.4,20.5
		C-5866.8-8865.5-5876.7-8837.2-5876.6-8808L-5876.6-8808z"/>
	
		<linearGradient id="SVGID_3_" gradientUnits="userSpaceOnUse" x1="-6051.606" y1="-8413.5859" x2="-6050.606" y2="-8413.5859" gradientTransform="matrix(185.424 0 0 -91.8619 1116264 -781853.875)">
		<stop  offset="0" style="stop-color:#073E98"/>
		<stop  offset="0.25" style="stop-color:#0E56A2"/>
		<stop  offset="0.76" style="stop-color:#2193BB"/>
		<stop  offset="1" style="stop-color:#2AB2C8"/>
	</linearGradient>
	<path class="st4" d="M-5811.8-8920.1c-0.3-7.2,0-14.3,0.7-21.5c0.4-3.6,0.9-7.2,1.5-10.9c0.6-3.7,1.4-7.3,2.2-11
		c-3.1-2.1-6.3-4.3-9.6-6.1c-3.3-1.9-6.7-3.8-10.2-5.6c-7.1-3.6-14.4-6.8-21.9-9.5c26.4-15.4,56-24.5,86.5-26.7
		c15.1-1.1,30.4-0.6,45.4,1.6c15.1,2.2,29.9,6.1,44,11.6c1.3,3.9,2.5,7.6,3.5,11.5c1,3.9,1.9,7.7,2.7,11.5
		c1.5,7.5,2.6,15.1,3.2,22.8c-6.7,3.2-13.1,6.8-19.3,10.8c-3,2-6,4.1-8.9,6.2c-2.8,2.1-5.6,4.4-8.3,6.7c-18.1-7-37.5-9.9-56.8-8.4
		c-9.6,0.7-19.1,2.5-28.4,5.3C-5794.6-8928.9-5803.4-8925-5811.8-8920.1L-5811.8-8920.1z"/>
	<path class="st2" d="M-5731.5-8963.2l-5.9-5.9c-0.9,1.4-2,2.5-3.3,3.4l5.9,5.9c0.9,1,2.4,1.1,3.4,0.2c1-0.9,1.1-2.4,0.2-3.4
		C-5731.4-8963.1-5731.4-8963.1-5731.5-8963.2L-5731.5-8963.2z"/>
	<path class="st2" d="M-5737.2-8975.1c0-5.3-4.3-9.6-9.6-9.6c-5.3,0-9.6,4.3-9.6,9.6c0,5.3,4.3,9.6,9.6,9.6c0,0,0,0,0,0
		C-5741.5-8965.5-5737.2-8969.8-5737.2-8975.1z M-5746.8-8967.9c-4,0-7.2-3.2-7.2-7.2s3.2-7.2,7.2-7.2s7.2,3.2,7.2,7.2c0,0,0,0,0,0
		C-5739.6-8971.1-5742.8-8967.9-5746.8-8967.9z"/>
	<path class="st2" d="M-5752.4-8975.1h1.6c0-2.2,1.8-4,4-4v-1.6C-5749.9-8980.7-5752.4-8978.2-5752.4-8975.1z"/>
	<path class="st2" d="M-5875.7-8726.7l-7.5,5.4l2.9,8.9c0.2,0.6-0.1,1.3-0.7,1.5c-0.1,0-0.2,0.1-0.4,0.1c-0.2,0-0.5-0.1-0.7-0.2
		l-7.5-5.4l-7.5,5.4c-0.4,0.3-1,0.3-1.4,0c-0.4-0.3-0.6-0.8-0.4-1.3l2.9-8.8l-7.5-5.4c-0.5-0.4-0.6-1.1-0.3-1.6
		c0.2-0.3,0.6-0.5,1-0.5h9.3l2.8-8.8c0.2-0.6,0.8-0.9,1.4-0.8c0.4,0.1,0.6,0.4,0.8,0.8l2.9,8.8h9.3c0.6,0,1.2,0.5,1.2,1.2
		C-5875.3-8727.2-5875.4-8726.9-5875.7-8726.7L-5875.7-8726.7z"/>
	<path class="st5" d="M-5627.8-8897.5l3.5,8.7l3.5-8.7h1.8v10.7h-1.4v-4.2l0.1-4.5l-3.5,8.6h-1.1l-3.5-8.6l0.1,4.5v4.2h-1.4v-10.7
		H-5627.8z M-5610.5-8891.7h-4.6v3.8h5.4v1.2h-6.8v-10.7h6.7v1.2h-5.3v3.4h4.6L-5610.5-8891.7z M-5603.5-8897.5h1.4v7.6
		c0.1,0.9-0.3,1.8-0.9,2.4c-0.7,0.6-1.6,0.9-2.4,0.9c-0.9,0.1-1.8-0.2-2.5-0.8c-0.6-0.6-0.9-1.4-0.9-2.3h1.4c0,0.5,0.1,1,0.5,1.4
		c0.4,0.4,0.9,0.6,1.5,0.5c0.5,0,1-0.2,1.4-0.5c0.4-0.4,0.6-1,0.5-1.5L-5603.5-8897.5z M-5591.5-8891.8c0,0.9-0.2,1.9-0.5,2.7
		c-0.3,0.7-0.8,1.3-1.5,1.8c-0.7,0.4-1.5,0.6-2.3,0.6c-0.8,0-1.6-0.2-2.2-0.6c-0.7-0.4-1.2-1-1.5-1.8c-0.4-0.8-0.6-1.7-0.6-2.7v-0.8
		c0-0.9,0.2-1.9,0.5-2.7c0.3-0.7,0.8-1.4,1.5-1.8c0.7-0.4,1.4-0.6,2.2-0.6c0.8,0,1.6,0.2,2.3,0.6c0.7,0.4,1.2,1.1,1.5,1.8
		c0.4,0.9,0.5,1.8,0.5,2.7V-8891.8z M-5592.9-8892.5c0.1-1-0.2-2-0.8-2.9c-0.5-0.7-1.3-1.1-2.1-1c-0.8,0-1.6,0.3-2.1,1
		c-0.6,0.8-0.8,1.8-0.8,2.8v0.8c-0.1,1,0.2,2,0.8,2.9c0.5,0.7,1.3,1.1,2.1,1.1c0.8,0,1.6-0.3,2.1-1c0.6-0.8,0.8-1.8,0.8-2.8
		L-5592.9-8892.5z M-5585.5-8891.1h-2.5v4.3h-1.4v-10.7h3.5c1-0.1,2,0.2,2.8,0.8c0.7,0.6,1,1.5,1,2.4c0,0.6-0.2,1.2-0.5,1.7
		c-0.4,0.5-0.9,0.9-1.5,1.1l2.5,4.5v0.1h-1.5L-5585.5-8891.1z M-5588-8892.3h2.2c0.6,0,1.2-0.2,1.7-0.5c0.4-0.4,0.6-0.9,0.6-1.5
		c0-0.6-0.2-1.1-0.6-1.5c-0.5-0.4-1.1-0.6-1.7-0.5h-2.2L-5588-8892.3z M-5574.3-8889.6h-4.5l-1,2.8h-1.5l4.1-10.7h1.2l4.1,10.7h-1.4
		L-5574.3-8889.6z M-5578.3-8890.8h3.6l-1.8-5L-5578.3-8890.8z"/>
	<path class="st5" d="M-5792.1-8642.1h-2.5v4.3h-1.4v-10.7h3.5c1-0.1,2,0.2,2.8,0.8c0.7,0.6,1,1.5,1,2.4c0,0.6-0.2,1.2-0.5,1.7
		c-0.4,0.5-0.9,0.9-1.5,1.1l2.5,4.5v0.1h-1.5L-5792.1-8642.1z M-5794.6-8643.3h2.2c0.6,0,1.2-0.2,1.7-0.5c0.4-0.4,0.6-0.9,0.6-1.5
		c0-0.6-0.2-1.1-0.6-1.5c-0.5-0.4-1.1-0.6-1.7-0.5h-2.2L-5794.6-8643.3z M-5780.8-8642.7h-4.6v3.8h5.4v1.2h-6.8v-10.7h6.7v1.2h-5.3
		v3.4h4.6V-8642.7z M-5775.1-8642.6c-1-0.2-1.9-0.7-2.6-1.3c-0.5-0.5-0.8-1.2-0.8-1.9c0-0.8,0.4-1.6,1-2.1c0.7-0.6,1.7-0.9,2.6-0.8
		c0.7,0,1.3,0.1,2,0.4c0.5,0.3,1,0.7,1.3,1.2c0.3,0.5,0.5,1.1,0.5,1.6h-1.4c0-0.6-0.2-1.1-0.6-1.5c-0.5-0.4-1.1-0.6-1.7-0.6
		c-0.6,0-1.1,0.1-1.6,0.5c-0.4,0.3-0.6,0.8-0.6,1.3c0,0.4,0.2,0.8,0.6,1.1c0.6,0.4,1.2,0.7,1.9,0.8c0.7,0.2,1.4,0.5,2.1,0.8
		c0.5,0.3,0.8,0.6,1.1,1.1c0.3,0.4,0.4,0.9,0.4,1.4c0,0.8-0.4,1.6-1,2.1c-0.8,0.6-1.7,0.8-2.7,0.8c-0.7,0-1.4-0.1-2.1-0.4
		c-0.6-0.2-1.1-0.6-1.5-1.2c-0.3-0.5-0.5-1.1-0.5-1.7h1.4c0,0.6,0.2,1.2,0.7,1.5c0.6,0.4,1.2,0.6,1.9,0.6c0.6,0,1.2-0.1,1.7-0.5
		c0.4-0.3,0.6-0.8,0.6-1.2c0-0.5-0.2-0.9-0.5-1.2C-5773.8-8642.1-5774.4-8642.4-5775.1-8642.6L-5775.1-8642.6z M-5761.9-8648.5v7.3
		c0,0.9-0.3,1.8-0.9,2.5c-0.7,0.7-1.6,1.1-2.6,1.1l-0.4,0c-1,0-2-0.3-2.8-0.9c-0.7-0.7-1.1-1.6-1.1-2.6v-7.3h1.4v7.2
		c0,0.7,0.2,1.3,0.6,1.8c0.5,0.5,1.1,0.7,1.8,0.6c0.7,0,1.3-0.2,1.8-0.6c0.4-0.5,0.7-1.1,0.6-1.8v-7.2L-5761.9-8648.5z
		 M-5758.2-8639h5.1v1.2h-6.5v-10.7h1.4L-5758.2-8639z M-5747.7-8647.3h-3.4v9.5h-1.4v-9.5h-3.4v-1.2h8.2V-8647.3z M-5741.6-8640.6
		h-4.5l-1,2.8h-1.5l4.1-10.7h1.2l4.1,10.7h-1.4L-5741.6-8640.6z M-5745.6-8641.7h3.6l-1.8-5L-5745.6-8641.7z M-5737.7-8637.8v-10.7
		h3c0.9,0,1.7,0.2,2.5,0.6c0.7,0.4,1.3,1,1.6,1.7c0.4,0.8,0.6,1.7,0.6,2.6v0.7c0,0.9-0.2,1.8-0.6,2.6c-0.4,0.7-0.9,1.3-1.7,1.7
		c-0.8,0.4-1.6,0.6-2.5,0.6H-5737.7z M-5736.3-8647.3v8.4h1.5c1,0.1,1.9-0.3,2.5-1c0.6-0.8,1-1.8,0.9-2.9v-0.6c0.1-1-0.2-2-0.9-2.8
		c-0.6-0.7-1.5-1.1-2.4-1L-5736.3-8647.3z M-5719.7-8642.8c0,0.9-0.2,1.9-0.5,2.7c-0.3,0.7-0.8,1.3-1.5,1.8
		c-0.7,0.4-1.5,0.6-2.3,0.6c-0.8,0-1.6-0.2-2.2-0.6c-0.7-0.4-1.2-1-1.5-1.8c-0.4-0.8-0.6-1.7-0.6-2.7v-0.8c0-0.9,0.2-1.9,0.5-2.7
		c0.3-0.7,0.8-1.4,1.5-1.8c0.7-0.4,1.4-0.6,2.2-0.6c0.8,0,1.6,0.2,2.3,0.6c0.7,0.4,1.2,1.1,1.5,1.8c0.4,0.9,0.5,1.8,0.5,2.7
		L-5719.7-8642.8z M-5721.1-8643.5c0.1-1-0.2-2-0.8-2.9c-0.5-0.7-1.3-1.1-2.1-1c-0.8,0-1.6,0.3-2.1,1c-0.6,0.8-0.8,1.8-0.8,2.8v0.8
		c-0.1,1,0.2,2,0.8,2.9c0.5,0.7,1.3,1.1,2.1,1.1c0.8,0,1.6-0.3,2.1-1c0.6-0.8,0.8-1.8,0.8-2.8L-5721.1-8643.5z M-5714.4-8642.6
		c-1-0.2-1.9-0.7-2.6-1.3c-0.5-0.5-0.8-1.2-0.8-1.9c0-0.8,0.4-1.6,1-2.1c0.7-0.6,1.7-0.9,2.6-0.8c0.7,0,1.3,0.1,2,0.4
		c0.5,0.3,1,0.7,1.3,1.2c0.3,0.5,0.5,1.1,0.5,1.6h-1.4c0-0.6-0.2-1.1-0.6-1.5c-0.5-0.4-1.1-0.6-1.7-0.6c-0.6,0-1.1,0.1-1.6,0.5
		c-0.4,0.3-0.6,0.8-0.6,1.3c0,0.4,0.2,0.8,0.6,1.1c0.6,0.4,1.2,0.7,1.9,0.8c0.7,0.2,1.4,0.5,2.1,0.8c0.5,0.3,0.8,0.6,1.1,1.1
		c0.2,0.4,0.4,0.9,0.4,1.4c0,0.8-0.4,1.6-1,2.1c-0.8,0.6-1.7,0.8-2.7,0.8c-0.7,0-1.4-0.1-2.1-0.4c-0.6-0.2-1.1-0.6-1.5-1.2
		c-0.3-0.5-0.5-1.1-0.5-1.7h1.4c0,0.6,0.2,1.2,0.7,1.5c0.6,0.4,1.2,0.6,1.9,0.6c0.6,0,1.2-0.1,1.7-0.5c0.4-0.3,0.6-0.8,0.6-1.2
		c0-0.5-0.2-0.9-0.5-1.2C-5713-8642.1-5713.7-8642.4-5714.4-8642.6L-5714.4-8642.6z"/>
	<path class="st5" d="M-5918.7-8889.6h-4.5l-1,2.8h-1.4l4.1-10.7h1.2l4.1,10.7h-1.4L-5918.7-8889.6z M-5922.7-8890.8h3.6l-1.8-5
		L-5922.7-8890.8z M-5906.6-8886.8h-1.4l-5.4-8.2v8.2h-1.4v-10.7h1.4l5.4,8.3v-8.3h1.4L-5906.6-8886.8z M-5898-8889.6h-4.5l-1,2.8
		h-1.5l4.1-10.7h1.2l4.1,10.7h-1.4L-5898-8889.6z M-5902.1-8890.8h3.6l-1.8-5L-5902.1-8890.8z M-5899.6-8900.3h1.6l-2,2.2h-1.1
		L-5899.6-8900.3z M-5892.7-8888h5.1v1.2h-6.5v-10.7h1.4V-8888z M-5884.6-8886.8h-1.4v-10.7h1.4L-5884.6-8886.8z M-5878.8-8891.6
		c-1-0.2-1.9-0.7-2.6-1.3c-0.5-0.5-0.8-1.2-0.8-1.9c0-0.8,0.4-1.6,1-2.1c0.7-0.6,1.7-0.9,2.6-0.8c0.7,0,1.3,0.1,2,0.4
		c0.5,0.3,1,0.7,1.3,1.2c0.3,0.5,0.5,1.1,0.5,1.6h-1.4c0-0.6-0.2-1.1-0.6-1.5c-0.5-0.4-1.1-0.6-1.7-0.6c-0.6,0-1.1,0.1-1.6,0.5
		c-0.4,0.3-0.6,0.8-0.6,1.3c0,0.4,0.2,0.8,0.6,1.1c0.6,0.4,1.2,0.7,1.9,0.8c0.7,0.2,1.4,0.5,2.1,0.8c0.5,0.3,0.8,0.6,1.1,1.1
		c0.2,0.4,0.4,0.9,0.4,1.4c0,0.8-0.4,1.6-1,2.1c-0.8,0.6-1.7,0.8-2.7,0.8c-0.7,0-1.4-0.1-2.1-0.4c-0.6-0.2-1.1-0.6-1.5-1.2
		c-0.3-0.5-0.5-1.1-0.5-1.7h1.4c0,0.6,0.2,1.2,0.7,1.5c0.6,0.4,1.2,0.6,1.9,0.6c0.6,0,1.2-0.1,1.7-0.5c0.4-0.3,0.6-0.8,0.6-1.2
		c0-0.5-0.2-0.9-0.5-1.2C-5877.5-8891.1-5878.1-8891.4-5878.8-8891.6L-5878.8-8891.6z M-5871.6-8886.8h-1.4v-10.7h1.4V-8886.8z
		 M-5865.9-8891.6c-1-0.2-1.9-0.7-2.6-1.3c-0.5-0.5-0.8-1.2-0.8-1.9c0-0.8,0.4-1.6,1-2.1c0.7-0.6,1.7-0.9,2.6-0.8
		c0.7,0,1.3,0.1,2,0.4c0.5,0.3,1,0.7,1.3,1.2c0.3,0.5,0.5,1.1,0.5,1.6h-1.4c0-0.6-0.2-1.1-0.6-1.5c-0.5-0.4-1.1-0.6-1.7-0.6
		c-0.6,0-1.1,0.1-1.6,0.5c-0.4,0.3-0.6,0.8-0.6,1.3c0,0.4,0.2,0.8,0.6,1.1c0.6,0.4,1.2,0.7,1.9,0.8c0.7,0.2,1.4,0.5,2.1,0.8
		c0.5,0.3,0.8,0.6,1.1,1.1c0.2,0.4,0.4,0.9,0.4,1.4c0,0.8-0.4,1.6-1,2.1c-0.8,0.6-1.7,0.8-2.7,0.8c-0.7,0-1.4-0.1-2.1-0.4
		c-0.6-0.2-1.1-0.6-1.5-1.2c-0.3-0.5-0.5-1.1-0.5-1.7h1.4c0,0.6,0.2,1.2,0.7,1.5c0.6,0.4,1.2,0.6,1.9,0.6c0.6,0,1.2-0.1,1.7-0.5
		c0.4-0.3,0.6-0.8,0.6-1.2c0-0.5-0.2-0.9-0.5-1.2C-5864.5-8891.1-5865.2-8891.4-5865.9-8891.6z"/>
	<g>
		<defs>
			<path id="SVGID_4_" d="M-5746.8-8933.6c68.2,0,123.5,55.3,123.5,123.5c0,68.2-55.3,123.5-123.5,123.5s-123.5-55.3-123.5-123.5
				c0,0,0,0,0,0C-5870.3-8878.3-5815-8933.6-5746.8-8933.6z"/>
		</defs>
		<clipPath id="SVGID_5_">
			<use xlink:href="#SVGID_4_"  style="overflow:visible;"/>
		</clipPath>
		<g class="st6">
			
				<linearGradient id="SVGID_6_" gradientUnits="userSpaceOnUse" x1="-6048.998" y1="-8412.6416" x2="-6049.6938" y2="-8413.165" gradientTransform="matrix(83.579 0 0 -85.964 499845.6562 -732009)">
				<stop  offset="0" style="stop-color:#E5908C"/>
				<stop  offset="1" style="stop-color:#DF6F63"/>
			</linearGradient>
			<path class="st7" d="M-5802.5-8774.1h-83.6l7.4,82.1c0.2,2.2,2,3.8,4.2,3.8h72L-5802.5-8774.1z"/>
			
				<linearGradient id="SVGID_7_" gradientUnits="userSpaceOnUse" x1="-6048.8149" y1="-8415.4561" x2="-6047.0337" y2="-8414.1016" gradientTransform="matrix(39.4034 0 0 -45.961 232505.6094 -395503.5938)">
				<stop  offset="0" style="stop-color:#C24940"/>
				<stop  offset="1" style="stop-color:#CC605B"/>
			</linearGradient>
			<path class="st8" d="M-5831.2-8688.1h-33.4l-3.8-41.9c-0.2-2,1.3-3.8,3.4-4c0.1,0,0.2,0,0.3,0h32c2,0,3.7,1.6,3.7,3.7
				c0,0.1,0,0.1,0,0.2L-5831.2-8688.1z"/>
			
				<linearGradient id="SVGID_8_" gradientUnits="userSpaceOnUse" x1="-6050.2705" y1="-8423.0625" x2="-6050.4463" y2="-8438.5947" gradientTransform="matrix(82.1658 0 0 -7.757 491288.6562 -74212.9844)">
				<stop  offset="0" style="stop-color:#C24940"/>
				<stop  offset="1" style="stop-color:#CC605B"/>
			</linearGradient>
			<path class="st9" d="M-5807.9-8769.9h-79.1c-1.7,0-3.1-1.4-3.1-3.1c0-0.4,0.1-0.8,0.2-1.1l0.6-1.6c0.5-1.2,1.6-2,2.9-2h78.5
				V-8769.9z"/>
			
				<linearGradient id="SVGID_9_" gradientUnits="userSpaceOnUse" x1="-6039.5825" y1="-8424.2441" x2="-6037.1963" y2="-8420.709" gradientTransform="matrix(8.956 0 0 -13.732 48243.4492 -124453.0781)">
				<stop  offset="0" style="stop-color:#ECB9B8"/>
				<stop  offset="1" style="stop-color:#E5908C"/>
			</linearGradient>
			<path class="st10" d="M-5858.6-8762.1h9v13.7h-9V-8762.1z"/>
			
				<linearGradient id="SVGID_10_" gradientUnits="userSpaceOnUse" x1="-6039.8853" y1="-8424.6934" x2="-6037.4995" y2="-8421.1592" gradientTransform="matrix(8.956 0 0 -13.732 48260.1641 -124453.0781)">
				<stop  offset="0" style="stop-color:#ECB9B8"/>
				<stop  offset="1" style="stop-color:#E5908C"/>
			</linearGradient>
			<path class="st11" d="M-5841.9-8762.1h9v13.7h-9V-8762.1z"/>
			<path class="st12" d="M-5875.3-8762.1h9v13.7h-9V-8762.1z"/>
			
				<linearGradient id="SVGID_11_" gradientUnits="userSpaceOnUse" x1="-6051.5771" y1="-8413.2266" x2="-6050.7417" y2="-8412.0605" gradientTransform="matrix(183.28 0 0 -176.708 1103306.625 -1495348.125)">
				<stop  offset="0" style="stop-color:#E5908C"/>
				<stop  offset="1" style="stop-color:#DF6F63"/>
			</linearGradient>
			<path class="st13" d="M-5830.6-8864.8l10,176.7h166.1l7.2-176.7H-5830.6z"/>
			
				<linearGradient id="SVGID_12_" gradientUnits="userSpaceOnUse" x1="-6051.1211" y1="-8432.9473" x2="-6051.1211" y2="-8434.4111" gradientTransform="matrix(190.5927 0 0 -7.748 1147559.875 -74228.5859)">
				<stop  offset="0" style="stop-color:#C24940"/>
				<stop  offset="1" style="stop-color:#CC605B"/>
			</linearGradient>
			<path class="st14" d="M-5646.6-8861.2h-184.8c-0.9,0-1.7-0.6-2-1.4l-1.1-3.7c-0.3-1.1,0.3-2.2,1.4-2.6c0.2-0.1,0.4-0.1,0.6-0.1
				h186.5c1.1,0,2,0.9,2,2c0,0.1,0,0.2,0,0.3l-0.6,3.7C-5644.8-8862-5645.6-8861.2-5646.6-8861.2L-5646.6-8861.2z"/>
			
				<linearGradient id="SVGID_13_" gradientUnits="userSpaceOnUse" x1="-6051.0864" y1="-8415.4717" x2="-6051.0933" y2="-8417.8555" gradientTransform="matrix(181.876 0 0 -25.075 1094810.375 -219947.4531)">
				<stop  offset="0" style="stop-color:#ECB9B8"/>
				<stop  offset="1" style="stop-color:#E5908C"/>
			</linearGradient>
			<path class="st15" d="M-5648.9-8825.4l1-25.1h-181.9l1.4,25.1H-5648.9z"/>
			
				<linearGradient id="SVGID_14_" gradientUnits="userSpaceOnUse" x1="-6014.5449" y1="-8415.3018" x2="-6018.394" y2="-8416.4385" gradientTransform="matrix(4.181 0 0 -25.075 19393.3809 -219947.4688)">
				<stop  offset="0" style="stop-color:#E5908C"/>
				<stop  offset="1" style="stop-color:#DF6F63"/>
			</linearGradient>
			<path class="st16" d="M-5809.7-8850.5h4.2v25.1h-4.2V-8850.5z"/>
			
				<linearGradient id="SVGID_15_" gradientUnits="userSpaceOnUse" x1="-6016.2065" y1="-8415.79" x2="-6020.0552" y2="-8416.9268" gradientTransform="matrix(4.181 0 0 -25.075 19422.043 -219947.4688)">
				<stop  offset="0" style="stop-color:#E5908C"/>
				<stop  offset="1" style="stop-color:#DF6F63"/>
			</linearGradient>
			<path class="st17" d="M-5781-8850.5h4.2v25.1h-4.2V-8850.5z"/>
			
				<linearGradient id="SVGID_16_" gradientUnits="userSpaceOnUse" x1="-6017.8628" y1="-8416.2812" x2="-6021.7119" y2="-8417.417" gradientTransform="matrix(4.181 0 0 -25.075 19450.6953 -219947.4688)">
				<stop  offset="0" style="stop-color:#E5908C"/>
				<stop  offset="1" style="stop-color:#DF6F63"/>
			</linearGradient>
			<path class="st18" d="M-5752.3-8850.5h4.2v25.1h-4.2V-8850.5z"/>
			
				<linearGradient id="SVGID_17_" gradientUnits="userSpaceOnUse" x1="-6019.519" y1="-8416.7705" x2="-6023.3677" y2="-8417.9062" gradientTransform="matrix(4.181 0 0 -25.075 19479.3477 -219947.4688)">
				<stop  offset="0" style="stop-color:#E5908C"/>
				<stop  offset="1" style="stop-color:#DF6F63"/>
			</linearGradient>
			<path class="st19" d="M-5723.7-8850.5h4.2v25.1h-4.2V-8850.5z"/>
			
				<linearGradient id="SVGID_18_" gradientUnits="userSpaceOnUse" x1="-6021.1763" y1="-8417.2588" x2="-6025.0269" y2="-8418.3955" gradientTransform="matrix(4.181 0 0 -25.075 19508 -219947.4688)">
				<stop  offset="0" style="stop-color:#E5908C"/>
				<stop  offset="1" style="stop-color:#DF6F63"/>
			</linearGradient>
			<path class="st20" d="M-5695-8850.5h4.2v25.1h-4.2V-8850.5z"/>
			
				<linearGradient id="SVGID_19_" gradientUnits="userSpaceOnUse" x1="-6022.8359" y1="-8417.748" x2="-6026.6851" y2="-8418.8848" gradientTransform="matrix(4.181 0 0 -25.075 19536.6621 -219947.4688)">
				<stop  offset="0" style="stop-color:#E5908C"/>
				<stop  offset="1" style="stop-color:#DF6F63"/>
			</linearGradient>
			<path class="st21" d="M-5666.4-8850.5h4.2v25.1h-4.2V-8850.5z"/>
			
				<linearGradient id="SVGID_20_" gradientUnits="userSpaceOnUse" x1="-6049.2295" y1="-8420.6846" x2="-6048.9966" y2="-8417.0488" gradientTransform="matrix(43.015 0 0 -18.507 254424.3906 -164668.75)">
				<stop  offset="0" style="stop-color:#ECB9B8"/>
				<stop  offset="1" style="stop-color:#E5908C"/>
			</linearGradient>
			<path class="st22" d="M-5807.9-8815.3h43v18.5h-43V-8815.3z"/>
			
				<linearGradient id="SVGID_21_" gradientUnits="userSpaceOnUse" x1="-6048.937" y1="-8420.0322" x2="-6049.1401" y2="-8424.335" gradientTransform="matrix(39.832 0 0 -15.525 235162 -139585.3438)">
				<stop  offset="0" style="stop-color:#C24940"/>
				<stop  offset="1" style="stop-color:#CC605B"/>
			</linearGradient>
			<path class="st23" d="M-5806.3-8813.5h39.8v15.5h-39.8V-8813.5z"/>
			
				<linearGradient id="SVGID_22_" gradientUnits="userSpaceOnUse" x1="-6049.2534" y1="-8421.0547" x2="-6049.0205" y2="-8417.4189" gradientTransform="matrix(43.015 0 0 -18.507 254471.3906 -164668.75)">
				<stop  offset="0" style="stop-color:#ECB9B8"/>
				<stop  offset="1" style="stop-color:#E5908C"/>
			</linearGradient>
			<path class="st24" d="M-5760.9-8815.3h43v18.5h-43V-8815.3z"/>
			
				<linearGradient id="SVGID_23_" gradientUnits="userSpaceOnUse" x1="-6048.9541" y1="-8420.3945" x2="-6049.1572" y2="-8424.6963" gradientTransform="matrix(39.832 0 0 -15.525 235209 -139585.3438)">
				<stop  offset="0" style="stop-color:#C24940"/>
				<stop  offset="1" style="stop-color:#CC605B"/>
			</linearGradient>
			<path class="st25" d="M-5759.3-8813.5h39.8v15.5h-39.8V-8813.5z"/>
			
				<linearGradient id="SVGID_24_" gradientUnits="userSpaceOnUse" x1="-6049.2769" y1="-8421.4238" x2="-6049.0439" y2="-8417.79" gradientTransform="matrix(43.015 0 0 -18.507 254518.3906 -164668.75)">
				<stop  offset="0" style="stop-color:#ECB9B8"/>
				<stop  offset="1" style="stop-color:#E5908C"/>
			</linearGradient>
			<path class="st26" d="M-5713.9-8815.3h43v18.5h-43V-8815.3z"/>
			
				<linearGradient id="SVGID_25_" gradientUnits="userSpaceOnUse" x1="-6048.9712" y1="-8420.7559" x2="-6049.1743" y2="-8425.0586" gradientTransform="matrix(39.832 0 0 -15.525 235256 -139585.3438)">
				<stop  offset="0" style="stop-color:#C24940"/>
				<stop  offset="1" style="stop-color:#CC605B"/>
			</linearGradient>
			<path class="st27" d="M-5712.3-8813.5h39.8v15.5h-39.8V-8813.5z"/>
			
				<linearGradient id="SVGID_26_" gradientUnits="userSpaceOnUse" x1="-6044.9541" y1="-8415.9668" x2="-6044.8423" y2="-8412.333" gradientTransform="matrix(14.957 0 0 -72.271 84615.5078 -616819)">
				<stop  offset="0" style="stop-color:#C24940"/>
				<stop  offset="1" style="stop-color:#CC605B"/>
			</linearGradient>
			<path class="st28" d="M-5805.5-8756.2h14.9v72.3h-4.9c-5.6,0-10.1-4.5-10.1-10.1L-5805.5-8756.2L-5805.5-8756.2z"/>
			
				<linearGradient id="SVGID_27_" gradientUnits="userSpaceOnUse" x1="-6048.9937" y1="-8413.6475" x2="-6049.2568" y2="-8414.3418" gradientTransform="matrix(52.53 0 0 -48.361 312033.9688 -415688.1875)">
				<stop  offset="0" style="stop-color:#0F005B"/>
				<stop  offset="1" style="stop-color:#1E168C"/>
			</linearGradient>
			<path class="st29" d="M-5769-8732.3h16.3c11.4,0,20.7,9.3,20.7,20.7c0,0,0,0,0,0v27.7h-52.5v-32.8
				C-5784.6-8725.3-5777.6-8732.3-5769-8732.3C-5769-8732.3-5769-8732.3-5769-8732.3L-5769-8732.3z"/>
			
				<linearGradient id="SVGID_28_" gradientUnits="userSpaceOnUse" x1="-6050.8218" y1="-8412.9814" x2="-6049.9277" y2="-8411.1562" gradientTransform="matrix(149.4461 0 0 -105.0222 898557.75 -892322.75)">
				<stop  offset="0" style="stop-color:#ECB9B8"/>
				<stop  offset="1" style="stop-color:#E5908C"/>
			</linearGradient>
			<path class="st30" d="M-5811.8-8784.8l2.1,36.4h83.6v64.5h54.4c2.9,0,5.4-2.3,5.5-5.3l3.8-94c0.1-2.2-1.6-4-3.8-4.1
				c0,0-0.1,0-0.1,0l-141.6-1.7c-2.2,0-4,1.7-4,3.9C-5811.8-8785-5811.8-8784.9-5811.8-8784.8L-5811.8-8784.8z"/>
			
				<linearGradient id="SVGID_29_" gradientUnits="userSpaceOnUse" x1="-6051.0703" y1="-8425.416" x2="-6050.0703" y2="-8425.416" gradientTransform="matrix(93.45 0 0 -13.732 559661.3125 -124464.9688)">
				<stop  offset="0" style="stop-color:#C24940"/>
				<stop  offset="1" style="stop-color:#CC605B"/>
			</linearGradient>
			<path class="st31" d="M-5810.4-8760.3h92.6v-13.7h-93.5L-5810.4-8760.3z"/>
			
				<linearGradient id="SVGID_30_" gradientUnits="userSpaceOnUse" x1="-6023.9858" y1="-8425.416" x2="-6022.9888" y2="-8425.416" gradientTransform="matrix(3.586 0 0 -13.732 15805.4873 -124465.0156)">
				<stop  offset="0" style="stop-color:#DBE1FC"/>
				<stop  offset="1" style="stop-color:#E9EDFB"/>
			</linearGradient>
			<path class="st32" d="M-5796.5-8774.1h3.6v13.7h-3.6V-8774.1z"/>
			
				<linearGradient id="SVGID_31_" gradientUnits="userSpaceOnUse" x1="-6023.9858" y1="-8425.416" x2="-6022.9888" y2="-8425.416" gradientTransform="matrix(3.586 0 0 -13.732 15821.6055 -124465.0156)">
				<stop  offset="0" style="stop-color:#DBE1FC"/>
				<stop  offset="1" style="stop-color:#E9EDFB"/>
			</linearGradient>
			<path class="st33" d="M-5780.4-8774.1h3.6v13.7h-3.6V-8774.1z"/>
			
				<linearGradient id="SVGID_32_" gradientUnits="userSpaceOnUse" x1="-6023.9858" y1="-8425.416" x2="-6022.9888" y2="-8425.416" gradientTransform="matrix(3.586 0 0 -13.732 15837.7246 -124465.0156)">
				<stop  offset="0" style="stop-color:#DBE1FC"/>
				<stop  offset="1" style="stop-color:#E9EDFB"/>
			</linearGradient>
			<path class="st34" d="M-5764.3-8774.1h3.6v13.7h-3.6V-8774.1z"/>
			
				<linearGradient id="SVGID_33_" gradientUnits="userSpaceOnUse" x1="-6023.9858" y1="-8425.416" x2="-6022.9888" y2="-8425.416" gradientTransform="matrix(3.586 0 0 -13.732 15853.8447 -124465.0156)">
				<stop  offset="0" style="stop-color:#DBE1FC"/>
				<stop  offset="1" style="stop-color:#E9EDFB"/>
			</linearGradient>
			<path class="st35" d="M-5748.2-8774.1h3.6v13.7h-3.6V-8774.1z"/>
			
				<linearGradient id="SVGID_34_" gradientUnits="userSpaceOnUse" x1="-6023.9858" y1="-8425.416" x2="-6022.9888" y2="-8425.416" gradientTransform="matrix(3.586 0 0 -13.732 15869.9639 -124465.0156)">
				<stop  offset="0" style="stop-color:#DBE1FC"/>
				<stop  offset="1" style="stop-color:#E9EDFB"/>
			</linearGradient>
			<path class="st36" d="M-5732-8774.1h3.6v13.7h-3.6V-8774.1z"/>
		</g>
	</g>
</g>
</svg>
