<?xml version="1.0" encoding="utf-8"?>
<!-- Generator: Adobe Illustrator 25.2.3, SVG Export Plug-In . SVG Version: 6.00 Build 0)  -->
<svg version="1.1" id="Capa_1" xmlns="http://www.w3.org/2000/svg" xmlns:xlink="http://www.w3.org/1999/xlink" x="0px" y="0px"
	 viewBox="0 0 904 312.1" style="enable-background:new 0 0 904 312.1;" xml:space="preserve">
<style type="text/css">
	.st0{opacity:0.2;fill:#99B0F6;enable-background:new    ;}
	.st1{opacity:0.2;fill:#8CD9D6;enable-background:new    ;}
	.st2{opacity:0.6;}
	.st3{fill:#99B0F6;}
	.st4{enable-background:new    ;}
	.st5{fill:#1E168C;}
	.st6{fill:#8CD9D6;}
	.st7{fill:#E7EBF7;}
	.st8{fill:#1A0F91;}
	.st9{fill:#FFFFFF;}
	.st10{fill:#E8B4B1;}
</style>
<g transform="translate(-57.3 -70)">
	<g transform="translate(57.3 70)">
		<path class="st0" d="M881.7,277.8V36.2c0-1.6,0.6-3.1,1.9-4.1c-33.3-19.4-74.7-31-119.6-31c-110.2,0-199.6,69.6-199.6,155.5
			S653.7,312.1,764,312.1c44.6,0,85.8-11.4,119-30.6C882.1,280.4,881.6,279.1,881.7,277.8z"/>
		<path class="st0" d="M165.1,1.2C114.2,1.2,67.9,16.7,33.3,42c0.5,0.8,0.8,1.7,0.8,2.6v219.5c0,1-0.3,2-0.9,2.8
			c34.6,25.4,81,40.9,131.9,40.9c107.1,0,193.9-68.6,193.9-153.3S272.2,1.2,165.1,1.2z"/>
		<path class="st1" d="M648.9,154.5c0,84.7-84.2,153.3-188.2,153.3s-188.3-68.6-188.3-153.3S356.7,1.2,460.6,1.2
			S648.9,69.8,648.9,154.5z"/>
		<g transform="translate(85.736 100.066)" class="st2">
			
				<image style="overflow:visible;opacity:0.15;enable-background:new    ;" width="818" height="207" xlink:href="9681A7.png"  transform="matrix(0.2084 0 0 0.2084 1.755371e-04 0)">
			</image>
			<path class="st3" d="M164,19.6c0,9-5.5,16.3-12.2,16.3H16.2C9.4,36,4,28.7,4,19.6l0,0c0-9,5.5-16.3,12.2-16.3h135.7
				C158.6,3.3,164,10.6,164,19.6L164,19.6z"/>
		</g>
		<g transform="translate(85.736 140.919)" class="st2">
			
				<image style="overflow:visible;opacity:0.15;enable-background:new    ;" width="818" height="207" xlink:href="9681A5.png"  transform="matrix(0.2084 0 0 0.2084 1.755371e-04 0)">
			</image>
			<path class="st3" d="M164,19.6c0,9-5.5,16.3-12.2,16.3H16.2C9.4,35.9,4,28.6,4,19.6l0,0c0-9,5.5-16.3,12.2-16.3h135.7
				C158.6,3.3,164,10.6,164,19.6L164,19.6z"/>
		</g>
		<g transform="translate(85.736 183.649)" class="st2">
			
				<image style="overflow:visible;opacity:0.15;enable-background:new    ;" width="818" height="207" xlink:href="9681AB.png"  transform="matrix(0.2084 0 0 0.2084 1.755371e-04 0)">
			</image>
			<path class="st3" d="M164,19.6c0,9-5.5,16.3-12.2,16.3H16.2C9.4,35.9,4,28.6,4,19.6l0,0c0-9,5.5-16.3,12.2-16.3h135.7
				C158.6,3.2,164,10.6,164,19.6L164,19.6z"/>
		</g>
		<g transform="translate(85.736 226.169)" class="st2">
			
				<image style="overflow:visible;opacity:0.15;enable-background:new    ;" width="818" height="207" xlink:href="9681AD.png"  transform="matrix(0.2084 0 0 0.2084 1.755371e-04 0)">
			</image>
			<path class="st3" d="M164,19.6c0,9-5.5,16.3-12.2,16.3H16.2C9.4,35.9,4,28.6,4,19.6l0,0c0-9,5.5-16.3,12.2-16.3h135.7
				C158.6,3.3,164,10.6,164,19.6L164,19.6z"/>
		</g>
		<g class="st4">
			<path class="st5" d="M147.4,121.3c-0.1,1.2-0.6,2.1-1.3,2.8c-0.7,0.7-1.7,1-3,1c-1.3,0-2.4-0.5-3.2-1.4c-0.8-1-1.2-2.3-1.2-3.9
				v-1.1c0-1.1,0.2-2,0.6-2.8c0.4-0.8,0.9-1.4,1.6-1.8c0.7-0.4,1.5-0.6,2.4-0.6c1.2,0,2.2,0.3,2.9,1c0.7,0.7,1.2,1.6,1.3,2.8h-1.5
				c-0.1-0.9-0.4-1.6-0.8-2c-0.4-0.4-1-0.6-1.8-0.6c-1,0-1.7,0.4-2.3,1.1c-0.5,0.7-0.8,1.7-0.8,3v1.1c0,1.2,0.3,2.2,0.8,2.9
				s1.2,1.1,2.2,1.1c0.8,0,1.5-0.2,1.9-0.6s0.7-1,0.9-2H147.4z"/>
			<path class="st5" d="M148.8,120.6c0-0.8,0.2-1.6,0.5-2.2c0.3-0.7,0.8-1.2,1.4-1.5c0.6-0.4,1.2-0.5,2-0.5c1.2,0,2.1,0.4,2.8,1.2
				s1.1,1.9,1.1,3.2v0.1c0,0.8-0.2,1.6-0.5,2.2c-0.3,0.7-0.8,1.2-1.4,1.5s-1.3,0.5-2,0.5c-1.1,0-2.1-0.4-2.8-1.2s-1.1-1.9-1.1-3.2
				V120.6z M150.3,120.8c0,0.9,0.2,1.7,0.7,2.3c0.4,0.6,1,0.9,1.7,0.9c0.7,0,1.3-0.3,1.8-0.9c0.4-0.6,0.6-1.4,0.6-2.4
				c0-0.9-0.2-1.7-0.7-2.3c-0.4-0.6-1-0.9-1.8-0.9c-0.7,0-1.3,0.3-1.7,0.9S150.3,119.7,150.3,120.8z"/>
			<path class="st5" d="M159.7,116.5l0,0.9c0.6-0.7,1.5-1.1,2.5-1.1c1.2,0,2,0.5,2.4,1.4c0.3-0.4,0.6-0.7,1.1-1
				c0.5-0.2,1-0.4,1.6-0.4c1.9,0,2.8,1,2.8,2.9v5.7h-1.4v-5.6c0-0.6-0.1-1.1-0.4-1.4c-0.3-0.3-0.7-0.4-1.4-0.4c-0.5,0-1,0.2-1.3,0.5
				c-0.4,0.3-0.6,0.8-0.6,1.3v5.6h-1.5v-5.5c0-1.2-0.6-1.8-1.8-1.8c-0.9,0-1.6,0.4-1.9,1.2v6.2h-1.4v-8.5H159.7z"/>
			<path class="st5" d="M179.5,120.8c0,1.3-0.3,2.3-0.9,3.1c-0.6,0.8-1.4,1.2-2.4,1.2c-1,0-1.8-0.3-2.4-1v4.1h-1.4v-11.7h1.3
				l0.1,0.9c0.6-0.7,1.4-1.1,2.5-1.1c1,0,1.8,0.4,2.4,1.1c0.6,0.8,0.9,1.8,0.9,3.2V120.8z M178.1,120.6c0-1-0.2-1.7-0.6-2.3
				s-1-0.8-1.7-0.8c-0.9,0-1.5,0.4-2,1.2v4c0.4,0.8,1.1,1.2,2,1.2c0.7,0,1.2-0.3,1.7-0.8C177.9,122.5,178.1,121.7,178.1,120.6z"/>
			<path class="st5" d="M185.4,117.8c-0.2,0-0.5-0.1-0.7-0.1c-0.9,0-1.6,0.4-1.9,1.2v6h-1.4v-8.5h1.4l0,1c0.5-0.8,1.1-1.1,2-1.1
				c0.3,0,0.5,0,0.6,0.1V117.8z"/>
			<path class="st5" d="M191.7,124.9c-0.1-0.2-0.2-0.5-0.2-0.9c-0.7,0.7-1.5,1-2.4,1c-0.8,0-1.5-0.2-2.1-0.7
				c-0.5-0.5-0.8-1.1-0.8-1.8c0-0.9,0.3-1.6,1-2.1c0.7-0.5,1.6-0.7,2.8-0.7h1.4v-0.7c0-0.5-0.2-0.9-0.5-1.2
				c-0.3-0.3-0.7-0.4-1.3-0.4c-0.5,0-0.9,0.1-1.3,0.4c-0.3,0.3-0.5,0.6-0.5,0.9h-1.5c0-0.4,0.1-0.8,0.4-1.2c0.3-0.4,0.7-0.7,1.2-0.9
				c0.5-0.2,1.1-0.3,1.7-0.3c1,0,1.7,0.2,2.3,0.7c0.6,0.5,0.8,1.2,0.9,2v3.9c0,0.8,0.1,1.4,0.3,1.9v0.1H191.7z M189.3,123.8
				c0.5,0,0.9-0.1,1.3-0.4s0.7-0.5,0.9-0.9v-1.7h-1.1c-1.8,0-2.7,0.5-2.7,1.6c0,0.5,0.2,0.8,0.5,1.1
				C188.4,123.7,188.8,123.8,189.3,123.8z"/>
			<path class="st5" d="M200.1,122.7c0-0.4-0.1-0.7-0.4-0.9c-0.3-0.2-0.8-0.4-1.5-0.6c-0.7-0.2-1.3-0.3-1.7-0.6s-0.7-0.5-1-0.8
				c-0.2-0.3-0.3-0.7-0.3-1.1c0-0.7,0.3-1.3,0.9-1.8s1.3-0.7,2.2-0.7c1,0,1.7,0.2,2.3,0.7c0.6,0.5,0.9,1.1,0.9,1.9H200
				c0-0.4-0.2-0.7-0.5-1s-0.8-0.4-1.3-0.4c-0.5,0-0.9,0.1-1.2,0.3s-0.4,0.5-0.4,0.9c0,0.3,0.1,0.6,0.4,0.8c0.3,0.2,0.8,0.3,1.5,0.5
				c0.7,0.2,1.3,0.4,1.8,0.6c0.4,0.2,0.8,0.5,1,0.8c0.2,0.3,0.3,0.7,0.3,1.2c0,0.8-0.3,1.4-0.9,1.8c-0.6,0.5-1.4,0.7-2.4,0.7
				c-0.7,0-1.3-0.1-1.8-0.4c-0.5-0.2-0.9-0.6-1.2-1c-0.3-0.4-0.4-0.9-0.4-1.4h1.4c0,0.5,0.2,0.9,0.6,1.2c0.4,0.3,0.8,0.4,1.4,0.4
				c0.5,0,1-0.1,1.3-0.3C199.9,123.3,200.1,123.1,200.1,122.7z"/>
		</g>
		<g class="st4">
			<path class="st5" d="M150.4,164.9l3.2-9.4h1.6l-4.2,11.4h-1.3l-4.2-11.4h1.6L150.4,164.9z"/>
		</g>
		<g class="st4">
			<path class="st5" d="M159.8,167.1c-1.1,0-2.1-0.4-2.8-1.1s-1.1-1.8-1.1-3v-0.3c0-0.8,0.2-1.6,0.5-2.2s0.8-1.2,1.3-1.5
				c0.6-0.4,1.2-0.6,1.9-0.6c1.1,0,2,0.4,2.6,1.1s0.9,1.8,0.9,3.1v0.6h-5.7c0,0.8,0.3,1.5,0.7,2c0.5,0.5,1.1,0.8,1.8,0.8
				c0.5,0,0.9-0.1,1.3-0.3c0.4-0.2,0.7-0.5,0.9-0.8l0.9,0.7C162.3,166.5,161.2,167.1,159.8,167.1z M159.6,159.5
				c-0.6,0-1.1,0.2-1.5,0.6c-0.4,0.4-0.6,1-0.7,1.8h4.2v-0.1c0-0.7-0.2-1.3-0.6-1.7C160.7,159.7,160.2,159.5,159.6,159.5z"/>
			<path class="st5" d="M166.1,158.5l0,1.1c0.6-0.8,1.5-1.2,2.5-1.2c1.8,0,2.7,1,2.7,3v5.6H170v-5.6c0-0.6-0.1-1.1-0.4-1.4
				s-0.7-0.4-1.3-0.4c-0.5,0-0.9,0.1-1.2,0.4c-0.4,0.2-0.6,0.6-0.8,1v6h-1.4v-8.5H166.1z"/>
			<path class="st5" d="M175.5,156.4v2h1.6v1.1h-1.6v5.2c0,0.3,0.1,0.6,0.2,0.8c0.1,0.2,0.4,0.3,0.7,0.3c0.2,0,0.4,0,0.7-0.1v1.2
				c-0.4,0.1-0.8,0.2-1.1,0.2c-0.6,0-1.1-0.2-1.5-0.6s-0.5-0.9-0.5-1.7v-5.2h-1.5v-1.1h1.5v-2H175.5z"/>
			<path class="st5" d="M184,166.9c-0.1-0.2-0.2-0.5-0.2-0.9c-0.7,0.7-1.5,1-2.4,1c-0.8,0-1.5-0.2-2.1-0.7c-0.5-0.5-0.8-1.1-0.8-1.8
				c0-0.9,0.3-1.6,1-2.1c0.7-0.5,1.6-0.7,2.8-0.7h1.4v-0.7c0-0.5-0.2-0.9-0.5-1.2c-0.3-0.3-0.7-0.4-1.3-0.4c-0.5,0-0.9,0.1-1.3,0.4
				c-0.3,0.3-0.5,0.6-0.5,0.9h-1.5c0-0.4,0.1-0.8,0.4-1.2c0.3-0.4,0.7-0.7,1.2-0.9c0.5-0.2,1.1-0.3,1.7-0.3c1,0,1.7,0.2,2.3,0.7
				c0.6,0.5,0.8,1.2,0.9,2v3.9c0,0.8,0.1,1.4,0.3,1.9v0.1H184z M181.6,165.8c0.5,0,0.9-0.1,1.3-0.4s0.7-0.5,0.9-0.9v-1.7h-1.1
				c-1.8,0-2.7,0.5-2.7,1.6c0,0.5,0.2,0.8,0.5,1.1C180.8,165.7,181.2,165.8,181.6,165.8z"/>
			<path class="st5" d="M192.4,164.7c0-0.4-0.1-0.7-0.4-0.9c-0.3-0.2-0.8-0.4-1.5-0.6c-0.7-0.2-1.3-0.3-1.7-0.6s-0.7-0.5-1-0.8
				c-0.2-0.3-0.3-0.7-0.3-1.1c0-0.7,0.3-1.3,0.9-1.8s1.3-0.7,2.2-0.7c1,0,1.7,0.2,2.3,0.7c0.6,0.5,0.9,1.1,0.9,1.9h-1.5
				c0-0.4-0.2-0.7-0.5-1s-0.8-0.4-1.3-0.4c-0.5,0-0.9,0.1-1.2,0.3s-0.4,0.5-0.4,0.9c0,0.3,0.1,0.6,0.4,0.8c0.3,0.2,0.8,0.3,1.5,0.5
				c0.7,0.2,1.3,0.4,1.8,0.6c0.4,0.2,0.8,0.5,1,0.8c0.2,0.3,0.3,0.7,0.3,1.2c0,0.8-0.3,1.4-0.9,1.8c-0.6,0.5-1.4,0.7-2.4,0.7
				c-0.7,0-1.3-0.1-1.8-0.4c-0.5-0.2-0.9-0.6-1.2-1c-0.3-0.4-0.4-0.9-0.4-1.4h1.4c0,0.5,0.2,0.9,0.6,1.2c0.4,0.3,0.8,0.4,1.4,0.4
				c0.5,0,1-0.1,1.3-0.3C192.3,165.3,192.4,165.1,192.4,164.7z"/>
		</g>
		<g class="st4">
			<path class="st5" d="M145.6,203.9h-4.8v5h-1.5v-11.4h7v1.2h-5.5v3.9h4.8V203.9z"/>
			<path class="st5" d="M148,198.2c0-0.2,0.1-0.4,0.2-0.6c0.1-0.2,0.4-0.2,0.6-0.2s0.5,0.1,0.6,0.2c0.1,0.2,0.2,0.4,0.2,0.6
				s-0.1,0.4-0.2,0.6c-0.1,0.2-0.4,0.2-0.6,0.2s-0.5-0.1-0.6-0.2C148,198.7,148,198.5,148,198.2z M149.5,208.9h-1.4v-8.5h1.4V208.9z
				"/>
			<path class="st5" d="M153.2,200.5l0,1.1c0.6-0.8,1.5-1.2,2.5-1.2c1.8,0,2.7,1,2.7,3v5.6H157v-5.6c0-0.6-0.1-1.1-0.4-1.4
				s-0.7-0.4-1.3-0.4c-0.5,0-0.9,0.1-1.2,0.4c-0.4,0.2-0.6,0.6-0.8,1v6h-1.4v-8.5H153.2z"/>
			<path class="st5" d="M165.9,208.9c-0.1-0.2-0.2-0.5-0.2-0.9c-0.7,0.7-1.5,1-2.4,1c-0.8,0-1.5-0.2-2.1-0.7
				c-0.5-0.5-0.8-1.1-0.8-1.8c0-0.9,0.3-1.6,1-2.1c0.7-0.5,1.6-0.7,2.8-0.7h1.4v-0.7c0-0.5-0.2-0.9-0.5-1.2
				c-0.3-0.3-0.7-0.4-1.3-0.4c-0.5,0-0.9,0.1-1.3,0.4c-0.3,0.3-0.5,0.6-0.5,0.9h-1.5c0-0.4,0.1-0.8,0.4-1.2c0.3-0.4,0.7-0.7,1.2-0.9
				c0.5-0.2,1.1-0.3,1.7-0.3c1,0,1.7,0.2,2.3,0.7c0.6,0.5,0.8,1.2,0.9,2v3.9c0,0.8,0.1,1.4,0.3,1.9v0.1H165.9z M163.5,207.8
				c0.5,0,0.9-0.1,1.3-0.4s0.7-0.5,0.9-0.9v-1.7h-1.1c-1.8,0-2.7,0.5-2.7,1.6c0,0.5,0.2,0.8,0.5,1.1
				C162.6,207.7,163,207.8,163.5,207.8z"/>
			<path class="st5" d="M170.7,200.5l0,1.1c0.6-0.8,1.5-1.2,2.5-1.2c1.8,0,2.7,1,2.7,3v5.6h-1.4v-5.6c0-0.6-0.1-1.1-0.4-1.4
				s-0.7-0.4-1.3-0.4c-0.5,0-0.9,0.1-1.2,0.4c-0.4,0.2-0.6,0.6-0.8,1v6h-1.4v-8.5H170.7z"/>
			<path class="st5" d="M179.6,207.7h4.9v1.2h-6.7v-1.1l4.7-6.2h-4.6v-1.2h6.4v1L179.6,207.7z"/>
			<path class="st5" d="M191.3,208.9c-0.1-0.2-0.2-0.5-0.2-0.9c-0.7,0.7-1.5,1-2.4,1c-0.8,0-1.5-0.2-2.1-0.7
				c-0.5-0.5-0.8-1.1-0.8-1.8c0-0.9,0.3-1.6,1-2.1c0.7-0.5,1.6-0.7,2.8-0.7h1.4v-0.7c0-0.5-0.2-0.9-0.5-1.2
				c-0.3-0.3-0.7-0.4-1.3-0.4c-0.5,0-0.9,0.1-1.3,0.4c-0.3,0.3-0.5,0.6-0.5,0.9h-1.5c0-0.4,0.1-0.8,0.4-1.2c0.3-0.4,0.7-0.7,1.2-0.9
				c0.5-0.2,1.1-0.3,1.7-0.3c1,0,1.7,0.2,2.3,0.7c0.6,0.5,0.8,1.2,0.9,2v3.9c0,0.8,0.1,1.4,0.3,1.9v0.1H191.3z M188.9,207.8
				c0.5,0,0.9-0.1,1.3-0.4s0.7-0.5,0.9-0.9v-1.7H190c-1.8,0-2.7,0.5-2.7,1.6c0,0.5,0.2,0.8,0.5,1.1
				C188.1,207.7,188.5,207.8,188.9,207.8z"/>
			<path class="st5" d="M199.8,206.7c0-0.4-0.1-0.7-0.4-0.9c-0.3-0.2-0.8-0.4-1.5-0.6c-0.7-0.2-1.3-0.3-1.7-0.6s-0.7-0.5-1-0.8
				c-0.2-0.3-0.3-0.7-0.3-1.1c0-0.7,0.3-1.3,0.9-1.8s1.3-0.7,2.2-0.7c1,0,1.7,0.2,2.3,0.7c0.6,0.5,0.9,1.1,0.9,1.9h-1.5
				c0-0.4-0.2-0.7-0.5-1s-0.8-0.4-1.3-0.4c-0.5,0-0.9,0.1-1.2,0.3s-0.4,0.5-0.4,0.9c0,0.3,0.1,0.6,0.4,0.8c0.3,0.2,0.8,0.3,1.5,0.5
				c0.7,0.2,1.3,0.4,1.8,0.6c0.4,0.2,0.8,0.5,1,0.8c0.2,0.3,0.3,0.7,0.3,1.2c0,0.8-0.3,1.4-0.9,1.8c-0.6,0.5-1.4,0.7-2.4,0.7
				c-0.7,0-1.3-0.1-1.8-0.4c-0.5-0.2-0.9-0.6-1.2-1c-0.3-0.4-0.4-0.9-0.4-1.4h1.4c0,0.5,0.2,0.9,0.6,1.2c0.4,0.3,0.8,0.4,1.4,0.4
				c0.5,0,1-0.1,1.3-0.3C199.6,207.3,199.8,207.1,199.8,206.7z"/>
		</g>
		<g class="st4">
			<path class="st5" d="M123.7,250.9h-1.5v-11.4h1.5V250.9z"/>
			<path class="st5" d="M127.6,242.5l0,1.1c0.6-0.8,1.5-1.2,2.5-1.2c1.8,0,2.7,1,2.7,3v5.6h-1.4v-5.6c0-0.6-0.1-1.1-0.4-1.4
				s-0.7-0.4-1.3-0.4c-0.5,0-0.9,0.1-1.2,0.4c-0.4,0.2-0.6,0.6-0.8,1v6h-1.4v-8.5H127.6z"/>
		</g>
		<g class="st4">
			<path class="st5" d="M137.8,249l2.1-6.5h1.5l-3,8.5h-1.1l-3.1-8.5h1.5L137.8,249z"/>
		</g>
		<g class="st4">
			<path class="st5" d="M146.1,251.1c-1.1,0-2.1-0.4-2.8-1.1s-1.1-1.8-1.1-3v-0.3c0-0.8,0.2-1.6,0.5-2.2s0.8-1.2,1.3-1.5
				c0.6-0.4,1.2-0.6,1.9-0.6c1.1,0,2,0.4,2.6,1.1s0.9,1.8,0.9,3.1v0.6h-5.7c0,0.8,0.3,1.5,0.7,2c0.5,0.5,1.1,0.8,1.8,0.8
				c0.5,0,0.9-0.1,1.3-0.3c0.4-0.2,0.7-0.5,0.9-0.8l0.9,0.7C148.6,250.5,147.6,251.1,146.1,251.1z M146,243.5
				c-0.6,0-1.1,0.2-1.5,0.6c-0.4,0.4-0.6,1-0.7,1.8h4.2v-0.1c0-0.7-0.2-1.3-0.6-1.7C147,243.7,146.6,243.5,146,243.5z"/>
			<path class="st5" d="M152.5,242.5l0,1.1c0.6-0.8,1.5-1.2,2.5-1.2c1.8,0,2.7,1,2.7,3v5.6h-1.4v-5.6c0-0.6-0.1-1.1-0.4-1.4
				s-0.7-0.4-1.3-0.4c-0.5,0-0.9,0.1-1.2,0.4c-0.4,0.2-0.6,0.6-0.8,1v6h-1.4v-8.5H152.5z"/>
			<path class="st5" d="M161.9,240.4v2h1.6v1.1h-1.6v5.2c0,0.3,0.1,0.6,0.2,0.8c0.1,0.2,0.4,0.3,0.7,0.3c0.2,0,0.4,0,0.7-0.1v1.2
				c-0.4,0.1-0.8,0.2-1.1,0.2c-0.6,0-1.1-0.2-1.5-0.6s-0.5-0.9-0.5-1.7v-5.2h-1.5v-1.1h1.5v-2H161.9z"/>
			<path class="st5" d="M170.4,250.9c-0.1-0.2-0.2-0.5-0.2-0.9c-0.7,0.7-1.5,1-2.4,1c-0.8,0-1.5-0.2-2.1-0.7
				c-0.5-0.5-0.8-1.1-0.8-1.8c0-0.9,0.3-1.6,1-2.1c0.7-0.5,1.6-0.7,2.8-0.7h1.4v-0.7c0-0.5-0.2-0.9-0.5-1.2
				c-0.3-0.3-0.7-0.4-1.3-0.4c-0.5,0-0.9,0.1-1.3,0.4c-0.3,0.3-0.5,0.6-0.5,0.9h-1.5c0-0.4,0.1-0.8,0.4-1.2c0.3-0.4,0.7-0.7,1.2-0.9
				c0.5-0.2,1.1-0.3,1.7-0.3c1,0,1.7,0.2,2.3,0.7c0.6,0.5,0.8,1.2,0.9,2v3.9c0,0.8,0.1,1.4,0.3,1.9v0.1H170.4z M168,249.8
				c0.5,0,0.9-0.1,1.3-0.4s0.7-0.5,0.9-0.9v-1.7H169c-1.8,0-2.7,0.5-2.7,1.6c0,0.5,0.2,0.8,0.5,1.1
				C167.1,249.7,167.5,249.8,168,249.8z"/>
			<path class="st5" d="M178,243.8c-0.2,0-0.5-0.1-0.7-0.1c-0.9,0-1.6,0.4-1.9,1.2v6h-1.4v-8.5h1.4l0,1c0.5-0.8,1.1-1.1,2-1.1
				c0.3,0,0.5,0,0.6,0.1V243.8z"/>
			<path class="st5" d="M179.3,240.2c0-0.2,0.1-0.4,0.2-0.6c0.1-0.2,0.4-0.2,0.6-0.2s0.5,0.1,0.6,0.2c0.1,0.2,0.2,0.4,0.2,0.6
				s-0.1,0.4-0.2,0.6c-0.1,0.2-0.4,0.2-0.6,0.2s-0.5-0.1-0.6-0.2C179.4,240.7,179.3,240.5,179.3,240.2z M180.9,250.9h-1.4v-8.5h1.4
				V250.9z"/>
			<path class="st5" d="M182.8,246.6c0-0.8,0.2-1.6,0.5-2.2c0.3-0.7,0.8-1.2,1.4-1.5c0.6-0.4,1.2-0.5,2-0.5c1.2,0,2.1,0.4,2.8,1.2
				s1.1,1.9,1.1,3.2v0.1c0,0.8-0.2,1.6-0.5,2.2c-0.3,0.7-0.8,1.2-1.4,1.5s-1.3,0.5-2,0.5c-1.1,0-2.1-0.4-2.8-1.2s-1.1-1.9-1.1-3.2
				V246.6z M184.2,246.8c0,0.9,0.2,1.7,0.7,2.3c0.4,0.6,1,0.9,1.7,0.9c0.7,0,1.3-0.3,1.8-0.9c0.4-0.6,0.6-1.4,0.6-2.4
				c0-0.9-0.2-1.7-0.7-2.3c-0.4-0.6-1-0.9-1.8-0.9c-0.7,0-1.3,0.3-1.7,0.9S184.2,245.7,184.2,246.8z"/>
			<path class="st5" d="M198.4,239.6l3.7,9.3l3.7-9.3h1.9v11.4h-1.5v-4.4l0.1-4.8l-3.7,9.2h-1.1l-3.7-9.2l0.1,4.8v4.4h-1.5v-11.4
				H198.4z"/>
			<path class="st5" d="M212,246.5v4.5h-1.5v-11.4h4.2c1.2,0,2.2,0.3,2.9,1c0.7,0.6,1.1,1.5,1.1,2.5c0,1.1-0.3,2-1,2.6
				c-0.7,0.6-1.7,0.9-3,0.9H212z M212,245.2h2.7c0.8,0,1.4-0.2,1.8-0.6c0.4-0.4,0.6-0.9,0.6-1.6c0-0.7-0.2-1.2-0.6-1.6
				c-0.4-0.4-1-0.6-1.8-0.6H212V245.2z"/>
		</g>
		<g transform="translate(378.023 100.066)" class="st2">
			<g>
				
					<image style="overflow:visible;enable-background:new    ;" width="818" height="207" id="a" xlink:href="9681AF.png"  transform="matrix(0.2084 0 0 0.2084 1.757300e-04 0)">
				</image>
			</g>
			<path class="st3" d="M163.9,19.6c0,9-5.5,16.3-12.2,16.3H16C9.3,36,3.8,28.7,3.8,19.6l0,0c0-9,5.5-16.3,12.2-16.3h135.7
				C158.4,3.3,163.9,10.6,163.9,19.6L163.9,19.6z"/>
		</g>
		<g transform="translate(378.023 140.919)" class="st2">
			<g>
				
					<image style="overflow:visible;enable-background:new    ;" width="818" height="207" id="b" xlink:href="9681AC.png"  transform="matrix(0.2084 0 0 0.2084 1.757300e-04 0)">
				</image>
			</g>
			<path class="st3" d="M163.9,19.6c0,9-5.5,16.3-12.2,16.3H16c-6.7,0-12.2-7.3-12.2-16.3l0,0c0-9,5.5-16.3,12.2-16.3h135.7
				C158.4,3.3,163.9,10.6,163.9,19.6L163.9,19.6z"/>
		</g>
		<g transform="translate(378.023 183.649)" class="st2">
			<g>
				
					<image style="overflow:visible;enable-background:new    ;" width="818" height="207" id="c" xlink:href="9681A4.png"  transform="matrix(0.2084 0 0 0.2084 1.757300e-04 0)">
				</image>
			</g>
			<path class="st3" d="M163.9,19.6c0,9-5.5,16.3-12.2,16.3H16c-6.7,0-12.2-7.3-12.2-16.3l0,0c0-9,5.5-16.3,12.2-16.3h135.7
				C158.4,3.2,163.9,10.6,163.9,19.6L163.9,19.6z"/>
		</g>
		<g transform="translate(378.023 226.169)" class="st2">
			
				<image style="overflow:visible;opacity:0.15;enable-background:new    ;" width="818" height="207" xlink:href="9681A6.png"  transform="matrix(0.2084 0 0 0.2084 1.757300e-04 0)">
			</image>
			<path class="st3" d="M163.9,19.6c0,9-5.5,16.3-12.2,16.3H16c-6.7,0-12.2-7.3-12.2-16.3l0,0c0-9,5.5-16.3,12.2-16.3h135.7
				C158.4,3.3,163.9,10.6,163.9,19.6L163.9,19.6z"/>
		</g>
		<g class="st4">
			<path class="st5" d="M419.7,125.9h-1.5v-11.4h1.5V125.9z"/>
			<path class="st5" d="M423.6,117.5l0,1.1c0.6-0.8,1.5-1.2,2.5-1.2c1.8,0,2.7,1,2.7,3v5.6h-1.4v-5.6c0-0.6-0.1-1.1-0.4-1.4
				s-0.7-0.4-1.3-0.4c-0.5,0-0.9,0.1-1.2,0.4c-0.4,0.2-0.6,0.6-0.8,1v6h-1.4v-8.5H423.6z"/>
		</g>
		<g class="st4">
			<path class="st5" d="M433.8,124l2.1-6.5h1.5l-3,8.5h-1.1l-3.1-8.5h1.5L433.8,124z"/>
		</g>
		<g class="st4">
			<path class="st5" d="M442.1,126.1c-1.1,0-2.1-0.4-2.8-1.1s-1.1-1.8-1.1-3v-0.3c0-0.8,0.2-1.6,0.5-2.2s0.8-1.2,1.3-1.5
				c0.6-0.4,1.2-0.6,1.9-0.6c1.1,0,2,0.4,2.6,1.1s0.9,1.8,0.9,3.1v0.6h-5.7c0,0.8,0.3,1.5,0.7,2c0.5,0.5,1.1,0.8,1.8,0.8
				c0.5,0,0.9-0.1,1.3-0.3c0.4-0.2,0.7-0.5,0.9-0.8l0.9,0.7C444.6,125.5,443.6,126.1,442.1,126.1z M442,118.5
				c-0.6,0-1.1,0.2-1.5,0.6c-0.4,0.4-0.6,1-0.7,1.8h4.2v-0.1c0-0.7-0.2-1.3-0.6-1.7C443,118.7,442.6,118.5,442,118.5z"/>
			<path class="st5" d="M448.5,117.5l0,1.1c0.6-0.8,1.5-1.2,2.5-1.2c1.8,0,2.7,1,2.7,3v5.6h-1.4v-5.6c0-0.6-0.1-1.1-0.4-1.4
				s-0.7-0.4-1.3-0.4c-0.5,0-0.9,0.1-1.2,0.4c-0.4,0.2-0.6,0.6-0.8,1v6h-1.4v-8.5H448.5z"/>
			<path class="st5" d="M457.9,115.4v2h1.6v1.1h-1.6v5.2c0,0.3,0.1,0.6,0.2,0.8c0.1,0.2,0.4,0.3,0.7,0.3c0.2,0,0.4,0,0.7-0.1v1.2
				c-0.4,0.1-0.8,0.2-1.1,0.2c-0.6,0-1.1-0.2-1.5-0.6s-0.5-0.9-0.5-1.7v-5.2h-1.5v-1.1h1.5v-2H457.9z"/>
			<path class="st5" d="M466.4,125.9c-0.1-0.2-0.2-0.5-0.2-0.9c-0.7,0.7-1.5,1-2.4,1c-0.8,0-1.5-0.2-2.1-0.7
				c-0.5-0.5-0.8-1.1-0.8-1.8c0-0.9,0.3-1.6,1-2.1c0.7-0.5,1.6-0.7,2.8-0.7h1.4v-0.7c0-0.5-0.2-0.9-0.5-1.2
				c-0.3-0.3-0.7-0.4-1.3-0.4c-0.5,0-0.9,0.1-1.3,0.4c-0.3,0.3-0.5,0.6-0.5,0.9h-1.5c0-0.4,0.1-0.8,0.4-1.2c0.3-0.4,0.7-0.7,1.2-0.9
				c0.5-0.2,1.1-0.3,1.7-0.3c1,0,1.7,0.2,2.3,0.7c0.6,0.5,0.8,1.2,0.9,2v3.9c0,0.8,0.1,1.4,0.3,1.9v0.1H466.4z M464,124.8
				c0.5,0,0.9-0.1,1.3-0.4s0.7-0.5,0.9-0.9v-1.7H465c-1.8,0-2.7,0.5-2.7,1.6c0,0.5,0.2,0.8,0.5,1.1
				C463.1,124.7,463.5,124.8,464,124.8z"/>
			<path class="st5" d="M474,118.8c-0.2,0-0.5-0.1-0.7-0.1c-0.9,0-1.6,0.4-1.9,1.2v6h-1.4v-8.5h1.4l0,1c0.5-0.8,1.1-1.1,2-1.1
				c0.3,0,0.5,0,0.6,0.1V118.8z"/>
			<path class="st5" d="M475.3,115.2c0-0.2,0.1-0.4,0.2-0.6c0.1-0.2,0.4-0.2,0.6-0.2s0.5,0.1,0.6,0.2c0.1,0.2,0.2,0.4,0.2,0.6
				s-0.1,0.4-0.2,0.6c-0.1,0.2-0.4,0.2-0.6,0.2s-0.5-0.1-0.6-0.2C475.4,115.7,475.3,115.5,475.3,115.2z M476.9,125.9h-1.4v-8.5h1.4
				V125.9z"/>
			<path class="st5" d="M478.8,121.6c0-0.8,0.2-1.6,0.5-2.2c0.3-0.7,0.8-1.2,1.4-1.5c0.6-0.4,1.2-0.5,2-0.5c1.2,0,2.1,0.4,2.8,1.2
				s1.1,1.9,1.1,3.2v0.1c0,0.8-0.2,1.6-0.5,2.2c-0.3,0.7-0.8,1.2-1.4,1.5s-1.3,0.5-2,0.5c-1.1,0-2.1-0.4-2.8-1.2s-1.1-1.9-1.1-3.2
				V121.6z M480.2,121.8c0,0.9,0.2,1.7,0.7,2.3c0.4,0.6,1,0.9,1.7,0.9c0.7,0,1.3-0.3,1.8-0.9c0.4-0.6,0.6-1.4,0.6-2.4
				c0-0.9-0.2-1.7-0.7-2.3c-0.4-0.6-1-0.9-1.8-0.9c-0.7,0-1.3,0.3-1.7,0.9S480.2,120.7,480.2,121.8z"/>
			<path class="st5" d="M494.4,114.6l3.7,9.3l3.7-9.3h1.9v11.4h-1.5v-4.4l0.1-4.8l-3.7,9.2h-1.1l-3.7-9.2l0.1,4.8v4.4h-1.5v-11.4
				H494.4z"/>
			<path class="st5" d="M508,121.5v4.5h-1.5v-11.4h4.2c1.2,0,2.2,0.3,2.9,1c0.7,0.6,1.1,1.5,1.1,2.5c0,1.1-0.3,2-1,2.6
				c-0.7,0.6-1.7,0.9-3,0.9H508z M508,120.2h2.7c0.8,0,1.4-0.2,1.8-0.6c0.4-0.4,0.6-0.9,0.6-1.6c0-0.7-0.2-1.2-0.6-1.6
				c-0.4-0.4-1-0.6-1.8-0.6H508V120.2z"/>
		</g>
		<g class="st4">
			<path class="st5" d="M428.4,163.5v4.5h-1.5v-11.4h4.2c1.2,0,2.2,0.3,2.9,1c0.7,0.6,1.1,1.5,1.1,2.5c0,1.1-0.3,2-1,2.6
				c-0.7,0.6-1.7,0.9-3,0.9H428.4z M428.4,162.2h2.7c0.8,0,1.4-0.2,1.8-0.6c0.4-0.4,0.6-0.9,0.6-1.6c0-0.7-0.2-1.2-0.6-1.6
				c-0.4-0.4-1-0.6-1.8-0.6h-2.8V162.2z"/>
		</g>
		<g class="st4">
			<path class="st5" d="M440.9,160.8c-0.2,0-0.5-0.1-0.7-0.1c-0.9,0-1.6,0.4-1.9,1.2v6h-1.4v-8.5h1.4l0,1c0.5-0.8,1.1-1.1,2-1.1
				c0.3,0,0.5,0,0.6,0.1V160.8z"/>
		</g>
		<g class="st4">
			<path class="st5" d="M441.7,163.6c0-0.8,0.2-1.6,0.5-2.2s0.8-1.2,1.4-1.5s1.2-0.5,2-0.5c1.2,0,2.1,0.4,2.8,1.2s1.1,1.9,1.1,3.2
				v0.1c0,0.8-0.2,1.6-0.5,2.2s-0.8,1.2-1.4,1.5s-1.3,0.5-2,0.5c-1.1,0-2.1-0.4-2.8-1.2s-1.1-1.9-1.1-3.2V163.6z M443.1,163.8
				c0,0.9,0.2,1.7,0.7,2.3s1,0.9,1.7,0.9c0.7,0,1.3-0.3,1.8-0.9s0.6-1.4,0.6-2.4c0-0.9-0.2-1.7-0.7-2.3s-1-0.9-1.8-0.9
				c-0.7,0-1.3,0.3-1.7,0.9S443.1,162.7,443.1,163.8z"/>
			<path class="st5" d="M450.8,163.6c0-1.3,0.3-2.3,0.9-3.1s1.4-1.2,2.4-1.2c1,0,1.8,0.3,2.4,1v-4.4h1.4v12h-1.3l-0.1-0.9
				c-0.6,0.7-1.4,1.1-2.4,1.1c-1,0-1.8-0.4-2.4-1.2s-0.9-1.8-0.9-3.1V163.6z M452.3,163.8c0,1,0.2,1.7,0.6,2.2s0.9,0.8,1.6,0.8
				c0.9,0,1.6-0.4,2-1.2v-3.9c-0.4-0.8-1.1-1.2-2-1.2c-0.7,0-1.3,0.3-1.7,0.8S452.3,162.7,452.3,163.8z"/>
			<path class="st5" d="M465.4,167.1c-0.6,0.7-1.4,1-2.5,1c-0.9,0-1.6-0.3-2.1-0.8s-0.7-1.3-0.7-2.3v-5.5h1.4v5.5
				c0,1.3,0.5,1.9,1.6,1.9c1.1,0,1.8-0.4,2.2-1.2v-6.1h1.4v8.5h-1.4L465.4,167.1z"/>
			<path class="st5" d="M472.4,166.9c0.5,0,1-0.2,1.4-0.5s0.6-0.7,0.6-1.2h1.4c0,0.5-0.2,0.9-0.5,1.4s-0.7,0.8-1.2,1
				s-1.1,0.4-1.6,0.4c-1.2,0-2.1-0.4-2.7-1.2s-1-1.8-1-3.2v-0.2c0-0.8,0.2-1.6,0.5-2.2s0.7-1.1,1.3-1.5s1.2-0.5,2-0.5
				c0.9,0,1.7,0.3,2.4,0.9s1,1.3,1,2.2h-1.4c0-0.5-0.2-1-0.6-1.3s-0.8-0.5-1.4-0.5c-0.7,0-1.3,0.3-1.7,0.8s-0.6,1.3-0.6,2.3v0.3
				c0,1,0.2,1.7,0.6,2.2S471.7,166.9,472.4,166.9z"/>
			<path class="st5" d="M480.8,166.9c0.5,0,1-0.2,1.4-0.5s0.6-0.7,0.6-1.2h1.4c0,0.5-0.2,0.9-0.5,1.4s-0.7,0.8-1.2,1
				s-1.1,0.4-1.6,0.4c-1.2,0-2.1-0.4-2.7-1.2s-1-1.8-1-3.2v-0.2c0-0.8,0.2-1.6,0.5-2.2s0.7-1.1,1.3-1.5s1.2-0.5,2-0.5
				c0.9,0,1.7,0.3,2.4,0.9s1,1.3,1,2.2h-1.4c0-0.5-0.2-1-0.6-1.3s-0.8-0.5-1.4-0.5c-0.7,0-1.3,0.3-1.7,0.8s-0.6,1.3-0.6,2.3v0.3
				c0,1,0.2,1.7,0.6,2.2S480.1,166.9,480.8,166.9z"/>
			<path class="st5" d="M485.8,157.2c0-0.2,0.1-0.4,0.2-0.6s0.4-0.2,0.6-0.2s0.5,0.1,0.6,0.2s0.2,0.4,0.2,0.6s-0.1,0.4-0.2,0.6
				s-0.4,0.2-0.6,0.2s-0.5-0.1-0.6-0.2S485.8,157.5,485.8,157.2z M487.4,167.9h-1.4v-8.5h1.4V167.9z"/>
			<path class="st5" d="M489.3,163.6c0-0.8,0.2-1.6,0.5-2.2s0.8-1.2,1.4-1.5s1.2-0.5,2-0.5c1.2,0,2.1,0.4,2.8,1.2s1.1,1.9,1.1,3.2
				v0.1c0,0.8-0.2,1.6-0.5,2.2s-0.8,1.2-1.4,1.5s-1.3,0.5-2,0.5c-1.1,0-2.1-0.4-2.8-1.2s-1.1-1.9-1.1-3.2V163.6z M490.7,163.8
				c0,0.9,0.2,1.7,0.7,2.3s1,0.9,1.7,0.9c0.7,0,1.3-0.3,1.8-0.9s0.6-1.4,0.6-2.4c0-0.9-0.2-1.7-0.7-2.3s-1-0.9-1.8-0.9
				c-0.7,0-1.3,0.3-1.7,0.9S490.7,162.7,490.7,163.8z M493.8,155.9h1.8l-2.1,2.3l-1.2,0L493.8,155.9z"/>
			<path class="st5" d="M500.2,159.5l0,1.1c0.6-0.8,1.5-1.2,2.5-1.2c1.8,0,2.7,1,2.7,3v5.6H504v-5.6c0-0.6-0.1-1.1-0.4-1.4
				s-0.7-0.4-1.3-0.4c-0.5,0-0.9,0.1-1.2,0.4s-0.6,0.6-0.8,1v6h-1.4v-8.5H500.2z"/>
		</g>
		<g class="st4">
			<path class="st5" d="M443.4,206.3c-0.1,1.2-0.6,2.1-1.3,2.8c-0.7,0.7-1.7,1-3,1c-1.3,0-2.4-0.5-3.2-1.4c-0.8-1-1.2-2.3-1.2-3.9
				v-1.1c0-1.1,0.2-2,0.6-2.8c0.4-0.8,0.9-1.4,1.6-1.8c0.7-0.4,1.5-0.6,2.4-0.6c1.2,0,2.2,0.3,2.9,1c0.7,0.7,1.2,1.6,1.3,2.8h-1.5
				c-0.1-0.9-0.4-1.6-0.8-2c-0.4-0.4-1-0.6-1.8-0.6c-1,0-1.7,0.4-2.3,1.1c-0.5,0.7-0.8,1.7-0.8,3v1.1c0,1.2,0.3,2.2,0.8,2.9
				s1.2,1.1,2.2,1.1c0.8,0,1.5-0.2,1.9-0.6s0.7-1,0.9-2H443.4z"/>
			<path class="st5" d="M444.8,205.6c0-0.8,0.2-1.6,0.5-2.2c0.3-0.7,0.8-1.2,1.4-1.5c0.6-0.4,1.2-0.5,2-0.5c1.2,0,2.1,0.4,2.8,1.2
				s1.1,1.9,1.1,3.2v0.1c0,0.8-0.2,1.6-0.5,2.2c-0.3,0.7-0.8,1.2-1.4,1.5s-1.3,0.5-2,0.5c-1.1,0-2.1-0.4-2.8-1.2s-1.1-1.9-1.1-3.2
				V205.6z M446.3,205.8c0,0.9,0.2,1.7,0.7,2.3c0.4,0.6,1,0.9,1.7,0.9c0.7,0,1.3-0.3,1.8-0.9c0.4-0.6,0.6-1.4,0.6-2.4
				c0-0.9-0.2-1.7-0.7-2.3c-0.4-0.6-1-0.9-1.8-0.9c-0.7,0-1.3,0.3-1.7,0.9S446.3,204.7,446.3,205.8z"/>
			<path class="st5" d="M455.7,201.5l0,0.9c0.6-0.7,1.5-1.1,2.5-1.1c1.2,0,2,0.5,2.4,1.4c0.3-0.4,0.6-0.7,1.1-1
				c0.5-0.2,1-0.4,1.6-0.4c1.9,0,2.8,1,2.8,2.9v5.7h-1.4v-5.6c0-0.6-0.1-1.1-0.4-1.4c-0.3-0.3-0.7-0.4-1.4-0.4c-0.5,0-1,0.2-1.3,0.5
				c-0.4,0.3-0.6,0.8-0.6,1.3v5.6h-1.5v-5.5c0-1.2-0.6-1.8-1.8-1.8c-0.9,0-1.6,0.4-1.9,1.2v6.2h-1.4v-8.5H455.7z"/>
			<path class="st5" d="M475.5,205.8c0,1.3-0.3,2.3-0.9,3.1c-0.6,0.8-1.4,1.2-2.4,1.2c-1,0-1.8-0.3-2.4-1v4.1h-1.4v-11.7h1.3
				l0.1,0.9c0.6-0.7,1.4-1.1,2.5-1.1c1,0,1.8,0.4,2.4,1.1c0.6,0.8,0.9,1.8,0.9,3.2V205.8z M474.1,205.6c0-1-0.2-1.7-0.6-2.3
				s-1-0.8-1.7-0.8c-0.9,0-1.5,0.4-2,1.2v4c0.4,0.8,1.1,1.2,2,1.2c0.7,0,1.2-0.3,1.7-0.8C473.8,207.5,474.1,206.7,474.1,205.6z"/>
			<path class="st5" d="M481.4,202.8c-0.2,0-0.5-0.1-0.7-0.1c-0.9,0-1.6,0.4-1.9,1.2v6h-1.4v-8.5h1.4l0,1c0.5-0.8,1.1-1.1,2-1.1
				c0.3,0,0.5,0,0.6,0.1V202.8z"/>
			<path class="st5" d="M487.7,209.9c-0.1-0.2-0.2-0.5-0.2-0.9c-0.7,0.7-1.5,1-2.4,1c-0.8,0-1.5-0.2-2.1-0.7
				c-0.5-0.5-0.8-1.1-0.8-1.8c0-0.9,0.3-1.6,1-2.1c0.7-0.5,1.6-0.7,2.8-0.7h1.4v-0.7c0-0.5-0.2-0.9-0.5-1.2
				c-0.3-0.3-0.7-0.4-1.3-0.4c-0.5,0-0.9,0.1-1.3,0.4c-0.3,0.3-0.5,0.6-0.5,0.9h-1.5c0-0.4,0.1-0.8,0.4-1.2c0.3-0.4,0.7-0.7,1.2-0.9
				c0.5-0.2,1.1-0.3,1.7-0.3c1,0,1.7,0.2,2.3,0.7c0.6,0.5,0.8,1.2,0.9,2v3.9c0,0.8,0.1,1.4,0.3,1.9v0.1H487.7z M485.3,208.8
				c0.5,0,0.9-0.1,1.3-0.4s0.7-0.5,0.9-0.9v-1.7h-1.1c-1.8,0-2.7,0.5-2.7,1.6c0,0.5,0.2,0.8,0.5,1.1
				C484.4,208.7,484.8,208.8,485.3,208.8z"/>
			<path class="st5" d="M496.1,207.7c0-0.4-0.1-0.7-0.4-0.9c-0.3-0.2-0.8-0.4-1.5-0.6c-0.7-0.2-1.3-0.3-1.7-0.6s-0.7-0.5-1-0.8
				c-0.2-0.3-0.3-0.7-0.3-1.1c0-0.7,0.3-1.3,0.9-1.8s1.3-0.7,2.2-0.7c1,0,1.7,0.2,2.3,0.7c0.6,0.5,0.9,1.1,0.9,1.9H496
				c0-0.4-0.2-0.7-0.5-1s-0.8-0.4-1.3-0.4c-0.5,0-0.9,0.1-1.2,0.3s-0.4,0.5-0.4,0.9c0,0.3,0.1,0.6,0.4,0.8c0.3,0.2,0.8,0.3,1.5,0.5
				c0.7,0.2,1.3,0.4,1.8,0.6c0.4,0.2,0.8,0.5,1,0.8c0.2,0.3,0.3,0.7,0.3,1.2c0,0.8-0.3,1.4-0.9,1.8c-0.6,0.5-1.4,0.7-2.4,0.7
				c-0.7,0-1.3-0.1-1.8-0.4c-0.5-0.2-0.9-0.6-1.2-1c-0.3-0.4-0.4-0.9-0.4-1.4h1.4c0,0.5,0.2,0.9,0.6,1.2c0.4,0.3,0.8,0.4,1.4,0.4
				c0.5,0,1-0.1,1.3-0.3C495.9,208.3,496.1,208.1,496.1,207.7z"/>
		</g>
		<g class="st4">
			<path class="st5" d="M446.4,249.9l3.2-9.4h1.6l-4.2,11.4h-1.3l-4.2-11.4h1.6L446.4,249.9z"/>
		</g>
		<g class="st4">
			<path class="st5" d="M455.8,252.1c-1.1,0-2.1-0.4-2.8-1.1s-1.1-1.8-1.1-3v-0.3c0-0.8,0.2-1.6,0.5-2.2s0.8-1.2,1.3-1.5
				s1.2-0.6,1.9-0.6c1.1,0,2,0.4,2.6,1.1s0.9,1.8,0.9,3.1v0.6h-5.7c0,0.8,0.3,1.5,0.7,2s1.1,0.8,1.8,0.8c0.5,0,0.9-0.1,1.3-0.3
				s0.7-0.5,0.9-0.8l0.9,0.7C458.3,251.5,457.2,252.1,455.8,252.1z M455.6,244.5c-0.6,0-1.1,0.2-1.5,0.6s-0.6,1-0.7,1.8h4.2v-0.1
				c0-0.7-0.2-1.3-0.6-1.7S456.2,244.5,455.6,244.5z"/>
			<path class="st5" d="M462.1,243.5l0,1.1c0.6-0.8,1.5-1.2,2.5-1.2c1.8,0,2.7,1,2.7,3v5.6H466v-5.6c0-0.6-0.1-1.1-0.4-1.4
				s-0.7-0.4-1.3-0.4c-0.5,0-0.9,0.1-1.2,0.4s-0.6,0.6-0.8,1v6h-1.4v-8.5H462.1z"/>
			<path class="st5" d="M471.5,241.4v2h1.6v1.1h-1.6v5.2c0,0.3,0.1,0.6,0.2,0.8c0.1,0.2,0.4,0.3,0.7,0.3c0.2,0,0.4,0,0.7-0.1v1.2
				c-0.4,0.1-0.8,0.2-1.1,0.2c-0.6,0-1.1-0.2-1.5-0.6s-0.5-0.9-0.5-1.7v-5.2h-1.5v-1.1h1.5v-2H471.5z"/>
			<path class="st5" d="M480,251.9c-0.1-0.2-0.2-0.5-0.2-0.9c-0.7,0.7-1.5,1-2.4,1c-0.8,0-1.5-0.2-2.1-0.7s-0.8-1.1-0.8-1.8
				c0-0.9,0.3-1.6,1-2.1s1.6-0.7,2.8-0.7h1.4v-0.7c0-0.5-0.2-0.9-0.5-1.2s-0.7-0.4-1.3-0.4c-0.5,0-0.9,0.1-1.3,0.4s-0.5,0.6-0.5,0.9
				h-1.5c0-0.4,0.1-0.8,0.4-1.2s0.7-0.7,1.2-0.9s1.1-0.3,1.7-0.3c1,0,1.7,0.2,2.3,0.7s0.8,1.2,0.9,2v3.9c0,0.8,0.1,1.4,0.3,1.9v0.1
				H480z M477.6,250.8c0.5,0,0.9-0.1,1.3-0.4s0.7-0.5,0.9-0.9v-1.7h-1.1c-1.8,0-2.7,0.5-2.7,1.6c0,0.5,0.2,0.8,0.5,1.1
				S477.2,250.8,477.6,250.8z"/>
			<path class="st5" d="M488.4,249.7c0-0.4-0.1-0.7-0.4-0.9s-0.8-0.4-1.5-0.6s-1.3-0.3-1.7-0.6s-0.7-0.5-1-0.8s-0.3-0.7-0.3-1.1
				c0-0.7,0.3-1.3,0.9-1.8s1.3-0.7,2.2-0.7c1,0,1.7,0.2,2.3,0.7s0.9,1.1,0.9,1.9h-1.5c0-0.4-0.2-0.7-0.5-1s-0.8-0.4-1.3-0.4
				c-0.5,0-0.9,0.1-1.2,0.3s-0.4,0.5-0.4,0.9c0,0.3,0.1,0.6,0.4,0.8s0.8,0.3,1.5,0.5s1.3,0.4,1.8,0.6s0.8,0.5,1,0.8s0.3,0.7,0.3,1.2
				c0,0.8-0.3,1.4-0.9,1.8s-1.4,0.7-2.4,0.7c-0.7,0-1.3-0.1-1.8-0.4s-0.9-0.6-1.2-1s-0.4-0.9-0.4-1.4h1.4c0,0.5,0.2,0.9,0.6,1.2
				s0.8,0.4,1.4,0.4c0.5,0,1-0.1,1.3-0.3S488.4,250.1,488.4,249.7z"/>
		</g>
		<g transform="translate(675.364 100.066)" class="st2">
			<g>
				
					<image style="overflow:visible;enable-background:new    ;" width="818" height="207" id="a_2_" xlink:href="9681A2.png"  transform="matrix(0.2084 0 0 0.2084 1.751479e-04 0)">
				</image>
			</g>
			<path class="st3" d="M163.9,19.6c0,9-5.5,16.3-12.2,16.3H16C9.3,36,3.9,28.7,3.9,19.6l0,0c0-9,5.5-16.3,12.2-16.3h135.7
				C158.4,3.3,163.9,10.6,163.9,19.6L163.9,19.6z"/>
		</g>
		<g transform="translate(675.364 140.919)" class="st2">
			<g>
				
					<image style="overflow:visible;enable-background:new    ;" width="818" height="207" id="b_2_" xlink:href="15C0BD24.png"  transform="matrix(0.2084 0 0 0.2084 1.751479e-04 0)">
				</image>
			</g>
			<path class="st3" d="M163.9,19.6c0,9-5.5,16.3-12.2,16.3H16c-6.7,0-12.2-7.3-12.2-16.3l0,0c0-9,5.5-16.3,12.2-16.3h135.7
				C158.4,3.3,163.9,10.6,163.9,19.6L163.9,19.6z"/>
		</g>
		<g transform="translate(675.364 183.649)" class="st2">
			<g>
				
					<image style="overflow:visible;enable-background:new    ;" width="818" height="207" id="c_2_" xlink:href="15C0BD23.png"  transform="matrix(0.2084 0 0 0.2084 1.751479e-04 0)">
				</image>
			</g>
			<path class="st3" d="M163.9,19.6c0,9-5.5,16.3-12.2,16.3H16c-6.7,0-12.2-7.3-12.2-16.3l0,0c0-9,5.5-16.3,12.2-16.3h135.7
				C158.4,3.2,163.9,10.6,163.9,19.6L163.9,19.6z"/>
		</g>
		<g class="st4">
			<path class="st5" d="M739.4,122.9l3.2-9.4h1.6l-4.2,11.4h-1.3l-4.2-11.4h1.6L739.4,122.9z"/>
		</g>
		<g class="st4">
			<path class="st5" d="M748.8,125.1c-1.1,0-2.1-0.4-2.8-1.1s-1.1-1.8-1.1-3v-0.3c0-0.8,0.2-1.6,0.5-2.2s0.8-1.2,1.3-1.5
				s1.2-0.6,1.9-0.6c1.1,0,2,0.4,2.6,1.1s0.9,1.8,0.9,3.1v0.6h-5.7c0,0.8,0.3,1.5,0.7,2s1.1,0.8,1.8,0.8c0.5,0,0.9-0.1,1.3-0.3
				s0.7-0.5,0.9-0.8l0.9,0.7C751.3,124.5,750.2,125.1,748.8,125.1z M748.6,117.5c-0.6,0-1.1,0.2-1.5,0.6s-0.6,1-0.7,1.8h4.2v-0.1
				c0-0.7-0.2-1.3-0.6-1.7S749.2,117.5,748.6,117.5z"/>
			<path class="st5" d="M755.1,116.5l0,1.1c0.6-0.8,1.5-1.2,2.5-1.2c1.8,0,2.7,1,2.7,3v5.6H759v-5.6c0-0.6-0.1-1.1-0.4-1.4
				s-0.7-0.4-1.3-0.4c-0.5,0-0.9,0.1-1.2,0.4s-0.6,0.6-0.8,1v6h-1.4v-8.5H755.1z"/>
			<path class="st5" d="M764.5,114.4v2h1.6v1.1h-1.6v5.2c0,0.3,0.1,0.6,0.2,0.8c0.1,0.2,0.4,0.3,0.7,0.3c0.2,0,0.4,0,0.7-0.1v1.2
				c-0.4,0.1-0.8,0.2-1.1,0.2c-0.6,0-1.1-0.2-1.5-0.6s-0.5-0.9-0.5-1.7v-5.2h-1.5v-1.1h1.5v-2H764.5z"/>
			<path class="st5" d="M773,124.9c-0.1-0.2-0.2-0.5-0.2-0.9c-0.7,0.7-1.5,1-2.4,1c-0.8,0-1.5-0.2-2.1-0.7s-0.8-1.1-0.8-1.8
				c0-0.9,0.3-1.6,1-2.1s1.6-0.7,2.8-0.7h1.4v-0.7c0-0.5-0.2-0.9-0.5-1.2s-0.7-0.4-1.3-0.4c-0.5,0-0.9,0.1-1.3,0.4s-0.5,0.6-0.5,0.9
				h-1.5c0-0.4,0.1-0.8,0.4-1.2s0.7-0.7,1.2-0.9s1.1-0.3,1.7-0.3c1,0,1.7,0.2,2.3,0.7s0.8,1.2,0.9,2v3.9c0,0.8,0.1,1.4,0.3,1.9v0.1
				H773z M770.6,123.8c0.5,0,0.9-0.1,1.3-0.4s0.7-0.5,0.9-0.9v-1.7h-1.1c-1.8,0-2.7,0.5-2.7,1.6c0,0.5,0.2,0.8,0.5,1.1
				S770.2,123.8,770.6,123.8z"/>
			<path class="st5" d="M781.4,122.7c0-0.4-0.1-0.7-0.4-0.9s-0.8-0.4-1.5-0.6s-1.3-0.3-1.7-0.6s-0.7-0.5-1-0.8s-0.3-0.7-0.3-1.1
				c0-0.7,0.3-1.3,0.9-1.8s1.3-0.7,2.2-0.7c1,0,1.7,0.2,2.3,0.7s0.9,1.1,0.9,1.9h-1.5c0-0.4-0.2-0.7-0.5-1s-0.8-0.4-1.3-0.4
				c-0.5,0-0.9,0.1-1.2,0.3s-0.4,0.5-0.4,0.9c0,0.3,0.1,0.6,0.4,0.8s0.8,0.3,1.5,0.5s1.3,0.4,1.8,0.6s0.8,0.5,1,0.8s0.3,0.7,0.3,1.2
				c0,0.8-0.3,1.4-0.9,1.8s-1.4,0.7-2.4,0.7c-0.7,0-1.3-0.1-1.8-0.4s-0.9-0.6-1.2-1s-0.4-0.9-0.4-1.4h1.4c0,0.5,0.2,0.9,0.6,1.2
				s0.8,0.4,1.4,0.4c0.5,0,1-0.1,1.3-0.3S781.4,123.1,781.4,122.7z"/>
		</g>
		<g class="st4">
			<path class="st5" d="M712.7,166.9h-1.5v-11.4h1.5V166.9z"/>
			<path class="st5" d="M716.6,158.5l0,1.1c0.6-0.8,1.5-1.2,2.5-1.2c1.8,0,2.7,1,2.7,3v5.6h-1.4v-5.6c0-0.6-0.1-1.1-0.4-1.4
				s-0.7-0.4-1.3-0.4c-0.5,0-0.9,0.1-1.2,0.4c-0.4,0.2-0.6,0.6-0.8,1v6h-1.4v-8.5H716.6z"/>
		</g>
		<g class="st4">
			<path class="st5" d="M726.8,165l2.1-6.5h1.5l-3,8.5h-1.1l-3.1-8.5h1.5L726.8,165z"/>
		</g>
		<g class="st4">
			<path class="st5" d="M735.1,167.1c-1.1,0-2.1-0.4-2.8-1.1s-1.1-1.8-1.1-3v-0.3c0-0.8,0.2-1.6,0.5-2.2s0.8-1.2,1.3-1.5
				c0.6-0.4,1.2-0.6,1.9-0.6c1.1,0,2,0.4,2.6,1.1s0.9,1.8,0.9,3.1v0.6h-5.7c0,0.8,0.3,1.5,0.7,2c0.5,0.5,1.1,0.8,1.8,0.8
				c0.5,0,0.9-0.1,1.3-0.3c0.4-0.2,0.7-0.5,0.9-0.8l0.9,0.7C737.6,166.5,736.6,167.1,735.1,167.1z M735,159.5
				c-0.6,0-1.1,0.2-1.5,0.6c-0.4,0.4-0.6,1-0.7,1.8h4.2v-0.1c0-0.7-0.2-1.3-0.6-1.7C736,159.7,735.6,159.5,735,159.5z"/>
			<path class="st5" d="M741.5,158.5l0,1.1c0.6-0.8,1.5-1.2,2.5-1.2c1.8,0,2.7,1,2.7,3v5.6h-1.4v-5.6c0-0.6-0.1-1.1-0.4-1.4
				s-0.7-0.4-1.3-0.4c-0.5,0-0.9,0.1-1.2,0.4c-0.4,0.2-0.6,0.6-0.8,1v6h-1.4v-8.5H741.5z"/>
			<path class="st5" d="M750.9,156.4v2h1.6v1.1h-1.6v5.2c0,0.3,0.1,0.6,0.2,0.8c0.1,0.2,0.4,0.3,0.7,0.3c0.2,0,0.4,0,0.7-0.1v1.2
				c-0.4,0.1-0.8,0.2-1.1,0.2c-0.6,0-1.1-0.2-1.5-0.6s-0.5-0.9-0.5-1.7v-5.2h-1.5v-1.1h1.5v-2H750.9z"/>
			<path class="st5" d="M759.4,166.9c-0.1-0.2-0.2-0.5-0.2-0.9c-0.7,0.7-1.5,1-2.4,1c-0.8,0-1.5-0.2-2.1-0.7
				c-0.5-0.5-0.8-1.1-0.8-1.8c0-0.9,0.3-1.6,1-2.1c0.7-0.5,1.6-0.7,2.8-0.7h1.4v-0.7c0-0.5-0.2-0.9-0.5-1.2
				c-0.3-0.3-0.7-0.4-1.3-0.4c-0.5,0-0.9,0.1-1.3,0.4c-0.3,0.3-0.5,0.6-0.5,0.9h-1.5c0-0.4,0.1-0.8,0.4-1.2c0.3-0.4,0.7-0.7,1.2-0.9
				c0.5-0.2,1.1-0.3,1.7-0.3c1,0,1.7,0.2,2.3,0.7c0.6,0.5,0.8,1.2,0.9,2v3.9c0,0.8,0.1,1.4,0.3,1.9v0.1H759.4z M757,165.8
				c0.5,0,0.9-0.1,1.3-0.4s0.7-0.5,0.9-0.9v-1.7H758c-1.8,0-2.7,0.5-2.7,1.6c0,0.5,0.2,0.8,0.5,1.1
				C756.1,165.7,756.5,165.8,757,165.8z"/>
			<path class="st5" d="M767,159.8c-0.2,0-0.5-0.1-0.7-0.1c-0.9,0-1.6,0.4-1.9,1.2v6h-1.4v-8.5h1.4l0,1c0.5-0.8,1.1-1.1,2-1.1
				c0.3,0,0.5,0,0.6,0.1V159.8z"/>
			<path class="st5" d="M768.3,156.2c0-0.2,0.1-0.4,0.2-0.6c0.1-0.2,0.4-0.2,0.6-0.2s0.5,0.1,0.6,0.2c0.1,0.2,0.2,0.4,0.2,0.6
				s-0.1,0.4-0.2,0.6c-0.1,0.2-0.4,0.2-0.6,0.2s-0.5-0.1-0.6-0.2C768.4,156.7,768.3,156.5,768.3,156.2z M769.9,166.9h-1.4v-8.5h1.4
				V166.9z"/>
			<path class="st5" d="M771.8,162.6c0-0.8,0.2-1.6,0.5-2.2c0.3-0.7,0.8-1.2,1.4-1.5c0.6-0.4,1.2-0.5,2-0.5c1.2,0,2.1,0.4,2.8,1.2
				s1.1,1.9,1.1,3.2v0.1c0,0.8-0.2,1.6-0.5,2.2c-0.3,0.7-0.8,1.2-1.4,1.5s-1.3,0.5-2,0.5c-1.1,0-2.1-0.4-2.8-1.2s-1.1-1.9-1.1-3.2
				V162.6z M773.2,162.8c0,0.9,0.2,1.7,0.7,2.3c0.4,0.6,1,0.9,1.7,0.9c0.7,0,1.3-0.3,1.8-0.9c0.4-0.6,0.6-1.4,0.6-2.4
				c0-0.9-0.2-1.7-0.7-2.3c-0.4-0.6-1-0.9-1.8-0.9c-0.7,0-1.3,0.3-1.7,0.9S773.2,161.7,773.2,162.8z"/>
			<path class="st5" d="M787.4,155.6l3.7,9.3l3.7-9.3h1.9v11.4h-1.5v-4.4l0.1-4.8l-3.7,9.2h-1.1l-3.7-9.2l0.1,4.8v4.4h-1.5v-11.4
				H787.4z"/>
			<path class="st5" d="M801,162.5v4.5h-1.5v-11.4h4.2c1.2,0,2.2,0.3,2.9,1c0.7,0.6,1.1,1.5,1.1,2.5c0,1.1-0.3,2-1,2.6
				c-0.7,0.6-1.7,0.9-3,0.9H801z M801,161.2h2.7c0.8,0,1.4-0.2,1.8-0.6c0.4-0.4,0.6-0.9,0.6-1.6c0-0.7-0.2-1.2-0.6-1.6
				c-0.4-0.4-1-0.6-1.8-0.6H801V161.2z"/>
		</g>
		<g class="st4">
			<path class="st5" d="M729.6,198.8H726v10.1h-1.5v-10.1h-3.6v-1.2h8.8V198.8z"/>
		</g>
		<g class="st4">
			<path class="st5" d="M734.7,201.8c-0.2,0-0.5-0.1-0.7-0.1c-0.9,0-1.6,0.4-1.9,1.2v6h-1.4v-8.5h1.4l0,1c0.5-0.8,1.1-1.1,2-1.1
				c0.3,0,0.5,0,0.6,0.1V201.8z"/>
			<path class="st5" d="M740.9,208.9c-0.1-0.2-0.2-0.5-0.2-0.9c-0.7,0.7-1.5,1-2.4,1c-0.8,0-1.5-0.2-2.1-0.7
				c-0.5-0.5-0.8-1.1-0.8-1.8c0-0.9,0.3-1.6,1-2.1c0.7-0.5,1.6-0.7,2.8-0.7h1.4v-0.7c0-0.5-0.2-0.9-0.5-1.2
				c-0.3-0.3-0.7-0.4-1.3-0.4c-0.5,0-0.9,0.1-1.3,0.4c-0.3,0.3-0.5,0.6-0.5,0.9h-1.5c0-0.4,0.1-0.8,0.4-1.2c0.3-0.4,0.7-0.7,1.2-0.9
				c0.5-0.2,1.1-0.3,1.7-0.3c1,0,1.7,0.2,2.3,0.7c0.6,0.5,0.8,1.2,0.9,2v3.9c0,0.8,0.1,1.4,0.3,1.9v0.1H740.9z M738.5,207.8
				c0.5,0,0.9-0.1,1.3-0.4s0.7-0.5,0.9-0.9v-1.7h-1.1c-1.8,0-2.7,0.5-2.7,1.6c0,0.5,0.2,0.8,0.5,1.1
				C737.7,207.7,738,207.8,738.5,207.8z"/>
			<path class="st5" d="M745.8,200.5l0,1.1c0.6-0.8,1.5-1.2,2.5-1.2c1.8,0,2.7,1,2.7,3v5.6h-1.4v-5.6c0-0.6-0.1-1.1-0.4-1.4
				s-0.7-0.4-1.3-0.4c-0.5,0-0.9,0.1-1.2,0.4c-0.4,0.2-0.6,0.6-0.8,1v6h-1.4v-8.5H745.8z"/>
			<path class="st5" d="M758.1,206.7c0-0.4-0.1-0.7-0.4-0.9c-0.3-0.2-0.8-0.4-1.5-0.6c-0.7-0.2-1.3-0.3-1.7-0.6s-0.7-0.5-1-0.8
				c-0.2-0.3-0.3-0.7-0.3-1.1c0-0.7,0.3-1.3,0.9-1.8s1.3-0.7,2.2-0.7c1,0,1.7,0.2,2.3,0.7c0.6,0.5,0.9,1.1,0.9,1.9h-1.5
				c0-0.4-0.2-0.7-0.5-1s-0.8-0.4-1.3-0.4c-0.5,0-0.9,0.1-1.2,0.3s-0.4,0.5-0.4,0.9c0,0.3,0.1,0.6,0.4,0.8c0.3,0.2,0.8,0.3,1.5,0.5
				c0.7,0.2,1.3,0.4,1.8,0.6c0.4,0.2,0.8,0.5,1,0.8c0.2,0.3,0.3,0.7,0.3,1.2c0,0.8-0.3,1.4-0.9,1.8c-0.6,0.5-1.4,0.7-2.4,0.7
				c-0.7,0-1.3-0.1-1.8-0.4c-0.5-0.2-0.9-0.6-1.2-1c-0.3-0.4-0.4-0.9-0.4-1.4h1.4c0,0.5,0.2,0.9,0.6,1.2c0.4,0.3,0.8,0.4,1.4,0.4
				c0.5,0,1-0.1,1.3-0.3C758,207.3,758.1,207.1,758.1,206.7z"/>
			<path class="st5" d="M768.6,204.8c0,1.3-0.3,2.3-0.9,3.1c-0.6,0.8-1.4,1.2-2.4,1.2c-1,0-1.8-0.3-2.4-1v4.1h-1.4v-11.7h1.3
				l0.1,0.9c0.6-0.7,1.4-1.1,2.5-1.1c1,0,1.8,0.4,2.4,1.1c0.6,0.8,0.9,1.8,0.9,3.2V204.8z M767.2,204.6c0-1-0.2-1.7-0.6-2.3
				s-1-0.8-1.7-0.8c-0.9,0-1.5,0.4-2,1.2v4c0.4,0.8,1.1,1.2,2,1.2c0.7,0,1.2-0.3,1.7-0.8C767,206.5,767.2,205.7,767.2,204.6z"/>
			<path class="st5" d="M770.1,204.6c0-0.8,0.2-1.6,0.5-2.2c0.3-0.7,0.8-1.2,1.4-1.5c0.6-0.4,1.2-0.5,2-0.5c1.2,0,2.1,0.4,2.8,1.2
				s1.1,1.9,1.1,3.2v0.1c0,0.8-0.2,1.6-0.5,2.2c-0.3,0.7-0.8,1.2-1.4,1.5s-1.3,0.5-2,0.5c-1.1,0-2.1-0.4-2.8-1.2s-1.1-1.9-1.1-3.2
				V204.6z M771.5,204.8c0,0.9,0.2,1.7,0.7,2.3c0.4,0.6,1,0.9,1.7,0.9c0.7,0,1.3-0.3,1.8-0.9c0.4-0.6,0.6-1.4,0.6-2.4
				c0-0.9-0.2-1.7-0.7-2.3c-0.4-0.6-1-0.9-1.8-0.9c-0.7,0-1.3,0.3-1.7,0.9S771.5,203.7,771.5,204.8z"/>
		</g>
		<g class="st4">
			<path class="st5" d="M783.7,201.8c-0.2,0-0.5-0.1-0.7-0.1c-0.9,0-1.6,0.4-1.9,1.2v6h-1.4v-8.5h1.4l0,1c0.5-0.8,1.1-1.1,2-1.1
				c0.3,0,0.5,0,0.6,0.1V201.8z"/>
		</g>
		<g class="st4">
			<path class="st5" d="M787.1,198.4v2h1.6v1.1h-1.6v5.2c0,0.3,0.1,0.6,0.2,0.8c0.1,0.2,0.4,0.3,0.7,0.3c0.2,0,0.4,0,0.7-0.1v1.2
				c-0.4,0.1-0.8,0.2-1.1,0.2c-0.6,0-1.1-0.2-1.5-0.6s-0.5-0.9-0.5-1.7v-5.2h-1.5v-1.1h1.5v-2H787.1z"/>
			<path class="st5" d="M793.9,209.1c-1.1,0-2.1-0.4-2.8-1.1s-1.1-1.8-1.1-3v-0.3c0-0.8,0.2-1.6,0.5-2.2s0.8-1.2,1.3-1.5
				c0.6-0.4,1.2-0.6,1.9-0.6c1.1,0,2,0.4,2.6,1.1s0.9,1.8,0.9,3.1v0.6h-5.7c0,0.8,0.3,1.5,0.7,2c0.5,0.5,1.1,0.8,1.8,0.8
				c0.5,0,0.9-0.1,1.3-0.3c0.4-0.2,0.7-0.5,0.9-0.8l0.9,0.7C796.4,208.5,795.3,209.1,793.9,209.1z M793.7,201.5
				c-0.6,0-1.1,0.2-1.5,0.6c-0.4,0.4-0.6,1-0.7,1.8h4.2v-0.1c0-0.7-0.2-1.3-0.6-1.7C794.8,201.7,794.3,201.5,793.7,201.5z"/>
		</g>
		<path class="st6" d="M169.7,0C95.4,0,32.1,28.7,8.6,68.7h28.8l41.7,25.2l41.7-25.2h210C307.4,28.7,244.1,0,169.7,0z"/>
		<path class="st6" d="M899.2,43.9C868.5,16.7,817.9,0,759.2,0c-74.4,0-137.7,28.7-161.1,68.7h28.8l41.7,25.2l41.7-25.2h189.3
			C899.7,68.7,899.3,50.6,899.2,43.9"/>
		<path class="st7" d="M93.1,47.8h-6.4l-1.4,4h-2.1l5.9-15.4h1.8l5.8,15.4h-2.1L93.1,47.8z M87.3,46h5.2L90,39h-0.1L87.3,46z"/>
		<path class="st7" d="M98.7,51.7V36.3h5c1.3-0.1,2.7,0.3,3.8,1c0.9,0.8,1.4,1.9,1.4,3.1c0,0.7-0.2,1.3-0.7,1.8
			c-0.5,0.6-1.1,1-1.7,1.2c0.9,0.2,1.7,0.7,2.2,1.4c0.5,0.7,0.8,1.6,0.8,2.5c0.1,1.2-0.4,2.4-1.4,3.2c-1.1,0.8-2.4,1.2-3.7,1.1
			L98.7,51.7z M100.8,42.9h3.4c0.7,0,1.4-0.2,1.9-0.6c1-1,1-2.6-0.1-3.6c-0.7-0.5-1.5-0.7-2.3-0.6h-2.9L100.8,42.9z M100.8,44.5v5.6
			h3.6c0.8,0,1.6-0.2,2.2-0.7c0.5-0.5,0.8-1.2,0.8-2c0-0.8-0.2-1.5-0.7-2.1c-0.5-0.5-1.3-0.8-2-0.8H100.8z"/>
		<path class="st7" d="M120.9,47.8h-6.4l-1.5,4h-2.1l5.9-15.4h1.7l5.9,15.4h-2.1L120.9,47.8z M115.1,46h5.2l-2.5-7h-0.1L115.1,46z"
			/>
		<path class="st7" d="M135,47.8c0-0.7-0.3-1.3-0.8-1.7c-0.8-0.6-1.8-1-2.8-1.2c-1.4-0.3-2.7-0.9-3.8-1.7c-0.9-0.7-1.4-1.7-1.4-2.8
			c0-1.2,0.5-2.3,1.5-3c1.1-0.8,2.4-1.3,3.8-1.2c1.5-0.1,2.9,0.4,4,1.4c0.9,0.8,1.5,2,1.4,3.2v0.1h-2c0-0.8-0.3-1.6-0.9-2.2
			c-1.5-1.1-3.4-1.1-4.9-0.1c-0.5,0.5-0.8,1.1-0.8,1.8c0,0.7,0.3,1.3,0.9,1.7c0.9,0.6,1.9,1,2.9,1.2c1.4,0.3,2.6,0.9,3.7,1.7
			c0.8,0.7,1.3,1.8,1.3,2.9c0,1.2-0.5,2.3-1.5,3c-1.2,0.8-2.6,1.2-4,1.1c-1.5,0-2.9-0.4-4.1-1.3c-1.1-0.7-1.8-2-1.7-3.3v-0.1h2
			c0,0.9,0.4,1.7,1.1,2.2c0.8,0.5,1.7,0.8,2.7,0.8c0.9,0,1.8-0.2,2.5-0.7C134.6,49.2,135,48.5,135,47.8z"/>
		<path class="st7" d="M150.5,38h-4.9v13.7h-2.1V38h-4.9v-1.6h11.9V38z"/>
		<path class="st7" d="M161.9,44.6h-7v5.5h8.1v1.6h-10.2V36.3h10.1V38h-8v5h7L161.9,44.6z"/>
		<path class="st7" d="M176.2,46.8L176.2,46.8c0.1,1.4-0.5,2.8-1.5,3.7c-1.1,1-2.6,1.5-4.1,1.5c-1.6,0.1-3.2-0.6-4.3-1.8
			c-1.1-1.3-1.7-3-1.6-4.7v-2.7c-0.1-1.7,0.5-3.4,1.6-4.7c1.1-1.2,2.6-1.9,4.3-1.8c1.5-0.1,3,0.4,4.1,1.4c1,0.9,1.6,2.3,1.5,3.7v0.1
			h-2c0-0.9-0.3-1.9-1-2.6c-0.7-0.7-1.7-1-2.7-0.9c-1.1,0-2.1,0.5-2.8,1.4c-0.7,1-1.1,2.2-1,3.5v2.8c0,1.2,0.3,2.5,1,3.5
			c0.6,0.9,1.7,1.4,2.8,1.4c1,0.1,1.9-0.3,2.7-0.9c0.7-0.7,1-1.6,1-2.6L176.2,46.8z"/>
		<path class="st7" d="M181.3,51.7h-2.1V36.3h2.1L181.3,51.7z"/>
		<path class="st7" d="M187.8,36.3l4.9,12.5h0.1l4.9-12.5h2.7v15.4h-2.1v-6.1l0.2-6.2h-0.1l-5,12.3h-1.4l-5-12.3h-0.1l0.2,6.2v6.1
			h-2.1V36.3H187.8z"/>
		<path class="st7" d="M206.4,51.7h-2.1V36.3h2.1V51.7z"/>
		<path class="st7" d="M219.4,44.6h-7v5.5h8.1v1.6h-10.2V36.3h10V38h-8v5h7L219.4,44.6z"/>
		<path class="st7" d="M234.5,51.7h-2l-7.4-11.9H225v11.9h-2.1V36.3h2.1l7.4,11.9h0.1V36.3h2.1L234.5,51.7z"/>
		<path class="st7" d="M248.4,38h-4.9v13.7h-2.1V38h-4.9v-1.6h12V38z"/>
		<path class="st7" d="M262,45.4c0.1,1.7-0.6,3.4-1.7,4.7c-1.2,1.2-2.8,1.9-4.5,1.9c-1.7,0-3.2-0.6-4.3-1.9c-1.1-1.3-1.7-3-1.7-4.7
			v-2.7c-0.1-1.7,0.5-3.4,1.7-4.7c1.1-1.2,2.7-1.9,4.3-1.9c1.7-0.1,3.4,0.6,4.5,1.9c1.2,1.3,1.8,3,1.7,4.7V45.4z M259.9,42.6
			c0.1-1.3-0.3-2.5-1.1-3.5c-0.8-0.9-1.9-1.4-3.1-1.4c-1.1,0-2.2,0.5-2.9,1.4c-0.8,1-1.1,2.2-1.1,3.5v2.8c0,1.2,0.3,2.5,1.1,3.5
			c0.7,0.9,1.8,1.4,2.9,1.3c1.2,0.1,2.3-0.4,3.1-1.3c0.8-1,1.2-2.2,1.1-3.5V42.6z"/>
		<path class="st3" d="M460.1,0C385.8,0,322.5,28.7,299,68.7h28.8l41.7,25.2l41.7-25.2h210C597.8,28.7,534.5,0,460.1,0z"/>
		<path class="st8" d="M316.7,225.5h5.5v1.9h-13.8v-5.3c-0.1-1.2,0.3-2.5,1.1-3.4c1.7-1.6,4.3-1.6,6,0c0.8,1,1.2,2.2,1.1,3.4
			L316.7,225.5z M315.3,225.5v-3.4c0.2-1.4-0.8-2.6-2.2-2.8c-0.1,0-0.3,0-0.4,0c-1.4-0.1-2.6,0.9-2.7,2.3c0,0.1,0,0.3,0,0.4v3.4
			H315.3z"/>
		<path class="st8" d="M320.8,213.1v-6.5h1.5v8.4h-13.7v-1.9L320.8,213.1z"/>
		<path class="st8" d="M318.7,196.9v5.8l3.5,1.3v1.9l-13.7-5.3v-1.6l13.7-5.2v1.9L318.7,196.9z M317.1,202.1v-4.6l-6.3,2.3l0,0
			L317.1,202.1z"/>
		<path class="st8" d="M322.2,181.4v1.8l-10.6,6.6v0.1h10.6v1.9h-13.7v-1.9l10.6-6.6v-0.1h-10.6v-1.9L322.2,181.4z"/>
		<path class="st8" d="M322.2,176v1.9h-13.7V176H322.2z"/>
		<path class="st8" d="M316.1,164.4v6.3h6.1v1.9h-13.7v-9.1h1.5v7.2h4.7v-6.3L316.1,164.4z"/>
		<path class="st8" d="M322.2,159.3v1.9h-13.7v-1.9H322.2z"/>
		<path class="st8" d="M317.8,146.1L317.8,146.1c1.3,0,2.5,0.5,3.3,1.4c0.9,1,1.4,2.3,1.3,3.7c0,1.4-0.6,2.8-1.6,3.8
			c-1.2,1-2.7,1.5-4.2,1.5h-2.4c-1.5,0.1-3-0.5-4.2-1.5c-1.1-1-1.7-2.3-1.7-3.8c-0.1-1.3,0.4-2.7,1.2-3.7c0.8-0.9,2-1.4,3.3-1.3h0.1
			v1.7c-0.9,0-1.7,0.3-2.3,0.9c-0.6,0.6-0.9,1.5-0.9,2.4c0,1,0.4,1.9,1.3,2.5c0.9,0.6,2,1,3.1,0.9h2.5c1.1,0,2.2-0.3,3.1-0.9
			c0.8-0.6,1.3-1.5,1.3-2.5c0-0.9-0.3-1.8-0.9-2.4c-0.6-0.6-1.5-0.9-2.3-0.9L317.8,146.1z"/>
		<path class="st8" d="M318.7,136.1v5.8l3.5,1.3v1.9l-13.7-5.3v-1.6l13.7-5.2v1.9L318.7,136.1z M317.1,141.3v-4.6l-6.3,2.3l0,0
			L317.1,141.3z"/>
		<path class="st8" d="M317.8,121.3L317.8,121.3c1.3,0,2.5,0.5,3.3,1.4c0.9,1,1.4,2.3,1.3,3.7c0,1.4-0.6,2.8-1.6,3.8
			c-1.2,1-2.7,1.5-4.2,1.5h-2.4c-1.5,0.1-3-0.5-4.2-1.5c-1.1-1-1.7-2.3-1.7-3.8c-0.1-1.3,0.4-2.7,1.2-3.7c0.8-0.9,2-1.4,3.3-1.3h0.1
			v1.7c-0.9,0-1.7,0.3-2.3,0.9c-0.6,0.6-0.9,1.5-0.9,2.4c0,1,0.4,1.9,1.3,2.5c0.9,0.7,2,1,3.2,1h2.5c1.1,0,2.2-0.3,3.1-0.9
			c0.8-0.6,1.3-1.5,1.3-2.5c0-0.9-0.3-1.8-0.9-2.4c-0.6-0.6-1.5-0.9-2.3-0.9L317.8,121.3z"/>
		<path class="st8" d="M322.2,116.8v1.9h-13.7v-1.9H322.2z"/>
		<path class="st8" d="M316.6,102.9c1.5-0.1,3.1,0.5,4.2,1.6c1.1,1.1,1.7,2.5,1.7,4.1c0,1.5-0.6,2.9-1.7,3.9c-1.2,1-2.7,1.6-4.2,1.5
			h-2.4c-1.5,0-3-0.5-4.2-1.5c-1.1-1-1.7-2.4-1.7-3.9c-0.1-1.5,0.6-3,1.7-4.1c1.1-1.1,2.6-1.6,4.2-1.6H316.6z M314.1,104.8
			c-1.1,0-2.2,0.3-3.1,1c-0.8,0.7-1.3,1.7-1.2,2.8c0,1,0.4,2,1.2,2.6c0.9,0.7,2,1,3.1,1h2.5c1.1,0,2.2-0.3,3.1-1
			c0.8-0.6,1.2-1.6,1.2-2.6c0-1.1-0.4-2.1-1.2-2.7c-0.9-0.7-2-1.1-3.1-1L314.1,104.8z M304.8,107.5v-2.2h0.1l2.5,2.6v1.4
			L304.8,107.5z"/>
		<path class="st8" d="M322.2,89.7v1.9l-10.6,6.6v0.1h10.6v1.9h-13.7v-1.9l10.6-6.6v-0.1h-10.6v-1.9H322.2z"/>
		<path class="st8" d="M612.8,202.8v-6.4h1.4v8.2h-13.5v-1.8H612.8z"/>
		<path class="st8" d="M608.7,184.3c1.5-0.1,3,0.5,4.1,1.5c1.1,1,1.7,2.5,1.6,4c0,1.5-0.5,2.9-1.6,3.8c-1.1,1-2.6,1.5-4.1,1.5h-2.4
			c-1.5,0-3-0.5-4.1-1.5c-1.1-1-1.7-2.4-1.6-3.8c-0.1-1.5,0.5-3,1.6-4c1.1-1,2.6-1.6,4.1-1.5L608.7,184.3z M606.2,186.2
			c-1.1,0-2.2,0.3-3,1c-0.8,0.7-1.2,1.7-1.2,2.7c0,1,0.4,1.9,1.2,2.5c0.9,0.7,1.9,1,3,0.9h2.4c1.1,0,2.2-0.3,3.1-0.9
			c0.8-0.6,1.2-1.6,1.2-2.5c0-1-0.4-2-1.2-2.7c-0.9-0.7-2-1-3.1-1L606.2,186.2z"/>
		<path class="st8" d="M612.4,171.8c0.6,0.4,1.1,1,1.4,1.7c0.5,1,0.7,2,0.6,3.1c0.1,1.5-0.5,2.9-1.5,4c-1.1,1.1-2.5,1.6-4,1.6h-2.8
			c-1.5,0.1-2.9-0.5-4-1.5c-1-1-1.6-2.4-1.6-3.8c-0.1-1.3,0.3-2.6,1.1-3.6c0.7-0.9,1.8-1.4,2.9-1.4h0.1v1.7c-0.7,0-1.4,0.3-1.9,0.9
			c-0.5,0.7-0.8,1.5-0.8,2.3c0,1,0.4,1.9,1.2,2.5c0.8,0.7,1.9,1,2.9,0.9h2.8c1.1,0,2.1-0.3,3-1.1c0.8-0.7,1.2-1.7,1.2-2.7
			c0-0.6-0.1-1.3-0.3-1.9c-0.1-0.4-0.4-0.7-0.7-1H609v3h-1.4v-4.8L612.4,171.8z"/>
		<path class="st8" d="M614.2,166.7v1.8h-13.5v-1.8H614.2z M597.3,166.8v-2.1h0.1l2.4,2.5v1.3L597.3,166.8z"/>
		<path class="st8" d="M610.8,155.9c-0.6,0-1.2,0.2-1.5,0.7c-0.5,0.7-0.9,1.6-1,2.5c-0.2,1.2-0.8,2.4-1.5,3.3
			c-0.6,0.8-1.5,1.2-2.5,1.2c-1,0-2-0.5-2.6-1.3c-0.7-1-1.1-2.1-1.1-3.4c-0.1-1.3,0.4-2.6,1.2-3.5c0.7-0.8,1.7-1.3,2.8-1.3h0.1v1.7
			c-0.7,0-1.4,0.3-1.9,0.8c-0.9,1.3-1,3-0.1,4.3c0.4,0.5,1,0.7,1.6,0.7c0.6,0,1.1-0.3,1.5-0.8c0.5-0.8,0.9-1.7,1-2.6
			c0.2-1.2,0.8-2.3,1.6-3.2c0.6-0.7,1.6-1.1,2.5-1.1c1,0,2,0.5,2.6,1.3c0.7,1,1,2.2,1,3.5c0,1.3-0.4,2.5-1.1,3.6
			c-0.6,1-1.8,1.6-2.9,1.5h-0.1v-1.7c0.8,0,1.5-0.3,2-1c0.5-0.7,0.7-1.5,0.7-2.4c0-0.8-0.2-1.5-0.6-2.2
			C612,156.2,611.4,155.9,610.8,155.9z"/>
		<path class="st8" d="M602.2,142.3v4.3h12.1v1.9h-12.1v4.3h-1.4v-10.5H602.2z"/>
		<path class="st8" d="M614.2,138.4v1.8h-13.5v-1.8H614.2z"/>
		<path class="st8" d="M609.9,125.4L609.9,125.4c1.3-0.1,2.4,0.4,3.2,1.3c0.9,1,1.3,2.3,1.3,3.6c0,1.4-0.6,2.8-1.6,3.7
			c-1.1,1-2.6,1.5-4.1,1.4h-2.4c-1.5,0.1-3-0.5-4.1-1.4c-1.1-0.9-1.7-2.3-1.6-3.7c-0.1-1.3,0.4-2.6,1.2-3.6c0.8-0.9,2-1.4,3.2-1.3
			h0.1v1.7c-0.8,0-1.6,0.3-2.2,0.9c-0.6,0.6-0.9,1.5-0.9,2.4c0,1,0.4,1.9,1.2,2.4c0.9,0.6,2,0.9,3.1,0.9h2.4
			c1.1,0.1,2.2-0.3,3.1-0.9c0.8-0.6,1.2-1.5,1.2-2.4c0.1-0.9-0.2-1.7-0.8-2.4c-0.6-0.6-1.4-0.9-2.3-0.9L609.9,125.4z"/>
		<path class="st8" d="M610.7,115.6v5.7l3.5,1.3v1.9l-13.5-5.2v-1.6l13.5-5.1v1.9L610.7,115.6z M609.2,120.7v-4.5l-6.1,2.2v0.1
			L609.2,120.7z"/>
		<path class="st9" d="M398.6,45.6v6.1h-2V36.6h5.8c1.4-0.1,2.7,0.4,3.8,1.2c1.8,1.8,1.8,4.7,0,6.6c-1.1,0.9-2.4,1.3-3.8,1.2
			L398.6,45.6z M398.6,44h3.7c0.8,0.1,1.7-0.2,2.3-0.8c0.5-0.6,0.8-1.3,0.8-2.1c0-0.8-0.3-1.5-0.8-2.1c-0.6-0.6-1.4-0.9-2.3-0.9
			h-3.7V44z"/>
		<path class="st9" d="M412.3,45.2v6.5h-2V36.6h5.5c1.4-0.1,2.7,0.3,3.8,1.1c0.9,0.8,1.4,2,1.3,3.2c0,0.7-0.2,1.4-0.6,2
			c-0.4,0.6-1,1.1-1.7,1.4c0.7,0.2,1.4,0.7,1.8,1.3c0.4,0.7,0.6,1.5,0.5,2.2v1.4c0,0.4,0,0.9,0.2,1.3c0.1,0.3,0.3,0.7,0.5,0.9v0.3
			h-2.2c-0.3-0.3-0.5-0.6-0.5-1c-0.1-0.5-0.1-0.9-0.1-1.4v-1.4c0-0.7-0.2-1.4-0.7-2c-0.5-0.5-1.2-0.8-1.9-0.7L412.3,45.2z
			 M412.3,43.5h3.2c0.9,0.1,1.8-0.2,2.5-0.7c0.5-0.5,0.8-1.3,0.8-2c0-0.7-0.2-1.5-0.7-2c-0.7-0.5-1.5-0.8-2.3-0.7h-3.4V43.5z"/>
		<path class="st9" d="M435.7,45.5c0.1,1.7-0.6,3.4-1.7,4.6c-1.2,1.2-2.8,1.9-4.5,1.8c-1.6,0.1-3.2-0.6-4.3-1.8
			c-1.1-1.3-1.7-2.9-1.6-4.6v-2.7c-0.1-1.7,0.5-3.3,1.7-4.6c1.1-1.2,2.7-1.9,4.3-1.8c1.7,0,3.3,0.6,4.4,1.8c1.2,1.2,1.8,2.9,1.7,4.6
			V45.5z M433.7,42.8c0.1-1.2-0.3-2.4-1.1-3.4c-0.7-0.9-1.9-1.4-3-1.3c-1.1,0-2.2,0.5-2.8,1.3c-0.7,1-1.1,2.2-1.1,3.4v2.7
			c-0.1,1.2,0.3,2.4,1.1,3.4c0.7,0.9,1.7,1.4,2.8,1.3c1.2,0,2.3-0.4,3-1.3c0.8-1,1.2-2.2,1.1-3.4L433.7,42.8z"/>
		<path class="st9" d="M438.8,51.7V36.6h4.6c3.4-0.2,6.4,2.4,6.6,5.8c0,0.2,0,0.5,0,0.7v2c0.2,3.4-2.4,6.3-5.9,6.5
			c-0.2,0-0.5,0-0.7,0L438.8,51.7z M440.8,38.2v11.9h2.6c1.3,0.1,2.5-0.4,3.3-1.4c0.8-1,1.2-2.3,1.2-3.6v-2.1c0-1.3-0.4-2.5-1.2-3.5
			c-0.8-0.9-2.1-1.4-3.3-1.4L440.8,38.2z"/>
		<path class="st9" d="M463.8,36.6v10.2c0.1,1.4-0.5,2.8-1.6,3.8c-1.2,0.9-2.7,1.4-4.2,1.3c-1.5,0.1-2.9-0.4-4-1.3
			c-1.1-1-1.6-2.3-1.6-3.8V36.6h2v10.2c-0.1,1,0.3,1.9,1,2.6c0.7,0.6,1.7,0.9,2.6,0.9c1,0.1,1.9-0.3,2.7-0.9c0.7-0.7,1.1-1.6,1-2.6
			V36.6H463.8z"/>
		<path class="st9" d="M477.8,46.9L477.8,46.9c0.1,1.4-0.5,2.7-1.5,3.6c-1.1,1-2.6,1.5-4.1,1.4c-1.6,0-3.1-0.6-4.2-1.8
			c-1.1-1.3-1.7-2.9-1.6-4.6v-2.7c-0.1-1.7,0.5-3.3,1.6-4.6c1-1.2,2.6-1.9,4.2-1.8c1.5-0.1,2.9,0.4,4.1,1.4c1,0.9,1.6,2.2,1.5,3.6
			v0.1h-2c0-0.9-0.3-1.8-0.9-2.5c-0.7-0.6-1.6-1-2.6-0.9c-1.1,0-2.1,0.5-2.7,1.4c-0.7,1-1.1,2.2-1,3.4v2.7c-0.1,1.2,0.3,2.5,1,3.5
			c0.6,0.9,1.6,1.4,2.7,1.4c1,0.1,1.9-0.3,2.6-0.9c0.7-0.7,1-1.6,0.9-2.5L477.8,46.9z"/>
		<path class="st9" d="M491.3,46.9L491.3,46.9c0.1,1.4-0.5,2.7-1.5,3.6c-1.1,1-2.6,1.5-4.1,1.4c-1.6,0-3.1-0.6-4.2-1.8
			c-1.1-1.3-1.7-2.9-1.6-4.6v-2.7c-0.1-1.7,0.5-3.3,1.6-4.6c1-1.2,2.6-1.9,4.2-1.8c1.5-0.1,2.9,0.4,4.1,1.4c1,0.9,1.6,2.2,1.5,3.6
			v0.1h-2c0-0.9-0.3-1.8-0.9-2.5c-0.7-0.6-1.6-1-2.6-0.9c-1.1,0-2.1,0.5-2.7,1.4c-0.7,1-1.1,2.2-1,3.4v2.7c-0.1,1.2,0.3,2.5,1,3.5
			c0.6,0.9,1.6,1.4,2.7,1.4c1,0.1,1.9-0.3,2.6-0.9c0.7-0.7,1-1.6,0.9-2.6L491.3,46.9z"/>
		<path class="st9" d="M496.2,51.7h-2.1V36.6h2.1V51.7z"/>
		<path class="st9" d="M511.5,45.5c0,1.7-0.6,3.4-1.7,4.6c-1.2,1.2-2.8,1.9-4.5,1.8c-1.6,0.1-3.2-0.6-4.3-1.8
			c-1.1-1.3-1.7-2.9-1.7-4.6v-2.7c-0.1-1.7,0.5-3.3,1.7-4.6c1.1-1.2,2.7-1.9,4.3-1.8c1.7-0.1,3.3,0.6,4.5,1.8
			c1.2,1.2,1.8,2.9,1.7,4.6V45.5z M509.4,42.8c0.1-1.2-0.3-2.4-1.1-3.4c-0.7-0.9-1.9-1.4-3-1.3c-1.1,0-2.2,0.5-2.8,1.3
			c-0.7,1-1.1,2.2-1.1,3.4v2.7c-0.1,1.2,0.3,2.4,1.1,3.4c0.7,0.9,1.7,1.4,2.8,1.3c1.2,0,2.3-0.4,3-1.3c0.8-1,1.2-2.2,1.1-3.4V42.8z
			 M506.4,32.6h2.4v0.1l-2.7,2.7h-1.5L506.4,32.6z"/>
		<path class="st9" d="M526,51.7h-2L516.6,40h-0.1v11.7h-2V36.6h2l7.3,11.7h0.1V36.6h2.1L526,51.7z"/>
		<path class="st9" d="M694,51.7V36.5h4.7c3.5-0.2,6.4,2.4,6.6,5.9c0,0.2,0,0.5,0,0.7v2.1c0.2,3.5-2.5,6.4-5.9,6.6
			c-0.2,0-0.5,0-0.7,0L694,51.7z M696.1,38.1v12h2.6c1.3,0.1,2.5-0.4,3.3-1.4c0.8-1,1.3-2.3,1.2-3.6V43c0-1.3-0.4-2.6-1.2-3.6
			c-0.8-0.9-2.1-1.5-3.3-1.4L696.1,38.1z"/>
		<path class="st9" d="M710.4,51.7h-2.1V36.5h2.1V51.7z"/>
		<path class="st9" d="M722.6,47.9c0-0.7-0.3-1.3-0.8-1.7c-0.8-0.6-1.8-1-2.8-1.2c-1.4-0.3-2.7-0.9-3.8-1.7
			c-0.9-0.7-1.4-1.7-1.4-2.8c0-1.2,0.5-2.3,1.5-3c1.1-0.8,2.4-1.3,3.8-1.2c1.5-0.1,2.9,0.4,4,1.4c0.9,0.8,1.5,2,1.4,3.2v0.1h-2
			c0-0.8-0.3-1.6-0.9-2.2c-0.7-0.6-1.6-0.9-2.5-0.9c-0.8-0.1-1.7,0.2-2.4,0.7c-0.6,0.4-0.9,1.1-0.9,1.8c0,0.7,0.3,1.3,0.9,1.7
			c0.9,0.6,1.9,1,2.9,1.2c1.4,0.3,2.6,0.9,3.7,1.7c0.8,0.7,1.3,1.8,1.3,2.9c0.1,1.2-0.5,2.4-1.4,3.1c-1.2,0.8-2.5,1.2-3.9,1.1
			c-1.4,0-2.9-0.4-4-1.2c-1.1-0.7-1.8-2-1.7-3.3v-0.1h2c0,0.9,0.4,1.7,1.1,2.2c0.8,0.5,1.7,0.8,2.7,0.8c0.9,0,1.7-0.2,2.5-0.7
			C722.3,49.3,722.6,48.6,722.6,47.9z"/>
		<path class="st9" d="M738,38.1h-4.9v13.7H731V38.1h-4.9v-1.6H738V38.1z"/>
		<path class="st9" d="M742.3,45.1v6.6h-2.1V36.5h5.5c1.4-0.1,2.7,0.3,3.8,1.1c0.9,0.8,1.4,2,1.4,3.2c0,0.7-0.2,1.4-0.6,2.1
			c-0.5,0.6-1.1,1.1-1.8,1.4c0.7,0.2,1.4,0.7,1.8,1.3c0.4,0.7,0.6,1.5,0.5,2.3v1.4c0,0.4,0,0.9,0.2,1.3c0.1,0.4,0.3,0.7,0.5,0.9v0.3
			h-2.1c-0.3-0.3-0.5-0.7-0.5-1.1c-0.1-0.5-0.1-0.9-0.1-1.4v-1.4c0-0.7-0.2-1.5-0.7-2c-0.5-0.5-1.2-0.8-1.9-0.8L742.3,45.1z
			 M742.3,43.5h3.3c0.9,0.1,1.8-0.2,2.5-0.7c0.5-0.5,0.8-1.3,0.8-2c0-0.7-0.2-1.5-0.7-2c-0.7-0.5-1.5-0.8-2.3-0.7h-3.5L742.3,43.5z"
			/>
		<path class="st9" d="M756.7,51.7h-2.1V36.5h2.1V51.7z"/>
		<path class="st9" d="M760.6,51.7V36.5h5c1.3-0.1,2.6,0.3,3.7,1c0.9,0.7,1.4,1.9,1.4,3.1c0,0.7-0.2,1.3-0.7,1.8
			c-0.5,0.6-1.1,1-1.7,1.2c0.9,0.2,1.6,0.6,2.2,1.4c0.5,0.7,0.8,1.6,0.8,2.5c0.1,1.2-0.4,2.4-1.4,3.2c-1.1,0.8-2.4,1.2-3.7,1.1
			L760.6,51.7z M762.6,42.9h3.3c0.7,0,1.4-0.2,1.9-0.6c0.5-0.4,0.8-1.1,0.7-1.7c0.1-0.7-0.2-1.4-0.8-1.8c-0.7-0.4-1.5-0.7-2.2-0.6
			h-2.9L762.6,42.9z M762.6,44.6v5.5h3.6c0.8,0.1,1.6-0.2,2.2-0.7c0.5-0.5,0.8-1.2,0.8-2c0-0.8-0.2-1.5-0.7-2.1
			c-0.5-0.5-1.3-0.8-2-0.8L762.6,44.6z"/>
		<path class="st9" d="M785.5,36.5v10.4c0.1,1.5-0.5,2.9-1.6,3.8c-1.2,0.9-2.7,1.4-4.2,1.3c-1.5,0.1-2.9-0.4-4.1-1.3
			c-1.1-1-1.7-2.4-1.6-3.8V36.5h2.1v10.3c-0.1,1,0.3,1.9,1,2.6c0.7,0.6,1.7,0.9,2.6,0.9c1,0.1,2-0.3,2.7-0.9c0.7-0.7,1.1-1.6,1-2.6
			V36.5H785.5z"/>
		<path class="st9" d="M799.6,46.8L799.6,46.8c0.1,1.4-0.5,2.8-1.5,3.7c-1.1,1-2.6,1.5-4.1,1.4c-1.6,0.1-3.2-0.6-4.2-1.8
			c-1.1-1.3-1.7-3-1.6-4.7v-2.7c-0.1-1.7,0.5-3.4,1.6-4.7c1.1-1.2,2.6-1.9,4.2-1.8c1.5-0.1,3,0.4,4.1,1.4c1,0.9,1.6,2.3,1.5,3.7v0.1
			h-2c0.1-0.9-0.3-1.9-0.9-2.5c-0.7-0.7-1.7-1-2.7-0.9c-1.1,0-2.1,0.5-2.8,1.4c-0.7,1-1.1,2.2-1,3.5v2.7c0,1.2,0.3,2.5,1,3.5
			c0.6,0.9,1.7,1.4,2.8,1.4c1,0.1,1.9-0.3,2.7-0.9c0.7-0.7,1-1.6,0.9-2.6L799.6,46.8z"/>
		<path class="st9" d="M804.6,51.7h-2.1V36.5h2.1V51.7z"/>
		<path class="st9" d="M820.1,45.4c0.1,1.7-0.6,3.4-1.7,4.6c-1.2,1.2-2.8,1.9-4.5,1.8c-1.6,0.1-3.2-0.6-4.3-1.8
			c-1.1-1.3-1.7-2.9-1.7-4.6v-2.7c-0.1-1.7,0.5-3.4,1.7-4.6c1.1-1.2,2.7-1.9,4.3-1.9c1.7-0.1,3.3,0.6,4.5,1.9
			c1.2,1.3,1.8,2.9,1.7,4.6V45.4z M818,42.7c0.1-1.3-0.3-2.5-1.1-3.5c-0.8-0.9-1.9-1.4-3-1.3c-1.1,0-2.2,0.5-2.9,1.3
			c-0.8,1-1.1,2.2-1.1,3.5v2.7c-0.1,1.2,0.3,2.5,1.1,3.5c0.7,0.9,1.8,1.4,2.9,1.3c1.2,0,2.3-0.4,3-1.3c0.8-1,1.2-2.2,1.1-3.5
			L818,42.7z M815,32.4h2.4v0.1l-2.8,2.7H813L815,32.4z"/>
		<path class="st9" d="M834.7,51.7h-2.1l-7.4-11.8h-0.1v11.8h-2.1V36.5h2.1l7.4,11.8h0.1V36.5h2.1V51.7z"/>
		<path class="st10" d="M37.5,49.1c0.1-2.3-1.6-4.2-3.8-4.3H3.8c-2.3,0.2-4,2.1-3.8,4.3V268c-0.1,2.3,1.6,4.2,3.8,4.3h29.8
			c2.3-0.1,4-2.1,3.8-4.3L37.5,49.1z"/>
		<path class="st10" d="M904,39c0-2.6-1.7-4.7-3.8-4.7h-29.8c-2.1,0-3.8,2.1-3.8,4.7v239.1c0,2.6,1.7,4.8,3.8,4.8h29.8
			c2.1,0,3.8-2.1,3.8-4.8V39z"/>
		<path class="st5" d="M20.6,239.4h6.8v2.3h-17v-6.5c-0.1-1.5,0.4-3,1.4-4.2c2-2,5.3-2,7.4,0c1,1.2,1.5,2.7,1.4,4.2L20.6,239.4z
			 M18.8,239.4v-4.2c0-1.9-1.4-3.4-3.3-3.4c-0.8,0-1.7,0.3-2.3,0.9c-0.7,0.7-1,1.6-0.9,2.6v4.2H18.8z"/>
		<path class="st5" d="M20,224.1h7.3v2.3H10.4v-6.1c-0.1-1.5,0.3-3,1.2-4.2c0.9-1,2.2-1.5,3.6-1.5c0.8,0,1.6,0.2,2.3,0.7
			c0.7,0.5,1.2,1.2,1.5,2c0.2-0.8,0.8-1.5,1.5-2c0.8-0.4,1.6-0.6,2.5-0.6h1.6c0.5,0,1-0.1,1.4-0.2c0.4-0.1,0.7-0.3,1-0.6h0.3v2.4
			c-0.3,0.3-0.7,0.5-1.2,0.6c-0.5,0.1-1.1,0.1-1.6,0.1H23c-0.8,0-1.6,0.3-2.2,0.8c-0.6,0.6-0.9,1.3-0.9,2.2L20,224.1z M18.2,224.1
			v-3.6c0.1-1-0.2-2-0.7-2.8c-0.6-0.6-1.4-0.9-2.2-0.9c-0.8,0-1.6,0.3-2.2,0.9c-0.6,0.7-0.9,1.7-0.8,2.6v3.8L18.2,224.1z"/>
		<path class="st5" d="M20.4,197.8c1.9-0.1,3.8,0.6,5.2,1.9c1.4,1.3,2.1,3.1,2.1,5c0.1,1.8-0.7,3.6-2.1,4.8
			c-1.4,1.3-3.3,1.9-5.2,1.9h-3c-1.9,0.1-3.7-0.6-5.2-1.9c-1.4-1.2-2.1-3-2-4.8c-0.1-1.9,0.7-3.7,2.1-5c1.4-1.3,3.3-2,5.2-1.9H20.4z
			 M17.3,200c-1.4-0.1-2.7,0.4-3.8,1.3c-1,0.8-1.5,2.1-1.5,3.4c0,1.2,0.5,2.4,1.5,3.2c1.1,0.8,2.4,1.2,3.8,1.2h3
			c1.4,0.1,2.7-0.4,3.8-1.2c1-0.8,1.5-2,1.5-3.2c0.1-1.3-0.5-2.5-1.5-3.4c-1.1-0.9-2.5-1.3-3.8-1.3L17.3,200z"/>
		<path class="st5" d="M23.1,189.6l1.3-0.4v-0.1l-1.3-0.4l-12.7-4.3v-2.5l16.9,6.3v2l-16.9,6.3V194L23.1,189.6z"/>
		<path class="st5" d="M19.5,169.5v7.8h6.1v-9h1.8v11.2h-17v-11.1h1.8v8.8h5.5v-7.8H19.5z"/>
		<path class="st5" d="M19.5,155.5v7.7h6.1v-8.9h1.8v11.3h-17v-11.1h1.8v8.8h5.5v-7.8L19.5,155.5z"/>
		<path class="st5" d="M27.3,151.7H10.4v-5.2c-0.2-3.8,2.7-7.1,6.5-7.4c0.3,0,0.5,0,0.8,0H20c3.8-0.2,7.1,2.7,7.3,6.6
			c0,0.3,0,0.5,0,0.8L27.3,151.7z M12.2,149.4h13.3v-2.9c0.1-1.4-0.5-2.8-1.5-3.7c-1.1-0.9-2.5-1.4-4-1.4h-2.3
			c-1.4-0.1-2.8,0.4-3.9,1.4c-1,0.9-1.6,2.3-1.5,3.7L12.2,149.4z"/>
		<path class="st5" d="M20.4,123.1c1.9-0.1,3.8,0.6,5.2,1.9c1.4,1.3,2.1,3.1,2.1,5c0.1,1.8-0.7,3.6-2.1,4.8
			c-1.4,1.3-3.3,1.9-5.2,1.9h-3c-1.9,0.1-3.7-0.6-5.2-1.9c-1.4-1.2-2.1-3-2-4.8c-0.1-1.9,0.7-3.7,2-5c1.4-1.3,3.3-2,5.2-1.9
			L20.4,123.1z M17.3,125.4c-1.4-0.1-2.7,0.4-3.8,1.3c-1,0.8-1.5,2.1-1.5,3.4c0,1.2,0.5,2.4,1.5,3.2c1.1,0.8,2.4,1.2,3.8,1.2h3
			c1.4,0.1,2.7-0.4,3.8-1.2c1-0.8,1.5-2,1.5-3.2c0.1-1.3-0.5-2.5-1.5-3.4c-1.1-0.9-2.5-1.3-3.8-1.3L17.3,125.4z"/>
		<path class="st5" d="M20,117.4h7.3v2.3H10.4v-6.1c-0.1-1.5,0.3-3,1.2-4.2c0.9-1,2.2-1.5,3.6-1.5c0.8,0,1.6,0.2,2.3,0.7
			c0.7,0.5,1.2,1.2,1.5,2c0.2-0.8,0.8-1.5,1.5-2c0.8-0.4,1.6-0.6,2.5-0.6h1.6c0.5,0,1-0.1,1.4-0.2c0.4-0.1,0.7-0.3,1-0.6h0.3v2.4
			c-0.3,0.3-0.7,0.5-1.2,0.6c-0.5,0.1-1.1,0.1-1.6,0.1H23c-0.8,0-1.6,0.3-2.2,0.8c-0.6,0.6-0.9,1.3-0.9,2.2L20,117.4z M18.2,117.4
			v-3.6c0.1-1-0.2-2-0.7-2.8c-0.6-0.6-1.4-0.9-2.2-0.9c-0.8,0-1.6,0.3-2.2,0.9c-0.6,0.7-0.9,1.7-0.8,2.6v3.8L18.2,117.4z"/>
		<path class="st5" d="M19.5,93.9v7.7h6.1v-8.9h1.8v11.2h-17V92.8h1.8v8.8h5.5v-7.8L19.5,93.9z"/>
		<path class="st5" d="M23.1,80.8c-0.7,0-1.5,0.3-1.9,0.9c-0.7,0.9-1.1,2-1.3,3.1c-0.3,1.5-0.9,3-1.8,4.2c-0.8,1-1.9,1.5-3.1,1.5
			c-1.3,0-2.5-0.6-3.3-1.6c-0.9-1.2-1.4-2.7-1.4-4.2c-0.1-1.6,0.5-3.2,1.5-4.4c0.9-1,2.2-1.6,3.5-1.6h0.1v2.2c-0.9,0-1.8,0.3-2.4,1
			c-0.7,0.8-1,1.8-0.9,2.8c-0.1,0.9,0.2,1.9,0.8,2.6c0.5,0.6,1.2,0.9,2,0.9c0.7,0,1.4-0.4,1.8-1c0.6-1,1.1-2.1,1.3-3.2
			c0.3-1.5,1-2.8,1.9-4c0.8-0.9,2-1.4,3.2-1.4c1.3,0,2.5,0.6,3.3,1.7c0.9,1.3,1.3,2.8,1.2,4.3c0,1.6-0.5,3.2-1.4,4.5
			c-0.8,1.2-2.2,2-3.7,1.9h-0.1v-2.2c1,0,1.9-0.4,2.5-1.2c0.6-0.9,0.9-1.9,0.9-3c0-1-0.2-1.9-0.7-2.7C24.6,81.1,23.9,80.7,23.1,80.8
			L23.1,80.8z"/>
		<path class="st5" d="M888.2,198.9L888.2,198.9c1.6-0.1,3.1,0.6,4.1,1.7c1.1,1.3,1.7,2.9,1.6,4.6c0.1,1.8-0.7,3.5-2.1,4.7
			c-1.4,1.2-3.3,1.9-5.2,1.8h-3c-1.9,0.1-3.8-0.6-5.2-1.8c-1.4-1.2-2.1-2.9-2.1-4.7c-0.1-1.7,0.5-3.3,1.5-4.6c1-1.1,2.5-1.8,4.1-1.7
			h0.1v2.2c-1.1-0.1-2.1,0.3-2.8,1.1c-0.7,0.8-1.1,1.9-1,3c0,1.2,0.6,2.4,1.6,3.1c1.1,0.8,2.5,1.2,3.9,1.2h3.1
			c1.4,0,2.8-0.4,3.9-1.2c1-0.7,1.6-1.9,1.6-3.1c0.1-1.1-0.3-2.2-1-3c-0.8-0.7-1.8-1.1-2.9-1.1L888.2,198.9z"/>
		<path class="st5" d="M891.9,193.4v-8.1h1.8v10.4h-17.1v-2.3L891.9,193.4z"/>
		<path class="st5" d="M893.7,180.3v2.3h-17.1v-2.3H893.7z"/>
		<path class="st5" d="M885.8,165.9v7.8h6.1v-9.1h1.8V176h-17.1v-11.2h1.8v8.9h5.5v-7.8H885.8z"/>
		<path class="st5" d="M893.7,149v2.3l-13.2,8.2v0.1h13.2v2.3h-17.1v-2.3l13.2-8.2v-0.1h-13.2V149L893.7,149z"/>
		<path class="st5" d="M878.4,133.6v5.5h15.3v2.3h-15.3v5.5h-1.8v-13.3H878.4z"/>
		<path class="st5" d="M885.8,120.9v7.8h6.1v-9h1.8V131h-17.1v-11.2h1.8v8.9h5.5v-7.8L885.8,120.9z"/>
		<path class="st5" d="M889.4,107.7c-0.7,0-1.5,0.3-2,0.9c-0.7,0.9-1.1,2-1.3,3.1c-0.3,1.5-1,3-1.9,4.2c-0.8,1-1.9,1.5-3.2,1.5
			c-1.3,0-2.6-0.6-3.3-1.6c-0.9-1.2-1.4-2.7-1.3-4.2c-0.1-1.6,0.5-3.2,1.5-4.5c0.9-1,2.2-1.6,3.6-1.6h0.1v2.2c-0.9,0-1.8,0.3-2.4,1
			c-1.2,1.6-1.2,3.8-0.1,5.5c0.5,0.6,1.3,0.9,2,0.9c0.7,0,1.4-0.4,1.9-1c0.6-1,1.1-2.1,1.3-3.2c0.3-1.5,1-2.9,2-4.1
			c0.8-0.9,2-1.4,3.2-1.4c1.3,0,2.6,0.6,3.3,1.7c0.9,1.3,1.3,2.8,1.3,4.4c0,1.6-0.5,3.2-1.4,4.5c-0.8,1.3-2.2,2-3.7,1.9h-0.1v-2.2
			c1,0.1,1.9-0.4,2.5-1.2c0.6-0.9,0.9-1.9,0.9-3c0.1-1-0.2-1.9-0.7-2.8C891,108.1,890.2,107.7,889.4,107.7L889.4,107.7z"/>
	</g>
</g>
</svg>
