<svg xmlns="http://www.w3.org/2000/svg" xmlns:xlink="http://www.w3.org/1999/xlink" width="720.001" height="381.536" viewBox="0 0 720.001 381.536"><defs><linearGradient id="a" x1="0.478" y1="0.454" x2="0.258" y2="-0.012" gradientUnits="objectBoundingBox"><stop offset="0" stop-color="#4042e2"/><stop offset="1" stop-color="#4f52ff"/></linearGradient><linearGradient id="b" x1="93.488" y1="81.125" x2="99.32" y2="68.71" gradientUnits="objectBoundingBox"><stop offset="0" stop-color="#09005d"/><stop offset="1" stop-color="#1a0f91"/></linearGradient><linearGradient id="c" x1="93.262" y1="81.938" x2="99.093" y2="69.539" xlink:href="#b"/><linearGradient id="d" x1="93.033" y1="83.047" x2="98.864" y2="70.648" xlink:href="#b"/><linearGradient id="e" x1="92.722" y1="83.973" x2="98.546" y2="71.577" xlink:href="#b"/><linearGradient id="f" x1="92.608" y1="85.1" x2="98.439" y2="72.697" xlink:href="#b"/><linearGradient id="g" x1="99.092" y1="85.987" x2="105.348" y2="73.603" xlink:href="#b"/><linearGradient id="h" x1="92.06" y1="87.193" x2="97.885" y2="74.794" xlink:href="#b"/><linearGradient id="i" x1="91.975" y1="88.029" x2="97.805" y2="75.634" xlink:href="#b"/><linearGradient id="j" x1="91.76" y1="89.037" x2="97.59" y2="76.642" xlink:href="#b"/><linearGradient id="k" x1="98.177" y1="90.068" x2="104.433" y2="77.684" xlink:href="#b"/><linearGradient id="l" x1="97.979" y1="90.925" x2="104.235" y2="78.54" xlink:href="#b"/><linearGradient id="m" x1="19.573" y1="42.804" x2="20.805" y2="37.18" xlink:href="#b"/><linearGradient id="n" y1="0.5" x2="1" y2="0.5" gradientUnits="objectBoundingBox"><stop offset="0" stop-color="#fe7062"/><stop offset="1" stop-color="#ff928e"/></linearGradient><linearGradient id="o" x1="0" x2="1" xlink:href="#n"/><linearGradient id="p" x1="3.732" y1="-3.048" x2="2.103" y2="-1.26" gradientUnits="objectBoundingBox"><stop offset="0" stop-color="#e1473d"/><stop offset="1" stop-color="#e9605a"/></linearGradient><linearGradient id="q" x1="-0.164" y1="-10.527" x2="0.214" y2="-4.236" gradientUnits="objectBoundingBox"><stop offset="0" stop-color="#ff928e"/><stop offset="1" stop-color="#feb3b1"/></linearGradient><linearGradient id="r" x1="-2.583" y1="-5.752" x2="-1.086" y2="-2.72" xlink:href="#q"/><linearGradient id="s" x1="0" x2="1" xlink:href="#n"/><linearGradient id="t" x1="0" x2="1" xlink:href="#n"/><linearGradient id="u" x1="2.091" y1="-0.773" x2="-3.394" y2="3.617" xlink:href="#p"/><linearGradient id="aa" x1="2.645" y1="-1.86" x2="1.718" y2="-0.84" xlink:href="#p"/><linearGradient id="ab" x1="1.608" y1="-10.632" x2="1.114" y2="-4.376" xlink:href="#b"/><linearGradient id="ac" x1="50.505" y1="-13.458" x2="32.403" y2="-8.405" xlink:href="#b"/><linearGradient id="ad" x1="3.673" y1="-11.981" x2="1.887" y2="-4.963" xlink:href="#b"/><linearGradient id="ae" x1="4.072" y1="-4.687" x2="1.688" y2="-1.224" xlink:href="#b"/><linearGradient id="af" x1="10.775" y1="-4.272" x2="3.456" y2="-0.863" xlink:href="#b"/><linearGradient id="ag" x1="-0.511" y1="31.666" x2="-2.603" y2="34.197" xlink:href="#b"/><linearGradient id="ah" x1="-2.214" y1="84.183" x2="-7.833" y2="90.98" xlink:href="#b"/><linearGradient id="ai" x1="0.741" y1="30.152" x2="-1.352" y2="32.684" xlink:href="#b"/><linearGradient id="aj" x1="1.147" y1="80.118" x2="-4.472" y2="86.915" xlink:href="#b"/><linearGradient id="ak" x1="1.205" y1="29.591" x2="-0.887" y2="32.122" xlink:href="#b"/><linearGradient id="al" x1="2.394" y1="78.61" x2="-3.225" y2="85.407" xlink:href="#b"/><linearGradient id="am" y1="0.5" x2="1" y2="0.5" gradientUnits="objectBoundingBox"><stop offset="0" stop-color="#dae3fe"/><stop offset="1" stop-color="#e9effd"/></linearGradient><linearGradient id="an" x1="-515.99" y1="-38.275" x2="-557.412" y2="-26.662" xlink:href="#b"/><linearGradient id="ao" x1="-186.532" y1="-586.295" x2="-202.637" y2="-408.725" xlink:href="#b"/><linearGradient id="ap" x1="-292.76" y1="-76.421" x2="-316.072" y2="-53.703" xlink:href="#b"/><linearGradient id="aq" x1="-279.041" y1="-75.493" x2="-302.352" y2="-52.775" xlink:href="#b"/><linearGradient id="ar" x1="0.723" y1="-1.863" x2="0.574" y2="-0.553" xlink:href="#b"/><linearGradient id="as" x1="0.269" y1="5.488" x2="0.662" y2="-2.996" xlink:href="#b"/><linearGradient id="at" x1="1.228" y1="0.74" x2="-0.953" y2="0.048" xlink:href="#b"/><linearGradient id="au" x1="1.48" y1="-0.169" x2="1.055" y2="0.11" xlink:href="#b"/></defs><g transform="translate(-116.119 -46.128)"><g transform="translate(116.119 46.128)"><path d="M194.621,354.069c7.05,11.8,8.25,22.911,10.949,35.986,2.486,12.04,7.638,22.843,6.225,35.454-1.232,10.913,1.789,19.224,9.72,28.668,15.828,18.871,43.835,30.846,73.524,30.846H461.923c33.8-.938,145.074-.7,157.436,0h47.273c24.9,0,53.444,2.842,76.99-4.477,11.594-3.608,22.168-9.581,29.66-17.381,8.332-8.672,10.242-21.315,12.473-31.749,8.081-37.774-4.456-61.36-22.794-93.325-12.906-22.484-13.947-41.772-7.273-66.324,7.368-27.125,14.488-61.739-3.151-86.4-15.544-21.731-39.975-37.132-66.149-42.81-33.227-7.2-61.054,4.453-87.7,23.8-36.572,26.553-99.806,48.208-144.867,36.466-19.79-5.159-35.907-15.472-51.827-25.363-14.45-8.98-30.344-20.636-50.15-20.554a219.072,219.072,0,0,0-63,9.436c-18.539,5.7-35.965,13.92-55.634,16.749-22.979,3.3-47.505-1.022-69.641,4.682-17.938,4.622-32.346,15.672-40.038,28.739s-9.013,27.967-5.729,42.048A76.9,76.9,0,0,0,130.7,286.213c6.579,9.046,15.162,17.165,23.848,25.136,13.234,12.143,26.91,24.175,36.919,37.964C192.641,350.915,193.682,352.5,194.621,354.069Z" transform="translate(-116.119 -115.583)" fill="#57dbd8" opacity="0.2"/><g transform="translate(177.246 17.756)"><ellipse cx="173.84" cy="187.645" rx="173.84" ry="187.645" transform="translate(0 347.346) rotate(-87.49)" fill="url(#a)"/><g transform="translate(37.998 30.06)" opacity="0.17"><ellipse cx="147.242" cy="139.097" rx="147.242" ry="139.097" fill="#91b3fa"/></g><g transform="translate(24.428 12.576)" opacity="0.68"><path d="M1206.655,334.1c-.045,30.659-2.149,61.383-7.553,91.61-1.367,7.55-2.952,15.063-4.843,22.508a216.153,216.153,0,0,1-6.763,22.026A104.347,104.347,0,0,1,1177.407,491a41.367,41.367,0,0,1-7.571,8.83,21.469,21.469,0,0,1-4.956,3.194,14.847,14.847,0,0,1-5.794,1.364,14.644,14.644,0,0,1-5.849-1.074,20.251,20.251,0,0,1-5.072-3.021,39.39,39.39,0,0,1-7.734-8.69,101.125,101.125,0,0,1-10.236-20.688,212.108,212.108,0,0,1-6.847-22c-1.909-7.44-3.51-14.95-4.89-22.5-2.752-15.1-4.63-30.343-5.9-45.63s-1.888-30.627-1.965-45.967c-.04-7.669.171-15.335.442-23s.711-15.321,1.275-22.969c1.135-15.293,2.828-30.548,5.346-45.685,1.264-7.566,2.739-15.1,4.511-22.566a217.676,217.676,0,0,1,6.4-22.121c1.288-3.618,2.7-7.2,4.3-10.694a78.217,78.217,0,0,1,5.507-10.147,37.716,37.716,0,0,1,7.566-8.748,19.319,19.319,0,0,1,5-3,14.154,14.154,0,0,1,5.754-1.022,15.224,15.224,0,0,1,5.683,1.333,22.268,22.268,0,0,1,4.94,3.081,42.222,42.222,0,0,1,7.729,8.6,103.515,103.515,0,0,1,10.6,20.446,210.048,210.048,0,0,1,7.266,21.858c2.046,7.4,3.779,14.876,5.267,22.4C1204.156,272.7,1206.557,303.419,1206.655,334.1Zm-2.27,0q.042-22.911-1.822-45.783a440.459,440.459,0,0,0-5.973-45.417c-1.411-7.505-3.055-14.969-5-22.348a208.483,208.483,0,0,0-6.984-21.789,102.4,102.4,0,0,0-10.27-20.354,41.289,41.289,0,0,0-7.479-8.509,21.332,21.332,0,0,0-4.74-3.031,14.206,14.206,0,0,0-5.409-1.317,13.265,13.265,0,0,0-5.459,1.027,18.519,18.519,0,0,0-4.775,2.934,36.793,36.793,0,0,0-7.3,8.635,76.94,76.94,0,0,0-5.325,10.076c-1.554,3.479-2.91,7.045-4.148,10.65a216.094,216.094,0,0,0-6.125,22.05c-1.683,7.447-3.068,14.963-4.243,22.511-2.344,15.1-3.866,30.319-4.83,45.559s-1.317,30.548-1.282,45.822q-.058,22.911,1.606,45.793c1.146,15.232,2.9,30.427,5.53,45.472,1.317,7.521,2.852,15.011,4.69,22.411a210.846,210.846,0,0,0,6.613,21.884,98.947,98.947,0,0,0,9.923,20.465,38.149,38.149,0,0,0,7.4,8.459,18.99,18.99,0,0,0,4.74,2.873,13.068,13.068,0,0,0,5.354,1.019,13.6,13.6,0,0,0,5.3-1.3,20.3,20.3,0,0,0,4.638-3.044,40.2,40.2,0,0,0,7.25-8.606,102.785,102.785,0,0,0,9.775-20.541,215.409,215.409,0,0,0,6.536-21.91c1.817-7.411,3.337-14.895,4.637-22.419,2.6-15.048,4.337-30.245,5.488-45.477S1204.39,349.375,1204.385,334.1Z" transform="translate(-988.046 -163.927)" fill="#fff"/><path d="M1040.028,331.479a223.113,223.113,0,0,1-7.929,58.539,188.533,188.533,0,0,1-24.491,53.681,154.586,154.586,0,0,1-18.7,22.911,131.2,131.2,0,0,1-23.035,18.534,110.96,110.96,0,0,1-26.861,12.285,100.471,100.471,0,0,1-58.421.026,111.111,111.111,0,0,1-26.888-12.264,131.46,131.46,0,0,1-23.059-18.526A154.834,154.834,0,0,1,811.9,443.754a188.756,188.756,0,0,1-24.557-53.7,212.936,212.936,0,0,1-5.946-29.018,218.267,218.267,0,0,1,.018-59.116,212.37,212.37,0,0,1,5.96-29.015,188.738,188.738,0,0,1,24.589-53.662,154.676,154.676,0,0,1,18.745-22.88,131.063,131.063,0,0,1,23.051-18.49,111.534,111.534,0,0,1,26.861-12.219,99.785,99.785,0,0,1,58.328.024,111.447,111.447,0,0,1,26.846,12.24,130.74,130.74,0,0,1,23.019,18.505,154.45,154.45,0,0,1,18.7,22.882,188.383,188.383,0,0,1,24.523,53.644A222.653,222.653,0,0,1,1040.028,331.479Zm-2.6,0a221.042,221.042,0,0,0-7.611-57.907,186.8,186.8,0,0,0-23.7-53.312,153.08,153.08,0,0,0-18.281-22.84,129.622,129.622,0,0,0-22.616-18.547,109.261,109.261,0,0,0-26.527-12.261,97.285,97.285,0,0,0-57.747.024,109.14,109.14,0,0,0-26.506,12.282,127.687,127.687,0,0,0-22.585,18.558,152.684,152.684,0,0,0-18.245,22.843,187.37,187.37,0,0,0-23.648,53.293,214.407,214.407,0,0,0-5.688,28.684,223.139,223.139,0,0,0,.018,58.355A214.239,214.239,0,0,0,790,389.323a187.3,187.3,0,0,0,23.683,53.257,152.846,152.846,0,0,0,18.234,22.814,127.238,127.238,0,0,0,22.579,18.524,109.566,109.566,0,0,0,26.482,12.238,96.63,96.63,0,0,0,57.657.026,109.646,109.646,0,0,0,26.5-12.217,127.471,127.471,0,0,0,22.611-18.511,152.8,152.8,0,0,0,18.284-22.816,187.681,187.681,0,0,0,23.746-53.275A220.035,220.035,0,0,0,1037.427,331.479Z" transform="translate(-744.072 -161.31)" fill="#fff"/><path d="M697.023,549.807l39.1-.316,39.11-.179,78.214-.142,78.214.158,39.11.195,39.107.342a.116.116,0,1,1,0,.229l-39.094.348-39.11.2-78.214.158-78.214-.145-39.123-.187-39.11-.316a.166.166,0,0,1-.169-.171.171.171,0,0,1,.174-.171Z" transform="translate(-683.261 -447.029)" fill="#fff"/><path d="M869.328,301.07c9.254-.147,18.511-.211,27.765-.316l27.767-.179c9.257-.076,18.511-.068,27.767-.092l27.765-.053,55.534.158,27.765.195c9.257.119,18.511.184,27.767.342a.115.115,0,0,1,0,.229c-9.257.158-18.511.226-27.767.342l-27.765.195-55.534.158L952.628,302c-9.257-.024-18.511-.016-27.767-.092l-27.767-.179c-9.254-.105-18.511-.169-27.765-.313a.174.174,0,0,1-.169-.174.169.169,0,0,1,.169-.169Z" transform="translate(-810.194 -263.793)" fill="#fff"/><path d="M645.421,798.54l42.507-.313,42.507-.182,85.013-.145,85.013.161,42.507.195,42.507.342a.116.116,0,0,1,.116.116.118.118,0,0,1-.116.113l-42.507.34-42.507.2-85.013.158-85.013-.145-42.507-.179-42.507-.316a.171.171,0,0,1,0-.342Z" transform="translate(-645.25 -630.256)" fill="#fff"/><path d="M697.016,1047.28l39.109-.316,39.11-.179,78.214-.145,78.214.161,39.11.195,39.107.34a.116.116,0,0,1,.116.116.118.118,0,0,1-.116.116l-39.107.34-39.11.195-78.214.161-78.214-.145-39.115-.179-39.11-.316a.171.171,0,1,1,0-.342Z" transform="translate(-683.254 -813.492)" fill="#fff"/><path d="M1111.39,1297.375H889.26a.6.6,0,1,1,0-1.2h222.13a.6.6,0,0,1,0,1.2Z" transform="translate(-824.529 -997.313)" fill="#fff"/></g></g><g transform="translate(13.079 0)"><path d="M643.79,140.13,625.3,134.073a1.58,1.58,0,0,0-1.159.071l-19.87,9.346a1.564,1.564,0,0,0-.076,2.8l15.258,8.227Z" transform="translate(-488.134 -110.856)" fill="#7d97f4"/><path d="M221.673,127.687s186.415-82.146,194.6-81.556,23.743,5.362,27.754,4.406,18.621-1.893,17.4,8.993-155.393,80.687-175.77,78.764-70.974-2.583-70.974-2.583S208.648,129.944,221.673,127.687Z" transform="translate(-200.777 -46.128)" fill="#91b3fa"/><path d="M240.808,181.194,209,172.39a11.073,11.073,0,0,1-5.193-3.176l-16.3-17.742a4.343,4.343,0,0,0-5.075-.982c-5.514,2.633-16.917,8.261-16.643,9.644.361,1.822,17.2,45.664,17.2,45.664Z" transform="translate(-165.782 -122.693)" fill="#7d97f4"/><path d="M257.934,339.259l-.024,10.11a5.433,5.433,0,0,0,2.107,4.314,5.512,5.512,0,0,0,4.74.988l9.912-2.37a5.5,5.5,0,0,0,3.655-2.765l12.791-24.4Z" transform="translate(-233.648 -251.656)" fill="#7d97f4"/><path d="M655.341,316.043s7.774,5.936,17.549,3.608,21.162-7.9,22.6-11.9.166-30.7-18.824-22.295S637.286,310.968,655.341,316.043Z" transform="translate(-521.259 -221.23)" fill="#7d97f4"/><path d="M564.033,262.224,608.4,243l-26.932,59.285a3.265,3.265,0,0,1-1.951,1.751L552.33,313a3.268,3.268,0,0,1-4.119-4.166Z" transform="translate(-447.369 -191.154)" fill="#91b3fa"/><path d="M784.213,316.347a1.024,1.024,0,0,0,.35-.069c.6-.232,1.067-1.022,1.391-2.352,1.032-4.279.313-12.733-4.522-18.137h0a6.2,6.2,0,0,0-5.667-1.986,4.132,4.132,0,0,0-3.747,4.58c.076,5.1,7.4,15.142,10.721,17.381A2.612,2.612,0,0,0,784.213,316.347Zm-7.582-21.766a5.393,5.393,0,0,1,4.153,1.78h0c4.574,5.112,5.285,13.375,4.324,17.349-.279,1.154-.635,1.662-.856,1.746-.029,0-.287.087-1.027-.416-3.455-2.333-10.27-12.174-10.339-16.68a3.281,3.281,0,0,1,3.023-3.711A5.153,5.153,0,0,1,776.631,294.581Z" transform="translate(-612.367 -228.515)" fill="#91b3fa"/><path d="M179.84,224.868l4.811-1.148,11.835,29.65-4.777,2.386Z" transform="translate(-176.138 -176.952)" fill="#91b3fa"/><g transform="translate(91.534 2.787)"><g transform="translate(0 16.258)"><path d="M513.444,286.525a2.947,2.947,0,0,1,2.186-3.55l.182-.042a2.947,2.947,0,0,1,3.55,2.183l.445,1.872a2.947,2.947,0,0,1-2.183,3.539l-.182.042a2.947,2.947,0,0,1-3.55-2.183Z" transform="translate(-513.363 -239.557)" fill="url(#b)"/><path d="M554.4,273.376a2.947,2.947,0,0,1,2.183-3.55l.182-.042a2.944,2.944,0,0,1,3.55,2.183l.448,1.872a2.949,2.949,0,0,1-2.186,3.55l-.182.042a2.947,2.947,0,0,1-3.55-2.183Z" transform="translate(-543.536 -229.87)" fill="url(#c)"/><path d="M593.823,253.806a2.947,2.947,0,0,1,2.183-3.55l.182-.042a2.944,2.944,0,0,1,3.55,2.183l.448,1.872a2.949,2.949,0,0,1-2.183,3.55l-.182.042a2.944,2.944,0,0,1-3.55-2.183Z" transform="translate(-572.575 -215.454)" fill="url(#d)"/><path d="M630.775,238.2a2.947,2.947,0,0,1,2.191-3.553l.182-.045a2.947,2.947,0,0,1,3.55,2.183l.448,1.872a2.947,2.947,0,0,1-2.183,3.55l-.184.045a2.95,2.95,0,0,1-3.55-2.183Z" transform="translate(-599.795 -203.955)" fill="url(#e)"/><path d="M674.2,221.085a2.947,2.947,0,0,1,2.183-3.55l.182-.042a2.947,2.947,0,0,1,3.55,2.18l.448,1.872a2.949,2.949,0,0,1-2.186,3.55l-.182.042a2.947,2.947,0,0,1-3.55-2.183Z" transform="translate(-631.787 -191.35)" fill="url(#f)"/><rect width="6.081" height="7.819" rx="3.04" transform="matrix(0.973, -0.232, 0.232, 0.973, 52.315, 22.551)" fill="url(#g)"/><path d="M753.783,185.192a2.947,2.947,0,0,1,2.194-3.537l.182-.042a2.947,2.947,0,0,1,3.55,2.183l.448,1.872a2.947,2.947,0,0,1-2.183,3.55l-.184.042a2.947,2.947,0,0,1-3.55-2.183Z" transform="translate(-690.412 -164.919)" fill="url(#h)"/><path d="M791.554,172.727a2.944,2.944,0,0,1,2.183-3.547l.184-.045a2.949,2.949,0,0,1,3.55,2.183l.445,1.872a2.947,2.947,0,0,1-2.183,3.55l-.182.045A2.947,2.947,0,0,1,792,174.6Z" transform="translate(-718.233 -155.727)" fill="url(#i)"/><path d="M831.773,156.408a2.947,2.947,0,0,1,2.183-3.55l.184-.045A2.944,2.944,0,0,1,837.688,155l.448,1.872a2.947,2.947,0,0,1-2.183,3.55l-.182.045a2.947,2.947,0,0,1-3.55-2.183Z" transform="translate(-747.862 -143.704)" fill="url(#j)"/><rect width="6.081" height="7.819" rx="3.04" transform="translate(93.606 4.689) rotate(-13.41)" fill="url(#k)"/><rect width="6.081" height="7.819" rx="3.04" transform="matrix(0.973, -0.232, 0.232, 0.973, 103.54, 1.411)" fill="url(#l)"/></g><path d="M986.265,56.71l-18,9.947a3.205,3.205,0,0,0-1.491,3.824c.582,1.741,1.317,3.687,1.685,3.424.632-.469,29.021-15.345,29.021-15.345Z" transform="translate(-847.248 -56.71)" fill="url(#m)"/></g></g><g transform="translate(297.334 31.524)"><path d="M1131.318,884.31a.711.711,0,0,1-.126-1.411c.342-.063.682-.129,1.017-.2a.711.711,0,0,1,.287,1.393c-.348.071-.7.14-1.053.2a.684.684,0,0,1-.124.013Zm4.308-1a.711.711,0,0,1-.195-1.4c.334-.095.664-.192.993-.295a.711.711,0,1,1,.421,1.356c-.337.105-.68.208-1.025.306a.727.727,0,0,1-.195.037Zm4.179-1.441a.711.711,0,0,1-.263-1.369c.321-.132.637-.263.948-.406a.712.712,0,0,1,.577,1.3c-.324.142-.653.284-.985.421a.764.764,0,0,1-.276.061Zm3.979-1.928a.711.711,0,0,1-.35-1.317c.3-.171.595-.345.887-.527a.711.711,0,1,1,.74,1.214c-.3.184-.616.369-.927.545a.7.7,0,0,1-.35.092Zm3.687-2.439a.711.711,0,0,1-.432-1.275c.263-.205.543-.421.806-.637a.711.711,0,1,1,.9,1.1c-.263.229-.561.453-.845.672a.706.706,0,0,1-.432.153Zm3.3-2.934a.714.714,0,0,1-.511-1.206c.24-.247.477-.5.706-.751a.711.711,0,1,1,1.053.956c-.237.263-.485.527-.735.79a.719.719,0,0,1-.514.219Zm2.842-3.387a.711.711,0,0,1-.577-1.127c.2-.277.4-.558.587-.843a.711.711,0,1,1,1.18.79c-.2.295-.406.593-.614.88a.711.711,0,0,1-.577.308Zm2.331-3.753a.69.69,0,0,1-.332-.084.706.706,0,0,1-.3-.959c.161-.305.319-.611.469-.919a.711.711,0,0,1,1.277.624c-.158.321-.324.645-.49.959a.708.708,0,0,1-.629.387Zm1.817-4.034a.748.748,0,0,1-.263-.045.714.714,0,0,1-.416-.916c.121-.324.24-.648.353-.974a.711.711,0,0,1,1.343.464c-.116.34-.24.677-.366,1.011a.709.709,0,0,1-.65.469Zm1.317-4.214a.656.656,0,0,1-.174-.024.709.709,0,0,1-.527-.861c.084-.334.163-.669.237-1.006a.711.711,0,1,1,1.388.308c-.079.35-.161.7-.247,1.053a.708.708,0,0,1-.677.524Zm.851-4.343a.67.67,0,0,1-.1,0,.708.708,0,0,1-.6-.806c.047-.342.095-.685.137-1.027a.71.71,0,0,1,1.409.171c-.042.355-.09.708-.14,1.053a.711.711,0,0,1-.7.6Zm.429-4.406h-.037a.711.711,0,0,1-.672-.748c.018-.345.032-.693.045-1.038a.711.711,0,0,1,1.419.045c0,.358-.026.714-.045,1.053a.714.714,0,0,1-.711.682Zm.05-4.427a.711.711,0,0,1-.711-.69c0-.345-.021-.693-.039-1.04a.711.711,0,1,1,1.419-.068c.019.356.032.714.042,1.069a.709.709,0,0,1-.69.729Zm-.295-4.419a.708.708,0,0,1-.706-.637c-.037-.345-.076-.693-.118-1.038a.711.711,0,1,1,1.412-.171c.042.353.084.708.121,1.053a.716.716,0,0,1-.635.79Zm-.614-4.39a.714.714,0,0,1-.7-.59c-.061-.342-.124-.685-.187-1.027a.711.711,0,1,1,1.4-.263c.066.35.129.7.192,1.053a.714.714,0,0,1-.579.824.986.986,0,0,1-.124,0Zm-.9-4.34a.708.708,0,0,1-.69-.542c-.082-.337-.166-.674-.263-1.011a.711.711,0,0,1,1.377-.356c.089.342.176.687.263,1.032a.708.708,0,0,1-.527.859.758.758,0,0,1-.161.013Zm-1.18-4.266a.711.711,0,0,1-.679-.5c-.1-.332-.208-.664-.316-.993a.711.711,0,1,1,1.351-.442c.111.337.219.674.324,1.014a.711.711,0,0,1-.469.887.666.666,0,0,1-.211.029Zm-1.432-4.19a.708.708,0,0,1-.664-.458c-.124-.324-.263-.645-.379-.969a.711.711,0,0,1,1.317-.527c.132.327.263.658.385.988a.706.706,0,0,1-.664.964Zm-1.7-4.082a.711.711,0,0,1-.648-.416c-.145-.319-.29-.632-.44-.948a.711.711,0,1,1,1.285-.608c.153.321.3.643.448.966a.708.708,0,0,1-.353.94.685.685,0,0,1-.305.061Zm-1.983-3.956a.716.716,0,0,1-.627-.374c-.163-.308-.332-.611-.5-.914a.711.711,0,1,1,1.24-.693q.263.464.527.932a.711.711,0,0,1-.627,1.053Zm-2.231-3.824a.711.711,0,0,1-.6-.332c-.187-.295-.374-.585-.564-.874a.713.713,0,0,1,1.188-.79c.192.3.387.6.577.9a.714.714,0,0,1-.6,1.093Zm-2.51-3.663a.711.711,0,0,1-.571-.284c-.208-.279-.416-.556-.629-.827a.711.711,0,1,1,1.122-.874c.219.279.434.564.648.851a.711.711,0,0,1-.145.993.69.69,0,0,1-.424.142Zm-2.8-3.424a.7.7,0,0,1-.527-.237c-.232-.263-.466-.514-.7-.764a.711.711,0,0,1,1.038-.972q.363.4.721.79a.708.708,0,0,1-.055,1,.7.7,0,0,1-.471.174Zm-3.115-3.144a.706.706,0,0,1-.477-.184c-.263-.232-.527-.458-.774-.682a.711.711,0,1,1,.924-1.08c.263.232.527.469.806.711a.711.711,0,0,1,.047,1,.7.7,0,0,1-.521.226Zm-3.453-2.765a.706.706,0,0,1-.406-.129c-.282-.2-.569-.392-.853-.577a.711.711,0,1,1,.774-1.19c.3.192.6.4.893.6a.711.711,0,0,1-.408,1.293Zm-3.8-2.265a.707.707,0,0,1-.313-.071c-.305-.15-.619-.295-.927-.432a.711.711,0,1,1,.572-1.3c.327.142.656.3.982.456a.711.711,0,0,1-.313,1.348Z" transform="translate(-1094.063 -629.611)" fill="#fff"/><g transform="translate(30.556)"><g transform="translate(0.476 0.296)"><circle cx="16.306" cy="16.306" r="16.306" transform="translate(0.03)" fill="url(#n)"/><path d="M1142.3,225.56h-32.581s-1.3,9.051,13.254,33.84a3.563,3.563,0,0,0,6.1,0C1143.623,234.63,1142.3,225.56,1142.3,225.56Z" transform="translate(-1109.687 -210.128)" fill="url(#o)"/></g><path d="M1124.683,217.66v.1h0a4.047,4.047,0,0,1-3.458-2c-8.506-14.484-11.622-23.651-12.738-28.779a16.442,16.442,0,0,1-.561-3.521,8.336,8.336,0,0,1,0-1.778l.042-.263a16.778,16.778,0,0,1,33.482.166,7.02,7.02,0,0,1,.026.9v.058a16.849,16.849,0,0,1-.672,4.717c-1.156,5.122-4.29,14.192-12.654,28.441A3.95,3.95,0,0,1,1124.683,217.66Zm-15.853-35.365c0,.245,0,.6.047,1.122h0a15.468,15.468,0,0,0,.527,3.323v.018c1.1,5.056,4.185,14.1,12.641,28.5a3.065,3.065,0,0,0,2.634,1.5h0a3.207,3.207,0,0,0,2.633-1.514c8.309-14.155,11.411-23.151,12.548-28.2v-.029a15.773,15.773,0,0,0,.545-4.464l-.095-.066h0a6.512,6.512,0,0,1,.071-.79l.045-.026a15.816,15.816,0,0,0-31.583.166l-.013.479Z" transform="translate(-1107.879 -165.834)" fill="#fff" opacity="0.8"/><circle cx="9.415" cy="9.415" r="9.415" transform="translate(3.553 16.549) rotate(-45)" fill="#fff"/><path d="M1144.111,210.813a9.941,9.941,0,1,1,9.941-9.941A9.941,9.941,0,0,1,1144.111,210.813Zm0-18.832a8.891,8.891,0,1,0,8.888,8.89A8.891,8.891,0,0,0,1144.111,191.981Z" transform="translate(-1127.246 -184.321)" fill="url(#p)"/><path d="M1137.555,180.8a.158.158,0,0,1-.1-.279,14.624,14.624,0,0,1,9.517-3.529.158.158,0,1,1,0,.313,14.292,14.292,0,0,0-9.31,3.448.163.163,0,0,1-.1.047Z" transform="translate(-1129.622 -174.056)" fill="url(#q)"/><path d="M1118.418,211a.158.158,0,0,1-.158-.158,14.586,14.586,0,0,1,2.186-7.692.158.158,0,0,1,.263.169,14.258,14.258,0,0,0-2.138,7.524A.158.158,0,0,1,1118.418,211Z" transform="translate(-1115.526 -193.281)" fill="url(#r)"/></g><path d="M1267.265,394.443a.887.887,0,0,1-.745-.406l-.577-.874a.891.891,0,0,1,1.485-.985q.292.438.582.885a.89.89,0,0,1-.263,1.232A.871.871,0,0,1,1267.265,394.443Zm-2.481-3.666a.89.89,0,0,1-.729-.379l-.6-.853a.89.89,0,1,1,1.448-1.035c.205.284.408.574.614.864a.89.89,0,0,1-.73,1.4Zm-2.61-3.571a.89.89,0,0,1-.711-.353c-.211-.279-.424-.553-.635-.827a.89.89,0,0,1,1.406-1.093c.216.276.432.558.648.84a.89.89,0,0,1-.171,1.248A.88.88,0,0,1,1262.174,387.206Zm-2.755-3.466a.882.882,0,0,1-.685-.321q-.337-.4-.672-.79a.891.891,0,0,1,1.359-1.153c.229.263.456.54.682.814a.887.887,0,0,1-.116,1.254.875.875,0,0,1-.569.2Zm-2.9-3.334a.885.885,0,0,1-.656-.29c-.237-.263-.471-.511-.708-.764a.891.891,0,0,1,1.3-1.219l.724.79a.886.886,0,0,1-.669,1.488Zm-3.073-3.181a.9.9,0,0,1-.624-.263c-.248-.245-.5-.485-.748-.724a.891.891,0,0,1,1.233-1.288c.263.242.511.49.764.74a.89.89,0,0,1-.624,1.527Zm-3.244-3a.9.9,0,0,1-.587-.221c-.263-.229-.527-.453-.79-.677a.891.891,0,1,1,1.151-1.362c.263.229.527.461.808.7a.893.893,0,0,1-.585,1.564Zm-3.423-2.8a.893.893,0,0,1-.543-.184c-.263-.211-.55-.421-.829-.627a.89.89,0,1,1,1.053-1.43c.284.211.569.427.851.643a.89.89,0,0,1-.542,1.6Zm-3.6-2.576a.9.9,0,0,1-.493-.148l-.869-.569a.891.891,0,1,1,.964-1.5q.448.287.893.585a.89.89,0,0,1-.5,1.63Zm-3.76-2.323a.9.9,0,0,1-.443-.118c-.3-.171-.6-.34-.9-.506a.891.891,0,0,1,.859-1.562c.311.171.622.345.93.527a.89.89,0,0,1-.442,1.664Zm-3.911-2.059a.885.885,0,0,1-.387-.09c-.311-.15-.624-.3-.94-.445a.891.891,0,1,1,.751-1.617c.324.15.645.3.966.458a.89.89,0,0,1-.39,1.693Zm-4.048-1.793a.879.879,0,0,1-.334-.066c-.321-.129-.642-.263-.967-.379a.893.893,0,0,1,.643-1.664l.99.392a.89.89,0,0,1-.332,1.717Zm-4.153-1.522a.965.965,0,0,1-.282-.045c-.327-.111-.656-.216-.988-.321a.89.89,0,1,1,.527-1.7c.34.108.68.216,1.014.327a.893.893,0,0,1-.279,1.738Zm-4.237-1.264a.877.877,0,0,1-.232-.032c-.334-.09-.669-.176-1.006-.263a.891.891,0,1,1,.435-1.728l1.032.263a.893.893,0,0,1-.229,1.754Zm-4.306-1.024a.857.857,0,0,1-.182-.021l-1.022-.208a.89.89,0,1,1,.345-1.746l1.053.211a.893.893,0,0,1-.184,1.764Zm-4.35-.79a.869.869,0,0,1-.14-.013c-.342-.053-.687-.108-1.032-.158a.891.891,0,1,1,.263-1.762c.35.05.7.105,1.053.161a.893.893,0,0,1-.142,1.772Zm-45.2-.195a.89.89,0,0,1-.082-1.778l1.053-.095a.891.891,0,0,1,.158,1.775l-1.053.095Zm4.411-.379a.893.893,0,0,1-.071-1.78l1.053-.082a.89.89,0,1,1,.137,1.775l-1.053.082Zm36.408-.032h-.1c-.345-.042-.693-.079-1.053-.116a.891.891,0,0,1,.19-1.772c.355.037.706.076,1.053.118a.89.89,0,0,1-.1,1.775Zm-31.994-.295a.891.891,0,1,1-.058-1.78l1.053-.068a.891.891,0,0,1,.113,1.778l-1.053.068Zm27.591-.134h-.071l-1.053-.076a.891.891,0,1,1,.124-1.778q.527.034,1.053.079a.89.89,0,0,1-.068,1.778Zm-23.175-.129a.89.89,0,1,1-.045-1.78l1.053-.053a.891.891,0,1,1,.084,1.78l-1.053.053Zm18.753-.145h-.04l-1.053-.045a.891.891,0,1,1,.068-1.78l1.053.045a.89.89,0,1,1-.042,1.78Zm-14.337-.047a.893.893,0,0,1-.029-1.783l1.053-.032a.89.89,0,1,1,.053,1.78l-1.053.032Zm9.907-.095h-.016l-1.053-.016a.89.89,0,1,1,.019-1.78h1.053a.893.893,0,0,1,0,1.783Zm-5.48,0a.89.89,0,1,1,0-1.78l1.053-.013h0a.893.893,0,0,1,0,1.783H1191.3Z" transform="translate(-1121.842 -305.051)" fill="#fff"/><path d="M1158.534,602.159a.893.893,0,0,1-.016-1.783l1.053-.018a.9.9,0,0,1,.909.874.89.89,0,0,1-.872.911l-1.053.021Zm4.429-.084a.89.89,0,0,1-.016-1.78l1.053-.021a.89.89,0,0,1,.037,1.78l-1.053.021Zm4.432-.095a.89.89,0,1,1-.021-1.78l1.053-.026a.893.893,0,0,1,.042,1.783l-1.053.024Zm4.429-.113a.893.893,0,0,1-.026-1.783l1.053-.029a.891.891,0,0,1,.053,1.78l-1.053.032Zm4.429-.142a.89.89,0,0,1-.032-1.78l1.053-.039a.891.891,0,1,1,.069,1.78l-1.053.039Zm4.427-.174a.893.893,0,0,1-.037-1.783l1.053-.045a.89.89,0,0,1,.082,1.778l-1.053.047Zm4.427-.216a.89.89,0,1,1-.047-1.78l1.053-.058a.893.893,0,1,1,.1,1.78l-1.053.058Zm4.424-.263a.891.891,0,0,1-.058-1.78l1.053-.068a.891.891,0,1,1,.118,1.778l-1.053.069Zm4.419-.311a.891.891,0,0,1-.066-1.78l1.053-.082a.89.89,0,1,1,.14,1.775l-1.053.082Zm4.416-.369a.893.893,0,0,1-.079-1.78l1.053-.095a.89.89,0,0,1,.166,1.772l-1.053.1Zm4.419-.435a.89.89,0,1,1-.095-1.778l1.053-.113a.893.893,0,0,1,.195,1.772l-1.053.113Zm4.406-.506a.89.89,0,0,1-.108-1.775l1.053-.132a.891.891,0,0,1,.226,1.767l-1.053.132Zm4.385-.585a.89.89,0,0,1-.124-1.772l1.035-.15a.891.891,0,0,1,.263,1.762l-1.053.153Zm4.387-.674a.893.893,0,0,1-.145-1.772l1.035-.171a.891.891,0,1,1,.3,1.756l-1.053.174A.967.967,0,0,1,1215.965,598.193Zm4.364-.774a.893.893,0,0,1-.166-1.767l1.03-.2a.891.891,0,0,1,.342,1.749l-1.04.2a.893.893,0,0,1-.177.024Zm4.34-.885a.89.89,0,0,1-.19-1.762l1.022-.226a.891.891,0,1,1,.392,1.738q-.527.118-1.035.229a.772.772,0,0,1-.2.029Zm4.314-1.009a.893.893,0,0,1-.216-1.757l1.014-.263a.891.891,0,1,1,.448,1.725c-.342.087-.685.176-1.03.263a.865.865,0,0,1-.226.039Zm4.277-1.153a.89.89,0,0,1-.245-1.746l1-.295a.891.891,0,1,1,.511,1.706q-.506.155-1.019.3a.891.891,0,0,1-.258.042Zm4.232-1.317a.89.89,0,0,1-.282-1.735c.332-.111.661-.224.988-.337a.893.893,0,0,1,.582,1.685c-.334.116-.669.229-1.006.34a.892.892,0,0,1-.292.061Zm4.169-1.5a.89.89,0,0,1-.321-1.722l.969-.382a.891.891,0,1,1,.664,1.654c-.329.132-.658.263-.993.39a.856.856,0,0,1-.329.074Zm4.087-1.7a.89.89,0,0,1-.366-1.7c.316-.142.632-.287.945-.435a.891.891,0,0,1,.753,1.614c-.319.15-.643.3-.969.445a.9.9,0,0,1-.374.092Zm3.977-1.941a.893.893,0,0,1-.416-1.68c.305-.163.611-.326.914-.492a.89.89,0,1,1,.859,1.559c-.311.171-.624.342-.94.508a.872.872,0,0,1-.427.113Zm3.834-2.215a.89.89,0,0,1-.477-1.643c.292-.184.585-.371.872-.561a.891.891,0,0,1,.98,1.488c-.3.195-.6.39-.9.579a.875.875,0,0,1-.484.15Zm3.637-2.515a.89.89,0,0,1-.527-1.6c.263-.208.545-.419.814-.635a.891.891,0,0,1,1.111,1.393c-.279.224-.561.442-.845.661a.906.906,0,0,1-.564.195Zm3.376-2.852a.89.89,0,0,1-.608-1.541c.263-.234.495-.471.74-.714a.891.891,0,1,1,1.254,1.267c-.263.25-.513.5-.774.748a.893.893,0,0,1-.621.253Zm3.039-3.2a.89.89,0,0,1-.682-1.462q.332-.395.648-.79a.891.891,0,1,1,1.4,1.1c-.221.282-.45.561-.682.837a.885.885,0,0,1-.693.324Zm2.612-3.555a.89.89,0,0,1-.748-1.369c.182-.284.361-.579.527-.872a.891.891,0,0,1,1.533.909c-.184.311-.374.619-.566.922a.89.89,0,0,1-.756.424Zm2.107-3.879a.873.873,0,0,1-.369-.082.887.887,0,0,1-.44-1.18c.14-.308.279-.624.408-.937a.893.893,0,0,1,1.646.687c-.14.332-.284.664-.435.99a.888.888,0,0,1-.816.535Zm1.548-4.127a.93.93,0,0,1-.263-.037.893.893,0,0,1-.6-1.109c.1-.327.187-.653.263-.985a.89.89,0,0,1,1.722.453c-.092.348-.19.7-.292,1.053a.887.887,0,0,1-.835.637Zm.974-4.3a.86.86,0,0,1-.14,0,.89.89,0,0,1-.74-1.022c.053-.334.1-.672.145-1.014a.891.891,0,1,1,1.767.229c-.045.358-.1.714-.153,1.067a.89.89,0,0,1-.885.753Zm.429-4.39h-.037a.887.887,0,0,1-.853-.924c0-.34.021-.682.026-1.03a.89.89,0,1,1,1.78.024c0,.361,0,.719-.026,1.074a.89.89,0,0,1-.9.869Zm-.063-4.422a.892.892,0,0,1-.89-.832c-.021-.342-.047-.685-.076-1.03a.891.891,0,0,1,1.775-.158c.031.361.058.716.082,1.072a.893.893,0,0,1-.832.945Zm-.49-4.4a.89.89,0,0,1-.88-.753c-.053-.34-.108-.679-.169-1.022a.89.89,0,0,1,1.754-.308c.063.353.121.706.177,1.053a.893.893,0,0,1-.745,1.016.788.788,0,0,1-.142.026Zm-.851-4.343a.89.89,0,0,1-.866-.687q-.118-.5-.245-1.011a.891.891,0,1,1,1.728-.435c.087.348.171.7.263,1.038a.9.9,0,0,1-.664,1.072.91.91,0,0,1-.221.037Zm-1.159-4.248a.888.888,0,0,1-.851-.632c-.1-.329-.205-.661-.311-.993a.893.893,0,1,1,1.7-.542c.108.34.213.679.316,1.016a.893.893,0,0,1-.853,1.151Zm-1.4-4.214a.9.9,0,0,1-.837-.585c-.119-.324-.24-.65-.364-.977a.891.891,0,0,1,1.667-.632c.126.334.263.666.371,1a.89.89,0,0,1-.527,1.143.877.877,0,0,1-.311.053Z" transform="translate(-1114.01 -435.928)" fill="#fff"/><path d="M1023.143,479.3a.723.723,0,0,1-.105,0l-.1-.013a.89.89,0,1,1,.221-1.767h.09a.89.89,0,0,1-.1,1.775Zm-3.376-.769a.905.905,0,0,1-.284-.047c-.342-.116-.69-.245-1.032-.382a.891.891,0,0,1,.661-1.654c.311.124.629.242.94.345a.893.893,0,0,1-.284,1.738Zm-4.011-1.843a.863.863,0,0,1-.448-.124c-.311-.179-.622-.371-.93-.569a.891.891,0,1,1,.961-1.5c.287.184.579.363.866.527a.893.893,0,0,1-.45,1.662Zm-3.624-2.533a.882.882,0,0,1-.561-.2c-.279-.226-.553-.458-.83-.7a.893.893,0,0,1,1.169-1.348c.263.226.527.448.79.661a.89.89,0,0,1-.564,1.58Zm-3.25-3a.89.89,0,0,1-.643-.263c-.245-.263-.492-.527-.735-.79a.892.892,0,0,1,1.317-1.2c.234.263.471.506.708.751a.89.89,0,0,1-.643,1.509Zm-2.9-3.337a.9.9,0,0,1-.7-.34c-.221-.279-.437-.564-.656-.851a.89.89,0,0,1,1.422-1.072c.211.263.421.548.632.819a.893.893,0,0,1-.7,1.443Zm-2.589-3.592a.9.9,0,0,1-.745-.4c-.195-.3-.39-.6-.579-.9a.89.89,0,0,1,1.5-.951c.187.292.374.582.564.869a.89.89,0,0,1-.743,1.383Zm-2.291-3.795a.89.89,0,0,1-.79-.461c-.171-.308-.342-.621-.511-.938a.894.894,0,1,1,1.58-.837c.163.305.329.611.5.911a.893.893,0,0,1-.348,1.211A.882.882,0,0,1,1001.106,460.422Zm-2.009-3.95a.893.893,0,0,1-.809-.514q-.224-.482-.442-.972a.89.89,0,1,1,1.625-.727c.142.319.287.632.432.945a.893.893,0,0,1-.429,1.185.915.915,0,0,1-.387.084Zm-1.735-4.071a.893.893,0,0,1-.832-.569c-.129-.332-.263-.664-.377-1a.89.89,0,0,1,1.67-.619c.121.327.245.65.369.972a.893.893,0,0,1-.508,1.153.925.925,0,0,1-.332.063Zm-1.467-4.179a.887.887,0,0,1-.848-.624c-.108-.337-.213-.677-.313-1.019a.89.89,0,0,1,1.706-.508c.1.332.2.664.305.993a.89.89,0,0,1-.582,1.117.866.866,0,0,1-.279.045Zm-1.193-4.264a.89.89,0,0,1-.866-.679c-.084-.342-.166-.69-.245-1.038a.89.89,0,0,1,1.735-.4c.079.337.158.677.24,1.011a.887.887,0,0,1-.65,1.077.875.875,0,0,1-.224.029Zm-.919-4.329a.89.89,0,0,1-.877-.735c-.063-.35-.124-.7-.179-1.053a.891.891,0,1,1,1.759-.284c.055.342.113.682.174,1.024a.89.89,0,0,1-.719,1.032.842.842,0,0,1-.168.018Zm-.64-4.382a.893.893,0,0,1-.885-.79c-.039-.353-.076-.708-.111-1.053a.893.893,0,1,1,1.775-.174c.032.345.069.69.108,1.035a.893.893,0,0,1-.79.985Zm-.348-4.414a.89.89,0,0,1-.89-.848c-.016-.355-.029-.711-.042-1.069a.893.893,0,0,1,1.783-.053c0,.348.024.693.039,1.038a.893.893,0,0,1-.851.932Zm-.053-4.424h-.021a.89.89,0,0,1-.872-.909c0-.356.021-.714.034-1.069a.891.891,0,1,1,1.78.068c-.013.348-.024.693-.032,1.053a.893.893,0,0,1-.9.859Zm.263-4.424h-.082a.893.893,0,0,1-.806-.969c.032-.355.068-.711.108-1.069a.89.89,0,1,1,1.77.195c-.037.348-.071.693-.1,1.038a.893.893,0,0,1-.909.808Zm.566-4.393a.9.9,0,0,1-.145,0,.887.887,0,0,1-.735-1.024c.058-.35.118-.7.184-1.053a.89.89,0,1,1,1.751.324c-.061.34-.121.679-.176,1.022a.9.9,0,0,1-.9.735Zm.885-4.337a.972.972,0,0,1-.211-.024.89.89,0,0,1-.656-1.077c.084-.345.171-.69.263-1.038a.89.89,0,0,1,1.722.453c-.087.334-.171.669-.263,1.006a.89.89,0,0,1-.877.682ZM995.663,409a.916.916,0,0,1-.263-.045.89.89,0,0,1-.571-1.122c.108-.34.221-.677.337-1.014a.891.891,0,0,1,1.685.579c-.113.329-.221.656-.329.985a.89.89,0,0,1-.88.619Zm1.527-4.153a.9.9,0,0,1-.822-1.232c.134-.329.263-.656.416-.985a.89.89,0,0,1,1.633.711c-.137.316-.263.635-.4.953a.893.893,0,0,1-.845.556Zm1.843-4.024a.893.893,0,0,1-.79-1.293c.161-.319.324-.635.49-.951a.893.893,0,0,1,1.58.832c-.163.308-.321.614-.477.922a.893.893,0,0,1-.824.492Zm2.144-3.871a.888.888,0,0,1-.761-1.351c.184-.3.371-.608.561-.909a.891.891,0,1,1,1.509.948c-.184.295-.366.587-.545.882a.89.89,0,0,1-.785.432Zm2.433-3.687a.872.872,0,0,1-.527-.166.89.89,0,0,1-.208-1.243c.205-.287.416-.577.627-.864a.893.893,0,1,1,1.433,1.053c-.205.263-.408.558-.608.837a.887.887,0,0,1-.737.377Zm2.7-3.505a.89.89,0,0,1-.685-1.459c.227-.263.456-.545.69-.816a.891.891,0,1,1,1.351,1.161c-.227.263-.45.527-.669.79a.893.893,0,0,1-.708.319Zm2.947-3.3a.893.893,0,0,1-.645-1.506c.245-.263.492-.511.745-.766a.891.891,0,0,1,1.267,1.254c-.245.248-.485.5-.724.745a.887.887,0,0,1-.664.269Zm3.16-3.092a.89.89,0,0,1-.6-1.548c.263-.24.527-.477.79-.714a.891.891,0,1,1,1.182,1.333l-.774.7a.872.872,0,0,1-.616.229Zm3.36-2.881a.89.89,0,0,1-.558-1.58c.263-.221.553-.442.835-.661a.89.89,0,1,1,1.1,1.4c-.263.216-.545.429-.814.648a.9.9,0,0,1-.577.184Zm3.5-2.673a.89.89,0,0,1-.527-1.617c.287-.205.579-.408.872-.611a.893.893,0,1,1,1.014,1.467c-.287.2-.572.4-.853.6a.872.872,0,0,1-.506.166Zm3.687-2.462a.89.89,0,0,1-.477-1.643c.3-.19.6-.377.9-.564a.891.891,0,0,1,.932,1.52l-.885.55a.9.9,0,0,1-.474.137Zm3.8-2.26a.893.893,0,0,1-.437-1.67l.932-.514a.891.891,0,0,1,.853,1.564c-.308.166-.611.334-.914.506a.893.893,0,0,1-.432.113Zm3.911-2.07a.89.89,0,0,1-.4-1.688l.953-.469a.894.894,0,0,1,.79,1.6c-.316.15-.627.305-.937.458a.858.858,0,0,1-.406.095Z" transform="translate(-991.849 -315.328)" fill="#fff"/><path d="M1615.218,660.612h-.108a.89.89,0,0,1-.79-.99c.042-.35.084-.7.129-1.053a.891.891,0,1,1,1.767.224l-.126,1.053A.893.893,0,0,1,1615.218,660.612Zm.577-4.387a.684.684,0,0,1-.126,0,.89.89,0,0,1-.756-1.019l.15-1.053a.893.893,0,0,1,1.765.263l-.15,1.035A.893.893,0,0,1,1615.795,656.224Zm.666-4.374a.917.917,0,0,1-.145,0,.89.89,0,0,1-.737-1.022c.055-.348.113-.7.168-1.053a.891.891,0,0,1,1.759.29c-.055.345-.114.687-.169,1.035A.89.89,0,0,1,1616.461,651.85Zm.735-4.361a1,1,0,0,1-.155-.013.893.893,0,0,1-.724-1.032l.184-1.038a.891.891,0,0,1,1.754.313l-.184,1.032a.89.89,0,0,1-.875.737Zm.79-4.353a.9.9,0,0,1-.877-1.053l.195-1.035a.891.891,0,1,1,1.751.329l-.195,1.032a.89.89,0,0,1-.877.727Zm.827-4.345a.757.757,0,0,1-.171-.018.887.887,0,0,1-.706-1.053l.2-1.032a.891.891,0,1,1,1.749.34l-.2,1.032a.893.893,0,0,1-.874.732Zm.843-4.343a.96.96,0,0,1-.171-.016.893.893,0,0,1-.7-1.053l.2-1.032a.891.891,0,1,1,1.749.342l-.2,1.032a.892.892,0,0,1-.877.727Zm.845-4.34a.951.951,0,0,1-.169-.018.887.887,0,0,1-.706-1.053l.2-1.032a.893.893,0,0,1,1.751.337l-.2,1.032a.893.893,0,0,1-.877.735Zm.83-4.345a.892.892,0,0,1-.877-1.053l.189-1.03a.893.893,0,0,1,1.754.324l-.192,1.035a.9.9,0,0,1-.877.724Zm.79-4.35a.747.747,0,0,1-.155-.016.89.89,0,0,1-.724-1.03c.061-.345.121-.69.179-1.032a.891.891,0,1,1,1.756.3c-.061.345-.118.69-.182,1.038a.887.887,0,0,1-.877.737Zm.729-4.361a.857.857,0,0,1-.139,0,.89.89,0,0,1-.74-1.019c.055-.345.108-.69.163-1.032a.89.89,0,1,1,1.759.263c-.052.348-.108.693-.163,1.053a.89.89,0,0,1-.882.735Zm.653-4.374a.974.974,0,0,1-.124,0,.9.9,0,0,1-.761-1.006c.048-.345.095-.69.14-1.035a.891.891,0,0,1,1.767.232c-.045.35-.092.7-.142,1.053a.89.89,0,0,1-.882.756Zm.545-4.387a.618.618,0,0,1-.1,0,.887.887,0,0,1-.79-.982l.11-1.038a.891.891,0,0,1,1.772.182c-.037.35-.074.7-.113,1.053a.893.893,0,0,1-.885.785Zm.419-4.4h-.074a.89.89,0,0,1-.816-.959c.026-.348.052-.693.076-1.053a.891.891,0,0,1,1.778.124c-.024.353-.05.7-.079,1.053a.893.893,0,0,1-.887.835Zm.263-4.414h-.037a.89.89,0,0,1-.856-.924c.016-.348.026-.7.037-1.053a.893.893,0,1,1,1.783.055q-.016.527-.039,1.053A.891.891,0,0,1,1624.73,599.473Zm.082-4.422a.892.892,0,0,1-.89-.89v-1.053a.893.893,0,0,1,1.783-.026v1.053a.9.9,0,0,1-.89.9Zm-.124-4.424a.89.89,0,0,1-.887-.845c-.019-.345-.04-.693-.063-1.038a.893.893,0,0,1,1.78-.119l.063,1.053a.893.893,0,0,1-.843.935Zm-.353-4.419a.893.893,0,0,1-.885-.79q-.055-.527-.119-1.035a.89.89,0,0,1,1.767-.216c.045.353.084.706.124,1.053a.89.89,0,0,1-.79.982Zm-.606-4.385a.893.893,0,0,1-.877-.743q-.087-.513-.182-1.027a.891.891,0,0,1,1.751-.324c.066.35.126.7.187,1.053a.893.893,0,0,1-.729,1.027.949.949,0,0,1-.15.021Zm-.874-4.345a.89.89,0,0,1-.866-.687c-.079-.337-.161-.672-.245-1.009a.891.891,0,1,1,1.728-.435q.129.527.263,1.035a.893.893,0,0,1-.664,1.072.911.911,0,0,1-.216.032Zm-1.151-4.271a.888.888,0,0,1-.851-.632c-.1-.329-.205-.661-.313-.99a.893.893,0,0,1,1.7-.548c.108.34.213.679.319,1.019a.893.893,0,0,1-.853,1.151Zm-1.43-4.187a.888.888,0,0,1-.832-.574c-.124-.324-.247-.645-.376-.969a.891.891,0,0,1,1.656-.658c.132.332.263.664.385,1a.89.89,0,0,1-.832,1.206Zm-1.7-4.082a.9.9,0,0,1-.811-.527c-.142-.313-.29-.627-.437-.943a.89.89,0,1,1,1.609-.764c.153.321.3.645.45.966a.893.893,0,0,1-.443,1.18.87.87,0,0,1-.369.095Zm-1.965-3.95a.89.89,0,0,1-.79-.471c-.163-.3-.329-.608-.5-.911a.891.891,0,1,1,1.556-.866c.174.313.345.624.511.938a.89.89,0,0,1-.79,1.317Zm-2.207-3.834a.89.89,0,0,1-.758-.421c-.182-.295-.366-.59-.553-.882a.893.893,0,0,1,1.5-.959c.19.3.379.6.564.9a.89.89,0,0,1-.756,1.359Zm-2.433-3.687a.892.892,0,0,1-.729-.382c-.2-.282-.4-.566-.6-.848a.9.9,0,0,1,1.448-1.053c.208.29.414.579.614.869a.89.89,0,0,1-.729,1.4Zm-2.634-3.558a.884.884,0,0,1-.7-.342c-.213-.263-.429-.545-.648-.816a.891.891,0,1,1,1.39-1.114c.224.279.445.556.661.835a.888.888,0,0,1-.7,1.438Zm-2.812-3.423a.892.892,0,0,1-.674-.308q-.34-.395-.685-.79a.891.891,0,1,1,1.335-1.18c.234.263.469.527.7.79a.89.89,0,0,1-.674,1.475Zm-2.968-3.281a.879.879,0,0,1-.648-.279c-.24-.263-.479-.5-.721-.753a.891.891,0,0,1,1.282-1.238l.732.766a.89.89,0,0,1-.034,1.261.882.882,0,0,1-.608.237Zm-3.11-3.16a.891.891,0,0,1-.622-.263l-.75-.724a.89.89,0,1,1,1.23-1.288c.263.245.527.49.764.735a.89.89,0,0,1-.622,1.53Zm-3.229-3.023a.884.884,0,0,1-.6-.232l-.79-.7a.893.893,0,1,1,1.185-1.333l.79.706a.893.893,0,0,1-.6,1.554Zm-3.336-2.9a.9.9,0,0,1-.574-.211l-.79-.672a.891.891,0,1,1,1.138-1.372l.814.679a.893.893,0,0,1-.574,1.58Zm-3.424-2.8a.887.887,0,0,1-.553-.192c-.263-.216-.548-.432-.824-.648a.891.891,0,1,1,1.1-1.406c.279.219.558.437.832.656a.89.89,0,0,1-.55,1.58Zm-3.513-2.694a.9.9,0,0,1-.527-.176l-.84-.624a.89.89,0,1,1,1.053-1.435c.287.211.572.419.853.629a.893.893,0,0,1-.527,1.606Z" transform="translate(-1428.95 -431.317)" fill="#fff"/><path d="M998.281,1077.384a.9.9,0,0,1-.45-.121.893.893,0,0,1-.316-1.222c.179-.3.361-.608.545-.911a.89.89,0,1,1,1.525.919c-.179.3-.358.6-.527.9A.89.89,0,0,1,998.281,1077.384Zm2.333-3.766a.893.893,0,0,1-.745-1.377c.192-.3.387-.6.585-.89a.891.891,0,1,1,1.483.988c-.192.29-.384.582-.574.874A.893.893,0,0,1,1000.614,1073.618Zm2.494-3.661a.871.871,0,0,1-.527-.166.89.89,0,0,1-.208-1.243c.205-.287.411-.574.622-.861a.891.891,0,1,1,1.438,1.053c-.2.282-.408.566-.608.848a.888.888,0,0,1-.716.369Zm2.633-3.55a.89.89,0,0,1-.7-1.438c.216-.279.435-.558.656-.835a.89.89,0,0,1,1.4,1.106l-.645.822a.887.887,0,0,1-.693.345Zm2.784-3.442a.888.888,0,0,1-.679-1.464c.226-.263.456-.54.687-.808a.891.891,0,1,1,1.351,1.161c-.226.263-.453.527-.677.79a.883.883,0,0,1-.672.321Zm2.915-3.331a.887.887,0,0,1-.658-1.488c.237-.263.477-.527.716-.79a.894.894,0,0,1,1.317,1.209c-.237.263-.474.527-.706.772a.9.9,0,0,1-.658.3Zm3.036-3.221a.89.89,0,0,1-.637-1.514c.245-.263.495-.5.743-.756a.891.891,0,1,1,1.264,1.256c-.245.248-.49.5-.732.745a.885.885,0,0,1-.627.269Zm3.16-3.115a.89.89,0,0,1-.616-1.533l.769-.729a.89.89,0,1,1,1.222,1.3l-.761.722a.888.888,0,0,1-.616.245Zm3.25-3a.882.882,0,0,1-.664-.3.893.893,0,0,1,.068-1.259l.79-.7a.891.891,0,0,1,1.177,1.338l-.79.7a.894.894,0,0,1-.585.226Zm3.344-2.9a.893.893,0,0,1-.574-1.58l.814-.679a.893.893,0,0,1,1.138,1.375c-.263.221-.527.445-.806.669a.874.874,0,0,1-.574.213Zm3.423-2.8a.89.89,0,0,1-.553-1.58c.263-.219.553-.437.832-.653a.891.891,0,0,1,1.1,1.406c-.263.213-.55.429-.824.645a.888.888,0,0,1-.542.179Zm3.513-2.694a.89.89,0,0,1-.527-1.6l.851-.629a.89.89,0,1,1,1.053,1.435c-.282.208-.564.413-.843.624a.893.893,0,0,1-.527.171Zm3.589-2.591a.89.89,0,0,1-.511-1.62c.287-.2.577-.406.869-.606a.891.891,0,0,1,1.011,1.467l-.859.6a.9.9,0,0,1-.5.158Zm3.661-2.491a.893.893,0,0,1-.492-1.635l.885-.579a.89.89,0,1,1,.974,1.49l-.877.577a.883.883,0,0,1-.482.145Zm3.724-2.394a.893.893,0,0,1-.471-1.649l.9-.558a.893.893,0,0,1,.935,1.52l-.89.55a.888.888,0,0,1-.464.134Zm3.795-2.3a.89.89,0,0,1-.453-1.659l.916-.526a.891.891,0,0,1,.9,1.541l-.906.527a.882.882,0,0,1-.445.116Zm3.853-2.209a.89.89,0,0,1-.432-1.67c.308-.171.619-.345.93-.514a.89.89,0,1,1,.856,1.562l-.919.508a.894.894,0,0,1-.427.111Zm3.905-2.107a.893.893,0,0,1-.416-1.68c.313-.163.627-.329.943-.49a.89.89,0,1,1,.819,1.58l-.932.487a.866.866,0,0,1-.406.092Zm3.95-2.02a.89.89,0,0,1-.4-1.688l.951-.471a.893.893,0,0,1,.79,1.6c-.316.155-.629.308-.943.466a.883.883,0,0,1-.39.082Zm3.995-1.928a.89.89,0,0,1-.379-1.7l.961-.448a.891.891,0,1,1,.748,1.617l-.953.443a.872.872,0,0,1-.366.074Zm4.034-1.843a.89.89,0,0,1-.361-1.706l.972-.427a.893.893,0,0,1,.711,1.635l-.964.421a.905.905,0,0,1-.348.087Zm4.074-1.743a.89.89,0,0,1-.342-1.714l.98-.4a.891.891,0,1,1,.674,1.649l-.972.4a.862.862,0,0,1-.329.068Zm4.108-1.651a.89.89,0,0,1-.324-1.722l.985-.382a.893.893,0,0,1,.64,1.664l-.98.379a.912.912,0,0,1-.311.061Zm4.14-1.562a.89.89,0,0,1-.306-1.728l.993-.361a.891.891,0,0,1,.6,1.678l-.985.355a.9.9,0,0,1-.295.055Zm4.169-1.469a.89.89,0,0,1-.285-1.735l1-.337a.89.89,0,0,1,.566,1.688l-.99.337a.926.926,0,0,1-.279.047Zm4.214-1.38a.89.89,0,0,1-.263-1.741l1.006-.316a.89.89,0,1,1,.527,1.7l-1,.313a.866.866,0,0,1-.274.042Zm4.214-1.288a.89.89,0,0,1-.25-1.746l1.011-.292a.891.891,0,0,1,.493,1.712l-1,.29a.833.833,0,0,1-.242.037Zm4.248-1.2a.89.89,0,0,1-.232-1.751l1.022-.263a.893.893,0,0,1,.456,1.725l-1.014.263a.893.893,0,0,1-.224.026Zm83.878-.387a.88.88,0,0,1-.324-.061c-.321-.126-.645-.248-.972-.369a.893.893,0,0,1,.621-1.672l1,.379a.89.89,0,0,1-.321,1.722Zm-79.591-.719a.89.89,0,0,1-.213-1.757l1.027-.25a.891.891,0,0,1,.419,1.733l-1.019.247a.841.841,0,0,1-.205.026Zm75.417-.758a.884.884,0,0,1-.263-.042l-1-.313a.892.892,0,1,1,.527-1.7c.34.105.679.211,1.016.321a.89.89,0,0,1-.263,1.738Zm-71.1-.263a.893.893,0,0,1-.195-1.762l1.035-.226a.891.891,0,1,1,.379,1.741l-1.024.224a.837.837,0,0,1-.189.034Zm4.332-.916a.89.89,0,0,1-.174-1.764l1.038-.205a.891.891,0,0,1,.34,1.749l-1.03.2a.784.784,0,0,1-.168.029Zm62.526-.069a.855.855,0,0,1-.229-.032l-1.009-.263a.89.89,0,0,1,.432-1.728c.345.084.69.174,1.032.263a.893.893,0,0,1-.227,1.754Zm-58.176-.748a.893.893,0,0,1-.153-1.77l1.053-.179a.891.891,0,0,1,.3,1.757l-1.035.179a1.009,1.009,0,0,1-.161.024Zm53.867-.263a.874.874,0,0,1-.184-.018l-1.022-.211a.89.89,0,0,1,.35-1.746c.348.068.7.14,1.04.213a.89.89,0,0,1-.184,1.762Zm-49.509-.442a.89.89,0,0,1-.134-1.772l1.053-.155a.893.893,0,1,1,.263,1.764l-1.037.153a.762.762,0,0,1-.126.01Zm45.146-.377a.884.884,0,0,1-.145,0c-.342-.058-.687-.113-1.032-.166a.893.893,0,0,1,.263-1.762l1.053.169a.89.89,0,0,1-.145,1.77Zm-40.761-.234a.89.89,0,0,1-.111-1.775l1.053-.129a.89.89,0,1,1,.213,1.767l-1.053.129a.8.8,0,0,1-.084.008Zm36.381-.4h-.113l-1.037-.124a.891.891,0,0,1,.205-1.77c.35.039.7.082,1.053.126a.89.89,0,0,1-.108,1.775Zm-31.981-.105a.89.89,0,1,1-.089-1.778l1.053-.1a.893.893,0,1,1,.168,1.775l-1.053.1a.5.5,0,0,1-.071.005Zm27.578-.358h-.079l-1.053-.084a.893.893,0,1,1,.137-1.778c.353.026.706.055,1.053.087a.89.89,0,0,1-.074,1.778Zm-23.175-.032a.891.891,0,1,1-.066-1.78l1.053-.074a.891.891,0,0,1,.121,1.778l-1.053.074Zm18.748-.263h-.045l-1.053-.05a.891.891,0,0,1,.076-1.78l1.053.05a.893.893,0,0,1-.045,1.783Zm-14.329,0a.89.89,0,0,1-.042-1.78l1.053-.047a.891.891,0,1,1,.074,1.78l-1.053.045Zm4.427-.15a.89.89,0,0,1-.016-1.78l1.053-.016h0a.893.893,0,0,1,0,1.783l-1.053.016Zm5.478,0h-.016l-1.053-.016a.89.89,0,1,1,.021-1.78c.353,0,.706,0,1.053.016a.89.89,0,1,1-.016,1.78Z" transform="translate(-995.931 -782.867)" fill="#fff"/><g transform="translate(130.356 39.315)"><g transform="translate(0.485 0.302)"><circle cx="16.306" cy="16.306" r="16.306" transform="translate(0.027)" fill="url(#s)"/><path d="M1521.3,374.87h-32.581s-1.3,9.049,13.254,33.837a3.56,3.56,0,0,0,6.1.013C1522.62,383.929,1521.3,374.87,1521.3,374.87Z" transform="translate(-1488.687 -359.438)" fill="url(#t)"/></g><path d="M1503.656,366.955v.089h0a4.037,4.037,0,0,1-3.455-1.994c-8.509-14.484-11.624-23.654-12.741-28.778a16.463,16.463,0,0,1-.558-3.521,8.226,8.226,0,0,1-.016-1.778l.042-.263a16.778,16.778,0,0,1,33.482.166,7.023,7.023,0,0,1,.026.9v.061a16.751,16.751,0,0,1-.674,4.717c-1.153,5.122-4.29,14.192-12.641,28.441A3.95,3.95,0,0,1,1503.656,366.955Zm-15.851-35.365a11.2,11.2,0,0,0,.045,1.119h0a15.315,15.315,0,0,0,.527,3.323v.018c1.1,5.056,4.185,14.1,12.641,28.5a3.058,3.058,0,0,0,2.633,1.5h0a3.221,3.221,0,0,0,2.634-1.514c8.306-14.155,11.408-23.151,12.546-28.2V336.3a15.771,15.771,0,0,0,.545-4.477l-.095-.066h0a6.538,6.538,0,0,1,.071-.79l.045-.026a15.816,15.816,0,0,0-31.583.163l-.013.482Z" transform="translate(-1486.846 -315.124)" fill="#fff" opacity="0.8"/><circle cx="9.415" cy="9.415" r="9.415" transform="translate(7.456 7.141)" fill="#fff"/><path d="M1523.1,360.123a9.941,9.941,0,1,1,9.941-9.94,9.941,9.941,0,0,1-9.941,9.94Zm0-18.832a8.891,8.891,0,1,0,8.891,8.891A8.89,8.89,0,0,0,1523.1,341.291Z" transform="translate(-1506.23 -333.626)" fill="url(#u)"/><path d="M1516.563,330.13a.158.158,0,0,1-.1-.277,14.6,14.6,0,0,1,9.515-3.524.158.158,0,0,1,0,.316,14.292,14.292,0,0,0-9.31,3.448.155.155,0,0,1-.1.036Z" transform="translate(-1508.622 -323.379)" fill="#fff"/><path d="M1497.408,360.252a.158.158,0,0,1-.158-.158,14.586,14.586,0,0,1,2.186-7.692.158.158,0,0,1,.219-.05.155.155,0,0,1,.05.216,14.275,14.275,0,0,0-2.138,7.526A.158.158,0,0,1,1497.408,360.252Z" transform="translate(-1494.51 -342.53)" fill="#fff"/></g><g transform="translate(169.447 177.668)"><g transform="translate(0.472 0.293)"><circle cx="16.306" cy="16.306" r="16.306" transform="translate(0.027)" fill="url(#s)"/><path d="M1669.688,900.2h-32.581s-1.3,9.049,13.254,33.837a3.56,3.56,0,0,0,6.1,0C1671.012,909.259,1669.688,900.2,1669.688,900.2Z" transform="translate(-1637.077 -884.768)" fill="url(#o)"/></g><path d="M1652.086,892.31v.09h0a4.045,4.045,0,0,1-3.445-2c-8.506-14.484-11.624-23.654-12.741-28.778a16.448,16.448,0,0,1-.558-3.521,8.242,8.242,0,0,1-.016-1.778l.045-.263a16.778,16.778,0,0,1,33.479.166,7.3,7.3,0,0,1,.029.9v.061a16.855,16.855,0,0,1-.673,4.717c-1.155,5.119-4.292,14.191-12.639,28.438A3.951,3.951,0,0,1,1652.086,892.31Zm-15.854-35.359a11.121,11.121,0,0,0,.045,1.119h0a15.314,15.314,0,0,0,.527,3.323v.018c1.1,5.056,4.185,14.1,12.641,28.5a3.057,3.057,0,0,0,2.633,1.5h0a3.213,3.213,0,0,0,2.634-1.517c8.309-14.152,11.408-23.148,12.546-28.2v-.029a15.867,15.867,0,0,0,.542-4.477l-.095-.066h0a5.638,5.638,0,0,1,.074-.79l.045-.026a15.8,15.8,0,0,0-31.559.147v.482Z" transform="translate(-1635.286 -840.489)" fill="#fff" opacity="0.8"/><circle cx="9.415" cy="9.415" r="9.415" transform="translate(4.215 12.369) rotate(-26.75)" fill="#fff"/><path d="M1671.491,885.453a9.941,9.941,0,1,1,9.941-9.941A9.941,9.941,0,0,1,1671.491,885.453Zm0-18.832a8.891,8.891,0,1,0,8.891,8.891,8.891,8.891,0,0,0-8.891-8.891Z" transform="translate(-1654.633 -858.965)" fill="url(#u)"/><path d="M1664.95,855.46a.15.15,0,0,1-.118-.055.156.156,0,0,1-.039-.114.154.154,0,0,1,.054-.107,14.605,14.605,0,0,1,9.515-3.524.158.158,0,0,1,0,.316,14.3,14.3,0,0,0-9.309,3.46A.164.164,0,0,1,1664.95,855.46Z" transform="translate(-1657.022 -848.718)" fill="#fff"/><path d="M1645.808,885.582a.158.158,0,0,1-.158-.158,14.585,14.585,0,0,1,2.186-7.692.155.155,0,0,1,.216-.05.158.158,0,0,1,.053.216,14.256,14.256,0,0,0-2.141,7.526.155.155,0,0,1-.155.158Z" transform="translate(-1642.921 -867.869)" fill="#fff"/></g></g><g transform="translate(303.429 150.881)"><g transform="translate(0.476 0.302)"><circle cx="16.306" cy="16.306" r="16.306" transform="translate(0.03)" fill="url(#n)"/><path d="M1108.038,678.81h-32.581s-1.3,9.051,13.254,33.84a3.563,3.563,0,0,0,6.1,0C1109.363,687.869,1108.038,678.81,1108.038,678.81Z" transform="translate(-1075.427 -663.378)" fill="url(#o)"/></g><path d="M1090.424,670.9v.092h0a4.048,4.048,0,0,1-3.458-2c-8.506-14.484-11.621-23.651-12.738-28.779a16.45,16.45,0,0,1-.561-3.521,8.32,8.32,0,0,1,0-1.778l.042-.263a16.778,16.778,0,0,1,33.482.166,7.065,7.065,0,0,1,.026.9v.058a16.854,16.854,0,0,1-.672,4.717c-1.156,5.122-4.292,14.194-12.641,28.441A3.95,3.95,0,0,1,1090.424,670.9Zm-15.853-35.362c0,.242,0,.593.047,1.119h0a15.46,15.46,0,0,0,.527,3.323v.018c1.1,5.056,4.185,14.1,12.641,28.5a3.065,3.065,0,0,0,2.634,1.5h0a3.207,3.207,0,0,0,2.633-1.514c8.309-14.155,11.411-23.151,12.548-28.2v-.029a15.78,15.78,0,0,0,.545-4.477l-.095-.066h0a6.538,6.538,0,0,1,.071-.79l.045-.026a15.816,15.816,0,0,0-31.583.166l-.013.482Z" transform="translate(-1073.619 -619.064)" fill="#fff" opacity="0.8"/><circle cx="9.415" cy="9.415" r="9.415" transform="translate(3.553 16.555) rotate(-45)" fill="#fff"/><path d="M1109.851,664.063a9.941,9.941,0,1,1,9.941-9.941A9.941,9.941,0,0,1,1109.851,664.063Zm0-18.829a8.888,8.888,0,1,0,8.888,8.888,8.888,8.888,0,0,0-8.888-8.888Z" transform="translate(-1092.986 -637.566)" fill="url(#aa)"/><path d="M1103.294,634.08a.158.158,0,0,1-.1-.279,14.624,14.624,0,0,1,9.517-3.521.158.158,0,1,1,0,.316,14.3,14.3,0,0,0-9.312,3.445.153.153,0,0,1-.1.04Z" transform="translate(-1095.362 -627.326)" fill="#fff"/><path d="M1084.158,664.194a.158.158,0,0,1-.158-.158,14.572,14.572,0,0,1,2.186-7.69.158.158,0,0,1,.219-.053.161.161,0,0,1,.05.219,14.262,14.262,0,0,0-2.138,7.524A.158.158,0,0,1,1084.158,664.194Z" transform="translate(-1081.266 -646.472)" fill="#fff"/></g><g transform="translate(48.269 218.665)"><rect width="165.197" height="15.769" transform="translate(7.508 92.361)" fill="url(#ab)"/><rect width="4.506" height="19.524" transform="translate(4.506 92.361)" fill="url(#ac)"/><path d="M470.614,882.5c0-3.608-4.192-6.044-8.327-6.044H306.549c-4.135,0-7.139,2.436-7.139,6.044v82.077c0,3.608,3,6.494,7.139,6.494H462.287c4.135,0,8.327-2.9,8.327-6.494Z" transform="translate(-299.41 -876.46)" fill="#7d97f4"/><path d="M477.962,896.346c0-3.3-3.423-5.6-7.318-5.6H323.725c-3.9,0-7.205,2.3-7.205,5.6v75.025c0,3.3,3.308,5.733,7.205,5.733H470.643c3.9,0,7.318-2.431,7.318-5.733Z" transform="translate(-312.014 -886.987)" fill="#91b3fa"/><path d="M1005.332,1034.888,995.1,1003.265a1.925,1.925,0,0,0-1.828-1.335h-40.9v75.091h55.384Z" transform="translate(-780.415 -968.888)" fill="#91b3fa"/><path d="M1037.825,1240.855a3.354,3.354,0,0,0-1.967-.542l-42.846.824-.182,12.177,42.775,1.053c1.58,0,2.9-.758,2.9-1.82v-10.315A1.488,1.488,0,0,0,1037.825,1240.855Z" transform="translate(-810.22 -1144.491)" fill="url(#ad)"/><g transform="translate(182.778 37.379)"><path d="M1027.623,1045.116l-6.186-24.536a2.043,2.043,0,0,0-1.862-1.58H995.392a2.133,2.133,0,0,0-1.922,2.154l.579,19.64a1.941,1.941,0,0,0,1.614,1.843l29.79,4.819a1.917,1.917,0,0,0,2.17-2.37Z" transform="translate(-993.469 -1018.842)" fill="url(#ae)"/><path d="M1113.082,1018.4l-.313.053a1.92,1.92,0,0,0-1.543,2.394l6.742,25.068a1.92,1.92,0,0,0,2.21,1.388l2.128-.4Z" transform="translate(-1080.166 -1018.4)" fill="url(#af)"/></g><rect width="12.014" height="4.506" rx="2.253" transform="translate(183.221 66.829)" fill="#7d97f4"/><path d="M955.014,917.975a2.473,2.473,0,0,0-1.825.59,2.346,2.346,0,0,0-.819,1.678v19.825h24.857S975.879,919.5,955.014,917.975Z" transform="translate(-780.415 -907.035)" fill="#7d97f4"/><g transform="translate(177.956 89.68)"><circle cx="19.488" cy="19.488" r="19.488" fill="url(#ag)"/><circle cx="15.827" cy="15.827" r="15.827" transform="translate(1.855 5.7) rotate(-7.02)" fill="#7d97f4"/><path d="M1042.269,1255.881a.748.748,0,0,1-.693-1.053,13.265,13.265,0,0,0-18.7-16.738.753.753,0,1,1-.732-1.317,14.771,14.771,0,0,1,20.8,18.634A.751.751,0,0,1,1042.269,1255.881Z" transform="translate(-1009.487 -1230.189)" fill="#bdd0fb"/><circle cx="7.258" cy="7.258" r="7.258" transform="translate(12.23 12.23)" fill="url(#ah)"/></g><g transform="translate(56.615 88.489)"><g transform="translate(0 0)"><circle cx="19.488" cy="19.488" r="19.488" transform="translate(1.192 1.191)" fill="url(#ai)"/><circle cx="15.827" cy="15.827" r="15.827" transform="translate(0 12.113) rotate(-22.5)" fill="#7d97f4"/><path d="M586.029,1255.881a.748.748,0,0,1-.693-1.053,13.265,13.265,0,0,0-18.7-16.738.753.753,0,0,1-.732-1.317,14.771,14.771,0,0,1,20.8,18.635A.751.751,0,0,1,586.029,1255.881Z" transform="translate(-552.055 -1228.998)" fill="#bdd0fb"/></g><path d="M579.876,1270.7a7.258,7.258,0,1,1-7.258-7.258A7.258,7.258,0,0,1,579.876,1270.7Z" transform="translate(-551.938 -1250.019)" fill="url(#aj)"/></g><g transform="translate(12.034 88.489)"><g transform="translate(0 0)"><circle cx="19.488" cy="19.488" r="19.488" transform="translate(1.193 1.191)" fill="url(#ak)"/><circle cx="15.827" cy="15.827" r="15.827" transform="translate(0 12.113) rotate(-22.5)" fill="#7d97f4"/><path d="M416.741,1255.9a.77.77,0,0,1-.292-.058.753.753,0,0,1-.4-.985,13.265,13.265,0,0,0-18.7-16.738.754.754,0,1,1-.735-1.317,14.768,14.768,0,0,1,20.8,18.634A.748.748,0,0,1,416.741,1255.9Z" transform="translate(-382.768 -1229.018)" fill="#bdd0fb"/></g><path d="M410.6,1270.7a7.258,7.258,0,1,1-7.258-7.258A7.258,7.258,0,0,1,410.6,1270.7Z" transform="translate(-382.657 -1250.019)" fill="url(#al)"/></g><g transform="translate(218.512 84.853)"><rect width="9.012" height="11.263" rx="4.506" transform="translate(0)" fill="url(#am)"/><path d="M1132.165,1198.67v9.762h-.49c-1.053,0-2.515-1.006-2.515-2.067v-6.32c0-1.053,1.454-1.367,2.515-1.367Z" transform="translate(-1129.16 -1198.67)" fill="#7d97f4"/></g><path d="M961.681,1062.723a.751.751,0,0,1-.751-.75V1016.9a.751.751,0,1,1,1.5,0v45.053a.751.751,0,0,1-.751.769Z" transform="translate(-786.721 -979.363)" fill="#bdd0fb"/><path d="M976.434,947.324a.753.753,0,0,1-.711-.506c-5.672-16.441-17.257-15.274-17.381-15.248a.753.753,0,0,1-.179-1.493c.129,0,12.9-1.317,18.961,16.251a.751.751,0,0,1-.466.953A.726.726,0,0,1,976.434,947.324Z" transform="translate(-784.226 -915.941)" fill="#bdd0fb"/></g><g transform="translate(495.178 233.826)"><path d="M2070.16,1189.769h65.431V1151.7a4.142,4.142,0,0,0-4.142-4.142h-55.2a6.088,6.088,0,0,0-6.089,6.089Z" transform="translate(-1934.757 -1091.328)" fill="#7d97f4"/><path d="M2088.78,1186.826h60.527V1144.62h-54.439a6.089,6.089,0,0,0-6.088,6.086Z" transform="translate(-1948.474 -1089.162)" fill="#91b3fa"/><rect width="2.691" height="24.847" transform="translate(64.813 24.847) rotate(180)" fill="url(#an)"/><path d="M0,0H7.337V1a.724.724,0,0,1-.724.724H.727A.724.724,0,0,1,0,1V0Z" transform="translate(67.378 1.728) rotate(180)" fill="url(#ao)"/><rect width="4.782" height="12.701" transform="translate(74.677 30.943) rotate(180)" fill="url(#ap)"/><rect width="4.782" height="12.701" transform="translate(39.595 30.943) rotate(180)" fill="url(#aq)"/><rect width="62.184" height="35.439" transform="translate(26.746 58.689)" fill="#91b3fa"/><path d="M1677.07,1058.739h47.279v-34.385a1.053,1.053,0,0,0-1.053-1.053H1677.07Z" transform="translate(-1645.186 -999.791)" fill="#91b3fa"/><rect width="65.623" height="5.167" rx="2.583" transform="translate(24.663 56.364)" fill="#7d97f4"/><rect width="5.383" height="10.515" transform="translate(37.203 28.794)" fill="#7d97f4"/><rect width="5.383" height="10.515" transform="translate(46.484 28.794)" fill="#7d97f4"/><rect width="5.383" height="10.515" transform="translate(57.476 28.794)" fill="#7d97f4"/><rect width="5.383" height="10.515" transform="translate(66.753 28.794)" fill="#7d97f4"/><rect width="5.383" height="10.515" transform="translate(40.371 67.369)" fill="#7d97f4"/><rect width="5.383" height="10.515" transform="translate(49.649 67.369)" fill="#7d97f4"/><rect width="5.383" height="10.515" transform="translate(60.644 67.369)" fill="#7d97f4"/><rect width="5.383" height="10.515" transform="translate(69.921 67.369)" fill="#7d97f4"/><path d="M1767.013,1256.542c-11.85,5.7-22.769,11.827-26.111,20.278l-139.76.766L1596,1257.52c-1.2-4.672-5-8.63-10.31-10.737-17.117-6.8-30.464-11.914-29.658-22.466l91.141-.827a1.451,1.451,0,0,1,1.391,1l1.317,4.029c1.6,4.877,7.008,8.314,13.259,8.427l80.529,1.5,3.078-5.462a1.4,1.4,0,0,1,1.232-.716l31.989.129a.856.856,0,0,1,.73,1.3Z" transform="translate(-1555.999 -1147.262)" fill="#91b3fa"/><path d="M1767.11,1267.533c-11.851,5.7-22.769,11.827-26.111,20.278l-139.76.766-5.14-20.067c-1.2-4.672-5-8.63-10.31-10.739-17.118-6.8-28.7-14.258-29.658-22.466l89.243-1.246a1.4,1.4,0,0,1,1.317.835l2.333,5.3c2.3,5.085,7.985,7.621,14.237,7.74l80.529,1.5,2.957-5.249a1.862,1.862,0,0,1,1.593-.932l31.767-.332Z" transform="translate(-1556.095 -1155.047)" fill="url(#ar)"/><path d="M2242.819,1324.722a4.561,4.561,0,1,1,4.564-4.562A4.561,4.561,0,0,1,2242.819,1324.722Zm0-8.066a3.505,3.505,0,1,0,3.505,3.505A3.505,3.505,0,0,0,2242.819,1316.656Z" transform="translate(-2058.589 -1215.115)" fill="#bdd0fb"/><path d="M2187.631,1324.722a4.561,4.561,0,1,1,4.561-4.561A4.561,4.561,0,0,1,2187.631,1324.722Zm0-8.066a3.505,3.505,0,1,0,3.505,3.505A3.505,3.505,0,0,0,2187.631,1316.656Z" transform="translate(-2017.933 -1215.115)" fill="#bdd0fb"/><path d="M2138.1,1323.388a4.564,4.564,0,1,1,4.561-4.563A4.564,4.564,0,0,1,2138.1,1323.388Zm0-8.066a3.505,3.505,0,1,0,3.505,3.5A3.505,3.505,0,0,0,2138.1,1315.321Z" transform="translate(-1981.439 -1214.128)" fill="#bdd0fb"/><path d="M1829.226,1259.338a4.564,4.564,0,1,1,4.561-4.563A4.564,4.564,0,0,1,1829.226,1259.338Zm0-8.069a3.505,3.505,0,1,0,3.505,3.505A3.505,3.505,0,0,0,1829.226,1251.269Z" transform="translate(-1753.909 -1166.945)" fill="#bdd0fb"/><path d="M1773.506,1259.338a4.564,4.564,0,1,1,4.561-4.563A4.564,4.564,0,0,1,1773.506,1259.338Zm0-8.069a3.505,3.505,0,1,0,3.505,3.505A3.505,3.505,0,0,0,1773.506,1251.269Z" transform="translate(-1712.863 -1166.945)" fill="#bdd0fb"/><path d="M1729.954,1259.338a4.564,4.564,0,1,1,4.564-4.564A4.564,4.564,0,0,1,1729.954,1259.338Zm0-8.069a3.505,3.505,0,1,0,3.505,3.505A3.505,3.505,0,0,0,1729.954,1251.269Z" transform="translate(-1680.781 -1166.945)" fill="#bdd0fb"/><path d="M2052.886,1303.346h0l-78.519-1.383a.527.527,0,1,1,0-1.053h0l78.519,1.383a.527.527,0,1,1,0,1.053Z" transform="translate(-1863.803 -1204.294)" fill="#bdd0fb"/><path d="M1599.217,1242.034a.527.527,0,1,1,0-1.053l67.97-1.4a.527.527,0,0,1,0,1.053Z" transform="translate(-1587.447 -1159.115)" fill="#bdd0fb"/></g><g transform="translate(494.009 76.073)"><g transform="translate(0 85.48)"><rect width="76.447" height="7.016" transform="translate(8.809 23.196)" fill="#7d97f4"/><rect width="64.875" height="7.016" transform="translate(17.262 5.757)" fill="#7d97f4"/><path d="M1651.976,697.356H1641.64l21.805-37.766,6.231,3.6Z" transform="translate(-1641.64 -659.59)" fill="#7d97f4"/><path d="M1928.729,697.356h10.336l-21.805-37.766-6.231,3.6Z" transform="translate(-1840.087 -659.59)" fill="#7d97f4"/></g><rect width="73.56" height="8.035" rx="4.017" transform="translate(11.695 87.22)" fill="url(#as)"/><path d="M1745.389,436.127h-68.733c-3.687,0-6.636-2.828-6.441-6.2l6.32-72.033c.182-3.126.864-5.567,4.3-5.567H1740.9c3.423,0,3.745,2.7,3.95,5.812l7.01,71.762C1752.052,433.283,1749.1,436.127,1745.389,436.127Z" transform="translate(-1662.683 -347.766)" fill="url(#at)"/><path d="M1866,429.9l-7.01-71.762c-.195-3.115-.527-5.812-3.95-5.812h-29.85v83.8h34.369C1863.267,436.127,1866.222,433.283,1866,429.9Z" transform="translate(-1776.853 -347.766)" fill="url(#au)"/><path d="M1756.337,516.963H1680.37l.443-5.033h75.033Z" transform="translate(-1670.17 -465.336)" fill="#7d97f4"/><path d="M1754.072,569.785H1675.45l.519-5.035h77.611Z" transform="translate(-1666.546 -504.246)" fill="#7d97f4"/><rect width="14.271" height="7.692" rx="3.846" transform="translate(41.34)" fill="#91b3fa"/><rect width="11.606" height="6.257" rx="3.129" transform="translate(42.391 0.587)" fill="#7d97f4"/><g transform="translate(19.011 73.755)"><ellipse cx="6.115" cy="5.277" rx="6.115" ry="5.277" fill="#91b3fa"/><ellipse cx="5.349" cy="4.616" rx="5.349" ry="4.616" transform="translate(0.766 0.661)" fill="#7d97f4"/></g><g transform="translate(62.226 73.755)"><ellipse cx="6.115" cy="5.277" rx="6.115" ry="5.277" fill="#91b3fa"/><ellipse cx="5.349" cy="4.616" rx="5.349" ry="4.616" transform="translate(0.766 0.661)" fill="#7d97f4"/></g><path d="M1859.585,406.626h-18.753A4.827,4.827,0,0,1,1836,401.8V375.143a2.283,2.283,0,0,1,2.283-2.283h19.143a3.5,3.5,0,0,1,3.337,3.379l2.028,26.924a3.221,3.221,0,0,1-3.205,3.463Z" transform="translate(-1784.816 -362.89)" fill="#7d97f4"/><path d="M1713.758,406.626h17.786a5.388,5.388,0,0,0,5.385-5.385V375.651a2.791,2.791,0,0,0-2.794-2.792H1715.5a3.5,3.5,0,0,0-3.337,3.379l-2,26.519a3.6,3.6,0,0,0,3.587,3.869Z" transform="translate(-1692.116 -362.89)" fill="#7d97f4"/></g></g></g></svg>