<svg xmlns="http://www.w3.org/2000/svg" xmlns:xlink="http://www.w3.org/1999/xlink" width="595.539" height="595.54" viewBox="0 0 595.539 595.54"><defs><linearGradient id="a" x1="0.007" y1="0.606" x2="0.917" y2="0.137" gradientUnits="objectBoundingBox"><stop offset="0" stop-color="#19d8c5"/><stop offset="1" stop-color="#15a8bc"/></linearGradient><linearGradient id="b" x1="1.014" y1="0.382" x2="0.062" y2="0.869" xlink:href="#a"/><linearGradient id="c" x1="0.601" y1="0.995" x2="0.171" y2="0.094" xlink:href="#a"/><linearGradient id="d" x1="0.396" y1="0.003" x2="0.864" y2="0.943" xlink:href="#a"/><linearGradient id="e" x1="0.003" y1="0.376" x2="0.944" y2="0.936" gradientUnits="objectBoundingBox"><stop offset="0" stop-color="#bccbf9"/><stop offset="1" stop-color="#7d97f4"/></linearGradient><linearGradient id="f" x1="0.383" y1="0.988" x2="0.896" y2="0.088" xlink:href="#e"/><linearGradient id="g" x1="0.995" y1="0.608" x2="0.063" y2="0.135" xlink:href="#e"/><linearGradient id="h" x1="0.607" y1="-0.013" x2="0.149" y2="0.948" xlink:href="#e"/><linearGradient id="i" x1="0.898" y1="0.574" x2="0.227" y2="0.274" xlink:href="#e"/><linearGradient id="j" x1="0.541" y1="0.871" x2="0.366" y2="0.289" xlink:href="#a"/><linearGradient id="k" x1="0.449" y1="0.88" x2="0.655" y2="0.27" xlink:href="#e"/><linearGradient id="l" x1="0.13" y1="0.542" x2="0.745" y2="0.357" xlink:href="#a"/><linearGradient id="m" x1="0.162" y1="0.462" x2="0.765" y2="0.663" xlink:href="#e"/><linearGradient id="n" x1="0.454" y1="0.131" x2="0.657" y2="0.765" xlink:href="#a"/><linearGradient id="o" x1="0.537" y1="0.132" x2="0.365" y2="0.776" xlink:href="#e"/><linearGradient id="p" x1="0.883" y1="0.44" x2="0.266" y2="0.675" xlink:href="#a"/></defs><g transform="translate(-385 -5047.46)"><path d="M295.77,0c163.349,0,295.77,132.421,295.77,295.77s-132.421,295.77-295.77,295.77S0,459.119,0,295.77,132.421,0,295.77,0Z" transform="translate(387 5049.46)" fill="none" stroke="#fff" stroke-width="4"/><path d="M213.407,211.05H25.356A282.628,282.628,0,0,0,33.493,270.3,47.142,47.142,0,0,0,68.53,352.492a283.345,283.345,0,0,0,33.891,43.769L235.36,263.307a94.651,94.651,0,0,1-21.953-52.257Z" transform="translate(374.024 5142.195)" fill="url(#a)"/><path d="M470.6,154.391a47.188,47.188,0,0,0-45.906-28.548A283.951,283.951,0,0,0,388.664,78.38L255.71,211.35a94.484,94.484,0,0,1,21.556,52.7H465.3a283.63,283.63,0,0,0-7.068-55.493A47.173,47.173,0,0,0,470.6,154.391Z" transform="translate(499.361 5072.327)" fill="url(#b)"/><path d="M398.576,386.044,265.621,253.09a94.514,94.514,0,0,1-52.241,21.525V462.651a282.79,282.79,0,0,0,55.982-7.267,47.158,47.158,0,0,0,82.927-34.013,283.663,283.663,0,0,0,46.288-35.326Z" transform="translate(477.068 5164.334)" fill="url(#c)"/><path d="M208.3,30.449A47.158,47.158,0,0,0,126.423,64.6,284.321,284.321,0,0,0,80.7,99.713L213.654,232.667a94.5,94.5,0,0,1,52.7-21.938V22.709a282.914,282.914,0,0,0-58.058,7.74Z" transform="translate(407.195 5039.025)" fill="url(#d)"/><path d="M101.937,78.38a283.587,283.587,0,0,0-36.013,47.432,47.158,47.158,0,0,0-33.281,81.553,282.428,282.428,0,0,0-7.328,56.684h188.02a94.483,94.483,0,0,1,21.587-52.7Z" transform="translate(374.035 5072.327)" fill="url(#e)"/><path d="M266.2,274.616a94.468,94.468,0,0,1-52.241-21.526L81,386.044a283.744,283.744,0,0,0,45.6,34.914,47.158,47.158,0,0,0,82.988,34.288,283.176,283.176,0,0,0,56.608,7.4Z" transform="translate(407.354 5164.334)" fill="url(#f)"/><path d="M470.741,286.924a46.9,46.9,0,0,0-13.221-17.709A282.953,282.953,0,0,0,465.4,211.05H277.347a94.544,94.544,0,0,1-21.907,52.257L388.394,396.261a284.178,284.178,0,0,0,33.983-43.891,47.158,47.158,0,0,0,48.364-65.447Z" transform="translate(499.219 5142.195)" fill="url(#g)"/><path d="M353.255,64.6a47.158,47.158,0,0,0-81.873-34.151,282.915,282.915,0,0,0-58.012-7.74v188.02a94.544,94.544,0,0,1,52.7,21.938L399.054,99.713a284.2,284.2,0,0,0-45.8-35.113Z" transform="translate(477.063 5039.025)" fill="url(#h)"/><path d="M76.148,0A76.148,76.148,0,1,1,0,76.148,76.148,76.148,0,0,1,76.148,0Z" transform="translate(606.621 5269.082)" fill="#fff"/><path d="M318.154,211.05H277.347a94.544,94.544,0,0,1-21.907,52.257l29.1,29.1a134.344,134.344,0,0,0,33.616-81.354Z" transform="translate(499.219 5142.195)" fill="url(#i)"/><path d="M294.719,282.188l-29.1-29.1a94.514,94.514,0,0,1-52.241,21.525v40.929a134.343,134.343,0,0,0,81.339-33.357Z" transform="translate(477.068 5164.334)" fill="url(#j)"/><path d="M149.5,281.47a134.252,134.252,0,0,0,80.621,33.952V274.616A94.468,94.468,0,0,1,177.88,253.09Z" transform="translate(443.428 5164.334)" fill="url(#k)"/><path d="M153.069,291.58l28.273-28.273A94.651,94.651,0,0,1,159.45,211.05H120.17A134.221,134.221,0,0,0,153.069,291.58Z" transform="translate(427.981 5142.195)" fill="url(#l)"/><path d="M120.2,227.659h39.173a94.483,94.483,0,0,1,21.587-52.7L153.481,147.48A134.344,134.344,0,0,0,120.2,227.659Z" transform="translate(427.997 5108.717)" fill="url(#m)"/><path d="M149.81,151.225,177.289,178.7a94.5,94.5,0,0,1,52.7-21.938v-39.1A134.145,134.145,0,0,0,149.81,151.225Z" transform="translate(443.591 5093.018)" fill="url(#n)"/><path d="M213.38,117.6v39.173a94.544,94.544,0,0,1,52.7,21.938l28.166-28.182A134.344,134.344,0,0,0,213.38,117.6Z" transform="translate(477.068 5092.981)" fill="url(#o)"/><path d="M283.983,147,255.71,175.288a94.483,94.483,0,0,1,21.556,52.623h40.7A134.343,134.343,0,0,0,283.983,147Z" transform="translate(499.361 5108.464)" fill="url(#p)"/><path d="M11.76-7.655a12.441,12.441,0,0,1-.431,3.476,7.133,7.133,0,0,1-1.192,2.436A4.806,4.806,0,0,1,8.332-.3,5.426,5.426,0,0,1,6.069.168,5.355,5.355,0,0,1,3.817-.3a4.786,4.786,0,0,1-1.79-1.439A7.123,7.123,0,0,1,.845-4.179,12.586,12.586,0,0,1,.42-7.655,12.586,12.586,0,0,1,.845-11.13a7.123,7.123,0,0,1,1.181-2.436A4.737,4.737,0,0,1,3.817-15a5.406,5.406,0,0,1,2.252-.467A5.478,5.478,0,0,1,8.332-15a4.758,4.758,0,0,1,1.806,1.433A7.133,7.133,0,0,1,11.33-11.13,12.441,12.441,0,0,1,11.76-7.655Zm-3.36,0a13.867,13.867,0,0,0-.2-2.6,5.327,5.327,0,0,0-.53-1.591,1.923,1.923,0,0,0-.751-.793,1.847,1.847,0,0,0-.851-.215,1.816,1.816,0,0,0-.845.215,1.876,1.876,0,0,0-.735.793,5.466,5.466,0,0,0-.514,1.591,14.233,14.233,0,0,0-.194,2.6,14.216,14.216,0,0,0,.194,2.6A5.539,5.539,0,0,0,4.489-3.46a1.872,1.872,0,0,0,.735.8,1.816,1.816,0,0,0,.845.215,1.847,1.847,0,0,0,.851-.215,1.918,1.918,0,0,0,.751-.8A5.4,5.4,0,0,0,8.2-5.051,13.85,13.85,0,0,0,8.4-7.655Zm14.815,5.3V0H14.5V-2.352h2.94V-10.07q0-.294.01-.593t.031-.6L15.74-9.818a1.023,1.023,0,0,1-.457.215,1.238,1.238,0,0,1-.425,0,1,1,0,0,1-.357-.136.8.8,0,0,1-.231-.2l-1.029-1.365,4.767-4H20.7V-2.352Z" transform="translate(711.425 5244.726)" fill="#fff"/><path d="M11.76-7.655a12.441,12.441,0,0,1-.431,3.476,7.133,7.133,0,0,1-1.192,2.436A4.806,4.806,0,0,1,8.332-.3,5.426,5.426,0,0,1,6.069.168,5.355,5.355,0,0,1,3.817-.3a4.786,4.786,0,0,1-1.79-1.439A7.123,7.123,0,0,1,.845-4.179,12.586,12.586,0,0,1,.42-7.655,12.586,12.586,0,0,1,.845-11.13a7.123,7.123,0,0,1,1.181-2.436A4.737,4.737,0,0,1,3.817-15a5.406,5.406,0,0,1,2.252-.467A5.478,5.478,0,0,1,8.332-15a4.758,4.758,0,0,1,1.806,1.433A7.133,7.133,0,0,1,11.33-11.13,12.441,12.441,0,0,1,11.76-7.655Zm-3.36,0a13.867,13.867,0,0,0-.2-2.6,5.327,5.327,0,0,0-.53-1.591,1.923,1.923,0,0,0-.751-.793,1.847,1.847,0,0,0-.851-.215,1.816,1.816,0,0,0-.845.215,1.876,1.876,0,0,0-.735.793,5.466,5.466,0,0,0-.514,1.591,14.233,14.233,0,0,0-.194,2.6,14.216,14.216,0,0,0,.194,2.6A5.539,5.539,0,0,0,4.489-3.46a1.872,1.872,0,0,0,.735.8,1.816,1.816,0,0,0,.845.215,1.847,1.847,0,0,0,.851-.215,1.918,1.918,0,0,0,.751-.8A5.4,5.4,0,0,0,8.2-5.051,13.85,13.85,0,0,0,8.4-7.655Zm9.87,5.366a2.425,2.425,0,0,0,.945-.168,1.8,1.8,0,0,0,.656-.457,1.808,1.808,0,0,0,.378-.683,2.869,2.869,0,0,0,.121-.845,3.634,3.634,0,0,0-.105-.9,1.747,1.747,0,0,0-.346-.7,1.6,1.6,0,0,0-.646-.452,2.7,2.7,0,0,0-1-.163,2.7,2.7,0,0,0-1,.163,1.6,1.6,0,0,0-.646.452,1.747,1.747,0,0,0-.346.7,3.633,3.633,0,0,0-.105.9,2.869,2.869,0,0,0,.121.845,1.808,1.808,0,0,0,.378.683,1.8,1.8,0,0,0,.651.457A2.416,2.416,0,0,0,18.27-2.289Zm0-10.8a1.949,1.949,0,0,0-.83.158,1.58,1.58,0,0,0-.551.415,1.579,1.579,0,0,0-.31.593,2.547,2.547,0,0,0-.094.693,4.062,4.062,0,0,0,.073.777,1.791,1.791,0,0,0,.273.672,1.442,1.442,0,0,0,.546.472,1.946,1.946,0,0,0,.892.179,1.946,1.946,0,0,0,.892-.179,1.443,1.443,0,0,0,.546-.472,1.791,1.791,0,0,0,.273-.672,4.062,4.062,0,0,0,.073-.777,2.547,2.547,0,0,0-.094-.693,1.579,1.579,0,0,0-.31-.593,1.569,1.569,0,0,0-.557-.415A1.957,1.957,0,0,0,18.27-13.094ZM21.158-7.98a4.534,4.534,0,0,1,1.171.6,3.274,3.274,0,0,1,.8.819,3.361,3.361,0,0,1,.457,1.013,4.527,4.527,0,0,1,.147,1.171,4.349,4.349,0,0,1-.394,1.869,4.082,4.082,0,0,1-1.113,1.433A5.186,5.186,0,0,1,20.5-.157,7.215,7.215,0,0,1,18.27.168a7.215,7.215,0,0,1-2.226-.326,5.186,5.186,0,0,1-1.727-.919A4.082,4.082,0,0,1,13.2-2.51a4.349,4.349,0,0,1-.394-1.869,4.527,4.527,0,0,1,.147-1.171,3.361,3.361,0,0,1,.457-1.013,3.274,3.274,0,0,1,.8-.819,4.534,4.534,0,0,1,1.171-.6,3.423,3.423,0,0,1-1.554-1.307,3.759,3.759,0,0,1-.515-2.011,3.753,3.753,0,0,1,.368-1.654,3.952,3.952,0,0,1,1.029-1.318,4.987,4.987,0,0,1,1.57-.877,5.946,5.946,0,0,1,1.99-.32,5.946,5.946,0,0,1,1.99.32,4.987,4.987,0,0,1,1.57.877,3.952,3.952,0,0,1,1.029,1.318,3.753,3.753,0,0,1,.368,1.654,3.759,3.759,0,0,1-.515,2.011A3.423,3.423,0,0,1,21.158-7.98Z" transform="translate(626.62 5244.726)" fill="#fff"/><path d="M11.76-7.655a12.441,12.441,0,0,1-.431,3.476,7.133,7.133,0,0,1-1.192,2.436A4.806,4.806,0,0,1,8.332-.3,5.426,5.426,0,0,1,6.069.168,5.355,5.355,0,0,1,3.817-.3a4.786,4.786,0,0,1-1.79-1.439A7.123,7.123,0,0,1,.845-4.179,12.586,12.586,0,0,1,.42-7.655,12.586,12.586,0,0,1,.845-11.13a7.123,7.123,0,0,1,1.181-2.436A4.737,4.737,0,0,1,3.817-15a5.406,5.406,0,0,1,2.252-.467A5.478,5.478,0,0,1,8.332-15a4.758,4.758,0,0,1,1.806,1.433A7.133,7.133,0,0,1,11.33-11.13,12.441,12.441,0,0,1,11.76-7.655Zm-3.36,0a13.867,13.867,0,0,0-.2-2.6,5.327,5.327,0,0,0-.53-1.591,1.923,1.923,0,0,0-.751-.793,1.847,1.847,0,0,0-.851-.215,1.816,1.816,0,0,0-.845.215,1.876,1.876,0,0,0-.735.793,5.466,5.466,0,0,0-.514,1.591,14.233,14.233,0,0,0-.194,2.6,14.216,14.216,0,0,0,.194,2.6A5.539,5.539,0,0,0,4.489-3.46a1.872,1.872,0,0,0,.735.8,1.816,1.816,0,0,0,.845.215,1.847,1.847,0,0,0,.851-.215,1.918,1.918,0,0,0,.751-.8A5.4,5.4,0,0,0,8.2-5.051,13.85,13.85,0,0,0,8.4-7.655ZM19.478-5.943v-3.99q0-.367.026-.793t.079-.887L15.54-5.943Zm4.41,0v1.827a.6.6,0,0,1-.163.42.6.6,0,0,1-.467.179h-.945V0H19.478V-3.518H13.325a.884.884,0,0,1-.551-.189.8.8,0,0,1-.31-.473l-.336-1.606L19.2-15.3h3.108v9.355Z" transform="translate(711.425 5459.675)" fill="#fff"/><path d="M11.76-7.655a12.441,12.441,0,0,1-.431,3.476,7.133,7.133,0,0,1-1.192,2.436A4.806,4.806,0,0,1,8.332-.3,5.426,5.426,0,0,1,6.069.168,5.355,5.355,0,0,1,3.817-.3a4.786,4.786,0,0,1-1.79-1.439A7.123,7.123,0,0,1,.845-4.179,12.586,12.586,0,0,1,.42-7.655,12.586,12.586,0,0,1,.845-11.13a7.123,7.123,0,0,1,1.181-2.436A4.737,4.737,0,0,1,3.817-15a5.406,5.406,0,0,1,2.252-.467A5.478,5.478,0,0,1,8.332-15a4.758,4.758,0,0,1,1.806,1.433A7.133,7.133,0,0,1,11.33-11.13,12.441,12.441,0,0,1,11.76-7.655Zm-3.36,0a13.867,13.867,0,0,0-.2-2.6,5.327,5.327,0,0,0-.53-1.591,1.923,1.923,0,0,0-.751-.793,1.847,1.847,0,0,0-.851-.215,1.816,1.816,0,0,0-.845.215,1.876,1.876,0,0,0-.735.793,5.466,5.466,0,0,0-.514,1.591,14.233,14.233,0,0,0-.194,2.6,14.216,14.216,0,0,0,.194,2.6A5.539,5.539,0,0,0,4.489-3.46a1.872,1.872,0,0,0,.735.8,1.816,1.816,0,0,0,.845.215,1.847,1.847,0,0,0,.851-.215,1.918,1.918,0,0,0,.751-.8A5.4,5.4,0,0,0,8.2-5.051,13.85,13.85,0,0,0,8.4-7.655Zm4.7-3.276a5.744,5.744,0,0,1,.646-2,4.8,4.8,0,0,1,1.187-1.417,4.814,4.814,0,0,1,1.622-.845,6.707,6.707,0,0,1,1.964-.278,5.886,5.886,0,0,1,2.016.32,4.51,4.51,0,0,1,1.491.866,3.656,3.656,0,0,1,.924,1.265,3.741,3.741,0,0,1,.315,1.517,4.974,4.974,0,0,1-.147,1.276,2.923,2.923,0,0,1-.436.956,2.654,2.654,0,0,1-.714.682A4.386,4.386,0,0,1,21-8.117a3.414,3.414,0,0,1,2.541,3.465A4.782,4.782,0,0,1,23.1-2.531a4.362,4.362,0,0,1-1.181,1.5,5.054,5.054,0,0,1-1.717.9,6.913,6.913,0,0,1-2.037.3,7.273,7.273,0,0,1-1.943-.236A4.473,4.473,0,0,1,14.711-.8a4.868,4.868,0,0,1-1.16-1.276,8.557,8.557,0,0,1-.866-1.848l1.449-.588a1.809,1.809,0,0,1,1.05-.116.985.985,0,0,1,.693.483,3.812,3.812,0,0,0,1,1.265,2.03,2.03,0,0,0,1.244.394,2.279,2.279,0,0,0,.95-.184,2.071,2.071,0,0,0,.672-.473,1.96,1.96,0,0,0,.4-.656,2.126,2.126,0,0,0,.136-.746,5.225,5.225,0,0,0-.068-.887,1.159,1.159,0,0,0-.383-.677,2.166,2.166,0,0,0-.95-.436A7.983,7.983,0,0,0,17.115-6.7V-8.946a6.572,6.572,0,0,0,1.543-.147,2.361,2.361,0,0,0,.908-.4,1.22,1.22,0,0,0,.425-.625,2.936,2.936,0,0,0,.1-.808,2.021,2.021,0,0,0-.436-1.391,1.69,1.69,0,0,0-1.328-.488,1.948,1.948,0,0,0-1.223.383,1.963,1.963,0,0,0-.688.95,1.368,1.368,0,0,1-.578.766,1.653,1.653,0,0,1-1.019.084Z" transform="translate(772.856 5397.603)" fill="#fff"/><path d="M11.76-7.655a12.441,12.441,0,0,1-.431,3.476,7.133,7.133,0,0,1-1.192,2.436A4.806,4.806,0,0,1,8.332-.3,5.426,5.426,0,0,1,6.069.168,5.355,5.355,0,0,1,3.817-.3a4.786,4.786,0,0,1-1.79-1.439A7.123,7.123,0,0,1,.845-4.179,12.586,12.586,0,0,1,.42-7.655,12.586,12.586,0,0,1,.845-11.13a7.123,7.123,0,0,1,1.181-2.436A4.737,4.737,0,0,1,3.817-15a5.406,5.406,0,0,1,2.252-.467A5.478,5.478,0,0,1,8.332-15a4.758,4.758,0,0,1,1.806,1.433A7.133,7.133,0,0,1,11.33-11.13,12.441,12.441,0,0,1,11.76-7.655Zm-3.36,0a13.867,13.867,0,0,0-.2-2.6,5.327,5.327,0,0,0-.53-1.591,1.923,1.923,0,0,0-.751-.793,1.847,1.847,0,0,0-.851-.215,1.816,1.816,0,0,0-.845.215,1.876,1.876,0,0,0-.735.793,5.466,5.466,0,0,0-.514,1.591,14.233,14.233,0,0,0-.194,2.6,14.216,14.216,0,0,0,.194,2.6A5.539,5.539,0,0,0,4.489-3.46a1.872,1.872,0,0,0,.735.8,1.816,1.816,0,0,0,.845.215,1.847,1.847,0,0,0,.851-.215,1.918,1.918,0,0,0,.751-.8A5.4,5.4,0,0,0,8.2-5.051,13.85,13.85,0,0,0,8.4-7.655ZM18.249-2.4a2.336,2.336,0,0,0,.94-.189,2.273,2.273,0,0,0,.751-.52,2.487,2.487,0,0,0,.5-.777,2.526,2.526,0,0,0,.184-.971,2.976,2.976,0,0,0-.173-1.05,2.147,2.147,0,0,0-.488-.777,2.114,2.114,0,0,0-.761-.483,2.8,2.8,0,0,0-.992-.168,2.3,2.3,0,0,0-.9.173,2.021,2.021,0,0,0-.709.5,2.338,2.338,0,0,0-.467.777,2.9,2.9,0,0,0-.168,1.019A3.516,3.516,0,0,0,16.1-3.854a2.084,2.084,0,0,0,.42.777,1.84,1.84,0,0,0,.714.5A2.721,2.721,0,0,0,18.249-2.4Zm-.525-7.014a4.675,4.675,0,0,1,1.638-.273A5.089,5.089,0,0,1,21-9.418a4.185,4.185,0,0,1,1.449.84,4.207,4.207,0,0,1,1.034,1.433A4.9,4.9,0,0,1,23.877-5.1a5.245,5.245,0,0,1-.4,2.032,5.056,5.056,0,0,1-1.129,1.68A5.355,5.355,0,0,1,20.59-.252a5.976,5.976,0,0,1-2.278.42,6.19,6.19,0,0,1-2.3-.4,4.918,4.918,0,0,1-1.727-1.129A4.846,4.846,0,0,1,13.2-3.1a6.343,6.343,0,0,1-.373-2.216A7.679,7.679,0,0,1,14.574-9.9l3.444-4.652a1.957,1.957,0,0,1,.7-.525,2.374,2.374,0,0,1,1.045-.22h2.9L18.123-9.881Z" transform="translate(565.219 5397.603)" fill="#fff"/><path d="M11.76-7.655a12.441,12.441,0,0,1-.431,3.476,7.133,7.133,0,0,1-1.192,2.436A4.806,4.806,0,0,1,8.332-.3,5.426,5.426,0,0,1,6.069.168,5.355,5.355,0,0,1,3.817-.3a4.786,4.786,0,0,1-1.79-1.439A7.123,7.123,0,0,1,.845-4.179,12.586,12.586,0,0,1,.42-7.655,12.586,12.586,0,0,1,.845-11.13a7.123,7.123,0,0,1,1.181-2.436A4.737,4.737,0,0,1,3.817-15a5.406,5.406,0,0,1,2.252-.467A5.478,5.478,0,0,1,8.332-15a4.758,4.758,0,0,1,1.806,1.433A7.133,7.133,0,0,1,11.33-11.13,12.441,12.441,0,0,1,11.76-7.655Zm-3.36,0a13.867,13.867,0,0,0-.2-2.6,5.327,5.327,0,0,0-.53-1.591,1.923,1.923,0,0,0-.751-.793,1.847,1.847,0,0,0-.851-.215,1.816,1.816,0,0,0-.845.215,1.876,1.876,0,0,0-.735.793,5.466,5.466,0,0,0-.514,1.591,14.233,14.233,0,0,0-.194,2.6,14.216,14.216,0,0,0,.194,2.6A5.539,5.539,0,0,0,4.489-3.46a1.872,1.872,0,0,0,.735.8,1.816,1.816,0,0,0,.845.215,1.847,1.847,0,0,0,.851-.215,1.918,1.918,0,0,0,.751-.8A5.4,5.4,0,0,0,8.2-5.051,13.85,13.85,0,0,0,8.4-7.655ZM22.428-2.94a1.156,1.156,0,0,1,.829.289,1,1,0,0,1,.3.761V0H12.81V-1.05a1.91,1.91,0,0,1,.126-.651,1.57,1.57,0,0,1,.441-.63l4.41-4.442a14.622,14.622,0,0,0,.987-1.081,6.7,6.7,0,0,0,.693-1.013,4.617,4.617,0,0,0,.41-1,3.981,3.981,0,0,0,.136-1.055,2.038,2.038,0,0,0-.436-1.4,1.69,1.69,0,0,0-1.328-.488,1.948,1.948,0,0,0-1.223.383,1.963,1.963,0,0,0-.688.95,1.368,1.368,0,0,1-.578.766,1.653,1.653,0,0,1-1.018.084l-1.722-.3a5.744,5.744,0,0,1,.646-2,4.8,4.8,0,0,1,1.186-1.417,4.814,4.814,0,0,1,1.622-.845,6.707,6.707,0,0,1,1.963-.278,5.938,5.938,0,0,1,2.042.331,4.572,4.572,0,0,1,1.549.919,3.956,3.956,0,0,1,.982,1.4,4.584,4.584,0,0,1,.341,1.79,4.92,4.92,0,0,1-.236,1.554,6.122,6.122,0,0,1-.646,1.36,9.5,9.5,0,0,1-.95,1.249q-.541.6-1.15,1.223L17.378-2.572a8.741,8.741,0,0,1,1.145-.273,6.416,6.416,0,0,1,1.05-.094Z" transform="translate(776.521 5310.569)" fill="#fff"/><path d="M11.76-7.655a12.441,12.441,0,0,1-.431,3.476,7.133,7.133,0,0,1-1.192,2.436A4.806,4.806,0,0,1,8.332-.3,5.426,5.426,0,0,1,6.069.168,5.355,5.355,0,0,1,3.817-.3a4.786,4.786,0,0,1-1.79-1.439A7.123,7.123,0,0,1,.845-4.179,12.586,12.586,0,0,1,.42-7.655,12.586,12.586,0,0,1,.845-11.13a7.123,7.123,0,0,1,1.181-2.436A4.737,4.737,0,0,1,3.817-15a5.406,5.406,0,0,1,2.252-.467A5.478,5.478,0,0,1,8.332-15a4.758,4.758,0,0,1,1.806,1.433A7.133,7.133,0,0,1,11.33-11.13,12.441,12.441,0,0,1,11.76-7.655Zm-3.36,0a13.867,13.867,0,0,0-.2-2.6,5.327,5.327,0,0,0-.53-1.591,1.923,1.923,0,0,0-.751-.793,1.847,1.847,0,0,0-.851-.215,1.816,1.816,0,0,0-.845.215,1.876,1.876,0,0,0-.735.793,5.466,5.466,0,0,0-.514,1.591,14.233,14.233,0,0,0-.194,2.6,14.216,14.216,0,0,0,.194,2.6A5.539,5.539,0,0,0,4.489-3.46a1.872,1.872,0,0,0,.735.8,1.816,1.816,0,0,0,.845.215,1.847,1.847,0,0,0,.851-.215,1.918,1.918,0,0,0,.751-.8A5.4,5.4,0,0,0,8.2-5.051,13.85,13.85,0,0,0,8.4-7.655ZM23.762-15.3v1.365a2.916,2.916,0,0,1-.137.982,6.149,6.149,0,0,1-.262.625L18.049-1.071a2.195,2.195,0,0,1-.625.756A1.7,1.7,0,0,1,16.348,0H13.976l5.46-10.952q.242-.441.488-.8a5.717,5.717,0,0,1,.551-.688H13.745a.683.683,0,0,1-.278-.058.752.752,0,0,1-.231-.158.835.835,0,0,1-.163-.231.613.613,0,0,1-.063-.268V-15.3Z" transform="translate(562.166 5310.569)" fill="#fff"/><path d="M11.76-7.655a12.441,12.441,0,0,1-.431,3.476,7.133,7.133,0,0,1-1.192,2.436A4.806,4.806,0,0,1,8.332-.3,5.426,5.426,0,0,1,6.069.168,5.355,5.355,0,0,1,3.817-.3a4.786,4.786,0,0,1-1.79-1.439A7.123,7.123,0,0,1,.845-4.179,12.586,12.586,0,0,1,.42-7.655,12.586,12.586,0,0,1,.845-11.13a7.123,7.123,0,0,1,1.181-2.436A4.737,4.737,0,0,1,3.817-15a5.406,5.406,0,0,1,2.252-.467A5.478,5.478,0,0,1,8.332-15a4.758,4.758,0,0,1,1.806,1.433A7.133,7.133,0,0,1,11.33-11.13,12.441,12.441,0,0,1,11.76-7.655Zm-3.36,0a13.867,13.867,0,0,0-.2-2.6,5.327,5.327,0,0,0-.53-1.591,1.923,1.923,0,0,0-.751-.793,1.847,1.847,0,0,0-.851-.215,1.816,1.816,0,0,0-.845.215,1.876,1.876,0,0,0-.735.793,5.466,5.466,0,0,0-.514,1.591,14.233,14.233,0,0,0-.194,2.6,14.216,14.216,0,0,0,.194,2.6A5.539,5.539,0,0,0,4.489-3.46a1.872,1.872,0,0,0,.735.8,1.816,1.816,0,0,0,.845.215,1.847,1.847,0,0,0,.851-.215,1.918,1.918,0,0,0,.751-.8A5.4,5.4,0,0,0,8.2-5.051,13.85,13.85,0,0,0,8.4-7.655Zm8.442-2.258a7.362,7.362,0,0,1,.83-.115q.4-.031.777-.032a5.738,5.738,0,0,1,2.132.368,4.494,4.494,0,0,1,1.554,1,4.164,4.164,0,0,1,.95,1.491,5.185,5.185,0,0,1,.32,1.832,5.617,5.617,0,0,1-.436,2.242,5.211,5.211,0,0,1-1.213,1.748A5.449,5.449,0,0,1,19.9-.236a6.654,6.654,0,0,1-2.357.4A6.264,6.264,0,0,1,16.123.011a6.855,6.855,0,0,1-1.271-.425,6.8,6.8,0,0,1-1.1-.62,7.253,7.253,0,0,1-.913-.751L13.85-3.129a1.1,1.1,0,0,1,.368-.32.957.957,0,0,1,.451-.11,1.1,1.1,0,0,1,.593.173l.609.378a4.531,4.531,0,0,0,.772.373,3.087,3.087,0,0,0,1.092.168,2.62,2.62,0,0,0,1.113-.215,2,2,0,0,0,.751-.588,2.4,2.4,0,0,0,.42-.872,4.174,4.174,0,0,0,.131-1.066,2.2,2.2,0,0,0-.63-1.7,2.532,2.532,0,0,0-1.785-.583,5.46,5.46,0,0,0-2.016.389L13.7-7.644,15-15.3h7.833v1.344a1.685,1.685,0,0,1-.105.609,1.239,1.239,0,0,1-.331.478,1.518,1.518,0,0,1-.593.315,3.094,3.094,0,0,1-.882.11H17.273Z" transform="translate(626.62 5459.675)" fill="#fff"/><path d="M1.485,0V-12.8H5.1a5.815,5.815,0,0,1,2.953.738,4.993,4.993,0,0,1,1.982,2.1,6.837,6.837,0,0,1,.708,3.129v.817a6.861,6.861,0,0,1-.7,3.173,4.915,4.915,0,0,1-2,2.092A6.185,6.185,0,0,1,5.027,0ZM3.173-11.417V-1.38H4.948A3.863,3.863,0,0,0,7.985-2.594,5.016,5.016,0,0,0,9.07-6.051V-6.8A5.1,5.1,0,0,0,8.046-10.19a3.644,3.644,0,0,0-2.9-1.227ZM16.98.176a4.155,4.155,0,0,1-3.146-1.27,4.714,4.714,0,0,1-1.213-3.4v-.3a5.707,5.707,0,0,1,.541-2.527,4.217,4.217,0,0,1,1.512-1.74,3.8,3.8,0,0,1,2.1-.628,3.562,3.562,0,0,1,2.883,1.222,5.289,5.289,0,0,1,1.028,3.5v.677H14.247a3.38,3.38,0,0,0,.822,2.272,2.583,2.583,0,0,0,2,.866A2.832,2.832,0,0,0,18.527-1.5a3.666,3.666,0,0,0,1.046-.932l.993.773A3.993,3.993,0,0,1,16.98.176Zm-.2-8.525a2.169,2.169,0,0,0-1.652.716A3.482,3.482,0,0,0,14.3-5.625h4.764v-.123a3.1,3.1,0,0,0-.668-1.92A2.042,2.042,0,0,0,16.778-8.35Zm8-3.463v2.3h1.775v1.257H24.776v5.9a1.32,1.32,0,0,0,.237.858,1,1,0,0,0,.809.286A3.937,3.937,0,0,0,26.6-1.31V0a4.742,4.742,0,0,1-1.248.175A2.025,2.025,0,0,1,23.7-.483a2.832,2.832,0,0,1-.554-1.872v-5.9H21.419V-9.51H23.15v-2.3ZM32.4.176a4.155,4.155,0,0,1-3.146-1.27,4.714,4.714,0,0,1-1.213-3.4v-.3a5.707,5.707,0,0,1,.541-2.527,4.217,4.217,0,0,1,1.512-1.74,3.8,3.8,0,0,1,2.1-.628,3.562,3.562,0,0,1,2.883,1.222,5.289,5.289,0,0,1,1.028,3.5v.677H29.663a3.38,3.38,0,0,0,.822,2.272,2.583,2.583,0,0,0,2,.866A2.832,2.832,0,0,0,33.943-1.5a3.666,3.666,0,0,0,1.046-.932l.993.773A3.993,3.993,0,0,1,32.4.176Zm-.2-8.525a2.169,2.169,0,0,0-1.652.716,3.482,3.482,0,0,0-.826,2.008h4.764v-.123a3.1,3.1,0,0,0-.668-1.92A2.042,2.042,0,0,0,32.194-8.35Zm10.389.3a4.873,4.873,0,0,0-.8-.062A2.143,2.143,0,0,0,39.612-6.75V0H37.986V-9.51h1.582l.026,1.1a2.532,2.532,0,0,1,2.268-1.274,1.661,1.661,0,0,1,.721.123ZM45.606-9.51l.044,1.055a3.512,3.512,0,0,1,2.821-1.23,2.719,2.719,0,0,1,2.716,1.529,3.6,3.6,0,0,1,1.235-1.107,3.647,3.647,0,0,1,1.8-.422q3.129,0,3.182,3.313V0H55.775V-6.275A2.184,2.184,0,0,0,55.31-7.8a2.051,2.051,0,0,0-1.564-.505,2.156,2.156,0,0,0-1.5.541,2.193,2.193,0,0,0-.694,1.455V0H49.913V-6.231a1.814,1.814,0,0,0-2.03-2.074,2.175,2.175,0,0,0-2.188,1.362V0H44.068V-9.51ZM61.62,0H59.994V-9.51H61.62ZM59.862-12.032A.971.971,0,0,1,60.1-12.7a.907.907,0,0,1,.716-.272.922.922,0,0,1,.721.272.96.96,0,0,1,.246.668.929.929,0,0,1-.246.659.938.938,0,0,1-.721.264.924.924,0,0,1-.716-.264A.938.938,0,0,1,59.862-12.032Zm5.9,2.522.053,1.2A3.465,3.465,0,0,1,68.66-9.686q3.015,0,3.041,3.4V0H70.075V-6.293a2.189,2.189,0,0,0-.47-1.521,1.884,1.884,0,0,0-1.437-.492,2.347,2.347,0,0,0-1.389.422,2.865,2.865,0,0,0-.932,1.107V0H64.222V-9.51ZM80.024,0A3.416,3.416,0,0,1,79.8-1,3.628,3.628,0,0,1,77.089.176a3.357,3.357,0,0,1-2.307-.8,2.573,2.573,0,0,1-.9-2.017A2.688,2.688,0,0,1,75.01-4.944a5.325,5.325,0,0,1,3.177-.822H79.77v-.747a1.826,1.826,0,0,0-.51-1.358,2.049,2.049,0,0,0-1.5-.505,2.371,2.371,0,0,0-1.459.439,1.3,1.3,0,0,0-.589,1.063H74.074a2.244,2.244,0,0,1,.505-1.375A3.449,3.449,0,0,1,75.951-9.3a4.613,4.613,0,0,1,1.9-.387,3.759,3.759,0,0,1,2.575.822A2.964,2.964,0,0,1,81.4-6.6v4.377a5.351,5.351,0,0,0,.334,2.083V0Zm-2.7-1.239a2.858,2.858,0,0,0,1.45-.4,2.392,2.392,0,0,0,.993-1.028V-4.614H78.5q-2.988,0-2.988,1.749a1.48,1.48,0,0,0,.51,1.2A1.959,1.959,0,0,0,77.326-1.239ZM88.541-8.051a4.873,4.873,0,0,0-.8-.062A2.143,2.143,0,0,0,85.57-6.75V0H83.944V-9.51h1.582l.026,1.1A2.532,2.532,0,0,1,87.82-9.686a1.661,1.661,0,0,1,.721.123ZM96.258,0H94.632V-13.5h1.626Zm8.473,0a3.416,3.416,0,0,1-.229-1A3.628,3.628,0,0,1,101.795.176a3.357,3.357,0,0,1-2.307-.8,2.573,2.573,0,0,1-.9-2.017,2.688,2.688,0,0,1,1.129-2.307,5.325,5.325,0,0,1,3.177-.822h1.582v-.747a1.826,1.826,0,0,0-.51-1.358,2.049,2.049,0,0,0-1.5-.505A2.371,2.371,0,0,0,101-7.937a1.3,1.3,0,0,0-.589,1.063H98.78a2.244,2.244,0,0,1,.505-1.375,3.449,3.449,0,0,1,1.371-1.05,4.613,4.613,0,0,1,1.9-.387,3.759,3.759,0,0,1,2.575.822A2.964,2.964,0,0,1,106.1-6.6v4.377a5.351,5.351,0,0,0,.334,2.083V0Zm-2.7-1.239a2.858,2.858,0,0,0,1.45-.4,2.392,2.392,0,0,0,.993-1.028V-4.614H103.2q-2.988,0-2.988,1.749a1.48,1.48,0,0,0,.51,1.2A1.959,1.959,0,0,0,102.032-1.239Zm12.155-1.283a1.2,1.2,0,0,0-.5-1.024,4.78,4.78,0,0,0-1.731-.628A8.186,8.186,0,0,1,110-4.808a2.788,2.788,0,0,1-1.072-.879A2.1,2.1,0,0,1,108.58-6.9a2.467,2.467,0,0,1,.989-1.978,3.861,3.861,0,0,1,2.527-.809,3.974,3.974,0,0,1,2.624.835,2.652,2.652,0,0,1,1.006,2.136h-1.635a1.468,1.468,0,0,0-.567-1.151A2.124,2.124,0,0,0,112.1-8.35a2.223,2.223,0,0,0-1.389.387,1.217,1.217,0,0,0-.5,1.011.986.986,0,0,0,.466.888,5.731,5.731,0,0,0,1.683.571,8.77,8.77,0,0,1,1.973.65,2.878,2.878,0,0,1,1.121.91,2.237,2.237,0,0,1,.365,1.3,2.434,2.434,0,0,1-1.02,2.043,4.277,4.277,0,0,1-2.646.769,4.789,4.789,0,0,1-2.021-.4,3.288,3.288,0,0,1-1.375-1.129,2.722,2.722,0,0,1-.5-1.569h1.626a1.683,1.683,0,0,0,.655,1.3,2.54,2.54,0,0,0,1.613.479,2.622,2.622,0,0,0,1.481-.374A1.148,1.148,0,0,0,114.188-2.522Z" transform="translate(711.883 5152.776)" fill="#1e168c"/><path d="M2.769-9.51l.053,1.2A3.465,3.465,0,0,1,5.669-9.686q3.015,0,3.041,3.4V0H7.084V-6.293a2.189,2.189,0,0,0-.47-1.521,1.884,1.884,0,0,0-1.437-.492,2.347,2.347,0,0,0-1.389.422,2.865,2.865,0,0,0-.932,1.107V0H1.23V-9.51ZM15.108.176a4.155,4.155,0,0,1-3.146-1.27,4.714,4.714,0,0,1-1.213-3.4v-.3a5.707,5.707,0,0,1,.541-2.527A4.217,4.217,0,0,1,12.8-9.057a3.8,3.8,0,0,1,2.1-.628,3.562,3.562,0,0,1,2.883,1.222,5.289,5.289,0,0,1,1.028,3.5v.677H12.375A3.38,3.38,0,0,0,13.2-2.017a2.583,2.583,0,0,0,2,.866A2.832,2.832,0,0,0,16.655-1.5,3.666,3.666,0,0,0,17.7-2.435l.993.773A3.993,3.993,0,0,1,15.108.176Zm-.2-8.525a2.169,2.169,0,0,0-1.652.716,3.482,3.482,0,0,0-.826,2.008h4.764v-.123a3.1,3.1,0,0,0-.668-1.92A2.042,2.042,0,0,0,14.906-8.35Zm9.606,7.2a2.342,2.342,0,0,0,1.521-.527A1.855,1.855,0,0,0,26.754-3h1.538a2.949,2.949,0,0,1-.562,1.556A3.7,3.7,0,0,1,26.345-.264a3.994,3.994,0,0,1-1.833.439,3.918,3.918,0,0,1-3.089-1.3,5.163,5.163,0,0,1-1.147-3.546v-.272a5.725,5.725,0,0,1,.51-2.47A3.883,3.883,0,0,1,22.25-9.088a4.157,4.157,0,0,1,2.254-.6,3.814,3.814,0,0,1,2.659.958A3.424,3.424,0,0,1,28.292-6.24H26.754a2.241,2.241,0,0,0-.7-1.516A2.174,2.174,0,0,0,24.5-8.35a2.276,2.276,0,0,0-1.92.892,4.19,4.19,0,0,0-.681,2.58v.308a4.106,4.106,0,0,0,.677,2.531A2.287,2.287,0,0,0,24.513-1.151ZM34.066.176a4.155,4.155,0,0,1-3.146-1.27,4.714,4.714,0,0,1-1.213-3.4v-.3a5.707,5.707,0,0,1,.541-2.527,4.217,4.217,0,0,1,1.512-1.74,3.8,3.8,0,0,1,2.1-.628,3.562,3.562,0,0,1,2.883,1.222,5.289,5.289,0,0,1,1.028,3.5v.677H31.333a3.38,3.38,0,0,0,.822,2.272,2.583,2.583,0,0,0,2,.866A2.832,2.832,0,0,0,35.613-1.5a3.666,3.666,0,0,0,1.046-.932l.993.773A3.993,3.993,0,0,1,34.066.176Zm-.2-8.525a2.169,2.169,0,0,0-1.652.716,3.482,3.482,0,0,0-.826,2.008h4.764v-.123a3.1,3.1,0,0,0-.668-1.92A2.042,2.042,0,0,0,33.864-8.35ZM45.193-2.522a1.2,1.2,0,0,0-.5-1.024,4.78,4.78,0,0,0-1.731-.628,8.186,8.186,0,0,1-1.96-.633,2.788,2.788,0,0,1-1.072-.879A2.1,2.1,0,0,1,39.586-6.9a2.467,2.467,0,0,1,.989-1.978A3.861,3.861,0,0,1,43.1-9.686a3.974,3.974,0,0,1,2.624.835,2.652,2.652,0,0,1,1.006,2.136H45.1a1.468,1.468,0,0,0-.567-1.151A2.124,2.124,0,0,0,43.1-8.35a2.223,2.223,0,0,0-1.389.387,1.217,1.217,0,0,0-.5,1.011.986.986,0,0,0,.466.888,5.731,5.731,0,0,0,1.683.571,8.77,8.77,0,0,1,1.973.65,2.878,2.878,0,0,1,1.121.91,2.237,2.237,0,0,1,.365,1.3A2.434,2.434,0,0,1,45.8-.593a4.277,4.277,0,0,1-2.646.769,4.789,4.789,0,0,1-2.021-.4,3.288,3.288,0,0,1-1.375-1.129,2.722,2.722,0,0,1-.5-1.569h1.626a1.683,1.683,0,0,0,.655,1.3,2.54,2.54,0,0,0,1.613.479,2.622,2.622,0,0,0,1.481-.374A1.148,1.148,0,0,0,45.193-2.522ZM50.7,0H49.078V-9.51H50.7ZM48.946-12.032a.971.971,0,0,1,.242-.668.907.907,0,0,1,.716-.272.922.922,0,0,1,.721.272.96.96,0,0,1,.246.668.929.929,0,0,1-.246.659.938.938,0,0,1-.721.264.924.924,0,0,1-.716-.264A.938.938,0,0,1,48.946-12.032Zm3.964,7.2a5.571,5.571,0,0,1,1.037-3.52,3.28,3.28,0,0,1,2.716-1.332,3.3,3.3,0,0,1,2.646,1.143V-13.5h1.626V0H59.44l-.079-1.02a3.311,3.311,0,0,1-2.716,1.2,3.248,3.248,0,0,1-2.694-1.354A5.634,5.634,0,0,1,52.91-4.711Zm1.626.185A4.218,4.218,0,0,0,55.2-2.118,2.159,2.159,0,0,0,57.05-1.2a2.372,2.372,0,0,0,2.259-1.389V-6.961a2.39,2.39,0,0,0-2.241-1.345,2.17,2.17,0,0,0-1.863.923A4.644,4.644,0,0,0,54.536-4.649ZM69.328,0A3.416,3.416,0,0,1,69.1-1,3.628,3.628,0,0,1,66.393.176a3.357,3.357,0,0,1-2.307-.8,2.573,2.573,0,0,1-.9-2.017,2.688,2.688,0,0,1,1.129-2.307,5.325,5.325,0,0,1,3.177-.822h1.582v-.747a1.826,1.826,0,0,0-.51-1.358,2.049,2.049,0,0,0-1.5-.505,2.371,2.371,0,0,0-1.459.439,1.3,1.3,0,0,0-.589,1.063H63.378a2.244,2.244,0,0,1,.505-1.375A3.449,3.449,0,0,1,65.254-9.3a4.613,4.613,0,0,1,1.9-.387,3.759,3.759,0,0,1,2.575.822A2.964,2.964,0,0,1,70.7-6.6v4.377a5.351,5.351,0,0,0,.334,2.083V0Zm-2.7-1.239a2.858,2.858,0,0,0,1.45-.4,2.392,2.392,0,0,0,.993-1.028V-4.614H67.8q-2.988,0-2.988,1.749a1.48,1.48,0,0,0,.51,1.2A1.959,1.959,0,0,0,66.63-1.239Zm6.223-3.595a5.571,5.571,0,0,1,1.037-3.52,3.28,3.28,0,0,1,2.716-1.332,3.3,3.3,0,0,1,2.646,1.143V-13.5h1.626V0H79.383L79.3-1.02a3.311,3.311,0,0,1-2.716,1.2,3.248,3.248,0,0,1-2.694-1.354,5.634,5.634,0,0,1-1.042-3.533Zm1.626.185a4.218,4.218,0,0,0,.668,2.531,2.159,2.159,0,0,0,1.846.914,2.372,2.372,0,0,0,2.259-1.389V-6.961A2.39,2.39,0,0,0,77.01-8.306a2.17,2.17,0,0,0-1.863.923A4.644,4.644,0,0,0,74.479-4.649ZM87.346.176A4.155,4.155,0,0,1,84.2-1.094a4.714,4.714,0,0,1-1.213-3.4v-.3a5.707,5.707,0,0,1,.541-2.527,4.217,4.217,0,0,1,1.512-1.74,3.8,3.8,0,0,1,2.1-.628,3.562,3.562,0,0,1,2.883,1.222,5.289,5.289,0,0,1,1.028,3.5v.677H84.612a3.38,3.38,0,0,0,.822,2.272,2.583,2.583,0,0,0,2,.866A2.832,2.832,0,0,0,88.893-1.5a3.666,3.666,0,0,0,1.046-.932l.993.773A3.993,3.993,0,0,1,87.346.176Zm-.2-8.525a2.169,2.169,0,0,0-1.652.716,3.482,3.482,0,0,0-.826,2.008h4.764v-.123a3.1,3.1,0,0,0-.668-1.92A2.042,2.042,0,0,0,87.144-8.35ZM98.473-2.522a1.2,1.2,0,0,0-.5-1.024,4.78,4.78,0,0,0-1.731-.628,8.186,8.186,0,0,1-1.96-.633,2.788,2.788,0,0,1-1.072-.879A2.1,2.1,0,0,1,92.865-6.9a2.467,2.467,0,0,1,.989-1.978,3.861,3.861,0,0,1,2.527-.809A3.974,3.974,0,0,1,99-8.851a2.652,2.652,0,0,1,1.006,2.136H98.376a1.468,1.468,0,0,0-.567-1.151,2.124,2.124,0,0,0-1.428-.483,2.223,2.223,0,0,0-1.389.387,1.217,1.217,0,0,0-.5,1.011.986.986,0,0,0,.466.888,5.731,5.731,0,0,0,1.683.571,8.77,8.77,0,0,1,1.973.65,2.878,2.878,0,0,1,1.121.91,2.237,2.237,0,0,1,.365,1.3,2.434,2.434,0,0,1-1.02,2.043,4.277,4.277,0,0,1-2.646.769,4.789,4.789,0,0,1-2.021-.4,3.288,3.288,0,0,1-1.375-1.129,2.722,2.722,0,0,1-.5-1.569h1.626a1.683,1.683,0,0,0,.655,1.3,2.54,2.54,0,0,0,1.613.479,2.622,2.622,0,0,0,1.481-.374A1.148,1.148,0,0,0,98.473-2.522Z" transform="translate(711.883 5171.096)" fill="#1e168c"/><path d="M10.934-1.679A3.9,3.9,0,0,1,9.119-.286,7.331,7.331,0,0,1,6.407.176,5.258,5.258,0,0,1,3.63-.558,4.889,4.889,0,0,1,1.753-2.646a7.21,7.21,0,0,1-.681-3.138V-6.9a6.73,6.73,0,0,1,1.349-4.482,4.7,4.7,0,0,1,3.792-1.591,4.856,4.856,0,0,1,3.226,1.024,4.461,4.461,0,0,1,1.494,2.9H9.246a2.79,2.79,0,0,0-3.023-2.549A2.987,2.987,0,0,0,3.652-10.4a5.82,5.82,0,0,0-.883,3.453V-5.9a5.454,5.454,0,0,0,.984,3.426A3.191,3.191,0,0,0,6.416-1.2a5.882,5.882,0,0,0,1.661-.21,2.569,2.569,0,0,0,1.178-.71V-4.992H6.293v-1.38h4.641Zm6.5,1.854a4.155,4.155,0,0,1-3.146-1.27,4.714,4.714,0,0,1-1.213-3.4v-.3a5.707,5.707,0,0,1,.541-2.527,4.217,4.217,0,0,1,1.512-1.74,3.8,3.8,0,0,1,2.1-.628,3.562,3.562,0,0,1,2.883,1.222,5.289,5.289,0,0,1,1.028,3.5v.677H14.7a3.38,3.38,0,0,0,.822,2.272,2.583,2.583,0,0,0,2,.866A2.832,2.832,0,0,0,18.984-1.5a3.666,3.666,0,0,0,1.046-.932l.993.773A3.993,3.993,0,0,1,17.438.176Zm-.2-8.525a2.169,2.169,0,0,0-1.652.716,3.482,3.482,0,0,0-.826,2.008h4.764v-.123a3.1,3.1,0,0,0-.668-1.92A2.042,2.042,0,0,0,17.235-8.35ZM28.564-2.522a1.2,1.2,0,0,0-.5-1.024,4.78,4.78,0,0,0-1.731-.628,8.186,8.186,0,0,1-1.96-.633A2.788,2.788,0,0,1,23.3-5.687,2.1,2.1,0,0,1,22.957-6.9a2.467,2.467,0,0,1,.989-1.978,3.861,3.861,0,0,1,2.527-.809,3.974,3.974,0,0,1,2.624.835A2.652,2.652,0,0,1,30.1-6.715H28.468A1.468,1.468,0,0,0,27.9-7.866a2.124,2.124,0,0,0-1.428-.483,2.223,2.223,0,0,0-1.389.387,1.217,1.217,0,0,0-.5,1.011.986.986,0,0,0,.466.888,5.731,5.731,0,0,0,1.683.571,8.77,8.77,0,0,1,1.973.65,2.878,2.878,0,0,1,1.121.91,2.237,2.237,0,0,1,.365,1.3,2.434,2.434,0,0,1-1.02,2.043,4.277,4.277,0,0,1-2.646.769,4.789,4.789,0,0,1-2.021-.4,3.288,3.288,0,0,1-1.375-1.129,2.722,2.722,0,0,1-.5-1.569h1.626a1.683,1.683,0,0,0,.655,1.3,2.54,2.54,0,0,0,1.613.479,2.622,2.622,0,0,0,1.481-.374A1.148,1.148,0,0,0,28.564-2.522Zm5.95-9.29v2.3H36.29v1.257H34.515v5.9a1.32,1.32,0,0,0,.237.858,1,1,0,0,0,.809.286,3.937,3.937,0,0,0,.773-.105V0a4.742,4.742,0,0,1-1.248.175,2.025,2.025,0,0,1-1.644-.659,2.832,2.832,0,0,1-.554-1.872v-5.9H31.157V-9.51h1.731v-2.3ZM39.955,0H38.329V-9.51h1.626ZM38.2-12.032a.971.971,0,0,1,.242-.668.907.907,0,0,1,.716-.272.922.922,0,0,1,.721.272.96.96,0,0,1,.246.668.929.929,0,0,1-.246.659.938.938,0,0,1-.721.264.924.924,0,0,1-.716-.264A.938.938,0,0,1,38.2-12.032Zm3.929,7.189a5.617,5.617,0,0,1,.549-2.514A4.1,4.1,0,0,1,44.2-9.079a4.163,4.163,0,0,1,2.237-.606,4.01,4.01,0,0,1,3.142,1.345,5.174,5.174,0,0,1,1.2,3.577v.114a5.666,5.666,0,0,1-.532,2.492A4.038,4.038,0,0,1,48.731-.439a4.211,4.211,0,0,1-2.272.615,4,4,0,0,1-3.133-1.345,5.147,5.147,0,0,1-1.2-3.56Zm1.635.193a4.068,4.068,0,0,0,.734,2.54,2.349,2.349,0,0,0,1.964.958,2.335,2.335,0,0,0,1.969-.971,4.449,4.449,0,0,0,.729-2.72,4.061,4.061,0,0,0-.743-2.536,2.361,2.361,0,0,0-1.973-.971,2.335,2.335,0,0,0-1.942.958A4.416,4.416,0,0,0,43.761-4.649ZM47.18-13.5h1.969l-2.355,2.584-1.31,0ZM54.36-9.51l.053,1.2a3.465,3.465,0,0,1,2.848-1.371q3.015,0,3.041,3.4V0H58.676V-6.293a2.189,2.189,0,0,0-.47-1.521,1.884,1.884,0,0,0-1.437-.492,2.347,2.347,0,0,0-1.389.422,2.865,2.865,0,0,0-.932,1.107V0H52.822V-9.51ZM66.814-4.834a5.571,5.571,0,0,1,1.037-3.52,3.28,3.28,0,0,1,2.716-1.332,3.3,3.3,0,0,1,2.646,1.143V-13.5h1.626V0H73.345l-.079-1.02A3.311,3.311,0,0,1,70.55.176a3.248,3.248,0,0,1-2.694-1.354,5.634,5.634,0,0,1-1.042-3.533Zm1.626.185a4.218,4.218,0,0,0,.668,2.531,2.159,2.159,0,0,0,1.846.914,2.372,2.372,0,0,0,2.259-1.389V-6.961a2.39,2.39,0,0,0-2.241-1.345,2.17,2.17,0,0,0-1.863.923A4.644,4.644,0,0,0,68.44-4.649ZM81.308.176a4.155,4.155,0,0,1-3.146-1.27,4.714,4.714,0,0,1-1.213-3.4v-.3a5.707,5.707,0,0,1,.541-2.527A4.217,4.217,0,0,1,79-9.057a3.8,3.8,0,0,1,2.1-.628,3.562,3.562,0,0,1,2.883,1.222,5.289,5.289,0,0,1,1.028,3.5v.677H78.574A3.38,3.38,0,0,0,79.4-2.017a2.583,2.583,0,0,0,2,.866A2.832,2.832,0,0,0,82.854-1.5,3.666,3.666,0,0,0,83.9-2.435l.993.773A3.993,3.993,0,0,1,81.308.176Zm-.2-8.525a2.169,2.169,0,0,0-1.652.716,3.482,3.482,0,0,0-.826,2.008h4.764v-.123a3.1,3.1,0,0,0-.668-1.92A2.042,2.042,0,0,0,81.105-8.35Z" transform="translate(554.334 5152.776)" fill="#fff"/><path d="M9.264-4.649a5.694,5.694,0,0,1-.993,3.5A3.183,3.183,0,0,1,5.581.176a3.488,3.488,0,0,1-2.725-1.1V3.656H1.23V-9.51H2.716l.079,1.055a3.35,3.35,0,0,1,2.76-1.23A3.243,3.243,0,0,1,8.266-8.394a5.756,5.756,0,0,1,1,3.595ZM7.638-4.834a4.2,4.2,0,0,0-.686-2.54,2.208,2.208,0,0,0-1.881-.932A2.39,2.39,0,0,0,2.856-7v4.544a2.4,2.4,0,0,0,2.232,1.3,2.2,2.2,0,0,0,1.859-.927A4.587,4.587,0,0,0,7.638-4.834ZM17.2,0a3.416,3.416,0,0,1-.229-1A3.628,3.628,0,0,1,14.265.176a3.357,3.357,0,0,1-2.307-.8,2.573,2.573,0,0,1-.9-2.017,2.688,2.688,0,0,1,1.129-2.307,5.325,5.325,0,0,1,3.177-.822h1.582v-.747a1.826,1.826,0,0,0-.51-1.358,2.049,2.049,0,0,0-1.5-.505,2.371,2.371,0,0,0-1.459.439,1.3,1.3,0,0,0-.589,1.063H11.25a2.244,2.244,0,0,1,.505-1.375A3.449,3.449,0,0,1,13.126-9.3a4.613,4.613,0,0,1,1.9-.387,3.759,3.759,0,0,1,2.575.822A2.964,2.964,0,0,1,18.571-6.6v4.377a5.351,5.351,0,0,0,.334,2.083V0ZM14.5-1.239a2.858,2.858,0,0,0,1.45-.4,2.392,2.392,0,0,0,.993-1.028V-4.614H15.671q-2.988,0-2.988,1.749a1.48,1.48,0,0,0,.51,1.2A1.959,1.959,0,0,0,14.5-1.239Zm6.231-3.595a5.589,5.589,0,0,1,1.028-3.538,3.289,3.289,0,0,1,2.725-1.314A3.271,3.271,0,0,1,27.2-8.455l.079-1.055h1.485V-.229a3.869,3.869,0,0,1-1.094,2.909,4.038,4.038,0,0,1-2.94,1.063A4.891,4.891,0,0,1,22.72,3.3a3.465,3.465,0,0,1-1.5-1.2l.844-.976a3.18,3.18,0,0,0,2.558,1.292,2.491,2.491,0,0,0,1.85-.668,2.553,2.553,0,0,0,.664-1.881V-.949A3.342,3.342,0,0,1,24.469.176a3.248,3.248,0,0,1-2.7-1.345A5.876,5.876,0,0,1,20.733-4.834Zm1.635.185a4.264,4.264,0,0,0,.659,2.527,2.142,2.142,0,0,0,1.846.918,2.382,2.382,0,0,0,2.259-1.4V-6.943a2.41,2.41,0,0,0-2.241-1.362,2.161,2.161,0,0,0-1.854.923A4.644,4.644,0,0,0,22.368-4.649Zm8.42-.193a5.617,5.617,0,0,1,.549-2.514,4.1,4.1,0,0,1,1.529-1.723A4.163,4.163,0,0,1,35.1-9.686a4.01,4.01,0,0,1,3.142,1.345,5.174,5.174,0,0,1,1.2,3.577v.114a5.666,5.666,0,0,1-.532,2.492A4.038,4.038,0,0,1,37.393-.439a4.211,4.211,0,0,1-2.272.615,4,4,0,0,1-3.133-1.345,5.147,5.147,0,0,1-1.2-3.56Zm1.635.193a4.068,4.068,0,0,0,.734,2.54,2.349,2.349,0,0,0,1.964.958,2.335,2.335,0,0,0,1.969-.971,4.449,4.449,0,0,0,.729-2.72,4.061,4.061,0,0,0-.743-2.536A2.361,2.361,0,0,0,35.1-8.35a2.335,2.335,0,0,0-1.942.958A4.416,4.416,0,0,0,32.423-4.649Zm14.6,2.127a1.2,1.2,0,0,0-.5-1.024,4.78,4.78,0,0,0-1.731-.628,8.186,8.186,0,0,1-1.96-.633,2.788,2.788,0,0,1-1.072-.879A2.1,2.1,0,0,1,41.414-6.9,2.467,2.467,0,0,1,42.4-8.877a3.861,3.861,0,0,1,2.527-.809,3.974,3.974,0,0,1,2.624.835A2.652,2.652,0,0,1,48.56-6.715H46.925a1.468,1.468,0,0,0-.567-1.151A2.124,2.124,0,0,0,44.93-8.35a2.223,2.223,0,0,0-1.389.387,1.217,1.217,0,0,0-.5,1.011.986.986,0,0,0,.466.888,5.731,5.731,0,0,0,1.683.571,8.77,8.77,0,0,1,1.973.65,2.878,2.878,0,0,1,1.121.91,2.237,2.237,0,0,1,.365,1.3,2.434,2.434,0,0,1-1.02,2.043,4.277,4.277,0,0,1-2.646.769,4.789,4.789,0,0,1-2.021-.4,3.288,3.288,0,0,1-1.375-1.129,2.722,2.722,0,0,1-.5-1.569h1.626a1.683,1.683,0,0,0,.655,1.3,2.54,2.54,0,0,0,1.613.479,2.622,2.622,0,0,0,1.481-.374A1.148,1.148,0,0,0,47.021-2.522Z" transform="translate(591.63 5171.096)" fill="#fff"/><path d="M10.934-1.679A3.9,3.9,0,0,1,9.119-.286,7.331,7.331,0,0,1,6.407.176,5.258,5.258,0,0,1,3.63-.558,4.889,4.889,0,0,1,1.753-2.646a7.21,7.21,0,0,1-.681-3.138V-6.9a6.73,6.73,0,0,1,1.349-4.482,4.7,4.7,0,0,1,3.792-1.591,4.856,4.856,0,0,1,3.226,1.024,4.461,4.461,0,0,1,1.494,2.9H9.246a2.79,2.79,0,0,0-3.023-2.549A2.987,2.987,0,0,0,3.652-10.4a5.82,5.82,0,0,0-.883,3.453V-5.9a5.454,5.454,0,0,0,.984,3.426A3.191,3.191,0,0,0,6.416-1.2a5.882,5.882,0,0,0,1.661-.21,2.569,2.569,0,0,0,1.178-.71V-4.992H6.293v-1.38h4.641Zm6.5,1.854a4.155,4.155,0,0,1-3.146-1.27,4.714,4.714,0,0,1-1.213-3.4v-.3a5.707,5.707,0,0,1,.541-2.527,4.217,4.217,0,0,1,1.512-1.74,3.8,3.8,0,0,1,2.1-.628,3.562,3.562,0,0,1,2.883,1.222,5.289,5.289,0,0,1,1.028,3.5v.677H14.7a3.38,3.38,0,0,0,.822,2.272,2.583,2.583,0,0,0,2,.866A2.832,2.832,0,0,0,18.984-1.5a3.666,3.666,0,0,0,1.046-.932l.993.773A3.993,3.993,0,0,1,17.438.176Zm-.2-8.525a2.169,2.169,0,0,0-1.652.716,3.482,3.482,0,0,0-.826,2.008h4.764v-.123a3.1,3.1,0,0,0-.668-1.92A2.042,2.042,0,0,0,17.235-8.35ZM28.564-2.522a1.2,1.2,0,0,0-.5-1.024,4.78,4.78,0,0,0-1.731-.628,8.186,8.186,0,0,1-1.96-.633A2.788,2.788,0,0,1,23.3-5.687,2.1,2.1,0,0,1,22.957-6.9a2.467,2.467,0,0,1,.989-1.978,3.861,3.861,0,0,1,2.527-.809,3.974,3.974,0,0,1,2.624.835A2.652,2.652,0,0,1,30.1-6.715H28.468A1.468,1.468,0,0,0,27.9-7.866a2.124,2.124,0,0,0-1.428-.483,2.223,2.223,0,0,0-1.389.387,1.217,1.217,0,0,0-.5,1.011.986.986,0,0,0,.466.888,5.731,5.731,0,0,0,1.683.571,8.77,8.77,0,0,1,1.973.65,2.878,2.878,0,0,1,1.121.91,2.237,2.237,0,0,1,.365,1.3,2.434,2.434,0,0,1-1.02,2.043,4.277,4.277,0,0,1-2.646.769,4.789,4.789,0,0,1-2.021-.4,3.288,3.288,0,0,1-1.375-1.129,2.722,2.722,0,0,1-.5-1.569h1.626a1.683,1.683,0,0,0,.655,1.3,2.54,2.54,0,0,0,1.613.479,2.622,2.622,0,0,0,1.481-.374A1.148,1.148,0,0,0,28.564-2.522Zm5.95-9.29v2.3H36.29v1.257H34.515v5.9a1.32,1.32,0,0,0,.237.858,1,1,0,0,0,.809.286,3.937,3.937,0,0,0,.773-.105V0a4.742,4.742,0,0,1-1.248.175,2.025,2.025,0,0,1-1.644-.659,2.832,2.832,0,0,1-.554-1.872v-5.9H31.157V-9.51h1.731v-2.3ZM39.955,0H38.329V-9.51h1.626ZM38.2-12.032a.971.971,0,0,1,.242-.668.907.907,0,0,1,.716-.272.922.922,0,0,1,.721.272.96.96,0,0,1,.246.668.929.929,0,0,1-.246.659.938.938,0,0,1-.721.264.924.924,0,0,1-.716-.264A.938.938,0,0,1,38.2-12.032Zm3.929,7.189a5.617,5.617,0,0,1,.549-2.514A4.1,4.1,0,0,1,44.2-9.079a4.163,4.163,0,0,1,2.237-.606,4.01,4.01,0,0,1,3.142,1.345,5.174,5.174,0,0,1,1.2,3.577v.114a5.666,5.666,0,0,1-.532,2.492A4.038,4.038,0,0,1,48.731-.439a4.211,4.211,0,0,1-2.272.615,4,4,0,0,1-3.133-1.345,5.147,5.147,0,0,1-1.2-3.56Zm1.635.193a4.068,4.068,0,0,0,.734,2.54,2.349,2.349,0,0,0,1.964.958,2.335,2.335,0,0,0,1.969-.971,4.449,4.449,0,0,0,.729-2.72,4.061,4.061,0,0,0-.743-2.536,2.361,2.361,0,0,0-1.973-.971,2.335,2.335,0,0,0-1.942.958A4.416,4.416,0,0,0,43.761-4.649ZM47.18-13.5h1.969l-2.355,2.584-1.31,0ZM54.36-9.51l.053,1.2a3.465,3.465,0,0,1,2.848-1.371q3.015,0,3.041,3.4V0H58.676V-6.293a2.189,2.189,0,0,0-.47-1.521,1.884,1.884,0,0,0-1.437-.492,2.347,2.347,0,0,0-1.389.422,2.865,2.865,0,0,0-.932,1.107V0H52.822V-9.51ZM66.814-4.834a5.571,5.571,0,0,1,1.037-3.52,3.28,3.28,0,0,1,2.716-1.332,3.3,3.3,0,0,1,2.646,1.143V-13.5h1.626V0H73.345l-.079-1.02A3.311,3.311,0,0,1,70.55.176a3.248,3.248,0,0,1-2.694-1.354,5.634,5.634,0,0,1-1.042-3.533Zm1.626.185a4.218,4.218,0,0,0,.668,2.531,2.159,2.159,0,0,0,1.846.914,2.372,2.372,0,0,0,2.259-1.389V-6.961a2.39,2.39,0,0,0-2.241-1.345,2.17,2.17,0,0,0-1.863.923A4.644,4.644,0,0,0,68.44-4.649ZM81.308.176a4.155,4.155,0,0,1-3.146-1.27,4.714,4.714,0,0,1-1.213-3.4v-.3a5.707,5.707,0,0,1,.541-2.527A4.217,4.217,0,0,1,79-9.057a3.8,3.8,0,0,1,2.1-.628,3.562,3.562,0,0,1,2.883,1.222,5.289,5.289,0,0,1,1.028,3.5v.677H78.574A3.38,3.38,0,0,0,79.4-2.017a2.583,2.583,0,0,0,2,.866A2.832,2.832,0,0,0,82.854-1.5,3.666,3.666,0,0,0,83.9-2.435l.993.773A3.993,3.993,0,0,1,81.308.176Zm-.2-8.525a2.169,2.169,0,0,0-1.652.716,3.482,3.482,0,0,0-.826,2.008h4.764v-.123a3.1,3.1,0,0,0-.668-1.92A2.042,2.042,0,0,0,81.105-8.35ZM9.264,13.351a5.694,5.694,0,0,1-.993,3.5,3.183,3.183,0,0,1-2.689,1.327,3.488,3.488,0,0,1-2.725-1.1v4.579H1.23V8.49H2.716l.079,1.055a3.35,3.35,0,0,1,2.76-1.23A3.243,3.243,0,0,1,8.266,9.606a5.756,5.756,0,0,1,1,3.595Zm-1.626-.185a4.2,4.2,0,0,0-.686-2.54,2.208,2.208,0,0,0-1.881-.932A2.39,2.39,0,0,0,2.856,11v4.544a2.4,2.4,0,0,0,2.232,1.3,2.2,2.2,0,0,0,1.859-.927A4.587,4.587,0,0,0,7.638,13.166Zm7.638,5.01a4.155,4.155,0,0,1-3.146-1.27,4.714,4.714,0,0,1-1.213-3.4v-.3a5.707,5.707,0,0,1,.541-2.527,4.217,4.217,0,0,1,1.512-1.74,3.8,3.8,0,0,1,2.1-.628,3.562,3.562,0,0,1,2.883,1.222,5.289,5.289,0,0,1,1.028,3.5v.677H12.542a3.38,3.38,0,0,0,.822,2.272,2.583,2.583,0,0,0,2,.866,2.832,2.832,0,0,0,1.459-.352,3.666,3.666,0,0,0,1.046-.932l.993.773A3.993,3.993,0,0,1,15.275,18.176Zm-.2-8.525a2.169,2.169,0,0,0-1.652.716,3.482,3.482,0,0,0-.826,2.008h4.764v-.123a3.1,3.1,0,0,0-.668-1.92A2.042,2.042,0,0,0,15.073,9.65Zm5.4,3.516a5.571,5.571,0,0,1,1.037-3.52,3.529,3.529,0,0,1,5.361-.189V4.5h1.626V18H27l-.079-1.02a3.311,3.311,0,0,1-2.716,1.2,3.248,3.248,0,0,1-2.694-1.354,5.634,5.634,0,0,1-1.042-3.533Zm1.626.185a4.218,4.218,0,0,0,.668,2.531,2.159,2.159,0,0,0,1.846.914,2.372,2.372,0,0,0,2.259-1.389V11.039a2.39,2.39,0,0,0-2.241-1.345,2.17,2.17,0,0,0-1.863.923A4.644,4.644,0,0,0,22.1,13.351ZM32.783,18H31.157V8.49h1.626ZM31.025,5.968a.971.971,0,0,1,.242-.668.907.907,0,0,1,.716-.272A.922.922,0,0,1,32.7,5.3a.96.96,0,0,1,.246.668.929.929,0,0,1-.246.659.938.938,0,0,1-.721.264.924.924,0,0,1-.716-.264A.938.938,0,0,1,31.025,5.968Zm3.964,7.2a5.571,5.571,0,0,1,1.037-3.52,3.529,3.529,0,0,1,5.361-.189V4.5h1.626V18H41.52l-.079-1.02a3.311,3.311,0,0,1-2.716,1.2,3.248,3.248,0,0,1-2.694-1.354,5.634,5.634,0,0,1-1.042-3.533Zm1.626.185a4.218,4.218,0,0,0,.668,2.531,2.159,2.159,0,0,0,1.846.914,2.372,2.372,0,0,0,2.259-1.389V11.039a2.39,2.39,0,0,0-2.241-1.345,2.17,2.17,0,0,0-1.863.923A4.644,4.644,0,0,0,36.615,13.351Zm8.49-.193a5.617,5.617,0,0,1,.549-2.514,4.1,4.1,0,0,1,1.529-1.723,4.163,4.163,0,0,1,2.237-.606,4.01,4.01,0,0,1,3.142,1.345,5.174,5.174,0,0,1,1.2,3.577v.114a5.666,5.666,0,0,1-.532,2.492,4.038,4.038,0,0,1-1.521,1.718,4.211,4.211,0,0,1-2.272.615,4,4,0,0,1-3.133-1.345,5.147,5.147,0,0,1-1.2-3.56Zm1.635.193a4.068,4.068,0,0,0,.734,2.54,2.487,2.487,0,0,0,3.933-.013,4.449,4.449,0,0,0,.729-2.72,4.061,4.061,0,0,0-.743-2.536,2.361,2.361,0,0,0-1.973-.971,2.335,2.335,0,0,0-1.942.958A4.416,4.416,0,0,0,46.74,13.351Zm16.629,2.268L65.584,8.49h1.74L63.5,19.468q-.888,2.373-2.821,2.373l-.308-.026-.606-.114V20.382l.439.035a2.164,2.164,0,0,0,1.288-.334,2.417,2.417,0,0,0,.76-1.222l.36-.967-3.393-9.4H61ZM72.8,13.157a5.617,5.617,0,0,1,.549-2.514,4.1,4.1,0,0,1,1.529-1.723,4.163,4.163,0,0,1,2.237-.606,4.01,4.01,0,0,1,3.142,1.345,5.174,5.174,0,0,1,1.2,3.577v.114a5.666,5.666,0,0,1-.532,2.492A4.038,4.038,0,0,1,79.4,17.561a4.211,4.211,0,0,1-2.272.615A4,4,0,0,1,74,16.831a5.147,5.147,0,0,1-1.2-3.56Zm1.635.193a4.068,4.068,0,0,0,.734,2.54,2.487,2.487,0,0,0,3.933-.013,4.449,4.449,0,0,0,.729-2.72,4.061,4.061,0,0,0-.743-2.536,2.361,2.361,0,0,0-1.973-.971,2.335,2.335,0,0,0-1.942.958A4.416,4.416,0,0,0,74.435,13.351Zm13.658-3.4a4.873,4.873,0,0,0-.8-.062,2.143,2.143,0,0,0-2.171,1.362V18H83.5V8.49h1.582l.026,1.1a2.532,2.532,0,0,1,2.268-1.274,1.661,1.661,0,0,1,.721.123Zm.919,3.217a5.571,5.571,0,0,1,1.037-3.52,3.529,3.529,0,0,1,5.361-.189V4.5h1.626V18H95.542l-.079-1.02a3.311,3.311,0,0,1-2.716,1.2,3.248,3.248,0,0,1-2.694-1.354,5.634,5.634,0,0,1-1.042-3.533Zm1.626.185a4.218,4.218,0,0,0,.668,2.531,2.159,2.159,0,0,0,1.846.914,2.372,2.372,0,0,0,2.259-1.389V11.039a2.39,2.39,0,0,0-2.241-1.345,2.17,2.17,0,0,0-1.863.923A4.644,4.644,0,0,0,90.637,13.351ZM103.5,18.176a4.155,4.155,0,0,1-3.146-1.27,4.714,4.714,0,0,1-1.213-3.4v-.3a5.707,5.707,0,0,1,.541-2.527,4.217,4.217,0,0,1,1.512-1.74,3.8,3.8,0,0,1,2.1-.628,3.562,3.562,0,0,1,2.883,1.222,5.289,5.289,0,0,1,1.028,3.5v.677h-6.442a3.38,3.38,0,0,0,.822,2.272,2.583,2.583,0,0,0,2,.866,2.832,2.832,0,0,0,1.459-.352,3.666,3.666,0,0,0,1.046-.932l.993.773A3.993,3.993,0,0,1,103.5,18.176Zm-.2-8.525a2.169,2.169,0,0,0-1.652.716,3.482,3.482,0,0,0-.826,2.008h4.764v-.123a3.1,3.1,0,0,0-.668-1.92A2.042,2.042,0,0,0,103.3,9.65Zm7.33-1.16.053,1.2a3.465,3.465,0,0,1,2.848-1.371q3.015,0,3.041,3.4V18h-1.626V11.707a2.189,2.189,0,0,0-.47-1.521,1.884,1.884,0,0,0-1.437-.492,2.347,2.347,0,0,0-1.389.422,2.865,2.865,0,0,0-.932,1.107V18h-1.626V8.49ZM.835,31.166a5.571,5.571,0,0,1,1.037-3.52,3.28,3.28,0,0,1,2.716-1.332,3.3,3.3,0,0,1,2.646,1.143V22.5H8.859V36H7.365l-.079-1.02a3.311,3.311,0,0,1-2.716,1.2,3.248,3.248,0,0,1-2.694-1.354A5.634,5.634,0,0,1,.835,31.289Zm1.626.185a4.218,4.218,0,0,0,.668,2.531,2.159,2.159,0,0,0,1.846.914,2.372,2.372,0,0,0,2.259-1.389V29.039a2.39,2.39,0,0,0-2.241-1.345,2.17,2.17,0,0,0-1.863.923A4.644,4.644,0,0,0,2.461,31.351Zm12.867,4.825a4.155,4.155,0,0,1-3.146-1.27,4.714,4.714,0,0,1-1.213-3.4v-.3a5.707,5.707,0,0,1,.541-2.527,4.217,4.217,0,0,1,1.512-1.74,3.8,3.8,0,0,1,2.1-.628,3.562,3.562,0,0,1,2.883,1.222,5.289,5.289,0,0,1,1.028,3.5v.677H12.595a3.38,3.38,0,0,0,.822,2.272,2.583,2.583,0,0,0,2,.866,2.832,2.832,0,0,0,1.459-.352,3.666,3.666,0,0,0,1.046-.932l.993.773A3.993,3.993,0,0,1,15.328,36.176Zm-.2-8.525a2.169,2.169,0,0,0-1.652.716,3.482,3.482,0,0,0-.826,2.008h4.764v-.123a3.1,3.1,0,0,0-.668-1.92A2.042,2.042,0,0,0,15.126,27.65Zm14.063,7.2a2.342,2.342,0,0,0,1.521-.527A1.855,1.855,0,0,0,31.43,33h1.538a2.949,2.949,0,0,1-.562,1.556,3.7,3.7,0,0,1-1.384,1.178,3.994,3.994,0,0,1-1.833.439,3.918,3.918,0,0,1-3.089-1.3,5.163,5.163,0,0,1-1.147-3.546v-.272a5.725,5.725,0,0,1,.51-2.47,3.883,3.883,0,0,1,1.463-1.679,4.157,4.157,0,0,1,2.254-.6,3.814,3.814,0,0,1,2.659.958,3.424,3.424,0,0,1,1.129,2.487H31.43a2.241,2.241,0,0,0-.7-1.516,2.174,2.174,0,0,0-1.551-.593,2.276,2.276,0,0,0-1.92.892,4.19,4.19,0,0,0-.681,2.58v.308a4.106,4.106,0,0,0,.677,2.531A2.287,2.287,0,0,0,29.188,34.849Zm5.177-3.691a5.617,5.617,0,0,1,.549-2.514,4.1,4.1,0,0,1,1.529-1.723,4.163,4.163,0,0,1,2.237-.606,4.01,4.01,0,0,1,3.142,1.345,5.174,5.174,0,0,1,1.2,3.577v.114a5.666,5.666,0,0,1-.532,2.492,4.038,4.038,0,0,1-1.521,1.718,4.211,4.211,0,0,1-2.272.615,4,4,0,0,1-3.133-1.345,5.147,5.147,0,0,1-1.2-3.56ZM36,31.351a4.068,4.068,0,0,0,.734,2.54,2.487,2.487,0,0,0,3.933-.013,4.449,4.449,0,0,0,.729-2.72,4.061,4.061,0,0,0-.743-2.536,2.361,2.361,0,0,0-1.973-.971,2.335,2.335,0,0,0-1.942.958A4.416,4.416,0,0,0,36,31.351Zm10.591-4.86.044,1.055a3.512,3.512,0,0,1,2.821-1.23,2.719,2.719,0,0,1,2.716,1.529,3.6,3.6,0,0,1,1.235-1.107,3.647,3.647,0,0,1,1.8-.422q3.129,0,3.182,3.313V36H56.76V29.725a2.184,2.184,0,0,0-.466-1.525,2.051,2.051,0,0,0-1.564-.505,2.156,2.156,0,0,0-1.5.541,2.193,2.193,0,0,0-.694,1.455V36H50.9V29.769a1.814,1.814,0,0,0-2.03-2.074,2.175,2.175,0,0,0-2.188,1.362V36H45.053V26.49Zm22.28,4.86a5.694,5.694,0,0,1-.993,3.5,3.183,3.183,0,0,1-2.689,1.327,3.488,3.488,0,0,1-2.725-1.1v4.579H60.838V26.49h1.485l.079,1.055a3.35,3.35,0,0,1,2.76-1.23,3.243,3.243,0,0,1,2.711,1.292,5.756,5.756,0,0,1,1,3.595Zm-1.626-.185a4.2,4.2,0,0,0-.686-2.54,2.208,2.208,0,0,0-1.881-.932A2.39,2.39,0,0,0,62.464,29v4.544a2.4,2.4,0,0,0,2.232,1.3,2.2,2.2,0,0,0,1.859-.927A4.587,4.587,0,0,0,67.245,31.166Zm8.288-3.217a4.873,4.873,0,0,0-.8-.062,2.143,2.143,0,0,0-2.171,1.362V36H70.937V26.49h1.582l.026,1.1a2.532,2.532,0,0,1,2.268-1.274,1.661,1.661,0,0,1,.721.123ZM82.547,36a3.416,3.416,0,0,1-.229-1,3.628,3.628,0,0,1-2.707,1.178,3.357,3.357,0,0,1-2.307-.8,2.573,2.573,0,0,1-.9-2.017,2.688,2.688,0,0,1,1.129-2.307,5.325,5.325,0,0,1,3.177-.822h1.582v-.747a1.826,1.826,0,0,0-.51-1.358,2.049,2.049,0,0,0-1.5-.505,2.371,2.371,0,0,0-1.459.439,1.3,1.3,0,0,0-.589,1.063H76.6a2.244,2.244,0,0,1,.505-1.375,3.449,3.449,0,0,1,1.371-1.05,4.613,4.613,0,0,1,1.9-.387,3.759,3.759,0,0,1,2.575.822,2.964,2.964,0,0,1,.967,2.263v4.377a5.351,5.351,0,0,0,.334,2.083V36Zm-2.7-1.239a2.858,2.858,0,0,0,1.45-.4,2.392,2.392,0,0,0,.993-1.028V31.386H81.018q-2.988,0-2.988,1.749a1.48,1.48,0,0,0,.51,1.2A1.959,1.959,0,0,0,79.849,34.761Z" transform="translate(716.813 5526.954)" fill="#fff"/><path d="M5.256-5.7A7.935,7.935,0,0,1,2.1-7.238a2.93,2.93,0,0,1-.989-2.246,3.1,3.1,0,0,1,1.208-2.5,4.8,4.8,0,0,1,3.142-.989,5.243,5.243,0,0,1,2.351.51,3.866,3.866,0,0,1,1.6,1.406A3.6,3.6,0,0,1,9.976-9.1h-1.7a2.34,2.34,0,0,0-.738-1.83,3,3,0,0,0-2.083-.666,3.074,3.074,0,0,0-1.947.55,1.836,1.836,0,0,0-.7,1.528A1.652,1.652,0,0,0,3.476-8.19,6.509,6.509,0,0,0,5.735-7.2a10.481,10.481,0,0,1,2.5.99A3.788,3.788,0,0,1,9.567-4.948,3.219,3.219,0,0,1,10-3.252,2.99,2.99,0,0,1,8.789-.76,5.171,5.171,0,0,1,5.546.176,6.015,6.015,0,0,1,3.085-.33,4.142,4.142,0,0,1,1.323-1.714a3.378,3.378,0,0,1-.62-2H2.4a2.2,2.2,0,0,0,.857,1.833,3.608,3.608,0,0,0,2.29.672,3.317,3.317,0,0,0,2.048-.545,1.77,1.77,0,0,0,.712-1.485,1.738,1.738,0,0,0-.659-1.455A7.6,7.6,0,0,0,5.256-5.7ZM17.78-.94A3.454,3.454,0,0,1,14.994.176a2.956,2.956,0,0,1-2.316-.883,3.823,3.823,0,0,1-.8-2.615V-9.51H13.5v6.144Q13.5-1.2,15.258-1.2a2.434,2.434,0,0,0,2.479-1.389V-9.51h1.626V0H17.815ZM29.865-4.649a5.694,5.694,0,0,1-.993,3.5A3.183,3.183,0,0,1,26.183.176a3.488,3.488,0,0,1-2.725-1.1V3.656H21.832V-9.51h1.485L23.4-8.455a3.35,3.35,0,0,1,2.76-1.23,3.243,3.243,0,0,1,2.711,1.292,5.756,5.756,0,0,1,1,3.595Zm-1.626-.185a4.2,4.2,0,0,0-.686-2.54,2.208,2.208,0,0,0-1.881-.932A2.39,2.39,0,0,0,23.458-7v4.544a2.4,2.4,0,0,0,2.232,1.3,2.2,2.2,0,0,0,1.859-.927A4.587,4.587,0,0,0,28.239-4.834ZM35.877.176a4.155,4.155,0,0,1-3.146-1.27,4.714,4.714,0,0,1-1.213-3.4v-.3a5.707,5.707,0,0,1,.541-2.527,4.217,4.217,0,0,1,1.512-1.74,3.8,3.8,0,0,1,2.1-.628,3.562,3.562,0,0,1,2.883,1.222,5.289,5.289,0,0,1,1.028,3.5v.677H33.144a3.38,3.38,0,0,0,.822,2.272,2.583,2.583,0,0,0,2,.866A2.832,2.832,0,0,0,37.424-1.5a3.666,3.666,0,0,0,1.046-.932l.993.773A3.993,3.993,0,0,1,35.877.176Zm-.2-8.525a2.169,2.169,0,0,0-1.652.716A3.482,3.482,0,0,0,33.2-5.625H37.96v-.123a3.1,3.1,0,0,0-.668-1.92A2.042,2.042,0,0,0,35.675-8.35Z" transform="translate(547.235 5535.167)" fill="#1e168c"/><path d="M5.827-8.051a4.873,4.873,0,0,0-.8-.062A2.143,2.143,0,0,0,2.856-6.75V0H1.23V-9.51H2.813l.026,1.1A2.532,2.532,0,0,1,5.106-9.686a1.661,1.661,0,0,1,.721.123Z" transform="translate(589.172 5535.167)" fill="#1e168c"/><path d="M4.368-2.206l2.355-7.3H8.385L4.975,0H3.735L.29-9.51H1.951ZM11.716,0H10.09V-9.51h1.626ZM9.958-12.032A.971.971,0,0,1,10.2-12.7a.907.907,0,0,1,.716-.272.922.922,0,0,1,.721.272.96.96,0,0,1,.246.668.929.929,0,0,1-.246.659.938.938,0,0,1-.721.264.924.924,0,0,1-.716-.264A.938.938,0,0,1,9.958-12.032Zm9.9,9.51a1.2,1.2,0,0,0-.5-1.024,4.78,4.78,0,0,0-1.731-.628,8.186,8.186,0,0,1-1.96-.633,2.788,2.788,0,0,1-1.072-.879A2.1,2.1,0,0,1,14.247-6.9a2.467,2.467,0,0,1,.989-1.978,3.861,3.861,0,0,1,2.527-.809,3.974,3.974,0,0,1,2.624.835,2.652,2.652,0,0,1,1.006,2.136H19.758a1.468,1.468,0,0,0-.567-1.151,2.124,2.124,0,0,0-1.428-.483,2.223,2.223,0,0,0-1.389.387,1.217,1.217,0,0,0-.5,1.011.986.986,0,0,0,.466.888,5.731,5.731,0,0,0,1.683.571A8.77,8.77,0,0,1,20-4.843a2.878,2.878,0,0,1,1.121.91,2.237,2.237,0,0,1,.365,1.3,2.434,2.434,0,0,1-1.02,2.043,4.277,4.277,0,0,1-2.646.769,4.789,4.789,0,0,1-2.021-.4,3.288,3.288,0,0,1-1.375-1.129,2.722,2.722,0,0,1-.5-1.569h1.626a1.683,1.683,0,0,0,.655,1.3,2.54,2.54,0,0,0,1.613.479A2.622,2.622,0,0,0,19.3-1.525,1.148,1.148,0,0,0,19.854-2.522ZM25.365,0H23.739V-9.51h1.626ZM23.607-12.032a.971.971,0,0,1,.242-.668.907.907,0,0,1,.716-.272.922.922,0,0,1,.721.272.96.96,0,0,1,.246.668.929.929,0,0,1-.246.659.938.938,0,0,1-.721.264.924.924,0,0,1-.716-.264A.938.938,0,0,1,23.607-12.032Zm3.929,7.189a5.617,5.617,0,0,1,.549-2.514,4.1,4.1,0,0,1,1.529-1.723,4.163,4.163,0,0,1,2.237-.606,4.01,4.01,0,0,1,3.142,1.345,5.174,5.174,0,0,1,1.2,3.577v.114a5.666,5.666,0,0,1-.532,2.492A4.038,4.038,0,0,1,34.141-.439a4.211,4.211,0,0,1-2.272.615,4,4,0,0,1-3.133-1.345,5.147,5.147,0,0,1-1.2-3.56Zm1.635.193a4.068,4.068,0,0,0,.734,2.54,2.349,2.349,0,0,0,1.964.958,2.335,2.335,0,0,0,1.969-.971,4.449,4.449,0,0,0,.729-2.72,4.061,4.061,0,0,0-.743-2.536,2.361,2.361,0,0,0-1.973-.971,2.335,2.335,0,0,0-1.942.958A4.416,4.416,0,0,0,29.171-4.649ZM32.59-13.5h1.969L32.2-10.916l-1.31,0Zm7.181,3.99.053,1.2a3.465,3.465,0,0,1,2.848-1.371q3.015,0,3.041,3.4V0H44.086V-6.293a2.189,2.189,0,0,0-.47-1.521,1.884,1.884,0,0,0-1.437-.492,2.347,2.347,0,0,0-1.389.422,2.865,2.865,0,0,0-.932,1.107V0H38.232V-9.51Z" transform="translate(595.614 5535.167)" fill="#1e168c"/><path d="M.835-4.834a5.571,5.571,0,0,1,1.037-3.52A3.28,3.28,0,0,1,4.588-9.686,3.3,3.3,0,0,1,7.233-8.543V-13.5H8.859V0H7.365L7.286-1.02A3.311,3.311,0,0,1,4.57.176,3.248,3.248,0,0,1,1.876-1.178,5.634,5.634,0,0,1,.835-4.711Zm1.626.185a4.218,4.218,0,0,0,.668,2.531A2.159,2.159,0,0,0,4.975-1.2,2.372,2.372,0,0,0,7.233-2.593V-6.961A2.39,2.39,0,0,0,4.992-8.306a2.17,2.17,0,0,0-1.863.923A4.644,4.644,0,0,0,2.461-4.649ZM15.328.176a4.155,4.155,0,0,1-3.146-1.27,4.714,4.714,0,0,1-1.213-3.4v-.3a5.707,5.707,0,0,1,.541-2.527,4.217,4.217,0,0,1,1.512-1.74,3.8,3.8,0,0,1,2.1-.628,3.562,3.562,0,0,1,2.883,1.222,5.289,5.289,0,0,1,1.028,3.5v.677H12.595a3.38,3.38,0,0,0,.822,2.272,2.583,2.583,0,0,0,2,.866A2.832,2.832,0,0,0,16.875-1.5a3.666,3.666,0,0,0,1.046-.932l.993.773A3.993,3.993,0,0,1,15.328.176Zm-.2-8.525a2.169,2.169,0,0,0-1.652.716,3.482,3.482,0,0,0-.826,2.008h4.764v-.123a3.1,3.1,0,0,0-.668-1.92A2.042,2.042,0,0,0,15.126-8.35ZM22.685,0H21.059V-13.5h1.626ZM37.775-4.649a5.694,5.694,0,0,1-.993,3.5A3.183,3.183,0,0,1,34.093.176a3.488,3.488,0,0,1-2.725-1.1V3.656H29.742V-9.51h1.485l.079,1.055a3.35,3.35,0,0,1,2.76-1.23,3.243,3.243,0,0,1,2.711,1.292,5.756,5.756,0,0,1,1,3.595Zm-1.626-.185a4.2,4.2,0,0,0-.686-2.54,2.208,2.208,0,0,0-1.881-.932A2.39,2.39,0,0,0,31.368-7v4.544a2.4,2.4,0,0,0,2.232,1.3,2.2,2.2,0,0,0,1.859-.927A4.587,4.587,0,0,0,36.149-4.834ZM43.787.176a4.155,4.155,0,0,1-3.146-1.27,4.714,4.714,0,0,1-1.213-3.4v-.3a5.707,5.707,0,0,1,.541-2.527,4.217,4.217,0,0,1,1.512-1.74,3.8,3.8,0,0,1,2.1-.628,3.562,3.562,0,0,1,2.883,1.222,5.289,5.289,0,0,1,1.028,3.5v.677H41.054a3.38,3.38,0,0,0,.822,2.272,2.583,2.583,0,0,0,2,.866A2.832,2.832,0,0,0,45.334-1.5a3.666,3.666,0,0,0,1.046-.932l.993.773A3.993,3.993,0,0,1,43.787.176Zm-.2-8.525a2.169,2.169,0,0,0-1.652.716,3.482,3.482,0,0,0-.826,2.008H45.87v-.123a3.1,3.1,0,0,0-.668-1.92A2.042,2.042,0,0,0,43.585-8.35Zm5.4,3.516a5.571,5.571,0,0,1,1.037-3.52,3.28,3.28,0,0,1,2.716-1.332A3.3,3.3,0,0,1,55.38-8.543V-13.5h1.626V0H55.512l-.079-1.02a3.311,3.311,0,0,1-2.716,1.2,3.248,3.248,0,0,1-2.694-1.354,5.634,5.634,0,0,1-1.042-3.533Zm1.626.185a4.218,4.218,0,0,0,.668,2.531,2.159,2.159,0,0,0,1.846.914A2.372,2.372,0,0,0,55.38-2.593V-6.961a2.39,2.39,0,0,0-2.241-1.345,2.17,2.17,0,0,0-1.863.923A4.644,4.644,0,0,0,50.607-4.649ZM61.295,0H59.669V-9.51h1.626ZM59.537-12.032a.971.971,0,0,1,.242-.668.907.907,0,0,1,.716-.272.922.922,0,0,1,.721.272.96.96,0,0,1,.246.668.929.929,0,0,1-.246.659.938.938,0,0,1-.721.264.924.924,0,0,1-.716-.264A.938.938,0,0,1,59.537-12.032Zm3.964,7.2a5.571,5.571,0,0,1,1.037-3.52,3.28,3.28,0,0,1,2.716-1.332A3.3,3.3,0,0,1,69.9-8.543V-13.5h1.626V0H70.031l-.079-1.02a3.311,3.311,0,0,1-2.716,1.2,3.248,3.248,0,0,1-2.694-1.354A5.634,5.634,0,0,1,63.5-4.711Zm1.626.185a4.218,4.218,0,0,0,.668,2.531,2.159,2.159,0,0,0,1.846.914A2.372,2.372,0,0,0,69.9-2.593V-6.961a2.39,2.39,0,0,0-2.241-1.345,2.17,2.17,0,0,0-1.863.923A4.644,4.644,0,0,0,65.127-4.649Zm8.49-.193a5.617,5.617,0,0,1,.549-2.514A4.1,4.1,0,0,1,75.7-9.079a4.163,4.163,0,0,1,2.237-.606,4.01,4.01,0,0,1,3.142,1.345,5.174,5.174,0,0,1,1.2,3.577v.114a5.666,5.666,0,0,1-.532,2.492A4.038,4.038,0,0,1,80.222-.439,4.211,4.211,0,0,1,77.95.176a4,4,0,0,1-3.133-1.345,5.147,5.147,0,0,1-1.2-3.56Zm1.635.193a4.068,4.068,0,0,0,.734,2.54,2.349,2.349,0,0,0,1.964.958,2.335,2.335,0,0,0,1.969-.971,4.449,4.449,0,0,0,.729-2.72,4.061,4.061,0,0,0-.743-2.536,2.361,2.361,0,0,0-1.973-.971,2.335,2.335,0,0,0-1.942.958A4.416,4.416,0,0,0,75.252-4.649Z" transform="translate(559.234 5553.487)" fill="#1e168c"/><path d="M1.485,0V-12.8H5.1a5.815,5.815,0,0,1,2.953.738,4.993,4.993,0,0,1,1.982,2.1,6.837,6.837,0,0,1,.708,3.129v.817a6.861,6.861,0,0,1-.7,3.173,4.915,4.915,0,0,1-2,2.092A6.185,6.185,0,0,1,5.027,0ZM3.173-11.417V-1.38H4.948A3.863,3.863,0,0,0,7.985-2.594,5.016,5.016,0,0,0,9.07-6.051V-6.8A5.1,5.1,0,0,0,8.046-10.19a3.644,3.644,0,0,0-2.9-1.227ZM16.98.176a4.155,4.155,0,0,1-3.146-1.27,4.714,4.714,0,0,1-1.213-3.4v-.3a5.707,5.707,0,0,1,.541-2.527,4.217,4.217,0,0,1,1.512-1.74,3.8,3.8,0,0,1,2.1-.628,3.562,3.562,0,0,1,2.883,1.222,5.289,5.289,0,0,1,1.028,3.5v.677H14.247a3.38,3.38,0,0,0,.822,2.272,2.583,2.583,0,0,0,2,.866A2.832,2.832,0,0,0,18.527-1.5a3.666,3.666,0,0,0,1.046-.932l.993.773A3.993,3.993,0,0,1,16.98.176Zm-.2-8.525a2.169,2.169,0,0,0-1.652.716A3.482,3.482,0,0,0,14.3-5.625h4.764v-.123a3.1,3.1,0,0,0-.668-1.92A2.042,2.042,0,0,0,16.778-8.35Zm8-3.463v2.3h1.775v1.257H24.776v5.9a1.32,1.32,0,0,0,.237.858,1,1,0,0,0,.809.286A3.937,3.937,0,0,0,26.6-1.31V0a4.742,4.742,0,0,1-1.248.175A2.025,2.025,0,0,1,23.7-.483a2.832,2.832,0,0,1-.554-1.872v-5.9H21.419V-9.51H23.15v-2.3ZM32.4.176a4.155,4.155,0,0,1-3.146-1.27,4.714,4.714,0,0,1-1.213-3.4v-.3a5.707,5.707,0,0,1,.541-2.527,4.217,4.217,0,0,1,1.512-1.74,3.8,3.8,0,0,1,2.1-.628,3.562,3.562,0,0,1,2.883,1.222,5.289,5.289,0,0,1,1.028,3.5v.677H29.663a3.38,3.38,0,0,0,.822,2.272,2.583,2.583,0,0,0,2,.866A2.832,2.832,0,0,0,33.943-1.5a3.666,3.666,0,0,0,1.046-.932l.993.773A3.993,3.993,0,0,1,32.4.176Zm-.2-8.525a2.169,2.169,0,0,0-1.652.716,3.482,3.482,0,0,0-.826,2.008h4.764v-.123a3.1,3.1,0,0,0-.668-1.92A2.042,2.042,0,0,0,32.194-8.35Zm10.389.3a4.873,4.873,0,0,0-.8-.062A2.143,2.143,0,0,0,39.612-6.75V0H37.986V-9.51h1.582l.026,1.1a2.532,2.532,0,0,1,2.268-1.274,1.661,1.661,0,0,1,.721.123ZM45.606-9.51l.044,1.055a3.512,3.512,0,0,1,2.821-1.23,2.719,2.719,0,0,1,2.716,1.529,3.6,3.6,0,0,1,1.235-1.107,3.647,3.647,0,0,1,1.8-.422q3.129,0,3.182,3.313V0H55.775V-6.275A2.184,2.184,0,0,0,55.31-7.8a2.051,2.051,0,0,0-1.564-.505,2.156,2.156,0,0,0-1.5.541,2.193,2.193,0,0,0-.694,1.455V0H49.913V-6.231a1.814,1.814,0,0,0-2.03-2.074,2.175,2.175,0,0,0-2.188,1.362V0H44.068V-9.51ZM61.62,0H59.994V-9.51H61.62ZM59.862-12.032A.971.971,0,0,1,60.1-12.7a.907.907,0,0,1,.716-.272.922.922,0,0,1,.721.272.96.96,0,0,1,.246.668.929.929,0,0,1-.246.659.938.938,0,0,1-.721.264.924.924,0,0,1-.716-.264A.938.938,0,0,1,59.862-12.032Zm5.9,2.522.053,1.2A3.465,3.465,0,0,1,68.66-9.686q3.015,0,3.041,3.4V0H70.075V-6.293a2.189,2.189,0,0,0-.47-1.521,1.884,1.884,0,0,0-1.437-.492,2.347,2.347,0,0,0-1.389.422,2.865,2.865,0,0,0-.932,1.107V0H64.222V-9.51ZM80.024,0A3.416,3.416,0,0,1,79.8-1,3.628,3.628,0,0,1,77.089.176a3.357,3.357,0,0,1-2.307-.8,2.573,2.573,0,0,1-.9-2.017A2.688,2.688,0,0,1,75.01-4.944a5.325,5.325,0,0,1,3.177-.822H79.77v-.747a1.826,1.826,0,0,0-.51-1.358,2.049,2.049,0,0,0-1.5-.505,2.371,2.371,0,0,0-1.459.439,1.3,1.3,0,0,0-.589,1.063H74.074a2.244,2.244,0,0,1,.505-1.375A3.449,3.449,0,0,1,75.951-9.3a4.613,4.613,0,0,1,1.9-.387,3.759,3.759,0,0,1,2.575.822A2.964,2.964,0,0,1,81.4-6.6v4.377a5.351,5.351,0,0,0,.334,2.083V0Zm-2.7-1.239a2.858,2.858,0,0,0,1.45-.4,2.392,2.392,0,0,0,.993-1.028V-4.614H78.5q-2.988,0-2.988,1.749a1.48,1.48,0,0,0,.51,1.2A1.959,1.959,0,0,0,77.326-1.239ZM88.541-8.051a4.873,4.873,0,0,0-.8-.062A2.143,2.143,0,0,0,85.57-6.75V0H83.944V-9.51h1.582l.026,1.1A2.532,2.532,0,0,1,87.82-9.686a1.661,1.661,0,0,1,.721.123Z" transform="translate(843.83 5259.732)" fill="#fff"/><path d="M3,0H1.371V-13.5H3ZM11.47,0a3.416,3.416,0,0,1-.229-1A3.628,3.628,0,0,1,8.534.176a3.357,3.357,0,0,1-2.307-.8,2.573,2.573,0,0,1-.9-2.017A2.688,2.688,0,0,1,6.456-4.944a5.325,5.325,0,0,1,3.177-.822h1.582v-.747a1.826,1.826,0,0,0-.51-1.358,2.049,2.049,0,0,0-1.5-.505,2.371,2.371,0,0,0-1.459.439,1.3,1.3,0,0,0-.589,1.063H5.52a2.244,2.244,0,0,1,.505-1.375A3.449,3.449,0,0,1,7.4-9.3a4.613,4.613,0,0,1,1.9-.387,3.759,3.759,0,0,1,2.575.822A2.964,2.964,0,0,1,12.841-6.6v4.377a5.351,5.351,0,0,0,.334,2.083V0Zm-2.7-1.239a2.858,2.858,0,0,0,1.45-.4,2.392,2.392,0,0,0,.993-1.028V-4.614H9.94q-2.988,0-2.988,1.749a1.48,1.48,0,0,0,.51,1.2A1.959,1.959,0,0,0,8.771-1.239ZM20.646,0V-8.253h-1.5V-9.51h1.5v-.976a3.238,3.238,0,0,1,.817-2.364,3.088,3.088,0,0,1,2.312-.835,4.293,4.293,0,0,1,1.116.148L24.8-12.226a4.67,4.67,0,0,0-.879-.079,1.586,1.586,0,0,0-1.222.463,1.877,1.877,0,0,0-.431,1.327V-9.51H24.3v1.257h-2.03V0Zm11.32-.94A3.454,3.454,0,0,1,29.18.176a2.956,2.956,0,0,1-2.316-.883,3.823,3.823,0,0,1-.8-2.615V-9.51h1.626v6.144q0,2.162,1.758,2.162a2.434,2.434,0,0,0,2.479-1.389V-9.51h1.626V0H32Zm8,1.116a4.155,4.155,0,0,1-3.146-1.27,4.714,4.714,0,0,1-1.213-3.4v-.3a5.707,5.707,0,0,1,.541-2.527,4.217,4.217,0,0,1,1.512-1.74,3.8,3.8,0,0,1,2.1-.628,3.562,3.562,0,0,1,2.883,1.222,5.289,5.289,0,0,1,1.028,3.5v.677H37.23a3.38,3.38,0,0,0,.822,2.272,2.583,2.583,0,0,0,2,.866A2.832,2.832,0,0,0,41.511-1.5a3.666,3.666,0,0,0,1.046-.932l.993.773A3.993,3.993,0,0,1,39.964.176Zm-.2-8.525a2.169,2.169,0,0,0-1.652.716,3.482,3.482,0,0,0-.826,2.008h4.764v-.123a3.1,3.1,0,0,0-.668-1.92A2.042,2.042,0,0,0,39.762-8.35Zm7.33-1.16.053,1.2a3.465,3.465,0,0,1,2.848-1.371q3.015,0,3.041,3.4V0H51.407V-6.293a2.189,2.189,0,0,0-.47-1.521A1.884,1.884,0,0,0,49.5-8.306a2.347,2.347,0,0,0-1.389.422,2.865,2.865,0,0,0-.932,1.107V0H45.554V-9.51Zm10.6-2.3v2.3h1.775v1.257H57.691v5.9a1.32,1.32,0,0,0,.237.858,1,1,0,0,0,.809.286,3.937,3.937,0,0,0,.773-.105V0a4.742,4.742,0,0,1-1.248.175,2.025,2.025,0,0,1-1.644-.659,2.832,2.832,0,0,1-.554-1.872v-5.9H54.334V-9.51h1.731v-2.3ZM65.312.176a4.155,4.155,0,0,1-3.146-1.27,4.714,4.714,0,0,1-1.213-3.4v-.3a5.707,5.707,0,0,1,.541-2.527A4.217,4.217,0,0,1,63-9.057a3.8,3.8,0,0,1,2.1-.628,3.562,3.562,0,0,1,2.883,1.222,5.289,5.289,0,0,1,1.028,3.5v.677H62.578A3.38,3.38,0,0,0,63.4-2.017a2.583,2.583,0,0,0,2,.866A2.832,2.832,0,0,0,66.858-1.5,3.666,3.666,0,0,0,67.9-2.435l.993.773A3.993,3.993,0,0,1,65.312.176Zm-.2-8.525a2.169,2.169,0,0,0-1.652.716,3.482,3.482,0,0,0-.826,2.008h4.764v-.123a3.1,3.1,0,0,0-.668-1.92A2.042,2.042,0,0,0,65.109-8.35Zm9.853,3.516A5.571,5.571,0,0,1,76-8.354a3.28,3.28,0,0,1,2.716-1.332A3.3,3.3,0,0,1,81.36-8.543V-13.5h1.626V0H81.492l-.079-1.02A3.311,3.311,0,0,1,78.7.176,3.248,3.248,0,0,1,76-1.178a5.634,5.634,0,0,1-1.042-3.533Zm1.626.185a4.218,4.218,0,0,0,.668,2.531A2.159,2.159,0,0,0,79.1-1.2,2.372,2.372,0,0,0,81.36-2.593V-6.961a2.39,2.39,0,0,0-2.241-1.345,2.17,2.17,0,0,0-1.863.923A4.644,4.644,0,0,0,76.588-4.649ZM89.455.176a4.155,4.155,0,0,1-3.146-1.27,4.714,4.714,0,0,1-1.213-3.4v-.3a5.707,5.707,0,0,1,.541-2.527,4.217,4.217,0,0,1,1.512-1.74,3.8,3.8,0,0,1,2.1-.628,3.562,3.562,0,0,1,2.883,1.222,5.289,5.289,0,0,1,1.028,3.5v.677H86.722a3.38,3.38,0,0,0,.822,2.272,2.583,2.583,0,0,0,2,.866A2.832,2.832,0,0,0,91-1.5a3.666,3.666,0,0,0,1.046-.932l.993.773A3.993,3.993,0,0,1,89.455.176Zm-.2-8.525a2.169,2.169,0,0,0-1.652.716,3.482,3.482,0,0,0-.826,2.008h4.764v-.123a3.1,3.1,0,0,0-.668-1.92A2.042,2.042,0,0,0,89.253-8.35Z" transform="translate(838.532 5278.052)" fill="#fff"/><path d="M7.1,0a3.416,3.416,0,0,1-.229-1A3.628,3.628,0,0,1,4.166.176a3.357,3.357,0,0,1-2.307-.8,2.573,2.573,0,0,1-.9-2.017A2.688,2.688,0,0,1,2.087-4.944a5.325,5.325,0,0,1,3.177-.822H6.847v-.747a1.826,1.826,0,0,0-.51-1.358,2.049,2.049,0,0,0-1.5-.505,2.371,2.371,0,0,0-1.459.439,1.3,1.3,0,0,0-.589,1.063H1.151a2.244,2.244,0,0,1,.505-1.375A3.449,3.449,0,0,1,3.028-9.3a4.613,4.613,0,0,1,1.9-.387,3.759,3.759,0,0,1,2.575.822A2.964,2.964,0,0,1,8.473-6.6v4.377A5.351,5.351,0,0,0,8.807-.141V0ZM4.4-1.239a2.858,2.858,0,0,0,1.45-.4,2.392,2.392,0,0,0,.993-1.028V-4.614H5.572q-2.988,0-2.988,1.749a1.48,1.48,0,0,0,.51,1.2A1.959,1.959,0,0,0,4.4-1.239Zm6.223-3.595a5.571,5.571,0,0,1,1.037-3.52,3.28,3.28,0,0,1,2.716-1.332,3.3,3.3,0,0,1,2.646,1.143V-13.5H18.65V0H17.156l-.079-1.02a3.311,3.311,0,0,1-2.716,1.2,3.248,3.248,0,0,1-2.694-1.354,5.634,5.634,0,0,1-1.042-3.533Zm1.626.185a4.218,4.218,0,0,0,.668,2.531,2.159,2.159,0,0,0,1.846.914,2.372,2.372,0,0,0,2.259-1.389V-6.961a2.39,2.39,0,0,0-2.241-1.345,2.17,2.17,0,0,0-1.863.923A4.644,4.644,0,0,0,12.252-4.649Zm8.525-.185A5.582,5.582,0,0,1,21.806-8.38a3.332,3.332,0,0,1,2.76-1.305,3.33,3.33,0,0,1,2.663,1.134l.07-.958h1.494V3.656H27.167V-.879A3.412,3.412,0,0,1,24.548.176,3.28,3.28,0,0,1,21.8-1.165,5.706,5.706,0,0,1,20.777-4.72Zm1.626.185a4.231,4.231,0,0,0,.69,2.566,2.195,2.195,0,0,0,1.859.932,2.435,2.435,0,0,0,2.215-1.283V-7.093a2.442,2.442,0,0,0-2.2-1.257,2.211,2.211,0,0,0-1.872.936A4.606,4.606,0,0,0,22.4-4.649ZM37.274-.94A3.454,3.454,0,0,1,34.488.176a2.956,2.956,0,0,1-2.316-.883,3.823,3.823,0,0,1-.8-2.615V-9.51h1.626v6.144q0,2.162,1.758,2.162A2.434,2.434,0,0,0,37.23-2.593V-9.51h1.626V0H37.31ZM43.093,0H41.467V-9.51h1.626ZM41.335-12.032a.971.971,0,0,1,.242-.668.907.907,0,0,1,.716-.272.922.922,0,0,1,.721.272.96.96,0,0,1,.246.668.929.929,0,0,1-.246.659.938.938,0,0,1-.721.264.924.924,0,0,1-.716-.264A.938.938,0,0,1,41.335-12.032Zm9.9,9.51a1.2,1.2,0,0,0-.5-1.024A4.78,4.78,0,0,0,49-4.175a8.186,8.186,0,0,1-1.96-.633,2.788,2.788,0,0,1-1.072-.879A2.1,2.1,0,0,1,45.624-6.9a2.467,2.467,0,0,1,.989-1.978,3.861,3.861,0,0,1,2.527-.809,3.974,3.974,0,0,1,2.624.835A2.652,2.652,0,0,1,52.77-6.715H51.135a1.468,1.468,0,0,0-.567-1.151A2.124,2.124,0,0,0,49.14-8.35a2.223,2.223,0,0,0-1.389.387,1.217,1.217,0,0,0-.5,1.011.986.986,0,0,0,.466.888,5.731,5.731,0,0,0,1.683.571,8.77,8.77,0,0,1,1.973.65,2.878,2.878,0,0,1,1.121.91,2.237,2.237,0,0,1,.365,1.3,2.434,2.434,0,0,1-1.02,2.043,4.277,4.277,0,0,1-2.646.769,4.789,4.789,0,0,1-2.021-.4A3.288,3.288,0,0,1,45.8-1.358a2.722,2.722,0,0,1-.5-1.569h1.626a1.683,1.683,0,0,0,.655,1.3,2.54,2.54,0,0,0,1.613.479,2.622,2.622,0,0,0,1.481-.374A1.148,1.148,0,0,0,51.231-2.522ZM56.742,0H55.116V-9.51h1.626ZM54.984-12.032a.971.971,0,0,1,.242-.668.907.907,0,0,1,.716-.272.922.922,0,0,1,.721.272.96.96,0,0,1,.246.668.929.929,0,0,1-.246.659.938.938,0,0,1-.721.264.924.924,0,0,1-.716-.264A.938.938,0,0,1,54.984-12.032ZM63.158-1.151a2.342,2.342,0,0,0,1.521-.527A1.855,1.855,0,0,0,65.4-3h1.538a2.949,2.949,0,0,1-.562,1.556A3.7,3.7,0,0,1,64.991-.264a3.994,3.994,0,0,1-1.833.439,3.918,3.918,0,0,1-3.089-1.3,5.163,5.163,0,0,1-1.147-3.546v-.272a5.725,5.725,0,0,1,.51-2.47A3.883,3.883,0,0,1,60.9-9.088a4.157,4.157,0,0,1,2.254-.6,3.814,3.814,0,0,1,2.659.958A3.424,3.424,0,0,1,66.938-6.24H65.4a2.241,2.241,0,0,0-.7-1.516,2.174,2.174,0,0,0-1.551-.593,2.276,2.276,0,0,0-1.92.892,4.19,4.19,0,0,0-.681,2.58v.308a4.106,4.106,0,0,0,.677,2.531A2.287,2.287,0,0,0,63.158-1.151ZM70.532,0H68.906V-9.51h1.626ZM68.774-12.032a.971.971,0,0,1,.242-.668.907.907,0,0,1,.716-.272.922.922,0,0,1,.721.272.96.96,0,0,1,.246.668.929.929,0,0,1-.246.659.938.938,0,0,1-.721.264.924.924,0,0,1-.716-.264A.938.938,0,0,1,68.774-12.032ZM72.7-4.843a5.617,5.617,0,0,1,.549-2.514,4.1,4.1,0,0,1,1.529-1.723,4.163,4.163,0,0,1,2.237-.606,4.01,4.01,0,0,1,3.142,1.345,5.174,5.174,0,0,1,1.2,3.577v.114a5.666,5.666,0,0,1-.532,2.492A4.038,4.038,0,0,1,79.308-.439a4.211,4.211,0,0,1-2.272.615A4,4,0,0,1,73.9-1.169a5.147,5.147,0,0,1-1.2-3.56Zm1.635.193a4.068,4.068,0,0,0,.734,2.54,2.349,2.349,0,0,0,1.964.958A2.335,2.335,0,0,0,79-2.123a4.449,4.449,0,0,0,.729-2.72,4.061,4.061,0,0,0-.743-2.536,2.361,2.361,0,0,0-1.973-.971,2.335,2.335,0,0,0-1.942.958A4.416,4.416,0,0,0,74.338-4.649ZM77.757-13.5h1.969L77.37-10.916l-1.31,0Zm7.181,3.99.053,1.2a3.465,3.465,0,0,1,2.848-1.371q3.015,0,3.041,3.4V0H89.253V-6.293a2.189,2.189,0,0,0-.47-1.521,1.884,1.884,0,0,0-1.437-.492,2.347,2.347,0,0,0-1.389.422,2.865,2.865,0,0,0-.932,1.107V0H83.4V-9.51Z" transform="translate(839.998 5296.371)" fill="#fff"/><path d="M10.9-4.061A4.708,4.708,0,0,1,9.4-.927,4.911,4.911,0,0,1,6.047.176,4.509,4.509,0,0,1,2.413-1.45,6.542,6.542,0,0,1,1.046-5.8v-1.23a7.291,7.291,0,0,1,.637-3.138,4.76,4.76,0,0,1,1.806-2.079A5.029,5.029,0,0,1,6.2-12.973a4.624,4.624,0,0,1,3.27,1.138A4.765,4.765,0,0,1,10.9-8.684H9.2a3.677,3.677,0,0,0-.954-2.222A2.885,2.885,0,0,0,6.2-11.593a3.019,3.019,0,0,0-2.536,1.2,5.492,5.492,0,0,0-.918,3.4v1.24a5.645,5.645,0,0,0,.87,3.316A2.812,2.812,0,0,0,6.047-1.2,3.247,3.247,0,0,0,8.2-1.841a3.536,3.536,0,0,0,1-2.219Zm1.617-.782a5.617,5.617,0,0,1,.549-2.514,4.1,4.1,0,0,1,1.529-1.723,4.163,4.163,0,0,1,2.237-.606,4.01,4.01,0,0,1,3.142,1.345,5.174,5.174,0,0,1,1.2,3.577v.114a5.666,5.666,0,0,1-.532,2.492A4.038,4.038,0,0,1,19.121-.439a4.211,4.211,0,0,1-2.272.615,4,4,0,0,1-3.133-1.345,5.147,5.147,0,0,1-1.2-3.56Zm1.635.193a4.068,4.068,0,0,0,.734,2.54,2.349,2.349,0,0,0,1.964.958,2.335,2.335,0,0,0,1.969-.971,4.449,4.449,0,0,0,.729-2.72A4.061,4.061,0,0,0,18.8-7.378a2.361,2.361,0,0,0-1.973-.971,2.335,2.335,0,0,0-1.942.958A4.416,4.416,0,0,0,14.15-4.649Zm10.6-4.86.053,1.2A3.465,3.465,0,0,1,27.65-9.686q3.015,0,3.041,3.4V0H29.065V-6.293a2.189,2.189,0,0,0-.47-1.521,1.884,1.884,0,0,0-1.437-.492,2.347,2.347,0,0,0-1.389.422,2.865,2.865,0,0,0-.932,1.107V0H23.212V-9.51Zm10.6-2.3v2.3h1.775v1.257H35.35v5.9a1.32,1.32,0,0,0,.237.858A1,1,0,0,0,36.4-1.2a3.937,3.937,0,0,0,.773-.105V0a4.742,4.742,0,0,1-1.248.175,2.025,2.025,0,0,1-1.644-.659,2.832,2.832,0,0,1-.554-1.872v-5.9H31.992V-9.51h1.731v-2.3ZM43.62-8.051a4.873,4.873,0,0,0-.8-.062A2.143,2.143,0,0,0,40.649-6.75V0H39.023V-9.51h1.582l.026,1.1A2.532,2.532,0,0,1,42.9-9.686a1.661,1.661,0,0,1,.721.123Zm.708,3.208a5.617,5.617,0,0,1,.549-2.514,4.1,4.1,0,0,1,1.529-1.723,4.163,4.163,0,0,1,2.237-.606,4.01,4.01,0,0,1,3.142,1.345,5.174,5.174,0,0,1,1.2,3.577v.114a5.666,5.666,0,0,1-.532,2.492A4.038,4.038,0,0,1,50.933-.439a4.211,4.211,0,0,1-2.272.615,4,4,0,0,1-3.133-1.345,5.147,5.147,0,0,1-1.2-3.56Zm1.635.193a4.068,4.068,0,0,0,.734,2.54,2.349,2.349,0,0,0,1.964.958,2.335,2.335,0,0,0,1.969-.971,4.449,4.449,0,0,0,.729-2.72,4.061,4.061,0,0,0-.743-2.536,2.361,2.361,0,0,0-1.973-.971,2.335,2.335,0,0,0-1.942.958A4.416,4.416,0,0,0,45.963-4.649ZM56.791,0H55.165V-13.5h1.626Zm6.662-4.834a5.571,5.571,0,0,1,1.037-3.52,3.28,3.28,0,0,1,2.716-1.332,3.3,3.3,0,0,1,2.646,1.143V-13.5h1.626V0H69.983L69.9-1.02a3.311,3.311,0,0,1-2.716,1.2,3.248,3.248,0,0,1-2.694-1.354,5.634,5.634,0,0,1-1.042-3.533Zm1.626.185a4.218,4.218,0,0,0,.668,2.531,2.159,2.159,0,0,0,1.846.914,2.372,2.372,0,0,0,2.259-1.389V-6.961A2.39,2.39,0,0,0,67.61-8.306a2.17,2.17,0,0,0-1.863.923A4.644,4.644,0,0,0,65.079-4.649ZM77.946.176A4.155,4.155,0,0,1,74.8-1.094a4.714,4.714,0,0,1-1.213-3.4v-.3a5.707,5.707,0,0,1,.541-2.527,4.217,4.217,0,0,1,1.512-1.74,3.8,3.8,0,0,1,2.1-.628,3.562,3.562,0,0,1,2.883,1.222,5.289,5.289,0,0,1,1.028,3.5v.677H75.213a3.38,3.38,0,0,0,.822,2.272,2.583,2.583,0,0,0,2,.866A2.832,2.832,0,0,0,79.493-1.5a3.666,3.666,0,0,0,1.046-.932l.993.773A3.993,3.993,0,0,1,77.946.176Zm-.2-8.525a2.169,2.169,0,0,0-1.652.716,3.482,3.482,0,0,0-.826,2.008h4.764v-.123a3.1,3.1,0,0,0-.668-1.92A2.042,2.042,0,0,0,77.744-8.35ZM2.03,18V9.747H.527V8.49h1.5V7.515A3.238,3.238,0,0,1,2.848,5.15a3.088,3.088,0,0,1,2.312-.835,4.293,4.293,0,0,1,1.116.148L6.188,5.774A4.67,4.67,0,0,0,5.309,5.7a1.586,1.586,0,0,0-1.222.463,1.877,1.877,0,0,0-.431,1.327V8.49h2.03V9.747H3.656V18Zm11.32,0a3.416,3.416,0,0,1-.229-1,3.628,3.628,0,0,1-2.707,1.178,3.357,3.357,0,0,1-2.307-.8,2.573,2.573,0,0,1-.9-2.017,2.688,2.688,0,0,1,1.129-2.307,5.325,5.325,0,0,1,3.177-.822H13.1v-.747a1.826,1.826,0,0,0-.51-1.358,2.049,2.049,0,0,0-1.5-.505,2.371,2.371,0,0,0-1.459.439,1.3,1.3,0,0,0-.589,1.063H7.4a2.244,2.244,0,0,1,.505-1.375A3.449,3.449,0,0,1,9.277,8.7a4.613,4.613,0,0,1,1.9-.387,3.759,3.759,0,0,1,2.575.822,2.964,2.964,0,0,1,.967,2.263v4.377a5.351,5.351,0,0,0,.334,2.083V18Zm-2.7-1.239a2.858,2.858,0,0,0,1.45-.4,2.392,2.392,0,0,0,.993-1.028V13.386H11.821q-2.988,0-2.988,1.749a1.48,1.48,0,0,0,.51,1.2A1.959,1.959,0,0,0,10.652,16.761Zm10.433.088a2.342,2.342,0,0,0,1.521-.527A1.855,1.855,0,0,0,23.326,15h1.538a2.949,2.949,0,0,1-.562,1.556,3.7,3.7,0,0,1-1.384,1.178,3.994,3.994,0,0,1-1.833.439A3.918,3.918,0,0,1,18,16.879a5.163,5.163,0,0,1-1.147-3.546v-.272a5.725,5.725,0,0,1,.51-2.47,3.883,3.883,0,0,1,1.463-1.679,4.157,4.157,0,0,1,2.254-.6,3.814,3.814,0,0,1,2.659.958,3.424,3.424,0,0,1,1.129,2.487H23.326a2.241,2.241,0,0,0-.7-1.516,2.174,2.174,0,0,0-1.551-.593,2.276,2.276,0,0,0-1.92.892,4.19,4.19,0,0,0-.681,2.58v.308a4.106,4.106,0,0,0,.677,2.531A2.287,2.287,0,0,0,21.085,16.849ZM28.9,6.188v2.3h1.775V9.747H28.9v5.9a1.32,1.32,0,0,0,.237.858,1,1,0,0,0,.809.286,3.937,3.937,0,0,0,.773-.105V18a4.742,4.742,0,0,1-1.248.175,2.025,2.025,0,0,1-1.644-.659,2.832,2.832,0,0,1-.554-1.872v-5.9H25.541V8.49h1.731v-2.3ZM38.443,17.06a3.454,3.454,0,0,1-2.786,1.116,2.956,2.956,0,0,1-2.316-.883,3.823,3.823,0,0,1-.8-2.615V8.49h1.626v6.144q0,2.162,1.758,2.162A2.434,2.434,0,0,0,38.4,15.407V8.49h1.626V18H38.479Zm8.648-7.11a4.873,4.873,0,0,0-.8-.062,2.143,2.143,0,0,0-2.171,1.362V18H42.5V8.49h1.582l.026,1.1a2.532,2.532,0,0,1,2.268-1.274,1.661,1.661,0,0,1,.721.123ZM54.105,18a3.416,3.416,0,0,1-.229-1,3.628,3.628,0,0,1-2.707,1.178,3.357,3.357,0,0,1-2.307-.8,2.573,2.573,0,0,1-.9-2.017,2.688,2.688,0,0,1,1.129-2.307,5.325,5.325,0,0,1,3.177-.822h1.582v-.747a1.826,1.826,0,0,0-.51-1.358,2.049,2.049,0,0,0-1.5-.505,2.371,2.371,0,0,0-1.459.439,1.3,1.3,0,0,0-.589,1.063H48.155a2.244,2.244,0,0,1,.505-1.375A3.449,3.449,0,0,1,50.032,8.7a4.613,4.613,0,0,1,1.9-.387,3.759,3.759,0,0,1,2.575.822,2.964,2.964,0,0,1,.967,2.263v4.377a5.351,5.351,0,0,0,.334,2.083V18Zm-2.7-1.239a2.858,2.858,0,0,0,1.45-.4,2.392,2.392,0,0,0,.993-1.028V13.386H52.576q-2.988,0-2.988,1.749a1.48,1.48,0,0,0,.51,1.2A1.959,1.959,0,0,0,51.407,16.761Zm12.155-1.283a1.2,1.2,0,0,0-.5-1.024,4.78,4.78,0,0,0-1.731-.628,8.186,8.186,0,0,1-1.96-.633,2.788,2.788,0,0,1-1.072-.879,2.1,2.1,0,0,1-.347-1.213,2.467,2.467,0,0,1,.989-1.978,3.861,3.861,0,0,1,2.527-.809,3.974,3.974,0,0,1,2.624.835A2.652,2.652,0,0,1,65.1,11.285H63.466a1.468,1.468,0,0,0-.567-1.151,2.124,2.124,0,0,0-1.428-.483,2.223,2.223,0,0,0-1.389.387,1.217,1.217,0,0,0-.5,1.011.986.986,0,0,0,.466.888,5.731,5.731,0,0,0,1.683.571,8.77,8.77,0,0,1,1.973.65,2.878,2.878,0,0,1,1.121.91,2.237,2.237,0,0,1,.365,1.3,2.434,2.434,0,0,1-1.02,2.043,4.277,4.277,0,0,1-2.646.769,4.789,4.789,0,0,1-2.021-.4,3.288,3.288,0,0,1-1.375-1.129,2.722,2.722,0,0,1-.5-1.569h1.626a1.683,1.683,0,0,0,.655,1.3,2.54,2.54,0,0,0,1.613.479A2.622,2.622,0,0,0,63,16.475,1.148,1.148,0,0,0,63.563,15.478Z" transform="translate(439.135 5259.732)" fill="#1e168c"/><path d="M5.256-5.7A7.935,7.935,0,0,1,2.1-7.238a2.93,2.93,0,0,1-.989-2.246,3.1,3.1,0,0,1,1.208-2.5,4.8,4.8,0,0,1,3.142-.989,5.243,5.243,0,0,1,2.351.51,3.866,3.866,0,0,1,1.6,1.406A3.6,3.6,0,0,1,9.976-9.1h-1.7a2.34,2.34,0,0,0-.738-1.83,3,3,0,0,0-2.083-.666,3.074,3.074,0,0,0-1.947.55,1.836,1.836,0,0,0-.7,1.528A1.652,1.652,0,0,0,3.476-8.19,6.509,6.509,0,0,0,5.735-7.2a10.481,10.481,0,0,1,2.5.99A3.788,3.788,0,0,1,9.567-4.948,3.219,3.219,0,0,1,10-3.252,2.99,2.99,0,0,1,8.789-.76,5.171,5.171,0,0,1,5.546.176,6.015,6.015,0,0,1,3.085-.33,4.142,4.142,0,0,1,1.323-1.714a3.378,3.378,0,0,1-.62-2H2.4a2.2,2.2,0,0,0,.857,1.833,3.608,3.608,0,0,0,2.29.672,3.317,3.317,0,0,0,2.048-.545,1.77,1.77,0,0,0,.712-1.485,1.738,1.738,0,0,0-.659-1.455A7.6,7.6,0,0,0,5.256-5.7Zm10.6,5.88a4.155,4.155,0,0,1-3.146-1.27,4.714,4.714,0,0,1-1.213-3.4v-.3a5.707,5.707,0,0,1,.541-2.527,4.217,4.217,0,0,1,1.512-1.74,3.8,3.8,0,0,1,2.1-.628,3.562,3.562,0,0,1,2.883,1.222,5.289,5.289,0,0,1,1.028,3.5v.677H13.122a3.38,3.38,0,0,0,.822,2.272,2.583,2.583,0,0,0,2,.866A2.832,2.832,0,0,0,17.4-1.5a3.666,3.666,0,0,0,1.046-.932l.993.773A3.993,3.993,0,0,1,15.855.176Zm-.2-8.525A2.169,2.169,0,0,0,14-7.633a3.482,3.482,0,0,0-.826,2.008h4.764v-.123a3.1,3.1,0,0,0-.668-1.92A2.042,2.042,0,0,0,15.653-8.35ZM23.212,0H21.586V-13.5h1.626ZM29.76.176a4.155,4.155,0,0,1-3.146-1.27,4.714,4.714,0,0,1-1.213-3.4v-.3a5.707,5.707,0,0,1,.541-2.527,4.217,4.217,0,0,1,1.512-1.74,3.8,3.8,0,0,1,2.1-.628A3.562,3.562,0,0,1,32.44-8.464a5.289,5.289,0,0,1,1.028,3.5v.677H27.026a3.38,3.38,0,0,0,.822,2.272,2.583,2.583,0,0,0,2,.866A2.832,2.832,0,0,0,31.307-1.5a3.666,3.666,0,0,0,1.046-.932l.993.773A3.993,3.993,0,0,1,29.76.176Zm-.2-8.525a2.169,2.169,0,0,0-1.652.716,3.482,3.482,0,0,0-.826,2.008h4.764v-.123a3.1,3.1,0,0,0-.668-1.92A2.042,2.042,0,0,0,29.558-8.35Zm9.606,7.2a2.342,2.342,0,0,0,1.521-.527A1.855,1.855,0,0,0,41.405-3h1.538a2.949,2.949,0,0,1-.562,1.556A3.7,3.7,0,0,1,41-.264a3.994,3.994,0,0,1-1.833.439,3.918,3.918,0,0,1-3.089-1.3,5.163,5.163,0,0,1-1.147-3.546v-.272a5.725,5.725,0,0,1,.51-2.47A3.883,3.883,0,0,1,36.9-9.088a4.157,4.157,0,0,1,2.254-.6,3.814,3.814,0,0,1,2.659.958A3.424,3.424,0,0,1,42.943-6.24H41.405a2.241,2.241,0,0,0-.7-1.516,2.174,2.174,0,0,0-1.551-.593,2.276,2.276,0,0,0-1.92.892,4.19,4.19,0,0,0-.681,2.58v.308a4.106,4.106,0,0,0,.677,2.531A2.287,2.287,0,0,0,39.164-1.151Zm9.422,0a2.342,2.342,0,0,0,1.521-.527A1.855,1.855,0,0,0,50.827-3h1.538A2.949,2.949,0,0,1,51.8-1.441,3.7,3.7,0,0,1,50.418-.264a3.994,3.994,0,0,1-1.833.439,3.918,3.918,0,0,1-3.089-1.3A5.163,5.163,0,0,1,44.35-4.667v-.272a5.725,5.725,0,0,1,.51-2.47,3.883,3.883,0,0,1,1.463-1.679,4.157,4.157,0,0,1,2.254-.6,3.814,3.814,0,0,1,2.659.958A3.424,3.424,0,0,1,52.365-6.24H50.827a2.241,2.241,0,0,0-.7-1.516,2.174,2.174,0,0,0-1.551-.593,2.276,2.276,0,0,0-1.92.892,4.19,4.19,0,0,0-.681,2.58v.308a4.106,4.106,0,0,0,.677,2.531A2.287,2.287,0,0,0,48.586-1.151ZM55.96,0H54.334V-9.51H55.96ZM54.2-12.032a.971.971,0,0,1,.242-.668.907.907,0,0,1,.716-.272.922.922,0,0,1,.721.272.96.96,0,0,1,.246.668.929.929,0,0,1-.246.659.938.938,0,0,1-.721.264.924.924,0,0,1-.716-.264A.938.938,0,0,1,54.2-12.032Zm3.929,7.189a5.617,5.617,0,0,1,.549-2.514,4.1,4.1,0,0,1,1.529-1.723,4.163,4.163,0,0,1,2.237-.606,4.01,4.01,0,0,1,3.142,1.345,5.174,5.174,0,0,1,1.2,3.577v.114a5.666,5.666,0,0,1-.532,2.492A4.038,4.038,0,0,1,64.736-.439a4.211,4.211,0,0,1-2.272.615,4,4,0,0,1-3.133-1.345,5.147,5.147,0,0,1-1.2-3.56Zm1.635.193a4.068,4.068,0,0,0,.734,2.54,2.349,2.349,0,0,0,1.964.958,2.335,2.335,0,0,0,1.969-.971,4.449,4.449,0,0,0,.729-2.72,4.061,4.061,0,0,0-.743-2.536,2.361,2.361,0,0,0-1.973-.971,2.335,2.335,0,0,0-1.942.958A4.416,4.416,0,0,0,59.766-4.649Zm10.6-4.86.053,1.2a3.465,3.465,0,0,1,2.848-1.371q3.015,0,3.041,3.4V0H74.681V-6.293a2.189,2.189,0,0,0-.47-1.521,1.884,1.884,0,0,0-1.437-.492,2.347,2.347,0,0,0-1.389.422,2.865,2.865,0,0,0-.932,1.107V0H68.827V-9.51ZM84.63,0A3.416,3.416,0,0,1,84.4-1,3.628,3.628,0,0,1,81.694.176a3.357,3.357,0,0,1-2.307-.8,2.573,2.573,0,0,1-.9-2.017,2.688,2.688,0,0,1,1.129-2.307,5.325,5.325,0,0,1,3.177-.822h1.582v-.747a1.826,1.826,0,0,0-.51-1.358,2.049,2.049,0,0,0-1.5-.505,2.371,2.371,0,0,0-1.459.439,1.3,1.3,0,0,0-.589,1.063H78.68a2.244,2.244,0,0,1,.505-1.375A3.449,3.449,0,0,1,80.556-9.3a4.613,4.613,0,0,1,1.9-.387,3.759,3.759,0,0,1,2.575.822A2.964,2.964,0,0,1,86-6.6v4.377a5.351,5.351,0,0,0,.334,2.083V0Zm-2.7-1.239a2.858,2.858,0,0,0,1.45-.4,2.392,2.392,0,0,0,.993-1.028V-4.614H83.1q-2.988,0-2.988,1.749a1.48,1.48,0,0,0,.51,1.2A1.959,1.959,0,0,0,81.932-1.239ZM93.146-8.051a4.873,4.873,0,0,0-.8-.062A2.143,2.143,0,0,0,90.176-6.75V0H88.55V-9.51h1.582l.026,1.1a2.532,2.532,0,0,1,2.268-1.274,1.661,1.661,0,0,1,.721.123Z" transform="translate(825.983 5409.968)" fill="#1e168c"/><path d="M5.177.176A4.155,4.155,0,0,1,2.03-1.094a4.714,4.714,0,0,1-1.213-3.4v-.3a5.707,5.707,0,0,1,.541-2.527A4.217,4.217,0,0,1,2.87-9.057a3.8,3.8,0,0,1,2.1-.628A3.562,3.562,0,0,1,7.857-8.464a5.289,5.289,0,0,1,1.028,3.5v.677H2.443a3.38,3.38,0,0,0,.822,2.272,2.583,2.583,0,0,0,2,.866A2.832,2.832,0,0,0,6.724-1.5,3.666,3.666,0,0,0,7.77-2.435l.993.773A3.993,3.993,0,0,1,5.177.176Zm-.2-8.525a2.169,2.169,0,0,0-1.652.716A3.482,3.482,0,0,0,2.5-5.625H7.26v-.123a3.1,3.1,0,0,0-.668-1.92A2.042,2.042,0,0,0,4.975-8.35ZM12.533,0H10.907V-13.5h1.626ZM27.624-4.649a5.694,5.694,0,0,1-.993,3.5A3.183,3.183,0,0,1,23.941.176a3.488,3.488,0,0,1-2.725-1.1V3.656H19.591V-9.51h1.485l.079,1.055a3.35,3.35,0,0,1,2.76-1.23,3.243,3.243,0,0,1,2.711,1.292,5.756,5.756,0,0,1,1,3.595ZM26-4.834a4.2,4.2,0,0,0-.686-2.54,2.208,2.208,0,0,0-1.881-.932A2.39,2.39,0,0,0,21.217-7v4.544a2.4,2.4,0,0,0,2.232,1.3,2.2,2.2,0,0,0,1.859-.927A4.587,4.587,0,0,0,26-4.834Z" transform="translate(821.419 5428.287)" fill="#1e168c"/><path d="M5.827-8.051a4.873,4.873,0,0,0-.8-.062A2.143,2.143,0,0,0,2.856-6.75V0H1.23V-9.51H2.813l.026,1.1A2.532,2.532,0,0,1,5.106-9.686a1.661,1.661,0,0,1,.721.123Z" transform="translate(850.685 5428.287)" fill="#1e168c"/><path d="M.8-4.843a5.617,5.617,0,0,1,.549-2.514A4.1,4.1,0,0,1,2.878-9.079a4.163,4.163,0,0,1,2.237-.606A4.01,4.01,0,0,1,8.257-8.341a5.174,5.174,0,0,1,1.2,3.577v.114a5.666,5.666,0,0,1-.532,2.492A4.038,4.038,0,0,1,7.4-.439,4.211,4.211,0,0,1,5.133.176,4,4,0,0,1,2-1.169,5.147,5.147,0,0,1,.8-4.729Zm1.635.193a4.068,4.068,0,0,0,.734,2.54,2.349,2.349,0,0,0,1.964.958A2.335,2.335,0,0,0,7.1-2.123a4.449,4.449,0,0,0,.729-2.72,4.061,4.061,0,0,0-.743-2.536A2.361,2.361,0,0,0,5.115-8.35a2.335,2.335,0,0,0-1.942.958A4.416,4.416,0,0,0,2.435-4.649Z" transform="translate(856.775 5428.287)" fill="#1e168c"/><path d="M4.368-2.206l2.355-7.3H8.385L4.975,0H3.735L.29-9.51H1.951Z" transform="translate(867.065 5428.287)" fill="#1e168c"/><path d="M4.889.166a3.924,3.924,0,0,1-2.972-1.2A4.452,4.452,0,0,1,.772-4.242v-.282a5.39,5.39,0,0,1,.51-2.386A3.982,3.982,0,0,1,2.71-8.554,3.59,3.59,0,0,1,4.7-9.147,3.364,3.364,0,0,1,7.421-7.994a5,5,0,0,1,.971,3.3v.639H2.308a3.193,3.193,0,0,0,.776,2.146,2.44,2.44,0,0,0,1.888.818A2.675,2.675,0,0,0,6.35-1.419a3.462,3.462,0,0,0,.988-.88l.938.73A3.772,3.772,0,0,1,4.889.166ZM4.7-7.886a2.048,2.048,0,0,0-1.561.677,3.288,3.288,0,0,0-.78,1.9h4.5v-.116a2.925,2.925,0,0,0-.631-1.814A1.928,1.928,0,0,0,4.7-7.886ZM13.9.166a3.924,3.924,0,0,1-2.972-1.2A4.452,4.452,0,0,1,9.778-4.242v-.282a5.39,5.39,0,0,1,.51-2.386,3.982,3.982,0,0,1,1.428-1.644A3.59,3.59,0,0,1,13.7-9.147a3.364,3.364,0,0,1,2.723,1.154,5,5,0,0,1,.971,3.3v.639H11.314a3.193,3.193,0,0,0,.776,2.146,2.44,2.44,0,0,0,1.888.818,2.675,2.675,0,0,0,1.378-.332,3.462,3.462,0,0,0,.988-.88l.938.73A3.772,3.772,0,0,1,13.9.166ZM13.7-7.886a2.048,2.048,0,0,0-1.561.677,3.288,3.288,0,0,0-.78,1.9h4.5v-.116a2.925,2.925,0,0,0-.631-1.814A1.928,1.928,0,0,0,13.7-7.886Zm5.1,3.32a5.261,5.261,0,0,1,.979-3.324,3.1,3.1,0,0,1,2.565-1.258,3.115,3.115,0,0,1,2.5,1.079V-12.75H26.38V0H24.969l-.075-.963A3.127,3.127,0,0,1,22.329.166a3.068,3.068,0,0,1-2.544-1.278A5.321,5.321,0,0,1,18.8-4.449Zm1.536.174A3.984,3.984,0,0,0,20.968-2a2.039,2.039,0,0,0,1.743.863,2.24,2.24,0,0,0,2.133-1.312V-6.574a2.257,2.257,0,0,0-2.117-1.27,2.049,2.049,0,0,0-1.76.872A4.386,4.386,0,0,0,20.337-4.391Zm8.019-.183a5.3,5.3,0,0,1,.519-2.374,3.87,3.87,0,0,1,1.444-1.627,3.932,3.932,0,0,1,2.113-.573A3.788,3.788,0,0,1,35.4-7.877,4.886,4.886,0,0,1,36.532-4.5v.108a5.351,5.351,0,0,1-.5,2.353A3.813,3.813,0,0,1,34.594-.415a3.977,3.977,0,0,1-2.146.581A3.778,3.778,0,0,1,29.489-1.1a4.861,4.861,0,0,1-1.133-3.362Zm1.544.183a3.842,3.842,0,0,0,.693,2.4,2.218,2.218,0,0,0,1.855.9A2.2,2.2,0,0,0,34.307-2,4.2,4.2,0,0,0,35-4.574a3.836,3.836,0,0,0-.7-2.395,2.23,2.23,0,0,0-1.864-.917,2.205,2.205,0,0,0-1.834.9A4.17,4.17,0,0,0,29.9-4.391ZM42.8-7.6a4.6,4.6,0,0,0-.755-.058,2.024,2.024,0,0,0-2.05,1.287V0H38.458V-8.981h1.494l.025,1.038a2.391,2.391,0,0,1,2.142-1.2,1.569,1.569,0,0,1,.681.116Z" transform="translate(876.164 5427.287)" fill="#1e168c"/><path d="M8.719-5.915H3.173V-1.38H9.615V0H1.485V-12.8H9.527v1.38H3.173v4.122H8.719ZM13-9.51l.053,1.2A3.465,3.465,0,0,1,15.9-9.686q3.015,0,3.041,3.4V0H17.314V-6.293a2.189,2.189,0,0,0-.47-1.521,1.884,1.884,0,0,0-1.437-.492,2.347,2.347,0,0,0-1.389.422,2.865,2.865,0,0,0-.932,1.107V0H11.461V-9.51Zm10.6-2.3v2.3h1.775v1.257H23.6v5.9a1.32,1.32,0,0,0,.237.858,1,1,0,0,0,.809.286,3.937,3.937,0,0,0,.773-.105V0A4.742,4.742,0,0,1,24.17.176a2.025,2.025,0,0,1-1.644-.659,2.832,2.832,0,0,1-.554-1.872v-5.9H20.241V-9.51h1.731v-2.3Zm8.271,3.762a4.873,4.873,0,0,0-.8-.062A2.143,2.143,0,0,0,28.9-6.75V0H27.272V-9.51h1.582l.026,1.1a2.532,2.532,0,0,1,2.268-1.274,1.661,1.661,0,0,1,.721.123ZM38.883,0a3.416,3.416,0,0,1-.229-1A3.628,3.628,0,0,1,35.947.176a3.357,3.357,0,0,1-2.307-.8,2.573,2.573,0,0,1-.9-2.017,2.688,2.688,0,0,1,1.129-2.307,5.325,5.325,0,0,1,3.177-.822h1.582v-.747a1.826,1.826,0,0,0-.51-1.358,2.049,2.049,0,0,0-1.5-.505,2.371,2.371,0,0,0-1.459.439,1.3,1.3,0,0,0-.589,1.063H32.933a2.244,2.244,0,0,1,.505-1.375A3.449,3.449,0,0,1,34.809-9.3a4.613,4.613,0,0,1,1.9-.387,3.759,3.759,0,0,1,2.575.822A2.964,2.964,0,0,1,40.254-6.6v4.377a5.351,5.351,0,0,0,.334,2.083V0Zm-2.7-1.239a2.858,2.858,0,0,0,1.45-.4,2.392,2.392,0,0,0,.993-1.028V-4.614H37.354q-2.988,0-2.988,1.749a1.48,1.48,0,0,0,.51,1.2A1.959,1.959,0,0,0,36.185-1.239Zm6.223-3.595a5.571,5.571,0,0,1,1.037-3.52A3.28,3.28,0,0,1,46.16-9.686a3.3,3.3,0,0,1,2.646,1.143V-13.5h1.626V0H48.938l-.079-1.02a3.311,3.311,0,0,1-2.716,1.2,3.248,3.248,0,0,1-2.694-1.354,5.634,5.634,0,0,1-1.042-3.533Zm1.626.185A4.218,4.218,0,0,0,44.7-2.118a2.159,2.159,0,0,0,1.846.914,2.372,2.372,0,0,0,2.259-1.389V-6.961a2.39,2.39,0,0,0-2.241-1.345,2.17,2.17,0,0,0-1.863.923A4.644,4.644,0,0,0,44.033-4.649ZM58.825,0A3.416,3.416,0,0,1,58.6-1,3.628,3.628,0,0,1,55.89.176a3.357,3.357,0,0,1-2.307-.8,2.573,2.573,0,0,1-.9-2.017,2.688,2.688,0,0,1,1.129-2.307,5.325,5.325,0,0,1,3.177-.822H58.57v-.747a1.826,1.826,0,0,0-.51-1.358,2.049,2.049,0,0,0-1.5-.505,2.371,2.371,0,0,0-1.459.439,1.3,1.3,0,0,0-.589,1.063H52.875a2.244,2.244,0,0,1,.505-1.375A3.449,3.449,0,0,1,54.751-9.3a4.613,4.613,0,0,1,1.9-.387,3.759,3.759,0,0,1,2.575.822A2.964,2.964,0,0,1,60.2-6.6v4.377A5.351,5.351,0,0,0,60.53-.141V0Zm-2.7-1.239a2.858,2.858,0,0,0,1.45-.4,2.392,2.392,0,0,0,.993-1.028V-4.614H57.3q-2.988,0-2.988,1.749a1.48,1.48,0,0,0,.51,1.2A1.959,1.959,0,0,0,56.127-1.239ZM66.806-4.834a5.571,5.571,0,0,1,1.037-3.52,3.28,3.28,0,0,1,2.716-1.332A3.3,3.3,0,0,1,73.2-8.543V-13.5H74.83V0H73.336l-.079-1.02a3.311,3.311,0,0,1-2.716,1.2,3.248,3.248,0,0,1-2.694-1.354,5.634,5.634,0,0,1-1.042-3.533Zm1.626.185A4.218,4.218,0,0,0,69.1-2.118a2.159,2.159,0,0,0,1.846.914A2.372,2.372,0,0,0,73.2-2.593V-6.961a2.39,2.39,0,0,0-2.241-1.345,2.17,2.17,0,0,0-1.863.923A4.644,4.644,0,0,0,68.432-4.649ZM81.3.176a4.155,4.155,0,0,1-3.146-1.27,4.714,4.714,0,0,1-1.213-3.4v-.3a5.707,5.707,0,0,1,.541-2.527,4.217,4.217,0,0,1,1.512-1.74,3.8,3.8,0,0,1,2.1-.628,3.562,3.562,0,0,1,2.883,1.222,5.289,5.289,0,0,1,1.028,3.5v.677H78.565a3.38,3.38,0,0,0,.822,2.272,2.583,2.583,0,0,0,2,.866A2.832,2.832,0,0,0,82.846-1.5a3.666,3.666,0,0,0,1.046-.932l.993.773A3.993,3.993,0,0,1,81.3.176ZM81.1-8.35a2.169,2.169,0,0,0-1.652.716,3.482,3.482,0,0,0-.826,2.008h4.764v-.123a3.1,3.1,0,0,0-.668-1.92A2.042,2.042,0,0,0,81.1-8.35ZM2.76,8.49,2.8,9.545a3.512,3.512,0,0,1,2.821-1.23A2.719,2.719,0,0,1,8.341,9.844,3.6,3.6,0,0,1,9.576,8.736a3.647,3.647,0,0,1,1.8-.422q3.129,0,3.182,3.313V18H12.929V11.725a2.184,2.184,0,0,0-.466-1.525A2.051,2.051,0,0,0,10.9,9.694a2.156,2.156,0,0,0-1.5.541A2.193,2.193,0,0,0,8.7,11.689V18H7.066V11.769a1.814,1.814,0,0,0-2.03-2.074,2.175,2.175,0,0,0-2.188,1.362V18H1.222V8.49Zm18.193,9.686a4.155,4.155,0,0,1-3.146-1.27,4.714,4.714,0,0,1-1.213-3.4v-.3a5.707,5.707,0,0,1,.541-2.527,4.217,4.217,0,0,1,1.512-1.74,3.8,3.8,0,0,1,2.1-.628,3.562,3.562,0,0,1,2.883,1.222,5.289,5.289,0,0,1,1.028,3.5v.677H18.22a3.38,3.38,0,0,0,.822,2.272,2.583,2.583,0,0,0,2,.866A2.832,2.832,0,0,0,22.5,16.5a3.666,3.666,0,0,0,1.046-.932l.993.773A3.993,3.993,0,0,1,20.953,18.176Zm-.2-8.525a2.169,2.169,0,0,0-1.652.716,3.482,3.482,0,0,0-.826,2.008h4.764v-.123a3.1,3.1,0,0,0-.668-1.92A2.042,2.042,0,0,0,20.751,9.65Zm10.389.3a4.873,4.873,0,0,0-.8-.062,2.143,2.143,0,0,0-2.171,1.362V18H26.543V8.49h1.582l.026,1.1a2.532,2.532,0,0,1,2.268-1.274,1.661,1.661,0,0,1,.721.123Zm4.962,6.9a2.342,2.342,0,0,0,1.521-.527A1.855,1.855,0,0,0,38.342,15h1.538a2.949,2.949,0,0,1-.562,1.556,3.7,3.7,0,0,1-1.384,1.178,3.994,3.994,0,0,1-1.833.439,3.918,3.918,0,0,1-3.089-1.3,5.163,5.163,0,0,1-1.147-3.546v-.272a5.725,5.725,0,0,1,.51-2.47,3.883,3.883,0,0,1,1.463-1.679,4.157,4.157,0,0,1,2.254-.6,3.814,3.814,0,0,1,2.659.958,3.424,3.424,0,0,1,1.129,2.487H38.342a2.241,2.241,0,0,0-.7-1.516,2.174,2.174,0,0,0-1.551-.593,2.276,2.276,0,0,0-1.92.892,4.19,4.19,0,0,0-.681,2.58v.308a4.106,4.106,0,0,0,.677,2.531A2.287,2.287,0,0,0,36.1,16.849ZM47.58,18a3.416,3.416,0,0,1-.229-1,3.628,3.628,0,0,1-2.707,1.178,3.357,3.357,0,0,1-2.307-.8,2.573,2.573,0,0,1-.9-2.017,2.688,2.688,0,0,1,1.129-2.307,5.325,5.325,0,0,1,3.177-.822h1.582v-.747a1.826,1.826,0,0,0-.51-1.358,2.049,2.049,0,0,0-1.5-.505,2.371,2.371,0,0,0-1.459.439,1.3,1.3,0,0,0-.589,1.063H41.63a2.244,2.244,0,0,1,.505-1.375A3.449,3.449,0,0,1,43.506,8.7a4.613,4.613,0,0,1,1.9-.387,3.759,3.759,0,0,1,2.575.822,2.964,2.964,0,0,1,.967,2.263v4.377a5.351,5.351,0,0,0,.334,2.083V18Zm-2.7-1.239a2.858,2.858,0,0,0,1.45-.4,2.392,2.392,0,0,0,.993-1.028V13.386H46.05q-2.988,0-2.988,1.749a1.48,1.48,0,0,0,.51,1.2A1.959,1.959,0,0,0,44.882,16.761ZM51.1,13.166a5.571,5.571,0,0,1,1.037-3.52A3.529,3.529,0,0,1,57.5,9.457V4.5h1.626V18H57.634l-.079-1.02a3.311,3.311,0,0,1-2.716,1.2,3.248,3.248,0,0,1-2.694-1.354A5.634,5.634,0,0,1,51.1,13.289Zm1.626.185a4.218,4.218,0,0,0,.668,2.531,2.159,2.159,0,0,0,1.846.914A2.372,2.372,0,0,0,57.5,15.407V11.039a2.39,2.39,0,0,0-2.241-1.345,2.17,2.17,0,0,0-1.863.923A4.644,4.644,0,0,0,52.73,13.351ZM65.6,18.176a4.155,4.155,0,0,1-3.146-1.27,4.714,4.714,0,0,1-1.213-3.4v-.3a5.707,5.707,0,0,1,.541-2.527,4.217,4.217,0,0,1,1.512-1.74,3.8,3.8,0,0,1,2.1-.628,3.562,3.562,0,0,1,2.883,1.222,5.289,5.289,0,0,1,1.028,3.5v.677H62.864a3.38,3.38,0,0,0,.822,2.272,2.583,2.583,0,0,0,2,.866,2.832,2.832,0,0,0,1.459-.352,3.666,3.666,0,0,0,1.046-.932l.993.773A3.993,3.993,0,0,1,65.6,18.176ZM65.4,9.65a2.169,2.169,0,0,0-1.652.716,3.482,3.482,0,0,0-.826,2.008H67.68v-.123a3.1,3.1,0,0,0-.668-1.92A2.042,2.042,0,0,0,65.4,9.65Zm10.389.3a4.873,4.873,0,0,0-.8-.062,2.143,2.143,0,0,0-2.171,1.362V18H71.187V8.49h1.582l.026,1.1a2.532,2.532,0,0,1,2.268-1.274,1.661,1.661,0,0,1,.721.123ZM79.045,18H77.41V8.49h1.635Zm.018-13.491h1.969L78.675,7.093l-1.31,0ZM87.6,18a3.416,3.416,0,0,1-.229-1,3.628,3.628,0,0,1-2.707,1.178,3.357,3.357,0,0,1-2.307-.8,2.573,2.573,0,0,1-.9-2.017,2.688,2.688,0,0,1,1.129-2.307,5.325,5.325,0,0,1,3.177-.822h1.582v-.747a1.826,1.826,0,0,0-.51-1.358,2.049,2.049,0,0,0-1.5-.505,2.371,2.371,0,0,0-1.459.439,1.3,1.3,0,0,0-.589,1.063H81.646a2.244,2.244,0,0,1,.505-1.375A3.449,3.449,0,0,1,83.523,8.7a4.613,4.613,0,0,1,1.9-.387A3.759,3.759,0,0,1,88,9.136a2.964,2.964,0,0,1,.967,2.263v4.377a5.351,5.351,0,0,0,.334,2.083V18Zm-2.7-1.239a2.858,2.858,0,0,0,1.45-.4,2.392,2.392,0,0,0,.993-1.028V13.386H86.067q-2.988,0-2.988,1.749a1.48,1.48,0,0,0,.51,1.2A1.959,1.959,0,0,0,84.9,16.761Zm12.155-1.283a1.2,1.2,0,0,0-.5-1.024,4.78,4.78,0,0,0-1.731-.628,8.186,8.186,0,0,1-1.96-.633,2.788,2.788,0,0,1-1.072-.879,2.1,2.1,0,0,1-.347-1.213,2.467,2.467,0,0,1,.989-1.978,3.861,3.861,0,0,1,2.527-.809,3.974,3.974,0,0,1,2.624.835,2.652,2.652,0,0,1,1.006,2.136H96.957a1.468,1.468,0,0,0-.567-1.151,2.124,2.124,0,0,0-1.428-.483,2.223,2.223,0,0,0-1.389.387,1.217,1.217,0,0,0-.5,1.011.986.986,0,0,0,.466.888,5.731,5.731,0,0,0,1.683.571,8.77,8.77,0,0,1,1.973.65,2.878,2.878,0,0,1,1.121.91,2.237,2.237,0,0,1,.365,1.3,2.434,2.434,0,0,1-1.02,2.043,4.277,4.277,0,0,1-2.646.769,4.789,4.789,0,0,1-2.021-.4,3.288,3.288,0,0,1-1.375-1.129,2.722,2.722,0,0,1-.5-1.569h1.626a1.683,1.683,0,0,0,.655,1.3,2.54,2.54,0,0,0,1.613.479,2.622,2.622,0,0,0,1.481-.374A1.148,1.148,0,0,0,97.053,15.478Zm11.312.141L110.58,8.49h1.74L108.5,19.468q-.888,2.373-2.821,2.373l-.308-.026-.606-.114V20.382l.439.035a2.164,2.164,0,0,0,1.288-.334,2.417,2.417,0,0,0,.76-1.222l.36-.967-3.393-9.4h1.775ZM.844,31.166a5.589,5.589,0,0,1,1.028-3.538A3.289,3.289,0,0,1,4.6,26.314a3.271,3.271,0,0,1,2.716,1.23l.079-1.055H8.877v9.281a3.869,3.869,0,0,1-1.094,2.909,4.038,4.038,0,0,1-2.94,1.063A4.891,4.891,0,0,1,2.83,39.3a3.465,3.465,0,0,1-1.5-1.2l.844-.976a3.18,3.18,0,0,0,2.558,1.292,2.491,2.491,0,0,0,1.85-.668,2.553,2.553,0,0,0,.664-1.881v-.817a3.342,3.342,0,0,1-2.663,1.125,3.248,3.248,0,0,1-2.7-1.345A5.876,5.876,0,0,1,.844,31.166Zm1.635.185a4.264,4.264,0,0,0,.659,2.527,2.142,2.142,0,0,0,1.846.918,2.382,2.382,0,0,0,2.259-1.4V29.057A2.41,2.41,0,0,0,5,27.694a2.161,2.161,0,0,0-1.854.923A4.644,4.644,0,0,0,2.479,31.351Zm12.8,4.825a4.155,4.155,0,0,1-3.146-1.27,4.714,4.714,0,0,1-1.213-3.4v-.3a5.707,5.707,0,0,1,.541-2.527,4.217,4.217,0,0,1,1.512-1.74,3.8,3.8,0,0,1,2.1-.628,3.562,3.562,0,0,1,2.883,1.222,5.289,5.289,0,0,1,1.028,3.5v.677H12.542a3.38,3.38,0,0,0,.822,2.272,2.583,2.583,0,0,0,2,.866,2.832,2.832,0,0,0,1.459-.352,3.666,3.666,0,0,0,1.046-.932l.993.773A3.993,3.993,0,0,1,15.275,36.176Zm-.2-8.525a2.169,2.169,0,0,0-1.652.716,3.482,3.482,0,0,0-.826,2.008h4.764v-.123a3.1,3.1,0,0,0-.668-1.92A2.042,2.042,0,0,0,15.073,27.65ZM26.4,33.478a1.2,1.2,0,0,0-.5-1.024,4.78,4.78,0,0,0-1.731-.628,8.186,8.186,0,0,1-1.96-.633,2.788,2.788,0,0,1-1.072-.879,2.1,2.1,0,0,1-.347-1.213,2.467,2.467,0,0,1,.989-1.978,3.861,3.861,0,0,1,2.527-.809,3.974,3.974,0,0,1,2.624.835,2.652,2.652,0,0,1,1.006,2.136H26.306a1.468,1.468,0,0,0-.567-1.151,2.124,2.124,0,0,0-1.428-.483,2.223,2.223,0,0,0-1.389.387,1.217,1.217,0,0,0-.5,1.011.986.986,0,0,0,.466.888,5.731,5.731,0,0,0,1.683.571,8.77,8.77,0,0,1,1.973.65,2.878,2.878,0,0,1,1.121.91,2.237,2.237,0,0,1,.365,1.3,2.434,2.434,0,0,1-1.02,2.043,4.277,4.277,0,0,1-2.646.769,4.789,4.789,0,0,1-2.021-.4,3.288,3.288,0,0,1-1.375-1.129,2.722,2.722,0,0,1-.5-1.569H22.1a1.683,1.683,0,0,0,.655,1.3,2.54,2.54,0,0,0,1.613.479,2.622,2.622,0,0,0,1.481-.374A1.148,1.148,0,0,0,26.4,33.478Zm5.95-9.29v2.3h1.775v1.257H32.353v5.9a1.32,1.32,0,0,0,.237.858,1,1,0,0,0,.809.286,3.937,3.937,0,0,0,.773-.105V36a4.742,4.742,0,0,1-1.248.175,2.025,2.025,0,0,1-1.644-.659,2.832,2.832,0,0,1-.554-1.872v-5.9H29V26.49h1.731v-2.3ZM37.793,36H36.167V26.49h1.626ZM36.035,23.968a.971.971,0,0,1,.242-.668.907.907,0,0,1,.716-.272.922.922,0,0,1,.721.272.96.96,0,0,1,.246.668.929.929,0,0,1-.246.659.938.938,0,0,1-.721.264.924.924,0,0,1-.716-.264A.938.938,0,0,1,36.035,23.968Zm3.929,7.189a5.617,5.617,0,0,1,.549-2.514,4.1,4.1,0,0,1,1.529-1.723,4.163,4.163,0,0,1,2.237-.606,4.01,4.01,0,0,1,3.142,1.345,5.174,5.174,0,0,1,1.2,3.577v.114a5.666,5.666,0,0,1-.532,2.492,4.038,4.038,0,0,1-1.521,1.718,4.211,4.211,0,0,1-2.272.615,4,4,0,0,1-3.133-1.345,5.147,5.147,0,0,1-1.2-3.56Zm1.635.193a4.068,4.068,0,0,0,.734,2.54,2.487,2.487,0,0,0,3.933-.013A4.449,4.449,0,0,0,47,31.157a4.061,4.061,0,0,0-.743-2.536,2.361,2.361,0,0,0-1.973-.971,2.335,2.335,0,0,0-1.942.958A4.416,4.416,0,0,0,41.6,31.351ZM45.018,22.5h1.969l-2.355,2.584-1.31,0ZM52.2,26.49l.053,1.2A3.465,3.465,0,0,1,55.1,26.314q3.015,0,3.041,3.4V36H56.514V29.707a2.189,2.189,0,0,0-.47-1.521,1.884,1.884,0,0,0-1.437-.492,2.347,2.347,0,0,0-1.389.422,2.865,2.865,0,0,0-.932,1.107V36H50.66V26.49Zm12.454,4.676a5.571,5.571,0,0,1,1.037-3.52,3.529,3.529,0,0,1,5.361-.189V22.5h1.626V36H71.183L71.1,34.98a3.311,3.311,0,0,1-2.716,1.2,3.248,3.248,0,0,1-2.694-1.354,5.634,5.634,0,0,1-1.042-3.533Zm1.626.185a4.218,4.218,0,0,0,.668,2.531,2.159,2.159,0,0,0,1.846.914,2.372,2.372,0,0,0,2.259-1.389V29.039a2.39,2.39,0,0,0-2.241-1.345,2.17,2.17,0,0,0-1.863.923A4.644,4.644,0,0,0,66.278,31.351Zm12.867,4.825A4.155,4.155,0,0,1,76,34.906a4.714,4.714,0,0,1-1.213-3.4v-.3a5.707,5.707,0,0,1,.541-2.527,4.217,4.217,0,0,1,1.512-1.74,3.8,3.8,0,0,1,2.1-.628,3.562,3.562,0,0,1,2.883,1.222,5.289,5.289,0,0,1,1.028,3.5v.677H76.412a3.38,3.38,0,0,0,.822,2.272,2.583,2.583,0,0,0,2,.866,2.832,2.832,0,0,0,1.459-.352,3.666,3.666,0,0,0,1.046-.932l.993.773A3.993,3.993,0,0,1,79.146,36.176Zm-.2-8.525a2.169,2.169,0,0,0-1.652.716,3.482,3.482,0,0,0-.826,2.008h4.764v-.123a3.1,3.1,0,0,0-.668-1.92A2.042,2.042,0,0,0,78.943,27.65Zm15.785,5.827a1.2,1.2,0,0,0-.5-1.024,4.78,4.78,0,0,0-1.731-.628,8.186,8.186,0,0,1-1.96-.633,2.788,2.788,0,0,1-1.072-.879,2.1,2.1,0,0,1-.347-1.213,2.467,2.467,0,0,1,.989-1.978,3.861,3.861,0,0,1,2.527-.809,3.974,3.974,0,0,1,2.624.835,2.652,2.652,0,0,1,1.006,2.136H94.632a1.468,1.468,0,0,0-.567-1.151,2.124,2.124,0,0,0-1.428-.483,2.223,2.223,0,0,0-1.389.387,1.217,1.217,0,0,0-.5,1.011.986.986,0,0,0,.466.888,5.731,5.731,0,0,0,1.683.571,8.77,8.77,0,0,1,1.973.65,2.878,2.878,0,0,1,1.121.91,2.237,2.237,0,0,1,.365,1.3,2.434,2.434,0,0,1-1.02,2.043,4.277,4.277,0,0,1-2.646.769,4.789,4.789,0,0,1-2.021-.4,3.288,3.288,0,0,1-1.375-1.129,2.722,2.722,0,0,1-.5-1.569h1.626a1.683,1.683,0,0,0,.655,1.3,2.54,2.54,0,0,0,1.613.479,2.622,2.622,0,0,0,1.481-.374A1.148,1.148,0,0,0,94.729,33.478Zm5.95-9.29v2.3h1.775v1.257h-1.775v5.9a1.32,1.32,0,0,0,.237.858,1,1,0,0,0,.809.286,3.937,3.937,0,0,0,.773-.105V36a4.742,4.742,0,0,1-1.248.175,2.025,2.025,0,0,1-1.644-.659,2.832,2.832,0,0,1-.554-1.872v-5.9H97.321V26.49h1.731v-2.3Zm3.067,6.97a5.617,5.617,0,0,1,.549-2.514,4.1,4.1,0,0,1,1.529-1.723,4.163,4.163,0,0,1,2.237-.606,4.01,4.01,0,0,1,3.142,1.345,5.174,5.174,0,0,1,1.2,3.577v.114a5.666,5.666,0,0,1-.532,2.492,4.038,4.038,0,0,1-1.521,1.718,4.211,4.211,0,0,1-2.272.615,4,4,0,0,1-3.133-1.345,5.147,5.147,0,0,1-1.2-3.56Zm1.635.193a4.068,4.068,0,0,0,.734,2.54,2.487,2.487,0,0,0,3.933-.013,4.449,4.449,0,0,0,.729-2.72,4.061,4.061,0,0,0-.743-2.536,2.361,2.361,0,0,0-1.973-.971,2.335,2.335,0,0,0-1.942.958A4.416,4.416,0,0,0,105.381,31.351Zm12.876,3.5a2.342,2.342,0,0,0,1.521-.527A1.855,1.855,0,0,0,120.5,33h1.538a2.949,2.949,0,0,1-.562,1.556,3.7,3.7,0,0,1-1.384,1.178,3.994,3.994,0,0,1-1.833.439,3.918,3.918,0,0,1-3.089-1.3,5.163,5.163,0,0,1-1.147-3.546v-.272a5.725,5.725,0,0,1,.51-2.47,3.883,3.883,0,0,1,1.463-1.679,4.157,4.157,0,0,1,2.254-.6,3.814,3.814,0,0,1,2.659.958,3.424,3.424,0,0,1,1.129,2.487H120.5a2.241,2.241,0,0,0-.7-1.516,2.174,2.174,0,0,0-1.551-.593,2.276,2.276,0,0,0-1.92.892,4.19,4.19,0,0,0-.681,2.58v.308a4.106,4.106,0,0,0,.677,2.531A2.287,2.287,0,0,0,118.257,34.849Zm8.262-3.252L125.5,32.66V36h-1.626V22.5H125.5v8.165l.87-1.046,2.962-3.129h1.978l-3.7,3.973L131.739,36h-1.907Z" transform="translate(426.266 5401.77)" fill="#fff"/></g></svg>